<?xml version="1.0" encoding="utf-8"?>
<svg xmlns="http://www.w3.org/2000/svg" width="256" height="256" viewBox="0 0 256 256" fill="none" version="1.1">
  <defs id="defs193"/>
  <g id="icon-artwork" transform="translate(128.000000 135.000000) scale(0.333465) translate(-233.397355 -244.495420)">
    <path fill="#163549" d="m 130.92148,152.98303 v 1 h -1 z" id="path3"/>
    <path fill="#6aa42e" d="m 463.92148,405.98303 2,2 -3,1 h -58 14 l -2,-2 h -17 l -14,-1 z" id="path4"/>
    <path fill="#02043f" d="m 193.92148,490.98303 v -39 c 0,-6 4,-9 10,-9 h 75 q 3,1 4,4 l 1,6 v 39 c -1,8 -8,8 -14,8 h -42 l -25,-1 q -6,0 -8,-7 z" id="path7"/>
    <path fill="#f7d410" d="m 278.92148,451.98303 v 13 l -1,2 -3,-15 -18,-1 h -52 l -6,1 -2,-1 1,-3 h 64 l 16,-1 z" id="path9"/>
    <path fill="#978530" d="m 278.92148,451.98303 1,31 -1,12 -79,1 -2,-3 -1,-42 2,1 5,-1 h 70 c 2,5 2,11 2,15 h 3 z" id="path10"/>
    <path id="path121" style="fill:#165016" d="m 228.46983,-19.785156 c -2.75312,1.110361 -4.23481,3.835452 -5.82648,6.157942 -8.85642,12.5934935 -17.20551,25.547908 -26.44363,37.870846 -3.81924,5.026961 -7.81382,9.927918 -12.1409,14.527988 -5.41706,6.345373 -10.10088,13.351839 -16.27379,19.023917 -2.87516,2.718124 -5.6981,5.506839 -8.13148,8.635952 -3.12019,3.909534 -5.99811,7.858529 -9.33212,11.573164 -3.53595,4.023976 -7.40932,7.757468 -11.64822,11.036378 -5.70452,4.92585 -10.82564,10.47639 -16.38899,15.555729 -10.16434,9.60227 -20.25803,19.28561 -30.668553,28.62143 -3.38673,2.76192 -7.01688,5.22351 -10.23763,8.18806 1.39373,3.58514 4.25461,6.47719 7.6828,8.16533 2.93671,1.37715 6.10442,2.29145 9.10171,3.43532 5.336443,1.94956 10.732363,3.80688 15.840493,6.04779 3.09754,1.25821 5.74415,3.44409 7.78017,6.0747 2.23988,2.8834 3.72014,6.17991 4.52842,9.74756 0.79631,3.66019 0.90951,7.44678 -0.17387,11.0956 -0.84264,3.00008 -2.50946,5.70167 -4.58723,8.00252 -3.32937,4.06545 -7.07423,7.76995 -11.03291,11.21935 -2.51691,2.25861 -4.74383,4.82303 -6.65222,7.61335 -1.996,2.7422 -3.86504,5.53288 -6.141983,7.99805 -1.90153,1.92722 -3.8773,3.7917 -5.54667,5.93298 -3.0127,3.99588 -6.7526,7.36294 -10.40971,10.75303 -3.37781,3.04356 -6.732735,6.11274 -9.976307,9.30098 -5.53785,5.20448 -11.391876,10.05663 -17.212741,14.93604 -3.197146,3.17208 -6.556039,6.18028 -10.121904,8.93303 -4.178774,3.38685 -8.455027,6.73245 -12.043242,10.75541 -1.239516,2.11894 -0.269011,4.78679 1.334029,6.42142 2.880001,3.38465 7.08224,5.14314 11.003765,6.99992 4.985853,2.20935 10.462802,3.84243 14.451616,7.75317 6.171261,5.98113 8.709404,15.58701 5.810798,23.74721 -1.40001,4.17535 -4.252244,7.74018 -7.70372,10.42221 -9.447836,8.46638 -18.740676,17.17644 -29.141817,24.48537 -8.240237,6.02632 -16.355546,12.23015 -24.1146968,18.86897 -5.734965,4.77292 -11.741882,9.26002 -16.9978622,14.57451 -3.310039,3.62176 -5.689891,8.08181 -6.940546,12.81854 -0.318302,1.47648 0.03765,3.04564 0.942087,4.25189 1.651413,2.8485 3.561316,5.58316 5.845971,7.95538 1.720219,1.33823 3.8232052,2.02882 5.7678792,2.96426 6.051281,2.51295 12.548359,3.65246 18.9680608,4.7845 6.469685,1.02311 13.033684,1.07081 19.564207,1.32767 10.470211,0.30675 20.946197,0.13724 31.419167,0.19176 27.895786,0.0293 55.792239,-0.0328 83.687429,0.17041 4.44933,0.0443 8.87992,0.51708 13.32026,0.76728 6.36997,0.43103 12.73993,0.86206 19.1099,1.29308 -0.47941,13.63464 -1.66001,27.2891 -1.60287,40.95786 0.39367,7.57817 0.31505,15.34418 1.81178,22.81518 0.5456,3.0735 0.96371,6.35501 2.82958,8.95477 1.93325,2.1775 4.97125,2.66576 7.69394,3.13557 4.35368,0.58087 8.75668,0.6056 13.12757,1.00334 8.17171,0.59182 16.36185,1.00742 24.55757,0.88914 15.06556,-0.0335 30.13508,0.12433 45.19693,-0.2764 7.00785,-0.30289 13.99241,-1.15656 20.8855,-2.44235 2.58747,-0.72604 4.56573,-2.81705 5.87304,-5.08398 0.79814,-1.41915 0.98994,-3.07382 0.8463,-4.67226 -0.0428,-10.68938 -0.10049,-21.38567 -0.76162,-32.05804 -0.10395,-2.89258 -0.4389,-5.76666 -0.11983,-8.66619 0.3093,-1.91087 1.04979,-3.5652 1.95389,-5.28799 1.75799,-2.98398 2.79982,-6.30914 3.64791,-9.64697 1.31893,-4.63561 2.63786,-9.27122 3.95679,-13.90683 1.20049,-0.18268 2.35647,-0.27147 3.49107,-0.30563 2.53713,-0.0804 4.92199,0.11038 7.44084,0.48832 1.30389,0.18537 2.56821,0.44646 3.74973,0.69035 2.60731,0.63303 5.24413,1.31544 7.95195,1.19298 4.91201,-0.0776 9.82347,0.0254 14.7359,-0.0356 25.55724,-0.14127 51.1099,-0.84795 76.66826,-0.786 10.98353,0.15609 21.97312,0.99381 32.95594,0.41583 4.80929,-0.49815 9.65358,-1.25898 14.18461,-2.99979 5.86199,-2.5482 10.69177,-6.901 15.14397,-11.38699 2.05041,-2.74793 1.99555,-6.37703 1.65892,-9.62818 -0.23166,-1.91738 -1.6405,-3.39725 -3.12721,-4.49547 -9.67756,-8.35957 -19.38663,-16.68363 -29.15853,-24.93264 -4.67267,-3.9464 -9.50312,-7.70169 -14.45829,-11.28658 -4.59972,-3.43097 -9.0261,-7.12829 -12.90086,-11.37356 -12.09583,-12.09583 -24.19165,-24.19165 -36.28747,-36.28747 13.35905,-8.96192 26.75198,-17.88124 40.40234,-26.39453 2.3381,-1.83126 3.83625,-4.47827 5.03906,-7.14258 -0.92284,-2.60268 -3.09199,-4.43825 -5.21494,-6.06693 -13.34642,-11.09737 -26.74554,-22.22698 -38.63139,-34.9156 -10.65543,-11.09795 -21.6186,-21.91815 -31.80676,-33.42885 -3.77924,-4.55324 -6.98622,-9.60852 -11.27307,-13.72101 -2.60658,-2.34189 -5.75313,-4.44279 -7.06813,-7.83817 -1.09367,-3.41055 -0.20533,-6.99844 0.0781,-10.46169 0.42615,-3.17153 1.76439,-6.18859 3.76613,-8.67844 3.85096,-5.62336 8.49185,-11.03979 14.71468,-14.09006 5.35572,-2.65541 11.43204,-3.15653 16.99316,-5.21593 2.04907,-1.01009 3.19437,-3.0871 4.6024,-4.78059 -1.8447,-3.22098 -4.64799,-5.74309 -7.46806,-8.09379 -4.21379,-3.30357 -8.99457,-5.88706 -12.80089,-9.70212 -3.09361,-2.98811 -5.92768,-6.37716 -9.36999,-8.91633 -4.95354,-3.9733 -10.16904,-7.64962 -14.7093,-12.1129 C 330.39541,97.682051 322.90334,90.625001 315.44371,83.558885 306.2817,74.761273 297.46866,65.597288 288.94242,56.209205 283.09995,49.602784 277.66519,42.652969 271.95812,35.931641 267.20374,30.23206 262.6329,24.380277 258.24306,18.396645 252.81031,11.112653 247.25562,3.9061305 242.10132,-3.5846585 c -2.74086,-4.1374154 -5.00361,-8.6126825 -8.1809,-12.4471655 -1.39396,-1.619788 -3.09911,-2.954441 -4.97793,-3.968176 -0.15755,0.07162 -0.3151,0.143229 -0.47266,0.214844 z"/>
    <path fill="#6aa42e" d="m 249.92148,163.98303 11,17 8,17 3,4 7,11 12,17 5,6 q 12,13 26,25 l 13,9 11,6 q 9,5 16,13 l 2,1 1,5 -11,2 -40,1 q -18,1 -36,-1 l -7,-2 3,6 4,6 14,18 12,14 9,9 1,1 11,9 17,17 5,4 13,10 6,5 6,4 6,5 c 1,2 5,3 7,3 h 79 l 2,2 -6,1 h -83 l -88,1 -146,-1 h -38 q 2,-2 0,-5 l -8.000003,-5 -10,-2 4,-1 -4,-1 -22.000001,-3 h -1 l 22.000001,-28 14,-20 7.000003,-11 q 3,-4 4,-10 h 12 c 13,-3 26,-4 38,-8 8,-3 13,-4 20,-4 2,-4 -6,-5 -8,-4 h -7 l -13,-3 -7,-2 h -11 l 12,-1 c 6,-4 10,-5 17,-6 q 7,-1 4,-9 2,-1 -1,-3 l -7,-1 -20,-3 -5,-1 -13,-2 -6,-2 -7,-1 18,-21 3,-5 9,-12 15,-23 6,-11 6,-9 4,-8 -5,3 q 0,-4 -5,-6 l 11,-6 1,-1 7,-3 q 0,-5 4,-7 l 15,-4 -4,-1 8,-1 2,-2 2,-10 -2,-2 q 2,-1 -2,-3 -11,-3 -19,-3 l -13,-3 q -8,0 -13,-2 1,-5 3,-7 l 11,-15 5,-7 3,-4.999999 7,-11 6,-9.999998 9,-15 4,-9 q 2,-8 6,-14 l 1,-2 4,-8 -2,1 2,-4 c 2,-1 2,-3 2,-4 l 9,-13.0000005 h 1 l 2,-3 -2,-3 q 2,-2 3,0 l 8,12.0000005 20,27 15,18 24,26.999998 q 8,10 18,17.999999 l 23,20 18,14 2,3 -7,4 q -20,8 -35,12 c -11,3 -24,0 -35,1 l -35,-1 z" id="path122"/>
    <path fill="#fcfe44" d="m 227.92148,3.9830325 h 2 l -1,5 -1,1 h -1 l -9,13.0000005 c 0,1 0,3 -2,4 l -2,4 -8,14 -3,9 -6,11 -15,24.999998 -23,34.999999 -7,10 h 3 l 9,2 35,5 5,2 2,1 -1,10 -3,3 -8,1 c -10,2 -17,2 -28,1 l -9,-1 -17,-3 -9,-2 v -1 h -1 l -18,-5 -4,-3 q 0,-5 2,-8 l 22,-19 18,-17.999999 22,-23.999998 9,-11 9,-11 c 4,-3 7,-8 10,-12 l 8,-11 z" id="path123" style="fill:#aad400"/>
    <path fill="#346a3b" d="m 203.92148,143.98303 -5,-2 -35,-5 -8,-2 h -4 l 7,-10 23,-34.999999 15,-24.999998 6,-11 3,-9 8,-14 1,-2 q 0,5 -2,8 l -1,2 q -5,7 -7,14 l -4,10 -9,15 -6,9.999998 -7,11 -3,4.999999 -5,7 -11,15 -4,6 q 6,3 12,3 l 15,3 18,2 q 5,3 3,4" id="path124"/>
    <path fill="#346a3b" d="m 364.92148,294.98303 -1,-4 -2,-2 q -7,-8 -16,-13 l -11,-6 -13,-9 q -14,-12 -26,-25 l -4,-4 -13,-19 -7,-11 -3,-4 -8,-17 -11,-17 h 1 l 3,-1 h 31 l 8,2 6,1 q 8,1 13,8 l 7,9 q 15,21 25,32 l 8,9 13,14 23,21 11,10 12,10 3,2 c 2,3 0,5 -3,6 l -9,2 -16,5 z" id="path131"/>
    <path fill="#fcfe44" d="m 159.92148,180.98303 q 5,2 5,6 l -4,9 -5,8 q -10,18 -23,37 l -11,14 -12,14 -4,3 q 2,4 5,4 l 19,3 9,2 23,3 6,2 q 3,8 -4,9 c -7,1 -11,2 -15,5 l -14,2 -14,-1 -19,-3 -13.000003,-2 -11.000001,-3 -19,-4 -5,-2 c 3,-6 6,-9 10,-12 l 19.000001,-17 11,-11 17.000003,-17 19,-21 10,-13 q 3,-5 8,-9 z" id="path133" style="fill:#aad400"/>
    <path fill="#346a3b" d="m 167.92148,285.98303 -6,-2 -23,-3 -9,-2 -19,-3 -5,-1 4,-6 12,-14 11,-14 q 13,-19 23,-37 l 5,-8 4,-9 5,-3 -3,7 -7,10 -6,11 -15,23 -9,12 -3,5 -18,21 6,1 7,2 13,2 5,1 20,3 h 6 q 4,3 2,4" id="path134"/>
    <path fill="#346a3b" d="m 463.92148,405.98303 h -79 c -2,0 -6,-1 -7,-3 l -6,-5 -6,-4 -6,-5 -13,-10 -5,-4 -17,-17 -11,-9 -1,-1 -9,-9 -12,-14 -14,-18 -4,-6 q 2,2 3,0 h 11 l 20,1 h 13 l 14,-1 8,1 q 10,0 20,-3 -2,4 -7,5 l -12,4 4,2 c 10,0 17,-1 22,7 q 17,20 34,36 l 30,25 26,21 z" id="path144"/>
    <path fill="#fcfe44" d="m 108.92148,322.98303 c 0,3 -1,4 -3,6 l -5,10 c -5.000003,9 -12.000003,18 -18.000003,26 q -3.000001,6 -6.000001,8 l -13,15 -6,5 1,1 c 10,0 19,1 28.000001,3 l 9,1 8.000003,5 q 3,4 2,6 H 2.9214762 q 0,-5 2,-7 l 8.9999998,-7 q 17,-12 31,-25 l 16,-13 28.000001,-28 c 6,-5 10,-9 18.000003,-7 z" id="path146" style="fill:#aad400"/>
    <path fill="#346a3b" d="m 110.92148,322.98303 q -1,6 -4,9 l -7.000003,12 -14,20 c -7.000001,10 -14.000001,17 -22.000001,26 l 1,2 21.000001,3 5,1 -4,1 c -9.000001,-2 -18.000001,-3 -28.000001,-3 h -1 l 6,-6 13,-15 q 3,-2 6.000001,-8 c 6,-8 13,-17 18.000003,-26 l 4,-8 c 3,-4 4,-5 4,-8 z" id="path147"/>
    <path fill="#f7d410" d="m 278.92148,451.98303 v 13 l -1,2 -3,-15 -18,-1 h -52 l -6,1 -2,-1 1,-3 h 64 l 16,-1 z" id="path151"/>
    <path fill="#978530" d="m 278.92148,451.98303 1,31 -1,12 -79,1 -2,-3 -1,-42 2,1 5,-1 h 70 l 3,15 h 2 z" id="path152"/>
  </g>
</svg>
