<?xml version="1.0" encoding="utf-8"?>
<svg xmlns="http://www.w3.org/2000/svg" width="256" height="256" viewBox="0 0 256 256" fill="none" version="1.1">
  <defs id="defs193"/>
  <g id="icon-artwork" transform="translate(125.000000 136.000000) scale(0.323145) translate(-304.497805 -207.628345)">
    <path fill="#cb0c01" d="m 436.9972,50.99939 q -1,3 -5,5 c -5,3 -11,4 -15,7 l -11,5 -11,4 -17,8 q -6,1 -5,-1 z" id="path2"/>
    <path id="path125" d="m 304.6554,-19.986939 c -3.24545,0.390333 -6.47682,1.016086 -9.69312,1.76792 -4.26217,1.46184 -8.40481,3.243741 -12.63752,4.786508 -12.66643,4.8752521 -25.30382,9.9270752 -37.49162,15.9084619 -7.32849,3.053914 -15.23981,4.554251 -22.35256,8.1532771 -5.02777,2.429056 -10.31487,4.24676 -15.48921,6.329179 -8.41948,3.286561 -16.84355,6.565428 -25.38796,9.516901 -3.74006,1.299381 -7.08117,3.250899 -10.65151,4.951981 -3.255,1.62128 -6.6317,2.975298 -10.05748,4.18721 -10.915,4.122501 -21.96602,8.022925 -32.52172,12.941536 -7.14061,3.326632 -14.64115,5.789584 -22.0134,8.508619 -11.70995,4.798443 -23.347203,9.770173 -35.026905,14.641625 -7.834876,3.306889 -15.701107,6.548667 -23.460452,10.027816 -2.99131,1.494405 -5.694465,3.829543 -6.983994,6.980094 -2.410567,5.05884 -2.916857,10.72989 -3.504352,16.227841 -0.633959,6.02777 -0.786326,11.99599 -0.620543,18.05973 0.236559,8.37134 0.830252,16.71537 1.202096,25.10003 0.394044,8.42829 0.87198,16.85658 0.932441,25.29604 0.04149,4.32449 -0.769949,8.69725 -2.738102,12.5718 -1.895344,3.86093 -5.018886,7.09563 -8.843343,9.07402 -4.039781,2.17934 -8.497984,3.39297 -12.694731,5.21808 -7.3074909,2.9223 -14.55871691,6.26393 -21.6476524,9.78063 -2.3752003,1.37713 -4.4282926,3.22626 -6.6088956,4.87848 -1.481879,1.15186 -2.296507,2.87934 -2.910894,4.60533 -1.086057,3.06226 -1.982965,6.19672 -2.708726,9.36384 -0.308128,1.48745 -0.564849,2.95105 -0.65375,4.39533 -0.184256,4.03468 -0.01923,8.07524 -0.0836,12.11249 0.02197,20.64185 -0.128236,41.28687 0.308377,61.92558 0.26471,11.17984 0.706647,22.31017 1.477803,33.46309 0.382017,1.06608 0.880059,2.09095 1.148041,3.20043 0.521476,1.74358 1.130431,3.54083 2.452538,4.85329 2.441959,3.05182 5.3919455,5.77188 8.4595321,8.05546 1.1346317,0.93882 2.4192236,1.65625 3.8237741,2.10552 2.20719089,0.74815 4.3767319,1.49313 6.5245069,2.29713 14.9749149,5.41366 30.0005269,10.69938 44.7654359,16.67176 5.991952,2.29235 12.17457,4.26025 18.186492,6.58884 12.329571,4.6214 24.559705,9.52431 37.050263,13.70592 13.77343,4.84125 27.59951,9.55628 41.09751,15.13444 6.38678,2.59434 12.76985,5.05753 19.37309,7.04398 14.47375,4.59867 28.89651,9.36543 43.44091,13.73469 4.81566,1.15073 9.90121,1.29286 14.74405,0.83788 5.22257,-0.42897 10.37101,-1.69955 15.16708,-3.81755 23.18605,-9.7218 46.54482,-18.96588 69.54703,-29.12511 4.87024,-2.11787 9.69865,-4.33566 14.61126,-6.35201 5.1283,-1.95807 10.27601,-3.90234 15.18857,-6.25045 10.60324,-4.95524 21.2031,-9.92292 31.93938,-14.5839 6.87098,-2.90574 14.27054,-4.91138 21.785,-4.64369 4.51666,0.12692 8.97309,1.08953 13.23516,2.56084 6.8434,2.08256 13.59774,4.46871 20.4951,6.37313 4.91382,1.22435 9.97754,1.50641 15.01992,1.14111 4.35254,-0.41793 8.71765,-1.18651 12.8156,-2.74951 5.37217,-2.19278 10.57849,-4.79815 16.10681,-6.59575 7.8713,-2.78638 15.51039,-5.81912 23.09522,-9.27537 10.23266,-4.55563 20.38659,-9.29599 30.7612,-13.52355 4.03055,-1.41854 8.04962,-2.62496 11.98098,-4.26448 2.64117,-1.15539 5.36266,-2.47172 8.03977,-3.67627 21.53846,-9.90167 43.15745,-19.63785 64.90287,-29.08362 4.6414,-2.08472 9.45466,-4.02857 13.45189,-7.24858 3.30112,-2.60289 5.86445,-6.23772 6.75226,-10.3853 0.38326,-1.50816 0.62093,-2.97813 0.81024,-4.57108 0.52042,-5.14563 0.38114,-10.32848 0.42383,-15.49297 -0.0202,-32.47306 0.0776,-64.94741 -0.1256,-97.41954 -0.35984,-6.55469 -1.63578,-13.2638 -5.13417,-18.91561 -0.75946,-1.04287 -1.85021,-1.50573 -2.85936,-2.25257 -2.79075,-2.01051 -5.63264,-3.96302 -8.65431,-5.61657 -3.31962,-1.88009 -6.95761,-3.41105 -10.54921,-4.82014 -7.78559,-3.04488 -15.70999,-5.66272 -23.5352,-8.61084 -12.61934,-4.56628 -25.1989,-9.21374 -37.86226,-13.61654 -6.93448,-1.65532 -13.69656,-3.92857 -20.52208,-5.97006 -1.82192,0.13411 -3.79792,0.38052 -5.49414,0.68164 -4.56558,0.82409 -8.94148,2.43244 -13.27245,4.05507 -4.56436,1.76958 -8.9935,3.95875 -13.14256,6.63094 -2.33132,1.56067 -5.10005,2.41196 -7.90565,2.38145 -5.75361,-0.0317 -11.04185,-3.72357 -13.82272,-8.6363 -2.13615,-3.67666 -2.9396,-8.08423 -2.26076,-12.28051 0.32729,-3.64804 0.0611,-7.31486 0.14802,-10.971351 -0.0226,-15.834996 0.0601,-31.672389 -0.15293,-47.505574 -0.44579,-4.624617 -0.30697,-9.291223 -1.81119,-13.747188 -1.57551,-4.59952 -4.45649,-9.016591 -8.86685,-11.312856 -3.61531,-1.847698 -7.40271,-3.325178 -11.14178,-4.896078 -11.00028,-4.330315 -22.40135,-7.508281 -33.64828,-11.1120381 -7.72856,-2.357345 -15.37081,-4.982923 -22.99476,-7.656383 -9.10316,-2.913258 -18.22621,-5.7636807 -27.38802,-8.5420045 -5.0195,-1.5169748 -10.10168,-2.8322079 -15.08141,-4.4726704 -4.25962,-1.566577 -8.30769,-3.588799 -12.84654,-4.245249 -7.77563,-1.526432 -15.49992,-3.356391 -23.27345,-4.600758 -0.71211,0.0043 -1.42422,0.0087 -2.13633,0.01306 z" style="fill:#aa4400"/>
    <path fill="#fcf35f" d="m 444.9972,42.99939 -1,3 q -5,5 -13,8 l -15,6 -40,17 -12,4 -4,2 -8,4 -18,6.999999 -13,6 -18,7.000001 -22,8 -15,7 -27,11 -13,5 c -3,1 -3,2 -4,5 l 1,22 v 43 l -1,17 v 1 c -4,-10 -2,-21 -2,-32 l -1,-48 c 0,-7 4,-11 10,-13 l 39,-18 20,-7 9,-4 30,-12.000001 10,-4 17,-6.999999 8,-4 c 4,-1 9,-2 14,-5 13,-7 27,-11 41,-18 l 23,-9 q -2,-6 -7,-8 l -56,-19 -38,-12.0000001 -21,-6.00000002994 q -12,-3.99999957006 -23,0 l -15,6.00000002994 c -8,5.0000001 -17,7.0000001 -25,12.0000001 l -23,8 -12,6 -25,9 -38,15 -17,8 -13,5 -16,7 c -12,6 -22,9 -36,13.999999 q -8,3 -11,7 c 7,4.000001 15,5.000001 23,7.000001 l 34,11 q 15,3 33,9 c 8,2 17,4 25,8 3,1 5,3 4,4 l -118,-33 h -4 l -3,-3.000001 2,-8 4,-2 5,-2.999999 8,-4 18,-6 h -1 l 9,-3 13,-6 39,-16 17,-7 18,-8 h 2 l 41,-16 5,-3 26,-10.0000001 11,-5 29,-10.9999996 h 5 -5 8 l 23,7.99999957006 10,3.00000002994 q 20,5 48,15.0000001 l 9,2 6,2 18,7 c 6,2 12,3 17,8 z" id="path127"/>
    <path fill="#f7d260" d="m 221.9972,224.99939 v 4 l -5,-1 c -5,3 -13,5 -19,3 l -1,-6 -2,-56 v -27 l -12,-6 c 1,-1 -1,-3 -3,-4 -9,-4 -18,-6 -26,-8 q -18,-6 -33,-9 l -34,-11 c -8,-2 -16,-3 -23,-6.000001 q 3,-5 11,-8 c 14,-4.999999 24,-7.999999 36,-13.999999 l 16,-7 13,-5 17,-8 38,-15 25,-10 12,-5 c 7,-3 16,-5 23,-9 8,-4 17,-6 25,-11.0000001 l 15,-6.00000002994 q 11,-3.99999957006 23,0 l 21,6.00000002994 c 13,3 23,8.0000001 38,12.0000001 l 56,19 q 5,2 7,7 l -23,10 c -14,7 -28,11 -41,18 -5,3 -10,4 -14,5 l -8,4 -17,6.999999 -10,4 -30,12.000001 -9,4 -20,7 -39,18 c -6,2 -10,6 -10,13 l 1,48 c 0,11 -2,22 0,32 z" id="path128"/>
    <path fill="#fcf35f" d="m 391.9972,38.99939 -23,-6 -37,-14 -8,-2 -12,-4 q -5,-2 -9,0 l -36,17 -17,7 -17,7 q -19,10 -30,14 l -28,12 -16,7 q -11,3 -21,9 l -4,1 h -2 q 11,-9 23,-14 l 28,-11 11,-5 q 8,-5 11,-5 l 14,-7 19,-8 19,-8 q 21,-11 44,-20.0000001 6,-3 14,0 l 40,13.0000001 16,6 c 5,2 14,4 21,8 z" id="path129"/>
    <path fill="#da5d1d" d="m 391.9972,38.99939 -1,2 -4,2 -24,11 -31,13 c -4,2 -11,3 -16,6 l -17,7 -22,8.999999 -21,9 -38,17.000001 c -4,2 -7,3 -12,1 l -44,-16.000001 -13,-4 q -9,-4 -19,-6 -2,0 1,-2 l 3,-0.999999 3,-1 q 11,-6 22,-9 l 16,-7 28,-12 q 11,-4 30,-14 l 17,-7 17,-7 36,-17 q 4,-2 9,0 l 12,4 8,2 37,14 z m -170,195 v -9 l 1,-17 v -43 l -1,-22 c 1,-3 1,-4 4,-5 l 13,-5 27,-11 15,-7 22,-8 18,-7.000001 13,-6 18,-6.999999 8,-4 4,-2 11,-3 41,-18 15,-6 q 8,-3 13,-8 l 1,-3 v 2 c 1,27 2,52.999999 0,79 l 2,7 -3,4 -11,6 -49,22 h -5 l -4,-14 v -6 l -1,-25 -1,-18.000001 -2,-9 -3,-7.999999 q -7,-1 -11,4 l -2,6.999999 -1,13.000001 1,66 q -16,10 -28,15 l -26,11 -17,8 -7,3 -26,12 z" id="path130"/>
    <path fill="#ee7620" d="m 59.9972,91.999389 -2,7 2,4.000001 h 5 l 118,33 11,5 1,28 2,56 1,5 c 6,3 14,1 18,-2 l 5,1 1,-2 v 7 l -7,3 c -3,2 -6,1 -10,0 l -9,-3 -19,-6 -22,-7 -15,-6 -43,-14 -3,-1 -25,-8 c -4,-2 -9,-3 -9,-8 l -1,-24 -1,-24 -1,-38.000001 q 0,-3 3,-6" id="path132"/>
    <path fill="#fcf35f" d="m 607.9972,166.99939 q 1,3 -1,5 l -14,6 -12,6 -8,4 -9,4 -8,4 -8,4 -10,4 -15,8 -8,3 -6,3 -10,5 q -9,5 -31,13 l -10,5 -10,5 -7,2 q -2,1 -2,3 v 103 l -4,1 v -42 l -1,-44 -1,-15 c 1,-8 6,-10 13,-12 l 6,-4 18,-8 27,-12 14,-7 15,-6 c 11,-6 19,-10 30,-14 l 11,-6 26,-12 8,-2 2,-4 -11,-5 c -7,-3 -12,-6 -20,-8 l -20,-8 -26,-10 c -6,-2 -13,-1 -20,3 l -11,6 q 15,-1 28,4 l 26,8 16,8 q -5,6 -12,10 l -30,14 -14,6 c -11,6 -23,10 -34,15 l -14,7 -28,11 c -6,3 -11,3 -17,1 l -27,-13 -13,-5 q -2,-1 -1,-3 l 6,-1 5,2 32,16 q 5,2 12,1 l 16,-7 c 8,-5 15,-7 25,-12 l 54,-24 22,-10 10,-5 q -15,-8 -30,-13 c -9,-4 -19,-6 -29,-3 h -13 l -2,-2 q -2,-2 0,-4 l 9,-5 10,-5 9,-5 q 7,-4 15,0 l 21,7 10,4 25,10 21,9 q 3,2 5,6" id="path135"/>
    <path fill="#f7d260" d="m 438.9972,309.99939 v 45 h -11 c -3,0 -4,-1 -5,-2 -4,0 -6,-1 -8,-3 l -2,-10 v -83 l -1,-7 -22,-9 -4,-5 -2,-4 -6,-6 -26,-14 -3,-2 c -1,-3 0,-4 2,-5 4,-1 6,-3 11,-2 l 19,4 -5,1 q -2,2 0,3 l 13,5 27,13 c 6,2 11,2 17,-1 l 28,-11 14,-7 c 11,-5 23,-9 34,-15 l 14,-6 30,-14 12,-8 q -7,-6 -16,-10 l -26,-8 q -13,-5 -27,-3 l 10,-7 c 7,-4 14,-5 20,-3 l 26,10 20,8 c 8,2 13,5 20,8 l 10,4 v 4 l -7,2 -28,13 -11,6 c -11,4 -19,8 -30,14 l -15,6 -14,7 -27,12 -18,8 -6,4 c -7,2 -12,4 -13,12 l 1,15 1,44 v 41 l 2,1 z" id="path136"/>
    <path fill="#ee7620" d="m 482.9972,145.99939 q -2,2 0,4 l 2,2 h 13 q 2,2 6,2 c 8,0 15,1 22,4 l 18,6 q 3,1 4,4 l -16,8 -34,15 -18,8 -13,6 -31,14 c -7,4 -11,5 -17,2 q -10,-3 -22,-10 -5,-2 -11,-2 l -5,-2 -19,-4 c -5,-1 -7,1 -11,2 -2,1 -3,2 -3,4 l 4,3 -4,-1 -1,-4 c 1,-2 4,-2 6,-3 l 6,-2 11,-5 8,-3 q 25,-12 51,-22 l 3,-2 44,-21 z" id="path137"/>
    <path fill="#da5d1d" d="m 385.9972,208.99939 q 6,0 11,2 12,7 22,10 c 6,3 10,2 17,-2 l 31,-14 13,-6 18,-8 34,-15 16,-7 q -1,-4 -4,-5 l -18,-6 c -7,-3 -14,-4 -22,-4 l -6,-2 c 10,-3 20,-1 29,3 l 30,10 c -3,4 -7,7 -10,8 l -22,10 -54,24 c -10,5 -17,7 -25,12 l -15,7 q -8,1 -13,-1 z" id="path138"/>
    <path fill="#da5d1d" d="m 385.9972,235.99939 3,4 22,8 2,9 v 83 l 1,9 c 3,3 5,4 9,4 l 4,2 h 1 l 9,2 2,-47 v -59 q 0,-2 2,-3 l 7,-2 10,-5 10,-5 q 22,-8 31,-13 l 10,-5 6,-3 8,-3 15,-8 10,-4 8,-4 8,-4 9,-4 8,-4 12,-6 13,-5 q 3,-3 2,-6 l 1,4 v 109 l -166,77 -8,1 -9,-2 -7,-2 -19,-6 -9,-3 -1,-13 -1,-68 q 0,-12 -3,-28" id="path139"/>
    <path fill="#f7d260" d="m 46.9972,211.99939 -9,3 2,2 -6,1 c 1,4 2,4 4,5 l 14,5 c 7,4 11,7 16,8 l 24,6 30,11 28,10 30,9 25,10 c 7,4 10,5 17,2 l 31,-13 33,-13 q 7,-4 18,-7 l 11,-5 15,-4 c 6,-1 13,1 15,7 -7,5 -18,8 -25,12 l -32,14 -17,7 -10,5 -24,11 c -4,1 -11,3 -15,8 l -1,8 1,58 v 21 q 0,10 4,2 v 4 l -1,4 c -4,-3 -5,-6 -11,-7 l -12,5 -3,-18 -1,-27 -1,-23 v -23 q 1,-5 -4,-7 l -18,-7 -36,-13 -25,-9 -1,15 v 25 l -1,21 -7,5 -6,-5 c 3,0 3,-3 3,-5 v -41 c -1,-9 -1,-16 -3,-23 l -18,-9 -16,-8 -23,-9 -18,-7 q -7,-3 -12,-8 c 3,-4 7,-6 14,-9 q 4,-1 6,-5 l -4,-1 q 4,-3 8,-2 z" id="path142"/>
    <path fill="#fcf35f" d="m 39.9972,216.99939 18,9 24,8 9,3 48,17 19,6 12,4 22,7 16,7 c 7,4 11,2 18,-1 l 9,-4 c 6,-1 9,-3 15,-6 l 8,-3 15,-6 9,-3 q 11,-6 24,-10 l 7,-3 9,-3 q 8,-3 16,-3 l 10,6 3,2 2,3 q 0,4 -3,5 l -30,14 -17,7 -13,6 -4,2 -8,3 -8,4 -14,6 -18,8 -12,5 v 88 q -4,8 -4,-2 v -21 l -1,-58 v -7 c 5,-6 12,-8 16,-9 l 24,-11 10,-5 17,-7 32,-14 25,-11 c -2,-7 -9,-9 -15,-8 l -15,4 -11,5 q -11,3 -18,7 l -33,13 -31,13 c -7,3 -10,2 -17,-2 l -25,-10 -30,-9 -28,-10 -30,-11 -24,-6 c -5,-1 -9,-4 -16,-8 l -14,-5 -5,-3 q 4,-3 7,-3" id="path143"/>
    <path fill="#ee7620" d="m 1.9972001,223.99939 q -1.00000001,3 1,3 l 8.9999999,5 -5.9999999,-2 q 2,4 4.9999999,5 l 20,8 37,17 21,8 5,3 1,3 1,-3 q 3,27 2,55 l 1,9 3,4 8,-1 3,-24 v -25 l 1,17 1,-7 1,-20 8,2 c 7,3 15,4 21,8 12,5 31,10 45,17 l 3,2 1,15 1,11 2,42 q 0,4 2,7 l 3,18 12,-5 c 6,1 7,4 11,7 l 1,-4 1,4 q 6,2 8,1 l 56,-26 37,-17 14,-6 q 4,-1 8,-5 v -98 q 3,-1 3,-5 2,3 2,9 v 96 c 0,2 -1,3 -3,4 l -32,14 -21,10 -30,14 -15,7 -21,8 -12,5 h -5 l -13,-4 -5,-2 -6,-2 -29,-11 -16,-5 -56,-21 -6,-2 -5,-1 -37,-14 -9,-3 -13,-6 -14.9999999,-7 c -3,-2 -3,-4 -3,-8 v -22 l -1,-27 c 0,-17 -2.00000001,-31 -1.00000001,-47 l -1,-5 z" id="path145"/>
    <path fill="#da5d1d" d="m 349.9972,251.99939 v 97 q -4,5 -8,6 l -14,6 -37,17 c -18,7 -38,18 -56,26 l -5,1 -4,-6 v -85 l -1,-6 13,-6 18,-8 14,-6 8,-4 8,-3 4,-2 13,-6 17,-7 z" id="path148"/>
  </g>
</svg>
