<?xml version="1.0" encoding="utf-8"?>
<svg xmlns="http://www.w3.org/2000/svg" width="256" height="256" viewBox="0 0 256 256" fill="none" version="1.1">
  <defs id="defs193"/>
  <g id="icon-artwork" transform="translate(128.000000 136.000000) scale(0.303055) translate(-329.243040 -217.022125)">
    <path id="path193" style="fill:#6f8a91;fill-opacity:1" d="m 366.57963,-19.992783 c -6.52191,0.07444 -13.04888,-0.08445 -19.56762,0.10464 -4.17689,0.558386 -8.2346,1.982367 -12.50799,1.924495 -2.5157,0.06012 -5.06999,-0.242263 -7.55726,0.204694 -7.85652,2.638649 -15.76186,5.279274 -23.27496,8.6290047 -6.14237,2.728593 -12.38882,5.2372742 -18.42207,8.20298646 -5.03982,2.74304124 -10.05513,5.53235904 -15.03881,8.37508304 -2.19145,1.321 -3.97837,3.1831338 -5.99848,4.7348778 -3.21291,2.676187 -6.52089,5.272093 -9.42129,8.291569 -1.57133,1.788743 -2.55645,3.986568 -3.92473,5.913186 -1.69926,2.150707 -4.07793,3.733072 -5.39233,6.189345 -3.77851,5.668635 -7.01524,11.801218 -10.00858,17.960272 -2.66875,4.717314 -5.70484,9.233204 -7.99844,14.156099 -2.72529,5.471029 -5.51633,10.87131 -8.08709,16.403925 -1.24711,2.976688 -2.53067,6.175178 -5.22856,8.14674 -1.7735,1.400865 -4.00207,1.968466 -6.03835,2.864558 -1.61272,0.639533 -3.36656,1.144864 -5.10316,0.725484 -2.00588,-0.414083 -3.90737,-1.211786 -5.88714,-1.729602 -5.81963,-1.828486 -11.86847,-2.719365 -17.82056,-3.9917 -3.82613,-0.700271 -7.69387,-1.473913 -11.60201,-1.333782 -2.23242,0.0465 -4.37718,0.686223 -6.49894,1.315183 -11.63292,3.247042 -22.82372,8.306791 -32.60564,15.433245 -3.13557,2.24601 -6.35206,4.3755 -9.66464,6.35134 -7.1599,4.43528 -14.22881,9.02265 -21.086338,13.91388 -6.31355,4.3161 -13.068531,7.95884 -19.262445,12.45222 -14.310422,10.98531 -28.632178,21.99416 -42.777954,33.16851 -1.537798,1.30383 -3.290486,2.38258 -4.537254,3.99294 -2.136217,2.36685 -3.981388,4.9801 -5.527746,7.76671 -1.439133,2.43937 -3.023042,4.83641 -3.971399,7.53897 -1.706742,4.55872 -3.492179,9.08725 -5.229226,13.63497 -0.693034,-0.43548 -0.54716,0.59099 -0.769531,1.00196 -1.205889,3.79131 -2.39352,7.5886 -3.55023,11.39524 -0.813833,2.64589 -1.847855,5.21908 -3.0912423,7.69093 -1.708107,4.11174 -3.094069,8.28789 -4.511244,12.49815 -2.527576,7.81455 -4.86554632,15.73866 -7.3609559,23.60318 -2.7377441,8.8403 -5.2775417,17.74433 -7.5631458,26.71357 -3.029184,11.51602 -6.215048,22.97661 -9.160878,34.51431 -1.005123,5.21933 -0.583264,10.72919 1.25628,15.71634 1.886765,4.24564 5.227909,7.60843 8.4170155,10.85801 5.817531,5.58262 12.4158142,10.25192 18.6118392,15.39046 4.2506823,3.46358 8.5858773,6.84446 13.2524823,9.7346 3.616894,2.3852 7.047404,5.22503 9.408764,8.89982 1.302765,1.08719 2.679934,2.11103 3.717099,3.43046 1.951943,2.25912 3.259087,5.01535 4.044877,7.87766 2.883511,5.27497 3.434515,11.4316 3.323971,17.34011 0.0061,1.93081 -0.112133,3.87479 -0.0098,5.7975 0.729165,2.09056 1.69728,4.12001 2.945654,5.95177 1.434677,2.04983 3.509315,3.61073 5.86404,4.44777 2.613158,1.09322 5.292865,2.02731 7.96382,2.96013 3.403753,0.85256 6.896328,1.2664 10.327459,1.99066 6.358506,1.2071 12.758363,2.24146 19.057068,3.75113 5.555562,1.46781 11.060252,3.16594 16.71535,4.22531 2.26124,0.41028 4.71012,0.59812 7.0301,1.02117 3.27864,0.53131 6.49379,1.40653 9.80227,1.76249 7.78297,0.99498 15.92959,0.98804 23.83242,0.038 3.24809,-0.43385 6.72851,-0.99382 10.06921,-1.53554 2.66311,-0.40242 5.06768,-1.72041 7.58982,-2.5991 9.59649,-3.47047 19.19597,-6.93951 28.72342,-10.59689 2.20898,-0.85877 4.18182,-2.19773 6.03918,-3.64642 3.64638,-2.46778 8.06721,-3.82542 12.48046,-3.61103 0.96461,-0.10694 2.12141,0.31099 2.87105,-0.49223 1.43857,-1.08972 2.88212,-2.17273 4.35113,-3.22128 12.92117,4.20566 25.88268,8.29201 38.75415,12.64457 3.49763,1.51618 6.94532,2.70422 10.61445,3.79109 5.76548,1.74554 11.61842,2.89554 17.40027,4.62933 9.92648,2.95249 19.55385,6.83743 29.53788,9.6062 3.85679,1.24384 7.56301,3.02838 11.67567,3.32686 7.22062,1.29512 14.35654,3.08259 21.63341,4.04937 7.0648,0.74972 14.17408,1.31608 21.28993,1.67129 3.0418,0.0608 6.10894,0.18913 9.13295,-0.19603 9.11471,-1.44555 18.1981,-3.09126 27.32313,-4.47068 5.89037,-0.89587 11.90504,-0.60141 17.77673,-1.64324 7.77574,-1.60282 15.57638,-3.13072 23.2186,-5.30514 13.9777,-3.76618 28.21723,-6.43047 42.36032,-9.48016 7.42692,-2.01757 14.89322,-3.91608 22.24755,-6.19856 5.42624,-1.78276 10.97873,-3.19253 16.32051,-5.226 3.63478,-1.4827 7.16623,-3.20775 10.83198,-4.61803 1.62068,-0.69253 3.3051,-1.31995 4.86191,-2.22917 2.92793,-2.85048 5.52473,-6.25419 9.34708,-7.97176 0.47791,-0.18363 0.99438,-0.38677 1.10505,-0.94727 1.12709,-2.21808 2.44398,-4.35432 3.41704,-6.642 0.69833,-2.64292 3.24856,-4.37138 5.82546,-4.87168 2.25596,-0.86826 4.79246,-1.59986 7.17008,-0.75281 2.92822,0.59178 5.9973,1.35865 8.96662,0.6164 5.47475,-2.08125 10.88048,-4.27887 16.34263,-6.38843 6.12104,-2.35933 12.2004,-4.83673 18.11168,-7.68689 10.83998,-5.02991 21.69064,-10.02263 31.95924,-16.18076 4.43153,-2.59974 8.77963,-5.23733 12.92455,-8.29068 3.39125,-2.92949 6.97225,-5.6421 10.79174,-7.99094 2.8679,-1.87965 5.8248,-4.05303 7.19055,-7.3206 0.49635,-1.42862 1.18643,-2.77566 1.74748,-4.17724 0.58848,-2.1943 0.32801,-4.50852 0.36355,-6.75603 0.0591,-1.21221 0.014,-2.44294 -0.5,-3.56718 -2.97252,-7.94484 -5.74047,-15.97332 -8.09571,-24.125 -2.30132,-5.89529 -5.25834,-11.52071 -7.35963,-17.49518 -1.02601,-2.85021 -1.59039,-5.84689 -2.73997,-8.65521 -0.38144,-0.9384 -0.89992,-2.09976 -1.43464,-3.07785 -2.88216,-5.40348 -5.39722,-10.99885 -7.55973,-16.72778 -1.41008,-3.52638 -2.82016,-7.05276 -4.23024,-10.57914 -1.9454,-1.75767 -3.04002,-4.20012 -3.94965,-6.60652 -2.29591,-5.38078 -4.45687,-10.85454 -7.51475,-15.86461 -2.0306,-3.54898 -3.5498,-7.3529 -4.97995,-11.1738 -0.63453,-1.67629 -1.56592,-3.20856 -2.52687,-4.71019 -0.80246,-1.48356 -1.33979,-3.13843 -1.37253,-4.83433 -0.38133,-0.58941 -0.70188,-1.22637 -1.08789,-1.80664 -1.4718,-0.0339 -2.70565,-1.09884 -3.29961,-2.38933 -1.8516,-2.91673 -3.90343,-5.70548 -6.2279,-8.26403 -1.2808,-1.54743 -2.70296,-2.9957 -4.40456,-4.0791 -4.72708,-3.73561 -9.87651,-6.7541 -14.99288,-9.94377 -12.95375,-8.07598 -25.9172,-16.14496 -39.06798,-23.89489 -0.75022,-0.26902 -1.51468,-0.81588 -2.32348,-0.44646 -2.72674,0.44954 -5.21995,-1.04097 -7.75951,-1.75642 -6.30854,-2.13093 -12.66733,-4.11803 -18.95546,-6.30635 -5.55457,-2.18201 -10.56075,-5.52418 -15.26159,-9.15794 -0.80255,-7.72585 -1.45453,-15.46422 -2.42092,-23.15309 -2.14773,-7.99338 -4.76548,-15.910304 -5.81216,-24.148715 -2.73024,-8.110996 -5.42539,-16.265669 -9.06575,-24.024366 -1.67502,-3.407089 -3.72292,-6.894395 -5.95598,-10.087179 -1.29039,-1.778908 -2.53815,-3.614203 -4.04988,-5.211649 -1.47226,-1.169925 -3.15924,-2.031847 -4.65569,-3.172267 -6.98595,-4.881534 -13.59946,-10.312525 -20.93487,-14.682061 -3.46804,-2.156891 -6.64067,-4.735298 -9.95241,-7.114422 -3.94411,-2.716161 -7.99263,-5.233803 -12.09569,-7.682472 -5.57241,-3.138341 -11.13836,-6.2875078 -16.65192,-9.5280078 -10.20458,-5.80045034 -20.57139,-11.2908287 -30.88712,-16.9021742 -2.61453,-1.371564 -5.17767,-2.861513 -7.87668,-4.059065 -3.21712,-1.319295 -6.56961,-2.535926 -10.04355,-3.19068 -1.90857,-0.413514 -3.82495,-0.893296 -5.83176,-0.821195 z"/>
    <path fill="#fefefe" d="m 469.47221,65.018936 q 2,2 2,5 l -2,3 -28,10 -27,10 -9,3 -8,4.000004 -7,2 -4,3 c -8,4 -15,3 -22,0 l -22,-11.000004 -13,-8 c -12,-8 -25,-18 -31,-32 l -7,-20 1,-4 v -2 h -3 l 5,-8 15,-9 q 12,-4.9999998 25,-7.9999998 c 11,-3.00000004 20,-3.00000004 30,-2 l 4,1 33,16.9999998 19,11 5,3 8,5 28,19 z" id="path12"/>
    <path fill="#bcc4c5" d="m 443.47221,74.018936 q -9,9 -20,8 l -14,-5 -32,-20 -14,-10 -21,-15 c -2,-1 -3,-2 -2,-4 q 5,-5 10,-7 c 5,-2 12,0 17,3 l 17,10 12,5 18,11 17,12 6,7 z" id="path13"/>
    <path fill="#a8aeb1" d="m 292.47221,30.018936 -1,5 -1,-2 -1,2 2,7 c 5,13 12,26 22,35 q 24,20 56,32.000004 4,2 8,1 l 4,-2 5,-1 3,10 2,7 2,8 1,10 4,15 2,10 -3,8 -10,17 -4,5 -3,5 -9,13 -4,7 -23,2 c -2,0 -3,-2 -3,-4 q -3,-7 -4,-15 l -1,-8 -2,-7 -3,-10 -5,-18 -6,-12 -2,-4 q -9,-12 -15,-17 l -13,-9 -12,-6 -4,-2 -22,-10 -5,-3.000004 c -1,-3 1,-9 3,-12 l 7,-15 q 3,-8 11,-18 l 6,-9 7,-10 7,-6 q 3,-1 4,1" id="path14"/>
    <path fill="#58697a" d="m 291.47221,35.018936 7,19 c 6,14 19,24 31,32 l 13,8 22,11.000004 c 7,3 14,4 22,0 l 4,-3 v 1 l 1,2 q -3,0 -5,2 l -5,1 -4,2 q -4,1 -8,-1 -32,-12.000004 -56,-32.000004 c -10,-9 -17,-22 -22,-35 l -2,-7 1,-2 z" id="path15"/>
    <path fill="#828e96" d="m 475.47221,149.01894 h -3 l -2,-3 -10,-21 -8,-27.000004 -3,-15 16,-7 q 4,-1 4,-3 l 2,-2 q 0,-4 -2,-6 l 3,4 13,49.000004 c 2,7 4,13 3,19 q 0,3 -3,5 z" id="path19"/>
    <path fill="#465a6e" d="m 449.47221,83.018936 3,15 8,27.000004 10,21 v 1 q -9,-9 -12,-20 l -7,-23 -2,-9.000004 -4,-10 z" id="path24"/>
    <path fill="#58697a" d="m 445.47221,85.018936 q 3,4 4,10 l 2,9.000004 7,23 q 3,11 11,21 l 1,-2 1,3 h 4 c -2,4 -6,6 -9,8 l 3,-3 c -9,3 -17,9 -24,16 l -18,15 -37,37 q -5,6 -14,5 l -4,-4 11,-16 3,-4 5,-7 14,-23 c 2,-3 2,-6 1,-11 l -5,-21 -2,-11 -1,-4 -3,-18 -1,-3 12,-6.000004 6,-3 q 17,-4 33,-11" id="path26"/>
    <path fill="#fefefe" d="m 165.47221,269.01894 h -1 q -7,0 -13,-4 l -11,-10 -8,-6 -15,-13 -16,-12 -5.999998,-4 -12.999997,-11 -18,-15 -1,-3 -5,-4 1,-5 31.999997,-24 40.999998,-30 q 12,-8 25,-14 l 13,-5 c 5,-1 12,1 16,2 l 19,7 29,12 18,8 c 14,6 23,11 32,18 3,3 7,6 6,10 l -3,3 -20,17 -24,19 -18,16 -7,6 -24,17 -8,7 -8,6 z" id="path29"/>
    <path fill="#627382" d="m 161.47221,230.01894 c -9,-4 -15,-8 -20,-12 l -12,-10 c -10,-10 -17,-17 -27,-24 q 22,-21 48,-38 l 13,-10 5,-1 9,6 29,25 c 5,4 8,10 12,16 l -20,19 q -17,15 -37,29" id="path36"/>
    <path fill="#a8aeb1" d="m 104.47221,183.01894 2,-2 15,-12 16,-12 21,-14 7,-6 h 4 q 7,4 14,11 l 7,6 14,12 7,7 5,8 -14,14 -6,5 -6,6 -16,13 -12,10 -14,-7 -20,-17 q -10,-11 -23,-20 z" id="path37"/>
    <path fill="#74828e" d="m 466.47221,157.01894 -17,16 -12,9 -23,22 -6,5 -7,7 c -5,6 -10,12 -16,15 v 1 h -3 q -9,-1 -17,-4 2,0 3,-3 l 1,1 3,-3 3,4 q 10,1 15,-5 l 37,-37 18,-15 c 7,-7 15,-13 23,-17 z" id="path42"/>
    <path fill="#010102" d="m 428.47221,238.01894 1,-4 q 3,2 2,3 v 5 q 0,4 3,7 l 26,14 47,26 7,4 c 5,3 8,7 12,11 h 10 l 9,-3 c 4,-1 4,-11 4,-15 l -2,-11 -7,-27 1,-2 c 3,-3 7,-4 10,-6 l 28,-18 8,-3 13,-8 1,1 -17,10 -4,3 -5,3 -17,10 -13,8 -2,3 8,33 q 1,8 -1,16 c 0,4 -3,6 -7,7 l -8,2 h -7 v 6 l 2,8 9,26 c 3,9 7,25 15,27 h 5 l 5,-2 13,-6 6,-2 4,-2 22,-11 q 10,-5 21,-13 l 7,-6 2,-1 10,-6 2,-6 -8,-25 -21,-47 -6,-14 -7,-13 -7,-10 -3,-4 c -6,-6 -11,-10 -18,-14 l -10,-6 q -23,-13 -46,-22 l -15,-4 c -4,-1 -9,3 -12,5 l -17,16 -6,5 -29,27 -8,7 -13,12 -4,4 q -1,4 2,7 l -2,1 c -4,-3 -5,-7 -2,-11 l 7,-7 25,-24 16,-14 q 13,-13 27,-24 5,-5 11,-7 c 3,-2 7,-1 11,1 q 20,5 36,13 22,11 33,19 l 10,6 q 5,4 7,8 4,4 6,9 l 8,13 8,15 5,10 6,15 17,42 3,12 -1,5 -22,15 -4,3 -6,4 c -3,2 -7,5 -11,6 l -13,7 -5,2 -4,2 -11,5 -15,6 q -6,3 -12,1 -6,-5 -7,-8 -5,-9 -7,-17 l -9,-25 -4,-18 q -6,-8 -15,-14 l -48,-26 -29,-16 -1,-2 c 0,-2 0,-3 -2,-4 q -3,-3 -1,-8" id="path43"/>
    <path fill="#fefefe" d="m 602.47221,210.01894 -2,1 -13,8 -8,3 -28,18 c -3,2 -7,3 -10,6 -5,3 -9,5 -15,5 l -5,-2 q -15,-10 -32,-18 -6,-2 -22,-12 -2,-2 -2,-5 l 2,-11 3,-5 q 0,-5 3,-8 l 8,-9 17,-16 c 3,-2 8,-6 12,-5 l 15,4 q 23,9 46,22 l 10,6 c 7,4 12,8 18,14 z" id="path44"/>
    <path fill="#828e96" d="m 165.47221,341.01894 q 1,-2 -1,-4 l -5,-4 8,6 5,2 15,10 c 4,2 5,-2 6,-4 l 10,-21 3,-5 2,-4 15,-27 c 2,-5 6,-11 11,-15 l 14,-8 18,-11 q 17,-12 33,-18 3,-4 2,-10 l -8,-36 -6,-20 3,-2 9,28 c 2,8 3,19 6,28 l 2,11 c -1,3 -5,5 -9,6 l -7,3 -19,12 -13,7 -8,5 -7,4 -7,4 q -5,3 -7,8 l -10,18 -14,28 -7,12 q -4,6 -6,13 h -5 l -10,-8 z" id="path45"/>
    <path fill="#627382" d="m 287.47221,172.01894 6,20 8,36 q 1,6 -1,9 -17,7 -34,19 l -18,11 -14,8 c -5,4 -9,10 -11,15 l -15,27 -2,4 -3,5 q -3,9 -8,17 c -3,6 -4,10 -8,8 l -15,-10 -5,-2 -8,-6 1,-8 4,-48 v -8 h 1 l 1,1 q 6,-4 10,-9 l 22,-16 27,-20 10,-10 18,-14 17,-14 z" id="path46"/>
    <path fill="#fffef0" d="m 481.47221,181.01894 -8,8 v 1 q -3,3 -2,7 l -4,6 1,-3 -7,3 -23,23 -4,6 1,2 v 8 l 3,4 14,7 c 6,5 17,9 25,13 l 10,6 17,10 18,11 7,6 c 11,4 17,-5 15,-15 q -2,-11 -6,-21 l -4,-8 q -3,-3 -8,-4 c 6,0 10,-2 15,-5 l -1,1 7,28 2,11 c 0,4 0,14 -4,15 l -9,3 h -9 l -13,-11 -7,-4 -47,-26 -25,-14 q -4,-3 -4,-7 v -5 l 1,-2 q -4,1 -4,3 l -1,1 q -3,2 -6,0 v -3 l 4,-4 13,-12 8,-7 29,-27 z" id="path48"/>
    <path fill="#828e96" d="m 59.472215,182.01894 -1,2 5,7 h -1 l 5,8 -4,16 -2,5 -2,6 -4,16 -4,17 -9,41 q -1,8 2,19 l 7,17 2,4 2,4 q 1,4 3,5 7,-1 12,-4 l 18,-8 c 7.999997,-4 15.999995,-8 25.999995,-10 l 13,-3 q 6,-1 8,3 c -9,0 -16,3 -25,5 l -11.999998,4 -23.999997,12 -5,2 -9,5 q -3,2 -6,0 -10,-6 -19,-15 3,2 5,1 c -2,-4 -4,-6 -8,-9 l -11,-11 c -7,-8 -6,-17 -4,-27 l 7,-20 3,-12 4,-12 6,-18 q 1,-6 5,-13 l 4,-10 5,-9 5,-9 c 0,-3 0,-5 -2,-5 z" id="path49"/>
    <path fill="#bcc4c5" d="m 54.472215,186.01894 c 2,0 2,2 2,4 l -5,10 -5,9 -4,10 q -4,7 -5,13 l -6,18 -4,12 -3,12 -7,20 c -2,10 -3,19 4,27 l 11,11 9,8 q -3,2 -6,0 l -4,-3 q -8,-6 -14,-14 c -6,-7 -7,-15 -5,-24 l 3,-11 11,-36 q 7,-24 18,-49 z" id="path50"/>
    <path fill="#010102" d="m 63.472215,191.01894 1,3 18,15 12.999997,11 5.999998,4 16,12 15,13 8,6 11,10 -5,-2 -7,-7 -6,-4 -12,-9 -6,-5 -17.999998,-14 -15.999997,-12 -7,-7 -7,-6 -5,-7 z" id="path51"/>
    <path fill="#627382" d="m 146.47221,263.01894 -3,8 c -3,21 -5,35 -5,55 q 0,2 2,3 l -5,-2 q -2,-4 -8,-3 l -13,3 c -10,2 -17.999998,6 -25.999995,10 l -18,8 -11,5 q -3,-2 -3,-5 l -3,-5 -2,-4 -7,-17 q 2,-5 1,-8 -1,-9 1,-16 l 3,-8 7,-32 2,-10 7,-26 1,-10 -3,6 4,-16 7,6 7,7 15.999997,12 17.999998,14 6,5 12,9 6,4 z" id="path54"/>
    <path fill="#bcc4c5" d="m 467.47221,203.01894 -2,11 q 0,3 2,5 h -1 v 2 l 14,7 18,10 8,5 7,4 8,4 v -2 l 5,2 q 5,1 8,4 l 4,8 q 4,10 6,21 c 2,10 -4,19 -15,15 l -6,-5 q -9,-7 -19,-12 l -17,-10 -10,-6 c -8,-4 -19,-8 -25,-13 l -14,-7 -3,-4 v -7 l -1,-2 q 1,-4 4,-7 l 23,-23 7,-3 z" id="path55"/>
    <path fill="#465a6e" d="m 44.472215,319.01894 q -3,-11 -2,-19 l 9,-41 4,-17 4,-16 2,-6 2,-5 2,-6 v 10 l -7,26 -2,10 -7,32 -3,8 q -2,7 -1,16 1,3 -1,8" id="path57"/>
    <path fill="#828e96" d="m 602.47221,210.01894 7,10 q -2,1 -2,3 l 5,11 12,26 4,9 4,13 q 8,14 13,31 l 1,8 q -3,4 -7,6 l -3,3 3,1 -2,1 q -2,0 -4,-4 l -1,-3 -1,-3 -13,-24 -23,-49 -9,-22 -2,-5 16,-10 v -1 z" id="path58"/>
    <path fill="#828e96" d="m 467.47221,219.01894 q 16,10 22,12 17,8 32,18 l 1,1 -9,-3 -7,-4 -8,-5 -18,-10 -13,-7 -2,-1 z" id="path60"/>
    <path fill="#bcc4c5" d="m 609.47221,220.01894 7,13 6,14 21,47 c 3,8 6,17 7,25 h 1 v 4 l -12,8 h -2 c 0,-2 0,-3 2,-4 l 7,-4 -1,-10 q -5,-17 -13,-31 l -4,-13 -4,-9 -12,-26 -5,-10 q 0,-3 2,-4" id="path61"/>
    <path fill="#58697a" d="m 584.47221,222.01894 2,5 -1,-2 -1,1 2,7 11,25 5,12 13,25 6,13 5,12 5,7 1,-2 1,3 c 0,5 -3,6 -7,8 l -6,4 -12,6 -24,12 -12,6 -16,5 q -7,-7 -9,-14 l -6,-15 -9,-29 -1,-3 q -3,2 -3,5 l -1,-5 7,-1 8,-1 c 5,-2 8,-4 8,-8 l 2,-16 -9,-33 2,-3 13,-8 17,-10 5,-3 z" id="path62"/>
    <path fill="#465a6e" d="m 586.47221,227.01894 9,22 23,49 13,24 1,3 v 2 l -6,-7 -5,-12 -6,-13 -13,-25 -5,-12 -11,-25 -2,-7 1,-1 z" id="path63"/>
    <path fill="#74828e" d="m 431.47221,237.01894 v 5 -6 z" id="path65"/>
    <path fill="#828e96" d="m 427.47221,239.01894 q -1,4 1,7 v 1 q -4,-3 -7,-8 3,2 6,0" id="path66"/>
    <path fill="#010102" d="m 525.47221,398.01894 c -4,5 -7,6 -9,7 l -17,4 -13,3 q -31,8 -65,14 l -7,1 -24,5 h -4 l -5,1 q -15,4 -30,0 l -7,-1 -23,-9 -2,-1 -39,-12 -13,-4 -25,-7 -19,-7 -5,-6 c 1,-10 4,-15 8,-22 l 15,-34 13,-30 q 3,-7 9,-11 l 18,-11 q 19,-11 56,-29 l 11,-4 q 9,-1 13,1 14,3 27,8 40,17 78,41 l 18,11 c 8,6 12,13 16,24 l 10,26 6,16 6,17 q 3,5 3,9" id="path67"/>
    <path fill="#fefefe" d="m 491.47221,320.01894 c 0,2 -2,2 -4,3 l -4,1 q -5,4 -12,5 l -6,2 -4,-2 -2,-2 c -6,-1 -10,-4 -16,-6 l -9,-6 -16,-9 -14,-7 -14,-7 -4,-3 -20,-11 -14,-8 -1,-1 q -1,6 1,13 l 5,21 8,29 2,11 3,10 1,6 q 3,2 5,1 l 8,-3 5,-1 8,-3 5,-2 10,-4 22,-9 7,-2 c 4,-1 9,-3 13,-1 -14,6 -30,13 -43,17 l -34,12 c -5,1 -7,4 -8,9 l -8,23 -5,12 -8,20 h -4 l -10,-4 -11,-3 v -1 l 1,-2 16,4 4,1 q 4,-4 5,-8 l 4,-12 4,-10 3,-7 3,-10 v -5 l -14,-5 q -3,0 -4,2 l -4,12 -6,16 -5,14 q -1,3 -3,3 l -1,-5 17,-45 -3,-6 -17,-14 -6,-5 -14,-12 -14,-11 -16,-13 -9,-7 -1,-2 18,-11 36,-19 10,-5 15,-6 7,-2 h 13 l 15,5 22,9 43,21 36,22 c 5,3 11,7 13,13" id="path70"/>
    <path fill="#a8aeb1" d="m 146.47221,263.01894 5,2 q 6,4 13,4 v 8 l -4,48 -1,8 5,4 q 2,2 1,4 l -12,-7 -13,-5 q -2,-1 -2,-4 c 0,-19 2,-33 5,-54 z" id="path71"/>
    <path fill="#bcc4c5" d="m 465.47221,331.01894 -11,4 c -4,-2 -9,0 -13,1 l -7,2 -22,9 -10,4 -5,2 -8,3 -5,1 -8,3 q -2,1 -5,-1 l -1,-6 -3,-10 -2,-11 -8,-29 -5,-21 -3,-11 q 2,-2 3,-1 l 14,8 20,11 4,3 14,7 14,7 16,9 9,6 15,6 2,2 z" id="path72"/>
    <path fill="#a8aeb1" d="m 263.47221,293.01894 1,2 h -1 v 1 l 2,2 -2,3 -8,18 -5,11 -4,8 -7,15 -2,6 -10,19 -1,4 c 4,4 8,6 13,8 l 27,8 31,10 16,4 q 4,1 7,5 l -1,2 -27,-8 -26,-8 -31,-10 q -8,-2 -14,-7 c 0,-5 1,-7 2,-9 l 6,-14 17,-37 15,-31 z" id="path76"/>
    <path fill="#282828" d="m 264.47221,295.01894 9,7 16,13 14,11 14,12 6,5 17,14 2,3 -16,48 -1,3 -3,7 v -4 q 3,-13 8,-24 l 4,-10 4,-11 3,-5 -10,-12 -18,-15 -9,-7 -15,-13 -13,-10 -6,-4 -5,-5 -2,-2 v -1 z" id="path77"/>
    <path fill="#74828e" d="m 325.47221,411.01894 -2,7 v 3 l -4,-2 1,-1 q -3,-5 -7,-6 l -16,-4 -31,-10 -27,-8 -13,-7 1,-5 10,-19 1,-4 8,-17 c 1,-2 3,-4 3,-7 l 6,-12 7,-17 3,-4 4,4 7,5 13,10 15,13 9,7 18,15 10,9 -3,8 -4,11 -4,10 q -5,11 -8,24 l -1,3 1,1 z m 308,-83 q 2,4 4,4 l -7,6 q -11,8 -21,13 l -22,11 -4,1 v 1 l -6,2 -13,6 -5,2 h -5 c -8,-2 -12,-18 -15,-27 l -9,-26 -2,-8 q 0,-3 2,-5 l 2,3 9,29 6,15 q 2,7 7,14 c 8,-1 13,-3 18,-5 l 12,-6 24,-12 12,-6 6,-4 c 4,-2 7,-3 7,-8" id="path79"/>
    <path fill="#828e96" d="m 491.47221,320.01894 3,4 12,33 6,15 8,20 2,6 -20,7 h -3 l -1,-4 -1,-3 -14,-38 -9,-30 14,-6 -1,-1 c 2,-1 4,-1 4,-3" id="path81"/>
    <path fill="#163149" d="m 474.47221,330.01894 9,30 14,38 v 2 l -3,-3 -5,-16 -6,-15 -4,-11 -4,-15 -3,-7 -1,-1 h -1 z" id="path82"/>
    <path fill="#465a6e" d="m 497.47221,398.01894 1,3 q -19,7 -33,9 l -44,7 -31,7 -7,1 -17,3 -9,2 1,2 h -6 l -2,-1 7,-16 15,-42 c 2,-5 7,-7 12,-8 l 37,-14 35,-13 14,-6 h 1 l 1,1 3,7 4,15 4,11 6,15 5,16 2,3 z" id="path83"/>
    <path fill="#010102" d="m 185.47221,402.01894 -1,2 c -4,3 -10,5 -15,6 l -23,11 q -5,3 -8,3 l -9,-1 q -7,-3 -15,-4 l -7,-2 -23.999995,-7 -7,-3 -6,-3 q -4,-3 -4,-8 l 1,-15 q 1,-6 6,-9 l 22.999997,-12 21.999998,-9 c 3,-2 7,-1 11,2 l 7,5 6,6 31,26 c 5,3 7,6 11,10 z" id="path84"/>
    <path fill="#a8aeb1" d="m 180.47221,403.01894 c -7,0 -7,-4 -11,-8 l -20,-15 -7,-5 -10,-9 c -3,-3 -6,-8 -11,-8 -5,1 -9,4 -13,6 l -16.999998,7 -4.999997,3 c -2,1 -7,3 -9,6 l -3,4 c -1,-5 1,-7 5,-10 l 10,-7 4.999997,-2 24.999998,-11 q 4,-1 7,2 l 18,14 17,15 12,9 8,7 v 1 z" id="path85"/>
    <path fill="#828e96" d="m 180.47221,403.01894 -3,2 -7,1 -14,6 -2,2 -10,4 -6,3 -10,-2 -7,-2 q -28.999998,-7 -47.999995,-14 c -5,-2 -3,-17 -3,-22 1,-4 3,-5 8,-8 l 11,-6 -10,7 c -4,3 -6,5 -6,9 l 4,-3 c 2,-3 7,-5 9,-6 l 4.999997,-3 16.999998,-7 c 4,-2 8,-5 13,-6 5,0 8,5 11,8 l 10,9 7,5 20,15 c 4,4 4,8 11,8" id="path86"/>
    <path fill="#ccd5ce" d="m 323.47221,420.01894 v -2 l 2,-7 1,-3 v 4 q 3,1 4,-2 l 5,-14 6,-16 4,-12 q 1,-2 3,-2 l 14,4 q 2,4 1,6 l -3,10 -2,6 -4,10 -5,12 q -1,5 -4,8 h -5 q -7,-2 -13,-6 z" id="path87"/>
    <path fill="#627382" d="m 502.47221,405.01894 -13,4 -7,1 -6,1 -18,5 -39,7 -24,4 -29,5 h -8 l -2,-1 10,-3 17,-3 7,-1 31,-7 44,-7 q 14,-2 33,-9 v 3 z" id="path98"/>
    <path fill="#ccd5ce" d="m 294.47221,20.018936 -5,5 2,3 1,2 q -1,-2 -3,-1 l -8,6 -7,10 -6,9 q -8,10 -11,18 l -7,15 c -2,3 -4,9 -3,12 l 5,3.000004 22,10 4,2 12,6 13,9 15,16 2,4 6,13 5,18 3,10 2,7 1,8 q 1,8 4,15 c 0,2 1,4 3,4 h 19 c 5,-4 6,-6 8,-9 l 9,-13 3,-5 3,-5 11,-17 3,-7 -2,-11 -3,-14 -2,-11 -2,-8 -2,-7 -3,-10 q 2,-2 5,-2 v 1 l 3,14 10,45 c 1,6 -5,13 -7,18 l -12,19 -17,23 q 0,2 -3,3 c -10,0 -17,-1 -26,1 l -2,-6 -15,-58 -9,-19 q -4,-7 -12,-13 -13,-10 -25,-15 l -25,-12 c -4,-2 -10,-2 -9,-9.000004 q 0,-4 3,-9 c 5,-13 11,-25 19,-37 l 14,-17 q 7,-9 16,-14" id="path153"/>
    <path fill="#a8aeb1" d="m 443.47221,74.018936 q -9,9 -20,8 l -14,-5 -32,-20 -14,-10 -21,-15 c -2,-1 -3,-2 -2,-4 q 5,-5 10,-7 c 5,-2 12,0 17,3 l 17,10 12,5 18,11 17,12 6,7 z" id="path154"/>
    <path fill="#627382" d="m 291.47221,35.018936 7,19 c 6,14 19,24 31,32 l 13,8 22,11.000004 c 7,3 14,4 22,0 l 4,-3 v 1 l 1,2 q -3,0 -5,2 l -5,1 -4,2 q -4,1 -8,-1 -32,-12.000004 -56,-32.000004 c -10,-9 -17,-22 -22,-35 l -2,-7 1,-2 z" id="path155"/>
    <path fill="#828e96" d="m 475.47221,149.01894 h -3 l -2,-3 -10,-21 -8,-27.000004 -3,-15 16,-7 q 4,-1 4,-3 l 2,-2 q 0,-4 -2,-6 l 3,4 13,49.000004 c 2,7 4,13 3,19 q 0,3 -3,5 z" id="path156"/>
    <path fill="#163149" d="m 469.47221,73.018936 q 0,2 -4,3 l -16,7 -4,2 q -16,7 -33,11 l -6,3 -12,4.000004 1,5 3,18 1,4 2,11 5,21 c 1,5 1,8 -1,11 l -14,23 -4,7 -4,4 -13,19 -2,-1 17,-23 12,-19 c 2,-5 8,-12 7,-18 l -10,-45 -3,-14 v -1 l -1,-1 v -2 l 7,-2 8,-4.000004 9,-3 27,-10 z" id="path157"/>
    <path fill="#465a6e" d="m 449.47221,83.018936 3,15 8,27.000004 10,21 v 1 q -9,-9 -12,-20 l -7,-23 -2,-9.000004 q -1,-6 -4,-10 z" id="path158"/>
    <path fill="#627382" d="m 445.47221,85.018936 q 3,4 4,10 l 2,9.000004 7,23 q 3,11 11,21 l 1,-2 1,3 h 4 l -3,4 q -9,6 -18,15 c -2,3 -6,5 -10,8 l -9,8 -21,20 -6,5 -7,7 c -5,6 -10,12 -16,15 v 1 h -3 q -9,-1 -17,-4 3,-1 3,-3 l 1,1 14,-19 4,-4 4,-7 14,-23 c 2,-3 2,-6 1,-11 l -5,-21 -2,-11 -1,-4 -3,-18 -1,-3 12,-6.000004 6,-3 q 17,-4 33,-11" id="path159"/>
    <path fill="#fefefe" d="m 165.47221,269.01894 h -1 q -7,0 -13,-4 l -11,-10 -8,-6 c -7,-7 -20,-17 -31,-25 l -10.999998,-8 -7.999997,-7 -18,-15 -1,-3 -5,-4 1,-5 31.999997,-24 40.999998,-30 q 12,-8 25,-14 l 13,-5 c 5,-1 12,1 16,2 l 19,7 29,12 18,8 c 14,6 23,11 32,18 3,3 7,6 6,10 l -3,3 -20,17 -24,19 -18,16 -7,6 -24,17 -8,7 -8,6 z" id="path163"/>
    <path fill="#fefefe" d="m 602.47221,210.01894 -2,1 -13,8 -8,3 -28,18 c -3,2 -7,3 -10,6 -5,3 -9,5 -15,5 l -5,-2 q -15,-10 -32,-18 -6,-2 -22,-12 -2,-2 -2,-5 l 2,-11 3,-5 q 0,-5 3,-8 l 8,-9 17,-16 c 3,-2 8,-6 12,-5 l 15,4 q 23,9 46,22 l 10,6 c 7,4 12,8 18,14 z" id="path167"/>
    <path fill="#fffef0" d="m 481.47221,181.01894 -8,8 v 2 q -3,2 -2,6 l -4,6 1,-3 -7,3 -23,23 -4,6 1,2 v 8 l 3,4 14,7 c 6,5 17,9 25,13 l 10,6 17,10 18,11 7,6 c 11,4 17,-5 15,-15 q -2,-11 -6,-21 l -4,-8 q -3,-3 -8,-4 c 6,0 10,-2 15,-5 l -1,1 7,28 2,11 c 0,4 0,14 -4,15 l -9,3 h -9 l -13,-11 -7,-4 -47,-26 -25,-14 q -4,-3 -4,-7 v -5 l 1,-2 -5,4 q -3,2 -6,0 0,-4 4,-7 l 13,-12 7,-7 30,-27 z" id="path168"/>
    <path fill="#828e96" d="m 59.472215,182.01894 -1,2 5,7 h -1 l 5,8 -4,16 -2,5 -2,6 -4,16 -4,17 -9,41 q -1,8 2,19 l 7,17 2,4 2,4 q 1,4 3,5 7,-1 12,-4 l 18,-8 c 7.999997,-4 15.999995,-8 25.999995,-10 l 13,-3 q 6,-1 8,3 c -9,0 -16,3 -25,5 l -11.999998,4 -23.999997,12 -5,2 -9,5 q -3,2 -6,0 -10,-6 -19,-15 3,2 5,1 c -2,-4 -4,-6 -8,-9 l -11,-11 c -7,-8 -6,-17 -4,-27 l 7,-20 3,-12 4,-12 6,-18 q 1,-6 5,-13 l 4,-10 5,-9 5,-9 c 0,-3 0,-5 -2,-5 z" id="path169"/>
    <path fill="#a8aeb1" d="m 54.472215,186.01894 c 2,0 2,2 2,4 l -5,10 -5,9 -4,10 q -4,7 -5,13 l -6,18 -4,12 -3,12 -7,20 c -2,10 -3,19 4,27 l 11,11 9,8 q -3,2 -6,0 l -4,-3 q -8,-6 -14,-14 c -6,-7 -7,-15 -5,-24 l 3,-11 11,-36 q 7,-24 18,-49 z" id="path170"/>
    <path fill="#163149" d="m 63.472215,191.01894 1,3 18,15 7.999997,7 10.999998,8 c 11,8 24,18 31,25 l 8,6 11,10 -5,-2 -7,-7 -6,-4 -12,-9 -6,-5 -17.999998,-14 -15.999997,-12 -7,-7 -7,-6 -5,-7 z" id="path171"/>
    <path fill="#627382" d="m 146.47221,263.01894 -3,8 c -3,21 -5,35 -5,55 q 0,2 2,3 l -5,-2 q -2,-4 -8,-3 l -13,3 c -10,2 -17.999998,6 -25.999995,10 l -18,8 -11,5 q -3,-2 -3,-5 l -3,-5 -2,-4 -7,-17 q 2,-5 1,-8 -1,-9 1,-16 l 3,-8 7,-32 2,-10 7,-26 1,-10 -3,6 4,-16 7,6 7,7 15.999997,12 17.999998,14 6,5 12,9 6,4 z" id="path173"/>
    <path fill="#a8aeb1" d="m 467.47221,203.01894 -2,11 q 0,3 2,5 h -1 v 2 l 14,7 18,10 8,5 7,4 8,4 v -2 l 5,2 q 5,1 8,4 l 4,8 q 4,10 6,21 c 2,10 -4,19 -15,15 l -6,-5 q -9,-7 -19,-12 l -17,-10 -10,-6 c -8,-4 -19,-8 -25,-13 l -14,-7 -3,-4 v -7 l -1,-2 q 1,-4 4,-7 l 23,-23 7,-4 z" id="path174"/>
    <path fill="#465a6e" d="m 44.472215,319.01894 q -3,-11 -2,-19 l 9,-41 4,-17 4,-16 2,-6 2,-5 2,-6 v 10 l -7,26 -2,10 -7,32 -3,8 q -2,7 -1,16 1,3 -1,8" id="path175"/>
    <path fill="#828e96" d="m 602.47221,210.01894 7,10 q -2,1 -2,3 l 5,11 12,26 4,9 4,13 q 8,14 13,31 l 1,8 q -3,4 -7,6 l -3,3 3,1 -2,2 -5,-8 -1,-2 v -2 l -13,-23 -23,-49 -9,-22 -2,-5 16,-10 v -1 z" id="path176"/>
    <path fill="#828e96" d="m 467.47221,219.01894 q 16,10 22,12 17,8 32,18 l 1,1 -9,-3 -7,-4 -8,-5 -18,-10 -13,-7 -2,-1 z" id="path178"/>
    <path fill="#a8aeb1" d="m 609.47221,220.01894 7,13 6,14 21,47 c 3,8 6,16 7,25 h 1 v 4 l -12,8 h -2 c 0,-2 0,-3 2,-4 l 7,-4 -1,-10 q -5,-17 -13,-31 l -4,-13 -4,-9 -12,-26 -5,-10 q 0,-3 2,-4" id="path179"/>
    <path fill="#627382" d="m 584.47221,222.01894 2,5 -1,-2 -1,1 2,7 11,25 5,12 13,25 6,13 7,15 3,4 1,-2 5,8 -7,5 -21,13 -22,11 -4,1 v 1 l -6,2 -13,6 -10,2 c -5,-1 -8,-7 -10,-12 l -6,-17 -9,-25 -2,-12 7,-1 8,-1 c 5,-2 8,-4 8,-8 l 2,-16 -9,-33 c 2,-4 5,-4 8,-6 l 5,-4 19,-11 5,-3 z" id="path180"/>
    <path fill="#465a6e" d="m 586.47221,227.01894 9,22 23,49 13,23 v 2 l 1,2 v 2 l -4,-4 -7,-15 -6,-13 -13,-25 -5,-12 -11,-25 -2,-7 1,-1 z" id="path181"/>
    <path fill="#627382" d="m 431.47221,237.01894 v 5 z" id="path182"/>
    <path fill="#828e96" d="m 427.47221,239.01894 q -1,4 2,7 l -1,1 q -5,-3 -7,-8 3,2 6,0" id="path183"/>
    <path fill="#fefefe" d="m 491.47221,320.01894 c 0,2 -2,2 -4,3 l -4,1 q -5,4 -12,5 l -6,2 -4,-2 -2,-2 c -6,-1 -10,-4 -16,-6 l -9,-6 -16,-9 -14,-7 -14,-7 -4,-3 -20,-11 -14,-8 -1,-1 q -1,6 1,13 l 5,21 8,29 2,11 3,10 1,6 q 3,2 5,1 l 8,-3 5,-1 8,-3 5,-2 10,-4 22,-9 7,-2 c 4,-1 9,-3 13,-1 -14,6 -30,13 -43,17 l -34,12 c -5,1 -7,4 -8,9 l -8,23 -5,12 -8,20 h -4 l -10,-4 -11,-3 v -1 l 1,-2 16,4 4,1 q 4,-4 5,-8 l 4,-12 4,-10 3,-7 3,-10 v -5 l -14,-5 q -3,0 -4,2 l -4,12 -6,16 -5,14 q -1,3 -3,3 l -1,-5 17,-45 -3,-6 -17,-14 -6,-5 -14,-12 -14,-11 -16,-13 -9,-7 -1,-2 18,-11 36,-19 10,-5 15,-6 7,-2 h 13 l 15,5 22,9 43,21 36,22 c 5,3 11,7 13,13" id="path184"/>
    <path fill="#a8aeb1" d="m 146.47221,263.01894 5,2 q 6,4 13,4 v 8 l -4,48 -1,8 5,4 q 2,2 1,4 l -12,-7 -13,-5 q -2,-1 -2,-4 c 0,-19 2,-33 5,-54 z m 319,68 -11,4 c -4,-2 -9,0 -13,1 l -7,2 -22,9 -10,4 -5,2 -8,3 -5,1 -8,3 q -2,1 -5,-1 l -1,-6 -3,-10 -2,-11 -8,-29 -5,-21 -3,-11 q 2,-2 3,-1 l 14,8 20,11 4,3 14,7 14,7 16,9 9,6 15,6 2,2 z" id="path185"/>
    <path fill="#627382" d="m 325.47221,411.01894 -2,7 v 3 l -4,-2 1,-1 q -3,-5 -7,-6 l -16,-4 -31,-10 -27,-8 -13,-7 1,-5 10,-19 1,-4 8,-17 c 1,-2 3,-4 3,-7 l 6,-12 7,-17 3,-4 4,4 7,5 13,10 15,13 9,7 18,15 10,9 -3,8 -4,11 -4,10 q -5,11 -8,24 l -1,3 1,1 z" id="path186"/>
    <path fill="#828e96" d="m 491.47221,320.01894 3,4 12,33 6,15 8,20 2,6 -20,7 h -3 l -1,-4 -1,-3 -23,-67 14,-7 -1,-1 c 2,-1 4,-1 4,-3" id="path187"/>
    <path fill="#465a6e" d="m 497.47221,398.01894 1,3 q -19,7 -33,9 l -44,7 -31,7 -7,1 -17,3 q -4,2 -9,2 l 1,2 h -6 l -2,-1 7,-17 15,-41 c 2,-5 7,-7 13,-9 l 23,-8 24,-9 24,-9 15,-6 4,9 4,14 4,11 6,15 6,17 1,2 z" id="path188"/>
    <path fill="#627382" d="m 502.47221,405.01894 -13,4 -7,1 -6,1 -18,5 -39,7 -24,4 -29,5 h -8 l -2,-1 10,-3 17,-3 7,-1 31,-7 44,-7 q 14,-2 33,-9 v 3 z" id="path191"/>
  </g>
</svg>
