<?xml version="1.0" encoding="utf-8"?>
<svg xmlns="http://www.w3.org/2000/svg" width="256" height="256" viewBox="0 0 256 256" fill="none" version="1.1">
  <defs id="defs193"/>
  <g id="icon-artwork" transform="translate(128.000000 136.000000) scale(0.312873) translate(-293.226565 -223.805085)">
    <path id="path1" style="fill:#666666" d="m 345.294,-19.986315 c -8.07407,0.0055 -16.05609,1.452987 -24.02531,2.454375 -2.5437,0.397177 -5.14418,0.687888 -7.5747,1.563282 -3.32073,1.748534 -6.42485,3.87153 -9.69994,5.701841 -5.54412,3.2596941 -10.88922,6.8555517 -15.98746,10.77738412 -5.2052,3.81227998 -10.51793,7.52398898 -15.95283,10.86249288 -1.55972,0.246289 -3.04997,-0.50003 -4.58338,-0.669572 -7.7122,-1.6098109 -15.58633,-2.8854139 -23.49075,-2.3834889 -4.08469,0.251421 -8.173,0.503626 -12.24381,0.925115 -3.35925,0.37595 -6.75785,1.1122809 -9.92823,2.0777779 -4.53528,1.258468 -9.12017,2.351343 -13.63318,3.67806 -4.08533,1.58345 -8.11454,3.324088 -12.05512,5.236752 -6.59039,3.556149 -12.40384,8.371819 -17.85678,13.462454 -5.02748,4.803129 -9.34826,10.277778 -13.42833,15.891514 -2.22111,2.974336 -4.45138,5.941701 -6.68276,8.908341 -8.74544,-0.805087 -17.50784,-1.969217 -26.30687,-2.316588 -7.58595,0.418 -15.20619,0.797618 -22.67589,2.273382 -6.99672,1.147217 -13.948121,2.957917 -20.308111,6.15382 -6.284548,3.009032 -12.027322,6.995865 -17.652489,11.07298 -2.088161,1.368625 -3.32124,3.623612 -5.161861,5.264064 -2.13725,2.088956 -4.253844,4.20211 -6.194429,6.476414 -2.654346,2.803771 -5.035378,5.848287 -7.421054,8.876707 -2.030926,2.24735 -4.66558,3.816348 -7.223707,5.368748 -2.087702,2.41825 -5.271695,3.31373 -7.980436,4.81925 -5.49597,2.85995 -11.183079,5.36706 -16.506861,8.54825 -2.370117,1.45046 -4.444091,3.32392 -6.582848,5.08502 -2.672753,2.24545 -5.1131433,4.75002 -7.3808473,7.40022 -2.791734,2.97039 -5.511233,6.115 -7.18700954,9.87343 -2.46724846,4.77845 -4.69371106,9.71424 -6.20586836,14.88292 -1.0061315,4.42105 -1.7337006,8.89985 -2.6944092,13.33061 -0.2421283,1.35133 -0.5896989,2.75377 -0.1534349,4.10267 1.267432,6.4738 2.7288131,12.90551 3.5425727,19.35584 0.239193,2.49257 0.5815948,4.97833 1.2564972,7.39515 0.740893,3.00288 1.7176491,5.87231 2.0232876,8.93388 0.2651068,4.21668 -1.7913192,8.14796 -4.2194485,11.45022 -2.8920449,4.20302 -5.7808667,8.47181 -7.7860467,13.18283 -2.595874,6.68808 -3.887324,13.79732 -4.816515,20.88481 -0.88992,7.40596 -0.647987,14.9548 0.882177,22.26195 1.540456,7.61334 4.212974,15.04253 8.214131,21.71526 2.4552736,3.84243 5.35149,7.37544 8.0365124,11.0551 6.0272013,7.82789 13.9919936,14.10782 22.9183106,18.31933 9.485676,4.74242 18.970828,9.48588 28.45574,14.22982 0.0612,2.92887 -0.292325,5.92915 0.438205,8.79778 0.585326,1.8133 1.727856,3.38532 3.09622,4.68671 3.423754,3.9798 5.081457,9.23387 5.271802,14.4284 0.400244,5.96433 0.185259,11.9483 0.465393,17.91761 0.301732,11.18296 0.324863,22.3809 1.025845,33.54748 0.952583,5.46095 1.393254,11.11447 3.60869,16.25735 2.202715,4.76907 6.627426,8.44603 11.740954,9.68005 6.283191,1.79025 12.876174,1.04199 19.311247,0.99196 13.227601,-0.33897 26.472151,-0.36887 39.678131,-1.25941 4.71748,-0.37704 9.57135,-1.56408 13.31283,-4.6076 2.78715,-2.18533 4.99164,-5.08242 6.54846,-8.24955 1.11176,-2.62731 0.79581,-5.53362 1.06019,-8.30725 0.35624,-6.57459 0.56402,-13.3314 3.05308,-19.52325 1.68877,-4.3256 3.59895,-8.56046 5.32841,-12.87004 2.93483,1.84708 6.15957,3.31616 9.5639,4.0242 0.69561,0.24219 1.5106,-0.13957 2.0918,0.39485 10.48285,6.27577 21.62128,11.83328 33.6508,14.37549 7.19374,1.47623 14.54088,1.99647 21.85923,2.42005 11.08508,0.46599 22.1834,-0.40613 33.23466,-0.8474 -0.61645,4.39572 -1.49036,8.77037 -1.72609,13.20855 0.0542,2.60899 0.59775,5.17812 0.68038,7.7876 0.5736,7.40716 1.7787,15.01342 5.5333,21.54273 1.64031,2.87594 3.89913,5.43517 6.76947,7.12798 3.52065,2.15836 7.45577,3.55597 11.41756,4.66124 7.57697,1.98777 15.44024,2.4822 23.23553,2.82033 7.73761,0.24082 15.50535,0.11708 23.2014,-0.75401 6.39847,-1.00437 12.75438,-3.66901 17.23567,-8.46119 3.06084,-3.3964 5.47866,-7.56414 9.56419,-9.87494 4.36971,-2.68621 9.7498,-3.38465 14.75509,-2.51502 5.1295,0.67518 10.29138,1.22882 15.47333,1.11664 8.303,0.008 16.61979,-0.10053 24.89511,-0.82079 8.45064,-0.77774 16.86308,-2.11563 25.09113,-4.20767 3.78751,-1.05824 7.60349,-2.30807 10.92246,-4.4606 3.09723,-2.36105 4.3243,-6.35736 4.64514,-10.09272 0.523,-5.86383 -0.21915,-11.74411 -0.37601,-17.57039 -0.24172,-7.25335 -0.87268,-14.49558 -0.58891,-21.76349 0.0851,-3.63408 1.33769,-7.2005 3.50875,-10.11174 1.78678,-2.51893 4.22876,-4.46463 6.79768,-6.13403 5.50885,-3.82561 11.48684,-7.23118 16.03472,-12.27579 3.12848,-3.5329 5.28711,-7.76277 7.9712,-11.61664 3.60831,-5.30823 6.64706,-10.99137 9.10961,-16.91709 2.19885,-5.20847 3.15646,-10.80277 4.72315,-16.19934 1.18398,-4.24869 2.10035,-8.78986 4.96127,-12.29293 2.98516,-3.86963 7.09981,-6.69098 11.46138,-8.80568 5.85668,-2.69299 11.18033,-6.65658 15.1156,-11.7914 7.96244,-10.75391 13.87004,-23.24518 15.89062,-36.54102 0.77125,-5.4346 0.86267,-10.93431 1.15471,-16.40742 -0.0341,-4.31461 -0.91759,-8.57005 -0.98241,-12.88428 -0.31801,-7.01379 -0.55552,-14.0997 -0.88,-21.12716 -0.076,-1.82913 -0.1519,-3.65826 -0.22784,-5.48739 3.5473,-0.91632 7.06289,-2.34148 10.5039,-3.3457 2.22075,-0.66474 4.50849,-1.08765 6.82283,-1.21331 3.00633,-0.2899 5.90243,-1.30856 8.50902,-2.81849 3.40439,-1.86053 6.70206,-3.90993 10.13006,-5.72839 3.49721,-1.95554 6.85932,-4.34103 9.22157,-7.63217 3.61455,-4.53846 7.43303,-9.07195 9.60964,-14.51985 3.76352,-8.95048 4.04495,-19.50185 -0.0197,-28.40225 -2.42593,-5.2525 -6.27883,-9.6623 -10.17453,-13.87146 -3.59896,-3.92984 -7.75294,-7.2854 -11.96994,-10.5222 -2.29426,-1.736448 -4.51737,-3.559938 -6.66388,-5.475838 -2.54866,-2.21815 -5.27893,-4.247292 -8.28821,-5.79879 -5.7918,-3.393443 -11.16782,-7.467291 -17.06101,-10.686992 -3.98664,-1.89203 -8.24936,-3.196851 -12.12759,-5.306823 -1.03398,-0.924858 -1.60154,-2.319878 -2.68805,-3.155538 -4.595,-0.707483 -9.11137,-3.324175 -11.25726,-7.563212 -1.12855,-2.113906 -1.5785,-4.655285 -2.05979,-7.03756 -0.90174,-4.055087 -1.89091,-8.09287 -2.90585,-12.121539 -0.83011,-3.074025 -1.64351,-6.170703 -2.81755,-9.13271 -2.14423,-4.549345 -5.49671,-8.356826 -8.35262,-12.454476 -2.83722,-3.787842 -6.25286,-7.144959 -10.13308,-9.859167 -3.81283,-3.0091089 -7.54501,-6.3085979 -12.13909,-8.0809659 -5.3,-2.364215 -10.53083,-4.90681418 -15.89783,-7.1063634 -6.75391,-0.9653449 -13.31888,-3.2310257 -20.16394,-3.8296756 -13.64819,-0.7423411 -27.36927,1.1434393 -40.46775,4.9745932 -2.11801,0.56785922 -4.2402,1.56549642 -6.48435,1.14200442 -2.19185,-0.3191513 -4.3697,-0.8293767 -6.48047,-1.38867182 -2.89356,-0.9240486 -5.00548,-3.2082417 -7.51971,-4.7936831 -6.01537,-4.0407588 -12.61681,-7.1522268 -19.39775,-9.6729828 -4.49744,-1.708096 -9.30448,-2.272358 -14.01589,-3.089086 -3.03186,-0.468968 -6.06106,-1.117036 -9.14673,-1.000889 z"/>
    <path fill="#010102" d="m 132.00957,430.04298 q -12,5 -21,5 H 87.009577 c -8,-1 -12,-5 -11,-13 l 2,-24 c 0,-6 0,-9 2,-14 l 10,3 c 16.999993,6 25.999993,10 39.999993,12 4,5 5,8 5,11 q 1,11 -3,20" id="path5"/>
    <path fill="#a8aeb1" d="m 79.009577,388.04298 q 4,-1 6,1 l 20.999993,8 c 9,3 16,6 24,6 l 2,23 -16,4 H 83.009577 q -3,0 -3,-3 l -1,-37 z" id="path6"/>
    <path fill="#74828e" d="m 128.00957,408.04298 1,16 c -8,3 -13,4 -18,3 H 86.009577 q -3,-2 -3,-5 v -29 l 16.999993,6 c 9,4 18,6 27,7 z" id="path8"/>
    <path fill="#010102" d="m 553.00957,177.04298 c -5,1 -7,-3 -8,-6 l -2,-3 -14,-29 -16,-24 c -6,-7 0,-10 4,-15 l 4,-7.999999 4,-5 c 3,-2 8,0 11,2 l 12,7.000001 12,6.999998 15,13 q 7,7 13,17 3,4 3,7 c 1,4 1,10 -1,13 q -5,8 -14,14 -11,6 -23,10" id="path18"/>
    <path fill="#e9d99f" d="m 550.00957,173.04298 -2,-2 -17,-36 -15,-22 -2,-3 1,-3 q 7,-6 10,-14.999999 c 1,-4 5,-2 8,0 l 7,4.000001 6,3 12,6.999998 c 9,6 17,14 23,22 l 4,7 q 4,6 2,14 -3,8 -8,12 c -4,2 -7,5 -12,6 -5,2 -10,5 -16,6 z" id="path21"/>
    <path fill="#828e96" d="m 451.00957,105.04298 q -9,4 -19,1 l -5,-2 -2,-2 7,1 10,2 z" id="path22"/>
    <path fill="#a8aeb1" d="m 347.00957,107.04298 h 8 l 21,1 9,-2 h 6 q -9,5 -19,4 l -14,-1 z" id="path25"/>
    <path fill="#bbb48d" d="m 572.00957,158.04298 c -4,4 -8,5 -14,7 l -5,2 c -3,-2 -3,-6 -5,-8 l -5,-10 -2,-5 -4,-9 -5,-7 -2,-3 -3,-6 -1,-2 -3,-3 q -3,-3 -1,-7 5,0 7,4 l 10,14 4,3 11,13 8,7 3,4 q 3,5 7,6" id="path27"/>
    <path id="path28" d="m 308.43462,123.85353 c -4.34484,1.23225 -8.74486,2.28242 -13.04826,3.65227 -8.38102,3.06298 -16.78433,6.06897 -25.14932,9.17335 -8.60242,3.51387 -16.7525,8.12831 -24.23992,13.62555 -1.30974,1.16323 -2.26356,2.66085 -3.43626,3.95523 -3.25988,3.94859 -6.61971,7.8175 -9.77663,11.84946 -3.50173,4.76756 -6.25381,10.14035 -7.78373,15.86291 -0.78236,5.75102 0.43397,11.78051 3.43513,16.75113 1.07608,1.60425 2.34178,3.07761 3.63809,4.50471 2.86562,2.93005 7.01226,4.41376 11.08109,4.25406 2.62424,-0.0882 5.20265,-0.64772 7.81754,-0.85798 4.18754,-0.4739 8.3953,-1.20782 12.2904,-2.87616 9.21069,-2.96708 17.65718,-8.15439 24.66517,-14.8071 5.55139,-5.57075 10.02983,-12.2051 13.08229,-19.45476 2.75338,-5.71004 3.79264,-12.01839 5.63288,-18.00314 1.19405,-3.9429 1.86552,-8.03672 3.29831,-11.91106 0.72039,-2.16072 1.44083,-4.32142 2.16119,-6.48214 -0.90597,-3.16508 -1.80941,-6.33087 -2.71484,-9.4961 -0.31771,0.0866 -0.63542,0.17318 -0.95313,0.25977 z" style="fill:#e9d99f;fill-opacity:1"/>
    <path fill="#a8aeb1" d="m 487.00957,131.04298 v 3 l 6,-1 3,5 13,22 8,17 c 1,7 4,13 5,17 l 4,18 v 9 l -2,22 q -2,10 -8,18 -2,4 -6,7 -3,4 -7,6 l -3,2 -8,4 -4,1 c -11,3 -22,4 -31,5 l -16,-1 -21,-3 -7,-2 -7,-2 -5,-1 -4,-2 q -17,-6 -33,-16 l -5,-3 q -4,-2 -3,1 -13,-10 -20,-20 l -12,-18 -7,-17 v -8 l 1,-4 8,-22 c 2,-9 4,-15 2,-23 9,0 4,19 2,23 l -6,18 -2,9 c 0,6 2,11 5,19 q 1,4 5,9 c 4,6 6,12 12,16 l -8,-25 -4,-16 q 0,-21 6,-40 l 2,-9 c -3,-6 -8,-8 -13,-9 q -2,-2 -1,-5 l 3,-1 14,5 q 10,3 25,4 l 5,2 -3,4 2,6 -2,1 q -1,-3 -3,-2 l -3,4 -5,14 -2,10 q 0,8 2,13 c 2,5 6,12 11,16 1,2 3,5 6,6 l 2,2 c 11,1 19,1 25,-9 9,-13 9,-30 2,-44 l -6,-10 -4,-5 q -3,1 -3,3 l -3,-10 3,-3 18,-5 c 8,-3 16,1 23,3 l 6,1 9,-1 h 15 z" id="path30"/>
    <path fill="#465a6e" d="m 448.00957,139.04298 h -9 z" id="path31"/>
    <path fill="#74828e" d="m 328.00957,145.04298 -1,-5 c 5,1 10,3 13,8 l -2,10 q -6,19 -6,39 l 4,17 9,24 c -7,-3 -9,-9 -13,-15 q -4,-5 -5,-9 c -3,-8 -5,-13 -5,-19 l 2,-9 6,-18 c 2,-4 7,-23 -2,-23" id="path32"/>
    <path fill="#bbb48d" d="m 260.00957,196.04298 c 5,-1 7,-4 10,-10 l 7,-15 c 6,-6 11,-13 14,-20 2,-4 4,-7 7,-9 q 4,4 2,8 l -2,9 c 0,3 -1,5 -3,8 l -6,10 -13,14 -11,4 z" id="path33"/>
    <path fill="#ccd5ce" d="m 370.00957,156.04298 c -4,6 -5,12 -7,18 q -2,6 0,15 c 1,9 5,17 13,23 q 6,5 14,3 c 10,-3 14,-15 15,-23 q 1,-10 -2,-19 l -10,-18 -1,-1 v -2 l 7,3 6,11 c 7,14 7,31 -2,44 -6,10 -14,10 -25,9 l -2,-2 c -3,-1 -5,-4 -6,-6 -5,-4 -9,-11 -11,-16 q -2,-5 -2,-13 l 2,-10 5,-14 3,-4 q 2,-1 3,2" id="path35"/>
    <path fill="#010102" d="m 382.00957,436.04298 q -3,-1 -4,-5 l -1,-18 v -10 c 3,-5 7,-4 12,-7 l 17,-2 12,-1 10,-1 q 6,-1 10,2 l 1,14 -1,22 -2,2 q -9,3 -16,3 h -13 l -24,2 z" id="path88"/>
    <path fill="#828e96" d="m 419.00957,430.04298 v 1 l -9,1 -27,1 -3,-24 1,-5 c 6,-3 11,-4 16,-4 l 8,-2 9,-1 19,-2 2,33 z" id="path90"/>
    <path fill="#091c30" d="m 337.00957,455.04298 -11,2 h -30 l -6,-1 c -9,-1 -12,-8 -13,-16 -2,-8 -3,-18 -2,-26 1,-6 6,-8 12,-8 l 15,1 h 32 c 6,-1 9,5 9,10 v 28 q -1,6 -6,10" id="path92"/>
    <path fill="#a8aeb1" d="m 309.00957,411.04298 h 10 l 19,-1 v 38 c -3,3 -6,4 -9,4 q -18,2 -36,0 l -8,-1 -3,-4 q -4,-17 -4,-34 0,-3 2,-3 z" id="path95"/>
    <path fill="#828e96" d="m 283.00957,416.04298 q 26,0 51,-2 l 1,31 q -5,3 -11,3 h -26 c -8,1 -13,-2 -14,-10 l -2,-17 z" id="path96"/>
    <path fill="#fffef0" d="m 67.009577,315.04298 c -6,-2 -11,0 -16,0 -17,-1 -32,-12 -40,-26 q -11.00000014,-19 -8.0000003,-42 l 2,-8 c 3,-8 6.0000003,-15 11.0000003,-20 q 4,-5 9,-8 l 2,-2 c -10,-7 -13,-16 -16,-28 -1,-4 -1,-13 1,-18 l 3,-9 q 8,-17 25,-25 l 17,-6 13,-3 1,-5 c 3,-11 8,-19.999999 17,-25.999999 q 10.999992,-8 23.999993,-10 l 12,-2 27,2 16,4 4,2 4,-8 5,-12 c 3,-6 6,-10 11,-15 q 13,-12 30,-17 l 13,-4 c 6,-1 13,-2 18,-1 l 6,1 c 5,2 11,2 16,3 3,2 7,2 11,2 5,-12 17,-21 26,-25.9999999 q 19,-8.99999988 39,-6.9999999 l 7,1 6,2 q 10,1.9999999 19,8.9999998 6,5 10,12 2,3 4,2 l 12,-7 16,-6 13,-2 c 8,0 15,0 22,2 7,2 11,3 16,6 q 5,2 11,9 10,10 14,23 l 1,17 c -1,9 -4,15 -9,22 -7,9.999999 -18,15.999999 -30,19.999999 l -7,2 h -19 q -6,-1 -13,-5 c -3,-2 -5,-4 -5,-8 -3,0 -4,2 -6,3 -12,6 -22,13 -36,13 l -17,-1 -9,-1 -11,-3 q -13,-6 -24,-15.999999 l -28,9.999999 q -21,7 -40,17 c -10,5 -21,13 -29,22 l -11,18 c -3,4 -4,9 -5,14 q -2,17 -1,20 1,10 8,20 7,12 22,16 c 9,2 15,3 23,1 l 14,-2 18,-7 5,-5 5,5 q 6,14 13,24 c 2,4 4,8 7,10 l 16,18 q 23,20 55,30 l 8,2 11,3 4,1 21,4 c 18,2 31,3 46,0 h 3 q 0,6 -2,11 c -2,9 -9,17 -17,25 -6,7 -17,12 -26,15 q -14,4 -29,2 l -12,-3 -6,-2 c -3,-1 -7,-5 -10,-2 a 71,71 0 0 1 -39,23 l -18,1 -18,-3 -21,-8 -29,15 -14,4 h -14 q -20,-3 -35,-15 -7,-5 -11,-12 l -2,-6 q -12,5 -25,8 c -9,2 -18,2 -27,2 l -16,-4 -6,-2 q -14.999993,-6 -23.999993,-18 -11,-14 -12,-32" id="path126"/>
    <path fill="#a8aeb1" d="m 387.00957,323.04298 c 2,2 1,5 -1,8 -8,9 -17,17 -29,19 -10,1 -19,3 -28,0 q -17,-5 -30,-16 c -9,7 -16,13 -25,18 -10,5 -22,9 -33,6 l -19,-8 q -8,-4 -16,-12 c -6,-5 -10,-12 -12,-20 l -22,10 -10,1 q -14,0 -29,-6 l -10,-6 a 68,68 0 0 1 -25.000001,-43 l -19.999992,-3 -8,-3 c -9,-5 -17,-12 -21,-21 -4,-8 -5,-17 -5,-26 l -2,-16 3,-1 2,12 c -1,9 0,21 4,30 6,11 16,21 30,23 7,2 10.999992,2 17.999992,2 2.000001,8 3.000001,15 7.000001,20 l 6,11 7,10 8,6 9,4 10,3 c 7,2 17,3 24,0 l 16,-5 7,-5 7,13 q 3,5 9,10 10,9 24,14 10,4 17,3 c 10,0 20,-3 29,-8 l 14,-11 4,-4 c 15,12 35,20 53,16 l 12,-2 q 11,-4 18,-13 z" id="path140"/>
    <path fill="#ccd5ce" d="m 42.009577,205.04298 2,16 c 0,9 1,18 5,26 4,9 12,16 21,21 l 8,3 18.999992,2 c 5.000001,18 11.000001,33 26.000001,44 l 10,6 q 15,6 29,6 l 10,-1 20,-10 c 4,8 8,15 14,20 q 8,8 16,12 l 19,8 c 11,3 23,-1 33,-6 9,-5 16,-11 23,-18 q 15,11 32,16 c 9,3 18,1 28,0 12,-2 21,-10 29,-19 2,-3 3,-6 1,-8 l 1,-3 q -4,-4 -6,-4 l -17,-6 c -17,-6 -30,-12 -43,-23 l -11,-10 -6,-5 -7,-9 -11,-22 c -1,-4 -3,-5 -7,-5 v -4 l 9,-6 4,2 5,12 9,14 5,7 q 11,13 26,26 l 8,5 9,6 9,5 4,2 15,5 12,4 15,4 c 8,2 18,2 26,3 l 17,1 h 19 l 2,3 q -3,9 -7,14 l -8,8 q -3,4 -10,8 l -10,5 -12,3 -12,1 -10,-1 -15,-4 -12,-1 -3,1 q -11,11 -19,15 -10,5 -19,6 l -16,1 -14,-2 -5,-2 -18,-6 -5,-1 -4,2 -24,13 c -5,2 -13,3 -20,3 h -11 l -12,-3 -12,-7 q -6,-4 -11,-12 l -4,-7 c -2,-4 -9,-3 -11,-2 l -11,5 -11,3 q -16,1 -32,-1 -17.000001,-3 -26.999993,-14 -8,-9 -13,-20 c -3,-5 -4,-12 -5,-17 l -2,-3 -8,-1 c -6,1 -13,2 -19,0 q -16,-6 -25,-20 l -6,-14 c -2.0000003,-3 -2.0000003,-5 -2.0000003,-8 l -1,-4 q -1,-9 1,-18 l 6.0000003,-15 8,-11 c 3,-3 6,-6 7,-9 z" id="path141"/>
    <path fill="#a8aeb1" d="m 79.009577,388.04298 q 4,-1 6,1 l 20.999993,8 c 9,3 16,6 24,6 l 2,23 -16,4 H 83.009577 q -3,0 -3,-3 l -1,-37 z" id="path149"/>
    <path fill="#627382" d="m 128.00957,408.04298 1,15 c -8,4 -13,5 -18,4 H 86.009577 q -3,-2 -3,-5 v -29 l 16.999993,6 c 9,4 18,6 27,7 z" id="path150"/>
    <path fill="#ccd5ce" d="m 356.00957,257.04298 q -1,-3 3,-1 l 5,3 q 16,10 33,16 l 4,2 5,1 7,2 7,2 21,3 16,1 c 9,-1 20,-2 30,-5 l 5,-1 7,-3 4,-3 q 4,-2 7,-6 4,-3 6,-7 6,-8 8,-18 l 2,-22 v -9 l -4,-18 -5,-16 -8,-18 -13,-22 v -2 q -5,-3 -8,-2 -2,-1 -1,-3 3,-1 5,-4 l 4,3 c 6,10 16,26 22,40 q 7,16 11,33 l 2,13 c 0,9 -1,17 -3,26 l -3,13 c -7,17 -26,29 -44,33 -14,2 -26,2 -44,1 l -16,-2 -10,-3 -16,-4 q -21,-8 -39,-23" id="path161"/>
    <path fill="#465a6e" d="m 448.00957,139.04298 h -9 z" id="path164"/>
    <path fill="#627382" d="m 328.00957,145.04298 -1,-5 c 5,1 10,3 13,8 l -2,10 q -6,19 -6,39 l 4,17 9,24 c -7,-3 -9,-9 -13,-15 q -4,-5 -5,-9 c -3,-8 -5,-13 -5,-19 l 2,-9 6,-18 c 2,-4 7,-23 -2,-23 m 64,-4 -2,2 q 0,6 2,11 l 1,1 -17,-2 -4,2 -3,-5 4,-3 -5,-4 z" id="path165"/>
    <path fill="#163149" d="m 393.00957,155.04298 10,18 q 3,9 2,19 c -1,8 -5,20 -15,23 q -8,2 -14,-3 c -8,-6 -12,-14 -13,-23 q -2,-9 0,-15 c 2,-6 3,-13 7,-18 l 2,-1 4,-2 z" id="path166"/>
    <path fill="#828e96" d="m 414.00957,398.04298 v -1 l 19,-2 2,33 -11,2 -9,1 -12,1 -20,1 -3,-25 1,-4 q 7,-4 11,-4 l 8,-1 z" id="path189"/>
    <path fill="#a8aeb1" d="m 309.00957,411.04298 h 10 l 19,-1 v 38 c -3,3 -6,4 -9,4 q -18,2 -36,0 l -8,-1 -3,-4 q -4,-17 -4,-34 0,-3 2,-3 z" id="path190"/>
  </g>
</svg>
