<?xml version="1.0" encoding="UTF-8"?>
<svg xmlns="http://www.w3.org/2000/svg" width="1335" height="1384" viewBox="-24 -51 1335 1384">
  <path d="M-3.1087890624999996,18 Z" fill="#ffffff" />
  <path d="M-3.1087890624999996,-31 Z" fill="#ffffff" />
  <path d="M228,0 L228,294 L0,294 L0,0 L228,0 Z" fill="#8faaf5" />
  <path d="M62.34000015258789,109.77999877929688 L68.81999969482422,103.0199966430664 C65.76000213623047,96.37999725341797 63.16999816894531,93.56999969482422 64.63999938964844,87.47000122070312 C66.38999938964844,80.19999694824219 70.13999938964844,75.62000274658203 75.16999816894531,69.91000366210938 Q76.12000274658203,68.83000183105469 86.37000274658203,57.880001068115234 C91.6500015258789,52.25 97.38999938964844,41.34000015258789 100.41000366210938,36.90999984741211 C104.69000244140625,30.600000381469727 110.5999984741211,25.110000610351562 118.4800033569336,29.450000762939453 C120.93000030517578,30.799999237060547 123.45999908447266,34.310001373291016 124.98999786376953,36.52000045776367 Q133.80999755859375,49.220001220703125 136.42999267578125,52.91999816894531 C141.17999267578125,59.630001068115234 146.99000549316406,65.83000183105469 152.33999633789062,71.94999694824219 C156.25999450683594,76.44000244140625 159.72000122070312,81.54000091552734 161.42999267578125,86.33000183105469 Q163.1300048828125,91.08000183105469 160.77000427246094,97.16999816894531 C158.7100067138672,99.31999969482422 156.02999877929688,101.48999786376953 158.1300048828125,103.61000061035156 C163.66000366210938,109.16999816894531 168.0399932861328,112.95999908447266 172.3300018310547,118.08000183105469 C178.1300048828125,125.01000213623047 181.07000732421875,128.30999755859375 183.47999572753906,135.7899932861328 C186.13999938964844,144.07000732421875 182.41000366210938,152.52999877929688 175.74000549316406,157.7100067138672 C180.33999633789062,163.3800048828125 185.3300018310547,167.91000366210938 188.6999969482422,173.11000061035156 Q192.74000549316406,179.36000061035156 194.9199981689453,185.80999755859375 C196.60000610351562,190.77000427246094 195.19000244140625,196.19000244140625 193.27999877929688,201.30999755859375 C190.27999877929688,209.3300018310547 178.27999877929688,215.58999633789062 170.97999572753906,217.5 Q167.3800048828125,218.44000244140625 158.83999633789062,219.1300048828125 Q152.72999572753906,219.6300048828125 147.22000122070312,218.47999572753906 Q140.55999755859375,217.08999633789062 135.77999877929688,215.72000122070312 Q136.99000549316406,232.5500030517578 138.80999755859375,244.36000061035156 Q139.72000122070312,250.2100067138672 136.0399932861328,254.82000732421875 Q133.3300018310547,258.20001220703125 126.33999633789062,259.8399963378906 C116.33000183105469,262.17999267578125 105.83000183105469,262.4100036621094 96.12999725341797,258.20001220703125 C86.93000030517578,254.19000244140625 87.86000061035156,246.6699981689453 89.16000366210938,237.52999877929688 Q90.58999633789062,227.52999877929688 92.0199966430664,217.8000030517578 L84.44000244140625,217.9199981689453 C77.08999633789062,218.77000427246094 74.75,219.33999633789062 69.04000091552734,219.27999877929688 Q59.650001525878906,219.17999267578125 49.119998931884766,214.72999572753906 Q35.18000030517578,208.83999633789062 32.34000015258789,193.97000122070312 Q31.510000228881836,189.6300048828125 31.850000381469727,187.80999755859375 Q33.95000076293945,176.4199981689453 42.41999816894531,167.63999938964844 Q48.290000915527344,161.55999755859375 51.029998779296875,159.22000122070312 C46.529998779296875,152.82000732421875 43.54999923706055,148.4600067138672 43.130001068115234,142.02999877929688 C44.63999938964844,133.4199981689453 45.130001068115234,129.86000061035156 49,124.4800033569336 Q52.34000015258789,119.86000061035156 58.630001068115234,113.12999725341797 Q59.65999984741211,112.02999877929688 60.09000015258789,111.87000274658203 Q61.119998931884766,111.4800033569336 61.099998474121094,110.87000274658203 Q61.08000183105469,110.25 62.09000015258789,109.94000244140625 Z" fill="#35440c" />
  <path d="M117.47000122070312,34.459999084472656 C117.0199966430664,48.869998931884766 117.98999786376953,62.38999938964844 106.37999725341797,72.68000030517578 C97.37000274658203,80.66999816894531 85.11000061035156,86.52999877929688 73.33999633789062,84.25 L71.73999786376953,80.94000244140625 C77.0999984741211,72.01000213623047 85.79000091552734,66.27999877929688 91.69999694824219,57.90999984741211 Q96.44000244140625,51.189998626708984 103.72000122070312,40.13999938964844 Q104.63999938964844,38.75 106.25,36.81999969482422 C109.48999786376953,32.93000030517578 112.58999633789062,28.93000030517578 117.47000122070312,34.459999084472656 Z" fill="#90b534" />
  <path d="M125.72000122070312,44.27000045776367 L129.14999389648438,50.40999984741211 Q129.9499969482422,57.650001525878906 132.80999755859375,61.369998931884766 Q140.1300048828125,70.93000030517578 142.77999877929688,78.73999786376953 C146.08999633789062,88.48999786376953 140.10000610351562,94.5999984741211 130.50999450683594,94.12999725341797 Q110.23999786376953,93.12999725341797 90.68000030517578,94.87999725341797 C82.43000030517578,95.62000274658203 72.66000366210938,95.0199966430664 69.1500015258789,86 Q69.97000122070312,83.29000091552734 71.73999786376953,80.94000244140625 L72.66000366210938,83.6500015258789 C85.11000061035156,86.52999877929688 97.37000274658203,80.66999816894531 106.37999725341797,72.68000030517578 C117.98999786376953,62.38999938964844 117.0199966430664,48.869998931884766 117.47000122070312,34.459999084472656 L125.72000122070312,44.27000045776367 Z" fill="#759628" />
  <path d="M69.1500015258789,86 C72.66000366210938,95.0199966430664 82.43000030517578,95.62000274658203 90.68000030517578,94.87999725341797 Q110.23999786376953,93.12999725341797 130.50999450683594,94.12999725341797 C140.10000610351562,94.5999984741211 146.08999633789062,88.48999786376953 142.77999877929688,78.73999786376953 Q140.1300048828125,70.93000030517578 132.80999755859375,61.369998931884766 Q129.9499969482422,57.650001525878906 129.44000244140625,51.369998931884766 L125.72000122070312,44.27000045776367 Q127.70999908447266,46.880001068115234 129.35000610351562,49.720001220703125 Q131.4199981689453,53.290000915527344 132.91000366210938,55.16999816894531 Q136.3300018310547,59.470001220703125 138.5399932861328,61.380001068115234 C141.35000610351562,63.79999923706055 142.8800048828125,66.19000244140625 145.74000549316406,69.54000091552734 C149.05999755859375,73.44000244140625 153.4600067138672,77.41000366210938 155.94000244140625,81.5199966430664 Q157.27000427246094,83.72000122070312 157.9499969482422,87.52999877929688 C159.3800048828125,95.55000305175781 154.6699981689453,101.62999725341797 146.33999633789062,102.36000061035156 Q131.72000122070312,103.63999938964844 118.19000244140625,95.36000061035156 C111.69999694824219,95.52999877929688 106.11000061035156,97.62000274658203 101.31999969482422,99.8499984741211 C95.2699966430664,102.66999816894531 86.95999908447266,102.9800033569336 80.54000091552734,102.54000091552734 C72.2300033569336,101.9800033569336 66.9000015258789,93.91000366210938 69.1500015258789,86 Z" fill="#5e7a1f" />
  <path d="M48.77000045776367,135.6300048828125 Q48.150001525878906,141.1300048828125 49.209999084472656,144.13999938964844 C51.06999969482422,149.44000244140625 58.310001373291016,150.02000427246094 62.849998474121094,151.35000610351562 C71.36000061035156,153.83999633789062 80.8499984741211,153.72999572753906 89.0199966430664,151.6999969482422 Q100.83999633789062,148.75999450683594 107.69000244140625,147.4600067138672 C115.62999725341797,145.97000122070312 120.76000213623047,145.6300048828125 127.37999725341797,147.74000549316406 C135.17999267578125,150.22000122070312 142.67999267578125,150.8800048828125 150.61000061035156,149.17999267578125 Q158.10000610351562,147.5800018310547 161.9600067138672,140.11000061035156 Q162.60000610351562,130.88999938964844 157.44000244140625,121.79000091552734 C151.7100067138672,111.66999816894531 143.16000366210938,109.45999908447266 132.52000427246094,108.2699966430664 Q125.91000366210938,107.52999877929688 124.26000213623047,107.05000305175781 C119.87999725341797,105.76000213623047 113.5,103.98999786376953 108.87000274658203,104.68000030517578 C100.83000183105469,105.87999725341797 93.2699966430664,107.11000061035156 85.0999984741211,106.6500015258789 C80.83000183105469,106.41000366210938 76.86000061035156,105.25 72.79000091552734,104 Q72.6500015258789,103.43000030517578 73.2699966430664,103 Q80.97000122070312,106.18000030517578 90.08000183105469,105.69999694824219 C97.01000213623047,105.33000183105469 99.69999694824219,105.43000030517578 105.37999725341797,103.58000183105469 Q108.69999694824219,102.5 115.5,99.63999938964844 C125.41000366210938,105.88999938964844 137.47999572753906,108.2699966430664 146.80999755859375,105.87000274658203 L152.94000244140625,102.87000274658203 C158.42999267578125,108.7699966430664 163.2899932861328,115.22000122070312 168.94000244140625,120.81999969482422 Q171.63999938964844,123.51000213623047 175.6999969482422,128.07000732421875 C179.85000610351562,132.74000549316406 179.80999755859375,137.27999877929688 179.5,143.6199951171875 C179.22000122070312,149.25 177.24000549316406,153.66000366210938 171.6199951171875,156.55999755859375 C164.4499969482422,160.25999450683594 155.25,160.94000244140625 147.05999755859375,160.77999877929688 Q141.97000122070312,160.67999267578125 133.8000030517578,158.1699981689453 Q124.26000213623047,155.24000549316406 117.83999633789062,152.22000122070312 Q116.43000030517578,151.55999755859375 114.87999725341797,151.91000366210938 Q112.23999786376953,152.52000427246094 111.87000274658203,152.66000366210938 Q100.80999755859375,156.7899932861328 89.5199966430664,158.85000610351562 C78.91000366210938,160.77999877929688 67.69000244140625,161.14999389648438 58.380001068115234,156.02999877929688 Q53.7599983215332,153.49000549316406 50.08000183105469,148.11000061035156 Q46.68000030517578,143.1300048828125 48.77000045776367,135.6300048828125 Z" fill="#5e7a1f" />
  <path d="M48.77000045776367,135.6300048828125 Q48.5099983215332,135.94000244140625 48.83000183105469,135.42999267578125 C53.47999954223633,145.8699951171875 72.06999969482422,144.0500030517578 81.0199966430664,142.89999389648438 Q91.37000274658203,141.55999755859375 99.80000305175781,138.25999450683594 Q107.5199966430664,135.24000549316406 115.93000030517578,128.94000244140625 C119.69000244140625,126.12000274658203 122.05000305175781,123.01000213623047 123.77999877929688,119.06999969482422 Q117.62000274658203,113.36000061035156 111.68000030517578,110.86000061035156 C104.70999908447266,107.91999816894531 99.56999969482422,109.9000015258789 90.30000305175781,111.70999908447266 Q83.1500015258789,113.0999984741211 74.69000244140625,110.9000015258789 Q73.38999938964844,110.55999755859375 71.87999725341797,108.01000213623047 L69.26000213623047,108.5199966430664 L72.79000091552734,104 C76.86000061035156,105.25 80.83000183105469,106.41000366210938 85.0999984741211,106.6500015258789 C93.2699966430664,107.11000061035156 100.83000183105469,105.87999725341797 108.87000274658203,104.68000030517578 C113.5,103.98999786376953 119.87999725341797,105.76000213623047 124.26000213623047,107.05000305175781 Q125.91000366210938,107.52999877929688 132.52000427246094,108.2699966430664 C143.16000366210938,109.45999908447266 151.7100067138672,111.66999816894531 157.44000244140625,121.79000091552734 Q162.60000610351562,130.88999938964844 162.24000549316406,139.0399932861328 Q158.10000610351562,147.5800018310547 150.61000061035156,149.17999267578125 C142.67999267578125,150.8800048828125 135.17999267578125,150.22000122070312 127.37999725341797,147.74000549316406 C120.76000213623047,145.6300048828125 115.62999725341797,145.97000122070312 107.69000244140625,147.4600067138672 Q100.83999633789062,148.75999450683594 89.0199966430664,151.6999969482422 C80.8499984741211,153.72999572753906 71.36000061035156,153.83999633789062 62.849998474121094,151.35000610351562 C58.310001373291016,150.02000427246094 51.06999969482422,149.44000244140625 49.209999084472656,144.13999938964844 Q48.150001525878906,141.1300048828125 48.77000045776367,135.6300048828125 Z" fill="#759628" />
  <path d="M48.83000183105469,135.42999267578125 Q50.02000045776367,129.61000061035156 53.97999954223633,124.98999786376953 Q61.29999923706055,116.44999694824219 69.26000213623047,108.5199966430664 L71.02999877929688,107.73999786376953 Q73.38999938964844,110.55999755859375 74.69000244140625,110.9000015258789 Q83.1500015258789,113.0999984741211 90.30000305175781,111.70999908447266 C99.56999969482422,109.9000015258789 104.70999908447266,107.91999816894531 111.68000030517578,110.86000061035156 Q117.62000274658203,113.36000061035156 123.0999984741211,116.83000183105469 C122.05000305175781,123.01000213623047 119.69000244140625,126.12000274658203 115.93000030517578,128.94000244140625 Q107.5199966430664,135.24000549316406 99.80000305175781,138.25999450683594 Q91.37000274658203,141.55999755859375 81.0199966430664,142.89999389648438 C72.06999969482422,144.0500030517578 53.47999954223633,145.8699951171875 48.83000183105469,135.42999267578125 Z" fill="#90b534" />
  <path d="M37.720001220703125,183.1999969482422 Q37.0099983215332,188.30999755859375 37.9900016784668,193.27000427246094 C49.33000183105469,202.6199951171875 67.45999908447266,204.1199951171875 80.3499984741211,202.80999755859375 Q90.05999755859375,201.82000732421875 115.3499984741211,196.42999267578125 C118.87999725341797,196.47999572753906 122.3499984741211,196.69000244140625 125.51000213623047,197.74000549316406 C136.42999267578125,201.3800048828125 148.3699951171875,202.4499969482422 159.5800018310547,199.35000610351562 C167.9199981689453,197.0399932861328 175.72000122070312,192.41000366210938 172.5500030517578,182.44000244140625 Q169.89999389648438,174.0500030517578 162.36000061035156,171.1300048828125 Q161.1699981689453,170.6699981689453 156.72000122070312,170.25 C149.6199951171875,169.5800018310547 141.77000427246094,166.8300018310547 133.77999877929688,165.3300018310547 Q127.04000091552734,164.05999755859375 120.29000091552734,162.67999267578125 C114.8499984741211,161.55999755859375 111.05000305175781,163.66000366210938 105.86000061035156,165.5800018310547 Q101.73999786376953,167.10000610351562 95.80999755859375,166.7100067138672 Q74.12000274658203,165.30999755859375 73.12999725341797,165.27999877929688 Q69.12000274658203,165.13999938964844 63.540000915527344,162.92999267578125 C73.87000274658203,164.5800018310547 84.08000183105469,165.39999389648438 93.7300033569336,163.1699981689453 Q96.77999877929688,162.4600067138672 111.76000213623047,157.2100067138672 C115.25,155.99000549316406 119.26000213623047,156.5399932861328 123.18000030517578,158.4600067138672 C129.52000427246094,161.5800018310547 136.9600067138672,164.33999633789062 144.1300048828125,164.5 Q153.77999877929688,164.72000122070312 161.6199951171875,163.4199981689453 Q167.49000549316406,160.64999389648438 169.50999450683594,159.7899932861328 Q171.38999938964844,158.99000549316406 172.8800048828125,160.91000366210938 Q177.19000244140625,166.47999572753906 183.25999450683594,172.30999755859375 Q186.41000366210938,175.3300018310547 188.52999877929688,178.5399932861328 Q190.66000366210938,181.77000427246094 191.32000732421875,185.97000122070312 Q193.10000610351562,197.4199981689453 183.6300048828125,206.7899932861328 Q177.17999267578125,213.1699981689453 169.38999938964844,214.00999450683594 Q150.32000732421875,216.07000732421875 133.80999755859375,211.35000610351562 Q125.55999755859375,208.99000549316406 116.5999984741211,205.2100067138672 C115.08000183105469,204.57000732421875 111.80999755859375,205.05999755859375 109.91000366210938,205.92999267578125 C106.16000366210938,207.63999938964844 102.13999938964844,208.27000427246094 98.26000213623047,210.10000610351562 Q94.6500015258789,211.80999755859375 93.19999694824219,211.99000549316406 C86.08000183105469,212.8800048828125 81.08000183105469,213.85000610351562 74.44999694824219,213.89999389648438 Q65.62000274658203,213.9600067138672 59.70000076293945,213.38999938964844 Q52.65999984741211,212.72000122070312 46.279998779296875,208.02000427246094 C42.11000061035156,204.9499969482422 39.790000915527344,203.50999450683594 38.25,199.49000549316406 C36.40999984741211,194.66000366210938 35.41999816894531,188.10000610351562 37.720001220703125,183.1999969482422 Z" fill="#5e7a1f" />
  <path d="M63.540000915527344,162.92999267578125 Q69.12000274658203,165.13999938964844 73.12999725341797,165.27999877929688 Q74.12000274658203,165.30999755859375 95.80999755859375,166.7100067138672 Q101.73999786376953,167.10000610351562 105.86000061035156,165.5800018310547 C111.05000305175781,163.66000366210938 114.8499984741211,161.55999755859375 120.29000091552734,162.67999267578125 Q127.04000091552734,164.05999755859375 133.77999877929688,165.3300018310547 C141.77000427246094,166.8300018310547 149.6199951171875,169.5800018310547 156.72000122070312,170.25 Q161.1699981689453,170.6699981689453 162.36000061035156,171.1300048828125 Q169.89999389648438,174.0500030517578 172.5500030517578,182.44000244140625 C175.72000122070312,192.41000366210938 167.9199981689453,197.0399932861328 159.5800018310547,199.35000610351562 C148.3699951171875,202.4499969482422 136.42999267578125,201.3800048828125 125.51000213623047,197.74000549316406 C122.3499984741211,196.69000244140625 118.87999725341797,196.47999572753906 116.22000122070312,196.36000061035156 Q90.05999755859375,201.82000732421875 80.3499984741211,202.80999755859375 C67.45999908447266,204.1199951171875 49.33000183105469,202.6199951171875 38.52000045776367,194.1199951171875 Q37.0099983215332,188.30999755859375 37.720001220703125,183.1999969482422 Q38.290000915527344,182.3000030517578 38.540000915527344,181.16000366210938 Q41.779998779296875,189.61000061035156 51.689998626708984,191.72000122070312 Q60.11000061035156,193.50999450683594 68.5199966430664,193.0500030517578 C82.9800033569336,192.27000427246094 96.83999633789062,189.85000610351562 110.0199966430664,184.07000732421875 Q114.38999938964844,182.14999389648438 120.98999786376953,175.64999389648438 Q119.02999877929688,171.82000732421875 114.72000122070312,171.00999450683594 C106.91999816894531,169.5500030517578 101.66000366210938,168.6300048828125 94.22000122070312,170 Q82.18000030517578,172.2100067138672 69.77999877929688,170.94000244140625 Q63.5099983215332,170.3000030517578 61.58000183105469,169.42999267578125 Q55.689998626708984,166.80999755859375 49.93000030517578,165.91000366210938 L54.59000015258789,160.42999267578125 C58.25,159.75 60.9900016784668,161.82000732421875 63.540000915527344,162.92999267578125 Z" fill="#759628" />
  <path d="M38.540000915527344,181.16000366210938 Q42.2400016784668,172.6699981689453 49.93000030517578,165.91000366210938 Q55.689998626708984,166.80999755859375 61.58000183105469,169.42999267578125 Q63.5099983215332,170.3000030517578 69.77999877929688,170.94000244140625 Q82.18000030517578,172.2100067138672 94.22000122070312,170 C101.66000366210938,168.6300048828125 106.91999816894531,169.5500030517578 114.72000122070312,171.00999450683594 Q119.02999877929688,171.82000732421875 121.06999969482422,174.89999389648438 Q114.38999938964844,182.14999389648438 110.0199966430664,184.07000732421875 C96.83999633789062,189.85000610351562 82.9800033569336,192.27000427246094 68.5199966430664,193.0500030517578 Q60.11000061035156,193.50999450683594 51.689998626708984,191.72000122070312 Q41.779998779296875,189.61000061035156 38.540000915527344,181.16000366210938 Z" fill="#90b534" />
  <path d="M92.36000061035156,249.6999969482422 Q92.44999694824219,239.8800048828125 95.44000244140625,229.05999755859375 Q96.22000122070312,226.27000427246094 96.08999633789062,224.11000061035156 C95.83000183105469,219.52000427246094 95.5,214.67999267578125 100.94999694824219,212.92999267578125 C107.31999969482422,210.8800048828125 111.80000305175781,209.10000610351562 118.11000061035156,210.63999938964844 C123.11000061035156,211.86000061035156 127.91999816894531,212.89999389648438 132.74000549316406,214.74000549316406 L132.6199951171875,215.72999572753906 Q131.77000427246094,224.55999755859375 133.08999633789062,229.66000366210938 Q135.1999969482422,237.75999450683594 135.5,244.33999633789062 C135.75,249.86000061035156 133.17999267578125,252.22000122070312 127.9800033569336,254.50999450683594 C121.87000274658203,257.2099914550781 118.95999908447266,258.9200134277344 113.61000061035156,258.04998779296875 Q110.68000030517578,257.5799865722656 105.22000122070312,256.739990234375 Q100.61000061035156,256.0400085449219 98.19000244140625,254.75999450683594 Q94.91000366210938,253.02000427246094 92.72000122070312,250.6199951171875 Z" fill="#744920" />
  <path d="M1291.341618347168,63.5 Z" fill="#ffffff" />
  <path d="M1267.7735412597656,1312.5 Z" fill="#ffffff" />
</svg>