<svg xmlns="http://www.w3.org/2000/svg" width="983" height="1039" viewBox="-20 -21 983 1039"><path fill="#979dcc" d="M943 0v998H0V0h943Z"/><path fill="#fbf0ea" d="m717 120 2 2 19 10 15 8 16 9 12 7 12 7 15 8 15 8 13 7 7 4 8 5 11 6 10 6 9 5 8 5q11 6 19 14c9 9 14 18 16 29l1 15v55l1 59v320c0 10-1 19-4 26q0 3-5 12l-8 11q-8 8-19 14l-48 28-52 29-58 33-12 7-23 13-82 46-7 4-39 22-48 27c-10 5-21 10-31 11q-18 2-34-6l-39-21-55-32-38-21-42-24-35-21-38-21-19-11-23-13-21-12-43-25c-14-8-29-15-41-26q-14-11-18-28-2-9-2-20V268l1-9c2-8 4-15 9-21l9-10c5-5 9-8 15-11l23-14 13-8 13-7 16-9 21-12 37-20 10-6 24-14 6-3 19-10 14-8 28-17 12-6 23-13 16-8 12-7 11-7 14-7 13-7 25-14 28-13 15-4c13-3 25-1 36 3l7 3 6 2 36 20 25 14 8 4 25 14 11 5 13 8 17 8 13 7 13 8 8 4 5 4 10 5 15 8Z"/><path fill="#feb308" d="m819 243-2 16-17-9c-5-3-9-6-15-8l-26-15-13-7-34-17-19-12-20-12-41-22-31-17-13-7-18-11-9-5-29-14-20-9-9-3c-10-5-20-10-29-6l-14 5-13 5-9 3-14 7-10 6-12 6-6 4c-6 2-11 6-17 9l-12 6-20 11q-20 12-28 15l-18 11-14 8-32 19-24 12c-19 9-37 21-55 31l-14 7-20 12-21 13c-3 3-7 6-7 10l1 29c-8 4-10 12-12 19l-5 30v-78l1-11q3-8 11-12l44-25 18-9 32-18 16-9 34-19 47-26 11-6 16-9 40-22 25-14 44-23 13-6 20-10 3-1c8-1 15-1 21 2l10 5 74 39 22 12 22 12 78 43 8 5 58 32 53 28Z"/><path fill="#fed716" d="m817 259 5 4 17 10c6 5 13 9 12 17l-7-1-10 5-6-2q-16-12-33-19l-18-10-35-22-8-3-18-11q-4-2-5-5c-3-8-6-14-14-17l-15-4q-6-1-11 1l-4-2-25-15-11-5c-8-3-16-9-25-14-14-7-25-12-38-20l-24-13-46-23q-12-5-24-3-4 0-10 3l-25 13-25 13-7 4-28 14-21 13-11 6-24 12-11 7-14 7q-5 3-11 4c-9 1-15 3-23 8q-9 6-13 14l-4 4-21 9-17 11-21 11-17 9-22 13-13 8c-9-5-13-7-22-5 0-4 4-7 7-10l21-13 20-12 14-7c18-10 36-22 55-31l24-12 32-19 14-8 18-11q8-3 28-15l20-11 12-6c6-3 11-7 17-9l6-4 12-6 10-6 14-7 8-2 14-6 14-5c9-4 19 1 28 5l10 4 20 9 29 14 9 5 18 11 13 7 31 17 41 22 20 12 19 12 34 17 13 7 26 15c6 2 10 5 15 8l17 9Z"/><path fill="#fece16" d="m671 202-2 1q-3 7-4 15l-2 10c-2 17-4 34-17 46-5 5-11 12-17 16l-17 12-26 19-10 8-24 18-19 17-19 16-6 6-11 11-5 5-12 12c-9-7-16-13-24-22q-13-15-24-24l-17-15-10-8-19-16-20-15c-8-7-19-12-25-18l-20-17c-8-6-14-11-17-19l-4-19-4-25-4-10q-5-1-8 1l-19 11-14 7q4-8 13-14c8-5 14-7 23-8q6-1 11-4l14-7 11-7 24-12 11-6 21-13 28-14 7-4 25-13 25-13q6-3 10-3 12-2 24 3l46 23 24 13c13 8 24 13 38 20 9 5 17 11 25 14l11 5 25 15 4 2Z"/><path fill="#feb70c" d="M555 183c-4 6-9 7-14 10-13 9-21 14-30 23l-15 14-17 13q-13-9-25-20l-18-15-30-21-4-4c7-9 22-13 32-10l11 6c12 8 22 18 32 28l30-26c6-5 16-10 24-9q10 1 19 6l5 5Z"/><path fill="#febd08" d="m711 222-1 2q-17-7-34-18-2-2-7-3l2-1q5-2 11-1l15 4c8 3 11 9 14 17Z"/><path fill="#feb40b" d="M606 203c6 10 6 18 3 29s-10 17-20 23l-5 4-16 12-15 10-29 20-9 9-19 16-8 8q-5 3-9 8l-6-4-43-39-18-13-23-16-24-16q-9-7-15-14-4-6-4-13c1-8 3-20 9-26l4 3c4 4 10 13 17 18q9 7 16 10l12 8 20 15 23 19 21 22 10 12 8-8 18-20 7-6 8-7 18-16 12-8c8-6 15-9 23-13 11-6 21-15 31-25l3-2Z"/><path fill="#ffb108" d="M669 203q5 1 7 3 17 11 34 18l1 4q3 21 0 40-1 11-8 20c-9 12-19 22-32 31l-14 11-8 5c-6 3-10 8-16 12l-11 6-24 16-24 16-40 28-10 7-24 18-14 11-6 6-32-26-15-11-20-15-23-15-9-6c-8-6-14-11-23-16l-16-11c-5-4-13-7-17-11l-36-27-8-6-21-19c-6-6-11-11-13-17q-4-16 0-38v-8l4-4 14-7 19-11q3-2 7-2 3 4 5 11l4 25 4 19c3 8 9 13 17 19l20 17c6 6 17 11 25 18l20 15 19 16 10 8 17 15q11 9 24 24l22 22 14-12 5-5 11-11 6-6 19-16 19-17 24-18 10-8 26-19 17-12c6-4 12-11 17-16 13-12 15-29 17-46l2-10q1-8 4-15Z"/><path fill="#ffc313" d="m834 294-3 1-16 10-17 11-9 5-8 5-11 8-12 8-33 24-11 8-27 19-19 12-28 22-9 6-14 8-19 13-17 12-24 17-27 21-16 12-10 9-23 22-18-16-21-21c-5-5-13-9-19-14l-18-14-9-7-30-22-14-9c-5-4-9-8-14-10-9-5-16-12-24-18-9-6-14-9-23-17l-18-12-61-43-24-17c-7-4-10-9-16-13l-35-22q-3 4-3 8l-1 44v21q3 5 7 8l37 25 30 20 32 22 23 17 27 18 19 13 19 14 45 30 17 11 33 23q21 14 44 33l14 10 21-15 11-9 16-12 27-17 27-18 19-13 32-21 13-10 15-9 27-18 24-16 17-11 36-25 24-16 9-5 36-26q1 15-1 23c-1 10-4 20-7 30q-4 19-2 37l-4 3-40 28-21 15-13 8-31 22-14 8-35 24-28 19-29 21-33 22-31 23-18 16c-12 9-20 19-32 32q-7 7-13 16l-15-16-10-11-12-12-11-10-10-9c-7-7-13-11-21-17l-7-5-16-12-11-8-24-17-41-28-20-15-7-4-42-29-18-13c-8-6-22-14-28-20l-18-12-13-9-18-12-4-3q-6-6-12-9l-10-6-1-24v-37l1-31 1-32-1-29c9-2 13 0 21 5 6-2 10-6 14-8l22-13 17-9 21-11 17-11 21-9v8q-4 22 0 38c2 6 7 11 13 17l21 19 8 6 36 27c4 4 12 7 17 11l16 11c9 5 15 10 23 16l9 6 23 15 20 15 15 11 31 26 7-6 14-11 24-18 10-7 40-28 24-16 24-16 11-6c6-4 10-9 16-12l8-5 14-11c13-9 23-19 32-31q7-9 8-20 3-19 0-40l-1-4 1-2q1 3 5 5l18 11 8 3 35 22 18 10q17 7 33 19l6 2Z"/><path fill="#ffa704" d="M831 295q4 3 4 7l1 52 2 11-4 3-36 26-9 5-24 16-36 25-17 11-24 16-27 18-15 9-13 10-32 21-19 13-27 18-27 17-16 12-11 9-20 15-15-10q-23-19-44-33l-33-23-17-11-45-30-19-14-19-13-27-18-23-17-32-22-30-20-37-25-6-6-1-23 1-44 2-8 36 22c6 4 9 9 16 13l24 17 61 43 18 12c9 8 14 11 23 17 8 6 15 13 24 18 5 2 9 6 14 10l14 9 30 22 9 7 18 14c6 5 14 9 19 14l21 21q9 7 16 16l25-22 10-9 16-12 27-21 24-17 17-12 19-13 14-8 9-6 28-22 19-12 27-19 11-8 33-24 12-8 11-8 8-5 9-5 17-11 16-10Z"/><path fill="#fea806" d="m115 314-1 32-1 31v37l1 24-1 8 1 33 1 22-1 11v11l-1 32q-9 6-14 16l-1-2V363l5-30c2-7 4-15 12-19Z"/><path fill="#fcb30b" d="M136 453q-2 10-2 23l1 50 8 7 27 20 8 6 16 10 11 8 10 7 42 29 11 8 20 13 8 6 31 21 21 14 44 30 38 27 18 14q17 14 32 29l27-22 11-8 27-20 31-22 19-13 19-13 44-29 13-9 30-21 50-34 20-13 21-14q19-14 39-26l5-5c5-4 11-9 18-12v65q1 11-1 22l-56 39-15 11-16 10-6 4-39 27-26 18-13 10-40 26-16 11c-9 5-18 13-26 18l-46 32-24 18-42 33-6 4q-7-3-12-8l-21-16c-10-9-16-15-24-20l-8-6-33-24-30-21q-4-4-10-6l-5-4-15-11-12-9-26-17q-9-8-18-13l-31-22-17-12-21-15-12-8q-10-5-20-13l-23-17-21-15-8-6-2-34v-10l1-32v-11l1-11-1-22-1-33 1-8 10 6q6 3 12 9Z"/><path fill="#ffab09" d="m136 453 4 3 18 12 13 9 18 12c6 6 20 14 28 20l18 13 42 29 7 4 20 15 41 28 24 17 11 8 16 12 7 5c8 6 14 10 21 17l10 9 11 10 12 12 10 11 13 16 15-16c12-13 20-23 32-32l18-16 31-23 33-22 29-21 28-19 35-24 14-8 31-22 13-8 21-15 40-28 4-3 9-5 1 4v45l2 24-5 5q-20 12-39 26l-21 14-20 13-50 34-30 21-13 9-44 29-19 13-19 13-31 22-27 20-11 8-25 22-34-29-18-14-38-27-44-30-21-14-31-21-8-6-20-13-11-8-42-29-10-7-11-8-16-10-8-6-27-20-8-7-1-50q0-13 2-23Z"/><path fill="#fd9a02" d="M113 555v10l1 32 9 8 21 15 23 17q10 8 20 13l12 8 21 15 17 12 31 22q9 5 18 13l26 17 12 9 15 11 5 4q6 2 10 6l30 21 33 24 8 6c8 5 14 11 24 20l21 16 10 8 8-4 42-33 24-18 46-32c8-5 17-13 26-18l16-11 40-26 13-10 26-18 39-27 6-4 16-10 15-11 56-39 1 12 1 60-3 29c-1 7-1 10-6 14l-17 9-26 16-17 10-23 12-22 13-17 12-8 5-20 7-32 18c-5 3-8 5-8 10s-1 7 1 10l-14 8c-12-4-22-2-33 3l-25 12c-15 7-24 11-34 19-5 4-12 6-16 9l-10 7-29 16q-7 4-13 3c-10-1-22-8-31-14l-8-5c-9-4-17-8-24-13q-3-3-7-4l-21-12-17-10-28-16-20-11q-14-6-29-16l-8-4c-5-2-11-4-16-4q-2 2-1 4c3 4 7 7 10 13l-55-31-60-34-38-22-16-9-9-6c-3-4-6-9-6-14l-1-6V569v2q6-10 15-16Z"/><path fill="#f99302" d="M869 576v123l-1 10q-3 13-12 18l-20 11-50 28-19 11-8 4-26 15-26 15-50 27c-2-3-1-5-1-10s3-7 8-10l32-18 20-7 8-5 17-12 22-13 23-12 17-10 26-16 17-9c5-4 5-7 6-14l3-29-1-60-1-12q2-11 1-22l14-1 1-2Z"/><path fill="#ffa201" d="M869 576v2l-15 1v-65c-2-10-3-17-2-27v-28l2-22v-26c-2-20 0-38 0-57l-1-31v-4q-3-14-2-29c1-8-6-12-12-17l-17-10-5-4 2-16 22 13 15 8c5 3 9 6 11 12l1 9 1 35v256Z"/><path fill="#ffbb03" d="M851 290q-1 15 2 29v4l1 31-16 11-2-11-1-52q0-4-4-7l3-1 8-5 9 1Z"/><path fill="#ffc507" d="M854 354c0 19-2 37 0 57v26q-10 9-21 16l-9 5q-2-18 2-37c3-10 6-20 7-30q2-8 1-23l4-3 16-11Z"/><path fill="#ffb402" d="m854 437-2 22v28c-1 10 0 17 2 27-7 3-13 8-18 12l-2-24v-45l-1-4q11-7 21-16Z"/><path fill="#f79102" d="m643 846-29 17-27 15-37 21-42 23c-11 7-21 12-33 8l-12-5-52-30-53-30-16-9-59-33c-3-6-7-9-10-13l-1-3c7-1 13 1 18 3l8 4q15 10 29 16l20 11 28 16 17 10 21 12q4 1 7 4c7 5 15 9 24 13l8 5c9 6 21 13 31 14q6 1 13-3l29-16 10-7c4-3 11-5 16-9 10-8 19-12 34-19l25-12c11-5 21-7 33-3Z"/></svg>