<svg viewBox="0 0 106 68" fill="none" xmlns="http://www.w3.org/2000/svg">
    <!-- mortar / outer wall shape -->
    <path d="M22 2
             H84
             C87.314 2 90 4.686 90 8
             V14
             C90 16.209 91.791 18 94 18
             H100
             C103.314 18 106 20.686 106 24
             V44
             C106 47.314 103.314 50 100 50
             H94
             C91.791 50 90 51.791 90 54
             V60
             C90 63.314 87.314 66 84 66
             H22
             C18.686 66 16 63.314 16 60
             V54
             C16 51.791 14.209 50 12 50
             H6
             C2.686 50 0 47.314 0 44
             V24
             C0 20.686 2.686 18 6 18
             H12
             C14.209 18 16 16.209 16 14
             V8
             C16 4.686 18.686 2 22 2Z"
          fill="#FFCCAA"/>
  
    
  
    <!-- bricks base -->
    <g>
      <rect x="21" y="6" width="30" height="14" rx="2.5" fill="#FF6723"/>
      <rect x="55" y="6" width="30" height="14" rx="2.5" fill="#FF6723"/>
  
      <rect x="4" y="27" width="30" height="14" rx="2.5" fill="#FF6723"/>
      <rect x="38" y="27" width="30" height="14" rx="2.5" fill="#FF6723"/>
      <rect x="72" y="27" width="30" height="14" rx="2.5" fill="#FF6723"/>
  
      <rect x="21" y="48" width="30" height="14" rx="2.5" fill="#FF6723"/>
      <rect x="55" y="48" width="30" height="14" rx="2.5" fill="#FF6723"/>
    </g>
  
    <!-- brick highlights -->
    <g opacity="0.16" fill="white">
      <rect x="21" y="6" width="30" height="4.5" rx="2.5"/>
      <rect x="55" y="6" width="30" height="4.5" rx="2.5"/>
  
      <rect x="4" y="27" width="30" height="4.5" rx="2.5"/>
      <rect x="38" y="27" width="30" height="4.5" rx="2.5"/>
      <rect x="72" y="27" width="30" height="4.5" rx="2.5"/>
  
      <rect x="21" y="48" width="30" height="4.5" rx="2.5"/>
      <rect x="55" y="48" width="30" height="4.5" rx="2.5"/>
    </g>
  
    <!-- brick bottom shadows -->
    <g opacity="0.14" fill="#C94E14">
      <rect x="21" y="16.5" width="30" height="3.5" rx="1.75"/>
      <rect x="55" y="16.5" width="30" height="3.5" rx="1.75"/>
  
      <rect x="4" y="37.5" width="30" height="3.5" rx="1.75"/>
      <rect x="38" y="37.5" width="30" height="3.5" rx="1.75"/>
      <rect x="72" y="37.5" width="30" height="3.5" rx="1.75"/>
  
      <rect x="21" y="58.5" width="30" height="3.5" rx="1.75"/>
      <rect x="55" y="58.5" width="30" height="3.5" rx="1.75"/>
    </g>
  </svg>