<?xml version="1.0" encoding="UTF-8" standalone="no"?>
<!--Generator: visioncortex VTracer-->

<svg
   id="svg"
   version="1.1"
   style="display:block"
   viewBox="0 0 4542088.5 3407891.8"
   width="4542088.5"
   height="3407891.8"
   xmlns="http://www.w3.org/2000/svg"
   xmlns:svg="http://www.w3.org/2000/svg">
  <defs
     id="defs19" />
  <path
     id="path20"
     style="display:inline;fill:#decd87"
     d="m -518335.96,-105383.51 c -69.36,13.41 -128.43,84.89 -192.08,92.64 -62.8,-28.54 -117.56,-86.53 -187.65,-91.66 -62.09,29.08 -122.05,65.47 -179.77,102.53 -36.84,52.92 -9.95,125.22 -18.14,186.19 1.86,78.7 -123.08,83.09 -169.99,136.92 -33.37,61.61 -6.3,139.47 -15.03,207.54 -30.02,42.2 -100.03,62.78 -146.54,95.9 -39.54,14.79 -39.85,56.58 -37.46,91.43 v 149.78 c 37.01,66.51 123.99,85.78 184.02,128.33 2.7,67.33 -5.58,136.22 4.27,202.58 36.96,52.49 107.44,69.49 158.56,106.68 46.77,38.51 10.82,127.95 22.14,188.38 11.22,73.81 104.28,86.63 156.13,126.72 54.6,49.47 113.11,-7.56 162.84,-33.41 47.12,-38.18 92.32,-53.38 139.32,-5.08 56.75,32.52 124.05,91.35 185.2,31.3 62.52,-31.07 122.75,-101.55 184.59,-31.32 51.07,22.49 107.85,87.96 165.04,43.45 51.37,-44.12 153.39,-54.16 163.89,-130.71 v -177.59 c 55.98,-32.61 114.27,-62.28 167.63,-98.84 29.62,-30.83 13.06,-75.98 17.37,-114.4 v -107.74 c 56.07,-32.57 114.2,-62.66 167.78,-98.97 36.25,-57.5 8.54,-133.56 17.21,-198.57 7.93,-74.57 -82.08,-89.23 -128.96,-124.88 -80.14,-17.67 -51.9,-97.3 -56.04,-159.56 22.05,-77.33 -43.49,-118.81 -104.21,-146.44 -58.94,-23.54 -98.18,-54.89 -80.78,-122.2 -5.63,-56.19 22.5,-138.53 -46.4,-165.05 -60.34,-23.67 -128.14,-101.7 -189.47,-76.86 -52.93,29.73 -105.41,60.31 -157.74,91.09 -60.15,-33.02 -116.89,-77.62 -182.25,-98.18 z" />
</svg>
