<?xml version="1.0" encoding="UTF-8"?>
<svg xmlns="http://www.w3.org/2000/svg" width="232" height="236" viewBox="-20 -20 232 236">
  <path d="M39.95000076293945,189.66000366210938 L34.77000045776367,186.52999877929688 C30.40999984741211,179.5500030517578 31.209999084472656,174.6699981689453 31.56999969482422,169.22999572753906 L24.799999237060547,164.9499969482422 Q14.3100004196167,155.5500030517578 10.609999656677246,142.89999389648438 Q7.809999942779541,133.3000030517578 7.78000020980835,122.5199966430664 Q7.769999980926514,118.08999633789062 8.640000343322754,115.66000366210938 Q11.449999809265137,107.88999938964844 20.420000076293945,108.12999725341797 Q20,94.13999938964844 25.450000762939453,82.51000213623047 C28.020000457763672,77.0199966430664 34.08000183105469,72.94999694824219 40.22999954223633,74.54000091552734 Q42.439998626708984,71.04000091552734 43.13999938964844,68.27999877929688 Q44.790000915527344,61.81999969482422 48.77000045776367,54.0099983215332 Q51.34000015258789,48.959999084472656 56.0099983215332,44.310001373291016 C59.4900016784668,40.849998474121094 65.86000061035156,37.47999954223633 70.54000091552734,39.790000915527344 Q80.56999969482422,24.450000762939453 94.45999908447266,16.479999542236328 Q97.22000122070312,14.899999618530273 101.7699966430664,13.760000228881836 C109.27999877929688,11.880000114440918 115.05000305175781,15.100000381469727 117.7300033569336,22.530000686645508 Q120.23999786376953,29.440000534057617 120.66000366210938,33.59000015258789 Q121.7699966430664,44.59000015258789 120.81999969482422,54.650001525878906 C128.24000549316406,56.79999923706055 132.61000061035156,61.59000015258789 131.6300048828125,68.37000274658203 Q131.1699981689453,71.55000305175781 130.8800048828125,74.69999694824219 Q137.4600067138672,70.68000030517578 144.39999389648438,68.45999908447266 Q150.05999755859375,66.66000366210938 156.16000366210938,69.81999969482422 C158.8699951171875,69.86000061035156 161.05999755859375,68.44000244140625 162.97000122070312,68 Q169.27999877929688,66.55999755859375 173.6999969482422,67.1500015258789 C183,68.4000015258789 186.47000122070312,76.5999984741211 182.9600067138672,85.2300033569336 Q180.13999938964844,92.1500015258789 174.50999450683594,97.66000366210938 Q175.05999755859375,102.0999984741211 174.9499969482422,104.36000061035156 Q171.2100067138672,112.9800033569336 164.24000549316406,117.37999725341797 Q165,120.30999755859375 164.8000030517578,121.76000213623047 Q164.27000427246094,125.43000030517578 163.49000549316406,127.16000366210938 Q162.5,129.36000061035156 160.1199951171875,131.57000732421875 C155.5399932861328,135.80999755859375 151.64999389648438,137.57000732421875 146.60000610351562,140.16000366210938 Q144.75999450683594,144.6300048828125 144.1300048828125,145.97000122070312 C141.02999877929688,152.60000610351562 136.1300048828125,156.07000732421875 129.8699951171875,159.82000732421875 C119.63999938964844,165.9499969482422 107.12000274658203,168.8800048828125 95.26000213623047,169.72000122070312 C85.80999755859375,170.38999938964844 75.6500015258789,173.02999877929688 67.5,172.86000061035156 Q66.4000015258789,177.47000122070312 64.58000183105469,183.88999938964844 C62.25,192.11000061035156 54.72999954223633,191.0500030517578 47.02000045776367,190.9199981689453 C45,190.8800048828125 43.08000183105469,189.8800048828125 41.27000045776367,189.99000549316406 Z M139.42999267578125,96.2699966430664 C147.22000122070312,95.11000061035156 150.11000061035156,85.79000091552734 149.9600067138672,78.86000061035156 L136.89999389648438,81.8499984741211 Q139.74000549316406,89.23999786376953 138.7899932861328,95.62000274658203 Z M164.47999572753906,101.13999938964844 C162.6999969482422,99.80999755859375 160.41000366210938,99.81999969482422 158.60000610351562,99.51000213623047 Q146.44000244140625,97.48999786376953 138.39999389648438,105.6500015258789 Q137.6699981689453,106.38999938964844 137.49000549316406,106.95999908447266 Q146.2100067138672,109.33000183105469 153.02999877929688,112.41000366210938 Q161.25,108.01000213623047 164.75,102.63999938964844 Z M22.770000457763672,145.32000732421875 Q24.989999771118164,151.8000030517578 30.31999969482422,156.27999877929688 Q37.290000915527344,162.16000366210938 45.47999954223633,157.22999572753906 Q49.349998474121094,154.89999389648438 50.119998931884766,149.6699981689453 C51.70000076293945,139.27999877929688 47.099998474121094,131.8000030517578 39.400001525878906,124.80000305175781 Q34.209999084472656,120.08000183105469 27.190000534057617,117.83000183105469 C21.59000015258789,116.04000091552734 17.8700008392334,116 18.190000534057617,123.25 C18.5,130.36000061035156 19.540000915527344,139 22.770000457763672,145.32000732421875 Z M44.20000076293945,164.2899932861328 Q42.529998779296875,169.27000427246094 42.68000030517578,175.1699981689453 C42.75,178.0500030517578 42.56999969482422,180.42999267578125 45.36000061035156,181.35000610351562 Q48.58000183105469,182.41000366210938 52.08000183105469,182.8699951171875 L54.849998474121094,169.92999267578125 Q55.779998779296875,164.27999877929688 51.779998779296875,159.4600067138672 L44.20000076293945,164.2899932861328 Z" fill="#093247" />
  <path d="M109.9000015258789,34.43000030517578 Q106.94999694824219,33.52000045776367 106.29000091552734,27.34000015258789 Q101.56999969482422,30.780000686645508 98.93000030517578,34.970001220703125 C96.19000244140625,39.34000015258789 92.80999755859375,43.310001373291016 90.77999877929688,46.83000183105469 L87.31999969482422,54.70000076293945 L85.08999633789062,66.18000030517578 C81.83999633789062,58.06999969482422 77.77999877929688,52 82.33999633789062,43.369998931884766 Q90.08999633789062,28.709999084472656 104.16000366210938,22.280000686645508 Q109.33000183105469,28.059999465942383 109.9000015258789,34.43000030517578 Z" fill="#fef35e" />
  <path d="M109.9000015258789,34.43000030517578 Q111.86000061035156,43.7599983215332 109.12999725341797,53.619998931884766 Q108.62999725341797,55.439998626708984 107.19999694824219,57.029998779296875 L87.04000091552734,69.23999786376953 L85.08999633789062,66.18000030517578 L87.18000030517578,55.130001068115234 L90.70999908447266,46.97999954223633 C92.80999755859375,43.310001373291016 96.19000244140625,39.34000015258789 98.93000030517578,34.970001220703125 Q101.56999969482422,30.780000686645508 105.0199966430664,26.93000030517578 Q106.94999694824219,33.52000045776367 109.9000015258789,34.43000030517578 Z" fill="#fed109" />
  <path d="M75.58000183105469,86.7300033569336 Q76.2699966430664,82.80999755859375 76.3499984741211,80.13999938964844 Q76.44999694824219,76.76000213623047 73.83999633789062,74.47000122070312 L66.43000030517578,61.68000030517578 L65.58999633789062,58.33000183105469 Q62.689998626708984,64.33999633789062 60.41999816894531,75.38999938964844 Q59.119998931884766,81.72000122070312 59.91999816894531,88.93000030517578 Q55.90999984741211,84.7300033569336 52.650001525878906,80.83000183105469 Q52.02000045776367,80.08999633789062 52.220001220703125,77.66999816894531 C52.90999984741211,69.19999694824219 55.61000061035156,60.970001220703125 59.959999084472656,54.290000915527344 Q62.029998779296875,51.119998931884766 64.4000015258789,49.40999984741211 Q77.55999755859375,61.040000915527344 79.55999755859375,75.95999908447266 C80,79.30000305175781 77.01000213623047,83.75 75.58000183105469,86.7300033569336 Z" fill="#fef35e" />
  <path d="M75.58000183105469,86.7300033569336 Q72.94000244140625,92.41999816894531 71.7699966430664,98.55000305175781 Q67.87000274658203,99.27999877929688 66.75,97.73999786376953 Q63.279998779296875,92.94000244140625 59.91999816894531,88.93000030517578 Q59.119998931884766,81.72000122070312 60.41999816894531,75.38999938964844 Q62.689998626708984,64.33999633789062 64.41000366210938,58.279998779296875 L66.05000305175781,60.66999816894531 L73.30000305175781,73.80999755859375 Q76.44999694824219,76.76000213623047 76.3499984741211,80.13999938964844 Q76.2699966430664,82.80999755859375 75.58000183105469,86.7300033569336 Z" fill="#fed109" />
  <path d="M120.91000366210938,69.7699966430664 Q119.95999908447266,69.83999633789062 118.44999694824219,71.91999816894531 Q112.13999938964844,72.9800033569336 106.02999877929688,74.3499984741211 C98.69000244140625,76 91.73999786376953,81.29000091552734 86.41999816894531,86.93000030517578 Q84.04000091552734,91.72000122070312 80.70999908447266,91.29000091552734 Q85.13999938964844,77.23999786376953 97.44000244140625,70.37999725341797 C104.27999877929688,66.56999969482422 112.20999908447266,65.69000244140625 119.94000244140625,64.98999786376953 L120.91000366210938,69.7699966430664 Z" fill="#fef35e" />
  <path d="M120.91000366210938,69.7699966430664 Q119.41000366210938,80.93000030517578 112.66000366210938,89.1500015258789 C110.62999725341797,91.62000274658203 108.02999877929688,92.05000305175781 104.52999877929688,92.13999938964844 Q91.18000030517578,92.48999786376953 79.30999755859375,98.44999694824219 L80.70999908447266,91.29000091552734 Q84.04000091552734,91.72000122070312 85.87000274658203,87.73999786376953 C91.73999786376953,81.29000091552734 98.69000244140625,76 106.02999877929688,74.3499984741211 Q112.13999938964844,72.9800033569336 117.91999816894531,72.2300033569336 Q119.95999908447266,69.83999633789062 120.91000366210938,69.7699966430664 Z" fill="#fed109" />
  <path d="M174.5800018310547,82.25 Q169.6300048828125,82.16999816894531 167.1699981689453,83.37000274658203 Q160.4499969482422,86.63999938964844 153.49000549316406,89.3499984741211 Q154.97999572753906,85.31999969482422 156,81.23999786376953 C156.63999938964844,78.70999908447266 157.5,78.19999694824219 159.75999450683594,77.55999755859375 Q166.3800048828125,75.69999694824219 174.1199951171875,76.0999984741211 Q175.47999572753906,79.75 174.5800018310547,82.25 Z" fill="#fef35e" />
  <path d="M138.7899932861328,95.62000274658203 Q139.74000549316406,89.23999786376953 136.22999572753906,84.27999877929688 L147.2899932861328,77.18000030517578 C150.11000061035156,85.79000091552734 147.22000122070312,95.11000061035156 139.42999267578125,96.2699966430664 Z" fill="#fde837" />
  <path d="M174.5800018310547,82.25 Q171.2899932861328,89.13999938964844 165.22999572753906,94.22000122070312 L152.22000122070312,93.55000305175781 Q152.27000427246094,91.08999633789062 153.49000549316406,89.3499984741211 Q160.4499969482422,86.63999938964844 167.1699981689453,83.37000274658203 Q169.6300048828125,82.16999816894531 174.5800018310547,82.25 Z" fill="#fed109" />
  <path d="M61.13999938964844,119.97000122070312 Q59.22999954223633,116.95999908447266 54.90999984741211,108.36000061035156 Q51.849998474121094,102.26000213623047 44.70000076293945,96.80999755859375 Q40.90999984741211,93.91999816894531 38.84000015258789,92.2300033569336 L36.959999084472656,102.70999908447266 Q37.97999954223633,108.69999694824219 37.709999084472656,114.06999969482422 C32.09000015258789,110.83999633789062 31.8799991607666,106.44999694824219 31.950000762939453,99.93000030517578 Q32.040000915527344,91.81999969482422 35.43000030517578,84.4800033569336 Q44.06999969482422,85.20999908447266 49.060001373291016,89.44000244140625 C58.65999984741211,97.55000305175781 64.29000091552734,107.36000061035156 61.13999938964844,119.97000122070312 Z" fill="#fef35e" />
  <path d="M125.20999908447266,107.19000244140625 Q125.0999984741211,104.66000366210938 123.0999984741211,103.12000274658203 C120.63999938964844,101.22000122070312 118.93000030517578,97.79000091552734 118.29000091552734,95.5199966430664 Q120.54000091552734,89.68000030517578 126.33999633789062,86.86000061035156 C131.60000610351562,84.30999755859375 133.30999755859375,88.4800033569336 133.69000244140625,92.68000030517578 Q134.11000061035156,97.33999633789062 131.00999450683594,105 Q127.7699966430664,107.6500015258789 126.1500015258789,107.94000244140625 Z" fill="#fed109" />
  <path d="M61.13999938964844,119.97000122070312 L58.189998626708984,133.77000427246094 Q49.060001373291016,121.62000274658203 37.709999084472656,114.06999969482422 Q37.97999954223633,108.69999694824219 37.02000045776367,103.6500015258789 L37.61000061035156,92.76000213623047 Q40.90999984741211,93.91999816894531 44.70000076293945,96.80999755859375 Q51.849998474121094,102.26000213623047 54.90999984741211,108.36000061035156 Q59.22999954223633,116.95999908447266 61.13999938964844,119.97000122070312 Z" fill="#fed109" />
  <path d="M112.68000030517578,106.45999908447266 Q105.48999786376953,105.04000091552734 97.2300033569336,106.73999786376953 Q86.93000030517578,108.87000274658203 79.37999725341797,114.7699966430664 C77.73999786376953,116.05000305175781 76.87000274658203,117.87999725341797 75.43000030517578,119.05000305175781 Q70.87000274658203,119 67.66000366210938,121.36000061035156 Q68.83999633789062,117.9000015258789 70.27999877929688,115.7699966430664 Q81.55999755859375,99.13999938964844 102.2699966430664,99.06999969482422 C105.7699966430664,99.05999755859375 109.30999755859375,98.66000366210938 111.66999816894531,101.58999633789062 Q113.33000183105469,103.6500015258789 112.68000030517578,106.45999908447266 Z" fill="#fef35e" />
  <path d="M164.47999572753906,101.13999938964844 Q161.25,108.01000213623047 156.19000244140625,112.0199966430664 Q146.2100067138672,109.33000183105469 138.3000030517578,108.26000213623047 Q137.6699981689453,106.38999938964844 138.39999389648438,105.6500015258789 Q146.44000244140625,97.48999786376953 158.60000610351562,99.51000213623047 C160.41000366210938,99.81999969482422 162.6999969482422,99.80999755859375 164.47999572753906,101.13999938964844 Z" fill="#fde837" />
  <path d="M112.68000030517578,106.45999908447266 Q109.91000366210938,116.05999755859375 102.48999786376953,122.2300033569336 Q100.97000122070312,123.5 96.22000122070312,123.55000305175781 Q86.7699966430664,123.63999938964844 79.2300033569336,125.79000091552734 Q74.5199966430664,127.13999938964844 66.45999908447266,130.49000549316406 L67.66000366210938,121.36000061035156 Q70.87000274658203,119 74.4800033569336,119.33000183105469 C76.87000274658203,117.87999725341797 77.73999786376953,116.05000305175781 79.37999725341797,114.7699966430664 Q86.93000030517578,108.87000274658203 97.2300033569336,106.73999786376953 Q105.48999786376953,105.04000091552734 112.68000030517578,106.45999908447266 Z" fill="#fed109" />
  <path d="M153.02000427246094,121.81999969482422 C150.5500030517578,121.5999984741211 148.1999969482422,120.58999633789062 145.9199981689453,120.29000091552734 C137.25,119.12999725341797 129.3000030517578,117.05000305175781 121.80000305175781,122.86000061035156 L118.29000091552734,123.27999877929688 C118.0999984741211,119.02999877929688 125.81999969482422,115.30999755859375 129.17999267578125,114.23999786376953 C138.38999938964844,111.33000183105469 147.17999267578125,113.94999694824219 153.02000427246094,121.81999969482422 Z" fill="#fef35e" />
  <path d="M50.119998931884766,149.6699981689453 L44.45000076293945,145.1999969482422 C42.91999816894531,142.77000427246094 42.0099983215332,140.52000427246094 40.720001220703125,138.75 Q33.93000030517578,129.42999267578125 24.139999389648438,124.8499984741211 L23.600000381469727,136.72999572753906 L25.600000381469727,144.86000061035156 Q25.3799991607666,145.5 25.389999389648438,145 Q25.420000076293945,143.94000244140625 25.200000762939453,143.16000366210938 Q24.229999542236328,144.75999450683594 22.770000457763672,145.32000732421875 C19.540000915527344,139 18.5,130.36000061035156 18.190000534057617,123.25 C17.8700008392334,116 21.59000015258789,116.04000091552734 27.190000534057617,117.83000183105469 Q34.209999084472656,120.08000183105469 39.400001525878906,124.80000305175781 C47.099998474121094,131.8000030517578 51.70000076293945,139.27999877929688 50.119998931884766,149.6699981689453 Z" fill="#fef35e" />
  <path d="M153.02000427246094,121.81999969482422 Q153.72999572753906,122.12000274658203 153.8699951171875,122.5199966430664 C147.1999969482422,127.80999755859375 137.80999755859375,130.7899932861328 131.14999389648438,128.8300018310547 C127.37000274658203,127.7300033569336 123.83000183105469,125.9000015258789 119.19000244140625,125.58000183105469 Q117.61000061035156,125.47000122070312 118.29000091552734,123.27999877929688 L119.33999633789062,123.47000122070312 C129.3000030517578,117.05000305175781 137.25,119.12999725341797 145.9199981689453,120.29000091552734 C148.1999969482422,120.58999633789062 150.5500030517578,121.5999984741211 153.02000427246094,121.81999969482422 Z" fill="#fed109" />
  <path d="M50.119998931884766,149.6699981689453 Q49.349998474121094,154.89999389648438 45.47999954223633,157.22999572753906 Q37.290000915527344,162.16000366210938 30.31999969482422,156.27999877929688 Q25.760000228881836,143.83999633789062 23.440000534057617,131.7899932861328 Q23.170000076293945,131.8699951171875 23.18000030517578,131.99000549316406 Q23.3799991607666,134.33999633789062 23.600000381469727,136.72999572753906 L23,125.62000274658203 Q33.93000030517578,129.42999267578125 40.720001220703125,138.75 C42.0099983215332,140.52000427246094 42.91999816894531,142.77000427246094 44.09000015258789,144.7899932861328 L50.119998931884766,149.6699981689453 Z" fill="#fed109" />
  <path d="M103.9000015258789,134 L59.18000030517578,148.02000427246094 Q60.439998626708984,141.11000061035156 67.27999877929688,137.52000427246094 Q77.62999725341797,132.0800018310547 89.25,130.39999389648438 Q92.94999694824219,129.86000061035156 97.77999877929688,130.4600067138672 Q102.54000091552734,131.0399932861328 103.9000015258789,134 Z" fill="#fef35e" />
  <path d="M30.31999969482422,156.27999877929688 Q24.989999771118164,151.8000030517578 22.770000457763672,145.32000732421875 Q24.229999542236328,144.75999450683594 24.700000762939453,143.16000366210938 Q25.420000076293945,143.94000244140625 25.389999389648438,145 Q25.3799991607666,145.5 25.56999969482422,145.10000610351562 L23.600000381469727,136.72999572753906 Q23.3799991607666,134.33999633789062 23.18000030517578,131.99000549316406 Q23.170000076293945,131.8699951171875 23.280000686645508,131.75 Q25.760000228881836,143.83999633789062 30.31999969482422,156.27999877929688 Z" fill="#fde837" />
  <path d="M133.50999450683594,138.02000427246094 Q126.62999725341797,138.94000244140625 119.73999786376953,138.05999755859375 C122.72000122070312,137.72000122070312 125.94999694824219,138.0500030517578 128.8800048828125,137.8699951171875 C125.47000122070312,137.6300048828125 122.37000274658203,137.32000732421875 118.83000183105469,137.60000610351562 Q115.77999877929688,137.83999633789062 113.7699966430664,137.39999389648438 Q112.41000366210938,140.38999938964844 112.63999938964844,142.47000122070312 Q110.38999938964844,144.7899932861328 107.76000213623047,145.25999450683594 Q111.81999969482422,139.25 112.44000244140625,132.4199981689453 C120.88999938964844,131.9499969482422 127.27999877929688,132.38999938964844 133.50999450683594,138.02000427246094 Z" fill="#fef35e" />
  <path d="M103.9000015258789,134 Q103.70999908447266,136.69000244140625 102.69999694824219,138.9600067138672 Q100.98999786376953,142.7899932861328 98.05000305175781,146.2899932861328 Q87.05999755859375,159.3300018310547 70.30999755859375,162.25999450683594 Q63.45000076293945,163.4600067138672 60.52000045776367,157.32000732421875 L59.18000030517578,148.02000427246094 L103.9000015258789,134 Z" fill="#fed109" />
  <path d="M133.50999450683594,138.02000427246094 Q134.92999267578125,138.75 135.50999450683594,139.89999389648438 C130.08999633789062,148.72999572753906 120.41000366210938,154.11000061035156 111.73999786376953,155.49000549316406 Q105.01000213623047,156.55999755859375 98.55000305175781,156.8800048828125 Q104.2300033569336,151.47999572753906 107.76000213623047,145.25999450683594 Q110.38999938964844,144.7899932861328 112.2699966430664,143.33999633789062 Q112.41000366210938,140.38999938964844 113.11000061035156,137.8000030517578 Q115.77999877929688,137.83999633789062 118.83000183105469,137.60000610351562 C122.37000274658203,137.32000732421875 125.47000122070312,137.6300048828125 128.8800048828125,137.8699951171875 C125.94999694824219,138.0500030517578 122.72000122070312,137.72000122070312 119.7699966430664,137.66000366210938 Q126.62999725341797,138.94000244140625 133.50999450683594,138.02000427246094 Z" fill="#fed109" />
  <path d="M54.849998474121094,169.92999267578125 Q51.27000045776367,165.1300048828125 44.20000076293945,164.2899932861328 L50.18000030517578,159.30999755859375 Q55.779998779296875,164.27999877929688 54.849998474121094,169.92999267578125 Z" fill="#fde837" />
  <path d="M44.20000076293945,164.2899932861328 Q51.27000045776367,165.1300048828125 54.849998474121094,169.92999267578125 L53.7599983215332,181.52000427246094 Q48.58000183105469,182.41000366210938 45.36000061035156,181.35000610351562 C42.56999969482422,180.42999267578125 42.75,178.0500030517578 42.68000030517578,175.1699981689453 Q42.529998779296875,169.27000427246094 44.20000076293945,164.2899932861328 Z" fill="#fed109" />
  <path d="M138.7899932861328,95.62000274658203 Q139.74000549316406,89.23999786376953 136.22999572753906,84.27999877929688 L147.2899932861328,77.18000030517578 C150.11000061035156,85.79000091552734 147.22000122070312,95.11000061035156 139.42999267578125,96.2699966430664 Z" fill="#fef35e" />
  <path d="M164.47999572753906,101.13999938964844 Q161.25,108.01000213623047 156.19000244140625,112.0199966430664 Q146.2100067138672,109.33000183105469 138.3000030517578,108.26000213623047 Q137.6699981689453,106.38999938964844 138.39999389648438,105.6500015258789 Q146.44000244140625,97.48999786376953 158.60000610351562,99.51000213623047 C160.41000366210938,99.81999969482422 162.6999969482422,99.80999755859375 164.47999572753906,101.13999938964844 Z" fill="#fef35e" />
  <path d="M50.119998931884766,149.6699981689453 L44.45000076293945,145.1999969482422 C42.939998626708984,142.80999755859375 42,140.55999755859375 40.720001220703125,138.75999450683594 Q34.209999084472656,129.6999969482422 24.200000762939453,124.8499984741211 Q22.59000015258789,131.11000061035156 23.6200008392334,136.61000061035156 L23.649999618530273,136.6199951171875 Q22.959999084472656,134.13999938964844 23.309999465942383,131.6699981689453 Q25.81999969482422,143.75 30.260000228881836,156.32000732421875 Q22.700000762939453,149.00999450683594 20.309999465942383,138.8300018310547 Q19.1200008392334,133.75999450683594 18.170000076293945,124.5 Q17.8700008392334,121.54000091552734 18.979999542236328,118.51000213623047 C27.920000076293945,117.0199966430664 34.83000183105469,120.63999938964844 39.400001525878906,124.80000305175781 C47.099998474121094,131.80999755859375 51.70000076293945,139.27000427246094 50.119998931884766,149.6699981689453 Z" fill="#fef35e" />
  <path d="M50.119998931884766,149.6699981689453 Q49.36000061035156,154.8800048828125 45.47999954223633,157.22999572753906 Q37.439998626708984,162.11000061035156 30.260000228881836,156.32000732421875 Q25.81999969482422,143.75 23.3700008392334,131.6699981689453 Q22.959999084472656,134.13999938964844 23.670000076293945,136.60000610351562 L23.639999389648438,136.6300048828125 Q22.59000015258789,131.11000061035156 22.979999542236328,125.55999755859375 Q34.209999084472656,129.6999969482422 40.720001220703125,138.75999450683594 C42,140.55999755859375 42.939998626708984,142.80999755859375 44.09000015258789,144.7899932861328 L50.119998931884766,149.6699981689453 Z" fill="#fed109" />
  <path d="M98.43000030517578,156.83999633789062 Q107.76000213623047,148.66000366210938 111.81999969482422,136.66000366210938 L112.29000091552734,132.72999572753906 C122.94000244140625,131.94000244140625 128.8300018310547,133.1300048828125 135.4499969482422,139.6699981689453 Q127.05999755859375,152.2899932861328 112.7300033569336,155.24000549316406 Q105.27999877929688,156.77000427246094 98.43000030517578,156.83999633789062 Z" fill="#fef35e" />
  <path d="M127.91999816894531,139.72999572753906 L123.5199966430664,140.42999267578125 L123.33999633789062,140.6999969482422 L132.6699981689453,140.66000366210938 C124.58999633789062,150.99000549316406 115.48999786376953,153.66000366210938 102.93000030517578,154.83999633789062 Q107.9800033569336,147.77999877929688 112.88999938964844,143.7899932861328 Q113.31999969482422,143.44000244140625 114.63999938964844,140.86000061035156 L111.43000030517578,143.36000061035156 C111.29000091552734,142.69000244140625 113,141.69000244140625 113.6500015258789,140.9499969482422 Q120.97000122070312,139.27999877929688 127.9000015258789,139.4499969482422 Z" fill="#fed109" />
  <path d="M54.849998474121094,169.92999267578125 Q51.27000045776367,165.1300048828125 44.20000076293945,164.2899932861328 L50.18000030517578,159.30999755859375 Q55.779998779296875,164.27999877929688 54.849998474121094,169.92999267578125 Z" fill="#fef35e" />
</svg>