<svg xmlns="http://www.w3.org/2000/svg" viewBox="-20 -20 268 334">
  <path fill="#35440c" d="m62.3 109.8 6.5-6.8c-3-6.6-5.6-9.4-4.2-15.5a39.3 39.3 0 0 1 10.6-17.6l11.2-12c5.3-5.6 11-16.6 14-21 4.3-6.3 10.2-11.8 18-7.4 2.5 1.3 5 4.8 6.6 7L136.4 53c4.8 6.7 10.6 13 16 19 3.9 4.5 7.3 9.6 9 14.4q1.7 4.8-.6 10.9c-2 2.1-4.8 4.3-2.7 6.4 5.6 5.6 10 9.4 14.2 14.5 5.8 7 8.8 10.2 11.2 17.7 2.6 8.3-1 16.7-7.8 22 4.6 5.6 9.6 10.1 13 15.3q4 6.3 6.2 12.7c1.7 5 .3 10.4-1.6 15.5-3 8-15 14.3-22.3 16.2q-3.6 1-12.2 1.6-6 .5-11.6-.6-6.6-1.4-11.4-2.8 1.2 16.9 3 28.7 1 5.8-2.8 10.4-2.7 3.4-9.7 5a47.8 47.8 0 0 1-30.2-1.6c-9.2-4-8.2-11.5-7-20.7l3-19.7-7.7.1c-7.3.9-9.7 1.4-15.4 1.4q-9.3-.1-19.9-4.6-14-5.9-16.8-20.7-.8-4.4-.4-6.2 2-11.4 10.5-20.2 5.9-6 8.6-8.4c-4.5-6.4-7.5-10.7-7.9-17.2 1.5-8.6 2-12.1 5.9-17.5q3.3-4.6 9.6-11.4 1-1 1.5-1.2 1-.4 1-1 0-.7 1-1Z"/>
  <path fill="#759628" d="M156 81.7c1.5 2.5 2.4 6.7 2 9.9-.9 8.6-7.7 11.1-15.7 11q-13-.3-24-7.2c-6 .1-10.1 1.5-15 3.6q-5.8 2.6-8 2.8c-5.8.7-11.5 1.4-16.1.6Q72.2 101 69 94c-1-2.4-1.5-3.2-.7-5.7a56 56 0 0 1 17.2-23q3-2.7 7.8-9.7 3.1-4.4 10.6-15.7l2.4-3.1c3.5-4.3 6.5-7.7 11.5-2Q123.6 41 127 46l4 6.5q2.6 4.3 7.5 9 2.6 2.3 3.7 3.8c2.7 3.4 5.5 6.5 9 10.2q3.7 4 4.9 6.2Z"/>
  <path fill="#759628" d="m73.7 103.2 7.4 2.1c4.5.9 10.6.5 14.8.2q9.2-.7 17.9-5.6 3.3.4 9 3.2a37 37 0 0 0 24 2.8l6.1-3c5.5 5.9 10.4 12.3 16 18q2.7 2.6 6.8 7.2c4.2 4.6 4.1 9.2 3.8 15.5-.3 5.7-2.3 10-7.9 13a52.9 52.9 0 0 1-24.5 4.2q-5-.1-13.4-2.7-9.5-2.9-16.9-6.3-3 .3-12.2 3.3-11.8 3.8-24 4.9a38 38 0 0 1-22.9-4.4q-6.2-3.6-9.8-12 .4-11.4 5.4-17.8 4-5 17.3-18.7 1-1 2.3-3.6Z"/>
  <path fill="#759628" d="M55.1 160.4q3 .3 3.7.6c8.7 3.1 19.1 4 27.6 3.4q5.5-.4 12.3-2.7 8-2.7 16-5.7 4.9.5 11 3.7a47.3 47.3 0 0 0 19.9 4.9q9.6 0 16.3-1.2l7.4-3.6q8.4 7.3 15.4 14 9.2 9 6 21.9-1 3.8-2.9 6.1c-5.8 7.6-11.3 12-21.1 12.3-2.5.1-5.2.5-8 .6q-15.7.3-33.8-6.2-7.2-2.6-8.2-3.4-5-.5-8.8 1.8l-6.6 1.9-6.6 3q-7 .8-10.2 1.4-3.8.7-9 .7-8 0-14.2-.3-3-.2-8.7-1.7c-6.8-4.4-13.2-7-15-14.3-1.2-4.7-2.1-9.7-.2-13.7 2.2-4.6 3.7-8.7 7.3-12.6l9.4-10.5Z"/>
  <path fill="#90b534" d="M117.5 34.5c-.5 14.4.5 27.9-11.1 38.2-9 8-21.3 13.8-33 11.5L71.6 81c5.4-8.9 14-14.6 20-23q4.7-6.7 12-17.8l2.5-3.3c3.3-3.9 6.4-7.9 11.3-2.3Z"/>
  <path fill="#759628" d="m125.7 44.3 3.4 6.1q.8 7.3 3.7 11 7.3 9.5 10 17.3c3.3 9.8-2.7 15.9-12.3 15.4q-20.3-1-39.8.8c-8.3.7-18 .1-21.5-8.9q.8-2.7 2.5-5l1 2.7c12.4 2.8 24.7-3 33.7-11 11.6-10.3 10.6-23.8 11-38.2l8.3 9.8Z"/>
  <path fill="#5e7a1f" d="M69.2 86c3.5 9 13.2 9.6 21.5 8.9q19.5-1.8 39.8-.8c9.6.5 15.6-5.6 12.3-15.4q-2.7-7.8-10-17.3-2.9-3.7-3.4-10l-3.7-7.1q2 2.6 3.7 5.4 2 3.6 3.5 5.5 3.4 4.3 5.6 6.2c2.9 2.4 4.4 4.8 7.2 8.1 3.4 4 7.8 8 10.2 12q1.4 2.2 2 6c1.5 8-3.2 14.1-11.6 14.9q-14.6 1.2-28.1-7c-6.5.1-12 2.2-16.9 4.4-6 2.9-14.3 3.2-20.8 2.7A12.9 12.9 0 0 1 69.2 86Z"/>
  <path fill="#5e7a1f" d="M48.8 135.6q-.6 5.5.4 8.5c1.9 5.3 9.1 6 13.6 7.3 8.6 2.4 18 2.3 26.2.3q11.8-3 18.7-4.2c8-1.5 13-1.9 19.7.2a44 44 0 0 0 23.2 1.5q7.5-1.6 11.4-9 .6-9.3-4.6-18.4c-5.7-10.1-14.2-12.3-24.9-13.5q-6.6-.8-8.2-1.2a40.7 40.7 0 0 0-15.4-2.4c-8 1.2-15.6 2.4-23.8 2-4.3-.3-8.2-1.5-12.3-2.7q-.1-.6.5-1 7.7 3.2 16.8 2.7c7-.4 9.6-.3 15.3-2.1q3.3-1.1 10.1-4a42 42 0 0 0 31.3 6.3l6.1-3c5.5 5.9 10.4 12.3 16 18q2.7 2.6 6.8 7.2c4.2 4.6 4.1 9.2 3.8 15.5-.3 5.7-2.3 10-7.9 13a52.8 52.8 0 0 1-24.5 4.2q-5.1-.1-13.3-2.6-9.5-3-16-6-1.4-.6-3-.3l-3 .8q-11 4-22.3 6.2a47 47 0 0 1-31.1-2.9q-4.6-2.5-8.3-7.9-3.4-5-1.3-12.5Z"/>
  <path fill="#759628" d="M48.8 135.6q-.3.3 0-.2c4.7 10.5 23.3 8.7 32.2 7.5q10.4-1.3 18.8-4.6 7.7-3 16.1-9.4c3.8-2.8 6.2-5.9 7.9-9.8q-6.2-5.7-12.1-8.2c-7-3-12.1-1-21.4.8q-7.1 1.4-15.6-.8-1.3-.3-2.8-2.9l-2.6.5 3.5-4.5c4 1.3 8 2.4 12.3 2.7 8.2.4 15.7-.8 23.8-2 4.6-.7 11 1 15.4 2.4q1.6.4 8.2 1.2c10.7 1.2 19.2 3.4 25 13.5q5.1 9 4.7 17.2-4.1 8.6-11.6 10.2a44 44 0 0 1-23.2-1.5 36.3 36.3 0 0 0-19.7-.2q-6.9 1.3-18.7 4.2c-8.2 2-17.6 2.1-26.2-.3-4.5-1.4-11.7-2-13.6-7.3q-1-3-.4-8.5Z"/>
  <path fill="#90b534" d="M48.8 135.4Q50 129.6 54 125q7.3-8.6 15.3-16.5l1.7-.8q2.4 2.9 3.7 3.2 8.5 2.2 15.6.8c9.3-1.8 14.4-3.8 21.4-.8q6 2.5 11.4 6a17 17 0 0 1-7.2 12q-8.4 6.3-16.1 9.4-8.4 3.3-18.8 4.6c-9 1.2-27.5 3-32.2-7.5Z"/>
  <path fill="#5e7a1f" d="M37.7 183.2q-.7 5.1.3 10c11.3 9.4 29.5 11 42.3 9.6q9.8-1 35-6.4c3.6 0 7 .3 10.2 1.3a59 59 0 0 0 34 1.7c8.4-2.4 16.2-7 13-17q-2.6-8.3-10.1-11.3-1.2-.4-5.7-.8c-7-.7-15-3.5-23-5l-13.4-2.6c-5.5-1.1-9.2 1-14.4 2.9q-4.2 1.5-10 1.1L73 165.3q-4-.2-9.6-2.4a79.1 79.1 0 0 0 30.2.3q3-.7 18-6c3.5-1.2 7.6-.7 11.5 1.3a52.1 52.1 0 0 0 21 6q9.6.2 17.4-1 5.9-2.9 8-3.7 1.8-.8 3.3 1.1 4.3 5.6 10.4 11.4 3.1 3 5.2 6.2 2.2 3.3 2.8 7.5 1.8 11.4-7.7 20.8-6.4 6.4-14.2 7.2-19 2-35.6-2.6-8.2-2.4-17.2-6.2c-1.5-.6-4.8-.1-6.7.7-3.7 1.7-7.8 2.4-11.6 4.2q-3.6 1.7-5.1 1.9c-7.1.9-12.1 1.9-18.8 1.9q-8.8 0-14.7-.5-7-.7-13.4-5.4c-4.2-3-6.5-4.5-8-8.5-1.9-4.8-2.9-11.4-.6-16.3Z"/>
  <path fill="#759628" d="M63.5 163q5.6 2.1 9.6 2.3l22.7 1.4q6 .4 10-1.1c5.3-2 9-4 14.5-3q6.7 1.5 13.5 2.7c8 1.5 15.8 4.3 23 5q4.4.4 5.6.8 7.5 3 10.2 11.3c3.1 10-4.7 14.6-13 17a58.7 58.7 0 0 1-34-1.7c-3.3-1-6.7-1.2-9.4-1.3q-26.1 5.4-35.9 6.4c-12.8 1.3-31-.2-41.8-8.7q-1.5-5.8-.8-10.9.6-.9.8-2 3.3 8.4 13.2 10.5 8.4 1.8 16.8 1.4c14.5-.8 28.3-3.2 41.5-9q4.4-2 11-8.5-2-3.8-6.3-4.6c-7.8-1.4-13-2.4-20.5-1q-12 2.2-24.4 1-6.3-.7-8.2-1.6-6-2.6-11.7-3.5l4.7-5.5c3.6-.7 6.4 1.4 9 2.5Z"/>
  <path fill="#90b534" d="M38.5 181.2q3.7-8.5 11.4-15.3 5.8 1 11.7 3.5 2 .9 8.2 1.5 12.4 1.3 24.4-.9c7.5-1.4 12.7-.4 20.5 1q4.3.8 6.4 3.9-6.7 7.2-11 9.2a118.4 118.4 0 0 1-41.6 9q-8.4.4-16.8-1.4-10-2-13.2-10.5Z"/>
  <path fill="#744920" d="M92.4 249.7q0-9.8 3-20.6.8-2.8.7-5c-.3-4.6-.6-9.4 4.8-11.2 6.4-2 10.9-3.8 17.2-2.3 5 1.3 9.8 2.3 14.6 4.1v1q-1 8.9.4 14 2.1 8 2.4 14.6c.3 5.6-2.3 8-7.5 10.2-6.1 2.7-9 4.4-14.4 3.5l-8.4-1.3q-4.6-.7-7-2-3.3-1.7-5.5-4Z"/>
</svg>