<?xml version="1.0" encoding="UTF-8" standalone="no"?>
<svg
   width="745.43811"
   height="872.34717"
   viewBox="-20 -20 745.43811 872.34717"
   version="1.1"
   id="svg36"
   xmlns="http://www.w3.org/2000/svg"
   xmlns:svg="http://www.w3.org/2000/svg">
  <defs
     id="defs36" />
  <path
     id="path2"
     d="m 353.35805,-20.000001 c -1.52667,0.46 -3.57397,1.32318 -6.14062,2.58984 -1.62667,0.80667 -3.32628,2.16055 -5.09961,4.06055 -1.30666,1.39333 -5.00006,4.9766707 -11.08008,10.7500007 -2.43997,2.31999996 -4.87039,5.89859 -7.15039,8.5586 -11.88001,13.8799893 -21.55597,28.6330893 -29.0293,44.2597593 -5.63332,11.78 -10.00466,24.34474 -13.11133,37.69141 -1.64999,7.1 -2.44967,14.449221 -3.42968,21.449221 -0.2,1.42666 -0.68877,3.89371 -1.46876,7.40039 -5.90667,-2.16001 -12.08148,-3.73094 -18.52148,-4.71094 -12.15332,-1.84 -23.69246,-2.98302 -34.61914,-3.42969 -4.39001,-0.17 -10.13086,0.4404 -11.38086,5.15039 -2.19,8.26 -2.69958,17.71054 -3.84961,25.81055 -1.23999,8.73332 -1.90356,14.15928 -1.99023,16.2793 -0.48668,11.53332 -0.69558,18.86047 -0.62891,21.98046 0.14667,7.22667 0.89046,15.49215 2.23047,24.79883 0.52,3.6 1.55294,7.9384 3.09961,13.01172 2.94998,9.72 3.88992,13.89978 6.66992,21.00977 -3.10667,1.17334 -5.84737,3.13224 -8.2207,5.8789 -4.66001,9.93 -6.3393,21.28125 -8.0293,33.78125 l -3.28125,1.93946 c -1.42666,1.52667 -4.72819,4.54722 -9.9082,9.06054 -4.27999,3.71999 -8.33348,7.40835 -12.16016,11.06836 -5.22998,-10.13 -11.46164,-18.48938 -20.43164,-26.60937 -5.88666,-5.31999 -9.45255,-8.43626 -10.69922,-9.34961 -13.86668,-10.06665 -27.92015,-17.84031 -42.16015,-23.32031 -18.740003,-7.21334 -39.909773,-12.10635 -63.509773,-14.67969 -6.13,-0.66998 -8.98985,6.76947 -10.33984,11.43945 -2.77334,9.58667 -4.58923,19.4138 -5.44922,29.48047 -0.0533,0.63334 -0.4669,2.88025 -1.24024,6.74023 -0.15333,15.85334 -0.20992,26.35643 -0.16992,31.50977 0.09,11.95999 1.79978,24.85904 3.25977,34.28906 2.54,16.41333 6.99581,32.13039 13.36914,47.15039 -16.51,3.34003 -33.1790602,8.74091 -48.2890702,16.46094 -3.3466598,1.70667 -6.2745798,3.69544 -8.7812398,5.96875 -1.80667,1.63334 -2.26558,3.67753 -1.37891,6.13086 7.79333,21.68669 17.2553398,42.57039 28.3886698,62.65039 6.2666702,11.30664 13.6442002,22.43534 22.1308602,33.38867 6.64,8.56 16.16071,16.67011 24.9707,24.58008 -0.95334,0.59334 -1.54482,1.47705 -1.77148,2.65039 -1.00666,5.10665 -0.31945,10.26404 2.06055,15.4707 3.85,8.45002 8.04101,15.3794 14.04101,25.10938 7.76,12.59334 14.96581,23.21777 21.61914,31.87109 5.23334,6.80668 12.110863,14.32837 20.630863,22.56836 5.04,4.87333 10.3117,9.1202 15.81836,12.74024 6.99333,4.59997 12.9069,7.87365 17.74024,9.82031 7.25333,2.92668 16.47658,5.39372 27.66992,7.40039 3.98999,0.71997 7.95141,0.33984 11.4414,0.83984 2.42001,0.35332 5.27503,0.38627 8.56836,0.0996 7.31334,-0.63334 13.30095,-1.27327 17.96094,-1.91992 8.05332,-1.11336 16.48238,-3.11955 25.28906,-6.01953 11.19332,-3.68669 22.01426,-7.92741 32.46094,-12.7207 3.70001,7.98999 8.98026,17.32153 13.24023,26.35156 8.80001,18.63334 16.46047,38.20854 22.98047,58.72852 2.03,6.41003 3.29999,11.71014 5.25,18.16015 1.21999,4.04 2.41651,8.60787 3.58985,13.70117 4.80666,20.91337 8.27372,42.26217 10.40039,64.04883 0.96002,9.82001 2.42877,17.09027 8.71875,23.07031 6.57,6.22998 14.05032,6.29938 22.57031,6.10938 16.10999,-0.35999 23.95062,-11.63898 25.14062,-26.70899 1.15,-14.60998 2.92017,-29.6994 6.41016,-44.85937 5.76668,-25.04667 11.82638,-46.6176 18.17969,-64.71094 5.36002,-15.26664 12.14917,-32.20386 20.36914,-50.81054 3.45001,-7.82001 7.59119,-15.12031 11.20117,-22.32032 1.83333,1.14002 3.87866,2.23149 6.13867,3.27149 12.70667,5.84 25.91443,10.37605 39.6211,13.60937 6.69999,1.58667 15.28951,2.78316 25.76953,3.58985 4.31331,0.33333 9.08386,0.16048 14.31054,-0.51954 7.29334,-0.9333 12.02902,-1.63602 14.20899,-2.10937 23.07001,-4.95001 43.51959,-16.92163 60.34961,-33.68164 8.29999,-8.26001 16.58099,-17.63837 23.71094,-27.81836 10.09334,-14.39335 19.26928,-29.44063 27.52929,-45.14063 3.77999,-7.18001 4.05054,-14.0874 0.81055,-20.7207 l 0.32031,-0.73047 c 0.24667,-0.0733 0.51721,-0.21944 0.81055,-0.43945 8.60002,-6.56665 16.66589,-14.56978 24.19922,-24.00977 9.67334,-12.12003 18.42956,-25.70023 26.26953,-40.74023 8.29333,-15.91333 15.76347,-32.77653 22.41016,-50.58984 0.57332,-1.53333 1.06404,-3.54883 1.4707,-6.04883 -1.07996,-3.77002 -4.97131,-6.27033 -8.36133,-8.07032 -16.13,-8.59002 -33.8482,-14.38131 -51.9082,-19.11132 5.64996,-9.63001 8.69818,-19.70017 11.6582,-31.16016 2.72001,-10.50667 4.67159,-20.82257 5.85156,-30.94922 0.46003,-3.96002 0.60016,-9.29922 0.41016,-12.69922 -0.06,-1.07334 0.22294,-4.2338 0.84961,-9.48047 0.43335,-3.61332 0.58565,-7.02689 0.45898,-10.24023 -0.49332,-12.97333 -1.69913,-25.99697 -3.61914,-39.07031 -1.04999,-7.13999 -2.85003,-15.24979 -6.5,-22.25977 -1.27999,-2.46667 -3.60091,-3.55001 -6.96093,-3.25 -10.12667,0.90666 -20.24915,2.29968 -30.36915,4.17969 -11.85998,2.20999 -23.91949,6.22086 -35.01953,10.63086 -13.43998,5.35333 -26.02331,12.60333 -37.75,21.75 -2.93331,2.29333 -6.85815,5.50535 -11.77148,9.63867 -2.58002,2.17001 -3.8396,4.32056 -6.09961,6.31055 -1.15999,1.02667 -2.57979,2.69952 -4.25977,5.01953 -3.96667,5.46665 -7.88952,10.83799 -11.76953,16.11133 -6.00667,-5.70667 -11.6311,-11.16752 -16.87109,-16.38086 -3.37,-3.35999 -7.20917,-5.99924 -9.86914,-9.94922 -2.07001,-3.09 -2.33985,-6.46048 -2.33985,-9.98047 0.007,-3.75334 -0.0561,-6.84288 -0.18945,-9.26953 -0.22998,-4.31 -1.30047,-7.23056 -4.48047,-9.56055 -2.25333,-1.65334 -4.61959,-3.51031 -7.09961,-5.57031 9.35004,-17.88001 12.17847,-37.60031 13.39844,-59.57031 0.5,-1.94001 0.68412,-3.24349 0.55078,-3.91016 -0.30664,-1.58 -0.63069,-4.45247 -0.9707,-8.61914 -0.35335,-4.39333 -0.85335,-10.66697 -1.5,-18.82031 -0.94,-11.94 -1.64923,-21.79891 -4.94922,-32.37891 -1.81,-5.78 -6.71997,-5.76118 -11.75,-5.45117 -13.01335,0.8 -26.68001,2.52636 -41,5.17969 -3.23999,0.59999 -6.99618,1.34689 -11.26953,2.24023 -0.09,-7.37001 -1.71021,-15.3 -2.99024,-22.000001 -0.83333,-4.34667 -2.02364,-9.08231 -3.57031,-14.20898 -7.16666,-23.78 -18.50311,-45.65133 -34.00976,-65.61133 -3.79001,-4.8699993 -8.30057,-8.9684493 -11.31055,-13.1484393 -2.15334,-2.98667 -4.82619,-5.91458 -8.01953,-8.78125 -2.43333,-2.19333 -5.85311,-5.3836407 -10.25977,-9.5703107 -1.02667,-0.98 -3.83325,-1.91216 -8.41992,-2.79883 z m -27.11133,604.119141 2.5918,108.09961 c -1.01999,1.93335 -1.53434,3.63802 -1.54102,5.11133 l -0.6289,0.33008 c -1.98,-1.38001 -3.65483,-3.88001 -5.02149,-7.5 -3.72666,-9.88001 -5.86657,-15.56413 -6.41992,-17.05078 -4.82999,-12.91003 -11.59857,-25.9007 -16.55859,-36.47071 -1.99333,-4.25334 -3.97785,-7.68551 -5.95117,-10.29883 l 2.99023,-3.83007 c 9.84666,-11.10665 15.81372,-18.27954 17.90039,-21.51954 4.09,-6.35997 7.16867,-12.79113 12.63867,-16.87109 z m 51.45117,5.25977 c 4.81,4.81 7.96921,9.31989 12.19922,13.41992 3.15003,3.06 6.11976,7.26989 9.25977,9.91992 2.39997,2.03002 4.37109,4.46015 7.37109,6.66016 3.44666,2.51998 5.87264,4.46651 7.2793,5.83984 -1.08997,5.70001 -4.18983,9.62158 -6.00977,13.10156 -3.84,7.33334 -6.28959,12.26237 -7.34961,14.78907 -4.86999,11.61999 -7.77981,17.88024 -11.33984,27.49023 -2.37333,6.39999 -4.60278,12.14999 -6.68945,17.25 -0.73999,-1.36666 -1.13188,-3.03333 -1.17188,-5 -0.23001,-11.41998 -0.0482,-26.95025 -0.6582,-40.99023 -1,-22.77999 -1.65428,-39.16993 -1.96094,-49.16993 -0.17001,-5.42005 -0.77967,-9.1206 -0.92969,-13.31054 z"
     style="fill:#572e03;fill-opacity:1" />
  <path
     d="m 370.28765,31.079609 q 4.20001,10.94999 8.67001,21.77 3.94,9.55 8.66,30.55 c 1.88001,8.36 2.60999,18.739991 2.79999,26.879991 0.26001,10.92002 -4.07999,20.55002 -9.41,30.09 q -4.17999,7.46002 -6.54999,10.22 c -4.16,4.82001 -8.95999,9.90002 -11.09,15.34 l -5.86001,9.76001 c -6.59998,-5.69001 -10.78,-10.19001 -16.06998,-16.44999 q -2.63,-3.13 -7.09,-7.13 -12.46002,-11.16 -26.52001,-20.06 -1.62,-11.75001 -1.88999,-18.20001 -0.59,-14.649991 3.09,-28.500001 c 3.39999,-12.77 9.58999,-27.19 17.41,-38.78 q 4.14999,-6.14999 13.19998,-17.50999 c 4.49002,-5.63001 10.27002,-10.72 13.91001,-16.13001 q 6.26001,5.17 7.08001,6.20999 4.75,6 9.65998,11.94001 z"
     fill="#dfb44b"
     id="path3" />
  <path
     d="m 363.36766,165.9296 c 2.13001,-5.43998 6.93,-10.51999 11.09,-15.34 q 2.37,-2.75998 6.54999,-10.22 c 5.33001,-9.53998 9.67001,-19.16998 9.41,-30.09 -0.19,-8.14 -0.91998,-18.519991 -2.79999,-26.879991 q -4.72,-21 -8.66,-30.55 -4.47,-10.82001 -8.67001,-21.77 4.38,6.62001 9,13.09001 6.27002,8.78999 8.66,13.29999 8.72003,16.47 13.42999,34.32 c 1.57001,5.97 2.68,15.030001 3.31,20.400001 0.70001,5.94999 0.82001,11.78 1.76001,17.64 q -7.90997,5.11 -15.22998,9.00001 c -11.48001,6.12 -20.85001,16.22998 -27.85001,27.09998 z"
     fill="#d3a03e"
     id="path4" />
  <path
     d="m 253.81765,138.90961 q -6.18,17.42001 -4.47999,36.51999 1.29999,14.63 3.37,22.24002 6.89999,25.25998 23.64999,45.03998 7.52002,8.88 17.97001,17.79 c 1.23001,1.04001 2.54,1.54001 3.33001,2.74002 q 0.03,1.78 -1,1.78 c -7.19,-3.13 -14.31,-7.06002 -21.28,-9.82 -6.83001,-2.70002 -12.01001,-5.21 -16.84002,-7.92002 q -2.57999,-1.44998 -5.63999,-4.97 -12.42001,-14.25998 -16.73999,-32.58999 -3.6,-15.32001 -3.97,-28.12 c -0.42001,-14.66 1.19998,-29.98001 2.59998,-44.29001 z"
     fill="#e5c680"
     id="path5" />
  <path
     d="m 390.07766,275.40961 q 3.69,-3.70999 4.79998,-4.63999 10.68,-8.96002 14.98004,-12.99002 c 3.02997,-2.83999 7.19001,-6.08999 9.44001,-7.58999 q 3.11999,-2.07999 13.32995,-9.82999 7.42005,-5.63001 10.41004,-9.35001 c 16.97998,-21.14001 17.14996,-48.23001 16.85998,-74.14001 q -0.10998,-9.69998 -2.48999,-17.64999 l 14.58997,-2.43 q 5.64001,23.04001 4.74005,46.32001 -0.60004,15.44 -4.57001,28.29999 c -2.89001,9.33999 -5.57001,17.61999 -11.90002,24.51001 -4.66999,5.07998 -10.54999,9.79999 -17.13001,13.28998 q -12.19,6.45001 -17.53998,8.88 -1.29003,0.59 -2.96002,1.35001 -4.53998,2.07 -9.14996,4.08001 c -8.07001,3.51999 -15.65003,7.84 -23.41003,11.88999 z"
     fill="#d3a03e"
     id="path6" />
  <path
     d="m 296.65767,265.01962 q 1.03,0 1.15998,-1.08001 c -0.94999,-1.9 -2.25998,-2.4 -3.48999,-3.44001 q -10.44999,-8.91 -17.97001,-17.79 -16.75,-19.78 -23.64999,-45.03998 -2.07001,-7.61002 -3.37,-22.24002 -1.70001,-19.09998 4.47999,-36.51999 16.52001,3.36999 25.79,6.76001 3.70002,1.35 12.24002,5.67999 c 19.93998,10.10999 33.5,27.07001 42.9,46.72 6.92999,14.47 6.82999,31.35999 5.98999,47.28 q -1.15,22.04001 -0.92001,43.07999 c -3.47999,-1.68998 -5.90998,-3.65 -8.93998,-5.15998 q -3.12002,-1.56002 -11.63,-6.69 -9.10001,-5.48001 -22.59,-11.56 z"
     fill="#dfb44b"
     id="path7" />
  <path
     d="m 457.40767,139.21961 q 2.38001,7.95001 2.48999,17.64999 c 0.28998,25.91 0.12,53 -16.85998,74.14001 q -2.98999,3.72 -10.41004,9.35001 -10.20996,7.75 -13.32995,9.82999 c -2.25,1.5 -6.41004,4.75 -9.44001,7.58999 q -4.30004,4.03 -14.98004,12.99002 -1.10998,0.93 -4.79998,4.63999 -10.41999,6.45999 -19.35999,14.53 c -1.70001,-8.53 -2.59,-15.47 -2.47,-23.31 q 0.39999,-25.84 1.20999,-42.04001 0.44,-8.79999 1.85999,-15.70999 4.1,-19.98999 17.65002,-34.31 1.67999,-1.76999 10.22998,-9.25 6.35999,-5.57001 10.85004,-8.53 14.23999,-9.39999 30.19995,-13.91 4.06,-1.15 17.16003,-3.66 z"
     fill="#dfb44b"
     id="path8" />
  <path
     d="m 613.25765,383.88962 q 6.14001,-8.81 8.71002,-13.79001 c 10.64996,-20.70999 15.45996,-42.85001 17.07001,-68.37 0.96997,-15.29 0.94,-30.89999 -1.34003,-46.39999 l 14.73999,-2.41 q 1.27002,1.63998 1.62,3.6 c 2.5,13.76999 4.84002,30.41999 4.14001,45.23999 q -0.77997,16.41001 -1.61999,22.26001 -1.34998,9.29999 -5.27002,24.25 -3.65998,13.97 -11.13001,26.32999 c -1.92999,3.20999 -5.45996,6.64001 -9.40997,7.07001 q -8.47998,0.92999 -17.51001,2.22 z"
     fill="#d3a03e"
     id="path9" />
  <path
     d="m 67.197667,255.7796 q -1.13001,14.95001 -1.25,29.82001 -0.17,20.82999 4.25999,41.53 5.46001,25.48999 23.09,51.17001 1.3,1.9 4.58999,4.29999 0.75,1.73999 0.04,1.85999 -9.43001,-1.4 -19.68001,-0.87 -9.89,-5.78 -14.47999,-14.03 -1.18,-2.1 -4.17,-8.6 c -2.46001,-5.34998 -3.7,-10.15998 -5.67999,-16.06 q -1.03002,-3.06 -1.97,-7.28998 -2.81001,-12.64001 -3.51,-26.01001 -1.54,-29.09 3.12001,-57.54001 z"
     fill="#e5c680"
     id="path10" />
  <path
     d="m 637.69765,255.32962 c 2.28003,15.5 2.31,31.10999 1.34003,46.39999 -1.61005,25.51999 -6.42005,47.66001 -17.07001,68.37 q -2.57001,4.98001 -8.71002,13.79001 -23.77997,4.79001 -46.37,14.61996 -2.26001,-14.71997 -3.15997,-22.75998 -1.10004,-9.82 -4.59003,-21.76999 -4.13,-14.17999 -10,-26.5 c 1.85004,-7.54 3.28998,-10.89001 6.90003,-18.23999 q 2.85998,-5.84002 6.40997,-10.01001 9.04999,-10.61999 17.54999,-17.33999 7.05005,-5.57001 18.58002,-12.18002 16.95001,-9.69999 39.11999,-14.37998 z"
     fill="#dfb44b"
     id="path11" />
  <path
     d="m 97.927657,384.4596 q 0.70999,-0.12 0.48,-1.06998 -3.81,-3.19 -5.11,-5.09 -17.62999,-25.68002 -23.09,-51.17001 -4.42999,-20.70001 -4.25999,-41.53 0.11999,-14.87 1.25,-29.82001 24.70999,5.20001 46.360003,17.67002 13.79998,7.94 24.05999,18.98999 2.91999,3.14001 5.84,6.33001 c 5.84,6.37998 10.04001,14.41999 13.42999,22.38999 q -9.94998,27.16 -14.19998,53.33999 c -1.17001,7.23001 -1.05002,14.60001 -0.72,21.50003 -4.91,-0.94 -8.91,-2.95001 -13.62001,-4.44 q -14.95,-4.72003 -30.420003,-7.10003 z"
     fill="#dfb44b"
     id="path12" />
  <path
     id="path13"
     d="m 471.99672,269.98047 -16.01953,4.79883 c -8.68668,2.40667 -15.84208,4.60937 -21.46875,6.60937 -6.86666,2.44 -14.70817,5.90707 -23.52148,10.40039 -1.92668,0.98 -3.77238,2.05713 -5.53907,3.23047 -4.71997,3.13999 -9.12945,5.56967 -12.93945,9.42969 -6.97,7.04999 -12.40134,13.97983 -16.11133,23.58984 -4.56667,11.83334 -6.92673,24.19031 -7.08007,37.07032 -0.27999,23.9333 -0.46216,39.59688 -0.54883,46.99023 -0.04,3.43335 0.52899,8.0105 1.70898,13.73047 l 10.28125,-7.16992 c 10.20667,-6.06002 17.54309,-10.05693 22.00977,-11.99024 9.95333,-4.31335 22.59944,-9.99125 37.93945,-17.03125 3.81999,-1.75333 6.7006,-3.4921 8.64062,-5.21875 6.45002,-5.74002 13.64875,-12.92944 17.46876,-20.68945 8.22668,-16.76001 11.85729,-34.64374 10.89062,-53.65039 -0.66667,-13.13334 -2.57092,-26.49961 -5.71094,-40.09961 z"
     style="fill:#dfb44b;fill-opacity:1" />
  <path
     id="path14"
     d="m 233.48696,272.09961 c -1.4631,14.16227 -3.14854,28.33798 -2.79624,42.60507 -0.32241,10.94879 1.39604,21.93197 4.3648,32.45474 3.92621,12.0368 9.19227,24.26668 18.49486,33.15705 7.28475,7.11935 17.63495,9.0959 26.38288,13.76141 9.96784,4.66685 27.91091,12.696 33.9931,16.53815 6.65367,3.5746 23.28977,11.85785 24.46515,12.35069 2.67232,1.63483 3.50045,-45.32122 2.94769,-60.31198 -0.92771,-17.5683 -7.5812,-34.68468 -18.76274,-48.26006 -11.62086,-14.99936 -28.51999,-24.88201 -45.90016,-31.82786 -10.4763,-3.67408 -21.04157,-7.43661 -32.12353,-8.73396 -3.68861,-0.57778 -7.37721,-1.15551 -11.06581,-1.73325 z"
     style="fill:#dfb44b;fill-opacity:1" />
  <path
     d="m 203.52767,309.2496 c 1.39999,6.73001 1.42999,13.15 2.48999,19.94001 q 0.1,0.64001 0.88,7.14999 c 1.04999,8.79001 3.82001,17.93002 7.13999,26.21002 q 2.99002,7.44998 7.11001,13.20999 -4.26001,2.15 -7.66,3.85999 -2.57001,1.28 -3,2.02002 -0.95001,2.76999 -1.16,4.58999 -2.94999,26.52002 -3.41001,40.13001 -0.41,11.76001 0.24002,34.48999 c 0.15998,5.62 0.34,11.69 -1.18002,17.01001 -4.34998,-4.15002 -7.28998,-7.97003 -10.48999,-13.29999 q -7.23001,-12.09002 -10.19,-16.55005 c -4.63001,-6.98999 -7.98999,-13.69995 -12.38999,-21.25 q -3.03,-11.05999 -4,-14.90997 c -2.78,-11.09998 -2.54001,-21.87 -1.53,-33.82999 q 0.65,-7.71002 4.13999,-17.29001 c 4.29999,-11.83001 7.86999,-22.02999 15.01999,-30.55001 q 13.02002,-15.53 17.99002,-20.93 z"
     fill="#dfb44b"
     id="path17" />
  <path
     d="m 501.56765,312.22961 q 8.57,7.35001 15.39001,14.13001 10.96002,10.88998 15.71002,24.5 4,11.45999 6.00995,23.51999 0.74005,4.39999 0.70001,9.95999 c -0.03,4.23999 0.45002,8.54004 0.29004,13.34003 -0.39001,11.77997 -0.95001,21.38995 -6.36004,31.92999 q -6.20997,12.07001 -8.39997,15.71997 -11.63,19.40002 -20.53003,33.72003 c -0.91998,-10.65002 -1.26001,-19.64001 -0.94,-29.83001 q 0.70001,-22.81 -0.38,-48.25 c -0.32996,-7.59998 -0.51996,-15.53 -8.56995,-19.10001 q -2.69,-1.19 -4.92004,-2.62998 c 4.66003,-14.21002 8.84002,-23.05001 10.07,-36.48001 q 1.31,-14.36999 1.78998,-29.89999 0.02,-0.41 0.14002,-0.63001 z"
     fill="#dfb44b"
     id="path18" />
  <path
     id="path19"
     d="m 473.58852,406.96875 -16.70117,5.15039 c -6.47998,1.99333 -12.44393,4.16622 -17.89063,6.51953 -10.71997,4.63334 -19.42887,8.76705 -26.1289,12.40039 -8.54999,4.63001 -17.14991,10.32056 -23.41993,17.56055 -5.85998,6.76668 -10.80649,14.56396 -14.83984,23.39062 -5.17999,11.34998 -6.83047,24.01935 -6.73047,36.35938 0.14,17.05334 0.52063,34.19328 1.14063,51.41992 l 21.75,-6.58984 c 15.28997,-4.91004 28.03949,-9.02094 41.01953,-17.21094 5.95996,-3.77002 12.7691,-9.96875 18.11914,-14.21875 4.02997,-3.21002 6.55041,-6.35077 9.15039,-10.55078 7.75,-12.56 14.55078,-25.93988 16.05078,-40.08984 0.75997,-7.18669 1.10571,-14.02002 1.03906,-20.5 -0.14668,-14.65332 -0.99861,-29.20061 -2.55859,-43.64063 z m -42.29883,110.29883 c -11.06224,11.60857 -23.69191,22.20694 -37.88867,31.79492 l 0.25586,-0.40234 c 14.00134,-9.29821 26.54655,-19.76231 37.63281,-31.39258 z"
     style="fill:#dfb44b;fill-opacity:1" />
  <path
     id="path22"
     d="m 635.68813,408.20899 c -7.71997,0.0467 -12.93705,0.13814 -15.65039,0.27148 -7.82666,0.37333 -15.57044,1.97217 -23.23047,4.79883 -5.00663,1.85335 -10.60238,4.39754 -16.78906,7.63086 -7.61333,3.97334 -14.0114,8.88187 -19.19141,14.72851 -2.25,2.53003 -4.51007,5.9101 -6.58008,8.58008 -1.5933,2.06665 -3.09643,4.31047 -4.50976,6.73047 -3.99005,6.86005 -7.87909,13.0802 -11.61914,20.49023 -6.48666,12.84664 -12.13278,25.04936 -16.93946,36.60938 24.35004,-2.29004 47.48859,-2.07904 72.0586,3.71094 2.87333,0.55334 6.7098,1.65722 11.50976,3.31054 4.34668,1.49337 9.77149,2.09839 16.27149,1.81836 3.90002,-0.17999 8.96039,-2.28814 11.65039,-4.07812 6.08996,-4.08002 12.19983,-8.61066 16.83984,-14.64063 0.59334,-0.76668 2.3383,-2.85001 5.23828,-6.25 2.68002,-3.14001 6.66451,-8.5896 11.95117,-16.34961 3.23999,-4.73999 6.66594,-10.55477 10.2793,-17.4414 6.08,-11.56669 11.63969,-23.99573 16.67969,-37.28907 l -17.33984,-6.15039 c -6.58,-1.85335 -12.14279,-3.18668 -16.68946,-4 -6.40997,-1.15002 -15.8894,-2.52044 -23.93945,-2.48046 z"
     style="fill:#dfb44b;fill-opacity:1" />
  <path
     id="path23"
     style="fill:#dfb44b;fill-opacity:1"
     d="m 232.30727,408.70899 c -0.31334,6.75333 -0.7269,13.50024 -1.24023,20.24023 -0.44,5.95001 -0.26023,14.48041 -0.49024,18.65039 -0.19999,3.74667 0.0376,8.39279 0.71094,13.93945 1.01334,8.42001 1.61412,13.14636 1.80078,14.17969 3.04,16.82666 10.64193,31.93055 22.80859,45.31055 3.76667,4.14668 8.36435,7.91105 13.79102,11.29101 12.95999,8.06006 27.06906,14.65967 41.78906,18.42969 8.96,2.44666 18.37976,3.62574 28.25977,3.53906 0.89334,-22.85335 1.32435,-38.50565 1.29101,-46.95898 -0.04,-11.40665 -2.44426,-22.76676 -7.21093,-34.08008 -5.03999,-11.95001 -11.93018,-23.40961 -21.91016,-31.09961 -7.25333,-5.59335 -15.03317,-10.72086 -23.33984,-15.38086 -11.99333,-6.71333 -24.99644,-11.78234 -39.00977,-15.20898 z m 70.46484,135.80859 c 0.12757,0.14324 0.24971,0.30798 0.36524,0.49219 -0.0397,-0.0201 -0.0793,-0.0406 -0.11914,-0.0606 -0.0468,-0.14762 -0.12928,-0.2918 -0.2461,-0.43164 z" />
  <path
     id="path26"
     style="fill:#dfb44b;fill-opacity:1"
     d="m 64.858047,408.09961 c -4.38665,0.15332 -8.14286,0.51029 -11.26953,1.07031 -5.43,0.96997 -12.2004,1.82995 -18.40039,3.41992 -2.50667,0.64669 -4.8842,1.27226 -7.13086,1.87891 l -16.0293,6.13086 c 6.90666,17.79333 14.94271,34.33247 24.10938,49.61914 3.65334,6.09334 8.58745,13.22396 14.80078,21.39063 8.58667,11.3 19.21534,19.25272 31.88867,23.85937 4.47333,1.62667 7.96094,2.18831 10.46094,1.68164 1.20666,-0.22001 4.78689,-1.21692 10.740233,-2.99023 7.81999,-2.32001 16.10047,-3.72961 24.23047,-5.09961 18.09001,-3.05005 37.95947,-2.54169 57.68945,-2.93164 -6.41998,-10.88001 -11.74969,-22.45001 -18.17968,-34.75 -3.20001,-6.12006 -5.63968,-11.22876 -7.67969,-15.46875 -2.32666,-4.81999 -4.42434,-8.57813 -6.29102,-11.27149 -6.32001,-9.09998 -13.4892,-16.39935 -23.19922,-22.10937 -7.79999,-4.58001 -14.10016,-8.1499 -21.41015,-9.91992 -14.586663,-3.5267 -29.363403,-5.02979 -44.330083,-4.50977 z" />
  <path
     id="path30"
     d="m 552.61977,531.75391 c -5.67187,-0.0512 -11.32211,0.21797 -16.91211,0.85547 -11.17999,1.27002 -22.26929,5.2705 -31.7793,9.73046 -3.87333,1.81336 -8.41133,5.00057 -13.61132,9.56055 -2.31332,3.39335 -4.27845,6.44177 -5.89844,9.14844 -7.3667,12.30001 -13.71127,23.56128 -19.03125,33.78125 -3.83997,7.35004 -8.70941,14.729 -13.10938,22.20898 l -1.25976,4.59961 c 10.26001,5.54004 21.97979,8.65076 33.58984,12.05078 9.1333,2.67998 19.67554,3.823 31.62891,3.42969 16.92663,-0.55334 32.15494,-5.33626 45.68164,-14.34961 13.95996,-9.29999 25.18982,-20.97967 34.50976,-34.17969 4.64002,-6.57 6.93872,-9.6007 10.46875,-15.4707 5.41333,-8.99333 10.05017,-18.0623 13.91016,-27.20898 -5.65332,-2.77999 -11.52889,-4.90442 -17.62891,-6.3711 -16.33497,-4.5975 -33.54297,-7.6314 -50.55859,-7.78515 z"
     style="fill:#dfb44b;fill-opacity:1" />
  <path
     id="path32"
     style="fill:#dfb44b;fill-opacity:1"
     d="m 159.34828,531.72656 c -3.63666,-0.095 -7.49674,0.006 -11.58007,0.30274 -15.8,1.14668 -31.21667,4.39978 -46.25,9.75976 l -16.509773,7.78125 c 5.48667,9.76002 11.20992,19.18596 17.169923,28.2793 6.22,9.48999 12.57883,17.62049 19.79883,25.73047 4.57333,5.13334 8.89117,9.24031 12.95117,12.32031 2.00668,1.52002 5.45628,4.04985 10.34961,7.58984 2.66,1.92001 7.07977,4.3429 13.25977,7.26954 23.75,11.27002 52.54087,5.45978 76.38086,-2.49024 1.85333,-0.61999 3.63317,-1.3669 5.33984,-2.24023 3.54001,-1.80999 7.37826,-2.89874 10.98828,-4.71875 l 4.83008,-4.96094 c -1.16001,-2.69 -2.45868,-5.53095 -4.13867,-7.96094 -5.64667,-8.1333 -11.08077,-17.19922 -16.30078,-27.19922 -3.89999,-7.49005 -8.68946,-16.27032 -13.18946,-23.07031 -1.45332,-2.19336 -3.48937,-4.31583 -6.10937,-6.36914 -13.80999,-10.80004 -29.66,-16.53039 -46.75,-19.15039 -3.19,-0.48667 -6.60357,-0.77805 -10.24024,-0.87305 z" />
  <path
     d="m 466.17763,541.9596 q -5.27997,9.42999 -8.53998,14.15002 -4.14001,6.01001 -8.71002,13.95996 -17.76996,30.90003 -19.13995,33.45001 -2.73004,-1.61999 -8.07001,-5.20996 -1.77002,-1.19 -2.97003,-2.51001 -2.75995,-3.03003 -9.98999,-11.25 -2.64002,-3 -4.79999,-6.51001 1.03003,-2.17999 3.46997,-3.22003 5.77002,-2.43994 16.02002,-6.81995 10.34003,-4.42004 15.72003,-7.43005 13.67999,-7.64996 27.00995,-18.60998 z"
     fill="#dfb44b"
     id="path33" />
  <path
     d="m 246.35765,548.07959 q 10.49002,7.38001 22.91001,14.45001 c 6.67999,3.81 14.48999,7 20.98001,9.72998 q 4.10998,1.72003 9.81,2.84003 -6.15,14.65997 -17.73001,25.58002 c -2.32999,-0.64002 -3.51001,-1.73004 -4.44999,-3.22003 -5.02002,-7.98999 -9.84002,-14.43 -14.73001,-21.94001 q -4.58999,-7.05999 -15.17999,-23.48999 -0.81,-1.26001 -2.23001,-3.33001 z"
     fill="#dfb44b"
     id="path34" />
</svg>
