<svg width="331.297" height="388.52" viewBox="-20 -20 331.297 388.52" xmlns="http://www.w3.org/2000/svg">
  <path d="m145.047-20-3 2-11 13q-16 21-20 48-12-4-24-5c-4 0-5 3-5 6q-4 16-2 33l5 17v2c-6 4-5 8-7 17l-12 10q-12-21-36-28l-21-5q-5 0-7 4c-5 20-6 42 1 60l3 8q-10 2-20 7c-4 2-8 3-5 8 8 19 15 35 30 48l3 2-2 3 1 5 9 15c11 19 28 36 52 35q14.001-1 27-7l8-2 5 10q10 22 16 46l4 25c1 5 2 9 6 10 7 3 17 2 18-7l2-15q5-25 14-48l10-21c9 5 20 8 31 9 22 2 40-11 52-30 6-9 11-17 13-26l-2-3c11-8 18-18 24-30l9-21q1-4-2-5l-25-9c3-5 6-11 7-18q5-25-2-49-.999-4-6-3c-24 2-45 13-58 33l-13-13-1-11-5-5 2-2c6-15 5-33 3-49q-.999-6-6-6l-24 4q-2-24-16-43-6.999-10-15-18zm-11 270 1 52-1 1-1-1c-5-14-9-24-14-33q7-8 12-17zm23 1c5 7 11 13 17 18l-3 5a221 221 0 0 0-12 29q0-28-2-52" style="fill:#572e03;fill-opacity:1"/>
  <path fill="#dfb447" d="m146.047-6 7 8q10 12 15 28l2 18c-9 5-19 12-22 21-7-8-14-16-23-20-2-16 2-30 11-42zm-6 124c-4-1-6-4-9-5l-14-6-10-5c-11-5-16-19-16-31l1-20c16 1 33 7 41 20 5 7 8 14 8 22zm13 1V99q0-13 2-19c6-19 27-27 45-29l1 23c-1 10-5 21-12 26l-8 4c-9 4-18 8-26 14zm-102 48q-15-6-29-6-5-4-6-8-6-14-6-25-1-12 2-25 13 1 24 7c11 5 17 13 22 23-5 13-7 23-7 34m190 1q-1-17-8-32c3-8 6-12 10-16q10-10 24-14l11-3c4 13 5 26 2 38-2 6-4 14-9 19q-16 2-30 8m-101 11-26-13-11-5c-14-13-12-32-11-50q12 2 23 7 8 3 12 7c9 8 14 19 14 31l-1 22zm14 1-1-21c-1-12 2-21 9-31 4-5 11-9 18-11q9-4 19-6l3 18q0 12-5 23l-5 7c-5 5-11 7-18 10q-9 3-19 10zm-75-53c0 10 2 23 8 31l-5 2q-3 23-2 43c-2 0-3-2-3-3q-9-12-13-21l-2-9q-2-26 17-43m133 1 11 13q6 10 6 24 1 11-4 19l-11 19-1 1v-38l-1-4-6-3q4-7 5-15zm-218 49c8-3 18-5 27-5 13 0 28 5 36 16l6 13 8 15h-9c-11-1-22 1-33 4l-4-1c-8-3-14-9-18-16q-8-11-13-25zm227 39q6-14 14-27c9-14 29-19 45-16l17 4-2 6c-5 13-12 25-22 34q-5 4-12 3c-11-3-21-5-31-4zm-129-44q16 3 30 11c11 6 18 19 19 32l-1 22q-12-1-22-5c-12-5-20-12-24-24q-3-6-3-17l1-18zm61 66v-24c0-14 8-26 20-32q12-6 26-10h1l1 20q0 8-2 15c-6 20-28 28-46 32zm-51 28c-17 7-36 12-51 0-11-8-18-19-25-32 20-8 39-11 58 1l4 5 14 24zm164-32-12 20c-13 17-29 24-50 18l-14-5 12-22c2-4 5-10 9-12 11-6 24-8 36-5 6 1 13 2 19 5zm-69-3-11 18-5 10q-8-5-12-12l19-9zm-100 3c9 5 16 10 25 12-2 6-5 10-8 12q-6-7-16-24z" style="display:inline"/>
</svg>
