<?xml version="1.0" encoding="UTF-8" standalone="no"?>
<svg
   width="745.39288"
   height="872.35046"
   viewBox="-20 -20 745.39286 872.35048"
   version="1.1"
   id="svg13"
   xmlns="http://www.w3.org/2000/svg"
   xmlns:svg="http://www.w3.org/2000/svg">
  <defs
     id="defs13" />
  <path
     d="m 353.39289,-20 c -1.6,0.5 -3.6,1.3 -6.2,2.6 -1.88095,1.040871 -3.57162,2.393407 -5,4 -1.4,1.4 -5,5 -11.2,10.8 -2.4,2.3 -4.8,5.9 -7.1,8.6 -11.56114,13.399353 -21.31129,28.259912 -29,44.2 -5.7,11.8 -10,24.4 -13.2,37.7 -1.6,7.1 -2.4,14.5 -3.4,21.5 l -1.5,7.4 c -5.98546,-2.2311 -12.18485,-3.83959 -18.5,-4.8 -12.1,-1.8 -23.7,-3 -34.6,-3.4 -4.4,-0.2 -10.1,0.5 -11.4,5.2 -2.2,8.2 -2.7,17.7 -3.8,25.8 -0.93845,5.39652 -1.60596,10.83668 -2,16.3 -1.2516,15.61001 -0.71479,31.31192 1.6,46.8 0.67699,4.40159 1.67975,8.74686 3,13 3,9.7 4,13.9 6.8,21 -3.21217,1.20121 -6.06767,3.19662 -8.3,5.8 -4.6,10 -6.3,21.3 -8,33.8 l -3.3,2 c -1.4,1.5 -4.7,4.5 -9.9,9 -4.3,3.7 -8.3,7.4 -12.1,11 -5.12046,-10.03477 -12.07344,-19.02278 -20.5,-26.5 -3.46658,-3.24546 -7.03503,-6.38037 -10.7,-9.4 -12.97439,-9.54257 -27.12421,-17.37371 -42.1,-23.3 -18.800005,-7.2 -40.000005,-12.1 -63.500005,-14.7 -6.2,-0.6 -9,6.8 -10.4,11.5 -6.854918,24.81394 -6.823685,41.81622 -6.8,67.7 0,12 1.8,24.9 3.2,34.3 2.6,16.4 7,32.1 13.4,47.1 -16.770097,3.29788 -33.0172778,8.84816 -48.2999999,16.5 -3.1876801,1.59878 -6.1472431,3.61667 -8.8000001,6 -1.8,1.6 -2.2,3.6 -1.4,6.1 7.766112,21.59714 17.2636478,42.53185 28.4000001,62.6 6.5351089,11.68459 13.9568789,22.85068 22.1999999,33.4 6.6,8.6 16.1,16.7 25,24.6 -1,0.6 -1.6,1.5 -1.8,2.7 -1,5 -0.4,10.2 2,15.4 10.19005,20.01886 22.13693,39.09371 35.7,57 5.2,6.8 12.000005,14.3 20.600005,22.6 5,4.9 10.3,9.1 15.8,12.7 7,4.6 13,7.9 17.8,9.8 7.2,3 16.4,5.4 27.6,7.4 4,0.8 8,0.4 11.5,0.9 2.4,0.3 5.3,0.4 8.5,0 6.01398,-0.45079 12.01584,-1.05098 18,-1.8 8,-1.1 16.5,-3.2 25.3,-6 11.2,-3.7 22,-8 32.5,-12.8 3.7,8 9,17.4 13.2,26.4 8.96605,19.03233 16.64984,38.64271 23,58.7 2,6.4 3.3,11.7 5.2,18.2 6.69475,25.52716 11.37579,51.54036 14,77.8 1,9.7 2.4,17 8.7,23 6.6,6.2 14,6.3 22.6,6.1 16.1,-0.4 24,-11.6 25.1,-26.7 1.2,-14.6 3,-29.7 6.5,-44.9 4.84607,-21.88132 10.88847,-43.48042 18.1,-64.7 6.14022,-17.19088 12.94535,-34.13696 20.4,-50.8 3.5,-7.8 7.6,-15.1 11.2,-22.3 1.8,1.1 3.9,2.2 6.1,3.3 20.45352,9.98712 42.67954,15.83249 65.4,17.2 4.4,0.3 9.1,0.1 14.3,-0.6 7.3,-0.9 12,-1.6 14.3,-2 23,-5 43.5,-17 60.3,-33.8 8.3,-8.2 16.6,-17.6 23.7,-27.8 10.13832,-14.41889 19.32452,-29.48426 27.5,-45.1 3.8,-7.2 4.1,-14.1 0.9,-20.7 l 0.3,-0.8 0.8,-0.4 c 8.6,-6.6 16.7,-14.6 24.2,-24 10.06272,-12.71945 18.87046,-26.38318 26.3,-40.8 8.48043,-16.36515 15.96082,-33.22942 22.4,-50.5 0.60319,-1.96567 1.07096,-3.97036 1.4,-6 -1,-3.9 -5,-6.4 -8.3,-8.2 -16.53736,-8.32962 -33.98814,-14.70586 -52,-19 5.7,-9.7 8.8,-19.8 11.7,-31.2 2.7,-10.5 4.7,-20.9 5.9,-31 0.4,-4 0.6,-9.3 0.4,-12.7 0,-1 0.2,-4.2 0.8,-9.5 0.5,-3.6 0.6,-7 0.5,-10.2 -0.5,-13 -1.7,-26 -3.6,-39 -0.92781,-7.73975 -3.12385,-15.27389 -6.5,-22.3 -1.3,-2.5 -3.6,-3.6 -7,-3.3 -10.1,1 -20.2,2.3 -30.4,4.2 -11.97514,2.42049 -23.69413,5.96966 -35,10.6 -13.4,5.4 -26,12.6 -37.7,21.8 -3.98738,3.13299 -7.92128,6.33345 -11.8,9.6 -2.6,2.2 -3.8,4.3 -6,6.3 -1.67496,1.47114 -3.15375,3.15159 -4.4,5 l -11.7,16.2 c -6,-5.7 -11.7,-11.2 -16.9,-16.4 -3.4,-3.4 -7.2,-6 -9.9,-10 -1.77837,-3.01686 -2.58164,-6.50933 -2.3,-10 0,-3.7 0,-6.8 -0.2,-9.2 -0.2,-4.3 -1.3,-7.3 -4.5,-9.6 -2.2,-1.6 -4.6,-3.5 -7,-5.6 15.41438,-29.5028 13.28417,-66.90803 12.9,-72.1 l -1.5,-18.8 c -1,-12 -1.6,-21.8 -5,-32.3 -1.8,-5.8 -6.7,-5.8 -11.7,-5.5 -17.59885,1.1067 -35.08494,3.58083 -52.3,7.4 0,-7.4 -1.7,-15.3 -3,-22 -6.45053,-29.062591 -19.29502,-56.322968 -37.6,-79.8 -3.7,-4.9 -8.2,-9 -11.2,-13.1 -2.36346,-3.1952972 -5.04374,-6.143605 -8,-8.8 -2.5,-2.2 -6,-5.4 -10.3,-9.6 -1,-1 -3.9,-2 -8.4,-2.8 z m -27.2,604.1 2.6,108.1 c -1,2 -1.5,3.7 -1.5,5.1 l -0.6,0.4 c -2,-1.4 -3.7,-4 -5,-7.5 l -6.5,-17 c -4.8,-13 -11.6,-26 -16.5,-36.6 -2,-4.2 -4,-7.6 -6,-10.3 l 3,-3.8 c 6.38948,-6.83138 12.39855,-14.00887 18,-21.5 4,-6.4 7,-12.8 12.5,-16.9 z m 51.5,5.3 c 4.8,4.8 8,9.3 12.2,13.4 3.1,3 6.1,7.3 9.3,10 2.4,2 4.3,4.4 7.3,6.6 2.57325,1.75037 5.01326,3.68901 7.3,5.8 -1,5.7 -4.2,9.6 -6,13.1 -2.57324,4.87932 -5.04048,9.81382 -7.4,14.8 -4.8,11.6 -7.7,17.9 -11.3,27.5 -2.4,6.4 -4.6,12.1 -6.7,17.2 -0.7,-1.3 -1.1,-3 -1.2,-5 -0.2,-11.4 0,-26.9 -0.6,-41 -0.76171,-16.36266 -1.42838,-32.7296 -2,-49.1 -0.1,-5.4 -0.8,-9.1 -0.9,-13.3 z"
     style="fill:#572e03;fill-opacity:1"
     id="path1" />
  <path
     fill="#dfb44b"
     d="m 370.29289,31 c 2.8,7.333333 7.42904,16.329039 10.42904,23.529039 2.6,6.4 6.76345,15.95161 9.89678,29.95161 1.9,8.4 1.73548,19.132261 1.93548,27.332261 0.3,10.9 -3.97378,18.21209 -9.37378,27.71209 -2.8,5 -7.15419,9.20833 -8.68752,11.075 -4.2,4.8 -9,9.9 -11.1,15.3 l -5.9,9.8 c -5.80223,-5.02508 -11.15579,-10.54594 -16,-16.5 -1.8,-2 -4.2,-4.33333 -7.2,-7 -8.26667,-7.53333 -17.1,-14.26667 -26.5,-20.2 -1.06667,-7.8 -1.7,-13.86667 -1.9,-18.2 -0.4,-9.73333 0.63333,-19.233333 3.1,-28.5 3.4,-12.7 9.6,-27.1 17.4,-38.7 2.8,-4.133333 7.2,-9.966667 13.2,-17.5 4.5,-5.7 10.3,-10.8 14,-16.2 4.13333,3.466667 6.46667,5.533333 7,6.2 l 9.7,12 z"
     id="path2" />
  <path
     fill="#d3a03e"
     d="m 363.39289,166 c 2.1,-5.5 6.9,-10.6 11,-15.4 q 2.4,-2.8 6.6,-10.2 a 58.7,58.7 0 0 0 9.4,-30.1 c -0.2,-8.2 -0.9,-18.5 -2.8,-26.9 q -4.7,-21 -8.6,-30.6 -4.5,-10.8 -8.7,-21.7 4.4,6.6 9,13 6.3,8.9 8.6,13.4 8.8,16.4 13.5,34.3 c 1.5,6 2.7,15 3.3,20.4 0.7,6 0.8,11.8 1.7,17.6 q -7.9,5.1 -15.2,9 a 78.3,78.3 0 0 0 -27.8,27.1 z"
     id="path3" />
  <path
     fill="#e5c680"
     d="m 253.79289,139 c -4.13333,11.53333 -1.74299,24.53119 -0.60966,37.26452 0.86667,9.8 3.29678,15.93655 4.69678,21.00322 4.66667,16.8 10.40537,30.71935 21.5387,43.91935 5,5.93333 7.97418,13.37958 14.97418,19.31291 1.2,1 6.32067,2.41696 7.12067,3.61696 0,1.2 -4.154,0.88304 -4.82067,0.88304 -7.2,-3.1 -14.4,-7 -21.3,-9.8 -6.9,-2.7 -12,-5.2 -16.9,-8 -1.66667,-0.93333 -3.53333,-2.56667 -5.6,-4.9 -8.26667,-9.53333 -13.83333,-20.4 -16.7,-32.6 -2.4,-10.2 -3.73333,-19.56667 -4,-28.1 -0.4,-14.7 1.2,-30 2.6,-44.3 z"
     id="path4" />
  <path
     fill="#d3a03e"
     d="m 389.99289,275.4 3.17096,-5.24839 c 7.13333,-6 10.62042,-10.54946 13.48709,-13.21613 3,-2.9 8.96651,-5.99961 11.26651,-7.49961 2.06666,-1.33334 5.88869,-5.51697 12.68869,-10.71697 4.93333,-3.8 7.1448,-6.98127 9.1448,-9.44794 17,-21.1 18.76085,-46.47096 18.46085,-72.37096 -0.0667,-6.46667 0.7811,-12.36667 -0.8189,-17.7 l 14.6,-2.4 c 3.73333,15.33333 5.3,30.76667 4.7,46.3 -0.4,10.26667 -1.9,19.7 -4.5,28.3 -2.07246,8.97735 -6.17787,17.35922 -12,24.5 -4.88583,5.34979 -10.6317,9.84509 -17,13.3 -8.2,4.33333 -14.06667,7.3 -17.6,8.9 l -3,1.3 -9.1,4.1 c -8,3.5 -15.7,7.9 -23.4,12 z"
     id="path5" />
  <path
     fill="#dfb44b"
     d="m 296.69289,265 q 1,0 1.1,-1 c -1,-2 -2.2,-2.5 -3.5,-3.5 q -10.4,-9 -18,-17.8 -16.7,-19.8 -23.6,-45 -2,-7.6 -3.4,-22.3 -1.7,-19 4.5,-36.5 16.5,3.4 25.8,6.8 3.7,1.3 12.2,5.6 a 97,97 0 0 1 43,46.8 c 6.9,14.4 6.8,31.3 6,47.2 q -1.2,22 -1,43.1 c -3.5,-1.7 -5.9,-3.6 -9,-5.1 q -3,-1.6 -11.6,-6.7 -9,-5.5 -22.5,-11.6 z m 160.7,-125.8 q 2.4,8 2.5,17.7 c 0.3,25.9 0.1,53 -16.9,74.1 q -3,3.7 -10.4,9.4 -10.2,7.7 -13.3,9.8 a 87.4,87.4 0 0 0 -9.4,7.6 q -4.3,4 -15,13 -1.1,0.9 -4.8,4.6 -10.4,6.5 -19.4,14.5 c -1.7,-8.5 -2.6,-15.4 -2.5,-23.3 q 0.4,-25.8 1.3,-42 0.4,-8.8 1.8,-15.7 4.1,-20 17.7,-34.3 1.6,-1.8 10.2,-9.3 6.4,-5.6 10.8,-8.5 14.3,-9.4 30.2,-14 4.1,-1 17.2,-3.6 z"
     id="path6" />
  <path
     fill="#d3a03e"
     d="m 613.29289,383.9 c 4.06667,-5.86667 3.91013,-14.44017 5.64346,-17.7735 10.43077,-21.3446 16.22447,-40.6822 17,-64.4265 1,-15.3 4.05654,-30.9 1.75654,-46.4 l 14.7,-2.4 c 0.86667,1.13333 1.43333,2.33333 1.7,3.6 2.5,13.8 4.8,30.4 4.1,45.3 -0.53333,10.93333 -1.06667,18.33333 -1.6,22.2 -0.93333,6.2 -2.7,14.3 -5.3,24.3 -2.46667,9.33333 -6.16667,18.1 -11.1,26.3 -2,3.2 -5.5,6.6 -9.4,7 -5.66667,0.66667 -11.5,1.43333 -17.5,2.3 z"
     id="path7" />
  <path
     fill="#e5c680"
     d="m 67.192885,255.8 c -0.733333,10 3.418139,23.60118 3.284806,33.46784 -0.06667,13.86667 7.785395,27.0887 10.718728,40.8887 3.666667,17 3.41967,27.64794 15.153003,44.78127 0.866667,1.26667 -0.656537,6.06219 1.543463,7.66219 0.466667,1.13333 0.466667,1.76667 0,1.9 -6.266667,-0.93333 -12.833333,-1.26667 -19.7,-1 -6.533333,-3.8 -11.333333,-8.46667 -14.4,-14 -0.8,-1.33333 -2.2,-4.16667 -4.2,-8.5 -2.5,-5.4 -3.7,-10.2 -5.7,-16.1 -0.666667,-2 -1.333333,-4.43333 -2,-7.3 -1.866667,-8.4 -3.033333,-17.06667 -3.5,-26 -1,-19.33333 0.06667,-38.5 3.2,-57.5 z"
     id="path8" />
  <path
     fill="#dfb44b"
     d="m 637.69289,255.3 c 2.3,15.5 2.3,31.1 1.3,46.4 a 168.3,168.3 0 0 1 -17,68.4 q -2.6,5 -8.7,13.8 -23.8,4.8 -46.4,14.6 -2.3,-14.7 -3.2,-22.8 -1,-9.8 -4.6,-21.7 -4,-14.2 -10,-26.5 a 74.3,74.3 0 0 1 7,-18.3 q 2.8,-5.8 6.3,-10 9.1,-10.6 17.6,-17.3 7,-5.6 18.6,-12.2 17,-9.7 39.1,-14.4 z M 97.992885,384.5 q 0.6,-0.2 0.4,-1.1 -3.8,-3.2 -5.1,-5.1 -17.6,-25.7 -23,-51.2 -4.5,-20.7 -4.4,-41.5 0.2,-14.9 1.3,-29.8 24.7,5.2 46.400005,17.6 13.8,8 24,19 l 5.9,6.4 a 78,78 0 0 1 13.4,22.4 q -10,27.1 -14.2,53.3 a 104,104 0 0 0 -0.7,21.5 c -5,-1 -9,-3 -13.7,-4.4 q -14.9,-4.8 -30.400005,-7.1 z"
     id="path9" />
  <path
     d="m 471.99289,270 -16,4.8 a 201.2,201.2 0 0 0 -50.5,20.2 c -4.8,3.2 -9.2,5.6 -13,9.4 -7,7.1 -12.4,14 -16.1,23.6 -4.6,11.9 -7,24.2 -7,37.1 l -0.6,47 c 0,3.4 0.5,8 1.7,13.7 l 10.3,-7.1 a 209.1,209.1 0 0 1 22,-12 c 10,-4.3 22.6,-10 38,-17 3.7,-1.8 6.6,-3.6 8.5,-5.3 6.5,-5.7 13.7,-13 17.5,-20.7 a 107.4,107.4 0 0 0 11,-53.6 247,247 0 0 0 -5.8,-40.1 z m -238.5,2.1 c -1.5,14.2 -3.2,28.3 -2.8,42.6 -0.3,11 1.4,22 4.4,32.5 3.9,12 9.1,24.2 18.5,33.1 7.2,7.1 17.6,9.1 26.3,13.8 10,4.6 28,12.7 34,16.5 a 861,861 0 0 0 24.5,12.4 c 2.7,1.6 3.5,-45.4 3,-60.3 a 83.3,83.3 0 0 0 -18.8,-48.3 106.9,106.9 0 0 0 -46,-31.8 c -10.4,-3.7 -21,-7.5 -32,-8.8 z"
     style="fill:#dfb44b;fill-opacity:1"
     id="path10" />
  <path
     fill="#dfb44b"
     d="m 203.49289,309.2 c 1.4,6.8 1.5,13.2 2.5,20 l 0.9,7.1 c 1,8.8 3.8,18 7.1,26.2 q 3,7.5 7.1,13.3 l -7.6,3.8 q -2.6,1.3 -3,2 -1,2.8 -1.2,4.6 -3,26.5 -3.4,40.2 -0.4,11.7 0.3,34.4 c 0.1,5.7 0.3,11.7 -1.2,17 -4.4,-4 -7.3,-8 -10.5,-13.2 q -7.2,-12.1 -10.2,-16.6 c -4.6,-7 -8,-13.7 -12.4,-21.2 l -4,-15 a 100.6,100.6 0 0 1 -1.5,-33.8 q 0.6,-7.7 4.1,-17.3 c 4.3,-11.8 7.9,-22 15,-30.5 q 13,-15.6 18,-21 z m 298.1,3 q 8.5,7.4 15.4,14.2 11,10.8 15.7,24.5 4,11.4 6,23.5 0.7,4.4 0.7,10 c 0,4.2 0.4,8.5 0.3,13.3 a 70,70 0 0 1 -6.4,32 q -6.2,12 -8.4,15.6 -11.6,19.4 -20.5,33.7 c -1,-10.6 -1.3,-19.6 -1,-29.8 q 0.7,-22.8 -0.3,-48.2 c -0.4,-7.6 -0.6,-15.6 -8.6,-19.1 q -2.7,-1.2 -5,-2.7 c 4.7,-14.2 9,-23 10.1,-36.4 q 1.3,-14.4 1.8,-30 0,-0.4 0.2,-0.6 z"
     id="path11" />
  <path
     d="m 473.59289,407 -16.7,5.1 c -6.5,2 -12.5,4.2 -17.9,6.5 -8.87359,3.7576 -17.58162,7.89475 -26.1,12.4 -8.81359,4.42903 -16.77049,10.38824 -23.5,17.6 -14.59258,16.43157 -22.32395,37.83604 -21.6,59.8 0.2,17 0.6,34.1 1.2,51.4 l 21.8,-6.6 c 15.3,-5 28,-9 41,-17.2 6,-3.8 12.8,-10 18.1,-14.3 3.68878,-2.90182 6.80807,-6.46189 9.2,-10.5 8.22248,-11.9878 13.68676,-25.6485 16,-40 0.8,-7.3 1.1,-14.1 1,-20.6 -0.1,-14.6 -1,-29.2 -2.5,-43.6 z m 162.1,1.2 c -7.7,0 -13,0.1 -15.7,0.3 -7.8,0.4 -15.5,2 -23.2,4.8 -5,1.8 -10.6,4.4 -16.8,7.6 -7.22683,3.71357 -13.72963,8.69227 -19.2,14.7 -2.2,2.6 -4.5,6 -6.6,8.6 -1.5,2 -3,4.3 -4.5,6.7 -4,7 -7.8,13.1 -11.6,20.5 -6.5,12.9 -12.1,25 -17,36.6 24.4,-2.2 47.6,-2 72.1,3.8 3,0.5 6.7,1.6 11.5,3.3 4.4,1.5 9.8,2 16.3,1.8 4,-0.2 9,-2.3 11.7,-4 6.36077,-3.95564 12.03501,-8.9206 16.8,-14.7 l 5.2,-6.3 c 8.49676,-10.52787 15.96428,-21.84635 22.3,-33.8 6,-11.5 11.6,-24 16.7,-37.3 l -17.4,-6.1 c -13.14859,-4.11525 -26.82384,-6.30464 -40.6,-6.5 z m -403.4,0.5 c -0.29737,6.73904 -0.69742,13.47315 -1.2,20.2 -0.5,6 -0.3,14.5 -0.5,18.7 -0.2,3.7 0,8.4 0.7,14 l 1.8,14.1 c 3,16.8 10.6,32 22.8,45.3 3.8,4.2 8.4,8 13.8,11.3 13,8 27,14.7 41.8,18.5 9,2.4 18.4,3.6 28.2,3.5 0.71383,-15.65765 1.14723,-31.32683 1.3,-47 -0.11594,-11.69928 -2.56366,-23.25798 -7.2,-34 -4.50625,-12.07632 -12.04882,-22.78746 -21.9,-31.1 -7.2,-5.6 -15,-10.8 -23.3,-15.4 -12,-6.7 -25,-11.8 -39,-15.2 z m 70.5,135.8 0.3,0.5 z M 64.892885,408.1 c -3.785408,0.0688 -7.561333,0.40299 -11.3,1 -5.4,1 -12.2,1.9 -18.4,3.5 -2.370185,0.62011 -4.736889,1.25345 -7.1,1.9 l -16,6.1 c 9.147579,25.54705 22.239519,49.50395 38.8,71 8.085799,10.93865 19.216149,19.25163 32,23.9 4.4,1.6 7.9,2.2 10.4,1.7 l 10.700005,-3 c 7.8,-2.4 16.1,-3.8 24.3,-5.1 18,-3 38,-2.6 57.6,-3 -6.4,-10.9 -11.7,-22.4 -18.1,-34.7 -3.2,-6.1 -5.7,-11.2 -7.7,-15.5 -6.07145,-13.96164 -16.39532,-25.65036 -29.5,-33.4 -6.60085,-4.34669 -13.8137,-7.68347 -21.4,-9.9 -14.600005,-3.5 -29.400005,-5 -44.300005,-4.5 z M 552.59289,531.8 c -16.84992,-0.43828 -33.55657,3.19808 -48.7,10.6 -3.8,1.8 -8.4,5 -13.6,9.5 -2.05331,2.97627 -4.02079,6.01085 -5.9,9.1 -6.66519,11.07688 -13.0013,22.34847 -19,33.8 -3.9,7.4 -8.7,14.8 -13.1,22.2 l -1.3,4.6 c 10.3,5.6 22,8.7 33.6,12 9.1,2.8 19.7,4 31.6,3.5 17,-0.5 32.2,-5.3 45.7,-14.3 14,-9.3 25.2,-21 34.5,-34.2 4.7,-6.6 7,-9.6 10.5,-15.5 5.4,-9 10,-18 14,-27.2 -5.64391,-2.78428 -11.58056,-4.93086 -17.7,-6.4 -16.45485,-4.77981 -33.46819,-7.36879 -50.6,-7.7 z m -393.3,-0.1 c -3.6,0 -7.4,0 -11.5,0.3 -15.80623,1.15267 -31.38228,4.44955 -46.3,9.8 l -16.500005,7.8 c 5.5,9.7 11.2,19.2 17.200005,28.2 6.2,9.5 12.6,17.7 19.8,25.8 3.94088,4.49585 8.29312,8.61374 13,12.3 l 10.3,7.6 c 2.6,2 7,4.3 13.2,7.3 23.8,11.2 52.6,5.4 76.4,-2.5 1.9,-0.7 3.7,-1.4 5.4,-2.3 3.5,-1.8 7.3,-2.9 11,-4.7 l 4.8,-5 c -1.13583,-2.79722 -2.54252,-5.47664 -4.2,-8 -5.6,-8 -11,-17.1 -16.3,-27.1 -3.9,-7.5 -8.7,-16.3 -13.2,-23 -1.63889,-2.47409 -3.66472,-4.66873 -6,-6.5 -16.42664,-12.49008 -36.37054,-19.48794 -57,-20 z"
     style="fill:#dfb44b;fill-opacity:1"
     id="path12" />
  <path
     fill="#dfb44b"
     d="m 466.19289,542 q -5.3,9.4 -8.6,14.1 -4.1,6 -8.7,14 l -19.1,33.4 q -2.7,-1.6 -8,-5.2 -1.9,-1.2 -3,-2.5 -2.8,-3 -10,-11.3 -2.7,-3 -4.8,-6.5 1,-2.1 3.4,-3.2 l 16,-6.8 q 10.4,-4.4 15.8,-7.4 13.6,-7.7 27,-18.6 z m -219.8,6 q 10.4,7.5 22.9,14.5 c 6.6,3.8 14.5,7 21,9.8 q 4,1.7 9.8,2.8 -6.2,14.7 -17.8,25.6 a 7,7 0 0 1 -4.4,-3.2 c -5,-8 -9.9,-14.5 -14.8,-22 l -15.1,-23.5 -2.3,-3.3 z"
     id="path13" />
</svg>
