<svg xmlns="http://www.w3.org/2000/svg" width="346" height="400">
    <style>
        .st2{fill:#7a8f99}.st4{fill:#7b6a58}.st23{fill:#e7fff1}.st27{fill:#e9f4ec}.st47{fill:#b9c7c9}.st60{fill:#bac8ca}.st75{fill:#5b7776}.st199{fill:#94bfac}.st236{display:inline}.st239{fill:#9fa5a5}.st358{display:none}</style>
    <g id="Hexagons">
        <g id="Ore">
            <radialGradient id="SVGID_3_" cx="173" cy="200" r="187.1" gradientUnits="userSpaceOnUse">
                <stop offset="0" stop-color="#b7bdb9" />
                <stop offset=".3" stop-color="#aeb4b0" />
                <stop offset=".9" stop-color="#969c98" />
                <stop offset="1" stop-color="#909692" />
            </radialGradient>
            <path fill="url(#SVGID_3_)" d="M-.2 100v200L173 400l173.2-100V100L173 0z" />
            <linearGradient id="SVGID_4_" gradientUnits="userSpaceOnUse" x1="173" y1="400" x2="173"
                y2="0">
                <stop offset="0" stop-color="#d2d9d5" />
                <stop offset=".1" stop-color="#c8ceca" />
                <stop offset=".3" stop-color="#b1b6b3" />
                <stop offset=".5" stop-color="#a8adaa" />
                <stop offset=".7" stop-color="#636664" />
            </linearGradient>
            <linearGradient id="SVGID_5_" gradientUnits="userSpaceOnUse" x1="173" y1="0" x2="173"
                y2="400">
                <stop offset="0" stop-color="#d2d9d5" />
                <stop offset=".1" stop-color="#c8ceca" />
                <stop offset=".3" stop-color="#b1b6b3" />
                <stop offset=".5" stop-color="#a8adaa" />
                <stop offset=".7" stop-color="#636664" />
                <stop offset="1" stop-color="#a8adaa" />
            </linearGradient>
            <path class="st4"
                d="M82.1 135.8c-1.6 0-3.1.4-4.4 1.1a11.4 11.4 0 00-11-7.3c-6.2 0-11.4 4.7-11.4 10.4l.1 1.2h-.3c-5.3 0-9.6 3.4-9.6 7.5s4.4 5.9 9.7 5.9c4.6 0 7.1-1.3 9.3-4.5.8.2 3.6-1.8 4.3-1.8 2.4-.2 4.4-.6 7-2 1.9.8 4.8.3 7.4.3 4.4 0 6.9-.8 6.9-4.3s-3.6-6.5-8-6.5zM266.8 138.6a15 15 0 0114.4-9.8c8.3 0 15 6.3 15 14v1.7h.3c7 0 12.6 4.5 12.6 10s-5.7 8-12.7 8c-6.1 0-9.4-1.8-12.3-6-1 .2-4.6-2.5-5.6-2.5-3-.3-5.7-.8-9.2-2.7-5.8-1.6-3.7-13.3-2.5-12.7z" />
            <path class="st60"
                d="M54.5 141.5c-4 0-8.1 2.6-8.1 5.2s3.6 6.5 7.3 4.8c6.3-3 7.2-3.3 7.2-6s-2.4-4-6.4-4z" />
            <path class="st60"
                d="M66.3 130c-5.4 0-10.1 3.4-10.1 6.6s4.6 7.4 9.8 5.9c4.3-1.3 6.1-3 9.8-5.9 2.5-2-4-6.6-9.5-6.6zM82.7 136c-2.2-.1-4.7.1-5 2.1-.2 2.6 2 1.8 5 1.8s6 1.4 6-.5-3.6-3.3-6-3.4zM296.3 143c5.1-.5 10.6 2.6 10.9 6.2.3 3.7-3.9 9.4-8.7 7.4-8.3-3.4-9.5-3.7-9.9-7.3s2.5-5.9 7.7-6.3zM280 128.4c6.8-.6 13.2 3.5 13.6 8 .4 4.4-5 10.6-11.7 9.1-5.6-1.2-8.2-3.4-13.2-7-3.4-2.4 4.4-9.5 11.3-10.1z" />
            <g>
                <path class="st27"
                    d="M162.2 125.4a16.2 16.2 0 01-11.6-4.6c-4.4-3.7-8-8-11-12.8-1.8-3.1-5.8-15-3-20.8 2.6-5.5 7.5-9.3 11.5-12A17 17 0 01157 72c1.1 0 2.2.2 3.2.6 2.3 1 3.8 2.7 5.1 4.2L178 91c2.6 3 5.3 6 7.5 9.5.8 1.2 1.6 2.8 2 4.6.5 2.5-.2 5.4-2 8.3a27 27 0 01-19.6 11.7l-3.6.3z" />
                <path class="st4"
                    d="M157 74c.8 0 1.7 0 2.5.4 1.7.7 3 2.2 4.3 3.6l12.6 14.4c2.6 2.9 5.2 5.8 7.3 9.1.7 1.2 1.5 2.5 1.7 4a10 10 0 01-1.6 6.9 25 25 0 01-18.3 10.7c-1 .2-2.2.3-3.3.3-1.7 0-3.4-.2-5-.8-2-.8-3.7-2-5.3-3.4a49 49 0 01-10.6-12.3c-1.9-3.1-5.1-14.2-2.9-18.9 2.3-4.7 6.5-8.2 10.8-11a15 15 0 017.8-3m0-4c-4 0-7.6 2-10 3.6a33.3 33.3 0 00-12.2 12.7c-3.3 6.8 1.2 19.6 3.1 22.7 3 5 6.9 9.5 11.4 13.3 1.7 1.3 3.9 3 6.6 4 1.9.7 4 1 6.3 1 1.2 0 2.5 0 3.9-.2 9.2-1.2 17-5.9 21-12.7 2-3.3 2.8-6.7 2.3-9.7-.5-2.1-1.4-3.9-2.4-5.3-2.2-3.6-5-6.7-7.6-9.7l-12.6-14.3a15.9 15.9 0 00-5.8-4.7c-1.3-.5-2.6-.8-4-.8z" />
                <path class="st239"
                    d="M183.7 112.3a10 10 0 001.7-6.9c-.3-1.4-1-2.7-1.7-3.9-.4 3-14-1-16.7 0-5 1.7-4.8 8.8-10.6 8-7-1-14-3.9-18.7-14 0 10.1 10 20.2 14.2 23.7 1.6 1.3 3.4 2.6 5.3 3.3 2.7 1 5.6 1 8.3.6a25 25 0 0018.2-10.8z" />
            </g>
            <g>
                <path class="st27"
                    d="M139.8 135.8a31.5 31.5 0 01-13.9-3.1c-3.4-1.7-6-4.5-6.9-7.7a37.5 37.5 0 01.7-15.3c.7-2.5 2.3-6 5.4-8.3.2-.2 1.8-1.2 3.9-1.2l1.4.1c2.3.7 4 2.4 5.4 4l6.1 7.4 2.8 3.6c1.7 2.2 3.7 4.7 4.6 7.7a10 10 0 01-1.6 9.8 9.8 9.8 0 01-6.3 3h-1.6z" />
                <path class="st4"
                    d="M129 102.2h.8c1.9.6 3.2 2 4.5 3.4 2.1 2.4 4 4.9 6 7.4l2.8 3.5c1.7 2.2 3.5 4.5 4.3 7 .9 2.7.7 5.9-1.2 8a7.9 7.9 0 01-5 2.3h-1.4c-1.4 0-2.9-.2-4.3-.4-3-.5-6-1.1-8.6-2.5-2.7-1.3-5-3.6-6-6.5a35.7 35.7 0 01.7-14.2c.9-2.8 2.4-5.4 4.7-7.2 0 0 1.2-.8 2.7-.8m0-4a9.2 9.2 0 00-5 1.5l-.1.1c-2.8 2.1-5 5.3-6.1 9.3a39.2 39.2 0 00-.7 16.5c1.1 3.7 4 6.9 8 8.9 3.2 1.7 6.7 2.3 9.7 2.8a30.5 30.5 0 006.8.4c3.1-.3 5.8-1.6 7.6-3.6a12 12 0 002-11.7c-1-3.4-3.1-6-5-8.3l-2.7-3.6c-2-2.5-4-5.1-6.2-7.6a13.2 13.2 0 00-6.4-4.5c-.7-.2-1.3-.2-2-.2z" />
                <path class="st239"
                    d="M143.1 116.5l-2.7-3.5-6.1-7.5c-1.3-1.4 6.4 9.2 6.4 14.5 0 5.2-.2 7.5-3 9.2-2.8 2-6.2-.1-11-2-4.8-2-6.2-9.6-6.3-7.7-.2 4.4 1 8.8 6.4 11.4 4 1.9 5.7 2 8.7 2.5 1.9.3 3.8.5 5.7.3 1.9-.2 3.8-.9 5-2.3 1.9-2 2-5.2 1.2-7.8-.8-2.7-2.6-5-4.3-7z" />
            </g>
            <g>
                <path class="st27"
                    d="M224.7 129.6c-2 0-4-.7-6.2-2.2l-1.7-1c-1-.8-2-1.5-3.1-2l-1-.4c-1.4-.6-2.9-1.1-4-2.5-1.4-1.7-1.8-4.2-1-7 1.1-4.3 4.3-7.6 6.6-9.7l2.4-2.3h.2c1.1-.7 2.5-1 4.2-1.2h1.3c4.6 0 9 1.7 11.8 5a13 13 0 012.2 14 19 19 0 01-2.3 3.4c-2 2.6-5 5.6-9 5.8h-.4z" />
                <path class="st4"
                    d="M222.4 103.2c3.8 0 7.7 1.5 10.3 4.4a11 11 0 011.9 11.7l-2 3.1c-2 2.5-4.4 5-7.5 5.1h-.4a10 10 0 01-5.2-1.8c-1.6-1-3.2-2.3-5-3.1-1.5-.7-3.2-1.1-4.2-2.4-1.2-1.4-1.2-3.4-.7-5.2 1-3.4 3.4-6.3 6-8.7l2.3-2.1c1-.6 2.2-.8 3.3-1h1.2m0-4h-1.5c-2 .2-3.6.7-5 1.5l-.4.2-.3.3-2.3 2.2a23.4 23.4 0 00-7.2 10.6c-1 3.4-.4 6.6 1.5 8.8a11 11 0 004.7 3l1 .4c.9.4 1.8 1 2.8 1.8l1.7 1a13.7 13.7 0 007.9 2.5c4.7-.2 8-3.7 10.4-6.6a15 15 0 000-20c-3.3-3.6-8.1-5.7-13.3-5.7z" />
                <path class="st239"
                    d="M233.2 107.8c-3.3-2.6-.1 2.4-1.5 4.3-.6 1-2.8 3.5-5 2.7l-7.7-.4c-3 1-8.2-2.5-9.2 1-.5 1.7-.9 3.3.3 4.7 1 1.2 3.6 2 5 2.7 1.9.8 3.4 2.2 5 3.3 1.7 1 3.4 1.4 5.3 1.3 3.2-.1 5.6-2.7 7.5-5.1.8-1 1.5-2 2-3 2-3.9 1.6-8.8-1.7-11.5z" />
            </g>
            <g>
                <path class="st27"
                    d="M195.1 107.7a9.3 9.3 0 01-6.9-3c-.8-.8-1.4-1.6-2-2.5l-6.2-8.6c-1.5-2-3-4.2-4.1-6.7-1.3-3-1.7-6-1-8.6.6-2.9 2.8-5.2 3-5.5l.2-.2.2-.1c2-1.3 4.6-2 7.5-2h.2c2.5 0 4.8.5 7.3 1 3.9 1 7.3 1.8 10.4 3.9 1.5 1 2.8 2.3 4 3.4.8.9 1.9 1.9 2.4 3.3.6 1.5.6 3 .5 4 0 2.2-.2 4.2-.4 6.2a14.2 14.2 0 01-2.6 8.2 16 16 0 01-8.5 6.6c-1.4.4-2.7.6-4 .6z" />
                <path class="st4"
                    d="M185.8 72.5h.2c2.3 0 4.6.5 7 1 3.3.8 6.7 1.6 9.6 3.5 1.3 1 2.5 2.1 3.7 3.3a8 8 0 012 2.5c.4 1 .4 2.2.3 3.3l-.3 6.1a12.3 12.3 0 01-2.3 7.2 14 14 0 01-7.4 5.8c-1.4.4-2.5.5-3.5.5a7.3 7.3 0 01-5.5-2.5c-.7-.6-1.2-1.4-1.7-2.1l-6.2-8.7c-1.5-2-3-4-4-6.3a12 12 0 01-1-7.3c.6-2.5 2.7-4.6 2.7-4.6a12 12 0 016.4-1.7m0-4a16 16 0 00-8.6 2.3l-.4.3-.3.3c-.5.5-2.9 3.2-3.6 6.5-.7 3-.3 6.4 1.2 9.8 1.1 2.7 2.8 5 4.3 7l6.2 8.7c.6.9 1.3 1.8 2.2 2.7 1.9 1.8 4.3 3.6 8.3 3.6 1.4 0 3-.2 4.6-.7a18 18 0 009.6-7.3 16.2 16.2 0 003-9.2l.3-6.2c0-1.2.1-3-.6-5-.7-1.8-2-3-2.9-3.9-1.2-1.1-2.6-2.5-4.3-3.7-3.6-2.5-7.9-3.4-11-4-2.7-.7-5.1-1.2-7.7-1.2h-.3z" />
                <path class="st239"
                    d="M177.7 86c1.4 4.4 8 12.2 10.1 15 .6.8 1.1 1.6 1.8 2.2 1.7 1.7 4 3.4 9 2a14 14 0 007.4-5.8c.7-1 1.2-2 1.6-3.1.4-1.3.5-2.7.6-4.1l.4-6.1c0-1.1 0-2.3-.3-3.3-.4-1-.7 8.5-2.4 9.4-4.3 2.1-22.3 1.8-28.2-6.1z" />
            </g>
            <g>
                <path class="st27"
                    d="M189.2 147.5c-1 0-2.1-.2-3.2-.4-2.8-.8-5.3-2.3-7-3.5a52.1 52.1 0 01-7.5-6c-4.4-4.4-6.3-8.6-5.7-12.6.4-3.2 2.5-6.2 5.7-8.4 2.6-1.8 5.6-2.8 8.3-3.6a33 33 0 006.1-3.6l1.1-1a11.6 11.6 0 019-4c2.3 0 4.7.5 6.9 1.6 3.8 2 6.8 5.2 9.5 8.5 2 2.3 4.1 5.1 5.4 8.5 1.8 4.6 1.7 9.8-.3 14.4-.4.9-1 2.1-2.2 3.2-1.5 1.4-3.4 2-5.1 2.4-2.5.6-5 1-7.6 1H201c-1.5 0-3 0-4.2.6l-1 .7-1.3.8c-1.5.9-3.4 1.4-5.3 1.4z" />
                <path class="st4"
                    d="M196 106.4c2 0 4.1.5 6 1.4 3.5 1.8 6.3 4.9 8.9 8 2 2.4 3.9 5 5 7.9a17 17 0 01-.3 12.9 8 8 0 01-1.7 2.5 9 9 0 01-4.2 2c-2.3.5-4.7.8-7.1.9h-1.5a11 11 0 00-5.2.8l-2.4 1.6c-1.3.7-2.8 1-4.3 1-1 0-1.8 0-2.7-.3-2.3-.6-4.5-1.8-6.5-3.1a50 50 0 01-7.1-6c-3-2.8-5.7-6.6-5.1-10.7.3-3 2.4-5.4 4.8-7 2.4-1.7 5.2-2.6 8-3.5 0 0 4.5-2 6.6-4 1.1-.9 2.1-2 3.3-2.8a9.6 9.6 0 015.5-1.6m0-4a13.6 13.6 0 00-10.4 4.5l-1 1c-1.2 1-4 2.4-5.5 3.2-2.8.9-6 2-8.8 3.9-3.6 2.4-6 6-6.5 9.7-.6 4.7 1.5 9.5 6.3 14.2a54 54 0 007.7 6.4c2 1.3 4.6 3 7.7 3.7 1.2.3 2.5.5 3.7.5 2.3 0 4.4-.6 6.3-1.6l1.4-1 .8-.5c.8-.4 2.1-.4 3.3-.4h1.6c2.7 0 5.4-.4 8-1 1.9-.5 4.2-1.2 6-3 1.4-1.3 2.2-2.8 2.7-3.8 2.2-5 2.4-10.8.4-16a33.4 33.4 0 00-5.8-9c-2.8-3.4-6-6.8-10.2-9a17.4 17.4 0 00-7.7-1.8z" />
                <path class="st239"
                    d="M211.2 115.9c-2.5-3.1-3.6-4-5-5.2-3-2.7 8.9 13.7 5.5 16-1.2.8-4 2.8-5.1 3.8-2.2 1.8-14.3 3-14.3 3-2.8.8-8.7-.9-14.2-4-2.6-1.5-10-7-10.4-4.1-.5 4.1 2.2 8 5.2 10.8 2.2 2.2 4.7 4.2 7.3 5.9a21 21 0 006.5 3.1c2.3.6 4.9.5 7-.7.9-.5 1.6-1.1 2.5-1.5 2-1 4.4-.9 6.7-1a33 33 0 007.2-.8c1.5-.3 3.1-.8 4.3-2a8 8 0 001.7-2.5c1.8-4 1.9-8.8.3-12.9-1.2-3-3.1-5.5-5.2-8z" />
            </g>
        </g>
    </g>
</svg>