<svg version="1.1" xmlns="http://www.w3.org/2000/svg" style="display: block;" viewBox="0 0 1536 1572" width="384" height="393" preserveAspectRatio="none">
<defs>
	<linearGradient id="Gradient1" gradientUnits="userSpaceOnUse" x1="109.878" y1="1081.28" x2="436.184" y2="794.519">
		<stop class="stop0" offset="0" stop-opacity="1" stop-color="rgb(85,91,122)"/>
		<stop class="stop1" offset="1" stop-opacity="1" stop-color="rgb(119,126,155)"/>
	</linearGradient>
	<linearGradient id="Gradient2" gradientUnits="userSpaceOnUse" x1="725.401" y1="968.324" x2="761.667" y2="595.399">
		<stop class="stop0" offset="0" stop-opacity="1" stop-color="rgb(79,86,116)"/>
		<stop class="stop1" offset="1" stop-opacity="1" stop-color="rgb(113,119,147)"/>
	</linearGradient>
	<linearGradient id="Gradient3" gradientUnits="userSpaceOnUse" x1="1098.21" y1="689.62" x2="769.889" y2="362.513">
		<stop class="stop0" offset="0" stop-opacity="1" stop-color="rgb(118,123,150)"/>
		<stop class="stop1" offset="1" stop-opacity="1" stop-color="rgb(177,182,212)"/>
	</linearGradient>
	<linearGradient id="Gradient4" gradientUnits="userSpaceOnUse" x1="977.486" y1="610.826" x2="763.339" y2="103.435">
		<stop class="stop0" offset="0" stop-opacity="1" stop-color="rgb(87,94,125)"/>
		<stop class="stop1" offset="1" stop-opacity="1" stop-color="rgb(124,129,152)"/>
	</linearGradient>
	<linearGradient id="Gradient5" gradientUnits="userSpaceOnUse" x1="1172.81" y1="1304.02" x2="348.46" y2="252.12">
		<stop class="stop0" offset="0" stop-opacity="1" stop-color="rgb(59,66,94)"/>
		<stop class="stop1" offset="1" stop-opacity="1" stop-color="rgb(88,94,122)"/>
	</linearGradient>
</defs>
<path transform="translate(0,0)" fill="rgb(250,243,233)" d="M 116.749 1221.9 C 90.4938 1202.06 69.1267 1187.59 65.886 1151.97 C 61.515 1103.15 64.555 1053.23 64.0678 1004.19 C 64.0284 1000.23 64.7206 994.48 65.1813 990.57 C 69.7794 951.551 68.3746 912.198 64.3117 873.212 C 63.4957 865.382 65.1251 854.236 65.0161 845.894 L 63.7066 743.34 C 63.041 708.357 56.9129 673.131 60.1138 637.612 C 61.2639 624.85 63.113 612.102 63.234 599.325 C 63.2212 588.999 61.4604 578.781 61.2272 568.973 C 60.7403 548.489 60.0966 529.419 61.3961 508.913 C 61.8533 501.697 60.134 489.771 60.3518 481.46 C 60.6683 469.383 62.1017 457.891 62.6237 446.03 C 63.0296 436.808 59.566 424.244 60.3181 414.448 C 61.7007 396.273 68.3406 378.893 79.4284 364.426 C 85.0733 357.076 92.5354 350.312 100.716 345.823 C 160.527 313.001 221.225 281.892 281.182 249.309 C 286.208 246.578 291.331 244.096 296.309 241.301 L 402.833 181.899 C 448.707 155.933 492.396 129.907 540.444 107.863 C 568.975 93.5881 596.297 76.735 625.095 62.9987 C 647.064 52.5199 669.476 33.716 691.397 24.4273 C 721.706 11.584 760.286 -5.00679 792.155 10.0685 C 825.623 25.9 856.747 44.826 889.206 62.0107 L 1081.61 162.649 L 1288.49 272.053 C 1314.33 285.585 1341.06 296.221 1365.88 311.804 C 1391.21 327.713 1418.69 340.753 1442.55 358.955 C 1472.44 381.475 1468.5 427.953 1468.43 461.466 L 1468.31 539.307 L 1468.27 791.863 C 1468.24 798.939 1468.4 807.231 1467.42 814.212 C 1465.85 825.339 1464.08 834.292 1464.35 845.597 C 1467.77 849.24 1473 855.146 1476.57 858.284 C 1476.01 928.222 1475.85 998.163 1476.11 1068.1 L 1476.23 1121.84 C 1476.32 1164.13 1476.43 1180.38 1443.74 1212.71 C 1424.26 1234.1 1396.13 1241.99 1371.66 1255.99 C 1320.59 1285.2 1266.52 1309.43 1215.46 1338.67 C 1168.38 1365.63 1121.05 1391.91 1073.59 1418.17 C 1040.69 1436.36 1006.64 1452.65 973.742 1471.12 L 875.909 1525.73 C 848.738 1540.97 822.9 1557.93 793.021 1567.38 C 788.804 1568.72 784.265 1570.18 780.244 1572 L 745.438 1572 C 710.95 1558.87 683.052 1544.63 650.621 1526.97 C 587.594 1492.65 524.85 1457.86 461.372 1424.34 C 449.086 1417.85 437.135 1410.11 424.852 1403.54 L 293.292 1333.97 C 282.914 1328.55 216.708 1295.71 212.292 1290.76 C 212.801 1285.78 216.047 1290.48 213.644 1285.9 C 187.653 1272.26 162.573 1257.53 136.279 1244.73 C 128.739 1241.06 114.88 1233.07 107.522 1230.26 C 110.362 1227.53 113.618 1224.18 116.749 1221.9 z"/>
<path transform="translate(0,0)" fill="url(#Gradient5)" d="M 136.469 1138.72 C 135.072 1118.41 136.063 1085.29 136.258 1064.07 C 136.62 1025.49 136.776 986.917 136.726 948.34 L 137.148 538.355 C 137.166 506.893 135.176 446.57 137.899 417.656 C 138.752 408.586 243.6 355.258 256.912 348.084 L 529.937 202.381 C 571.393 179.907 612.884 158.023 654.345 135.309 C 684.331 118.882 716.078 99.1587 747.501 86.0447 C 765.978 78.3333 785.625 90.1423 803.119 98.4273 L 1055.93 234.94 C 1073.04 244.143 1089.9 255.34 1106.97 264.209 L 1281.35 355.519 C 1309.97 370.696 1339.06 385.263 1367 401.824 C 1377.63 408.129 1383.24 412.609 1390.26 422.555 C 1394.99 433.934 1393.06 569.987 1393.07 590.679 L 1393.13 883.699 C 1393.19 944.655 1394.84 1006 1393.46 1067 C 1393.11 1082.69 1393.19 1122.03 1389.47 1135.95 C 1377.02 1150.34 1351.45 1164.56 1334.57 1173.22 C 1308.55 1186.57 1282.82 1200.3 1257 1214 L 994.655 1352.38 C 946.043 1378.49 897.076 1407.15 848.239 1433.14 C 821.341 1447.45 788.416 1467.62 760.682 1479.13 L 553.67 1366.33 C 539.953 1358.97 520.72 1350.02 507.885 1342.38 C 483.503 1328.07 460.054 1313.14 434.947 1300.03 C 374.845 1268.65 312.59 1238.98 252.875 1206.97 C 223.241 1191.09 156.01 1162.46 136.469 1138.72 z"/>
<path transform="translate(0,0)" fill="url(#Gradient4)" d="M 803.119 98.4273 L 1055.93 234.94 C 1073.04 244.143 1089.9 255.34 1106.97 264.209 L 1281.35 355.519 C 1309.97 370.696 1339.06 385.263 1367 401.824 C 1377.63 408.129 1383.24 412.609 1390.26 422.555 C 1363.41 431.205 1349.13 451.014 1326.12 465.481 C 1315.37 473.856 1304.67 482.259 1294.15 490.955 C 1225.66 547.595 1157.08 603.984 1089.35 661.55 C 1077.37 671.739 1065.73 681.302 1054.27 692.158 C 1049.51 685.993 1039.72 682.14 1032.67 679.341 C 1004.92 668.321 975.117 661.183 946.617 652.264 C 913.955 642.043 749.914 587.39 727.12 592.777 C 714.981 595.646 692.713 608.019 680.431 613.472 C 654.398 625.03 627.73 635.341 601.55 646.621 C 586.894 652.936 572.365 660.767 557.571 666.502 C 554.848 667.557 554.1 667.662 551.271 666.945 C 555.555 653.6 561.89 639.732 566.926 626.514 C 578.914 595.051 591.923 563.743 602.937 531.94 C 594.038 518.504 563.128 492.556 550.306 480.284 C 537.06 467.607 524.224 454.893 511.232 441.714 L 503.688 447.497 C 497.805 440.393 480.791 432.781 473.778 426.116 C 447.89 401.512 372.068 346.737 363 313.801 C 365.373 312.7 367.638 311.733 370.05 310.721 C 418.185 291.363 458.627 261.771 503.805 238.083 C 566.747 205.081 629.791 171.316 692.62 138.13 C 710.279 128.803 740.449 107.488 757.123 102.159 C 764.897 99.7663 784.82 111.659 795.776 105.227 C 800.439 102.489 801.687 102.863 803.119 98.4273 z"/>
<path transform="translate(0,0)" fill="url(#Gradient3)" d="M 602.937 531.94 C 615.295 504.473 652.077 510.767 678.235 505.483 C 746.399 491.714 815.291 483.953 883.932 473.656 C 973.545 459.857 1063.06 445.445 1152.48 430.421 C 1195.12 423.136 1238.73 413.712 1281.46 406.263 C 1296.46 403.648 1307.02 397.232 1324.24 396.615 L 1321.23 398.369 C 1321.08 405.283 1327.44 418.417 1327.64 424.321 C 1327.91 432.446 1326.27 456.545 1321.78 462.316 C 1322.86 463.186 1323.23 463.737 1323.98 464.862 C 1325.24 464.748 1324.71 464.806 1326.12 465.481 C 1315.37 473.856 1304.67 482.259 1294.15 490.955 C 1225.66 547.595 1157.08 603.984 1089.35 661.55 C 1077.37 671.739 1065.73 681.302 1054.27 692.158 C 1049.51 685.993 1039.72 682.14 1032.67 679.341 C 1004.92 668.321 975.117 661.183 946.617 652.264 C 913.955 642.043 749.914 587.39 727.12 592.777 C 714.981 595.646 692.713 608.019 680.431 613.472 C 654.398 625.03 627.73 635.341 601.55 646.621 C 586.894 652.936 572.365 660.767 557.571 666.502 C 554.848 667.557 554.1 667.662 551.271 666.945 C 555.555 653.6 561.89 639.732 566.926 626.514 C 578.914 595.051 591.923 563.743 602.937 531.94 z"/>
<path transform="translate(0,0)" fill="rgb(133,138,163)" d="M 370.05 310.721 C 418.185 291.363 458.627 261.771 503.805 238.083 C 566.747 205.081 629.791 171.316 692.62 138.13 C 710.279 128.803 740.449 107.488 757.123 102.159 C 759.455 104.701 759.29 103.708 759.388 107.613 C 759.661 118.489 759.258 129.505 759.374 140.398 L 760.282 228.858 L 761.228 330.022 C 761.741 359.482 765.703 417.196 758.393 444.212 C 731.903 439.888 690.274 423.532 663.772 414.485 C 591.075 389.666 522.068 357.429 447.99 336.275 C 437.506 333.281 373.083 314.265 370.05 310.721 z"/>
<path transform="translate(0,0)" fill="url(#Gradient2)" d="M 551.271 666.945 C 554.1 667.662 554.848 667.557 557.571 666.502 C 572.365 660.767 586.894 652.936 601.55 646.621 C 627.73 635.341 654.398 625.03 680.431 613.472 C 692.713 608.019 714.981 595.646 727.12 592.777 C 749.914 587.39 913.955 642.043 946.617 652.264 C 975.117 661.183 1004.92 668.321 1032.67 679.341 C 1039.72 682.14 1049.51 685.993 1054.27 692.158 C 1051.21 696.283 1047.8 739.104 1046.69 748.068 C 1040.66 792.997 1035.14 837.993 1030.15 883.049 C 1026.32 917.901 1018.6 966.236 1018.96 999.679 C 991.981 996.278 973.581 983.127 948.836 974.685 C 855.434 942.819 760.928 914.054 666.795 884.388 C 610.143 866.534 554.119 844.679 497.239 827.183 C 485.119 823.455 472.76 818.559 461.28 813.245 C 456.231 810.824 447.629 803.453 444.87 803.426 C 443.764 805.538 443.919 807.366 443.801 809.772 C 443.087 808.124 442.932 799.579 442.826 797.205 C 438.167 797.23 433.411 797.007 428.748 796.853 C 431.821 796.305 437.408 796.303 440.715 796.2 C 473.504 762.9 517.205 729.029 543.103 690.127 C 546.755 684.642 549.152 673.456 551.271 666.945 z"/>
<path transform="translate(0,0)" fill="url(#Gradient1)" d="M 163.751 794.148 C 224.548 794.087 286.464 797.902 346.933 798.115 C 374.883 798.374 400.941 797.275 428.748 796.853 C 433.411 797.007 438.167 797.23 442.826 797.205 C 442.932 799.579 443.087 808.124 443.801 809.772 L 444.188 1030.5 C 418.742 1039.08 385.153 1055.5 360.559 1066.82 L 237.502 1122.98 C 221.999 1130.11 207.167 1138.18 191.493 1145.02 C 178.835 1150.55 176.377 1150.83 163.556 1145.75 C 161.94 1129.74 162.173 1110.11 162.177 1093.91 L 162.212 1022.37 C 161.957 948.332 160.793 867.763 163.751 794.148 z"/>
<path transform="translate(0,0)" fill="rgb(47,53,77)" d="M 503.688 447.497 L 511.232 441.714 C 524.224 454.893 537.06 467.607 550.306 480.284 C 563.128 492.556 594.038 518.504 602.937 531.94 C 591.923 563.743 578.914 595.051 566.926 626.514 C 561.89 639.732 555.555 653.6 551.271 666.945 C 549.152 673.456 546.755 684.642 543.103 690.127 C 517.205 729.029 473.504 762.9 440.715 796.2 C 437.408 796.303 431.821 796.305 428.748 796.853 C 400.941 797.275 374.883 798.374 346.933 798.115 C 352.947 746.659 346.665 678.011 344.227 625.654 C 343.875 618.102 338.823 587.343 342.104 582.622 C 395.671 544.981 454.516 490.863 503.688 447.497 z"/>
<path transform="translate(0,0)" fill="rgb(133,138,163)" d="M 363 313.801 C 372.068 346.737 447.89 401.512 473.778 426.116 C 480.791 432.781 497.805 440.393 503.688 447.497 C 454.516 490.863 395.671 544.981 342.104 582.622 C 341.651 582.563 341.199 582.504 340.746 582.444 C 328.626 575.141 317.742 564.815 305.836 556.713 C 272.55 534.064 239.433 511.502 207.083 487.508 C 194.698 478.321 181.497 469.83 169.398 460.249 C 155.942 449.594 147.26 440.554 166.17 428.849 C 179.816 420.163 193.648 412.598 207.511 404.613 L 279.509 362.903 C 294.062 354.444 308.857 345.969 323.254 337.274 C 336.785 329.103 348.603 320.652 363 313.801 z"/>
</svg>