<svg xmlns="http://www.w3.org/2000/svg" width="80" height="240" viewBox="0 0 80 240" fill="none">
  <defs>
    <linearGradient id="sandbarBase" x1="40" y1="8" x2="40" y2="232" gradientUnits="userSpaceOnUse">
      <stop offset="0" stop-color="#E3B35E"/>
      <stop offset="1" stop-color="#C98931"/>
    </linearGradient>
    <linearGradient id="sandbarHighlight" x1="40" y1="24" x2="40" y2="216" gradientUnits="userSpaceOnUse">
      <stop offset="0" stop-color="rgba(255,255,255,0.48)"/>
      <stop offset="1" stop-color="rgba(255,255,255,0.08)"/>
    </linearGradient>
  </defs>
  <path
    d="M17 9C19.4 6.6 23 5 26.5 5H53.5C57 5 60.6 6.6 63 9L68.5 14.5C71 17 72.5 20.3 72.5 23.8V216.2C72.5 219.7 71 223 68.5 225.5L63 231C60.6 233.4 57 235 53.5 235H26.5C23 235 19.4 233.4 17 231L11.5 225.5C9 223 7.5 219.7 7.5 216.2V23.8C7.5 20.3 9 17 11.5 14.5L17 9Z"
    fill="url(#sandbarBase)"
  />
  <path
    d="M22 17C23.7 15.4 26.1 14.2 28.7 14.2H51.3C53.9 14.2 56.3 15.4 58 17L61.2 20.2C62.9 21.9 64 24.2 64 26.6V213.4C64 215.8 62.9 218.1 61.2 219.8L58 223C56.3 224.6 53.9 225.8 51.3 225.8H28.7C26.1 225.8 23.7 224.6 22 223L18.8 219.8C17.1 218.1 16 215.8 16 213.4V26.6C16 24.2 17.1 21.9 18.8 20.2L22 17Z"
    fill="url(#sandbarHighlight)"
  />
  <path
    d="M22 16.5C23.8 14.8 26.4 13.5 29.1 13.5H50.9C53.6 13.5 56.2 14.8 58 16.5"
    stroke="rgba(255,255,255,0.62)"
    stroke-width="3"
    stroke-linecap="round"
  />
  <path
    d="M20 221C22.2 223.2 25.3 224.5 28.4 224.5H51.6C54.7 224.5 57.8 223.2 60 221"
    stroke="#B9781F"
    stroke-width="3"
    stroke-linecap="round"
    opacity="0.75"
  />
  <path
    d="M16.5 31V208"
    stroke="#B9781F"
    stroke-width="2.4"
    stroke-linecap="round"
    opacity="0.32"
  />
  <path
    d="M63.5 31V208"
    stroke="#B9781F"
    stroke-width="2.4"
    stroke-linecap="round"
    opacity="0.22"
  />
</svg>
