<svg xmlns="http://www.w3.org/2000/svg" width="346" height="400" viewBox="0 0 346 400">
  <defs>
    <path id="sheepClassicInnerHex" d="M173 15L333.2 107.5V292.5L173 385L12.8 292.5V107.5Z" />
    <path id="sheepClassicRingSplitHex" d="M173 29L321 114.4V285.6L173 371L25 285.6V114.4Z" />
    <clipPath id="sheepClassicInnerClip" clipPathUnits="userSpaceOnUse">
      <use href="#sheepClassicInnerHex" />
    </clipPath>

    <radialGradient id="sheepClassicBodyGradient" gradientUnits="userSpaceOnUse" cx="156" cy="126" r="228">
      <stop offset="0" stop-color="#d7f58a" />
      <stop offset="0.56" stop-color="#9fd75a" />
      <stop offset="1" stop-color="#5d9a2c" />
    </radialGradient>

    <linearGradient id="sheepClassicRingOuterGradient" gradientUnits="userSpaceOnUse" x1="173" y1="28" x2="173" y2="372">
      <stop offset="0" stop-color="#f4ffd7" />
      <stop offset="0.35" stop-color="#bce77a" />
      <stop offset="1" stop-color="#6ca93a" />
    </linearGradient>

    <linearGradient id="sheepClassicRingInnerGradient" gradientUnits="userSpaceOnUse" x1="173" y1="44" x2="173" y2="356">
      <stop offset="0" stop-color="#e5fcb1" />
      <stop offset="0.64" stop-color="#a8dc66" />
      <stop offset="1" stop-color="#629734" />
    </linearGradient>

    <radialGradient id="sheepClassicVignette" gradientUnits="userSpaceOnUse" cx="173" cy="226" r="196">
      <stop offset="0" stop-color="#1f3a1d" stop-opacity="0" />
      <stop offset="1" stop-color="#1f3a1d" stop-opacity="0.2" />
    </radialGradient>
  </defs>

  <path
    id="tileBorder"
    fill="#fbbf24"
    fill-rule="evenodd"
    d="M173 0L346 100V300L173 400L0 300V100Z M173 15L333.2 107.5V292.5L173 385L12.8 292.5V107.5Z"
  />

  <g id="tileArt" clip-path="url(#sheepClassicInnerClip)">
    <use href="#sheepClassicInnerHex" fill="url(#sheepClassicBodyGradient)" />

    <path
      fill="url(#sheepClassicRingOuterGradient)"
      fill-rule="evenodd"
      d="M173 15L333.2 107.5V292.5L173 385L12.8 292.5V107.5Z M173 29L321 114.4V285.6L173 371L25 285.6V114.4Z"
    />

    <path
      fill="url(#sheepClassicRingInnerGradient)"
      fill-rule="evenodd"
      d="M173 29L321 114.4V285.6L173 371L25 285.6V114.4Z M173 33.5L317 116.7V283.3L173 366.5L29 283.3V116.7Z"
    />

    <g id="ringSeparators" pointer-events="none">
      <use href="#sheepClassicInnerHex" fill="none" stroke="#4a7c2a" stroke-width="5.2" opacity="0.95" />
      <use href="#sheepClassicInnerHex" fill="none" stroke="#f0ffe4" stroke-width="1.5" opacity="0.3" />
      <use href="#sheepClassicRingSplitHex" fill="none" stroke="#3f6a24" stroke-width="2" opacity="0.56" />
      <use href="#sheepClassicRingSplitHex" fill="none" stroke="#f0ffe4" stroke-width="1" opacity="0.35" />
    </g>

    <use href="#sheepClassicInnerHex" fill="url(#sheepClassicVignette)" />
  </g>
</svg>
