<?xml version="1.0" encoding="UTF-8"?>
<!-- Generator: visioncortex VTracer 0.6.5 -->
<svg version="1.1" xmlns="http://www.w3.org/2000/svg" width="384" height="393">
<path d="M0,0 L9,0 L25,8 L44,18 L60,26 L88,41 L104,49 L117,56 L139,68 L155,76 L173,87 L178,92 L181,100 L181,211 L183,213 L183,291 L179,299 L174,304 L170,307 L131,327 L119,334 L108,340 L84,353 L68,362 L58,367 L39,378 L28,384 L14,391 L11,392 L-1,392 L-11,388 L-33,376 L-49,367 L-63,360 L-82,349 L-101,340 L-117,331 L-132,323 L-135,320 L-147,313 L-159,307 L-158,304 L-167,296 L-170,287 L-170,210 L-171,178 L-171,100 L-168,92 L-164,87 L-141,74 L-125,66 L-105,55 L-93,48 L-81,42 L-71,36 L-56,28 L-42,21 L-22,10 L-12,4 Z " fill="#575E7C" transform="translate(186,1)"/>
<path d="M0,0 L9,0 L25,8 L44,18 L60,26 L88,41 L104,49 L117,56 L139,68 L155,76 L173,87 L178,92 L181,100 L181,211 L183,213 L183,291 L179,299 L174,304 L170,307 L131,327 L119,334 L108,340 L84,353 L68,362 L58,367 L39,378 L28,384 L14,391 L11,392 L-1,392 L-11,388 L-33,376 L-49,367 L-63,360 L-82,349 L-101,340 L-117,331 L-132,323 L-135,320 L-147,313 L-159,307 L-158,304 L-167,296 L-170,287 L-170,210 L-171,178 L-171,100 L-168,92 L-164,87 L-141,74 L-125,66 L-105,55 L-93,48 L-81,42 L-71,36 L-56,28 L-42,21 L-22,10 L-12,4 Z M-144,99 L-149,102 L-151,105 L-151,286 L-144,290 L-141,290 L-141,292 L-131,297 L-123,302 L-119,302 L-119,304 L-115,304 L-115,306 L-111,306 L-111,308 L-103,311 L-86,320 L-78,324 L-76,326 L-73,326 L-73,328 L-69,328 L-69,330 L-64,332 L-58,336 L-42,344 L-39,344 L-39,346 L-24,354 L-16,358 L-13,358 L-13,360 L2,368 L8,368 L11,365 L25,358 L33,353 L37,352 L37,350 L42,350 L48,345 L59,339 L65,337 L70,333 L78,330 L87,325 L95,320 L102,317 L108,313 L114,311 L119,307 L135,299 L142,295 L148,293 L153,289 L157,288 L159,285 L163,284 L163,105 L158,103 L158,106 L155,107 L154,109 L151,110 L151,112 L146,114 L143,116 L143,118 L138,120 L133,124 L133,126 L131,126 L131,128 L129,128 L129,130 L127,130 L127,132 L123,134 L119,136 L119,138 L117,138 L117,140 L113,141 L111,142 L111,144 L109,144 L109,146 L107,146 L107,148 L105,148 L105,150 L101,151 L97,154 L97,156 L95,156 L95,158 L93,158 L93,160 L89,161 L85,164 L85,166 L83,166 L83,168 L81,168 L81,170 L75,170 L67,166 L59,166 L59,164 L53,162 L47,162 L47,160 L40,160 L40,158 L35,156 L21,153 L14,150 L3,149 L2,148 L-7,148 L-17,153 L-31,158 L-36,161 L-43,164 L-47,166 L-47,161 L-45,161 L-41,148 L-41,144 L-39,144 L-36,134 L-36,129 L-41,126 L-45,124 L-47,120 L-49,120 L-49,118 L-51,118 L-51,116 L-53,116 L-53,114 L-55,114 L-55,112 L-57,112 L-57,110 L-61,111 L-63,112 L-63,114 L-65,114 L-65,116 L-67,116 L-67,118 L-69,118 L-69,120 L-71,120 L-71,122 L-75,123 L-78,127 L-81,128 L-81,130 L-83,130 L-83,132 L-88,134 L-90,137 L-93,138 L-93,140 L-95,140 L-95,142 L-99,144 L-100,145 L-99,196 L-111,192 L-121,189 L-134,185 L-135,184 L-147,182 L-147,105 L-141,103 L-140,100 Z " fill="#6A708C" transform="translate(186,1)"/>
<path d="M0,0 L5,2 L5,181 L0,183 L-1,185 L-6,187 L-11,191 L-20,194 L-36,203 L-41,206 L-45,209 L-54,212 L-57,215 L-65,218 L-71,222 L-84,229 L-89,231 L-94,235 L-103,238 L-112,244 L-116,247 L-121,247 L-121,249 L-128,252 L-144,261 L-149,264 L-150,265 L-156,265 L-171,257 L-171,255 L-175,254 L-194,245 L-197,243 L-197,241 L-201,240 L-220,231 L-223,228 L-227,227 L-227,225 L-231,225 L-231,223 L-235,222 L-241,218 L-260,209 L-265,206 L-269,205 L-269,203 L-273,203 L-273,201 L-277,201 L-277,199 L-282,198 L-292,192 L-299,189 L-299,187 L-302,187 L-302,183 L-293,180 L-286,177 L-279,173 L-269,171 L-269,169 L-264,167 L-261,165 L-257,165 L-257,163 L-251,161 L-234,153 L-225,153 L-220,156 L-205,159 L-200,162 L-192,164 L-187,166 L-179,168 L-174,170 L-159,173 L-149,177 L-147,179 L-147,225 L-148,255 L-141,252 L-135,247 L-133,247 L-133,245 L-131,245 L-131,243 L-129,243 L-129,241 L-124,238 L-123,236 L-121,236 L-119,232 L-109,223 L-107,223 L-107,221 L-105,221 L-105,219 L-103,219 L-103,217 L-101,217 L-101,215 L-99,215 L-99,213 L-96,212 L-89,204 L-84,201 L-81,197 L-79,197 L-77,193 L-75,193 L-75,191 L-73,191 L-73,189 L-68,186 L-56,173 L-51,171 L-50,167 L-45,163 L-43,163 L-43,161 L-41,161 L-41,159 L-38,158 L-33,153 L-31,153 L-31,149 L-55,149 L-57,148 L-89,146 L-89,130 L-87,112 L-85,97 L-82,86 L-81,69 L-79,69 L-79,67 L-77,67 L-77,65 L-75,65 L-75,63 L-73,63 L-73,61 L-68,57 L-65,57 L-65,55 L-63,55 L-63,53 L-61,53 L-61,51 L-56,47 L-53,47 L-53,45 L-51,45 L-51,43 L-49,43 L-49,41 L-47,41 L-47,39 L-44,37 L-41,37 L-41,35 L-39,35 L-39,33 L-34,30 L-31,29 L-31,27 L-29,27 L-29,25 L-27,25 L-27,23 L-25,23 L-25,21 L-17,15 L-15,15 L-15,13 L-9,9 L-7,9 L-7,7 L-4,6 L-2,3 L0,3 Z " fill="#373E59" transform="translate(344,104)"/>
<path d="M0,0 L9,0 L25,8 L44,18 L60,26 L88,41 L104,49 L117,56 L139,68 L155,76 L173,87 L178,92 L181,100 L181,211 L183,213 L183,291 L179,299 L174,304 L170,307 L131,327 L119,334 L108,340 L84,353 L68,362 L58,367 L39,378 L28,384 L14,391 L11,392 L-1,392 L-11,388 L-33,376 L-49,367 L-63,360 L-82,349 L-101,340 L-117,331 L-132,323 L-135,320 L-147,313 L-159,307 L-158,304 L-167,296 L-170,287 L-170,210 L-171,178 L-171,100 L-168,92 L-164,87 L-141,74 L-125,66 L-105,55 L-93,48 L-81,42 L-71,36 L-56,28 L-42,21 L-22,10 L-12,4 Z M0,20 L-16,28 L-27,34 L-27,36 L-33,38 L-49,46 L-52,49 L-65,54 L-68,57 L-76,60 L-87,66 L-87,68 L-94,70 L-98,73 L-106,76 L-118,83 L-123,86 L-137,93 L-138,95 L-146,99 L-151,105 L-151,286 L-144,290 L-141,290 L-141,292 L-131,297 L-123,302 L-119,302 L-119,304 L-115,304 L-115,306 L-111,306 L-111,308 L-103,311 L-86,320 L-78,324 L-76,326 L-73,326 L-73,328 L-69,328 L-69,330 L-64,332 L-58,336 L-42,344 L-39,344 L-39,346 L-24,354 L-16,358 L-13,358 L-13,360 L2,368 L8,368 L11,365 L25,358 L33,353 L37,352 L37,350 L42,350 L48,345 L59,339 L65,337 L70,333 L78,330 L87,325 L95,320 L102,317 L108,313 L114,311 L119,307 L135,299 L142,295 L148,293 L153,289 L157,288 L159,285 L163,284 L163,105 L161,102 L156,99 L147,94 L145,94 L145,92 L139,92 L139,90 L134,87 L122,80 L119,80 L119,78 L113,76 L107,72 L98,68 L83,60 L81,60 L81,58 L62,49 L48,41 L31,32 L29,32 L29,30 L13,22 L9,20 Z " fill="#FCF6F0" transform="translate(186,1)"/>
<path d="M0,0 L2,0 L2,2 L5,2 L5,4 L10,4 L10,6 L15,7 L21,9 L29,10 L34,12 L34,14 L40,14 L46,17 L58,20 L66,23 L76,26 L90,30 L91,31 L99,32 L104,34 L104,36 L109,36 L116,39 L128,43 L138,47 L143,48 L144,45 L144,49 L160,49 L176,50 L178,51 L202,52 L202,56 L197,59 L195,62 L192,62 L192,64 L190,64 L190,66 L183,71 L182,74 L174,80 L163,92 L160,92 L160,94 L158,94 L158,96 L151,102 L148,106 L143,109 L137,116 L134,116 L134,118 L132,118 L132,120 L130,120 L130,122 L128,122 L128,124 L126,124 L126,126 L115,135 L112,139 L110,139 L109,142 L104,144 L104,146 L102,146 L102,148 L100,148 L100,150 L89,158 L85,158 L85,82 L80,79 L66,75 L57,73 L52,71 L44,69 L39,67 L32,65 L28,63 L13,60 L8,57 L0,56 Z " fill="#484F6C" transform="translate(111,201)"/>
<path d="M0,0 L2,1 L-1,5 L-2,186 L4,188 L8,190 L8,192 L15,194 L26,201 L30,202 L30,204 L34,204 L34,206 L38,206 L38,208 L43,209 L62,218 L71,223 L76,226 L76,228 L80,228 L80,230 L85,231 L91,235 L110,244 L110,246 L116,248 L133,257 L136,258 L136,260 L142,262 L151,267 L157,267 L160,264 L174,257 L182,252 L186,252 L186,250 L192,248 L197,244 L208,238 L214,236 L219,232 L227,229 L236,224 L244,219 L251,216 L257,212 L263,210 L268,206 L284,198 L291,194 L297,192 L302,188 L306,188 L308,184 L310,185 L307,189 L302,191 L306,190 L311,187 L313,185 L314,74 L315,61 L316,61 L316,89 L326,90 L326,88 L328,88 L328,82 L330,85 L330,111 L332,113 L332,191 L328,199 L323,204 L319,207 L280,227 L268,234 L257,240 L233,253 L217,262 L207,267 L188,278 L177,284 L163,291 L160,292 L148,292 L138,288 L116,276 L100,267 L86,260 L67,249 L48,240 L32,231 L17,223 L14,220 L2,213 L-10,207 L-9,204 L-18,196 L-21,187 L-21,145 L-20,138 L-16,138 L-16,140 L-12,140 L-12,138 L-8,139 L-9,146 L-10,144 L-12,144 L-12,142 L-14,142 L-14,152 L-18,152 L-18,158 L-16,158 L-16,156 L-14,156 L-14,178 L-16,178 L-15,182 L-16,184 L-14,184 L-14,182 L-12,182 L-12,186 L-14,186 L-13,188 L-10,189 L-10,192 L-6,192 L-6,186 L-5,185 L-4,3 Z " fill="#F6ECDB" transform="translate(37,101)"/>
<path d="M0,0 L6,3 L11,6 L10,8 L8,7 L8,10 L4,14 L1,14 L1,16 L-5,20 L-7,20 L-7,22 L-15,28 L-17,28 L-17,30 L-19,30 L-19,32 L-21,32 L-21,34 L-23,34 L-23,36 L-28,40 L-31,40 L-31,42 L-33,42 L-33,44 L-39,46 L-39,48 L-41,48 L-41,50 L-43,50 L-43,52 L-45,52 L-45,54 L-50,57 L-53,58 L-53,60 L-55,60 L-55,62 L-57,62 L-57,64 L-62,67 L-65,68 L-65,70 L-67,70 L-67,72 L-69,72 L-69,74 L-75,75 L-83,71 L-91,70 L-91,68 L-96,68 L-103,66 L-103,64 L-110,64 L-110,62 L-121,60 L-122,59 L-129,58 L-136,55 L-147,54 L-148,53 L-157,53 L-167,58 L-181,63 L-186,66 L-193,69 L-197,70 L-197,65 L-195,65 L-195,60 L-192,52 L-191,48 L-189,48 L-188,43 L-185,34 L-183,34 L-183,32 L-181,32 L-181,30 L-167,30 L-167,28 L-155,28 L-155,26 L-143,25 L-127,22 L-114,21 L-99,18 L-78,15 L-76,14 L-53,11 L-38,8 L-31,7 L-30,6 L-17,4 L-11,3 L0,3 Z " fill="#8A90AB" transform="translate(336,97)"/>
<path d="M0,0 L3,0 L3,2 L-4,7 L-6,7 L-6,9 L-14,13 L-16,13 L-16,15 L-20,17 L-23,17 L-23,19 L-18,19 L-17,21 L-24,20 L-24,25 L-20,27 L-20,29 L-16,30 L-9,38 L-4,41 L-4,43 L1,45 L1,47 L6,49 L8,50 L8,53 L6,53 L6,55 L4,55 L4,57 L2,57 L2,59 L0,59 L0,61 L-2,61 L-2,63 L-5,64 L-9,69 L-12,69 L-12,71 L-14,71 L-14,73 L-19,76 L-21,79 L-24,79 L-24,81 L-26,81 L-26,83 L-30,86 L-30,137 L-35,136 L-47,133 L-54,130 L-61,128 L-66,126 L-76,124 L-79,121 L-79,46 L-77,44 L-73,42 L-72,41 L-77,41 L-76,39 L-69,36 L-66,33 L-59,29 L-54,27 L-48,23 L-34,16 L-26,12 L-20,9 L-18,9 L-18,7 L-10,3 L-3,1 Z " fill="#7B819B" transform="translate(117,60)"/>
<path d="M0,0 L34,0 L36,1 L60,2 L60,6 L55,9 L53,12 L50,12 L50,14 L48,14 L48,16 L41,21 L40,24 L32,30 L21,42 L18,42 L18,44 L16,44 L16,46 L9,52 L6,56 L1,59 L-5,66 L-8,66 L-8,68 L-10,68 L-10,70 L-12,70 L-12,72 L-14,72 L-14,74 L-16,74 L-16,76 L-27,85 L-30,89 L-32,89 L-33,92 L-38,94 L-38,96 L-40,96 L-40,98 L-42,98 L-42,100 L-53,108 L-57,108 L-57,78 L-56,36 L-52,30 L-49,30 L-48,27 L-44,26 L-44,24 L-36,20 L-32,20 L-32,18 L-22,13 L-19,10 L-16,10 L-16,8 L-8,6 L-8,4 Z " fill="#4E5674" transform="translate(253,251)"/>
<path d="M0,0 L5,2 L5,181 L3,181 L3,3 L1,2 L1,25 L0,125 L-7,123 L-7,121 L-12,120 L-19,115 L-19,113 L-21,113 L-21,111 L-24,111 L-24,109 L-27,109 L-27,107 L-31,106 L-33,105 L-33,103 L-39,101 L-39,99 L-44,97 L-47,95 L-47,93 L-49,93 L-49,91 L-51,91 L-51,89 L-56,87 L-69,77 L-74,73 L-74,71 L-77,71 L-77,68 L-79,67 L-77,67 L-77,65 L-75,65 L-75,63 L-73,63 L-73,61 L-68,57 L-65,57 L-65,55 L-63,55 L-63,53 L-61,53 L-61,51 L-56,47 L-53,47 L-53,45 L-51,45 L-51,43 L-49,43 L-49,41 L-47,41 L-47,39 L-44,37 L-41,37 L-41,35 L-39,35 L-39,33 L-34,30 L-31,29 L-31,27 L-29,27 L-29,25 L-27,25 L-27,23 L-25,23 L-25,21 L-17,15 L-15,15 L-15,13 L-9,9 L-7,9 L-7,7 L-4,6 L-2,3 L0,3 Z " fill="#444B67" transform="translate(344,104)"/>
<path d="M0,0 L34,0 L46,1 L70,1 L70,58 L54,66 L51,68 L46,68 L46,70 L39,73 L34,74 L34,76 L30,78 L23,80 L17,83 L6,88 L1,88 L0,91 L-4,89 L-2,88 L0,89 Z " fill="#616786" transform="translate(41,199)"/>
<path d="M0,0 L1,0 L3,6 L5,10 L7,10 L9,15 L11,19 L13,19 L16,24 L23,33 L27,39 L29,40 L29,43 L31,43 L31,46 L35,48 L37,54 L39,54 L43,60 L43,62 L45,62 L45,64 L47,64 L47,66 L49,66 L53,73 L55,74 L55,76 L57,76 L57,80 L59,80 L59,82 L61,82 L61,84 L63,84 L63,88 L65,88 L73,98 L73,100 L75,100 L75,102 L77,102 L76,105 L70,103 L71,100 L66,98 L62,96 L58,97 L56,97 L55,99 L39,91 L37,90 L37,88 L33,87 L14,78 L11,75 L7,74 L7,72 L3,72 L3,70 L-1,69 L-7,65 L-26,56 L-31,53 L-35,52 L-35,50 L-39,50 L-39,48 L-43,48 L-43,46 L-48,45 L-58,39 L-65,36 L-65,34 L-68,34 L-68,30 L-59,27 L-52,24 L-45,20 L-35,18 L-35,16 L-30,14 L-27,12 L-23,12 L-23,10 L-17,8 Z " fill="#464C69" transform="translate(110,257)"/>
<path d="M0,0 L4,1 L3,4 L-3,6 L-3,83 L9,85 L15,88 L27,91 L33,93 L45,97 L44,46 L47,43 L49,43 L49,41 L51,41 L51,39 L54,38 L59,33 L61,33 L61,31 L63,31 L63,29 L68,26 L70,23 L73,23 L73,21 L75,21 L75,19 L77,19 L77,17 L79,17 L79,15 L81,15 L81,13 L84,11 L87,11 L87,13 L89,13 L89,15 L91,15 L91,17 L93,17 L93,19 L95,19 L95,21 L99,23 L99,25 L103,27 L108,30 L107,40 L105,45 L103,45 L102,51 L99,62 L96,64 L95,73 L93,73 L93,75 L91,75 L91,77 L89,77 L89,79 L87,79 L86,83 L82,87 L79,87 L79,89 L77,89 L77,91 L75,91 L75,93 L73,93 L73,95 L71,95 L71,97 L69,97 L69,99 L-1,99 L-1,188 L-7,187 L-7,6 L-3,1 Z " fill="#2E344D" transform="translate(42,100)"/>
<path d="M0,0 L9,0 L10,1 L21,2 L28,5 L35,6 L44,9 L47,10 L47,12 L54,12 L54,14 L60,14 L66,16 L66,18 L74,18 L82,22 L86,24 L83,26 L80,26 L80,28 L74,30 L74,32 L72,32 L72,34 L70,34 L70,36 L64,38 L64,40 L61,40 L61,42 L56,44 L54,48 L46,54 L44,54 L44,56 L35,61 L33,64 L27,64 L27,62 L24,62 L24,60 L20,59 L10,54 L0,47 L-2,46 L-2,44 L-6,43 L-10,42 L-11,39 L-21,33 L-36,24 L-41,20 L-40,16 L-40,18 L-33,14 L-25,11 L-14,6 L-6,3 Z " fill="#6B718E" transform="translate(179,149)"/>
<path d="M0,0 L3,0 L3,65 L2,73 L1,73 L1,57 L-3,57 L-3,53 L-5,53 L-5,55 L-7,55 L-7,57 L-11,57 L-11,61 L-19,61 L-19,63 L-21,63 L-21,67 L-19,67 L-19,73 L-17,74 L-22,74 L-23,72 L-35,71 L-45,66 L-55,63 L-69,59 L-80,54 L-92,51 L-92,49 L-88,47 L-85,47 L-85,45 L-77,41 L-75,41 L-75,39 L-68,34 L-66,34 L-66,32 L-73,35 L-77,34 L-72,31 L-67,29 L-61,25 L-59,26 L-62,29 L-65,29 L-65,32 L-54,28 L-37,19 L-27,15 L-19,9 L-11,5 L-4,1 Z " fill="#8B91AA" transform="translate(186,28)"/>
<path d="M0,0 L9,0 L26,9 L29,10 L29,12 L22,11 L22,9 L19,9 L19,7 L16,8 L21,11 L22,13 L25,14 L25,16 L30,17 L35,22 L40,23 L42,24 L42,26 L46,28 L50,30 L54,30 L53,40 L49,40 L49,44 L45,44 L45,46 L41,46 L41,48 L37,48 L37,52 L29,52 L29,54 L23,54 L23,56 L18,57 L17,60 L8,60 L7,76 L9,76 L9,66 L11,67 L11,76 L13,76 L13,68 L15,68 L15,72 L17,72 L17,66 L21,66 L21,60 L27,60 L27,58 L25,58 L25,56 L33,56 L33,54 L37,54 L39,54 L39,52 L47,52 L47,50 L49,50 L49,48 L51,48 L51,44 L55,44 L55,46 L60,44 L70,43 L68,46 L68,48 L61,50 L59,54 L53,54 L53,58 L51,58 L51,60 L43,62 L43,64 L39,64 L39,66 L35,66 L35,68 L33,68 L33,70 L31,70 L31,72 L21,72 L21,74 L18,73 L17,80 L13,80 L13,82 L9,82 L9,84 L7,84 L5,90 L-3,90 L-3,88 L-9,87 L-14,85 L-21,83 L-31,79 L-29,78 L-22,78 L-22,81 L-19,80 L-19,74 L-21,74 L-21,70 L-19,70 L-19,68 L-11,68 L-11,64 L-7,64 L-7,62 L-5,62 L-5,60 L-3,60 L-3,64 L1,64 L2,72 L3,7 L-8,11 L-16,16 L-21,19 L-27,23 L-38,28 L-54,36 L-61,39 L-65,39 L-65,36 L-60,33 L-52,29 L-49,26 L-38,20 L-30,17 L-27,16 L-27,14 L-14,7 L-5,2 Z " fill="#717791" transform="translate(186,21)"/>
<path d="M0,0 L5,0 L2,1 L2,3 L-7,4 L-8,5 L-19,7 L-26,7 L-26,10 L-32,10 L-32,12 L-37,12 L-36,14 L-39,14 L-41,18 L-42,25 L-44,25 L-46,29 L-48,30 L-48,20 L-50,19 L-50,21 L-52,21 L-52,23 L-56,23 L-56,25 L-60,25 L-60,34 L-64,43 L-65,44 L-64,44 L-64,49 L-62,49 L-62,51 L-64,51 L-65,55 L-71,54 L-71,52 L-75,51 L-72,50 L-81,50 L-81,47 L-78,47 L-78,45 L-84,45 L-84,47 L-82,48 L-98,47 L-99,46 L-110,45 L-111,44 L-120,44 L-130,49 L-144,54 L-149,57 L-156,60 L-160,61 L-160,56 L-158,56 L-158,51 L-155,43 L-154,39 L-152,39 L-151,34 L-148,25 L-146,25 L-146,23 L-144,23 L-144,21 L-130,21 L-130,19 L-118,19 L-118,17 L-106,16 L-90,13 L-77,12 L-62,9 L-41,6 L-39,5 L-16,2 L-13,1 Z M-67,47 Z " fill="#9399B7" transform="translate(299,106)"/>
<path d="M0,0 L5,1 L3,2 L3,5 L-5,10 L-11,13 L-14,13 L-14,15 L-17,16 L-17,21 L-14,23 L-14,25 L-10,25 L-10,27 L-6,29 L-6,31 L-2,31 L-2,33 L2,35 L6,37 L6,39 L12,41 L14,45 L17,45 L17,47 L20,47 L20,49 L24,49 L24,51 L26,51 L26,53 L30,54 L30,105 L25,104 L13,101 L6,98 L-1,96 L-6,94 L-16,92 L-19,89 L-19,14 L-17,12 L-13,10 L-12,9 L-17,9 L-16,7 L-5,2 L0,1 Z " fill="#525976" transform="translate(57,92)"/>
<path d="M0,0 L1,0 L1,28 L11,29 L11,27 L13,27 L13,21 L15,24 L15,50 L17,52 L17,130 L13,138 L8,143 L4,146 L-10,153 L-19,154 L-19,156 L-22,156 L-22,158 L-26,160 L-31,160 L-31,162 L-34,162 L-34,164 L-37,164 L-38,166 L-42,166 L-42,168 L-46,168 L-46,170 L-49,169 L-47,169 L-45,165 L-39,162 L-41,161 L-41,159 L-39,159 L-39,155 L-37,155 L-37,153 L-39,153 L-40,149 L-38,147 L-44,149 L-48,148 L-42,144 L-37,144 L-37,140 L-24,133 L-18,131 L-13,127 L-9,127 L-7,123 L-5,124 L-8,128 L-13,130 L-9,129 L-4,126 L-2,124 L-1,13 Z " fill="#F4EBDB" transform="translate(352,162)"/>
<path d="M0,0 L2,1 L-1,5 L-2,186 L4,188 L8,190 L8,192 L15,194 L26,201 L30,202 L30,204 L34,204 L34,206 L38,206 L38,208 L43,209 L62,218 L71,223 L76,226 L76,228 L80,228 L80,230 L85,231 L82,232 L74,233 L72,232 L72,234 L70,234 L70,232 L64,232 L64,230 L71,228 L68,226 L68,224 L60,223 L60,226 L58,226 L58,228 L56,228 L56,238 L58,238 L58,236 L60,236 L61,240 L64,240 L64,238 L62,238 L62,236 L76,236 L76,238 L78,238 L78,240 L80,240 L80,242 L76,242 L76,240 L66,240 L66,244 L68,244 L68,242 L70,242 L74,246 L74,248 L70,247 L70,249 L74,250 L74,252 L68,250 L51,241 L40,235 L25,227 L17,223 L14,220 L2,213 L-10,207 L-9,204 L-18,196 L-21,187 L-21,145 L-20,138 L-16,138 L-16,140 L-12,140 L-12,138 L-8,139 L-9,146 L-10,144 L-12,144 L-12,142 L-14,142 L-14,152 L-18,152 L-18,158 L-16,158 L-16,156 L-14,156 L-14,178 L-16,178 L-15,182 L-16,184 L-14,184 L-14,182 L-12,182 L-12,186 L-14,186 L-13,188 L-10,189 L-10,192 L-6,192 L-6,186 L-5,185 L-4,3 Z " fill="#F9EFE0" transform="translate(37,101)"/>
<path d="M0,0 L11,1 L17,5 L23,7 L23,9 L27,10 L38,16 L43,19 L43,21 L49,21 L49,23 L54,25 L54,28 L57,29 L43,29 L34,31 L24,32 L23,33 L4,36 L1,37 L-13,38 L-27,38 L-27,40 L-43,40 L-41,42 L-50,43 L-51,44 L-65,45 L-65,46 L-77,46 L-77,45 L-67,45 L-67,43 L-71,43 L-70,39 L-67,39 L-67,37 L-65,37 L-65,35 L-63,35 L-63,33 L-61,33 L-61,31 L-59,31 L-59,29 L-51,29 L-51,24 L-49,23 L-49,25 L-45,25 L-45,23 L-43,23 L-44,20 L-29,21 L-29,17 L-27,17 L-27,15 L-26,14 L-26,11 L-25,9 L-21,9 L-21,7 L-17,7 L-17,5 L-15,5 L-15,3 L-9,1 Z " fill="#626884" transform="translate(282,72)"/>
<path d="M0,0 L8,0 L13,3 L28,6 L33,9 L41,11 L46,13 L54,15 L59,17 L74,20 L84,24 L86,26 L85,46 L84,98 L83,105 L80,107 L79,106 L79,95 L77,95 L74,90 L74,88 L72,88 L72,82 L70,82 L70,72 L68,72 L68,70 L70,70 L70,66 L66,66 L66,64 L60,64 L60,56 L56,56 L56,50 L54,50 L54,52 L52,52 L52,48 L50,48 L50,46 L48,46 L48,42 L46,42 L46,40 L44,40 L44,36 L42,36 L42,40 L40,40 L40,36 L36,36 L36,26 L38,26 L38,24 L36,24 L36,22 L34,22 L34,20 L32,20 L31,17 L24,16 L24,14 L16,13 L12,15 L7,13 L6,10 L4,10 L0,5 Z " fill="#363D57" transform="translate(111,257)"/>
<path d="M0,0 L8,1 L8,3 L14,5 L10,7 L4,7 L4,9 L10,9 L10,11 L12,11 L12,9 L23,8 L42,17 L50,21 L50,23 L56,25 L73,34 L76,35 L76,37 L82,39 L84,41 L84,44 L88,45 L82,45 L82,47 L86,48 L88,48 L88,46 L99,46 L98,48 L96,48 L96,51 L98,51 L98,55 L100,55 L100,57 L102,57 L102,61 L104,62 L98,64 L102,66 L95,68 L89,68 L85,65 L86,63 L80,64 L77,61 L86,62 L86,59 L88,59 L88,57 L84,57 L84,55 L82,55 L82,59 L80,59 L80,53 L78,53 L78,60 L73,60 L76,59 L76,57 L69,58 L61,56 L51,50 L37,43 L25,36 L14,30 L13,27 L10,26 L10,24 L7,23 L12,24 L14,25 L14,23 L10,21 L10,19 L8,19 L8,21 L6,21 L6,17 L16,17 L16,19 L20,19 L20,17 L18,17 L18,15 L16,15 L16,13 L2,13 L2,15 L4,15 L4,17 L0,18 L0,13 L-2,13 L-2,15 L-4,15 L-4,5 L-2,5 L-2,3 L0,3 Z " fill="#F9EFDF" transform="translate(97,324)"/>
<path d="M0,0 L2,0 L2,60 L-5,58 L-5,56 L-10,55 L-17,50 L-17,48 L-19,48 L-19,46 L-22,46 L-22,44 L-25,44 L-25,42 L-29,41 L-31,40 L-31,38 L-37,36 L-37,34 L-42,32 L-45,30 L-45,28 L-47,28 L-47,26 L-49,26 L-49,24 L-54,22 L-57,19 L-55,16 L-53,16 L-53,14 L-51,14 L-51,16 L-49,16 L-49,12 L-47,12 L-47,10 L-49,10 L-49,8 L-47,8 L-47,6 L-49,6 L-49,4 L-45,4 L-45,6 L-41,6 L-41,4 L-31,4 L-31,2 L-17,2 L-17,4 L-13,4 L-13,8 L-9,8 L-9,10 L-7,10 L-7,18 L-3,18 L-2,21 L-2,9 L0,9 Z " fill="#424A65" transform="translate(342,169)"/>
<path d="M0,0 L33,0 L45,1 L69,1 L69,58 L65,57 L63,53 L63,50 L59,49 L57,48 L57,46 L52,46 L49,41 L49,38 L47,38 L47,40 L45,40 L43,37 L39,37 L34,28 L31,26 L29,20 L27,17 L27,14 L23,14 L23,12 L21,12 L19,7 L21,6 L21,4 L11,5 L11,2 L1,2 L1,21 L0,21 Z " fill="#6C7290" transform="translate(42,199)"/>
<path d="M0,0 L6,3 L11,6 L10,8 L8,7 L8,10 L4,14 L1,14 L1,16 L-5,20 L-7,20 L-7,22 L-15,28 L-17,28 L-17,30 L-19,30 L-19,32 L-21,32 L-21,34 L-23,34 L-23,36 L-28,40 L-31,40 L-31,42 L-33,42 L-33,44 L-39,46 L-39,48 L-41,48 L-41,50 L-43,50 L-43,52 L-45,52 L-45,54 L-50,57 L-53,58 L-53,60 L-55,60 L-55,62 L-57,62 L-57,64 L-59,64 L-59,62 L-61,62 L-61,54 L-58,55 L-58,46 L-56,37 L-54,35 L-54,38 L-52,38 L-51,30 L-48,26 L-47,22 L-49,22 L-49,24 L-51,24 L-50,15 L-44,15 L-41,12 L-35,12 L-35,10 L-41,10 L-38,8 L-31,7 L-30,6 L-17,4 L-11,3 L0,3 Z " fill="#7D839F" transform="translate(336,97)"/>
<path d="M0,0 L34,0 L42,3 L42,4 L30,4 L30,6 L34,6 L34,8 L32,8 L32,10 L30,10 L30,8 L24,8 L24,10 L22,10 L22,8 L20,8 L20,6 L28,6 L28,4 L16,4 L16,6 L18,6 L18,8 L14,8 L14,10 L6,10 L6,12 L4,12 L4,18 L6,18 L6,14 L10,14 L10,12 L22,12 L22,14 L36,14 L36,18 L32,18 L32,16 L28,16 L28,20 L26,20 L26,16 L24,16 L24,20 L22,20 L22,18 L16,18 L16,20 L14,20 L14,22 L10,22 L10,26 L8,26 L8,28 L6,30 L6,32 L2,32 L2,34 L-20,34 L-20,36 L-22,36 L-22,38 L-24,38 L-24,34 L-28,34 L-28,36 L-26,36 L-26,38 L-36,38 L-36,36 L-42,36 L-42,34 L-48,34 L-48,30 L-47,28 L-44,28 L-44,24 L-36,20 L-32,20 L-32,18 L-22,13 L-19,10 L-16,10 L-16,8 L-8,6 L-8,4 Z " fill="#515976" transform="translate(253,251)"/>
<path d="M0,0 L13,0 L10,3 L6,5 L1,5 L1,7 L-5,7 L-5,9 L-20,14 L-28,18 L-34,21 L-43,23 L-43,25 L-52,28 L-62,33 L-68,33 L-77,31 L-81,28 L-88,26 L-93,24 L-99,23 L-99,17 L-97,17 L-97,15 L-95,15 L-95,13 L-81,13 L-81,11 L-69,11 L-69,9 L-57,8 L-41,5 L-28,4 L-13,1 Z " fill="#ACB1CF" transform="translate(250,114)"/>
<path d="M0,0 L1,0 L2,23 L3,22 L40,22 L40,26 L42,26 L42,28 L48,28 L48,26 L51,25 L52,22 L56,21 L57,23 L51,30 L48,30 L48,32 L46,32 L46,34 L44,34 L44,36 L42,36 L42,38 L40,38 L40,40 L29,49 L26,53 L24,53 L23,56 L18,58 L18,60 L16,60 L16,62 L14,62 L14,64 L3,72 L-1,72 L-1,42 Z " fill="#4A5270" transform="translate(197,287)"/>
<path d="M0,0 L4,2 L4,4 L8,4 L8,6 L12,8 L12,10 L16,10 L16,12 L20,14 L24,16 L24,18 L30,20 L32,24 L35,24 L35,26 L38,26 L38,28 L42,28 L42,30 L44,30 L44,32 L46,32 L46,54 L44,56 L43,43 L42,48 L40,48 L39,45 L41,42 L36,42 L36,44 L28,44 L28,46 L24,46 L20,46 L20,48 L14,48 L14,50 L8,50 L8,52 L6,52 L6,50 L4,50 L4,52 L2,52 L1,56 L0,49 Z " fill="#5C627E" transform="translate(39,113)"/>
<path d="M0,0 L10,0 L10,3 L20,2 L19,7 L20,10 L22,10 L22,12 L26,12 L30,19 L32,25 L34,23 L37,32 L39,34 L43,35 L44,38 L46,38 L46,36 L48,36 L51,43 L56,44 L56,46 L62,48 L64,52 L64,55 L67,56 L65,58 L55,59 L55,61 L52,60 L52,58 L50,60 L50,56 L48,56 L46,60 L46,56 L38,56 L38,52 L36,52 L34,49 L30,47 L30,44 L26,44 L26,42 L24,42 L24,40 L22,40 L21,37 L14,36 L12,32 L12,28 L9,28 L9,26 L7,26 L6,24 L4,24 L2,17 L0,17 Z " fill="#666C8A" transform="translate(43,201)"/>
<path d="M0,0 L14,1 L22,5 L26,7 L23,9 L20,9 L20,11 L14,13 L14,15 L12,15 L12,17 L10,17 L10,19 L4,21 L4,23 L1,23 L1,25 L-4,27 L-6,31 L-14,37 L-16,37 L-16,39 L-25,44 L-27,47 L-33,47 L-33,45 L-36,45 L-36,43 L-40,42 L-50,37 L-57,32 L-55,31 L-52,31 L-52,29 L-48,29 L-48,25 L-46,25 L-46,23 L-44,23 L-44,25 L-42,25 L-42,27 L-36,27 L-36,25 L-32,25 L-32,23 L-26,23 L-26,19 L-24,19 L-24,17 L-20,17 L-20,15 L-12,15 L-12,13 L-10,13 L-10,11 L-4,11 L-4,7 L0,7 L1,2 Z " fill="#676D8A" transform="translate(239,166)"/>
<path d="M0,0 L2,1 L4,7 L6,7 L10,13 L10,15 L12,15 L12,17 L14,17 L14,19 L16,19 L20,26 L22,27 L22,29 L24,29 L24,33 L26,33 L26,35 L28,35 L28,37 L30,37 L30,41 L32,41 L40,51 L40,53 L42,53 L42,55 L44,55 L43,58 L37,56 L38,53 L33,51 L29,49 L25,50 L23,50 L22,52 L6,44 L4,43 L4,41 L0,40 L-16,32 L-20,27 L-19,23 L-12,23 L-9,20 L-8,11 L-4,11 L-4,7 L-7,6 L-8,9 L-12,9 L-12,11 L-14,11 L-14,5 L-10,5 L-10,3 L-1,2 Z " fill="#434A66" transform="translate(143,304)"/>
<path d="M0,0 L4,1 L3,4 L-3,6 L-3,83 L9,85 L15,88 L27,91 L33,93 L45,97 L45,99 L-1,99 L-1,188 L-7,187 L-7,6 L-3,1 Z " fill="#484E6B" transform="translate(42,100)"/>
<path d="M0,0 L2,1 L-1,5 L-2,186 L4,188 L8,190 L8,192 L15,194 L23,199 L20,200 L20,202 L24,202 L24,204 L2,204 L2,206 L-3,208 L1,210 L1,212 L-5,210 L-10,206 L-10,203 L-18,196 L-21,187 L-21,145 L-20,138 L-16,138 L-16,140 L-12,140 L-12,138 L-8,139 L-9,146 L-10,144 L-12,144 L-12,142 L-14,142 L-14,152 L-18,152 L-18,158 L-16,158 L-16,156 L-14,156 L-14,178 L-16,178 L-15,182 L-16,184 L-14,184 L-14,182 L-12,182 L-12,186 L-14,186 L-13,188 L-10,189 L-10,192 L-6,192 L-6,186 L-5,185 L-4,3 Z " fill="#F8EEE1" transform="translate(37,101)"/>
<path d="M0,0 L5,2 L5,181 L3,181 L3,3 L1,2 L1,25 L0,62 L-1,62 L-2,46 L-4,46 L-4,39 L-7,39 L-7,45 L-9,45 L-9,47 L-16,48 L-19,49 L-19,47 L-27,47 L-27,49 L-29,49 L-29,51 L-31,51 L-31,41 L-29,41 L-29,43 L-27,43 L-27,39 L-25,39 L-25,33 L-31,32 L-34,35 L-38,34 L-33,29 L-31,29 L-31,27 L-29,27 L-29,25 L-27,25 L-27,23 L-25,23 L-25,21 L-17,15 L-15,15 L-15,13 L-9,9 L-7,9 L-7,7 L-4,6 L-2,3 L0,3 Z " fill="#53596F" transform="translate(344,104)"/>
<path d="M0,0 L11,1 L12,2 L27,5 L32,8 L40,10 L45,12 L53,14 L58,16 L73,19 L83,23 L85,25 L84,45 L83,97 L82,104 L79,106 L78,105 L78,97 L77,93 L76,51 L75,48 L75,37 L73,37 L73,34 L67,31 L67,29 L63,28 L50,23 L34,17 L31,15 L31,13 L24,13 L15,10 L9,9 L6,9 L4,7 L4,4 L0,3 Z " fill="#2C334A" transform="translate(112,258)"/>
<path d="M0,0 L3,0 L3,2 L-4,7 L-6,7 L-6,9 L-14,13 L-16,13 L-16,15 L-20,17 L-24,17 L-24,19 L-29,21 L-32,21 L-32,23 L-38,27 L-40,27 L-40,29 L-37,30 L-39,31 L-44,30 L-44,32 L-54,35 L-54,37 L-50,38 L-50,40 L-48,40 L-48,45 L-52,45 L-52,47 L-48,47 L-48,53 L-46,53 L-46,57 L-48,57 L-48,55 L-50,55 L-50,57 L-56,57 L-56,59 L-52,59 L-52,61 L-48,61 L-48,69 L-44,69 L-44,71 L-40,71 L-39,78 L-35,79 L-35,82 L-26,81 L-26,83 L-29,85 L-34,85 L-34,83 L-36,83 L-36,81 L-40,81 L-40,79 L-43,79 L-43,77 L-46,77 L-48,74 L-54,71 L-54,69 L-58,68 L-62,65 L-62,63 L-66,63 L-70,59 L-70,57 L-74,57 L-74,55 L-78,53 L-78,48 L-74,47 L-74,45 L-65,41 L-59,37 L-57,37 L-56,33 L-68,35 L-63,31 L-54,27 L-48,23 L-34,16 L-26,12 L-20,9 L-18,9 L-18,7 L-10,3 L-3,1 Z " fill="#7B819B" transform="translate(117,60)"/>
<path d="M0,0 L6,1 L6,3 L14,4 L14,6 L18,6 L18,8 L21,9 L21,11 L24,12 L18,12 L18,14 L12,14 L11,12 L10,88 L2,88 L2,86 L-4,85 L-9,83 L-16,81 L-26,77 L-24,76 L-17,76 L-17,79 L-14,78 L-14,72 L-16,72 L-16,68 L-14,68 L-14,66 L-6,66 L-6,62 L-2,62 L-2,60 L0,60 L0,58 L2,58 L2,62 L6,62 L7,70 L8,5 L-3,9 L-11,14 L-16,17 L-22,21 L-33,26 L-49,34 L-56,37 L-60,37 L-60,34 L-55,31 L-47,27 L-44,24 L-33,18 L-25,15 L-22,14 L-22,12 L-9,5 Z " fill="#868CA7" transform="translate(181,23)"/>
<path d="M0,0 L5,0 L5,2 L7,0 L8,2 L8,98 L4,98 L4,95 L0,94 L0,92 L2,92 L2,88 L0,88 L0,90 L-2,90 L-2,84 L0,84 L0,62 L-2,62 L-2,64 L-4,64 L-4,58 L0,58 L0,48 L2,48 L2,50 L4,50 L5,46 L4,44 L2,44 L2,46 L-2,46 L-2,44 L-6,44 L-7,18 L-6,2 Z " fill="#F8EFE1" transform="translate(23,195)"/>
<path d="M0,0 L5,0 L2,1 L2,3 L-7,4 L-8,5 L-19,7 L-26,7 L-26,10 L-32,10 L-32,12 L-37,12 L-36,14 L-39,14 L-41,18 L-42,25 L-44,25 L-46,29 L-48,30 L-48,20 L-50,19 L-50,21 L-52,21 L-52,23 L-56,23 L-56,25 L-60,25 L-60,34 L-64,43 L-65,44 L-64,44 L-64,49 L-62,49 L-62,51 L-64,51 L-65,55 L-71,54 L-71,52 L-75,51 L-72,50 L-81,50 L-81,47 L-78,47 L-78,45 L-84,45 L-84,47 L-82,48 L-98,47 L-99,46 L-110,45 L-111,44 L-118,43 L-118,42 L-110,42 L-105,43 L-96,43 L-90,41 L-90,43 L-80,43 L-79,39 L-76,39 L-76,35 L-74,35 L-75,28 L-72,25 L-70,25 L-69,21 L-59,18 L-54,17 L-54,15 L-48,15 L-48,13 L-39,10 L-37,9 L-54,9 L-50,7 L-41,6 L-39,5 L-16,2 L-13,1 Z M-67,47 Z " fill="#8E94B0" transform="translate(299,106)"/>
<path d="M0,0 L3,1 L1,1 L0,4 L-5,4 L-6,8 L-7,12 L-5,12 L-5,10 L-3,10 L-3,16 L-4,16 L-5,24 L-7,24 L-8,26 L-11,25 L-11,28 L-13,28 L-13,43 L-15,44 L-15,42 L-17,42 L-17,50 L-15,50 L-17,54 L-21,56 L-21,58 L-23,58 L-23,60 L-25,60 L-25,62 L-31,63 L-39,59 L-47,58 L-47,56 L-52,56 L-53,54 L-44,55 L-42,55 L-40,50 L-37,50 L-37,56 L-33,57 L-33,48 L-32,48 L-31,40 L-29,40 L-29,32 L-27,28 L-25,28 L-25,24 L-22,23 L-20,16 L-18,14 L-17,5 L-10,4 L-9,2 L-1,1 Z " fill="#8289A4" transform="translate(292,109)"/>
<path d="M0,0 L2,0 L2,2 L4,3 L2,8 L9,9 L10,12 L16,10 L16,8 L18,8 L18,10 L20,10 L20,12 L24,12 L25,10 L28,11 L28,9 L32,9 L32,7 L35,7 L35,5 L39,5 L39,3 L46,2 L45,4 L35,9 L16,20 L5,26 L-9,33 L-12,34 L-24,34 L-34,30 L-47,23 L-43,22 L-36,22 L-36,24 L-34,25 L-34,18 L-32,18 L-32,24 L-30,24 L-30,20 L-28,20 L-28,22 L-24,22 L-24,24 L-26,24 L-26,27 L-31,27 L-28,28 L-26,28 L-26,30 L-23,32 L-13,31 L-15,29 L-10,27 L-10,22 L-12,22 L-12,20 L-14,20 L-14,16 L-16,16 L-16,13 L-16,12 L-24,11 L-24,13 L-22,14 L-26,15 L-30,12 L-30,10 L-32,9 L-28,9 L-28,6 L-22,8 L-21,9 L-15,9 L-12,6 Z " fill="#F7ECDB" transform="translate(209,359)"/>
<path d="M0,0 L1,0 L1,26 L3,26 L3,19 L4,21 L8,23 L8,25 L10,25 L10,27 L12,27 L12,33 L14,33 L14,35 L17,34 L20,36 L20,39 L24,40 L27,44 L26,51 L30,50 L30,47 L28,47 L28,45 L31,46 L32,49 L39,49 L38,51 L34,51 L34,53 L30,55 L23,57 L17,60 L6,65 L1,65 L0,68 L-4,66 L-2,65 L0,66 Z " fill="#5B6280" transform="translate(41,222)"/>
<path d="M0,0 L6,3 L11,6 L10,8 L8,7 L8,10 L4,14 L1,14 L1,16 L-5,20 L-7,20 L-7,22 L-15,28 L-17,28 L-17,30 L-19,30 L-19,32 L-21,32 L-21,34 L-23,34 L-23,36 L-28,40 L-31,40 L-31,42 L-33,42 L-33,44 L-35,44 L-33,23 L-32,23 L-32,28 L-30,28 L-30,14 L-28,14 L-28,11 L-30,10 L-27,10 L-27,8 L-31,7 L-30,6 L-17,4 L-11,3 L0,3 Z " fill="#727996" transform="translate(336,97)"/>
<path d="M0,0 L8,1 L14,3 L14,5 L18,6 L29,12 L34,15 L34,17 L40,17 L40,19 L45,21 L45,24 L48,25 L34,25 L25,27 L15,28 L14,29 L3,30 L-10,30 L-10,29 L-1,27 L4,27 L4,21 L2,21 L3,25 L-2,25 L-2,15 L2,14 L2,11 L0,11 L0,13 L-2,13 L-2,11 L-4,11 L-4,9 L-1,8 L1,4 Z " fill="#5A607C" transform="translate(291,76)"/>
<path d="M0,0 L11,1 L16,4 L14,5 L9,4 L10,8 L12,9 L9,9 L8,13 L5,13 L5,15 L7,15 L7,17 L9,17 L9,15 L11,15 L11,18 L7,19 L8,25 L9,29 L11,28 L11,25 L13,25 L13,31 L6,33 L16,33 L13,35 L1,37 L-13,38 L-27,38 L-27,40 L-39,40 L-39,39 L-31,39 L-31,37 L-18,36 L-18,35 L-11,34 L-15,33 L-15,31 L-13,31 L-13,29 L-15,29 L-15,21 L-9,19 L-9,17 L-7,17 L-7,5 L-9,5 L-9,1 Z " fill="#5E6480" transform="translate(282,72)"/>
<path d="M0,0 L2,0 L2,3 L-4,5 L-8,7 L-4,6 L2,5 L0,10 L0,12 L2,12 L2,14 L0,14 L0,18 L-2,18 L-2,20 L3,20 L-1,23 L-7,26 L-7,27 L-3,27 L-3,25 L1,25 L2,22 L5,23 L5,21 L8,21 L8,19 L12,17 L17,17 L17,15 L20,15 L20,13 L27,12 L24,15 L4,25 L-5,30 L-15,31 L-14,33 L-19,33 L-23,34 L-25,33 L-26,35 L-26,30 L-22,30 L-22,26 L-20,26 L-20,24 L-27,25 L-28,26 L-34,26 L-32,25 L-32,23 L-34,22 L-30,23 L-28,24 L-29,21 L-27,21 L-28,18 L-32,17 L-25,14 L-19,10 L-13,8 L-8,4 Z " fill="#F5EBD9" transform="translate(313,303)"/>
<path d="M0,0 L1,0 L1,28 L11,29 L11,27 L13,27 L13,21 L15,24 L15,50 L16,51 L16,128 L15,128 L15,63 L12,62 L11,61 L3,61 L1,59 L-1,61 L-1,13 Z " fill="#F9F1E3" transform="translate(352,162)"/>
<path d="M0,0 L1,0 L2,93 L3,94 L4,113 L5,184 L-1,183 L-1,2 Z " fill="#323853" transform="translate(36,104)"/>
<path d="M0,0 L5,0 L4,6 L6,6 L6,1 L8,0 L9,12 L11,9 L11,40 L10,40 L10,22 L8,22 L7,17 L6,20 L4,20 L4,16 L0,16 L0,18 L-12,18 L-12,20 L-16,20 L-16,22 L-18,22 L-18,19 L-20,19 L-20,22 L-22,22 L-22,20 L-24,20 L-24,18 L-20,18 L-20,14 L-22,14 L-22,16 L-24,16 L-24,14 L-32,14 L-33,19 L-34,26 L-35,26 L-36,7 L-34,10 L-32,10 L-32,8 L-30,8 L-30,10 L-28,10 L-28,8 L-22,8 L-22,6 L-16,6 L-16,4 L-10,2 L-10,4 L-8,4 L-8,2 L0,2 Z " fill="#565C7A" transform="translate(75,155)"/>
<path d="M0,0 L8,0 L8,2 L10,2 L10,4 L8,4 L9,11 L8,12 L12,12 L12,14 L14,15 L14,17 L16,16 L16,14 L19,15 L20,18 L20,20 L25,21 L25,23 L29,23 L31,18 L34,18 L34,20 L36,20 L37,28 L42,29 L43,33 L46,30 L48,30 L47,34 L50,33 L51,35 L54,34 L54,36 L56,36 L56,32 L54,31 L58,30 L58,28 L62,28 L64,32 L64,41 L62,42 L62,38 L60,38 L60,40 L53,41 L51,45 L50,53 L48,49 L48,217 L43,222 L39,224 L35,223 L37,221 L41,221 L43,217 L46,216 L45,37 L44,34 L40,33 L34,29 L28,26 L28,24 L22,24 L22,22 L18,21 L9,15 L2,12 L2,10 L-3,10 L-6,7 L-10,5 L-8,4 L0,5 L-3,7 L3,9 L3,11 L6,10 L5,8 L6,2 L0,2 Z " fill="#F7F3EC" transform="translate(303,69)"/>
<path d="M0,0 L13,1 L24,6 L42,11 L52,15 L63,20 L61,21 L27,22 L21,19 L18,19 L14,18 L13,15 L9,13 L7,10 L4,9 L0,5 Z " fill="#6C728D" transform="translate(93,80)"/>
<path d="M0,0 L2,0 L2,2 L-4,3 L-4,7 L4,7 L5,5 L7,9 L7,12 L10,13 L10,15 L14,15 L13,18 L18,19 L16,21 L10,21 L10,23 L-4,23 L-4,25 L-6,25 L-6,27 L-8,27 L-8,32 L-10,33 L-9,26 L-13,25 L-18,21 L-22,17 L-22,15 L-24,14 L-20,14 L-22,9 L-20,9 L-20,5 L-8,5 L-7,1 Z " fill="#686E8A" transform="translate(159,104)"/>
<path d="M0,0 L1,0 L1,176 L-4,182 L-9,183 L-9,181 L-17,181 L-24,183 L-23,181 L-22,170 L-18,170 L-18,168 L-16,168 L-16,170 L-12,170 L-12,172 L-10,172 L-10,174 L-5,173 L-7,131 L-8,129 L-6,129 L-5,126 L-3,126 L-2,124 L-1,172 Z " fill="#464B5F" transform="translate(347,107)"/>
<path d="M0,0 L3,0 L12,1 L12,4 L16,5 L10,5 L10,7 L14,8 L16,8 L16,6 L27,6 L26,8 L24,8 L24,11 L26,11 L26,15 L28,15 L28,17 L30,17 L30,21 L32,22 L26,24 L30,26 L23,28 L17,28 L13,25 L14,23 L8,24 L5,21 L14,22 L14,19 L16,19 L16,17 L12,17 L12,15 L10,15 L10,19 L8,19 L8,13 L6,13 L6,20 L1,20 L4,19 L4,17 L-3,18 L-7,17 L-7,14 L-11,13 L-9,13 L-8,10 L-4,11 L-4,13 L2,13 L2,10 L-2,9 L-2,1 Z " fill="#F8EFDF" transform="translate(169,364)"/>
<path d="M0,0 L9,1 L11,4 L13,4 L14,7 L10,7 L10,9 L14,8 L14,11 L19,11 L19,13 L21,13 L20,21 L14,21 L14,27 L16,28 L10,27 L9,24 L4,23 L-6,19 L-15,13 L-16,11 L-20,9 L-18,7 L-14,7 L-14,5 L6,4 L8,5 L8,3 L4,3 L4,1 Z " fill="#F8EEDF" transform="translate(53,300)"/>
<path d="M0,0 L8,1 L8,3 L14,5 L10,7 L4,7 L4,9 L10,9 L10,11 L12,11 L12,9 L23,8 L25,9 L24,13 L22,12 L22,15 L26,15 L26,17 L28,17 L28,19 L26,19 L26,21 L30,21 L30,23 L32,23 L32,27 L28,27 L28,31 L21,32 L21,30 L14,29 L13,27 L10,26 L10,24 L7,23 L12,24 L14,25 L14,23 L10,21 L10,19 L8,19 L8,21 L6,21 L6,17 L16,17 L16,19 L20,19 L20,17 L18,17 L18,15 L16,15 L16,13 L2,13 L2,15 L4,15 L4,17 L0,18 L0,13 L-2,13 L-2,15 L-4,15 L-4,5 L-2,5 L-2,3 L0,3 Z " fill="#F7EEDE" transform="translate(97,324)"/>
<path d="M0,0 L5,0 L3,1 L6,4 L13,3 L13,5 L21,5 L21,8 L23,7 L30,7 L26,8 L25,11 L23,11 L23,13 L15,14 L15,16 L12,16 L12,18 L8,20 L3,20 L3,22 L0,22 L0,24 L-3,24 L-4,26 L-8,26 L-8,28 L-12,28 L-12,30 L-15,29 L-13,29 L-11,25 L-5,22 L-7,21 L-7,19 L-5,19 L-5,15 L-3,15 L-3,13 L-5,13 L-6,9 L-4,7 L-10,9 L-14,8 L-8,4 L-3,4 L-3,1 Z " fill="#F7EDDC" transform="translate(318,302)"/>
<path d="M0,0 L1,0 L1,42 L0,72 L7,69 L13,64 L15,65 L16,68 L18,69 L18,66 L21,66 L21,64 L26,65 L26,63 L29,63 L30,60 L36,60 L32,64 L27,64 L27,66 L20,69 L4,78 L-1,81 L-2,82 L-8,82 L-23,74 L-23,72 L-27,71 L-30,70 L-30,67 L-33,66 L-25,66 L-22,66 L-15,70 L-15,72 L-12,75 L-8,76 L-9,67 L-7,67 L-6,65 L-5,70 L-5,76 L-3,75 L-2,68 L-1,16 Z " fill="#3A405C" transform="translate(196,287)"/>
<path d="M0,0 L10,3 L24,7 L30,8 L37,9 L37,11 L43,13 L45,17 L47,18 L48,38 L49,75 L50,75 L49,89 L46,91 L45,90 L45,82 L44,78 L43,36 L42,33 L42,22 L40,22 L40,19 L34,16 L34,14 L30,13 L17,8 L1,2 Z " fill="#313851" transform="translate(145,273)"/>
<path d="M0,0 L13,0 L10,3 L6,5 L1,5 L1,7 L-5,7 L-5,9 L-20,14 L-28,18 L-34,21 L-36,20 L-34,18 L-35,15 L-31,13 L-30,11 L-35,11 L-35,8 L-57,9 L-54,7 L-41,5 L-28,4 L-13,1 Z " fill="#A8AFCC" transform="translate(250,114)"/>
<path d="M0,0 L3,1 L2,2 L-5,2 L-5,11 L-8,14 L-10,21 L-13,21 L-13,25 L-15,25 L-17,37 L-19,37 L-19,49 L-20,49 L-20,55 L-24,54 L-25,53 L-25,47 L-31,48 L-31,41 L-29,40 L-27,41 L-27,39 L-25,39 L-25,35 L-23,35 L-21,29 L-25,30 L-27,29 L-27,27 L-25,27 L-25,25 L-23,25 L-22,20 L-19,19 L-17,10 L-15,7 L-10,5 L-13,4 L-7,4 L-7,1 Z " fill="#868CA8" transform="translate(280,112)"/>
<path d="M0,0 L17,8 L25,12 L25,14 L28,15 L26,16 L15,14 L11,14 L11,16 L15,16 L15,18 L11,18 L11,22 L9,22 L11,30 L15,30 L15,28 L19,28 L19,30 L21,30 L23,34 L22,37 L26,38 L30,40 L29,42 L23,40 L11,33 L-3,26 L-11,21 L-9,20 L-4,21 L-4,23 L3,22 L3,18 L7,18 L7,14 L5,14 L5,12 L1,12 L1,10 L3,10 L3,8 L1,8 L1,6 L-3,6 L-3,3 L-1,3 Z " fill="#F1E8DA" transform="translate(122,333)"/>
<path d="M0,0 L9,0 L9,2 L7,2 L7,4 L9,4 L9,6 L11,6 L11,2 L17,2 L17,4 L19,4 L19,6 L21,7 L17,7 L17,9 L14,9 L13,11 L7,12 L6,15 L3,16 L1,20 L-5,22 L-17,22 L-27,18 L-40,11 L-36,10 L-29,10 L-29,12 L-27,13 L-27,6 L-25,6 L-25,12 L-23,12 L-23,8 L-21,8 L-21,10 L-17,10 L-17,12 L-19,12 L-19,15 L-24,15 L-21,16 L-19,16 L-19,18 L-16,20 L-6,19 L-8,17 L-3,15 L-3,10 L-5,10 L-5,2 L-3,2 L-3,4 L-1,4 Z " fill="#F7EDDD" transform="translate(202,371)"/>
<path d="M0,0 L8,0 L8,37 L7,37 L7,29 L5,29 L4,24 L1,23 L1,21 L-3,21 L-3,17 L-7,17 L-7,13 L-9,13 L-9,11 L-11,11 L-11,5 L-16,3 L-16,2 L-2,1 Z " fill="#717896" transform="translate(102,200)"/>
<path d="M0,0 L2,1 L-1,5 L-2,184 L-4,184 L-4,3 Z " fill="#A6A5AA" transform="translate(37,101)"/>
<path d="M0,0 L6,3 L11,6 L10,8 L8,7 L8,10 L4,14 L1,14 L1,16 L-5,20 L-7,20 L-7,22 L-13,25 L-15,23 L-16,13 L-17,9 L-16,7 L-20,5 L-11,3 L0,3 Z " fill="#6A708D" transform="translate(336,97)"/>
<path d="M0,0 L11,2 L14,3 L14,5 L12,5 L12,9 L10,9 L14,14 L16,15 L16,25 L20,26 L19,28 L22,29 L18,30 L14,29 L14,27 L7,24 L7,22 L3,21 L7,20 L6,17 L4,17 L4,15 L0,15 L0,17 L-4,17 L-6,13 L-6,9 L-4,9 L-4,5 L0,5 L0,3 L-4,3 L-4,1 Z " fill="#F8EEDD" transform="translate(137,346)"/>
<path d="M0,0 L3,0 L1,5 L-5,8 L-14,13 L-22,19 L-35,24 L-48,31 L-55,34 L-59,34 L-59,31 L-54,28 L-46,24 L-43,21 L-32,15 L-24,12 L-21,11 L-21,9 L-10,3 L-3,1 Z " fill="#70758D" transform="translate(180,26)"/>
<path d="M0,0 L1,0 L0,15 L-2,15 L-2,17 L-4,17 L-4,19 L-6,19 L-6,21 L-8,21 L-9,25 L-13,29 L-16,29 L-16,31 L-18,31 L-18,33 L-20,33 L-20,35 L-22,35 L-22,37 L-24,37 L-24,39 L-26,40 L-48,40 L-48,39 L-30,39 L-30,37 L-26,35 L-25,31 L-24,27 L-22,27 L-22,25 L-20,25 L-20,20 L-17,15 L-14,15 L-14,11 L-10,11 L-10,13 L-8,13 L-6,7 L-2,8 L-1,3 Z " fill="#2A3047" transform="translate(137,158)"/>
<path d="M0,0 L11,0 L8,1 L7,5 L3,8 L-6,11 L-22,20 L-27,23 L-31,26 L-40,29 L-44,31 L-49,31 L-46,28 L-43,28 L-42,24 L-41,22 L-34,18 L-29,18 L-27,14 L-23,14 L-23,12 L-18,12 L-17,9 L-13,8 L-12,6 L-8,6 L-8,4 Z " fill="#323852" transform="translate(330,287)"/>
<path d="M0,0 L11,0 L9,7 L9,18 L8,20 L6,20 L5,30 L2,37 L-1,38 L-1,40 L-3,40 L-3,42 L-5,42 L-6,44 L-6,41 L-4,41 L-5,36 L-3,36 L-3,9 L1,8 L1,6 L-2,5 L4,5 L5,2 L-3,2 Z " fill="#787E9B" transform="translate(298,105)"/>
<path d="M0,0 L3,0 L3,2 L-4,7 L-6,7 L-6,9 L-14,13 L-16,13 L-16,15 L-20,17 L-24,17 L-24,19 L-29,21 L-32,21 L-32,23 L-38,27 L-48,31 L-54,32 L-56,30 L-53,30 L-52,27 L-44,23 L-40,19 L-33,15 L-26,12 L-20,9 L-18,9 L-18,7 L-10,3 L-3,1 Z " fill="#6B7088" transform="translate(117,60)"/>
<path d="M0,0 L9,0 L9,3 L4,3 L4,8 L8,7 L8,5 L18,5 L17,7 L9,10 L-2,15 L-10,18 L-18,22 L-22,23 L-22,18 L-20,18 L-20,13 L-17,5 L-16,1 L-14,1 L-15,9 L-10,7 L-7,5 L-2,5 L-1,1 Z " fill="#9397B6" transform="translate(161,144)"/>
<path d="M0,0 L5,0 L3,2 L-7,3 L-4,5 L-6,5 L-6,11 L-4,11 L-4,13 L-2,13 L-2,17 L2,17 L2,21 L6,21 L6,23 L10,24 L10,29 L12,29 L13,43 L12,41 L10,41 L10,35 L6,33 L6,29 L4,29 L4,31 L2,31 L2,29 L0,29 L-2,24 L-2,21 L-8,21 L-8,17 L-10,17 L-10,13 L-12,13 L-12,9 L-14,9 L-14,5 L-16,4 L-28,3 L-24,1 Z " fill="#6F7694" transform="translate(97,200)"/>
<path d="M0,0 L2,1 L2,27 L-1,28 L-6,26 L-7,27 L-12,27 L-12,41 L-13,41 L-13,21 L-12,5 L-10,5 L-10,7 L-4,7 L-4,5 L-2,5 Z " fill="#FBF4EA" transform="translate(29,170)"/>
<path d="M0,0 L4,1 L3,2 L9,5 L9,16 L13,18 L10,18 L9,22 L3,24 L-2,24 L-2,26 L-6,26 L-6,28 L-9,28 L-9,30 L-13,30 L-13,32 L-16,31 L-15,29 L-19,29 L-19,27 L-17,27 L-17,25 L-13,25 L-12,22 L-9,19 L-3,19 L-3,17 L3,17 L2,12 L7,7 L5,7 L5,9 L3,9 L3,7 L1,7 L1,9 L-1,9 L-1,5 L1,5 L1,3 L-2,5 L-6,4 L-3,1 Z " fill="#F8EDDC" transform="translate(250,338)"/>
<path d="M0,0 L6,1 L6,3 L14,4 L14,6 L18,6 L18,8 L21,9 L21,11 L24,12 L18,12 L18,14 L12,14 L11,12 L10,88 L2,88 L2,86 L8,87 L8,5 L1,6 L2,3 L-5,6 L-9,5 Z " fill="#7F859F" transform="translate(181,23)"/>
<path d="M0,0 L5,1 L12,4 L12,6 L19,8 L27,13 L24,14 L24,16 L28,16 L28,18 L6,18 L6,20 L1,22 L5,24 L5,26 L-1,24 L-6,20 L-6,17 L-9,14 L-4,14 L-4,16 L2,18 L2,12 L6,12 L6,14 L13,13 L12,8 L8,7 L0,6 Z M-1,14 Z M-2,15 Z " fill="#F7EDDF" transform="translate(33,287)"/>
<path d="M0,0 L14,0 L14,1 L4,2 L4,9 L-2,9 L-2,11 L-4,11 L-4,8 L-8,9 L-8,11 L-26,12 L-30,10 L-30,8 L-36,7 L-36,6 L-24,4 L-13,4 L-12,1 Z " fill="#ADB2D1" transform="translate(201,122)"/>
<path d="M0,0 L2,0 L2,3 L5,3 L8,7 L8,10 L5,12 L4,27 L0,32 L-1,36 L0,40 L-3,40 L-4,49 L-5,49 L-5,32 L-4,21 L-3,18 L-2,1 Z " fill="#333A53" transform="translate(265,172)"/>
<path d="M0,0 L4,0 L4,2 L7,2 L7,4 L16,5 L35,15 L47,22 L48,25 L39,25 L39,23 L33,24 L27,19 L27,17 L19,16 L19,14 L15,13 L15,11 L10,9 L10,7 L6,6 L6,4 L1,2 Z " fill="#717489" transform="translate(201,28)"/>
<path d="M0,0 L4,0 L4,2 L2,2 L2,12 L4,12 L4,10 L6,10 L7,14 L10,14 L10,12 L8,12 L8,10 L22,10 L22,12 L24,12 L24,14 L26,14 L26,16 L22,16 L22,14 L12,14 L12,18 L14,18 L14,16 L16,16 L20,20 L20,22 L16,21 L16,23 L20,24 L20,26 L14,24 L-3,15 L-14,9 L-18,6 L-10,7 L-10,10 L0,10 Z " fill="#F8EEDD" transform="translate(91,327)"/>
<path d="M0,0 L11,0 L14,2 L12,6 L24,6 L22,8 L16,8 L16,10 L2,10 L2,12 L0,12 L0,14 L-2,14 L-2,19 L-4,20 L-3,13 L-7,12 L-12,8 L-16,4 L-16,2 L-18,1 L-14,1 L-14,3 L-11,2 L-8,8 L-6,9 L-7,6 L-6,4 L-4,4 L-4,2 L-2,2 L-2,4 L0,4 Z " fill="#676C87" transform="translate(153,117)"/>
<path d="M0,0 L2,1 L-1,4 L-4,4 L-4,7 L5,4 L4,6 L2,6 L2,14 L0,14 L0,18 L0,22 L-2,22 L-2,24 L-6,24 L-6,30 L-8,30 L-10,27 L-10,22 L-8,22 L-8,20 L-22,20 L-21,18 L-14,16 L-14,14 L-7,9 L-5,9 L-5,7 L-12,10 L-16,9 L-11,6 L-6,4 Z " fill="#8B91AA" transform="translate(125,53)"/>
<path d="M0,0 L2,1 L-1,5 L-6,7 L1,6 L0,10 L-2,10 L-2,14 L-4,14 L-4,16 L-8,16 L-8,20 L-4,20 L-4,22 L-14,22 L-14,20 L-21,22 L-24,20 L-24,18 L-30,18 L-26,15 L-17,10 L-11,8 L-6,4 L-2,4 Z " fill="#F7EEDD" transform="translate(345,285)"/>
<path d="M0,0 L3,1 L1,7 L3,7 L3,23 L-5,23 L-5,21 L-9,21 L-9,17 L-13,17 L-13,13 L-15,12 L-12,12 L-12,10 L-10,10 L-8,6 L-6,4 L-2,4 Z " fill="#424A64" transform="translate(336,114)"/>
<path d="M0,0 L1,2 L3,2 L5,7 L18,9 L18,11 L16,12 L30,13 L30,14 L23,15 L4,15 L4,105 L3,105 L2,35 L1,16 L0,15 Z " fill="#454C67" transform="translate(37,182)"/>
<path d="M0,0 L5,1 L3,4 L-9,10 L-14,12 L-19,16 L-28,19 L-36,24 L-37,20 L-33,21 L-34,16 L-32,15 L-31,11 L-25,9 L-24,3 L-26,2 L-20,3 L-18,5 L-19,7 L-12,8 L-12,6 L-8,6 L-8,4 L-4,4 L-4,2 L0,2 Z " fill="#3C415A" transform="translate(269,323)"/>
<path d="M0,0 L11,5 L8,6 L-4,6 L-3,12 L-5,14 L-9,14 L-9,16 L-15,14 L-24,9 L-22,8 L-18,8 L-19,6 L-16,6 L-15,2 L-12,2 L-12,4 L-8,4 L-8,2 Z " fill="#F9F2EB" transform="translate(267,39)"/>
<path d="M0,0 L4,0 L4,2 L6,2 L6,4 L8,4 L8,6 L6,6 L6,8 L8,8 L11,13 L11,15 L-8,24 L-8,22 L-5,19 L-10,19 L-10,16 L-8,16 L-8,14 L-4,14 L-4,10 L-2,10 L-2,8 L4,8 L4,6 L-2,6 L-2,4 L0,4 Z " fill="#F7ECDC" transform="translate(349,291)"/>
<path d="M0,0 L2,0 L2,7 L-2,11 L-9,11 L-7,14 L-9,15 L-7,18 L-11,16 L-16,14 L-16,12 L-20,12 L-20,10 L-24,9 L-28,4 L-24,4 L-24,2 L-14,2 L-14,6 L-12,6 L-12,8 L-6,8 L-6,6 L-4,6 L-4,4 L-2,4 L-2,2 L0,2 Z " fill="#454B67" transform="translate(133,317)"/>
<path d="M0,0 L13,0 L10,3 L6,5 L1,5 L1,7 L-5,7 L-5,9 L-16,13 L-18,12 L-16,10 L-18,8 L-15,7 L-15,5 L-20,5 L-20,7 L-33,7 L-33,6 L-21,6 L-21,3 L-13,1 Z " fill="#ADB2CE" transform="translate(250,114)"/>
<path d="M0,0 L2,0 L2,2 L8,1 L8,4 L11,3 L11,6 L8,6 L7,9 L1,10 L0,12 L-3,12 L-3,14 L-8,13 L-8,15 L-11,15 L-11,18 L-14,17 L-13,15 L-15,14 L-14,11 L-12,11 L-12,9 L-10,9 L-10,7 L-4,3 L-1,3 Z " fill="#373D55" transform="translate(225,338)"/>
<path d="M0,0 L14,0 L14,3 L15,4 L16,17 L16,21 L13,22 L13,24 L11,24 L11,26 L9,26 L9,28 L7,28 L7,30 L5,30 L5,26 L7,26 L7,13 L9,13 L9,3 L10,2 L-1,2 Z " fill="#6E7491" transform="translate(306,103)"/>
<path d="M0,0 L10,1 L19,4 L22,7 L25,8 L25,10 L29,10 L29,12 L34,13 L31,14 L23,15 L21,14 L21,16 L19,16 L19,14 L13,14 L13,12 L20,10 L17,8 L17,6 L9,5 L9,8 L3,8 L3,6 L-1,5 Z " fill="#EFE9E2" transform="translate(88,319)"/>
<path d="M0,0 L1,0 L2,48 L3,48 L3,54 L0,55 L-1,51 L-1,44 L-2,44 L-3,34 L-4,7 L-5,5 L-3,5 L-2,2 L0,2 Z " fill="#313A52" transform="translate(344,231)"/>
<path d="M0,0 L3,1 L1,1 L1,4 L-2,4 L-3,7 L-19,15 L-29,20 L-33,20 L-33,17 L-28,14 L-20,10 L-17,7 L-10,3 L0,2 Z " fill="#5B617D" transform="translate(154,40)"/>
<path d="M0,0 L2,1 L0,3 L6,2 L6,4 L4,4 L4,8 L6,8 L6,6 L8,6 L8,8 L10,8 L10,6 L12,6 L11,9 L8,12 L8,16 L2,16 L2,18 L-4,18 L-4,12 L-2,12 L-3,9 L-2,6 L-5,5 L-5,7 L-12,8 L-11,6 Z " fill="#ECE4D4" transform="translate(245,339)"/>
<path d="M0,0 L8,0 L8,14 L5,14 L5,12 L0,12 L-3,13 L-3,10 L-5,9 L-5,7 L-7,7 L-7,5 L-4,4 L-16,3 L-16,2 L-2,1 Z " fill="#737999" transform="translate(102,200)"/>
<path d="M0,0 L6,2 L10,4 L10,6 L16,8 L27,14 L33,17 L31,18 L16,19 L13,19 L14,15 L10,13 L10,10 L10,8 L6,8 L6,6 L3,5 L3,3 L0,3 Z " fill="#626886" transform="translate(257,55)"/>
<path d="M0,0 L5,0 L2,1 L2,3 L-7,4 L-8,5 L-19,7 L-30,7 L-30,9 L-54,9 L-50,7 L-41,6 L-39,5 L-16,2 L-13,1 Z " fill="#9BA1BE" transform="translate(299,106)"/>
<path d="M0,0 L5,0 L6,5 L3,9 L0,9 L0,11 L-6,15 L-8,15 L-8,17 L-12,19 L-11,11 L-9,7 L-9,12 L-8,7 L-6,7 L-6,3 L-8,2 Z " fill="#666D8A" transform="translate(337,102)"/>
<path d="M0,0 L2,0 L2,2 L4,2 L4,4 L10,5 L12,9 L-2,16 L-3,13 L-6,13 L-6,8 L-4,8 L-4,4 L-6,4 L-6,2 L-2,2 L-2,4 L0,4 Z " fill="#F5F0EB" transform="translate(37,87)"/>
<path d="M0,0 L8,0 L7,3 L-4,4 L-9,6 L-10,8 L-26,8 L-26,10 L-22,10 L-22,14 L-30,14 L-30,8 L-28,8 L-28,6 L-26,6 L-26,4 L-12,4 L-12,2 L0,2 Z " fill="#ACB0CE" transform="translate(181,123)"/>
<path d="M0,0 L2,0 L2,6 L4,6 L4,2 L6,2 L6,4 L10,4 L10,6 L8,6 L8,9 L3,9 L6,10 L8,10 L8,12 L11,14 L21,13 L29,12 L28,14 L22,16 L10,16 L0,12 L-13,5 L-9,4 L-2,4 L-2,6 L0,7 Z " fill="#F7EDDF" transform="translate(175,377)"/>
<path d="M0,0 L6,2 L22,10 L22,12 L11,10 L8,12 L2,10 L2,12 L-2,10 L-4,6 L-2,6 L-2,2 L0,2 Z " fill="#F2EADF" transform="translate(151,349)"/>
<path d="M0,0 L2,0 L2,3 L-2,3 L-2,5 L-4,6 L-4,8 L-8,8 L-8,10 L-11,13 L-15,13 L-16,16 L-18,16 L-18,18 L-21,18 L-21,20 L-27,20 L-26,18 L-28,16 L-23,12 L-15,9 L-6,4 Z " fill="#FAF4E2" transform="translate(279,321)"/>
<path d="M0,0 L9,0 L9,2 L7,2 L9,6 L11,8 L13,12 L12,14 L5,12 L5,10 L1,10 L1,8 L-3,8 L-3,6 L-8,5 L-4,4 L-1,5 Z " fill="#3D4460" transform="translate(70,297)"/>
<path d="M0,0 L2,1 L-1,5 L-6,7 L1,6 L0,10 L-2,10 L-2,14 L-4,14 L-4,16 L-8,16 L-8,18 L-10,18 L-10,13 L-14,14 L-22,14 L-19,11 L-11,8 L-6,4 L-2,4 Z " fill="#E9E2D4" transform="translate(345,285)"/>
<path d="M0,0 L8,0 L8,2 L10,2 L10,4 L8,4 L9,11 L8,12 L12,12 L12,14 L14,15 L14,17 L16,16 L16,14 L19,15 L20,18 L20,20 L25,21 L26,24 L22,24 L22,22 L18,21 L9,15 L2,12 L2,10 L-3,10 L-6,7 L-10,5 L-8,4 L0,5 L-3,7 L3,9 L3,11 L6,10 L5,8 L6,2 L0,2 Z " fill="#F2ECE8" transform="translate(303,69)"/>
<path d="M0,0 L5,1 L12,4 L12,6 L19,8 L27,13 L25,14 L18,14 L18,16 L14,16 L12,11 L12,8 L8,7 L0,6 Z " fill="#F2ECE0" transform="translate(33,287)"/>
<path d="M0,0 L2,0 L2,6 L-5,9 L-6,13 L-8,13 L-8,16 L-10,16 L-10,13 L-16,14 L-16,12 L-19,15 L-22,14 L-20,14 L-19,11 L-13,10 L-13,8 L-8,5 L-5,3 L-2,3 L-2,1 Z " fill="#383F5A" transform="translate(243,326)"/>
<path d="M0,0 L6,1 L6,3 L0,6 L-6,5 L-6,7 L-10,7 L-10,9 L-14,9 L-14,11 L-18,11 L-18,13 L-22,14 L-26,12 L-22,11 L-19,12 L-20,9 L-19,6 L-14,4 L-10,5 L-9,3 L-6,3 L-4,1 Z " fill="#353B55" transform="translate(275,318)"/>
<path d="M0,0 L2,0 L2,10 L3,14 L10,14 L9,16 L0,20 L-3,22 L-6,22 L-6,17 L-4,17 L-4,12 L-1,4 Z " fill="#8F94B2" transform="translate(145,145)"/>
<path d="M0,0 L6,2 L7,4 L0,3 L1,7 L3,8 L0,8 L-1,12 L-4,12 L-4,16 L-6,16 L-6,22 L-4,22 L-4,26 L-8,26 L-8,12 L-10,12 L-10,10 L-8,10 L-8,8 L-5,9 L-2,3 L0,2 Z " fill="#5C6280" transform="translate(291,73)"/>
<path d="M0,0 L6,0 L6,3 L4,3 L5,8 L10,9 L10,10 L1,10 L-11,7 L-11,5 L-7,3 L-4,3 L-4,1 Z " fill="#8F95AE" transform="translate(105,72)"/>
<path d="M0,0 L7,1 L16,5 L34,10 L35,12 L32,13 L25,11 L25,10 L20,9 L20,7 L10,8 L10,10 L8,10 L8,8 L4,8 L5,5 L7,5 L7,3 L0,3 L-1,5 Z " fill="#6E748E" transform="translate(101,81)"/>
<path d="M0,0 L11,1 L12,2 L27,5 L29,7 L16,6 L16,4 L12,5 L12,7 L15,8 L15,9 L9,9 L6,9 L4,7 L4,4 L0,3 Z " fill="#323851" transform="translate(112,258)"/>
<path d="M0,0 L4,1 L3,4 L-3,6 L-4,79 L-5,79 L-5,3 Z " fill="#4C536F" transform="translate(42,100)"/>
<path d="M0,0 L2,1 L-1,4 L-8,7 L-10,10 L-4,9 L2,6 L4,6 L4,8 L7,9 L5,10 L0,9 L0,11 L-13,15 L-12,12 L-24,14 L-19,10 L-10,6 L-4,2 Z " fill="#707387" transform="translate(73,81)"/>
<path d="M0,0 L6,0 L7,2 L10,0 L16,0 L12,1 L12,3 L9,3 L8,6 L2,7 L2,9 L-2,9 L-2,11 L-6,10 L-4,8 L-4,4 L-2,4 L-2,2 L0,2 Z " fill="#F8EDDC" transform="translate(269,343)"/>
<path d="M0,0 L4,0 L4,2 L1,2 L0,7 L-10,11 L-16,12 L-18,10 L-15,10 L-14,7 L-6,3 L-4,1 Z " fill="#4B5069" transform="translate(79,80)"/>
<path d="M0,0 L11,0 L19,5 L19,9 L10,8 L0,2 Z " fill="#383E5A" transform="translate(50,293)"/>
<path d="M0,0 L4,0 L5,3 L8,4 L8,6 L12,6 L12,8 L15,8 L15,10 L19,10 L19,12 L22,13 L22,16 L16,14 L8,9 L-6,2 L-2,1 L-2,3 L0,2 Z " fill="#F2EFED" transform="translate(221,31)"/>
<path d="M0,0 L7,0 L3,4 L-2,4 L-2,6 L-9,9 L-16,13 L-22,13 L-23,11 L-18,6 L-14,4 L-13,8 L-11,9 L-11,6 L-8,6 L-8,4 L-3,5 L-3,3 L0,3 Z " fill="#3C4258" transform="translate(225,347)"/>
<path d="M0,0 L8,1 L14,3 L15,8 L19,8 L19,10 L22,11 L15,11 L10,9 L10,7 L5,6 L5,4 L1,4 Z " fill="#575D75" transform="translate(291,76)"/>
<path d="M0,0 L4,1 L4,4 L5,1 L8,1 L8,3 L10,3 L10,5 L12,5 L11,9 L13,9 L13,11 L16,12 L7,11 L1,7 L0,3 Z " fill="#404662" transform="translate(81,304)"/>
<path d="M0,0 L13,0 L10,3 L6,5 L1,5 L1,7 L-3,6 L-7,4 L-8,3 L-16,3 L-13,1 Z " fill="#A5AAC6" transform="translate(250,114)"/>
<path d="M0,0 L6,2 L14,7 L12,8 L9,8 L10,12 L9,14 L4,13 L1,12 L1,10 L-1,9 L0,6 L4,5 L4,3 L0,3 Z " fill="#5A5F7D" transform="translate(306,81)"/>
<path d="M0,0 L3,0 L3,2 L5,2 L6,10 L11,11 L11,14 L10,16 L7,13 L-3,8 L-3,6 L-5,5 L-2,5 Z " fill="#F2EEE9" transform="translate(334,87)"/>
<path d="M0,0 L14,0 L14,1 L4,2 L4,3 L-8,4 L-9,5 L-21,6 L-22,7 L-36,7 L-36,6 L-24,4 L-13,4 L-12,1 Z " fill="#B4B9D6" transform="translate(201,122)"/>
<path d="M0,0 L4,0 L4,2 L2,2 L2,12 L0,13 L0,15 L4,15 L4,18 L-2,16 L-18,7 L-14,6 L-10,7 L-10,10 L0,10 Z " fill="#F5ECDD" transform="translate(91,327)"/>
<path d="M0,0 L2,1 L-1,4 L-4,5 L-2,9 L-3,14 L-9,16 L-15,16 L-13,15 L-13,13 L-15,12 L-11,13 L-9,14 L-10,11 L-8,11 L-9,8 L-13,7 L-6,4 Z " fill="#F7EDDD" transform="translate(294,313)"/>
<path d="M0,0 L4,1 L13,7 L20,11 L18,12 L16,12 L15,14 L8,12 L8,10 L6,10 L7,5 L4,6 L3,3 L0,3 Z " fill="#5D6482" transform="translate(149,177)"/>
<path d="M0,0 L8,1 L6,7 L2,11 L2,9 L0,9 L0,11 L-2,11 L-2,13 L0,13 L0,15 L-2,15 L-2,17 L-6,17 L-6,11 L-5,9 L-2,9 L-2,7 L2,5 L2,7 L4,7 L2,2 Z " fill="#5D6481" transform="translate(283,72)"/>
<path d="M0,0 L5,0 L2,1 L3,6 L7,6 L7,8 L-1,7 L-1,9 L-6,7 L-6,5 L-9,5 L-9,1 Z " fill="#484E69" transform="translate(51,286)"/>
<path d="M0,0 L4,0 L4,2 L8,2 L8,4 L11,5 L11,7 L14,8 L8,8 L8,10 L2,10 L0,8 Z " fill="#797F99" transform="translate(191,27)"/>
<path d="M0,0 L2,1 L-17,11 L-30,18 L-32,18 L-32,15 L-28,15 L-28,13 L-24,13 L-23,10 L-20,11 L-20,9 L-17,9 L-17,7 L-13,5 L-8,5 L-8,3 L-5,3 L-5,1 Z " fill="#E0D9D2" transform="translate(338,315)"/>
<path d="M0,0 L8,0 L8,14 L5,14 L5,3 L-16,3 L-16,2 L-2,1 Z " fill="#787F9E" transform="translate(102,200)"/>
<path d="M0,0 L2,1 L-1,4 L-4,5 L-2,7 L-8,8 L-16,7 L-16,9 L-14,10 L-18,11 L-22,8 L-22,6 L-24,5 L-20,5 L-20,2 L-14,4 L-13,5 L-7,5 L-4,2 Z " fill="#DBD4CE" transform="translate(201,363)"/>
<path d="M0,0 L8,1 L12,3 L12,5 L18,5 L18,7 L22,9 L22,11 L9,10 L13,8 L10,7 L10,5 L3,3 Z " fill="#555A76" transform="translate(313,88)"/>
<path d="M0,0 L9,0 L12,3 L12,5 L15,6 L0,6 L1,3 L-3,2 Z " fill="#656B85" transform="translate(186,21)"/>
<path d="M0,0 L2,2 L-3,4 L-4,7 L-11,7 L-17,10 L-19,10 L-19,12 L-28,15 L-32,14 L-21,9 L-14,5 L-4,3 L-4,1 Z " fill="#49506F" transform="translate(79,272)"/>
<path d="M0,0 L1,0 L2,20 L3,23 L0,24 L-2,28 L-3,25 L-3,16 Z " fill="#2D344D" transform="translate(264,177)"/>
<path d="M0,0 L7,0 L9,1 L9,3 L-1,3 L-1,6 L1,7 L-2,7 L-2,5 L-10,8 L-17,9 L-16,7 L-9,3 L-5,3 L-5,1 Z " fill="#E4E0D6" transform="translate(228,350)"/>
<path d="M0,0 L8,0 L7,3 L-4,4 L-17,6 L-26,6 L-26,4 L-12,4 L-12,2 L0,2 Z " fill="#9BA0BD" transform="translate(181,123)"/>
<path d="M0,0 L4,1 L4,4 L2,4 L2,6 L-2,6 L-2,8 L-4,8 L-4,10 L-6,10 L-6,12 L-8,12 L-8,14 L-10,14 L-10,8 L-7,5 L-3,5 L-2,2 L0,2 Z " fill="#F8EEDC" transform="translate(271,329)"/>
<path d="M0,0 L8,0 L7,4 L2,7 L-4,10 L-6,9 L-5,7 L-2,7 L-3,3 L-3,5 L-10,6 L-9,4 L-1,1 Z " fill="#6A708A" transform="translate(157,37)"/>
<path d="M0,0 L4,0 L4,2 L7,2 L7,4 L16,5 L19,8 L19,10 L22,11 L15,11 L10,9 L10,7 L6,6 L6,4 L1,2 Z " fill="#5B617A" transform="translate(201,28)"/>
<path d="M0,0 L8,1 L11,2 L13,2 L13,4 L16,6 L26,5 L34,4 L33,6 L27,8 L15,8 L5,4 L0,1 Z " fill="#E0D9D3" transform="translate(170,385)"/>
<path d="M0,0 L3,0 L3,2 L-4,7 L-6,7 L-6,9 L-13,12 L-14,8 L-13,6 L-8,6 L-8,3 Z " fill="#4B526E" transform="translate(117,60)"/>
<path d="M0,0 L4,0 L3,3 L-2,3 L-3,6 L-4,7 L-3,9 L-7,9 L-7,11 L-13,11 L-13,7 L-5,3 Z " fill="#9096AE" transform="translate(164,40)"/>
<path d="M0,0 L6,2 L18,8 L18,10 L11,9 L11,7 L8,7 L8,5 L5,6 L10,10 L6,10 L6,8 L2,8 L2,6 L-2,6 L-2,4 L1,3 Z " fill="#6E7288" transform="translate(197,23)"/>
<path d="M0,0 L2,1 L-1,5 L-3,5 L-3,7 L-5,8 L-6,12 L-15,16 L-17,15 L-14,14 L-14,12 L-12,12 L-12,10 L-10,10 L-10,8 L-8,8 L-8,6 Z " fill="#444B68" transform="translate(327,119)"/>
<path d="M0,0 L5,1 L3,2 L3,5 L-5,7 L-7,8 L-7,10 L-10,9 L-11,6 L-8,3 L0,1 Z " fill="#515872" transform="translate(57,92)"/>
<path d="M0,0 L2,1 L-1,4 L-4,4 L-4,7 L5,4 L1,8 L-9,13 L-12,13 L-7,9 L-5,9 L-5,7 L-12,10 L-16,9 L-11,6 L-6,4 Z " fill="#7B7E93" transform="translate(125,53)"/>
<path d="M0,0 L2,1 L-9,7 L-25,16 L-26,14 L-24,12 L-20,11 L-19,8 L-16,9 L-16,7 L-12,7 L-12,5 L-9,5 L-9,3 L-5,3 L-5,1 Z " fill="#DCD6D1" transform="translate(253,361)"/>
<path d="M0,0 L6,2 L14,6 L14,8 L3,6 L0,8 L-4,7 L-4,4 L-2,4 L-2,2 L0,2 Z " fill="#E3DDD5" transform="translate(159,353)"/>
<path d="M0,0 L2,4 L3,6 L-3,5 L-27,5 L-39,4 L-39,3 L-1,2 Z " fill="#5C6280" transform="translate(114,196)"/>
<path d="M0,0 L1,0 L0,13 L-2,13 L-3,16 L-5,14 L-8,14 L-8,9 L-6,9 L-6,6 L-3,7 Z " fill="#2D334B" transform="translate(147,132)"/>
<path d="M0,0 L2,0 L3,3 L6,4 L6,6 L-5,6 L-5,7 L-12,9 L-17,10 L-14,7 Z " fill="#878DA6" transform="translate(149,47)"/>
<path d="M0,0 L5,0 L4,4 L-6,9 L-10,9 L-10,6 L-5,3 Z " fill="#4F5574" transform="translate(131,51)"/>
<path d="M0,0 L2,1 L-12,9 L-17,12 L-19,12 L-20,9 L-16,9 L-15,5 L-9,5 L-8,2 L-5,3 L-5,1 Z " fill="#E0DBD4" transform="translate(224,377)"/>
<path d="M0,0 L1,2 L10,0 L10,3 L7,3 L6,6 L0,7 L-1,9 L-4,9 L-4,11 L-7,10 L-5,10 L-5,8 L-3,8 L-2,3 Z " fill="#303650" transform="translate(226,341)"/>
<path d="M0,0 L8,0 L8,1 L17,1 L17,0 L30,0 L30,1 L21,2 L20,3 L6,4 L6,5 L-6,5 L-6,4 L4,4 L4,2 L0,2 Z " fill="#5F6783" transform="translate(211,113)"/>
<path d="M0,0 L10,1 L13,2 L13,4 L7,5 L5,4 L5,7 L-1,5 Z " fill="#F9F0E5" transform="translate(88,319)"/>
<path d="M0,0 L5,0 L2,3 L0,3 L-1,12 L-3,11 L-3,6 L-10,9 L-14,8 L-8,4 L-3,4 L-3,1 Z " fill="#F8F1E0" transform="translate(318,302)"/>
<path d="M0,0 L4,0 L4,2 L2,2 L3,3 L11,2 L7,5 L-8,12 L-8,10 L-5,7 L-1,7 L-2,1 Z " fill="#E6DFD7" transform="translate(349,303)"/>
<path d="M0,0 L1,0 L1,26 L-1,26 L-3,30 L-3,18 L-1,3 Z " fill="#3D445F" transform="translate(260,198)"/>
<path d="M0,0 L2,0 L2,9 L-2,26 L-3,26 L-4,11 L-2,11 Z " fill="#4F5672" transform="translate(261,181)"/>
<path d="M0,0 L1,2 L4,3 L1,6 L7,6 L6,8 L-3,11 L-4,9 L-2,8 L-5,7 L-4,2 Z " fill="#FBF5ED" transform="translate(150,31)"/>
<path d="M0,0 L5,1 L9,2 L10,4 L18,5 L20,8 L20,11 L14,9 L1,2 Z " fill="#DFD8D3" transform="translate(53,322)"/>
<path d="M0,0 L3,0 L1,5 L-10,9 L-14,8 L-11,8 L-11,6 L-8,6 L-8,3 Z " fill="#585E7B" transform="translate(180,26)"/>
<path d="M0,0 L4,0 L4,2 L-6,7 L-10,7 L-11,9 L-14,9 L-13,5 L-5,2 L0,2 Z " fill="#282F4A" transform="translate(307,303)"/>
<path d="M0,0 L1,0 L2,37 L3,37 L3,43 L0,44 L-1,40 Z " fill="#2E354E" transform="translate(344,242)"/>
<path d="M0,0 L4,0 L4,2 L7,1 L10,7 L12,8 L12,6 L14,6 L13,11 L16,11 L16,18 L14,19 L15,12 L11,11 L6,7 L2,3 L2,1 Z " fill="#5C627D" transform="translate(135,118)"/>
<path d="M0,0 L3,0 L4,5 L1,9 L-2,9 L-2,11 L-6,13 L-6,11 L-8,11 L-7,9 L-5,9 L-4,5 L1,5 Z " fill="#656B87" transform="translate(339,102)"/>
<path d="M0,0 L2,0 L2,5 L-1,6 L-5,10 L-13,11 L-12,8 L-8,8 L-8,6 L-4,4 L-4,2 L0,2 Z " fill="#FCF9F2" transform="translate(129,45)"/>
<path d="M0,0 L2,0 L2,2 L4,3 L2,10 L-8,9 L-4,8 L-4,6 L0,4 L-6,4 L-2,1 Z " fill="#F7ECDB" transform="translate(209,359)"/>
<path d="M0,0 L11,2 L21,6 L22,8 L11,8 L11,6 L7,6 L7,3 L0,2 Z " fill="#30374F" transform="translate(174,275)"/>
<path d="M0,0 L2,1 L-3,5 L1,7 L-7,11 L-9,10 L-8,8 L-10,7 L-7,4 Z " fill="#6F758B" transform="translate(144,43)"/>
<path d="M0,0 L4,0 L4,2 L13,3 L15,5 L15,8 L18,9 L11,9 L10,6 L6,4 L2,3 L2,1 Z " fill="#575E78" transform="translate(223,40)"/>
<path d="M0,0 L3,0 L2,4 L0,4 L0,6 L-2,7 L-24,7 L-24,6 L-6,6 L-6,4 L0,2 Z " fill="#272C43" transform="translate(113,191)"/>
<path d="M0,0 L5,1 L18,6 L19,8 L8,8 L8,6 L4,5 L5,3 L0,2 Z " fill="#6D748F" transform="translate(137,93)"/>
<path d="M0,0 L2,0 L2,3 L-3,4 L-2,6 L-4,6 L-4,10 L-8,11 L-8,9 L-5,9 L-5,7 L-9,7 L-10,10 L-16,10 L-15,8 L-8,6 L-8,4 Z " fill="#5D627C" transform="translate(107,63)"/>
<path d="M0,0 L2,0 L2,2 L12,2 L11,4 L3,7 L-2,9 L-3,6 L0,6 Z " fill="#F4F0EC" transform="translate(51,85)"/>
<path d="M0,0 L7,0 L7,2 L9,3 L9,5 L11,4 L11,2 L14,3 L15,6 L15,8 L20,9 L21,12 L17,12 L17,10 L13,9 L4,3 L0,1 Z " fill="#E0DCDA" transform="translate(308,81)"/>
<path d="M0,0 L6,2 L23,11 L21,12 L16,11 L16,9 L12,9 L12,7 L8,7 L8,5 L4,5 L4,3 L0,2 Z " fill="#CAC7CA" transform="translate(77,309)"/>
<path d="M0,0 L6,0 L7,3 L11,4 L11,7 L20,6 L20,8 L17,10 L12,10 L12,8 L10,8 L10,6 L6,6 L6,4 L3,4 L3,2 L0,2 Z " fill="#737994" transform="translate(71,135)"/>
<path d="M0,0 L2,0 L2,2 L6,2 L6,0 L8,0 L8,4 L14,4 L11,8 L8,8 L7,10 L6,4 L0,4 Z " fill="#767C95" transform="translate(97,121)"/>
<path d="M0,0 L9,1 L9,3 L16,2 L16,0 L18,0 L19,5 L20,7 L6,4 L0,1 Z " fill="#878DA6" transform="translate(111,83)"/>
<path d="M0,0 L5,2 L11,6 L11,8 L2,8 L2,5 L0,4 Z " fill="#61667F" transform="translate(238,45)"/>
<path d="M0,0 L3,0 L12,1 L12,4 L16,5 L8,4 L8,1 L4,1 L6,5 L2,7 L2,3 L-2,4 L-2,1 Z " fill="#FAF1E0" transform="translate(169,364)"/>
<path d="M0,0 L11,1 L11,3 L20,2 L17,3 L17,5 L22,4 L21,12 L19,8 L14,5 L0,1 Z " fill="#434A66" transform="translate(177,275)"/>
<path d="M0,0 L15,0 L13,2 L7,3 L-8,3 L-4,1 Z " fill="#626781" transform="translate(162,123)"/>
<path d="M0,0 L11,0 L8,1 L8,4 L1,5 L-2,3 L-2,6 L-5,6 L-5,2 Z " fill="#323952" transform="translate(330,287)"/>
<path d="M0,0 L11,2 L11,4 L13,4 L13,6 L9,6 L9,8 L7,8 L7,3 L3,4 L-5,4 L-2,1 Z " fill="#E1D9CC" transform="translate(328,295)"/>
<path d="M0,0 L5,0 L2,1 L2,3 L-7,4 L-11,5 L-11,3 L-16,3 L-13,1 Z " fill="#8D94B0" transform="translate(299,106)"/>
<path d="M0,0 L2,1 L-11,7 L-17,6 L-14,5 L-13,2 Z " fill="#505770" transform="translate(78,85)"/>
<path d="M0,0 L1,4 L1,7 L1,9 L-10,9 L-13,10 L-13,7 L-7,7 L-7,5 L-2,5 L-3,2 Z " fill="#EDE8E5" transform="translate(196,13)"/>
<path d="M0,0 L13,3 L13,5 L4,4 L3,7 L-1,4 Z " fill="#FBF3E3" transform="translate(161,358)"/>
<path d="M0,0 L5,1 L5,0 L11,0 L11,2 L9,2 L10,5 L6,4 L6,8 L0,6 L-1,4 L4,4 Z " fill="#4A516B" transform="translate(132,333)"/>
<path d="M0,0 L7,1 L7,3 L11,2 L17,5 L15,7 L17,10 L13,8 L8,6 L8,4 L4,4 L4,2 L0,1 Z " fill="#676A82" transform="translate(109,325)"/>
<path d="M0,0 L2,1 L-5,8 L-8,8 L-8,10 L-10,10 L-11,12 L-12,8 L-10,8 L-8,2 L-4,1 Z M-6,3 L-5,6 Z " fill="#4D5571" transform="translate(279,285)"/>
<path d="M0,0 L8,1 L3,5 L1,8 L-2,8 L-3,10 L-2,2 L0,2 Z " fill="#787E98" transform="translate(95,131)"/>
<path d="M0,0 L4,0 L2,5 L0,5 L0,7 L-5,9 L-5,6 L-2,6 L-2,4 L-10,5 L-8,3 L-1,1 Z " fill="#595F77" transform="translate(85,76)"/>
<path d="M0,0 L2,0 L5,7 L6,9 L2,9 L2,7 L-1,6 L0,4 L-6,5 L-6,3 L-10,2 L-3,2 L0,3 Z " fill="#FDF9F3" transform="translate(203,17)"/>
<path d="M0,0 L8,0 L7,2 L-4,8 L-6,8 L-7,4 L-3,2 L-1,1 Z " fill="#E3DCD1" transform="translate(298,333)"/>
<path d="M0,0 L15,0 L19,2 L16,4 L10,4 L1,2 Z " fill="#A8AECB" transform="translate(172,143)"/>
<path d="M0,0 L2,0 L2,2 L7,3 L11,7 L17,9 L13,11 L8,9 L5,6 L5,4 L0,2 Z " fill="#6A708A" transform="translate(223,41)"/>
<path d="M0,0 L2,0 L2,3 L-2,3 L-2,5 L-4,6 L-4,8 L-8,8 L-9,10 L-15,10 L-14,8 L-6,4 Z " fill="#DAD5CD" transform="translate(279,321)"/>
<path d="M0,0 L2,0 L2,2 L11,1 L10,3 L0,7 L-4,6 L-4,3 L-3,1 Z " fill="#8D92B0" transform="translate(159,152)"/>
<path d="M0,0 L4,0 L4,3 L-9,4 L-20,4 L-16,2 L-3,1 Z " fill="#999FBC" transform="translate(225,117)"/>
<path d="M0,0 L6,2 L7,4 L0,3 L1,7 L3,8 L0,8 L-1,12 L-4,11 L-2,8 L-4,7 L-2,2 L0,2 Z " fill="#656B84" transform="translate(291,73)"/>
<path d="M0,0 L6,2 L10,4 L10,6 L16,8 L17,10 L11,9 L11,7 L6,8 L6,6 L3,5 L3,3 L0,3 Z " fill="#82869B" transform="translate(257,55)"/>
<path d="M0,0 L7,0 L4,3 L-9,10 L-11,9 L-10,7 L-7,7 L-6,4 L-3,5 L-3,3 L0,2 Z " fill="#DED8D2" transform="translate(270,349)"/>
<path d="M0,0 L3,0 L2,3 L-1,4 L-2,6 L-11,7 L-11,5 L-5,2 L0,2 Z " fill="#F3EDDE" transform="translate(240,344)"/>
<path d="M0,0 L12,1 L13,3 L24,6 L24,8 L12,5 L7,3 L0,1 Z " fill="#404762" transform="translate(143,265)"/>
<path d="M0,0 L2,0 L2,2 L10,2 L10,0 L14,0 L14,2 L7,3 L7,5 L3,5 L3,7 L0,6 L2,6 L2,4 L0,4 Z " fill="#FAF1DF" transform="translate(241,359)"/>
<path d="M0,0 L6,0 L9,3 L12,5 L8,6 L8,4 L1,5 L-2,4 L-2,2 L0,2 Z " fill="#F3E8DA" transform="translate(247,355)"/>
<path d="M0,0 L5,0 L9,2 L5,5 L-5,6 L-3,5 L-3,3 L0,3 Z " fill="#3E4458" transform="translate(328,290)"/>
<path d="M0,0 L1,2 L0,6 L9,5 L8,7 L1,10 L-3,11 L-3,6 L-1,6 L-1,1 Z " fill="#888EAC" transform="translate(142,156)"/>
<path d="M0,0 L6,2 L10,5 L15,7 L13,8 L7,7 L7,5 L-1,6 Z " fill="#777B95" transform="translate(275,65)"/>
<path d="M0,0 L6,1 L4,6 L1,5 L2,3 L-5,6 L-9,5 Z " fill="#7A7E92" transform="translate(181,23)"/>
<path d="M0,0 L4,1 L-1,6 L-10,7 L-9,5 L-4,2 Z " fill="#F8F4E5" transform="translate(299,312)"/>
<path d="M0,0 L9,0 L9,2 L15,3 L13,6 L9,6 L9,4 L5,4 L5,2 L0,1 Z " fill="#535970" transform="translate(62,301)"/>
<path d="M0,0 L1,4 L-4,7 L-9,7 L-9,2 L-3,2 Z " fill="#2C314D" transform="translate(321,295)"/>
<path d="M0,0 L8,0 L13,1 L24,1 L24,5 L8,3 L7,2 L0,1 Z " fill="#858BA9" transform="translate(181,148)"/>
<path d="M0,0 L22,0 L19,2 L7,2 L7,4 L1,4 Z " fill="#6F7591" transform="translate(174,121)"/>
<path d="M0,0 L14,0 L13,2 L4,3 L-8,3 L-8,2 L0,2 Z " fill="#636A86" transform="translate(188,119)"/>
<path d="M0,0 L3,0 L2,4 L7,4 L6,6 L0,7 L-5,5 L-5,3 Z " fill="#3F445B" transform="translate(281,313)"/>
<path d="M0,0 L2,1 L1,3 L-4,3 L-4,5 L-6,6 L-6,8 L-17,8 L-15,6 L-10,6 L-10,4 Z " fill="#979EBC" transform="translate(217,133)"/>
<path d="M0,0 L5,1 L3,3 L-23,3 L-20,1 Z " fill="#A5AAC8" transform="translate(216,120)"/>
<path d="M0,0 L13,0 L10,2 L4,3 L-9,3 L-9,2 Z " fill="#555B76" transform="translate(290,103)"/>
<path d="M0,0 L7,0 L7,2 L11,2 L11,4 L14,4 L15,8 L9,6 L0,1 Z " fill="#4F5470" transform="translate(91,315)"/>
<path d="M0,0 L4,2 L3,6 L-1,6 L-1,4 L-6,4 L-6,2 L-9,1 L-1,1 Z " fill="#373F5D" transform="translate(172,352)"/>
<path d="M0,0 L9,1 L9,3 L12,3 L12,5 L16,6 L16,8 L10,6 L0,1 Z " fill="#DCD5D0" transform="translate(95,345)"/>
<path d="M0,0 L3,2 L1,7 L-5,5 L-5,7 L-10,7 L-7,6 L-7,4 L-3,4 L-3,1 Z " fill="#FBF5E4" transform="translate(284,320)"/>
<path d="M0,0 L6,1 L6,3 L0,6 L-4,6 L-3,2 Z " fill="#33394F" transform="translate(275,318)"/>
<path d="M0,0 L9,1 L11,4 L13,4 L14,7 L4,7 L6,4 L8,5 L8,3 L4,3 L4,1 Z " fill="#FAF4E8" transform="translate(53,300)"/>
<path d="M0,0 L1,3 L-1,6 L-1,8 L-6,7 L-11,10 L-13,9 L-6,4 L-3,4 L-3,2 Z " fill="#5A617F" transform="translate(226,201)"/>
<path d="M0,0 L5,0 L2,3 L-1,3 L-1,5 L-5,5 L-5,7 L-10,7 L-9,5 L-4,2 Z " fill="#F9F5E6" transform="translate(206,362)"/>
<path d="M0,0 L4,1 L-11,4 L-16,4 L-17,1 Z " fill="#6E7491" transform="translate(233,115)"/>
<path d="M0,0 L6,3 L4,4 L-2,4 L-5,4 L-7,4 L-7,6 L-9,6 L-9,1 L0,2 Z " fill="#EFE6DA" transform="translate(174,361)"/>
<path d="M0,0 L7,0 L7,2 L12,3 L13,5 L8,6 L0,1 Z " fill="#484B64" transform="translate(52,295)"/>
<path d="M0,0 L3,1 L1,1 L1,3 L-1,3 L-1,6 L2,6 L3,9 L5,10 L4,12 L0,9 L0,7 L-3,7 L-3,4 L-5,3 L-3,3 L-3,1 Z " fill="#404763" transform="translate(270,168)"/>
<path d="M0,0 L2,1 L1,3 L-1,3 L-1,5 L-3,5 L-3,8 L-5,8 L-6,10 L-10,10 L-10,8 L-8,8 L-8,6 L-3,2 L0,2 Z " fill="#4D5472" transform="translate(279,159)"/>
<path d="M0,0 L7,1 L6,11 L4,12 L4,7 L2,7 L2,3 L0,2 Z " fill="#343952" transform="translate(143,129)"/>
<path d="M0,0 L2,0 L1,5 L-2,7 L-2,5 L-5,5 L-5,7 L-7,7 L-8,10 L-8,5 L-4,4 L-4,2 Z " fill="#777C97" transform="translate(47,103)"/>
<path d="M0,0 L8,0 L7,2 L0,5 L-6,7 L-6,4 L-4,4 L-4,2 L0,2 Z " fill="#E6E4E5" transform="translate(89,69)"/>
<path d="M0,0 L2,1 L-5,4 L-17,4 L-20,2 L-10,2 Z " fill="#C4C2CA" transform="translate(202,389)"/>
<path d="M0,0 L7,1 L7,3 L11,4 L15,6 L14,8 L8,6 L0,1 Z " fill="#E0D8CF" transform="translate(137,367)"/>
<path d="M0,0 L8,1 L10,7 L2,4 Z " fill="#434862" transform="translate(156,349)"/>
<path d="M0,0 L7,0 L3,4 L-6,7 L-8,8 L-7,4 L-5,3 L-3,2 L0,3 Z " fill="#4B5065" transform="translate(296,309)"/>
<path d="M0,0 L5,1 L8,2 L8,4 L-1,7 L-4,8 L-4,5 L0,5 Z " fill="#A7ADCB" transform="translate(199,135)"/>
<path d="M0,0 L4,1 L2,1 L2,3 L-2,5 L-16,8 L-15,6 L-5,3 L0,2 Z " fill="#969CB9" transform="translate(245,121)"/>
<path d="M0,0 L6,2 L14,7 L12,8 L6,8 L4,3 L0,3 Z " fill="#6E7084" transform="translate(306,81)"/>
<path d="M0,0 L7,0 L3,4 L-2,4 L-2,6 L-10,7 L-8,6 L-8,4 L-3,5 L-3,3 L0,3 Z " fill="#535668" transform="translate(225,347)"/>
<path d="M0,0 L2,1 L-11,8 L-13,7 L-12,5 L-9,5 L-9,3 L-6,1 Z " fill="#DDD7D0" transform="translate(290,341)"/>
<path d="M0,0 L4,1 L4,3 L8,3 L8,1 L15,0 L11,4 L4,5 L0,2 Z " fill="#575B6D" transform="translate(239,335)"/>
<path d="M0,0 L5,0 L2,4 L-1,4 L-1,6 L-3,6 L-3,8 L-5,8 L-4,2 L0,2 Z " fill="#6D7490" transform="translate(306,133)"/>
<path d="M0,0 L8,1 L8,4 L11,4 L11,6 L15,7 L10,7 L10,5 L4,4 L2,3 L2,1 Z " fill="#59617F" transform="translate(249,54)"/>
<path d="M0,0 L2,0 L2,5 L-6,5 L-9,4 L-9,2 L0,2 Z " fill="#FCF6EF" transform="translate(259,47)"/>
<path d="M0,0 L7,0 L9,1 L9,3 L1,3 L-3,2 L-3,4 L-10,5 L-9,3 L-5,3 L-5,1 Z " fill="#DCD7CC" transform="translate(228,350)"/>
<path d="M0,0 L11,2 L14,3 L14,5 L4,5 L4,2 Z " fill="#FBF2E3" transform="translate(137,346)"/>
<path d="M0,0 L6,2 L4,7 L-2,6 L-3,4 L2,4 L2,2 L0,2 Z " fill="#3B425F" transform="translate(151,341)"/>
<path d="M0,0 L5,0 L5,2 L3,3 L-15,4 L-11,2 L-2,1 Z " fill="#8F95B1" transform="translate(260,111)"/>
<path d="M0,0 L4,1 L4,4 L7,5 L6,8 L4,8 L4,6 L2,6 L2,4 L0,4 L0,2 L-3,1 Z " fill="#636985" transform="translate(129,109)"/>
<path d="M0,0 L6,1 L6,3 L8,4 L-5,3 L-5,1 Z " fill="#9399B2" transform="translate(99,76)"/>
<path d="M0,0 L2,1 L-12,8 L-13,5 L-8,5 L-8,3 L-5,3 L-5,1 Z " fill="#DAD6D4" transform="translate(338,315)"/>
<path d="M0,0 L2,0 L3,5 L0,5 L-1,8 L-8,9 L-5,6 L-2,6 L-1,2 Z " fill="#2C324D" transform="translate(289,309)"/>
<path d="M0,0 L2,0 L1,4 L-5,8 L-9,7 L-7,5 L-3,5 L-1,1 Z " fill="#F9F5E6" transform="translate(347,285)"/>
<path d="M0,0 L6,0 L6,2 L3,2 L3,5 L-8,4 L-9,2 L0,2 Z " fill="#8A91AE" transform="translate(215,151)"/>
<path d="M0,0 L4,0 L4,2 L1,2 L1,4 L-3,4 L-3,6 L-8,5 L-5,2 L-1,2 Z " fill="#484F6D" transform="translate(98,70)"/>
<path d="M0,0 L7,0 L7,2 L12,2 L11,6 L4,4 Z " fill="#EBE8E5" transform="translate(281,67)"/>
<path d="M0,0 L2,1 L-1,4 L-4,5 L-5,8 L-13,8 L-11,6 L-6,4 Z " fill="#C8C5C3" transform="translate(294,313)"/>
<path d="M0,0 L9,1 L10,5 L8,5 L8,3 L1,4 Z " fill="#2D324C" transform="translate(112,258)"/>
<path d="M0,0 L1,0 L1,28 L-1,24 Z " fill="#CECED7" transform="translate(369,186)"/>
<path d="M0,0 L6,2 L8,5 L3,5 L2,7 L-1,3 Z " fill="#969AB8" transform="translate(150,136)"/>
<path d="M0,0 L2,1 L-1,5 L-3,5 L-3,7 L-6,7 L-6,9 L-10,10 L-10,8 L-8,8 L-8,6 Z " fill="#4D5572" transform="translate(327,119)"/>
<path d="M0,0 L6,3 L11,6 L10,8 L8,7 L7,10 L6,5 L2,6 L0,3 Z " fill="#727589" transform="translate(336,97)"/>
<path d="M0,0 L9,0 L9,3 L14,3 L15,6 L10,5 L0,1 Z " fill="#8187A3" transform="translate(155,99)"/>
<path d="M0,0 L7,1 L11,3 L7,4 L0,3 L-1,5 Z " fill="#757B96" transform="translate(101,81)"/>
<path d="M0,0 L5,0 L4,4 L-1,6 L0,3 L-5,4 L-4,2 Z " fill="#5B617C" transform="translate(131,51)"/>
<path d="M0,0 L2,0 L2,2 L4,3 L4,5 L9,4 L9,7 L6,7 L-4,2 Z " fill="#EAE6E4" transform="translate(201,21)"/>
<path d="M0,0 L8,0 L8,2 L12,2 L11,6 L5,4 Z " fill="#E1D8D1" transform="translate(151,375)"/>
<path d="M0,0 L7,0 L8,1 L13,1 L11,4 L5,4 L0,1 Z " fill="#55576D" transform="translate(183,365)"/>
<path d="M0,0 L6,0 L2,1 L2,3 L-1,3 L-2,6 L-8,7 L-6,6 L-6,4 L-2,4 L-2,1 Z " fill="#FCF4E0" transform="translate(279,343)"/>
<path d="M0,0 L5,1 L5,3 L9,3 L9,5 L13,5 L12,8 L12,6 L7,7 L7,5 L4,4 L4,2 L1,3 Z " fill="#E9E6E2" transform="translate(62,302)"/>
<path d="M0,0 L2,1 Z M-1,1 L0,4 L-1,6 L-3,6 L-3,8 L-7,9 L-7,6 L-5,6 L-5,3 Z " fill="#262C43" transform="translate(124,181)"/>
<path d="M0,0 L4,1 L4,4 L-4,3 L-4,5 L-11,6 L-10,4 Z " fill="#737A98" transform="translate(165,155)"/>
<path d="M0,0 L2,2 L2,10 L0,10 L0,8 L-3,8 L-3,6 L0,6 L0,4 L-4,3 L0,2 Z " fill="#343A53" transform="translate(115,121)"/>
<path d="M0,0 L4,0 L4,3 L-2,3 L-2,5 L-9,4 L-7,2 L0,2 Z " fill="#9197B5" transform="translate(269,113)"/>
<path d="M0,0 L9,0 L9,2 L3,3 L-6,3 L-6,2 Z " fill="#545A77" transform="translate(312,99)"/>
<path d="M0,0 L6,1 L6,3 L9,3 L9,5 L14,4 L14,7 L11,8 L8,6 L8,4 L4,3 L0,1 Z " fill="#EBE7E5" transform="translate(259,55)"/>
<path d="M0,0 L2,0 L2,2 L5,3 L2,5 L2,7 L-3,6 L-3,4 L0,4 L-1,1 Z " fill="#3D4561" transform="translate(145,337)"/>
<path d="M0,0 L0,3 L-3,8 L-8,8 L-8,6 L-6,6 L-6,4 L-4,4 L-4,2 Z " fill="#535976" transform="translate(125,185)"/>
<path d="M0,0 L9,1 L16,4 L17,6 L6,4 L6,2 L1,2 Z " fill="#8186A3" transform="translate(239,163)"/>
<path d="M0,0 L6,1 L1,5 L-5,5 Z " fill="#9AA0BD" transform="translate(176,145)"/>
<path d="M0,0 L13,0 L13,1 L4,2 L3,3 L-8,3 L-8,2 L0,1 Z " fill="#5A617E" transform="translate(228,113)"/>
<path d="M0,0 L2,0 L2,2 L6,2 L6,0 L9,1 L7,1 L7,3 L0,6 L-1,2 Z " fill="#555B77" transform="translate(104,66)"/>
<path d="M0,0 L4,1 L-1,5 L-7,5 L-3,1 Z " fill="#4F5673" transform="translate(147,44)"/>
<path d="M0,0 L2,0 L2,2 L5,3 L3,4 L-2,3 L-2,5 L-7,6 L-6,3 Z " fill="#767C95" transform="translate(75,87)"/>
<path d="M0,0 L8,1 L11,3 L11,5 L7,5 L7,3 L2,3 L2,1 Z " fill="#424A66" transform="translate(291,76)"/>
<path d="M0,0 L8,1 L6,7 L4,8 L3,4 Z " fill="#4F5676" transform="translate(283,72)"/>
<path d="M0,0 L8,1 L8,3 L11,3 L11,6 L5,4 Z " fill="#D8D1CE" transform="translate(125,361)"/>
<path d="M0,0 L7,1 L7,5 L0,4 Z " fill="#39405A" transform="translate(42,287)"/>
<path d="M0,0 L2,0 L0,5 L-6,8 L-8,8 L-8,6 L-3,4 L-3,2 L0,2 Z " fill="#5D6380" transform="translate(243,187)"/>
<path d="M0,0 L2,1 L0,6 L-8,5 L-5,2 Z " fill="#727896" transform="translate(151,161)"/>
<path d="M0,0 L3,1 L1,1 L1,3 L-1,3 L-1,5 L-5,5 L-5,7 L-10,7 L-7,6 L-7,4 L-3,4 L-2,1 Z " fill="#9297AF" transform="translate(120,64)"/>
<path d="M0,0 L3,4 L0,5 L0,7 L-5,6 Z " fill="#313853" transform="translate(207,353)"/>
<path d="M0,0 L4,1 L-2,5 L-6,4 L-3,1 Z " fill="#FBF6E5" transform="translate(250,338)"/>
<path d="M0,0 L2,1 L1,3 L-5,5 L-5,8 L-10,7 L-5,2 Z " fill="#DDD8CF" transform="translate(261,331)"/>
<path d="M0,0 L1,2 L-8,8 L-9,4 L-4,2 Z " fill="#4D5572" transform="translate(292,273)"/>
<path d="M0,0 L2,1 L1,6 L-7,4 L-5,2 Z " fill="#969CBC" transform="translate(198,141)"/>
<path d="M0,0 L5,1 L2,4 L-5,5 L-6,3 L-2,3 L-2,1 Z " fill="#ABB1CD" transform="translate(243,118)"/>
<path d="M0,0 L5,1 L4,4 L0,6 L-3,5 L-2,2 L0,2 Z " fill="#DAD8DA" transform="translate(130,47)"/>
<path d="M0,0 L6,1 L7,4 L10,5 L3,5 L2,1 Z " fill="#4C536D" transform="translate(213,34)"/>
<path d="M0,0 L6,2 L10,4 L10,6 L3,5 L3,3 L0,3 Z " fill="#848695" transform="translate(205,27)"/>
<path d="M0,0 L11,0 L8,3 L2,3 L0,2 Z " fill="#FBF6E6" transform="translate(185,370)"/>
<path d="M0,0 L4,0 L4,2 L-3,3 L-3,5 L-7,5 L-7,3 Z " fill="#2B324E" transform="translate(250,333)"/>
<path d="M0,0 L8,1 L8,4 L11,4 L11,6 L5,4 Z " fill="#D4CFD0" transform="translate(73,333)"/>
<path d="M0,0 L6,2 L6,4 L11,6 L12,8 L6,7 L5,3 L1,2 Z " fill="#5E6483" transform="translate(171,191)"/>
<path d="M0,0 L5,0 L9,1 L11,5 L7,5 L7,3 L1,2 Z " fill="#FEFBF7" transform="translate(299,75)"/>
<path d="M0,0 L7,0 L7,2 L10,3 L10,6 L4,4 Z " fill="#E7E3E1" transform="translate(233,41)"/>
<path d="M0,0 L4,0 L4,3 L-2,5 L-6,4 L-3,4 L-3,2 L0,2 Z " fill="#4F5675" transform="translate(172,30)"/>
<path d="M0,0 L11,0 L11,2 L8,2 L8,4 L2,2 Z " fill="#E5DBD4" transform="translate(162,381)"/>
<path d="M0,0 L7,1 L7,3 L11,3 L11,6 L5,4 L0,1 Z " fill="#D6D0C9" transform="translate(84,339)"/>
<path d="M0,0 L2,0 L2,3 L-4,5 L-9,6 L-8,4 Z " fill="#B2AEB0" transform="translate(313,303)"/>
<path d="M0,0 L4,1 L4,7 L0,6 L0,3 Z " fill="#3B435E" transform="translate(81,304)"/>
<path d="M0,0 L5,0 L2,3 L-2,3 L-2,5 L-7,5 L-3,4 L-3,1 Z " fill="#FBF8E8" transform="translate(318,302)"/>
<path d="M0,0 L0,3 L-3,5 L-11,6 L-9,4 Z " fill="#515775" transform="translate(110,257)"/>
<path d="M0,0 L3,0 L2,4 L-2,3 L-3,6 L-6,6 L-6,4 L-3,2 L0,2 Z " fill="#5E6482" transform="translate(259,175)"/>
<path d="M0,0 L2,1 L0,5 L-9,6 L-4,2 Z " fill="#8C8D99" transform="translate(58,89)"/>
<path d="M0,0 L2,0 L2,3 L-4,5 L-8,6 L-8,4 Z " fill="#87899A" transform="translate(107,63)"/>
<path d="M0,0 L4,0 L4,2 L11,3 L11,5 L6,4 L2,3 L2,1 Z " fill="#49516D" transform="translate(223,40)"/>
<path d="M0,0 L7,1 L7,4 L11,5 L3,4 L3,1 Z " fill="#FCF8EC" transform="translate(174,364)"/>
<path d="M0,0 L1,0 L1,10 L4,10 L3,13 L0,13 Z " fill="#444B67" transform="translate(195,349)"/>
<path d="M0,0 L3,1 L2,5 L0,4 L0,7 L-2,7 L-2,1 Z " fill="#F9F1E4" transform="translate(119,332)"/>
<path d="M0,0 L1,3 L0,5 L-2,5 L-2,7 L-7,8 L-1,1 Z " fill="#3D4361" transform="translate(256,307)"/>
<path d="M0,0 L9,4 L9,6 L3,5 L3,3 L-1,4 Z " fill="#D1CDC8" transform="translate(36,287)"/>
<path d="M0,0 L2,1 L-5,8 L-6,6 L-4,1 Z " fill="#464F6C" transform="translate(279,285)"/>
<path d="M0,0 L0,3 L2,4 L2,6 L-2,8 L-2,6 L-4,5 L-3,2 Z " fill="#38405A" transform="translate(297,269)"/>
<path d="M0,0 L3,0 L4,5 L0,9 Z " fill="#5D647F" transform="translate(339,102)"/>
<path d="M0,0 L8,0 L7,2 L-2,5 L-3,3 Z " fill="#DFDCDE" transform="translate(149,37)"/>
<path d="M0,0 L8,0 L10,3 L5,4 L0,1 Z " fill="#4E5066" transform="translate(175,361)"/>
<path d="M0,0 L3,0 L2,3 L-3,3 L-3,5 L-7,4 L-5,2 L0,2 Z " fill="#FBF7E6" transform="translate(240,344)"/>
<path d="M0,0 L3,1 L-8,6 L-8,4 L-5,1 Z " fill="#D1CDD2" transform="translate(349,309)"/>
<path d="M0,0 L5,3 L4,6 L-3,4 L-3,2 L0,2 Z " fill="#50556D" transform="translate(78,305)"/>
<path d="M0,0 L2,1 L-2,5 L-8,6 L-8,4 Z " fill="#4E5673" transform="translate(217,271)"/>
<path d="M0,0 L3,1 L1,5 L-3,8 L-1,1 Z " fill="#343952" transform="translate(126,179)"/>
<path d="M0,0 L1,0 L0,9 L-2,12 L-2,4 Z " fill="#242A42" transform="translate(137,158)"/>
<path d="M0,0 L1,0 L1,7 L0,11 L-2,11 L-2,5 Z " fill="#252B41" transform="translate(147,132)"/>
<path d="M0,0 L2,1 L2,4 L-2,6 L-6,5 L-2,2 L0,2 Z " fill="#343A54" transform="translate(103,131)"/>
<path d="M0,0 L9,0 L9,1 L1,1 L0,6 L-2,6 L-2,2 L0,2 Z " fill="#B7BBD8" transform="translate(154,130)"/>
<path d="M0,0 L9,3 L6,5 L-1,3 Z " fill="#727894" transform="translate(127,89)"/>
<path d="M0,0 L4,0 L4,2 L10,3 L11,5 L7,5 L7,3 L2,3 Z " fill="#FDFBF6" transform="translate(321,87)"/>
<path d="M0,0 L7,1 L7,3 L10,4 L3,4 Z " fill="#444B6A" transform="translate(303,83)"/>
<path d="M0,0 L4,1 L1,1 L1,4 L-6,5 L-4,4 L-4,2 L0,2 Z " fill="#212A42" transform="translate(337,287)"/>
<path d="M0,0 L4,2 L0,4 L-2,6 L-4,6 L-4,4 L-2,4 L-2,2 L0,2 Z " fill="#565C78" transform="translate(115,193)"/>
<path d="M0,0 L6,2 L10,6 L3,5 Z " fill="#626887" transform="translate(159,183)"/>
<path d="M0,0 L1,4 L-1,10 L-3,10 L-2,1 Z " fill="#464B65" transform="translate(142,152)"/>
<path d="M0,0 L2,0 L2,2 L4,3 L2,4 L-6,4 L-2,1 Z " fill="#C4BFBC" transform="translate(209,359)"/>
<path d="M0,0 L3,0 L2,6 L-1,5 L0,3 L-2,2 Z " fill="#333951" transform="translate(212,350)"/>
<path d="M0,0 L7,2 L11,4 L9,5 L4,4 L4,2 L0,2 Z " fill="#D6D2D5" transform="translate(89,316)"/>
<path d="M0,0 L2,0 L2,2 L4,3 L2,4 L-6,4 L-2,1 Z " fill="#C6BFBC" transform="translate(321,299)"/>
<path d="M0,0 L5,1 L10,3 L8,4 L1,3 Z " fill="#6E7491" transform="translate(249,167)"/>
<path d="M0,0 L3,0 L3,4 L5,5 L-1,4 L-2,2 Z " fill="#7F85A2" transform="translate(260,167)"/>
<path d="M0,0 L2,1 L-1,6 L-4,6 L-5,3 Z " fill="#717796" transform="translate(174,151)"/>
<path d="M0,0 L10,0 L9,2 L2,4 L2,2 L0,2 Z " fill="#8C93B0" transform="translate(169,149)"/>
<path d="M0,0 L2,0 L2,6 L0,6 L-1,10 Z " fill="#A0A4C3" transform="translate(147,143)"/>
<path d="M0,0 L2,1 L1,3 L-2,3 L-4,7 L-7,6 L-5,6 L-5,3 L0,2 Z " fill="#3E4561" transform="translate(304,140)"/>
<path d="M0,0 L4,0 L4,4 L-1,3 Z " fill="#B0B4D1" transform="translate(155,133)"/>
<path d="M0,0 L3,1 L2,3 L-1,3 L-1,5 L-4,5 L-2,1 Z " fill="#2C314B" transform="translate(113,124)"/>
<path d="M0,0 L5,1 L9,3 L5,4 L0,2 Z " fill="#747A95" transform="translate(137,93)"/>
<path d="M0,0 L5,1 L3,2 L3,4 L-3,3 Z " fill="#49506B" transform="translate(57,92)"/>
<path d="M0,0 L9,1 L10,4 L5,3 L0,1 Z " fill="#8389A2" transform="translate(111,83)"/>
<path d="M0,0 L0,3 L-1,5 L-8,5 L-7,3 Z " fill="#8B90A8" transform="translate(126,60)"/>
<path d="M0,0 L6,2 L2,3 L2,5 L-2,4 Z " fill="#FBF3DF" transform="translate(265,349)"/>
<path d="M0,0 L5,1 L5,3 L8,3 L8,5 L2,3 Z " fill="#CDCBCD" transform="translate(53,322)"/>
<path d="M0,0 L1,3 L-2,3 L-2,5 L-5,5 L-4,1 Z " fill="#272F48" transform="translate(276,319)"/>
<path d="M0,0 L4,0 L3,4 L-2,5 Z " fill="#3B4056" transform="translate(340,285)"/>
<path d="M0,0 L2,0 L2,2 L-2,4 L-6,3 L-5,1 Z " fill="#565D7B" transform="translate(73,273)"/>
<path d="M0,0 L4,0 L4,2 L10,2 L11,4 L2,3 Z " fill="#717695" transform="translate(229,161)"/>
<path d="M0,0 L2,1 L0,5 L-6,6 L-3,2 L0,2 Z " fill="#4F5572" transform="translate(291,149)"/>
<path d="M0,0 L2,1 L2,5 L-1,5 L-2,7 L-1,1 Z " fill="#6F768D" transform="translate(94,134)"/>
<path d="M0,0 L8,1 L7,4 L0,1 Z " fill="#454C6A" transform="translate(313,88)"/>
<path d="M0,0 L4,1 L1,4 L-6,2 L-6,1 Z " fill="#878EA7" transform="translate(137,89)"/>
<path d="M0,0 L6,2 L7,4 L-2,4 L-2,2 L0,2 Z " fill="#75798C" transform="translate(249,51)"/>
<path d="M0,0 L6,0 L3,3 L-2,3 Z " fill="#FCFAF6" transform="translate(152,35)"/>
<path d="M0,0 L2,1 L-1,4 Z " fill="#CDD1EA" transform="translate(382,126)"/>
<path d="M0,0 L3,1 L3,3 L1,3 Z " fill="#A6AFD1" transform="translate(33,314)"/>
<path d="M0,0 L1,0 L1,6 L0,6 Z " fill="#E7E2DE" transform="translate(13,238)"/>
<path d="M0,0 L3,1 L2,3 Z " fill="#ACB2D1" transform="translate(36,320)"/>
<path d="M0,0 L2,2 L0,2 Z " fill="#ACB4D1" transform="translate(40,323)"/>
<path d="M0,0 L1,2 L-1,1 Z " fill="#ACB6D1" transform="translate(38,317)"/>
<path d="M0,0 L3,1 Z " fill="#C7CCE5" transform="translate(6,152)"/>
<path d="M0,0 L1,2 L-1,1 Z " fill="#C7CAE4" transform="translate(8,144)"/>
<path d="M0,0 L2,1 Z " fill="#727FA9" transform="translate(143,374)"/>
<path d="M0,0 L2,1 Z " fill="#707BA9" transform="translate(265,358)"/>
<path d="M0,0 L2,1 Z " fill="#ACB4D1" transform="translate(360,315)"/>
<path d="M0,0 L2,1 Z " fill="#E9E4DF" transform="translate(22,304)"/>
<path d="M0,0 Z " fill="#EBE3DD" transform="translate(13,249)"/>
<path d="M0,0 Z " fill="#C8C8E2" transform="translate(0,217)"/>
<path d="M0,0 Z " fill="#C7CCE0" transform="translate(4,214)"/>
<path d="M0,0 Z " fill="#6D74A4" transform="translate(272,354)"/>
<path d="M0,0 Z " fill="#A8B1CE" transform="translate(39,327)"/>
<path d="M0,0 Z " fill="#AEB8D3" transform="translate(40,326)"/>
<path d="M0,0 Z " fill="#A7ACC5" transform="translate(51,322)"/>
<path d="M0,0 Z " fill="#A7AECA" transform="translate(49,321)"/>
<path d="M0,0 Z " fill="#A8AEC7" transform="translate(47,320)"/>
<path d="M0,0 Z " fill="#A5AFCA" transform="translate(45,319)"/>
<path d="M0,0 Z " fill="#AAAECD" transform="translate(34,319)"/>
<path d="M0,0 Z " fill="#A2AEC8" transform="translate(43,318)"/>
<path d="M0,0 Z " fill="#A7B3CD" transform="translate(40,317)"/>
<path d="M0,0 Z " fill="#EBE6DD" transform="translate(25,306)"/>
<path d="M0,0 Z " fill="#E6E0DB" transform="translate(24,305)"/>
<path d="M0,0 Z " fill="#FFF5E6" transform="translate(22,301)"/>
<path d="M0,0 Z " fill="#CBCCDC" transform="translate(370,164)"/>
<path d="M0,0 Z " fill="#C9C8DA" transform="translate(370,153)"/>
<path d="M0,0 Z " fill="#CED0EA" transform="translate(382,131)"/>
<path d="M0,0 Z " fill="#C3CAE4" transform="translate(372,110)"/>
</svg>
