<svg version="1.1" xmlns="http://www.w3.org/2000/svg" style="display: block;" viewBox="0 0 1536 1572" width="346" height="400" preserveAspectRatio="none">
<defs>
	<linearGradient id="ForestBase" gradientUnits="userSpaceOnUse" x1="246.659" y1="250.212" x2="1268.25" y2="1349.75">
		<stop offset="0" stop-color="rgb(67,140,77)"/>
		<stop offset="0.53" stop-color="rgb(35,100,69)"/>
		<stop offset="1" stop-color="rgb(14,56,57)"/>
	</linearGradient>
	<radialGradient id="ForestGlow" gradientUnits="userSpaceOnUse" cx="727.311" cy="517.258" r="686.72">
		<stop offset="0" stop-color="rgb(154,216,109)" stop-opacity="0.38"/>
		<stop offset="1" stop-color="rgb(154,216,109)" stop-opacity="0"/>
	</radialGradient>
	<linearGradient id="TriLight" gradientUnits="userSpaceOnUse" x1="768" y1="206.579" x2="768" y2="1322.29">
		<stop offset="0" stop-color="rgb(162,225,108)"/>
		<stop offset="1" stop-color="rgb(73,126,78)"/>
	</linearGradient>
	<linearGradient id="TriMid" gradientUnits="userSpaceOnUse" x1="721.835" y1="307.683" x2="847.907" y2="1340.48">
		<stop offset="0" stop-color="rgb(111,177,98)"/>
		<stop offset="1" stop-color="rgb(36,92,70)"/>
	</linearGradient>
	<linearGradient id="TriDark" gradientUnits="userSpaceOnUse" x1="678.877" y1="259.696" x2="863.012" y2="1333.5">
		<stop offset="0" stop-color="rgb(44,101,80)"/>
		<stop offset="1" stop-color="rgb(13,48,56)"/>
	</linearGradient>
	<linearGradient id="Vignette" gradientUnits="userSpaceOnUse" x1="206.952" y1="286.132" x2="1338.98" y2="1260.35">
		<stop offset="0" stop-color="rgb(7,29,41)" stop-opacity="0.2"/>
		<stop offset="1" stop-color="rgb(7,29,41)" stop-opacity="0.52"/>
	</linearGradient>
	<clipPath id="InnerHexClip">
		<path d="M 136.469 1138.72 C 135.072 1118.41 136.063 1085.29 136.258 1064.07 C 136.62 1025.49 136.776 986.917 136.726 948.34 L 137.148 538.355 C 137.166 506.893 135.176 446.57 137.899 417.656 C 138.752 408.586 243.6 355.258 256.912 348.084 L 529.937 202.381 C 571.393 179.907 612.884 158.023 654.345 135.309 C 684.331 118.882 716.078 99.1587 747.501 86.0447 C 765.978 78.3333 785.625 90.1423 803.119 98.4273 L 1055.93 234.94 C 1073.04 244.143 1089.9 255.34 1106.97 264.209 L 1281.35 355.519 C 1309.97 370.696 1339.06 385.263 1367 401.824 C 1377.63 408.129 1383.24 412.609 1390.26 422.555 C 1394.99 433.934 1393.06 569.987 1393.07 590.679 L 1393.13 883.699 C 1393.19 944.655 1394.84 1006 1393.46 1067 C 1393.11 1082.69 1393.19 1122.03 1389.47 1135.95 C 1377.02 1150.34 1351.45 1164.56 1334.57 1173.22 C 1308.55 1186.57 1282.82 1200.3 1257 1214 L 994.655 1352.38 C 946.043 1378.49 897.076 1407.15 848.239 1433.14 C 821.341 1447.45 788.416 1467.62 760.682 1479.13 L 553.67 1366.33 C 539.953 1358.97 520.72 1350.02 507.885 1342.38 C 483.503 1328.07 460.054 1313.14 434.947 1300.03 C 374.845 1268.65 312.59 1238.98 252.875 1206.97 C 223.241 1191.09 156.01 1162.46 136.469 1138.72 z"/>
	</clipPath>
</defs>

<!-- Cream border hex -->
<path fill="rgb(250,243,233)" d="M 116.749 1221.9 C 90.4938 1202.06 69.1267 1187.59 65.886 1151.97 C 61.515 1103.15 64.555 1053.23 64.0678 1004.19 C 64.0284 1000.23 64.7206 994.48 65.1813 990.57 C 69.7794 951.551 68.3746 912.198 64.3117 873.212 C 63.4957 865.382 65.1251 854.236 65.0161 845.894 L 63.7066 743.34 C 63.041 708.357 56.9129 673.131 60.1138 637.612 C 61.2639 624.85 63.113 612.102 63.234 599.325 C 63.2212 588.999 61.4604 578.781 61.2272 568.973 C 60.7403 548.489 60.0966 529.419 61.3961 508.913 C 61.8533 501.697 60.134 489.771 60.3518 481.46 C 60.6683 469.383 62.1017 457.891 62.6237 446.03 C 63.0296 436.808 59.566 424.244 60.3181 414.448 C 61.7007 396.273 68.3406 378.893 79.4284 364.426 C 85.0733 357.076 92.5354 350.312 100.716 345.823 C 160.527 313.001 221.225 281.892 281.182 249.309 C 286.208 246.578 291.331 244.096 296.309 241.301 L 402.833 181.899 C 448.707 155.933 492.396 129.907 540.444 107.863 C 568.975 93.5881 596.297 76.735 625.095 62.9987 C 647.064 52.5199 669.476 33.716 691.397 24.4273 C 721.706 11.584 760.286 -5.00679 792.155 10.0685 C 825.623 25.9 856.747 44.826 889.206 62.0107 L 1081.61 162.649 L 1288.49 272.053 C 1314.33 285.585 1341.06 296.221 1365.88 311.804 C 1391.21 327.713 1418.69 340.753 1442.55 358.955 C 1472.44 381.475 1468.5 427.953 1468.43 461.466 L 1468.31 539.307 L 1468.27 791.863 C 1468.24 798.939 1468.4 807.231 1467.42 814.212 C 1465.85 825.339 1464.08 834.292 1464.35 845.597 C 1467.77 849.24 1473 855.146 1476.57 858.284 C 1476.01 928.222 1475.85 998.163 1476.11 1068.1 L 1476.23 1121.84 C 1476.32 1164.13 1476.43 1180.38 1443.74 1212.71 C 1424.26 1234.1 1396.13 1241.99 1371.66 1255.99 C 1320.59 1285.2 1266.52 1309.43 1215.46 1338.67 C 1168.38 1365.63 1121.05 1391.91 1073.59 1418.17 C 1040.69 1436.36 1006.64 1452.65 973.742 1471.12 L 875.909 1525.73 C 848.738 1540.97 822.9 1557.93 793.021 1567.38 C 788.804 1568.72 784.265 1570.18 780.244 1572 L 745.438 1572 C 710.95 1558.87 683.052 1544.63 650.621 1526.97 C 587.594 1492.65 524.85 1457.86 461.372 1424.34 C 449.086 1417.85 437.135 1410.11 424.852 1403.54 L 293.292 1333.97 C 282.914 1328.55 216.708 1295.71 212.292 1290.76 C 212.801 1285.78 216.047 1290.48 213.644 1285.9 C 187.653 1272.26 162.573 1257.53 136.279 1244.73 C 128.739 1241.06 114.88 1233.07 107.522 1230.26 C 110.362 1227.53 113.618 1224.18 116.749 1221.9 z"/>

<g clip-path="url(#InnerHexClip)">
	<path fill="url(#ForestBase)" d="M 136.469 1138.72 C 135.072 1118.41 136.063 1085.29 136.258 1064.07 C 136.62 1025.49 136.776 986.917 136.726 948.34 L 137.148 538.355 C 137.166 506.893 135.176 446.57 137.899 417.656 C 138.752 408.586 243.6 355.258 256.912 348.084 L 529.937 202.381 C 571.393 179.907 612.884 158.023 654.345 135.309 C 684.331 118.882 716.078 99.1587 747.501 86.0447 C 765.978 78.3333 785.625 90.1423 803.119 98.4273 L 1055.93 234.94 C 1073.04 244.143 1089.9 255.34 1106.97 264.209 L 1281.35 355.519 C 1309.97 370.696 1339.06 385.263 1367 401.824 C 1377.63 408.129 1383.24 412.609 1390.26 422.555 C 1394.99 433.934 1393.06 569.987 1393.07 590.679 L 1393.13 883.699 C 1393.19 944.655 1394.84 1006 1393.46 1067 C 1393.11 1082.69 1393.19 1122.03 1389.47 1135.95 C 1377.02 1150.34 1351.45 1164.56 1334.57 1173.22 C 1308.55 1186.57 1282.82 1200.3 1257 1214 L 994.655 1352.38 C 946.043 1378.49 897.076 1407.15 848.239 1433.14 C 821.341 1447.45 788.416 1467.62 760.682 1479.13 L 553.67 1366.33 C 539.953 1358.97 520.72 1350.02 507.885 1342.38 C 483.503 1328.07 460.054 1313.14 434.947 1300.03 C 374.845 1268.65 312.59 1238.98 252.875 1206.97 C 223.241 1191.09 156.01 1162.46 136.469 1138.72 z"/>
	<path fill="url(#ForestGlow)" d="M 136.469 1138.72 C 135.072 1118.41 136.063 1085.29 136.258 1064.07 C 136.62 1025.49 136.776 986.917 136.726 948.34 L 137.148 538.355 C 137.166 506.893 135.176 446.57 137.899 417.656 C 138.752 408.586 243.6 355.258 256.912 348.084 L 529.937 202.381 C 571.393 179.907 612.884 158.023 654.345 135.309 C 684.331 118.882 716.078 99.1587 747.501 86.0447 C 765.978 78.3333 785.625 90.1423 803.119 98.4273 L 1055.93 234.94 C 1073.04 244.143 1089.9 255.34 1106.97 264.209 L 1281.35 355.519 C 1309.97 370.696 1339.06 385.263 1367 401.824 C 1377.63 408.129 1383.24 412.609 1390.26 422.555 C 1394.99 433.934 1393.06 569.987 1393.07 590.679 L 1393.13 883.699 C 1393.19 944.655 1394.84 1006 1393.46 1067 C 1393.11 1082.69 1393.19 1122.03 1389.47 1135.95 C 1377.02 1150.34 1351.45 1164.56 1334.57 1173.22 C 1308.55 1186.57 1282.82 1200.3 1257 1214 L 994.655 1352.38 C 946.043 1378.49 897.076 1407.15 848.239 1433.14 C 821.341 1447.45 788.416 1467.62 760.682 1479.13 L 553.67 1366.33 C 539.953 1358.97 520.72 1350.02 507.885 1342.38 C 483.503 1328.07 460.054 1313.14 434.947 1300.03 C 374.845 1268.65 312.59 1238.98 252.875 1206.97 C 223.241 1191.09 156.01 1162.46 136.469 1138.72 z"/>

	<polygon fill="url(#TriDark)" opacity="0.64" points="156,510 404,326 438,864 130,1140"/>
	<polygon fill="url(#TriLight)" opacity="0.76" points="558,252 850,860 356,860"/>
	<polygon fill="url(#TriDark)" opacity="0.5" points="716,264 918,740 524,740"/>
	<polygon fill="url(#TriDark)" opacity="0.44" points="888,264 1128,760 724,760"/>
	<polygon fill="url(#TriMid)" opacity="0.45" points="1106,354 1296,766 982,766"/>
	<polygon fill="url(#TriMid)" opacity="0.68" points="780,448 1028,938 624,938"/>
	<polygon fill="url(#TriMid)" opacity="0.5" points="464,608 642,1038 262,1038"/>
	<polygon fill="url(#TriMid)" opacity="0.53" points="980,602 1246,1036 860,1036"/>
	<polygon fill="url(#TriLight)" opacity="0.52" points="760,716 1038,1262 482,1262"/>
	<polygon fill="url(#TriDark)" opacity="0.44" points="306,900 564,1452 142,1138"/>
	<polygon fill="url(#TriDark)" opacity="0.59" points="1052,860 1390,1136 760,1479"/>
	<polygon fill="url(#TriMid)" opacity="0.35" points="258,402 430,728 174,728"/>
	<polygon fill="url(#TriMid)" opacity="0.33" points="618,430 778,790 470,790"/>
	<polygon fill="url(#TriMid)" opacity="0.36" points="1222,550 1360,860 1102,860"/>

	<path fill="url(#Vignette)" d="M 136.469 1138.72 C 135.072 1118.41 136.063 1085.29 136.258 1064.07 C 136.62 1025.49 136.776 986.917 136.726 948.34 L 137.148 538.355 C 137.166 506.893 135.176 446.57 137.899 417.656 C 138.752 408.586 243.6 355.258 256.912 348.084 L 529.937 202.381 C 571.393 179.907 612.884 158.023 654.345 135.309 C 684.331 118.882 716.078 99.1587 747.501 86.0447 C 765.978 78.3333 785.625 90.1423 803.119 98.4273 L 1055.93 234.94 C 1073.04 244.143 1089.9 255.34 1106.97 264.209 L 1281.35 355.519 C 1309.97 370.696 1339.06 385.263 1367 401.824 C 1377.63 408.129 1383.24 412.609 1390.26 422.555 C 1394.99 433.934 1393.06 569.987 1393.07 590.679 L 1393.13 883.699 C 1393.19 944.655 1394.84 1006 1393.46 1067 C 1393.11 1082.69 1393.19 1122.03 1389.47 1135.95 C 1377.02 1150.34 1351.45 1164.56 1334.57 1173.22 C 1308.55 1186.57 1282.82 1200.3 1257 1214 L 994.655 1352.38 C 946.043 1378.49 897.076 1407.15 848.239 1433.14 C 821.341 1447.45 788.416 1467.62 760.682 1479.13 L 553.67 1366.33 C 539.953 1358.97 520.72 1350.02 507.885 1342.38 C 483.503 1328.07 460.054 1313.14 434.947 1300.03 C 374.845 1268.65 312.59 1238.98 252.875 1206.97 C 223.241 1191.09 156.01 1162.46 136.469 1138.72 z"/>
</g>
</svg>
