<svg xmlns="http://www.w3.org/2000/svg" width="346" height="400" viewBox="0 0 346 400">
  <defs>
    <path id="brickClassicInnerHex" d="M173 15L333.2 107.5V292.5L173 385L12.8 292.5V107.5Z" />
    <path id="brickClassicRingSplitHex" d="M173 29L321 114.4V285.6L173 371L25 285.6V114.4Z" />
    <clipPath id="brickClassicInnerClip" clipPathUnits="userSpaceOnUse">
      <use href="#brickClassicInnerHex" />
    </clipPath>

    <radialGradient id="brickClassicBodyGradient" gradientUnits="userSpaceOnUse" cx="156" cy="126" r="228">
      <stop offset="0" stop-color="#f0a074" />
      <stop offset="0.56" stop-color="#d56a42" />
      <stop offset="1" stop-color="#9a3d28" />
    </radialGradient>

    <linearGradient id="brickClassicRingOuterGradient" gradientUnits="userSpaceOnUse" x1="173" y1="28" x2="173" y2="372">
      <stop offset="0" stop-color="#ffd8be" />
      <stop offset="0.35" stop-color="#ea9164" />
      <stop offset="1" stop-color="#b34f33" />
    </linearGradient>

    <linearGradient id="brickClassicRingInnerGradient" gradientUnits="userSpaceOnUse" x1="173" y1="44" x2="173" y2="356">
      <stop offset="0" stop-color="#ffc2a1" />
      <stop offset="0.64" stop-color="#dc7b54" />
      <stop offset="1" stop-color="#a6452d" />
    </linearGradient>

    <radialGradient id="brickClassicVignette" gradientUnits="userSpaceOnUse" cx="173" cy="226" r="196">
      <stop offset="0" stop-color="#3a1610" stop-opacity="0" />
      <stop offset="1" stop-color="#3a1610" stop-opacity="0.2" />
    </radialGradient>
  </defs>

  <path
    id="tileBorder"
    fill="#fbbf24"
    fill-rule="evenodd"
    d="M173 0L346 100V300L173 400L0 300V100Z M173 15L333.2 107.5V292.5L173 385L12.8 292.5V107.5Z"
  />

  <g id="tileArt" clip-path="url(#brickClassicInnerClip)">
    <use href="#brickClassicInnerHex" fill="url(#brickClassicBodyGradient)" />

    <path
      fill="url(#brickClassicRingOuterGradient)"
      fill-rule="evenodd"
      d="M173 15L333.2 107.5V292.5L173 385L12.8 292.5V107.5Z M173 29L321 114.4V285.6L173 371L25 285.6V114.4Z"
    />

    <path
      fill="url(#brickClassicRingInnerGradient)"
      fill-rule="evenodd"
      d="M173 29L321 114.4V285.6L173 371L25 285.6V114.4Z M173 33.5L317 116.7V283.3L173 366.5L29 283.3V116.7Z"
    />

    <g id="ringSeparators" pointer-events="none">
      <use href="#brickClassicInnerHex" fill="none" stroke="#7b2e20" stroke-width="5.2" opacity="0.95" />
      <use href="#brickClassicInnerHex" fill="none" stroke="#ffd8c7" stroke-width="1.5" opacity="0.3" />
      <use href="#brickClassicRingSplitHex" fill="none" stroke="#642418" stroke-width="2" opacity="0.56" />
      <use href="#brickClassicRingSplitHex" fill="none" stroke="#ffd8c7" stroke-width="1" opacity="0.35" />
    </g>

    <use href="#brickClassicInnerHex" fill="url(#brickClassicVignette)" />
  </g>
</svg>
