<?xml version="1.0" encoding="UTF-8" standalone="no"?>
<svg
   fill="none"
   aria-hidden="true"
   viewBox="-485 -460 970 920.1"
   version="1.1"
   id="svg3"
   sodipodi:docname="board_underlay_standard.svg"
   inkscape:version="1.4.3 (0d15f75, 2025-12-25)"
   xmlns:inkscape="http://www.inkscape.org/namespaces/inkscape"
   xmlns:sodipodi="http://sodipodi.sourceforge.net/DTD/sodipodi-0.dtd"
   xmlns="http://www.w3.org/2000/svg"
   xmlns:svg="http://www.w3.org/2000/svg">
  <defs
     id="defs3" />
  <sodipodi:namedview
     id="namedview3"
     pagecolor="#ffffff"
     bordercolor="#000000"
     borderopacity="0.25"
     inkscape:showpageshadow="2"
     inkscape:pageopacity="0.0"
     inkscape:pagecheckerboard="0"
     inkscape:deskcolor="#d1d1d1"
     inkscape:zoom="1.217259"
     inkscape:cx="485.10628"
     inkscape:cy="460.04999"
     inkscape:window-width="2243"
     inkscape:window-height="1297"
     inkscape:window-x="0"
     inkscape:window-y="25"
     inkscape:window-maximized="0"
     inkscape:current-layer="svg3" />
  <path
     id="path1"
     style="fill:#a9dcf5;fill-opacity:1;stroke-width:0.985"
     d="m 169.37109,-422.46484 c -11.53225,0.21232 -22.80473,3.93758 -32.73764,9.68067 -7.38446,4.26956 -14.55199,9.0281 -22.52451,12.16567 -12.8493,5.2 -27.133039,7.06712 -40.832452,4.7097 -11.612454,-1.96729 -22.61875,-6.66374 -32.635345,-12.77624 -6.628017,-4.12824 -13.493635,-8.10137 -20.996526,-10.49576 -3.913646,-1.29753 -7.946286,-2.2399 -12.0332889,-2.78795 -1.3590445,-0.17342 -2.9524192,-0.33653 -4.4124896,-0.41107 -3.57062251,-0.19949 -7.2306731,-0.0515 -10.6709584,0.38754 -10.3051311,1.32553 -20.1210641,5.31606 -28.9274631,10.74669 -6.873612,4.12885 -13.783176,8.32377 -21.348464,11.08153 -12.915637,4.9208 -27.175981,6.66428 -40.809179,4.06922 -11.021504,-2.01598 -21.531734,-6.56838 -30.958394,-12.48133 -6.57797,-3.95018 -13.20525,-7.9954 -20.55324,-10.36322 -10.62397,-3.70425 -22.2855,-4.62049 -33.28144,-2.08295 -5.69283,1.26617 -11.17169,3.22821 -16.39411,5.8817 -5.29563,2.65345 -10.47861,5.84437 -15.71168,8.74082 -14.27765,8.13678 -28.60897,16.18068 -42.79853,24.46976 -9.85523,6.20402 -18.46502,14.6824 -23.85355,25.0819 -1.3574,2.59461 -2.51732,5.33145 -3.46434,8.02247 -2.77694,7.8512 -3.87604,16.20594 -3.91037,24.50887 -0.1058,9.10123 0.37478,18.28377 -1.21128,27.2907 -2.05984,12.78822 -7.2333,25.17177 -15.51216,35.19259 -6.81285,8.36978 -15.46897,15.07824 -24.77972,20.45313 -8.4112,5.03417 -17.18513,9.77504 -24.18939,16.75724 -6.17095,6.00995 -11.16174,13.27955 -14.29332,21.31847 -0.9605,2.48759 -1.86699,5.31124 -2.52148,7.95508 -1.38393,5.56596 -2.06406,11.27386 -2.17808,17.06472 -0.16081,9.36946 0.3545,18.80492 -1.10091,28.10173 -1.98861,13.02934 -7.33928,25.59863 -15.75862,35.77696 -6.9887,8.46266 -15.86194,15.183461 -25.35525,20.603302 -5.99682,3.61188 -12.14849,7.007981 -17.78386,11.180564 -7.36582,5.558127 -13.69547,12.574124 -18.0808,20.753795 -1.85539,3.464899 -3.4601,7.381656 -4.596,11.194711 -2.42541,8.078306 -3.21127,16.562747 -3.05136,24.971093 0.008,19.609287 -0.0836,39.219956 0.11764,58.82818 0.29245,6.039784 1.25271,12.030959 3.01641,17.782192 1.10621,3.617613 2.46967,7.01881 4.22571,10.411266 1.84399,3.554053 4.0625,6.902419 6.55097,9.966253 5.03244,6.169609 11.30374,11.434862 18.11213,15.641321 8.00726,5.016748 16.46666,9.360873 23.98813,15.117543 10.82005,8.34485 19.66465,19.4738 24.45373,32.33678 4.02638,10.54074 5.45186,21.92388 5.21976,33.16139 -0.007,7.95046 -0.18894,15.87751 1.31088,23.71949 1.7651,9.42853 5.54131,18.52879 11.36275,26.18205 6.02109,7.98365 14.0249,14.26605 22.64675,19.23112 8.95625,5.3765 18.24909,10.47593 25.82194,17.78475 9.44033,8.89332 16.61461,20.26087 20.15522,32.76631 2.86224,9.69528 3.64519,19.87796 3.40903,29.94713 -0.0285,7.96916 -0.0697,15.95087 1.72171,23.76843 2.06965,9.70183 6.37282,18.96961 12.79735,26.55885 5.55918,6.65276 12.52872,12.10385 19.97328,16.39421 16.48759,9.36677 33.05821,18.88324 49.64795,28.18312 4.43109,2.57224 9.0122,4.92029 13.86143,6.60377 6.02428,2.12542 12.43939,3.50484 18.77382,3.74241 5.83772,0.22024 11.61337,-0.42237 17.28278,-1.87631 5.86177,-1.48605 11.62955,-3.82616 17.00538,-6.74994 8.01879,-4.44846 15.73797,-9.84467 24.40476,-13.19721 13.17037,-5.31886 27.8549,-7.16459 41.854616,-4.48414 11.68301,2.12408 22.716988,7.01806 32.730278,13.31611 5.701538,3.45843 11.510423,6.83947 17.82858,9.05254 4.167247,1.53719 8.689502,2.70296 12.9307198,3.33543 5.2743505,0.78922 10.7997504,0.85768 15.9726562,0.19336 7.564033,-0.95938 14.833644,-3.30977 21.611116,-6.62529 5.26587,-2.58256 10.183957,-5.85205 15.328337,-8.75752 4.623174,-2.67851 9.446854,-5.01805 14.480258,-6.82157 13.67556,-5.05661 28.837341,-6.42751 43.078789,-3.04895 10.49286,2.39202 20.34216,7.0615 29.39486,12.81174 6.48069,3.9366 13.1656,7.69465 20.46207,9.89741 4.01512,1.26574 8.01857,2.15644 12.23349,2.61927 10.28346,1.23077 20.79125,-0.5597 30.34858,-4.44423 2.09637,-0.85438 4.33194,-1.86374 6.40803,-2.93553 7.19922,-3.81265 14.1822,-8.01311 21.29389,-11.98299 12.28973,-6.99773 24.62403,-13.92091 36.80838,-21.10052 9.40579,-6.00173 17.70584,-14.17072 23.02762,-24.09714 5.53584,-10.2763 7.78321,-22.02684 7.72345,-33.65411 0.0691,-9.55431 -0.32184,-19.20186 1.50577,-28.63419 2.58944,-14.18112 9.20935,-27.70711 19.32691,-38.03669 6.73635,-7.02649 14.83871,-12.57557 23.26934,-17.36651 7.11207,-4.22799 14.39077,-8.37118 20.42746,-14.10682 7.74622,-7.14022 13.71783,-16.25545 16.83321,-26.34176 1.70302,-5.30684 2.70129,-10.89074 3.10041,-16.34039 0.70608,-10.45063 -0.36677,-20.9841 1.11176,-31.38885 1.91488,-14.18396 7.74287,-27.94066 17.23213,-38.72348 6.90401,-7.91584 15.44912,-14.248408 24.56117,-19.400472 7.89307,-4.788842 16.17962,-9.172702 22.90833,-15.602221 3.18544,-2.970614 6.12045,-6.289973 8.59707,-9.789936 4.34456,-6.038509 7.43424,-13.061661 9.24593,-20.187843 1.2749,-5.050386 1.99452,-10.27337 2.19181,-15.420921 0.21649,-6.562514 0.0576,-13.130285 0.1088,-19.695094 -0.008,-15.4211548 0.063,-30.84424 -0.14015,-46.263893 -0.59647,-12.047631 -4.04753,-24.250092 -11.06098,-34.220763 -4.34987,-6.285041 -9.93367,-11.750044 -16.21192,-16.198828 -9.65002,-6.771277 -20.50207,-11.712932 -29.74543,-19.082289 -10.31593,-8.25228 -18.70564,-19.09251 -23.34735,-31.51479 -4.04893,-10.6943 -5.43964,-22.23136 -5.18302,-33.6167 -0.009,-5.18315 0.0813,-10.46226 -0.31197,-15.52568 -0.53104,-6.83882 -2.02698,-13.61328 -4.55174,-19.9962 -0.38939,-0.94264 -0.88772,-2.12976 -1.36167,-3.14657 -1.63403,-3.47994 -3.52506,-6.73111 -5.78091,-9.81632 -4.45894,-6.11146 -10.18737,-11.4712 -16.46117,-15.80122 -6.72514,-4.56627 -13.96943,-8.30262 -20.74447,-12.79162 -7.91813,-5.11226 -15.02914,-11.52779 -20.65099,-19.10941 -5.80239,-7.75013 -10.01556,-16.67821 -12.27533,-26.09397 -2.23171,-8.88728 -2.77205,-18.10395 -2.56999,-27.23698 0.005,-7.08494 0.0796,-14.13827 -1.26935,-21.11838 -1.13858,-6.28785 -3.16086,-12.42316 -6.10292,-18.10037 -0.75368,-1.44518 -1.66449,-3.0548 -2.59293,-4.49658 -6.07008,-9.58402 -14.95809,-17.09708 -24.72315,-22.72324 -9.05776,-5.19086 -18.17286,-10.31484 -27.24805,-15.50419 -9.26366,-5.25699 -18.4923,-10.58018 -27.85475,-15.65782 -5.84438,-2.92398 -12.18156,-5.11486 -18.54596,-6.29786 -3.96273,-0.72651 -7.77533,-1.0608 -11.79493,-0.99023 z" />
  <path
     id="path2"
     style="fill:#f4f6ee;fill-opacity:1;stroke-width:0.985"
     d="m -1.2207031,-411.13672 c -9.1973639,0.25754 -18.0265429,3.67384 -25.8201669,8.4019 -10.104661,5.72437 -20.104238,11.63668 -30.328219,17.14593 -11.048383,5.52551 -23.73982,8.21339 -36.041495,6.37637 -9.426676,-1.3263 -18.332486,-5.14932 -26.419096,-10.07321 -9.80126,-5.55189 -19.50488,-11.28266 -29.41483,-16.6421 -3.49444,-1.73692 -7.27167,-3.09595 -10.96598,-3.96291 -3.42864,-0.80719 -6.92972,-1.24265 -10.40121,-1.25514 -9.88054,-0.0391 -19.45446,3.46895 -27.87645,8.44333 -18.06647,10.56389 -36.2027,21.00907 -54.22989,31.6396 -7.86318,4.54072 -14.72531,11.03641 -19.11594,19.0317 -4.04326,7.44044 -5.77782,15.89668 -5.81642,24.28925 -0.0875,7.84442 0.003,15.69004 -0.0256,23.53497 -0.0503,4.9658 0.0517,9.93959 -0.24593,14.89844 -0.88182,12.01252 -5.00925,23.94089 -12.61939,33.36685 -5.88423,7.38077 -13.54866,13.18138 -21.82201,17.64291 -7.10121,4.11712 -14.43696,8.20916 -21.57084,12.36556 -3.30164,1.9341 -6.72933,3.83758 -9.67619,6.21705 -6.88025,5.33977 -12.50698,12.44571 -15.47193,20.68295 -2.33271,6.20539 -3.26325,12.8582 -3.28373,19.46615 -0.0909,6.86415 0.0154,13.72941 -0.0216,20.59407 -0.0196,5.6307 0.0471,11.26707 -0.20624,16.89284 -0.84971,12.19128 -5.09633,24.3153 -12.9631,33.76747 -6.01807,7.39536 -13.85443,13.105768 -22.20653,17.60113 -9.31004,5.396285 -18.76102,10.555426 -27.94448,16.166871 -5.31435,3.490812 -10.05492,7.898761 -13.7354,13.09552 -0.28952,0.421368 -0.70316,1.008186 -0.99861,1.480062 -5.04061,7.755707 -7.35053,17.035963 -7.58688,26.22029 -0.10234,6.615425 -0.0239,13.23326 -0.0551,19.849645 0.001,16.0782686 -0.0484,32.157717 0.0863,48.235153 0.24788,7.712192 1.97709,15.334952 5.56049,22.210653 1.32642,2.538231 2.97672,5.055099 4.77825,7.289116 2.95267,3.670556 6.60537,6.928478 10.35426,9.611566 4.38262,3.140272 9.21333,5.563222 13.85078,8.291614 7.43536,4.263181 14.90928,8.458806 22.26641,12.856823 10.46627,6.607717 19.28093,16.161627 24.02128,27.680147 3.73632,9.00145 5.01796,18.85339 4.774,28.54837 0.0513,11.01686 -0.13548,22.03811 0.17189,33.0516 0.51311,8.43975 2.91271,16.85213 7.5593,23.96488 4.66182,7.30345 11.551,12.91086 19.02523,17.15341 9.83157,5.66272 19.77275,11.15393 29.49898,17.00759 10.62536,6.79083 19.46236,16.69709 24.02017,28.53784 3.57118,9.06601 4.67993,18.917 4.43354,28.60499 0.0527,10.83727 -0.1305,21.67857 0.17161,32.51268 0.49347,7.16819 2.35053,14.52834 5.96795,20.88631 4.30705,7.61839 10.86924,13.7946 18.34535,18.26348 7.20707,4.32983 14.53544,8.45444 21.78069,12.72005 12.31329,7.15304 24.59022,14.36947 36.97741,21.39315 4.57446,2.3781 9.55502,4.22754 14.54166,5.25949 4.23645,0.88046 8.82977,1.19704 13.13653,0.79275 8.57171,-0.74077 16.69506,-4.12178 23.97847,-8.57499 9.92922,-5.62968 19.78024,-11.3968 29.79033,-16.88745 11.11638,-5.70388 24.022825,-8.20619 36.414468,-6.16926 9.379368,1.47071 18.244359,5.27539 26.342832,10.14298 9.716819,5.50338 19.335731,11.18668 29.164785,16.49119 8.03218,3.96221 17.1664934,5.98337 26.1123821,4.87104 7.4641869,-0.84828 14.5810809,-3.78909 21.0804979,-7.56205 9.213488,-5.28319 18.399977,-10.61613 27.689104,-15.76515 9.281163,-5.36284 19.862623,-8.62496 30.60882,-8.87135 9.870288,-0.23414 19.649091,2.41712 28.445191,6.7957 4.11456,2.02972 7.98799,4.50178 12.00165,6.71825 8.11818,4.6232 16.18429,9.35482 24.41197,13.78416 4.88469,2.38298 10.12368,4.07888 15.51633,4.81035 0.93431,0.10758 2.13293,0.25237 3.17877,0.30182 9.41924,0.58531 18.81942,-2.03107 27.07848,-6.46353 6.38063,-3.53379 12.63263,-7.28381 18.94357,-10.93597 13.67559,-7.96387 27.39198,-15.86027 40.98689,-23.96042 8.17795,-5.29471 15.16022,-12.77511 18.85186,-21.87652 2.82338,-6.83145 3.94998,-14.37494 3.83233,-21.78882 0.0871,-11.82296 -0.14398,-23.65021 0.17991,-35.47009 0.67332,-12.44901 4.82617,-24.87992 12.70728,-34.63873 5.96616,-7.48094 13.76507,-13.31478 22.15386,-17.82455 8.96811,-5.20051 18.03592,-10.17773 26.89724,-15.5326 3.03545,-1.97015 5.9152,-4.25179 8.44236,-6.71822 5.1127,-4.94082 9.10598,-11.05231 11.39217,-17.79602 1.20903,-3.43123 1.99045,-7.03235 2.43146,-10.5748 0.63737,-4.76728 0.49482,-9.51475 0.52576,-14.32819 0.0252,-9.75651 -0.10089,-19.5158 0.10705,-29.27031 0.50925,-12.5422 4.62563,-25.0985 12.53881,-34.93894 6.07224,-7.65742 14.0744,-13.573046 22.63481,-18.179549 9.34044,-5.410686 18.81845,-10.59018 28.03129,-16.217723 4.88496,-3.210854 9.34622,-7.254129 12.81624,-11.843688 2.32882,-3.051765 4.21572,-6.372371 5.67923,-9.953786 0.54909,-1.358721 1.01522,-2.618159 1.45594,-4.058813 0.50321,-1.610224 0.87601,-3.120675 1.23235,-4.803599 1.64829,-7.78351 1.08572,-15.702489 1.19143,-23.611718 -0.0148,-18.4134037 0.0639,-36.828169 -0.0976,-55.24061 -0.089,-1.863552 -0.24931,-3.673519 -0.52488,-5.598668 -1.21105,-8.687226 -4.59809,-17.169991 -10.32398,-23.877231 -4.61774,-5.536485 -10.48959,-9.901519 -16.78671,-13.353009 -9.99804,-5.768593 -20.10851,-11.340359 -29.98193,-17.320858 -10.41832,-6.784708 -19.13352,-16.539728 -23.62,-28.225538 -3.49669,-8.85708 -4.60388,-18.4845 -4.35481,-27.95401 -0.0546,-10.85803 0.13463,-21.72043 -0.17504,-32.57508 -0.50905,-8.5454 -2.97699,-17.05887 -7.72382,-24.23052 -4.45899,-6.82327 -10.83309,-12.19892 -17.82922,-16.28547 -10.1621,-5.89421 -20.46566,-11.54978 -30.53108,-17.61185 -10.73025,-6.86176 -19.64574,-16.90179 -24.15548,-28.90205 -3.45861,-8.93181 -4.53291,-18.614 -4.2963,-28.13917 -0.0541,-10.81826 0.13218,-21.64098 -0.17047,-32.45586 -0.4486,-7.31644 -2.39487,-14.68124 -5.96381,-21.04219 -3.73704,-6.66637 -9.2733,-12.19283 -15.55274,-16.48828 -0.57754,-0.37525 -1.25129,-0.84953 -1.87032,-1.23054 -3.97786,-2.44903 -8.06926,-4.7098 -12.09031,-7.08813 -15.68745,-9.11081 -31.33584,-18.30269 -47.08446,-27.30202 -7.8713,-4.21218 -16.87171,-6.76618 -25.77717,-6.48087 -9.03691,0.30732 -17.759,3.54245 -25.43901,8.18814 -10.30602,5.85208 -20.54096,11.82991 -30.93275,17.53401 -11.10455,5.64422 -23.975126,8.10748 -36.326304,6.05188 -9.341814,-1.48458 -18.170954,-5.27675 -26.239876,-10.12703 -9.684375,-5.49434 -19.284401,-11.14491 -29.076375,-16.44828 -4.979113,-2.47666 -10.463956,-4.18633 -15.9173275,-4.88036 -2.125477,-0.26571 -4.27884127,-0.38039 -6.4628906,-0.32422 z" />
  <path
     fill="#e5d08a"
     d="m -193.06,-396.955 q 22.655,-12.805 44.325,0 l 41.37,23.64 q 21.67,12.805 44.325,0 l 40.385,-23.64 q 22.655,-12.805 45.31,0 l 40.385,23.64 q 22.655,12.805 44.325,0 l 41.37,-23.64 q 21.67,-12.805 44.325,0 l 54.175,31.52 q 22.655,12.805 22.655,38.415 v 47.28 q 0,25.61 21.67,38.415 l 41.37,23.64 q 21.67,12.805 21.67,38.415 v 47.28 q 0,25.61 22.655,38.415 l 40.385,23.64 q 22.655,12.805 22.655,38.415 v 63.04 q 0,25.61 -22.655,38.415 l -40.385,23.64 Q 354.6,106.38 354.6,131.99 v 47.28 q 0,25.61 -21.67,38.415 l -41.37,23.64 q -21.67,12.805 -21.67,38.415 v 47.28 q 0,25.61 -22.655,38.415 l -54.175,31.52 q -22.655,12.805 -44.325,0 l -41.37,-23.64 q -21.67,-12.805 -44.325,0 l -40.385,23.64 q -22.655,12.805 -45.31,0 l -40.385,-23.64 q -22.655,-12.805 -44.325,0 l -41.37,23.64 q -21.67,12.805 -44.325,0 l -54.175,-31.52 Q -269.89,352.63 -269.89,327.02 v -47.28 q 0,-25.61 -21.67,-38.415 l -41.37,-23.64 Q -354.6,204.88 -354.6,179.27 v -47.28 q 0,-25.61 -22.655,-38.415 L -417.64,69.935 Q -440.295,57.13 -440.295,31.52 v -63.04 q 0,-25.61 22.655,-38.415 l 40.385,-23.64 q 22.655,-12.805 22.655,-38.415 v -47.28 q 0,-25.61 21.67,-38.415 l 41.37,-23.64 q 21.67,-12.805 21.67,-38.415 v -47.28 q 0,-25.61 22.655,-38.415 z"
     vector-effect="non-scaling-stroke"
     id="path3"
     style="stroke-width:0.985" />
</svg>
