<svg xmlns="http://www.w3.org/2000/svg" fill="none" aria-hidden="true" viewBox="-485 -460 970 920"><path fill="#a9dcf5" d="M169-422q-17 0-32 9-12 7-23 12-20 8-41 5-17-4-32-13-11-7-21-10l-12-3H-7q-17 2-29 11l-22 11q-20 7-41 4-16-3-31-13-9-6-20-10-17-6-33-2l-17 6-15 9-43 24q-16 10-24 25l-4 8q-3 12-3 25t-2 27q-3 20-15 35-11 13-25 21-13 7-24 16-9 10-14 22l-3 8-2 17-1 28q-3 19-16 36-11 12-25 20l-18 11q-12 9-18 21l-5 11q-3 12-3 25v59l3 18 4 10 7 10q7 10 18 16 13 7 24 15 17 13 25 32 5 16 5 34l1 23q3 15 11 26 9 12 23 20 14 7 26 17 15 14 20 33 5 15 3 30 0 12 2 24 4 15 13 27 9 9 20 16l50 28 13 7 19 3q9 1 18-1l17-7q11-8 24-13 20-9 42-5 18 4 33 13 8 6 17 9a67 67 0 0 0 29 4q12-1 22-7l15-8 15-7q21-8 43-3 15 4 29 13 10 6 21 9l12 3q16 2 30-4l7-3 21-12 37-21q14-10 23-24 8-16 7-34 0-15 2-29 4-21 19-38 11-10 24-17l20-14q12-11 17-27 3-8 3-16l1-31q3-23 17-39 11-12 25-19l23-16 8-10q7-9 10-20l2-15v-66q-1-19-11-35-7-9-17-16l-29-19q-17-13-24-31-5-17-5-34v-16q-1-9-5-20l-1-3-6-10q-7-9-16-15l-21-13q-12-8-21-19-8-12-12-26-3-13-2-28 0-11-2-21l-6-18-2-4q-10-14-25-23l-27-16-28-15a71 71 0 0 0-31-7"/><path fill="#f4f6ee" d="M-1-411q-14 1-26 8l-30 17a61 61 0 0 1-63-3l-29-17-11-4-11-1q-14 0-27 8l-55 32q-12 7-19 19-6 11-6 24v39a60 60 0 0 1-34 51l-22 12-10 6q-10 9-15 21-3 9-3 19v21l-1 17q0 19-13 34-9 11-22 17l-28 16q-8 6-13 14l-1 1q-8 12-8 26v68q0 12 6 23l4 7q5 6 11 9 6 5 14 9l22 13a61 61 0 0 1 29 56v33q0 13 7 24 8 11 19 17l30 17q16 11 24 29 5 13 4 28v33l6 21q7 11 19 18l22 13 37 21 14 5 13 1q13-2 24-9l30-16q17-10 36-7 15 4 27 10l29 17a47 47 0 0 0 47-3l28-15q14-9 30-9 15-1 29 6l12 7 24 14 16 5h3q14 1 27-6l19-11 41-24a48 48 0 0 0 23-44v-35a60 60 0 0 1 35-53l27-15 8-7a45 45 0 0 0 14-29v-14l1-29q0-20 12-35 9-12 23-18l28-16 13-12 5-10 2-4 1-5q2-12 1-24v-55l-1-6q-1-13-10-23-6-9-17-14l-30-17a60 60 0 0 1-28-56v-33q0-13-8-24-6-10-17-16l-31-18q-17-11-24-29-5-14-4-28v-32q-1-12-6-22-6-9-16-16l-2-1-12-7-47-28q-12-6-26-6t-25 8l-31 18q-17 8-37 6-14-3-26-10l-29-17-16-5z"/><path fill="#e5d08a" d="M-193-397q23-13 44 0l42 24q21 12 44 0l40-24q23-13 46 0l40 24q23 12 44 0l42-24q21-13 44 0l54 32q23 12 23 38v47q0 26 22 39l41 23q22 13 22 39v47q0 26 22 38l41 24q22 13 22 38v64q0 25-22 38l-41 24q-22 12-22 38v47q0 26-22 39l-41 23q-22 13-22 39v47q0 26-23 38l-54 32q-23 13-44 0l-42-24q-21-12-44 0l-40 24q-23 13-46 0l-40-24q-23-12-44 0l-42 24q-21 13-44 0l-54-32q-23-12-23-38v-47q0-26-22-39l-41-23q-22-13-22-39v-47q0-26-22-38l-41-24q-22-13-22-38v-64q0-25 22-38l41-24q22-12 22-38v-47q0-26 22-39l41-23q22-13 22-39v-47q0-26 23-38z" vector-effect="non-scaling-stroke"/></svg>