<svg xmlns="http://www.w3.org/2000/svg" fill="none" aria-hidden="true" viewBox="-485 -460 970 920.1">
  <path fill="#a9dcf5" d="M-211-424q38-22 76 0l10 6q38 22 77 0l10-6q38-22 76 0l10 6q39 22 77 0l10-6q38-22 76 0l51 29q38 22 38 66v12q0 44 38 66l10 6q38 22 38 66v12q0 44 39 66l10 6q38 22 38 66v58q0 44-38 66l-10 6q-39 22-39 66v12q0 44-38 66l-10 6q-38 22-38 66v12q0 44-38 66l-51 29q-38 22-76 0l-10-6q-38-22-77 0l-10 6q-38 22-76 0l-10-6q-39-22-77 0l-10 6q-38 22-76 0l-51-29q-38-22-38-66v-12q0-44-38-66l-10-6q-38-22-38-66v-12q0-44-39-66l-10-6q-38-22-38-66v-58q0-44 38-66l10-6q39-22 39-66v-12q0-44 38-66l10-6q38-22 38-66v-12q0-44 38-66z" vector-effect="non-scaling-stroke"/>
  <path fill="#f4f6ee" d="M-203-415q30-17 59 0l28 16q29 17 59 0l28-16q29-17 58 0l28 16q30 17 59 0l28-16q29-17 59 0l55 32q30 17 30 51v32q0 34 29 51l28 16q29 17 29 51v32q0 34 30 51l28 16q29 17 29 51v64q0 34-29 51l-28 16q-30 17-30 51v32q0 34-29 51l-28 16q-29 17-29 51v32q0 34-30 51l-55 32q-30 17-59 0l-28-16q-29-17-59 0l-28 16q-29 17-58 0l-28-16q-30-17-59 0l-28 16q-29 17-59 0l-55-32q-30-17-30-51v-32q0-34-29-51l-28-16q-29-17-29-51v-32q0-34-30-51l-28-16q-29-17-29-51v-64q0-34 29-51l28-16q30-17 30-51v-32q0-34 29-51l28-16q29-17 29-51v-32q0-34 30-51z" vector-effect="non-scaling-stroke"/>
  <path fill="#e5d08a" d="M-196-403q23-13 45 0l42 24q22 13 45 0l41-24q23-13 46 0l41 24q23 13 45 0l42-24q22-13 45 0l55 32q23 13 23 39v48q0 26 22 39l42 24q22 13 22 39v48q0 26 23 39l41 24q23 13 23 39v64q0 26-23 39l-41 24q-23 13-23 39v48q0 26-22 39l-42 24q-22 13-22 39v48q0 26-23 39l-55 32q-23 13-45 0l-42-24q-22-13-45 0l-41 24q-23 13-46 0l-41-24q-23-13-45 0l-42 24q-22 13-45 0l-55-32q-23-13-23-39v-48q0-26-22-39l-42-24q-22-13-22-39v-48q0-26-23-39l-41-24q-23-13-23-39v-64q0-26 23-39l41-24q23-13 23-39v-48q0-26 22-39l42-24q22-13 22-39v-48q0-26 23-39z" vector-effect="non-scaling-stroke"/>
</svg>
