<svg xmlns="http://www.w3.org/2000/svg"
  viewBox="-485.012702 -460.044428 970.025404 920.088856"
  fill="none"
  role="presentation"
  aria-hidden="true">
  <path d="M -216.505485 -435.044928 Q -173.205081 -460.044428 -129.904677 -435.044928 L -129.902944 -435.043928 Q -86.60254 -410.044428 -43.302136 -435.043928 L -43.300404 -435.044928 Q 0 -460.044428 43.300404 -435.044928 L 43.302136 -435.043928 Q 86.60254 -410.044428 129.902944 -435.043928 L 129.904677 -435.044928 Q 173.205081 -460.044428 216.505485 -435.044928 L 268.507217 -405.021714 Q 311.807621 -380.022214 311.807621 -330.023214 L 311.807621 -330.021214 Q 311.807621 -280.022214 355.108025 -255.022714 L 355.109758 -255.021714 Q 398.410162 -230.022214 398.410162 -180.023214 L 398.410162 -180.021214 Q 398.410162 -130.022214 441.710566 -105.022714 L 441.712298 -105.021714 Q 485.012702 -80.022214 485.012702 -30.023214 L 485.012702 30.023214 Q 485.012702 80.022214 441.712298 105.021714 L 441.710566 105.022714 Q 398.410162 130.022214 398.410162 180.021214 L 398.410162 180.023214 Q 398.410162 230.022214 355.109758 255.021714 L 355.108025 255.022714 Q 311.807621 280.022214 311.807621 330.021214 L 311.807621 330.023214 Q 311.807621 380.022214 268.507217 405.021714 L 216.505485 435.044928 Q 173.205081 460.044428 129.904677 435.044928 L 129.902944 435.043928 Q 86.60254 410.044428 43.302136 435.043928 L 43.300404 435.044928 Q 0 460.044428 -43.300404 435.044928 L -43.302136 435.043928 Q -86.60254 410.044428 -129.902944 435.043928 L -129.904677 435.044928 Q -173.205081 460.044428 -216.505485 435.044928 L -268.507217 405.021714 Q -311.807621 380.022214 -311.807621 330.023214 L -311.807621 330.021214 Q -311.807621 280.022214 -355.108025 255.022714 L -355.109758 255.021714 Q -398.410162 230.022214 -398.410162 180.023214 L -398.410162 180.021214 Q -398.410162 130.022214 -441.710566 105.022714 L -441.712298 105.021714 Q -485.012702 80.022214 -485.012702 30.023214 L -485.012702 -30.023214 Q -485.012702 -80.022214 -441.712298 -105.021714 L -441.710566 -105.022714 Q -398.410162 -130.022214 -398.410162 -180.021214 L -398.410162 -180.023214 Q -398.410162 -230.022214 -355.109758 -255.021714 L -355.108025 -255.022714 Q -311.807621 -280.022214 -311.807621 -330.021214 L -311.807621 -330.023214 Q -311.807621 -380.022214 -268.507217 -405.021714 L -216.505485 -435.044928 Z" fill="#A9DCF5" vector-effect="non-scaling-stroke" />
  <path d="M -211.310199 -424.188022 Q -173.205081 -446.188022 -135.099963 -424.188022 L -124.707658 -418.188022 Q -86.60254 -396.188022 -48.497422 -418.188022 L -38.105118 -424.188022 Q 0 -446.188022 38.105118 -424.188022 L 48.497422 -418.188022 Q 86.60254 -396.188022 124.707658 -418.188022 L 135.099963 -424.188022 Q 173.205081 -446.188022 211.310199 -424.188022 L 261.702503 -395.094011 Q 299.807621 -373.094011 299.807621 -329.094011 L 299.807621 -317.094011 Q 299.807621 -273.094011 337.912739 -251.094011 L 348.305044 -245.094011 Q 386.410162 -223.094011 386.410162 -179.094011 L 386.410162 -167.094011 Q 386.410162 -123.094011 424.51528 -101.094011 L 434.907584 -95.094011 Q 473.012702 -73.094011 473.012702 -29.094011 L 473.012702 29.094011 Q 473.012702 73.094011 434.907584 95.094011 L 424.51528 101.094011 Q 386.410162 123.094011 386.410162 167.094011 L 386.410162 179.094011 Q 386.410162 223.094011 348.305044 245.094011 L 337.912739 251.094011 Q 299.807621 273.094011 299.807621 317.094011 L 299.807621 329.094011 Q 299.807621 373.094011 261.702503 395.094011 L 211.310199 424.188022 Q 173.205081 446.188022 135.099963 424.188022 L 124.707658 418.188022 Q 86.60254 396.188022 48.497422 418.188022 L 38.105118 424.188022 Q 0 446.188022 -38.105118 424.188022 L -48.497422 418.188022 Q -86.60254 396.188022 -124.707658 418.188022 L -135.099963 424.188022 Q -173.205081 446.188022 -211.310199 424.188022 L -261.702503 395.094011 Q -299.807621 373.094011 -299.807621 329.094011 L -299.807621 317.094011 Q -299.807621 273.094011 -337.912739 251.094011 L -348.305044 245.094011 Q -386.410162 223.094011 -386.410162 179.094011 L -386.410162 167.094011 Q -386.410162 123.094011 -424.51528 101.094011 L -434.907584 95.094011 Q -473.012702 73.094011 -473.012702 29.094011 L -473.012702 -29.094011 Q -473.012702 -73.094011 -434.907584 -95.094011 L -424.51528 -101.094011 Q -386.410162 -123.094011 -386.410162 -167.094011 L -386.410162 -179.094011 Q -386.410162 -223.094011 -348.305044 -245.094011 L -337.912739 -251.094011 Q -299.807621 -273.094011 -299.807621 -317.094011 L -299.807621 -329.094011 Q -299.807621 -373.094011 -261.702503 -395.094011 L -211.310199 -424.188022 Z" fill="#F4F6EE" vector-effect="non-scaling-stroke" />
  <path d="M -202.649945 -415.331615 Q -173.205081 -432.331615 -143.760217 -415.331615 L -116.047404 -399.331615 Q -86.60254 -382.331615 -57.157676 -399.331615 L -29.444864 -415.331615 Q 0 -432.331615 29.444864 -415.331615 L 57.157676 -399.331615 Q 86.60254 -382.331615 116.047404 -399.331615 L 143.760217 -415.331615 Q 173.205081 -432.331615 202.649945 -415.331615 L 258.362757 -383.165808 Q 287.807621 -366.165808 287.807621 -332.165808 L 287.807621 -300.165808 Q 287.807621 -266.165808 317.252485 -249.165808 L 344.965298 -233.165808 Q 374.410162 -216.165808 374.410162 -182.165808 L 374.410162 -150.165808 Q 374.410162 -116.165808 403.855026 -99.165808 L 431.567838 -83.165808 Q 461.012702 -66.165808 461.012702 -32.165808 L 461.012702 32.165808 Q 461.012702 66.165808 431.567838 83.165808 L 403.855026 99.165808 Q 374.410162 116.165808 374.410162 150.165808 L 374.410162 182.165808 Q 374.410162 216.165808 344.965298 233.165808 L 317.252485 249.165808 Q 287.807621 266.165808 287.807621 300.165808 L 287.807621 332.165808 Q 287.807621 366.165808 258.362757 383.165808 L 202.649945 415.331615 Q 173.205081 432.331615 143.760217 415.331615 L 116.047404 399.331615 Q 86.60254 382.331615 57.157676 399.331615 L 29.444864 415.331615 Q 0 432.331615 -29.444864 415.331615 L -57.157676 399.331615 Q -86.60254 382.331615 -116.047404 399.331615 L -143.760217 415.331615 Q -173.205081 432.331615 -202.649945 415.331615 L -258.362757 383.165808 Q -287.807621 366.165808 -287.807621 332.165808 L -287.807621 300.165808 Q -287.807621 266.165808 -317.252485 249.165808 L -344.965298 233.165808 Q -374.410162 216.165808 -374.410162 182.165808 L -374.410162 150.165808 Q -374.410162 116.165808 -403.855026 99.165808 L -431.567838 83.165808 Q -461.012702 66.165808 -461.012702 32.165808 L -461.012702 -32.165808 Q -461.012702 -66.165808 -431.567838 -83.165808 L -403.855026 -99.165808 Q -374.410162 -116.165808 -374.410162 -150.165808 L -374.410162 -182.165808 Q -374.410162 -216.165808 -344.965298 -233.165808 L -317.252485 -249.165808 Q -287.807621 -266.165808 -287.807621 -300.165808 L -287.807621 -332.165808 Q -287.807621 -366.165808 -258.362757 -383.165808 L -202.649945 -415.331615 Z" fill="#E5D08A" vector-effect="non-scaling-stroke" />
  <path d="M -195.721741 -403.165808 Q -173.205081 -416.165808 -150.68842 -403.165808 L -109.119201 -379.165808 Q -86.60254 -366.165808 -64.08588 -379.165808 L -22.51666 -403.165808 Q 0 -416.165808 22.51666 -403.165808 L 64.08588 -379.165808 Q 86.60254 -366.165808 109.119201 -379.165808 L 150.68842 -403.165808 Q 173.205081 -416.165808 195.721741 -403.165808 L 251.290961 -371.082904 Q 273.807621 -358.082904 273.807621 -332.082904 L 273.807621 -284.082904 Q 273.807621 -258.082904 296.324282 -245.082904 L 337.893501 -221.082904 Q 360.410162 -208.082904 360.410162 -182.082904 L 360.410162 -134.082904 Q 360.410162 -108.082904 382.926822 -95.082904 L 424.496042 -71.082904 Q 447.012702 -58.082904 447.012702 -32.082904 L 447.012702 32.082904 Q 447.012702 58.082904 424.496042 71.082904 L 382.926822 95.082904 Q 360.410162 108.082904 360.410162 134.082904 L 360.410162 182.082904 Q 360.410162 208.082904 337.893501 221.082904 L 296.324282 245.082904 Q 273.807621 258.082904 273.807621 284.082904 L 273.807621 332.082904 Q 273.807621 358.082904 251.290961 371.082904 L 195.721741 403.165808 Q 173.205081 416.165808 150.68842 403.165808 L 109.119201 379.165808 Q 86.60254 366.165808 64.08588 379.165808 L 22.51666 403.165808 Q 0 416.165808 -22.51666 403.165808 L -64.08588 379.165808 Q -86.60254 366.165808 -109.119201 379.165808 L -150.68842 403.165808 Q -173.205081 416.165808 -195.721741 403.165808 L -251.290961 371.082904 Q -273.807621 358.082904 -273.807621 332.082904 L -273.807621 284.082904 Q -273.807621 258.082904 -296.324282 245.082904 L -337.893501 221.082904 Q -360.410162 208.082904 -360.410162 182.082904 L -360.410162 134.082904 Q -360.410162 108.082904 -382.926822 95.082904 L -424.496042 71.082904 Q -447.012702 58.082904 -447.012702 32.082904 L -447.012702 -32.082904 Q -447.012702 -58.082904 -424.496042 -71.082904 L -382.926822 -95.082904 Q -360.410162 -108.082904 -360.410162 -134.082904 L -360.410162 -182.082904 Q -360.410162 -208.082904 -337.893501 -221.082904 L -296.324282 -245.082904 Q -273.807621 -258.082904 -273.807621 -284.082904 L -273.807621 -332.082904 Q -273.807621 -358.082904 -251.290961 -371.082904 L -195.721741 -403.165808 Z" fill="#D7CB93" vector-effect="non-scaling-stroke" />
</svg>
