<svg xmlns="http://www.w3.org/2000/svg" xmlns:xlink="http://www.w3.org/1999/xlink" width="291.969" height="406.205">
    <symbol id="b" viewBox="-146 -203 292 407">
        <image width="292" height="407" xlink:href="5F8F315.png" transform="matrix(1 0 0 -1 -146 204)" overflow="visible" opacity=".3"/>
        <radialGradient id="a" cx="-3.05" cy="3.04" r="163.894" gradientTransform="matrix(0 1 -1.0315 0 .085 6.09)" gradientUnits="userSpaceOnUse">
            <stop offset="0" stop-color="#c889ba"/>
            <stop offset=".207" stop-color="#bf83ba"/>
            <stop offset=".544" stop-color="#a774ba"/>
            <stop offset=".967" stop-color="#7f5cba"/>
            <stop offset="1" stop-color="#7c5aba"/>
        </radialGradient>
        <path d="M-129.63-186.96a6.177 6.177 0 00-6.17 6.17v367.661a6.177 6.177 0 006.17 6.169h253.16a6.176 6.176 0 006.169-6.169V-180.79a6.177 6.177 0 00-6.169-6.17h-253.16z" fill="url(#a)"/>
        <path d="M119.7 183.04v-360h-245.5v360h245.5m3.83 20h-253.16c-8.931 0-16.17-7.238-16.17-16.169V-180.79c0-8.93 7.239-16.17 16.17-16.17h253.16c8.93 0 16.169 7.24 16.169 16.17v367.661c.001 8.931-7.239 16.169-16.169 16.169z" fill="#c99ee8"/>
        <path d="M123.53 193.04a6.176 6.176 0 006.169-6.169V-180.79a6.177 6.177 0 00-6.169-6.17h-253.16a6.177 6.177 0 00-6.17 6.17v367.661a6.177 6.177 0 006.17 6.169h253.16m0 10h-253.16c-8.931 0-16.17-7.238-16.17-16.169V-180.79c0-8.93 7.239-16.17 16.17-16.17h253.16c8.93 0 16.169 7.24 16.169 16.17v367.661c.001 8.931-7.239 16.169-16.169 16.169z" fill="#414042"/>
    </symbol>
    <use xlink:href="#b" width="292" height="407" x="-146" y="-203" transform="matrix(1 0 0 -1 145.969 203.205)" overflow="visible"/>
    
    <radialGradient id="c" cx="143.278" cy="199.43" r="109.102" gradientUnits="userSpaceOnUse">
        <stop offset="0" stop-color="#3ba2c6"/>
        <stop offset=".237" stop-color="#3799c1"/>
        <stop offset=".623" stop-color="#2b81b5"/>
        <stop offset="1" stop-color="#1d63a6"/>
    </radialGradient>
    
    <linearGradient id="d" gradientUnits="userSpaceOnUse" x1="143.278" y1="199.429" x2="143.278" y2="106.327">
        <stop offset="0" stop-color="#8adbe0"/>
        <stop offset=".222" stop-color="#82d2dd"/>
        <stop offset=".584" stop-color="#6cbad5"/>
        <stop offset="1" stop-color="#4b96ca"/>
    </linearGradient>
    
    <linearGradient id="e" gradientUnits="userSpaceOnUse" x1="143.278" y1="292.531" x2="143.278" y2="199.429">
        <stop offset="0" stop-color="#b5db4b"/>
        <stop offset=".209" stop-color="#acd648"/>
        <stop offset=".549" stop-color="#94c93f"/>
        <stop offset=".977" stop-color="#6cb332"/>
        <stop offset="1" stop-color="#6ab231"/>
    </linearGradient>
    
    
    
    
    
</svg>