<svg xmlns="http://www.w3.org/2000/svg" xmlns:xlink="http://www.w3.org/1999/xlink" width="291.969" height="406.205"><image width="292" height="407" transform="translate(.031 -.205)" overflow="visible" opacity=".3"/><radialGradient id="a" cx="143.215" cy="200.357" r="163.894" gradientTransform="matrix(0 -1 1.0315 0 -63.458 343.572)" gradientUnits="userSpaceOnUse"><stop offset="0" stop-color="#32b4ba"/><stop offset=".163" stop-color="#30abba"/><stop offset=".429" stop-color="#2b93ba"/><stop offset=".762" stop-color="#236bba"/><stop offset="1" stop-color="#1d4bba"/></radialGradient><path d="M16.635 390.357a6.177 6.177 0 01-6.17-6.17V16.525a6.176 6.176 0 016.17-6.168h253.159a6.176 6.176 0 016.17 6.168v367.662a6.177 6.177 0 01-6.17 6.17H16.635z" fill="url(#a)"/><path d="M265.964 20.357v360H20.465v-360h245.499m3.83-20H16.635C7.703.357.465 7.595.465 16.525v367.662c0 8.93 7.238 16.17 16.17 16.17h253.159c8.93 0 16.17-7.24 16.17-16.17V16.525c0-8.929-7.24-16.168-16.17-16.168z" fill="#66c2e2"/><path d="M269.794 10.357a6.176 6.176 0 016.17 6.168v367.662a6.177 6.177 0 01-6.17 6.17H16.635a6.177 6.177 0 01-6.17-6.17V16.525a6.176 6.176 0 016.17-6.168h253.159m0-10H16.635C7.703.357.465 7.595.465 16.525v367.662c0 8.93 7.238 16.17 16.17 16.17h253.159c8.93 0 16.17-7.24 16.17-16.17V16.525c0-8.929-7.24-16.168-16.17-16.168z" fill="#414042"/></svg>