<?xml version="1.0" encoding="UTF-8" standalone="no"?>
<svg
   width="291.969"
   height="406.205"
   viewBox="0 0 1256 1750"
   fill="none"
   version="1.1"
   id="svg14"
   xmlns="http://www.w3.org/2000/svg"
   xmlns:svg="http://www.w3.org/2000/svg">
  <defs
     id="defs8">
    <linearGradient
       id="outerCream"
       x1="120"
       y1="100"
       x2="1120"
       y2="1650"
       gradientUnits="userSpaceOnUse">
      <stop
         offset="0"
         stop-color="#F3EBCF"
         id="stop1" />
      <stop
         offset="1"
         stop-color="#E3D3A3"
         id="stop2" />
    </linearGradient>
    <linearGradient
       id="faceCream"
       x1="288"
       y1="431"
       x2="982"
       y2="1169"
       gradientUnits="userSpaceOnUse">
      <stop
         offset="0"
         stop-color="#F5EDD2"
         id="stop3" />
      <stop
         offset="1"
         stop-color="#E6DBB2"
         id="stop4" />
    </linearGradient>
    <radialGradient
       id="bottomCool"
       cx="0.10360905"
       cy="0.18428631"
       r="1"
       gradientUnits="userSpaceOnUse"
       gradientTransform="matrix(-700.44769,685.39991,-628.8062,-642.61149,824.60771,924.9728)"
       fx="0.10360905"
       fy="0.18428631">
      <stop
         offset="0"
         stop-color="#79C0EC"
         id="stop5" />
      <stop
         offset="1"
         stop-color="#336BD0"
         id="stop6" />
    </radialGradient>
    <linearGradient
       id="cream"
       x1="288"
       y1="431"
       x2="982"
       y2="1169"
       gradientUnits="userSpaceOnUse">
      <stop
         offset="0"
         stop-color="#EEE5BF"
         id="stop7" />
      <stop
         offset="1"
         stop-color="#E7DDB2"
         id="stop8" />
    </linearGradient>
  </defs>
  <g
     filter="url(#softShadow)"
     id="g12">
    <rect
       x="24"
       y="60"
       width="1208"
       height="1630"
       rx="60"
       fill="url(#outerCream)"
       id="rect8" />
    <rect
       x="88"
       y="124"
       width="1080"
       height="1502"
       rx="54"
       fill="#5ca1dc"
       id="rect9"
       style="display:inline;fill:url(#bottomCool)" />
    <rect
       x="140.67197"
       y="187.23865"
       width="974.65607"
       height="1375.5227"
       rx="27.510454"
       fill="url(#topWarm)"
       id="rect11"
       style="display:inline;fill:none;stroke:#f2d676;stroke-width:15;stroke-linecap:round;stroke-linejoin:bevel;stroke-dasharray:none;stroke-opacity:1" />
    <rect
       x="138"
       y="867.5"
       width="110"
       height="15"
       rx="7.5"
       fill="#f0d16a"
       id="rect12a"
       style="stroke-width:0.993933" />
    <rect
       x="1008"
       y="867.5"
       width="110"
       height="15"
       rx="7.5"
       fill="#f0d16a"
       id="rect12b"
       style="stroke-width:0.993933" />
  </g>
  <g
     filter="url(#hexShadow)"
     id="g14"
     style="display:inline"
     transform="translate(0,33.25)">
    <path
       d="m 628,412 344,198 c 16,9 26,26 26,44 v 384 c 0,18 -10,35 -26,44 l -316,182 c -17,10 -39,10 -56,0 L 284,1082 c -16,-9 -26,-26 -26,-44 V 654 c 0,-18 10,-35 26,-44 L 600,428 c 17,-10 39,-10 56,0 z"
       fill="#f2d676"
       id="path12"
       style="display:inline" />
    <path
       d="m 628,454 321,185 c 12,7 19,20 19,34 v 346 c 0,14 -7,27 -19,34 l -298,172 c -14,8 -32,8 -46,0 L 307,1053 c -12,-7 -19,-20 -19,-34 V 673 c 0,-14 7,-27 19,-34 L 605,467 c 14,-8 32,-8 46,0 z"
       fill="#5ca1dc"
       id="path13"
       style="display:inline" />
    <path
       d="m 628,484 298,172 c 12,7 20,20 20,34 v 312 c 0,14 -8,27 -20,34 l -275,159 c -14,8 -32,8 -46,0 L 330,1036 c -12,-7 -20,-20 -20,-34 V 690 c 0,-14 8,-27 20,-34 L 605,497 c 14,-8 32,-8 46,0 z"
       fill="url(#faceCream)"
       id="path14"
       style="display:inline;fill:url(#faceCream)" />
  </g>
</svg>
