<?xml version="1.0" encoding="UTF-8" standalone="no"?>
<svg
   viewBox="0 0 32 32"
   fill="none"
   version="1.1"
   id="svg10"
   sodipodi:docname="icon_longest_road.svg"
   inkscape:version="1.4.3 (0d15f75, 2025-12-25)"
   xmlns:inkscape="http://www.inkscape.org/namespaces/inkscape"
   xmlns:sodipodi="http://sodipodi.sourceforge.net/DTD/sodipodi-0.dtd"
   xmlns:xlink="http://www.w3.org/1999/xlink"
   xmlns="http://www.w3.org/2000/svg"
   xmlns:svg="http://www.w3.org/2000/svg">
  <sodipodi:namedview
     id="namedview10"
     pagecolor="#ffffff"
     bordercolor="#000000"
     borderopacity="0.25"
     inkscape:showpageshadow="2"
     inkscape:pageopacity="0.0"
     inkscape:pagecheckerboard="0"
     inkscape:deskcolor="#d1d1d1"
     inkscape:zoom="13.75"
     inkscape:cx="5.6363636"
     inkscape:cy="21.272727"
     inkscape:window-width="2389"
     inkscape:window-height="1524"
     inkscape:window-x="0"
     inkscape:window-y="25"
     inkscape:window-maximized="0"
     inkscape:current-layer="svg10" />
  <defs
     id="defs5">
    <linearGradient
       id="linearGradient15"
       x1="20"
       x2="20"
       y1="84.5"
       y2="109.9"
       gradientUnits="userSpaceOnUse"
       gradientTransform="matrix(0.01627582,-0.06074218,0.13519939,0.04073786,-7.8425351,21.793792)">
      <stop
         offset="0"
         stop-color="#69c2ff"
         id="stop13"
         style="stop-color:#e9e9e9;stop-opacity:1;" />
      <stop
         offset="0.5"
         stop-color="#3763e1"
         id="stop14"
         style="stop-color:#a2a2a2;stop-opacity:1;" />
      <stop
         offset="1"
         stop-color="#5ba8ff"
         id="stop15"
         style="stop-color:#d8d8d8;stop-opacity:1;" />
    </linearGradient>
    <linearGradient
       id="roadFill"
       x1="7"
       y1="10"
       x2="25"
       y2="24"
       gradientUnits="userSpaceOnUse">
      <stop
         offset="0"
         stop-color="#E3DDD4"
         id="stop1" />
      <stop
         offset="0.52"
         stop-color="#C8BDAE"
         id="stop2" />
      <stop
         offset="1"
         stop-color="#B4A495"
         id="stop3" />
    </linearGradient>
    <linearGradient
       id="roadShade"
       x1="10"
       y1="12"
       x2="22"
       y2="22"
       gradientUnits="userSpaceOnUse">
      <stop
         offset="0"
         stop-color="#F6F0E7"
         id="stop4" />
      <stop
         offset="1"
         stop-color="#D3C7B8"
         id="stop5" />
    </linearGradient>
    <linearGradient
       id="body"
       x1="20"
       x2="20"
       y1="84.5"
       y2="109.9"
       gradientUnits="userSpaceOnUse"
       gradientTransform="matrix(0.01627582,-0.06074218,0.13519939,0.04073786,-7.8425351,21.793792)">
      <stop
         offset="0"
         stop-color="#69c2ff"
         id="stop1-5" />
      <stop
         offset=".5"
         stop-color="#3763e1"
         id="stop2-8" />
      <stop
         offset="1"
         stop-color="#5ba8ff"
         id="stop3-2" />
    </linearGradient>
    <linearGradient
       inkscape:collect="always"
       xlink:href="#linearGradient15"
       id="linearGradient13"
       gradientUnits="userSpaceOnUse"
       gradientTransform="matrix(0.03398512,-0.05886396,0.12975685,0.08035373,-4.5416888,15.275743)"
       x1="20"
       y1="84.5"
       x2="20"
       y2="109.9" />
    <linearGradient
       inkscape:collect="always"
       xlink:href="#linearGradient15"
       id="linearGradient17"
       gradientUnits="userSpaceOnUse"
       gradientTransform="matrix(0.06797024,0,-0.00470995,0.15254959,14.748773,2.5960669)"
       x1="20"
       y1="84.5"
       x2="20"
       y2="109.9" />
    <linearGradient
       inkscape:collect="always"
       xlink:href="#linearGradient15"
       id="linearGradient18"
       gradientUnits="userSpaceOnUse"
       gradientTransform="matrix(0.03398512,-0.05886396,0.12975685,0.08035373,9.638357,7.0324091)"
       x1="20"
       y1="84.5"
       x2="20"
       y2="109.9" />
  </defs>
  <g
     id="g18"
     transform="matrix(1.3346657,0,0,1.3346657,-5.3908986,-7.3325503)">
    <path
       d="m 4.4856101,25.420878 5.5905519,-9.683119 q 0.146137,-0.253116 0.62099,-0.190793 l 0.733438,0.102597 q 0.42233,0.06177 0.78565,0.286751 0.363318,0.224992 0.615725,0.58107 l 0.434372,0.620592 q 0.264761,0.395699 0.118619,0.648814 l -5.5905465,9.683113 q -0.1427389,0.24723 -0.604615,0.192939 l -0.7368359,-0.0967 Q 6.0306277,27.504379 5.6673074,27.279388 5.3039893,27.054396 5.0515837,26.698319 L 4.6206108,26.071839 Q 4.3428721,25.668107 4.4856101,25.420878 Z"
       fill="url(#body)"
       stroke="#2344ad"
       stroke-width="0.509138"
       stroke-linejoin="round"
       paint-order="stroke fill"
       id="path3"
       style="fill:url(#linearGradient13);stroke:#676767;stroke-opacity:1" />
    <path
       d="m 10.476477,15.486504 11.181104,10e-7 q 0.292273,-10e-7 0.475727,0.442396 l 0.277867,0.686475 q 0.157671,0.396633 0.144491,0.823768 -0.01319,0.427139 -0.195359,0.823769 l -0.320262,0.686473 q -0.210305,0.427139 -0.50258,0.427134 l -11.181096,2e-6 q -0.285477,-2e-6 -0.4693978,-0.427143 L 9.6022978,18.26291 q -0.1576793,-0.396629 -0.1444892,-0.823771 0.01319,-0.427138 0.1953587,-0.823767 l 0.3270612,-0.686473 q 0.2107725,-0.442395 0.4962485,-0.442395 z"
       fill="url(#body)"
       stroke="#2344ad"
       stroke-width="0.509138"
       stroke-linejoin="round"
       paint-order="stroke fill"
       id="path3-6"
       style="fill:url(#linearGradient17);stroke:#676767;stroke-opacity:1" />
    <path
       d="m 18.665657,17.177545 5.590552,-9.6831199 q 0.146137,-0.253116 0.62099,-0.190793 l 0.733438,0.102597 q 0.42233,0.06177 0.78565,0.286751 0.363318,0.224992 0.615725,0.58107 l 0.434372,0.620592 q 0.264761,0.3956989 0.118619,0.6488139 l -5.590546,9.683114 q -0.142739,0.24723 -0.604615,0.192939 l -0.736836,-0.0967 q -0.422331,-0.06176 -0.785652,-0.286754 -0.363318,-0.224992 -0.615723,-0.581069 l -0.430973,-0.62648 q -0.277739,-0.403732 -0.135001,-0.650961 z"
       fill="url(#body)"
       stroke="#2344ad"
       stroke-width="0.509138"
       stroke-linejoin="round"
       paint-order="stroke fill"
       id="path3-1"
       style="fill:url(#linearGradient18);stroke:#676767;stroke-opacity:1" />
  </g>
</svg>
