<svg viewBox="29 85 230 230" width="291.969" height="406.205" xmlns:xlink="http://www.w3.org/1999/xlink" xmlns="http://www.w3.org/2000/svg">
  <defs>
    <linearGradient id="a" x1="95.385" y1="295.826" x2="256.584" y2="431.573" gradientTransform="scale(1.30125 .7685)" gradientUnits="userSpaceOnUse">
      <stop offset="0%" stop-color="#ff4a1f"/>
      <stop offset="45%" stop-color="#ff3b0d"/>
      <stop offset="1" stop-color="#ff770e"/>
    </linearGradient>
    <linearGradient id="b" x1="124.686" y1="345.135" x2="236.86" y2="422.055" gradientTransform="scale(1.26678 .7894)" gradientUnits="userSpaceOnUse">
      <stop offset="0%" stop-color="#ffe98a"/>
      <stop offset="55%" stop-color="#f5d76a"/>
      <stop offset="100%" stop-color="#efc94e"/>
    </linearGradient>
    <linearGradient id="c" x1="90.015" y1="595.974" x2="203.04" y2="719.595" gradientTransform="scale(1.56284 .63986)" gradientUnits="userSpaceOnUse">
      <stop offset="0%" stop-color="#317dd4"/>
      <stop offset="52%" stop-color="#2789dd"/>
      <stop offset="100%" stop-color="#4db0f2"/>
    </linearGradient>
    <linearGradient id="f" x1="29.627" x2="258.214" y1="85.492" y2="314.08" gradientUnits="userSpaceOnUse">
      <stop offset="0" stop-color="#ecdfb9"/>
      <stop offset="1" stop-color="#ecdfb9"/>
    </linearGradient>
    <linearGradient id="d" x1="30.506" y1="27.688" x2="26.162" y2="23.344" gradientUnits="userSpaceOnUse">
      <stop offset=".065" stop-color="#b17161"/>
      <stop offset="1" stop-color="#b17161" stop-opacity="0"/>
    </linearGradient>
    <linearGradient id="e" x1="17.881" y1="21.406" x2="21.444" y2="17.719" gradientUnits="userSpaceOnUse">
      <stop offset=".058" stop-color="#9a6a62"/>
      <stop offset="1" stop-color="#a7776e" stop-opacity="0"/>
    </linearGradient>
    <linearGradient xlink:href="#a" id="h" gradientUnits="userSpaceOnUse" gradientTransform="scale(1.30125 .7685)" x1="95.385" y1="295.826" x2="256.584" y2="431.573"/>
    <linearGradient xlink:href="#b" id="i" gradientUnits="userSpaceOnUse" gradientTransform="scale(1.26678 .7894)" x1="124.686" y1="345.135" x2="236.86" y2="422.055"/>
    <linearGradient xlink:href="#c" id="k" gradientUnits="userSpaceOnUse" gradientTransform="scale(1.56284 .63986)" x1="90.015" y1="595.974" x2="203.04" y2="719.595"/>
    <linearGradient xlink:href="#d" id="n" gradientUnits="userSpaceOnUse" x1="30.506" y1="27.688" x2="26.162" y2="23.344"/>
    <linearGradient xlink:href="#e" id="o" gradientUnits="userSpaceOnUse" x1="17.881" y1="21.406" x2="21.444" y2="17.719"/>
    <filter id="l" x="8.049" y="8.311" width="21.374" height="21.523" filterUnits="userSpaceOnUse" color-interpolation-filters="sRGB">
      <feFlood flood-opacity="0" result="BackgroundImageFix"/>
      <feBlend in="SourceGraphic" in2="BackgroundImageFix" result="shape"/>
      <feColorMatrix in="SourceAlpha" values="0 0 0 0 0 0 0 0 0 0 0 0 0 0 0 0 0 0 127 0" result="hardAlpha"/>
      <feOffset dy="-.15"/>
      <feGaussianBlur stdDeviation=".15"/>
      <feComposite in2="hardAlpha" operator="arithmetic" k2="-1" k3="1"/>
      <feColorMatrix values="0 0 0 0 0.698039 0 0 0 0 0.482353 0 0 0 0 0.427451 0 0 0 1 0"/>
      <feBlend in2="shape" result="effect1_innerShadow_18_23767"/>
    </filter>
    <filter id="p" x="1.633" y="10.665" width="7.773" height="7.771" filterUnits="userSpaceOnUse" color-interpolation-filters="sRGB">
      <feFlood flood-opacity="0" result="BackgroundImageFix"/>
      <feBlend in="SourceGraphic" in2="BackgroundImageFix" result="shape"/>
      <feColorMatrix in="SourceAlpha" values="0 0 0 0 0 0 0 0 0 0 0 0 0 0 0 0 0 0 127 0" result="hardAlpha"/>
      <feOffset dx=".15" dy="-.15"/>
      <feGaussianBlur stdDeviation=".375"/>
      <feComposite in2="hardAlpha" operator="arithmetic" k2="-1" k3="1"/>
      <feColorMatrix values="0 0 0 0 0.552941 0 0 0 0 0.541176 0 0 0 0 0.592157 0 0 0 1 0"/>
      <feBlend in2="shape" result="effect1_innerShadow_18_23767"/>
    </filter>
    <filter id="r" x="4.731" y="2.632" width="12.121" height="13.21" filterUnits="userSpaceOnUse" color-interpolation-filters="sRGB">
      <feFlood flood-opacity="0" result="BackgroundImageFix"/>
      <feBlend in="SourceGraphic" in2="BackgroundImageFix" result="shape"/>
      <feColorMatrix in="SourceAlpha" values="0 0 0 0 0 0 0 0 0 0 0 0 0 0 0 0 0 0 127 0" result="hardAlpha"/>
      <feOffset dx=".25" dy="-.25"/>
      <feGaussianBlur stdDeviation=".5"/>
      <feComposite in2="hardAlpha" operator="arithmetic" k2="-1" k3="1"/>
      <feColorMatrix values="0 0 0 0 0.537255 0 0 0 0 0.52549 0 0 0 0 0.596078 0 0 0 1 0"/>
      <feBlend in2="shape" result="effect1_innerShadow_18_23767"/>
    </filter>
    <filter id="m" x="8.049" y="8.311" width="21.374" height="21.523" filterUnits="userSpaceOnUse" color-interpolation-filters="sRGB">
      <feFlood flood-opacity="0" result="BackgroundImageFix"/>
      <feBlend in="SourceGraphic" in2="BackgroundImageFix" result="shape"/>
      <feColorMatrix in="SourceAlpha" values="0 0 0 0 0 0 0 0 0 0 0 0 0 0 0 0 0 0 127 0" result="hardAlpha"/>
      <feOffset dy="-.15"/>
      <feGaussianBlur stdDeviation=".15"/>
      <feComposite in2="hardAlpha" operator="arithmetic" k2="-1" k3="1"/>
      <feColorMatrix values="0 0 0 0 0.698039 0 0 0 0 0.482353 0 0 0 0 0.427451 0 0 0 1 0"/>
      <feBlend in2="shape" result="effect1_innerShadow_18_23767"/>
    </filter>
    <filter id="q" x="1.633" y="10.665" width="7.773" height="7.771" filterUnits="userSpaceOnUse" color-interpolation-filters="sRGB">
      <feFlood flood-opacity="0" result="BackgroundImageFix"/>
      <feBlend in="SourceGraphic" in2="BackgroundImageFix" result="shape"/>
      <feColorMatrix in="SourceAlpha" values="0 0 0 0 0 0 0 0 0 0 0 0 0 0 0 0 0 0 127 0" result="hardAlpha"/>
      <feOffset dx=".15" dy="-.15"/>
      <feGaussianBlur stdDeviation=".375"/>
      <feComposite in2="hardAlpha" operator="arithmetic" k2="-1" k3="1"/>
      <feColorMatrix values="0 0 0 0 0.552941 0 0 0 0 0.541176 0 0 0 0 0.592157 0 0 0 1 0"/>
      <feBlend in2="shape" result="effect1_innerShadow_18_23767"/>
    </filter>
    <filter id="s" x="4.731" y="2.632" width="12.121" height="13.21" filterUnits="userSpaceOnUse" color-interpolation-filters="sRGB">
      <feFlood flood-opacity="0" result="BackgroundImageFix"/>
      <feBlend in="SourceGraphic" in2="BackgroundImageFix" result="shape"/>
      <feColorMatrix in="SourceAlpha" values="0 0 0 0 0 0 0 0 0 0 0 0 0 0 0 0 0 0 127 0" result="hardAlpha"/>
      <feOffset dx=".25" dy="-.25"/>
      <feGaussianBlur stdDeviation=".5"/>
      <feComposite in2="hardAlpha" operator="arithmetic" k2="-1" k3="1"/>
      <feColorMatrix values="0 0 0 0 0.537255 0 0 0 0 0.52549 0 0 0 0 0.596078 0 0 0 1 0"/>
      <feBlend in2="shape" result="effect1_innerShadow_18_23767"/>
    </filter>
    <clipPath id="g">
      <path d="M-20-20h461v381H-20z"/>
    </clipPath>
    <clipPath id="j">
      <path d="M-20 361h461v318H-20z"/>
    </clipPath>
  </defs>
  <g transform="translate(.08 .214)">
    <circle cx="143.921" cy="199.786" r="114.294" fill="url(#f)" style="display:inline;fill:url(#f);stroke-width:.723379"/>
    <circle cx="229" cy="336" r="138" fill="url(#a)" clip-path="url(#g)" style="display:inline;fill:url(#h)" transform="translate(-21.733 -43.27)scale(.72338)"/>
    <circle cx="229" cy="336" r="101.5" fill="url(#b)" clip-path="url(#g)" style="display:inline;fill:url(#i)" transform="translate(-21.733 -43.27)scale(.72338)"/>
    <circle cx="229" cy="336" r="138" fill="url(#c)" clip-path="url(#j)" style="display:inline;fill:url(#k)" transform="translate(-21.733 -43.27)scale(.72338)"/>
    <g style="display:inline">
      <g filter="url(#l)" style="filter:url(#m)" transform="matrix(-5.94271 .75545 .68437 5.37128 233.79 94.08)">
        <path d="m12.201 8.46 16.362 16.362a2.936 2.936 0 1 1-4.153 4.153L8.05 12.613Z" fill="#bc8979"/>
        <path d="m12.201 8.46 16.362 16.362a2.936 2.936 0 1 1-4.153 4.153L8.05 12.613Z" fill="url(#n)"/>
        <path d="m12.201 8.46 16.362 16.362a2.936 2.936 0 1 1-4.153 4.153L8.05 12.613Z" fill="url(#o)"/>
      </g>
      <g filter="url(#p)" style="display:inline;filter:url(#q)" transform="matrix(-5.94271 .75545 .68437 5.37128 233.79 94.08)">
        <path d="M2.74 11.281c.714-.713 1.571-.508 2.495-.05.176.088.334.207.473.346l2.843 2.843c.1.1.19.21.261.331.568.98.604 1.964.03 2.538l-1.105 1.073a.25.25 0 0 1-.353 0l-5.678-5.677a.25.25 0 0 1 0-.354z" fill="#cac3da"/>
      </g>
      <g filter="url(#r)" style="display:inline;filter:url(#s)" transform="matrix(-5.94271 .75545 .68437 5.37128 233.79 94.08)">
        <path d="M13.16 7.167a.5.5 0 0 0 0 .707l2.141 2.14a.4.4 0 0 1 0 .566l-5.145 5.145a.4.4 0 0 1-.566 0l-4.64-4.64a.75.75 0 0 1 0-1.06l6.557-6.557a2 2 0 0 1 1.579-.58l3.148.26a.4.4 0 0 1 .25.68z" fill="#cac3da"/>
      </g>
    </g>
  </g>
</svg>
