
<svg viewBox="18.0568 84.3007 223.605 123.954" xmlns="http://www.w3.org/2000/svg">
  <path d="M85.27 173.908c-4.965 0-9.004-4.04-9.004-9.005v-19.875c0-4.965 4.039-9.005 9.004-9.005h53.156c4.965 0 9.004 4.04 9.004 9.005v19.875c0 4.965-4.039 9.005-9.004 9.005H85.27z" fill="#ffd8c2" transform="matrix(1, 0, 0, 1, -15.00019645690918, -49.722328186035156)"/>
  <path d="M138.426 138.023c3.852 0 7.004 3.151 7.004 7.005v19.875c0 3.853-3.152 7.005-7.004 7.005H85.27c-3.852 0-7.004-3.152-7.004-7.005v-19.875c0-3.854 3.152-7.005 7.004-7.005h53.156m0-4H85.27c-6.067 0-11.004 4.937-11.004 11.005v19.875c0 6.068 4.937 11.005 11.004 11.005h53.156c6.067 0 11.004-4.937 11.004-11.005v-19.875c0-6.069-4.937-11.005-11.004-11.005z" fill="#935231" transform="matrix(1, 0, 0, 1, -15.00019645690918, -49.722328186035156)"/>
  <path d="M158.967 173.908c-4.965 0-9.005-4.04-9.005-9.005v-19.875c0-4.965 4.04-9.005 9.005-9.005h53.154c4.965 0 9.005 4.04 9.005 9.005v19.875c0 4.965-4.04 9.005-9.005 9.005h-53.154z" fill="#ffd8c2" transform="matrix(1, 0, 0, 1, -15.00019645690918, -49.722328186035156)"/>
  <path d="M212.121 138.023c3.854 0 7.005 3.151 7.005 7.005v19.875c0 3.853-3.151 7.005-7.005 7.005h-53.154c-3.854 0-7.005-3.152-7.005-7.005v-19.875c0-3.854 3.151-7.005 7.005-7.005h53.154m0-4h-53.154c-6.068 0-11.005 4.937-11.005 11.005v19.875c0 6.068 4.937 11.005 11.005 11.005h53.154c6.068 0 11.005-4.937 11.005-11.005v-19.875c0-6.069-4.937-11.005-11.005-11.005z" fill="#935231" transform="matrix(1, 0, 0, 1, -15.00019645690918, -49.722328186035156)"/>
  <path d="M85.27 255.977c-4.965 0-9.004-4.04-9.004-9.005v-19.876c0-4.965 4.039-9.004 9.004-9.004h53.156c4.965 0 9.004 4.039 9.004 9.004v19.876c0 4.965-4.039 9.005-9.004 9.005H85.27z" fill="#ffd8c2" transform="matrix(1, 0, 0, 1, -15.00019645690918, -49.722328186035156)"/>
  <path d="M138.426 220.092c3.852 0 7.004 3.151 7.004 7.004v19.876c0 3.853-3.152 7.005-7.004 7.005H85.27c-3.852 0-7.004-3.152-7.004-7.005v-19.876c0-3.853 3.152-7.004 7.004-7.004h53.156m0-4H85.27c-6.067 0-11.004 4.937-11.004 11.004v19.876c0 6.068 4.937 11.005 11.004 11.005h53.156c6.067 0 11.004-4.937 11.004-11.005v-19.876c0-6.067-4.937-11.004-11.004-11.004z" fill="#935231" transform="matrix(1, 0, 0, 1, -15.00019645690918, -49.722328186035156)"/>
  <path d="M158.967 255.977c-4.965 0-9.005-4.04-9.005-9.005v-19.876c0-4.965 4.04-9.004 9.005-9.004h53.154c4.965 0 9.005 4.039 9.005 9.004v19.876c0 4.965-4.04 9.005-9.005 9.005h-53.154z" fill="#ffd8c2" transform="matrix(1, 0, 0, 1, -15.00019645690918, -49.722328186035156)"/>
  <path d="M212.121 220.092c3.854 0 7.005 3.151 7.005 7.004v19.876c0 3.853-3.151 7.005-7.005 7.005h-53.154c-3.854 0-7.005-3.152-7.005-7.005v-19.876c0-3.853 3.151-7.004 7.005-7.004h53.154m0-4h-53.154c-6.068 0-11.005 4.937-11.005 11.004v19.876c0 6.068 4.937 11.005 11.005 11.005h53.154c6.068 0 11.005-4.937 11.005-11.005v-19.876c0-6.067-4.937-11.004-11.005-11.004z" fill="#935231" transform="matrix(1, 0, 0, 1, -15.00019645690918, -49.722328186035156)"/>
  <g transform="matrix(1, 0, 0, 1, -15.00019645690918, -49.722328186035156)">
    <path d="M44.061 215.467c-4.965 0-9.004-4.04-9.004-9.005v-19.876c0-4.965 4.039-9.004 9.004-9.004h53.156c4.965 0 9.004 4.039 9.004 9.004v19.876c0 4.965-4.039 9.005-9.004 9.005H44.061z" fill="#ffd8c2"/>
    <path d="M97.217 179.583c3.852 0 7.004 3.152 7.004 7.004v19.876c0 3.853-3.152 7.005-7.004 7.005H44.061c-3.852 0-7.004-3.152-7.004-7.005v-19.876c0-3.852 3.152-7.004 7.004-7.004h53.156m0-4H44.061c-6.067 0-11.004 4.937-11.004 11.004v19.876c0 6.068 4.937 11.005 11.004 11.005h53.156c6.067 0 11.004-4.937 11.004-11.005v-19.876c0-6.068-4.937-11.004-11.004-11.004z" fill="#935231"/>
  </g>
  <g transform="matrix(1, 0, 0, 1, -15.00019645690918, -49.722328186035156)">
    <path d="M118.457 215.467c-4.965 0-9.004-4.04-9.004-9.005v-19.876c0-4.965 4.039-9.004 9.004-9.004h53.155c4.965 0 9.005 4.039 9.005 9.004v19.876c0 4.965-4.04 9.005-9.005 9.005h-53.155z" fill="#ffd8c2"/>
    <path d="M171.612 179.583c3.853 0 7.005 3.152 7.005 7.004v19.876c0 3.853-3.152 7.005-7.005 7.005h-53.155c-3.854 0-7.004-3.152-7.004-7.005v-19.876c0-3.852 3.15-7.004 7.004-7.004h53.155m0-4h-53.155c-6.067 0-11.004 4.937-11.004 11.004v19.876c0 6.068 4.937 11.005 11.004 11.005h53.155c6.068 0 11.005-4.937 11.005-11.005v-19.876c0-6.068-4.936-11.004-11.005-11.004z" fill="#935231"/>
  </g>
  <g transform="matrix(1, 0, 0, 1, -15.00019645690918, -49.722328186035156)">
    <path d="M192.502 215.467c-4.965 0-9.004-4.04-9.004-9.005v-19.876c0-4.965 4.039-9.004 9.004-9.004h53.156c4.965 0 9.004 4.039 9.004 9.004v19.876c0 4.965-4.039 9.005-9.004 9.005h-53.156z" fill="#ffd8c2"/>
    <path d="M245.658 179.583c3.852 0 7.004 3.152 7.004 7.004v19.876c0 3.853-3.152 7.005-7.004 7.005h-53.156c-3.852 0-7.004-3.152-7.004-7.005v-19.876c0-3.852 3.152-7.004 7.004-7.004h53.156m0-4h-53.156c-6.067 0-11.004 4.937-11.004 11.004v19.876c0 6.068 4.937 11.005 11.004 11.005h53.156c6.067 0 11.004-4.937 11.004-11.005v-19.876c0-6.068-4.936-11.004-11.004-11.004z" fill="#935231"/>
  </g>
  <g transform="matrix(1, 0, 0, 1, -15.00019645690918, -49.722328186035156)">
    <path d="M86.055 171.838h52.578c3.854 0 7.004-3.152 7.004-7.005v-19.876c0-3.852-4.52-6.827-4.623-6.135 1.975 7.347 2.494 16.91 1.039 29.697-.156 1.377-55.842.246-55.842.246l-6.74-.004c0 2.081 4.367 3.12 6.584 3.077zM159.863 171.838h52.58c3.852 0 7.004-3.152 7.004-7.005v-19.876c0-3.852-4.52-6.827-4.624-6.135 1.976 7.347 2.495 16.91 1.04 29.697-.157 1.377-55.844.246-55.844.246l-6.738-.004c0 2.081 4.365 3.12 6.582 3.077zM141.014 220.95c1.975 7.346 2.494 16.91 1.039 29.697-.156 1.377-55.842.245-55.842.245l-6.74-.003c0 2.079 4.367 3.119 6.584 3.075h52.578c3.854 0 7.004-3.151 7.004-7.005v-19.875c0-3.852-4.52-6.828-4.623-6.134zM214.823 220.95c1.976 7.346 2.495 16.91 1.04 29.697-.157 1.377-55.844.245-55.844.245l-6.738-.003c0 2.079 4.365 3.119 6.582 3.075h52.58c3.852 0 7.004-3.151 7.004-7.005v-19.875c0-3.852-4.519-6.828-4.624-6.134zM104.262 206.625v-19.876c0-3.853-4.52-6.828-4.623-6.135 1.975 7.347 2.494 16.91 1.039 29.697-.156 1.377-55.842.245-55.842.245l-6.74-.003c0 2.08 4.367 3.119 6.584 3.076h52.578c3.853 0 7.004-3.152 7.004-7.004zM119.061 210.141l-6.738-.003c0 2.079 4.365 3.118 6.582 3.075h52.579c3.853 0 7.005-3.152 7.005-7.005v-19.876c0-3.852-4.52-6.827-4.624-6.135 1.976 7.347 2.495 16.911 1.04 29.697-.158 1.378-55.844.247-55.844.247zM247.881 180.198c1.977 7.347 2.496 16.911 1.041 29.697-.158 1.377-55.844.246-55.844.246l-6.739-.003c0 2.079 4.366 3.118 6.583 3.075h52.58c3.852 0 7.004-3.152 7.004-7.005v-19.876c0-3.851-4.52-6.827-4.625-6.134z" fill="#d3977d"/>
  </g>
</svg>