<svg xmlns="http://www.w3.org/2000/svg" viewBox="0 0 128 128" fill="none"><defs><linearGradient id="b" x1="9.609" y1="26.625" x2="22.109" y2="26.625" gradientUnits="userSpaceOnUse"><stop stop-color="#58d8ff"/><stop offset="1" stop-color="#43b9ff"/></linearGradient><linearGradient id="d" x1="21.734" y1="7.188" x2="9.859" y2="7.188" gradientUnits="userSpaceOnUse"><stop stop-color="#58d8ff"/><stop offset="1" stop-color="#43b9ff"/></linearGradient><filter id="a" x="8.852" y="23.688" width="14.234" height="6.624" filterUnits="userSpaceOnUse" color-interpolation-filters="sRGB"><feFlood flood-opacity="0" result="BackgroundImageFix"/><feBlend in="SourceGraphic" in2="BackgroundImageFix" result="shape"/><feColorMatrix in="SourceAlpha" values="0 0 0 0 0 0 0 0 0 0 0 0 0 0 0 0 0 0 127 0" result="hardAlpha"/><feOffset dy="-.25"/><feGaussianBlur stdDeviation=".3"/><feComposite in2="hardAlpha" operator="arithmetic" k2="-1" k3="1"/><feColorMatrix values="0 0 0 0 0.356863 0 0 0 0 0.466667 0 0 0 0 0.886275 0 0 0 1 0"/><feBlend in2="shape" result="effect1_innerShadow_18590_1864"/><feColorMatrix in="SourceAlpha" values="0 0 0 0 0 0 0 0 0 0 0 0 0 0 0 0 0 0 127 0" result="hardAlpha"/><feOffset dx=".25"/><feGaussianBlur stdDeviation=".3"/><feComposite in2="hardAlpha" operator="arithmetic" k2="-1" k3="1"/><feColorMatrix values="0 0 0 0 0.215686 0 0 0 0 0.647059 0 0 0 0 0.92549 0 0 0 1 0"/><feBlend in2="effect1_innerShadow_18590_1864" result="effect2_innerShadow_18590_1864"/><feColorMatrix in="SourceAlpha" values="0 0 0 0 0 0 0 0 0 0 0 0 0 0 0 0 0 0 127 0" result="hardAlpha"/><feOffset dx="-.25" dy=".25"/><feGaussianBlur stdDeviation=".2"/><feComposite in2="hardAlpha" operator="arithmetic" k2="-1" k3="1"/><feColorMatrix values="0 0 0 0 0.490196 0 0 0 0 1 0 0 0 0 1 0 0 0 1 0"/><feBlend in2="effect2_innerShadow_18590_1864" result="effect3_innerShadow_18590_1864"/></filter><filter id="c" x="9.031" y="1.688" width="14.234" height="6.624" filterUnits="userSpaceOnUse" color-interpolation-filters="sRGB"><feFlood flood-opacity="0" result="BackgroundImageFix"/><feBlend in="SourceGraphic" in2="BackgroundImageFix" result="shape"/><feColorMatrix in="SourceAlpha" values="0 0 0 0 0 0 0 0 0 0 0 0 0 0 0 0 0 0 127 0" result="hardAlpha"/><feOffset dx="-.25" dy=".25"/><feGaussianBlur stdDeviation=".2"/><feComposite in2="hardAlpha" operator="arithmetic" k2="-1" k3="1"/><feColorMatrix values="0 0 0 0 0.490196 0 0 0 0 1 0 0 0 0 1 0 0 0 1 0"/><feBlend in2="shape" result="effect1_innerShadow_18590_1864"/><feColorMatrix in="SourceAlpha" values="0 0 0 0 0 0 0 0 0 0 0 0 0 0 0 0 0 0 127 0" result="hardAlpha"/><feOffset dy="-.25"/><feGaussianBlur stdDeviation=".3"/><feComposite in2="hardAlpha" operator="arithmetic" k2="-1" k3="1"/><feColorMatrix values="0 0 0 0 0.356863 0 0 0 0 0.466667 0 0 0 0 0.886275 0 0 0 1 0"/><feBlend in2="effect1_innerShadow_18590_1864" result="effect2_innerShadow_18590_1864"/><feColorMatrix in="SourceAlpha" values="0 0 0 0 0 0 0 0 0 0 0 0 0 0 0 0 0 0 127 0" result="hardAlpha"/><feOffset dx=".25"/><feGaussianBlur stdDeviation=".3"/><feComposite in2="hardAlpha" operator="arithmetic" k2="-1" k3="1"/><feColorMatrix values="0 0 0 0 0.215686 0 0 0 0 0.647059 0 0 0 0 0.92549 0 0 0 1 0"/><feBlend in2="effect2_innerShadow_18590_1864" result="effect3_innerShadow_18590_1864"/></filter></defs><g filter="url(#a)" transform="rotate(-37.438 84.028 69.665)scale(3.4237)"><path d="m22.435 29.478.4-5.07a.44.44 0 0 0-.43-.47l-5.09.03c-.39.01-.59.46-.33.74l1.19 1.28c.12.12.11.32-.02.42-.7.55-1.61.88-2.57.84-1.8-.07-3.27-1.46-3.64-3.14a.204.204 0 0 0-.2-.16h-2.43c-.12 0-.23.11-.21.24.44 3.16 3.08 5.75 6.38 5.87 1.75.06 3.38-.55 4.61-1.61.12-.1.29-.09.4.02l1.18 1.27c.26.28.73.12.76-.26" fill="url(#b)" style="fill:url(#b)"/></g><g filter="url(#c)" transform="rotate(-42.091 61.348 44.024)scale(3.75719)"><path d="m9.682 2.522-.4 5.07c-.02.25.18.47.43.47l5.09-.03c.39-.01.59-.46.33-.74l-1.19-1.28a.282.282 0 0 1 .02-.42c.7-.55 1.61-.88 2.57-.84 1.8.07 3.27 1.46 3.64 3.14.02.09.1.16.2.16h2.43c.13 0 .23-.12.21-.24-.44-3.16-3.08-5.75-6.38-5.87-1.75-.06-3.38.55-4.61 1.61-.12.1-.29.09-.4-.02l-1.18-1.27a.439.439 0 0 0-.76.26" fill="url(#d)" style="fill:url(#d)"/></g><path d="M23.995 109.545h.864a.44.44 0 0 0 .44-.458V76.064h-1.762v24.67h-3.524V88.381a7.04 7.04 0 0 0-6.22-6.995.733.733 0 0 0-.829.722v13.304a7.047 7.047 0 0 0 7.049 7.05h3.524v6.625c0 .264.194.458.458.458m4.829-24.67h1.762v22.908h3.577v-7.295a7.04 7.04 0 0 1 6.22-6.996.733.733 0 0 1 .829.722v8.282a7.047 7.047 0 0 1-7.049 7.05h-4.758a.587.587 0 0 1-.581-.582Z" fill="#44911b"/><path d="M32.753 70.777c.723 0 1.34.564 1.357 1.304s-.581 1.34-1.321 1.34h-5.393c-.916 0-1.656.74-1.656 1.656v3.172c0 .74-.6 1.34-1.34 1.322-.74 0-1.303-.635-1.303-1.357V67.359a7.16 7.16 0 0 1 7.154-7.155h7.824c.74 0 1.34.6 1.322 1.34 0 .74-.635 1.304-1.357 1.304h-7.754c-.74 0-1.339.599-1.321 1.339s.634 1.304 1.357 1.304h5.99c.741 0 1.34.599 1.323 1.34 0 .74-.635 1.303-1.357 1.303h-7.754c-.74 0-1.34.6-1.321 1.34s.634 1.303 1.356 1.303Zm5.287 15.86c.722 0 1.34.564 1.374 1.286.018.74-.581 1.34-1.321 1.34H32.7c-.916 0-1.656.74-1.656 1.656v3.19c0 .74-.6 1.339-1.34 1.321-.74 0-1.303-.634-1.303-1.357V83.218a7.16 7.16 0 0 1 7.154-7.154h7.807c.74 0 1.339.599 1.321 1.34 0 .74-.634 1.303-1.357 1.303h-7.418c-.74 0-1.34.6-1.322 1.34 0 .74.634 1.303 1.357 1.303h5.656c.74 0 1.34.6 1.322 1.34 0 .74-.634 1.304-1.357 1.304h-7.419c-.74 0-1.339.599-1.321 1.339 0 .74.634 1.304 1.357 1.304z" fill="#f9c23c"/><path d="M108.177 31.483H78.08v35.742c0 3.636 6.738 6.584 15.05 6.584s15.048-2.948 15.048-6.584z" fill="#6d4534"/><path d="M93.128 38.067c8.311 0 15.05-2.947 15.05-6.584s-6.739-6.584-15.05-6.584-15.049 2.948-15.049 6.584c0 1.199.602 2.222 1.881 3.19.042.033-.043-.033 0 0v11.86a.94.94 0 0 0 1.881 0V35.838c.051.027-.052-.026 0 0 2.76 1.411 6.709 2.23 11.287 2.23m21.359 1.444-6.31 6.306v21.407c0 1.67-1.42 3.194-3.762 4.355v-8.117a.94.94 0 0 0-1.881-.015V45.43a4.7 4.7 0 0 1 1.377-3.326l6.584-6.584a1.88 1.88 0 0 1 2.66 0l1.332 1.332a1.88 1.88 0 0 1 0 2.66m-43.658 15.99 7.25 7.246v4.477c0 2.079 2.203 3.932 5.644 5.14V62.36a4.7 4.7 0 0 0-1.377-3.325L74.82 51.51a1.88 1.88 0 0 0-2.66 0l-1.332 1.33a1.88 1.88 0 0 0 0 2.662m14.775-7.088a.94.94 0 0 1 1.88 0v7.524a.94.94 0 1 1-1.88 0z" fill="#a56953"/><path d="M106.296 31.013c0 2.858-5.895 5.173-13.168 5.173S79.96 33.871 79.96 31.013s5.896-5.173 13.168-5.173 13.168 2.316 13.168 5.173" fill="#f3ad61"/><path d="M93.128 34.305c5.194 0 9.406-1.58 9.406-3.527s-4.212-3.527-9.406-3.527-9.405 1.58-9.405 3.527 4.211 3.527 9.405 3.527m0-1.881c-3.117 0-5.643-.843-5.643-1.881s2.526-1.881 5.643-1.881 5.644.842 5.644 1.88-2.527 1.882-5.644 1.882" fill="#6d4534"/></svg>