<svg xmlns="http://www.w3.org/2000/svg" viewBox="-70.835 76.935 193.57 39.71">
    <g transform="matrix(1, 0, 0, 1, 0, -1.7763568394002505e-15)">
      <linearGradient id="a" gradientUnits="userSpaceOnUse" x1="6.65" y1="96.78" x2="45.24" y2="96.78" gradientTransform="matrix(1, 0, 0, 1, 0, 0)">
        <stop offset="0.15" stop-color="red"/>
        <stop offset="0.5" stop-color="#b30000"/>
        <stop offset="0.85" stop-color="red"/>
      </linearGradient>
      <path fill="url(#a)" d="M 6.65 181.8 L 6.65 11.76 L 25.92 0.66 L 45.24 11.8 L 45.24 181.8 L 25.92 192.92 L 6.65 181.8 Z" style="transform-box: fill-box; transform-origin: 50% 50%;" transform="matrix(0, 1, -1, 0, 0, 0)"/>
      <path d="M 25.925 1.305 L 44.685 12.125 L 44.685 181.475 L 25.925 192.275 L 7.215 181.475 L 7.215 12.105 L 25.925 1.305 M 25.925 0.005 L 25.365 0.325 L 6.655 11.125 L 6.095 11.455 L 6.095 182.115 L 6.655 182.445 L 25.365 193.245 L 25.925 193.575 L 26.485 193.245 L 45.245 182.445 L 45.805 182.115 L 45.805 11.485 L 45.245 11.155 L 26.485 0.325 L 25.925 0.005 Z" style="transform-box: fill-box; transform-origin: 50% 50%;" transform="matrix(0, 1, -1, 0, 0, 0)"/>
      <path fill="#8C0039" d="M 25.93 5.19 L 41.33 14.07 L 41.33 179.53 L 25.93 188.4 L 10.58 179.54 L 10.58 14.05 L 25.93 5.19 M 25.93 1.3 L 7.22 12.11 L 7.22 181.48 L 25.93 192.28 L 44.69 181.48 L 44.69 12.13 L 25.93 1.31 L 25.93 1.3 Z" style="transform-box: fill-box; transform-origin: 50% 50%;" transform="matrix(0, 1, -1, 0, 0, 0)"/>
    </g>
  </svg>