<?xml version="1.0" encoding="UTF-8" standalone="no"?>
<svg
   fill="none"
   viewBox="0 0 1256 1750"
   version="1.1"
   id="svg36"
   width="291.96899"
   height="406.20499"
   xmlns:xlink="http://www.w3.org/1999/xlink"
   xmlns="http://www.w3.org/2000/svg"
   xmlns:svg="http://www.w3.org/2000/svg">
  <defs
     id="defs24">
    <linearGradient
       id="f"
       x1="120"
       x2="1120"
       y1="100"
       y2="1650"
       gradientUnits="userSpaceOnUse">
      <stop
         offset="0"
         stop-color="#f3ebcf"
         id="stop1" />
      <stop
         offset="1"
         stop-color="#e3d3a3"
         id="stop2" />
    </linearGradient>
    <radialGradient
       id="g"
       cx="0.104"
       cy="0.184"
       r="1"
       fx="0.104"
       fy="0.184"
       gradientTransform="matrix(-700.44645,685.40117,-628.80737,-642.61035,824.60722,924.97269)"
       gradientUnits="userSpaceOnUse">
      <stop
         offset="0"
         stop-color="#ffb955"
         id="stop23" />
      <stop
         offset="1"
         stop-color="#f97316"
         id="stop24" />
    </radialGradient>
    <filter
       id="textShadow"
       x="200"
       y="220"
       width="760"
       height="520"
       filterUnits="userSpaceOnUse"
       color-interpolation-filters="sRGB">
      <feFlood
         flood-opacity="0.16"
         flood-color="#8b541c"
         result="flood"
         id="feFlood105" />
      <feComposite
         in="flood"
         in2="SourceAlpha"
         operator="in"
         result="shadowColor"
         id="feComposite106" />
      <feGaussianBlur
         in="shadowColor"
         stdDeviation="18"
         result="shadowBlur"
         id="feGaussianBlur105" />
      <feOffset
         in="shadowBlur"
         dx="0"
         dy="16"
         result="shadowOffset"
         id="feOffset105" />
      <feMerge
         id="feMerge105">
        <feMergeNode
           in="shadowOffset"
           id="feMergeNode106" />
        <feMergeNode
           in="SourceGraphic"
           id="feMergeNode107" />
      </feMerge>
    </filter>
    <linearGradient
       xlink:href="#f"
       id="linearGradient2"
       gradientUnits="userSpaceOnUse"
       x1="120"
       y1="100"
       x2="1120"
       y2="1650" />
    <filter
       id="filter0_i_18_1422"
       x="19.371201"
       y="4.7879601"
       width="7.8101201"
       height="8.7286396"
       filterUnits="userSpaceOnUse"
       color-interpolation-filters="sRGB">
      <feFlood
         flood-opacity="0"
         result="BackgroundImageFix"
         id="feFlood17" />
      <feBlend
         mode="normal"
         in="SourceGraphic"
         in2="BackgroundImageFix"
         result="shape"
         id="feBlend17" />
      <feColorMatrix
         in="SourceAlpha"
         type="matrix"
         values="0 0 0 0 0 0 0 0 0 0 0 0 0 0 0 0 0 0 127 0"
         result="hardAlpha"
         id="feColorMatrix17" />
      <feOffset
         dy="-0.25"
         id="feOffset17" />
      <feGaussianBlur
         stdDeviation="0.25"
         id="feGaussianBlur17" />
      <feComposite
         in2="hardAlpha"
         operator="arithmetic"
         k2="-1"
         k3="1"
         id="feComposite17"
         k1="0"
         k4="0" />
      <feColorMatrix
         type="matrix"
         values="0 0 0 0 0.937255 0 0 0 0 0.576471 0 0 0 0 0.247059 0 0 0 1 0"
         id="feColorMatrix18" />
      <feBlend
         mode="normal"
         in2="shape"
         result="effect1_innerShadow_18_1422"
         id="feBlend18" />
    </filter>
    <linearGradient
       id="paint0_linear_18_1422"
       x1="22.2363"
       y1="11.9442"
       x2="25.867901"
       y2="8.6678801"
       gradientUnits="userSpaceOnUse">
      <stop
         stop-color="#FEC551"
         id="stop27" />
      <stop
         offset="1"
         stop-color="#FEC551"
         stop-opacity="0"
         id="stop28" />
    </linearGradient>
    <radialGradient
       id="paint1_radial_18_1422"
       cx="0"
       cy="0"
       r="1"
       gradientUnits="userSpaceOnUse"
       gradientTransform="matrix(4.6973674,-1.8552592,1.7089829,4.3270075,22.2758,8.90473)">
      <stop
         offset="0.72717"
         stop-color="#FFEC6A"
         stop-opacity="0"
         id="stop29" />
      <stop
         offset="1"
         stop-color="#FFEC6A"
         id="stop30" />
    </radialGradient>
    <filter
       id="filter1_i_18_1422"
       x="4.13446"
       y="4.7879601"
       width="7.8099999"
       height="8.7286396"
       filterUnits="userSpaceOnUse"
       color-interpolation-filters="sRGB">
      <feFlood
         flood-opacity="0"
         result="BackgroundImageFix"
         id="feFlood18" />
      <feBlend
         mode="normal"
         in="SourceGraphic"
         in2="BackgroundImageFix"
         result="shape"
         id="feBlend19" />
      <feColorMatrix
         in="SourceAlpha"
         type="matrix"
         values="0 0 0 0 0 0 0 0 0 0 0 0 0 0 0 0 0 0 127 0"
         result="hardAlpha"
         id="feColorMatrix19" />
      <feOffset
         dy="-0.25"
         id="feOffset19" />
      <feGaussianBlur
         stdDeviation="0.25"
         id="feGaussianBlur19" />
      <feComposite
         in2="hardAlpha"
         operator="arithmetic"
         k2="-1"
         k3="1"
         id="feComposite19"
         k1="0"
         k4="0" />
      <feColorMatrix
         type="matrix"
         values="0 0 0 0 0.854902 0 0 0 0 0.458824 0 0 0 0 0.286275 0 0 0 1 0"
         id="feColorMatrix20" />
      <feBlend
         mode="normal"
         in2="shape"
         result="effect1_innerShadow_18_1422"
         id="feBlend20" />
    </filter>
    <linearGradient
       id="paint2_linear_18_1422"
       x1="9.5652704"
       y1="7.9573598"
       x2="7.0784202"
       y2="7.24683"
       gradientUnits="userSpaceOnUse">
      <stop
         stop-color="#D27840"
         id="stop31" />
      <stop
         offset="1"
         stop-color="#D27840"
         stop-opacity="0"
         id="stop32" />
    </linearGradient>
    <filter
       id="filter2_i_18_1422"
       x="11.1678"
       y="13.2999"
       width="9.4799805"
       height="7.9899902"
       filterUnits="userSpaceOnUse"
       color-interpolation-filters="sRGB">
      <feFlood
         flood-opacity="0"
         result="BackgroundImageFix"
         id="feFlood20" />
      <feBlend
         mode="normal"
         in="SourceGraphic"
         in2="BackgroundImageFix"
         result="shape"
         id="feBlend21" />
      <feColorMatrix
         in="SourceAlpha"
         type="matrix"
         values="0 0 0 0 0 0 0 0 0 0 0 0 0 0 0 0 0 0 127 0"
         result="hardAlpha"
         id="feColorMatrix21" />
      <feOffset
         dx="0.5"
         dy="0.25"
         id="feOffset21" />
      <feGaussianBlur
         stdDeviation="0.25"
         id="feGaussianBlur21" />
      <feComposite
         in2="hardAlpha"
         operator="arithmetic"
         k2="-1"
         k3="1"
         id="feComposite21"
         k1="0"
         k4="0" />
      <feColorMatrix
         type="matrix"
         values="0 0 0 0 0.843137 0 0 0 0 0.462745 0 0 0 0 0.215686 0 0 0 1 0"
         id="feColorMatrix22" />
      <feBlend
         mode="normal"
         in2="shape"
         result="effect1_innerShadow_18_1422"
         id="feBlend22" />
    </filter>
    <linearGradient
       id="paint3_linear_18_1422"
       x1="16.9534"
       y1="19.759899"
       x2="11.8909"
       y2="19.759899"
       gradientUnits="userSpaceOnUse">
      <stop
         stop-color="#FBC33A"
         id="stop33" />
      <stop
         offset="1"
         stop-color="#DB7B3C"
         id="stop34" />
    </linearGradient>
    <radialGradient
       id="paint4_radial_18_1422"
       cx="0"
       cy="0"
       r="1"
       gradientUnits="userSpaceOnUse"
       gradientTransform="matrix(0,2.09,-1.90625,0,17.2347,17.1699)">
      <stop
         offset="0.192585"
         stop-color="#FFE469"
         id="stop35" />
      <stop
         offset="1"
         stop-color="#FFE469"
         stop-opacity="0"
         id="stop36" />
    </radialGradient>
    <radialGradient
       id="paint5_radial_18_1422"
       cx="0"
       cy="0"
       r="1"
       gradientUnits="userSpaceOnUse"
       gradientTransform="matrix(-1.9533006,1.1661574,-1.770589,-2.9657168,19.3914,20.3523)">
      <stop
         stop-color="#FFD34D"
         id="stop37" />
      <stop
         offset="1"
         stop-color="#FFD34D"
         stop-opacity="0"
         id="stop38" />
    </radialGradient>
    <radialGradient
       id="paint6_radial_18_1422"
       cx="0"
       cy="0"
       r="1"
       gradientUnits="userSpaceOnUse"
       gradientTransform="matrix(1.3628751,12.34872,-7.9294336,0.87513746,18.2035,3.13501)">
      <stop
         offset="0.120527"
         stop-color="#FFFA73"
         id="stop39" />
      <stop
         offset="1"
         stop-color="#FFFA73"
         stop-opacity="0"
         id="stop40" />
    </radialGradient>
    <radialGradient
       id="paint7_radial_18_1422"
       cx="0"
       cy="0"
       r="1"
       gradientUnits="userSpaceOnUse"
       gradientTransform="matrix(0,0.704335,-7.87152,0,18.2836,2.01001)">
      <stop
         stop-color="#FFF45B"
         id="stop41" />
      <stop
         offset="1"
         stop-color="#FFF45B"
         stop-opacity="0"
         id="stop42" />
    </radialGradient>
    <radialGradient
       id="paint8_radial_18_1422"
       cx="0"
       cy="0"
       r="1"
       gradientUnits="userSpaceOnUse"
       gradientTransform="matrix(-6.8750449,11.187473,-10.733536,-6.596087,19.016,4.76001)">
      <stop
         offset="0.787409"
         stop-color="#C55D73"
         stop-opacity="0"
         id="stop43" />
      <stop
         offset="1"
         stop-color="#C55D73"
         id="stop44" />
    </radialGradient>
    <filter
       id="filter0_ii_18_1377"
       x="11.3054"
       y="14.97"
       width="9.2236204"
       height="8.89851"
       filterUnits="userSpaceOnUse"
       color-interpolation-filters="sRGB">
      <feFlood
         flood-opacity="0"
         result="BackgroundImageFix"
         id="feFlood19" />
      <feBlend
         mode="normal"
         in="SourceGraphic"
         in2="BackgroundImageFix"
         result="shape"
         id="feBlend19-0" />
      <feColorMatrix
         in="SourceAlpha"
         type="matrix"
         values="0 0 0 0 0 0 0 0 0 0 0 0 0 0 0 0 0 0 127 0"
         result="hardAlpha"
         id="feColorMatrix19-7" />
      <feOffset
         dx="-0.3"
         dy="-0.3"
         id="feOffset19-4" />
      <feGaussianBlur
         stdDeviation="0.375"
         id="feGaussianBlur19-8" />
      <feComposite
         in2="hardAlpha"
         operator="arithmetic"
         k2="-1"
         k3="1"
         id="feComposite19-5"
         k1="0"
         k4="0" />
      <feColorMatrix
         type="matrix"
         values="0 0 0 0 0.290196 0 0 0 0 0.14902 0 0 0 0 0.14902 0 0 0 1 0"
         id="feColorMatrix20-8" />
      <feBlend
         mode="normal"
         in2="shape"
         result="effect1_innerShadow_18_1377"
         id="feBlend20-3" />
      <feColorMatrix
         in="SourceAlpha"
         type="matrix"
         values="0 0 0 0 0 0 0 0 0 0 0 0 0 0 0 0 0 0 127 0"
         result="hardAlpha"
         id="feColorMatrix21-0" />
      <feOffset
         dx="0.2"
         dy="-0.2"
         id="feOffset21-6" />
      <feGaussianBlur
         stdDeviation="0.075"
         id="feGaussianBlur21-2" />
      <feComposite
         in2="hardAlpha"
         operator="arithmetic"
         k2="-1"
         k3="1"
         id="feComposite21-2"
         k1="0"
         k4="0" />
      <feColorMatrix
         type="matrix"
         values="0 0 0 0 0.517647 0 0 0 0 0.372549 0 0 0 0 0.34902 0 0 0 1 0"
         id="feColorMatrix22-5" />
      <feBlend
         mode="normal"
         in2="effect1_innerShadow_18_1377"
         result="effect2_innerShadow_18_1377"
         id="feBlend22-2" />
    </filter>
    <linearGradient
       id="paint17_linear_18_1377"
       x1="15.1423"
       y1="17.7896"
       x2="18.3634"
       y2="24.147499"
       gradientUnits="userSpaceOnUse">
      <stop
         stop-color="#864B60"
         id="stop57" />
      <stop
         offset="1"
         stop-color="#5D3247"
         id="stop58" />
    </linearGradient>
    <radialGradient
       id="paint18_radial_18_1377"
       cx="0"
       cy="0"
       r="1"
       gradientUnits="userSpaceOnUse"
       gradientTransform="matrix(-1.749992,2.0312524,-2.7702409,-2.3866553,18.3666,16.8125)">
      <stop
         offset="0.200652"
         stop-color="#602543"
         id="stop59" />
      <stop
         offset="1"
         stop-color="#602543"
         stop-opacity="0"
         id="stop60" />
    </radialGradient>
  </defs>
  <g
     id="g28">
    <rect
       width="1208"
       height="1630"
       x="24"
       y="60"
       fill="url(#f)"
       rx="60"
       id="rect24"
       style="fill:url(#linearGradient2)" />
    <rect
       width="1080"
       height="1502"
       x="88"
       y="124"
       fill="url(#g)"
       rx="54"
       id="rect25"
       style="fill:url(#g)" />
    <rect
       width="974.65601"
       height="1375.5229"
       x="140.672"
       y="187.239"
       rx="27.51"
       stroke="#f2d676"
       stroke-width="15"
       stroke-linecap="round"
       stroke-linejoin="bevel"
       id="rect26" />
  </g>
  <text
     style="font-weight:500;font-size:494.003px;font-family:Outfit;-inkscape-font-specification:'Outfit Medium';text-align:center;fill:#ecdfb9;stroke:#f2d676;stroke-width:0.993933;stroke-linecap:round;stroke-linejoin:round;paint-order:stroke markers fill;filter:url(#textShadow)"
     x="363.59903"
     y="649.9903"
     id="text2">+</text>
  <text
     style="font-weight:500;font-size:494.003px;font-family:Outfit;-inkscape-font-specification:'Outfit Medium';text-align:center;fill:#ecdfb9;stroke:#f2d676;stroke-width:0.993933;stroke-linecap:round;stroke-linejoin:round;paint-order:stroke markers fill;filter:url(#textShadow)"
     x="681.81909"
     y="649.9903"
     id="text1">1</text>
  <g
     id="g52"
     transform="matrix(37.315313,0,0,37.315313,43.720922,705.16954)"
     style="display:inline">
    <g
       filter="url(#filter0_i_18_1422)"
       id="g3">
      <path
         fill-rule="evenodd"
         clip-rule="evenodd"
         d="M 24.5547,6.83447 C 23.655,6.5831 22.7199,7.10489 22.4607,8.00883 22.3288,8.46882 21.849,8.73478 21.389,8.60287 20.929,8.47096 20.6631,7.99113 20.795,7.53115 21.3145,5.71931 23.1919,4.6618 25.0083,5.16197 c 0.0339,0.00844 0.102,0.02552 0.1635,0.04603 2.493,0.83099 2.6914,4.21385 0.4555,5.4501 -1e-4,1e-4 10e-5,0 0,0 l -4.97,2.75 c -0.4187,0.2317 -0.9459,0.0801 -1.1776,-0.3386 -0.2317,-0.4187 -0.0801,-0.946 0.3386,-1.1776 l 4.97,-2.75004 c 0.982,-0.54283 0.823,-1.95554 -0.1588,-2.288 L 24.6233,6.85217 C 24.6123,6.84923 24.5991,6.84591 24.5777,6.84056 24.57,6.83864 24.5623,6.83661 24.5547,6.83447 Z"
         fill="#ffd340"
         id="path1" />
      <path
         fill-rule="evenodd"
         clip-rule="evenodd"
         d="M 24.5547,6.83447 C 23.655,6.5831 22.7199,7.10489 22.4607,8.00883 22.3288,8.46882 21.849,8.73478 21.389,8.60287 20.929,8.47096 20.6631,7.99113 20.795,7.53115 21.3145,5.71931 23.1919,4.6618 25.0083,5.16197 c 0.0339,0.00844 0.102,0.02552 0.1635,0.04603 2.493,0.83099 2.6914,4.21385 0.4555,5.4501 -1e-4,1e-4 10e-5,0 0,0 l -4.97,2.75 c -0.4187,0.2317 -0.9459,0.0801 -1.1776,-0.3386 -0.2317,-0.4187 -0.0801,-0.946 0.3386,-1.1776 l 4.97,-2.75004 c 0.982,-0.54283 0.823,-1.95554 -0.1588,-2.288 L 24.6233,6.85217 C 24.6123,6.84923 24.5991,6.84591 24.5777,6.84056 24.57,6.83864 24.5623,6.83661 24.5547,6.83447 Z"
         fill="url(#paint0_linear_18_1422)"
         id="path2"
         style="fill:url(#paint0_linear_18_1422)" />
      <path
         fill-rule="evenodd"
         clip-rule="evenodd"
         d="M 24.5547,6.83447 C 23.655,6.5831 22.7199,7.10489 22.4607,8.00883 22.3288,8.46882 21.849,8.73478 21.389,8.60287 20.929,8.47096 20.6631,7.99113 20.795,7.53115 21.3145,5.71931 23.1919,4.6618 25.0083,5.16197 c 0.0339,0.00844 0.102,0.02552 0.1635,0.04603 2.493,0.83099 2.6914,4.21385 0.4555,5.4501 -1e-4,1e-4 10e-5,0 0,0 l -4.97,2.75 c -0.4187,0.2317 -0.9459,0.0801 -1.1776,-0.3386 -0.2317,-0.4187 -0.0801,-0.946 0.3386,-1.1776 l 4.97,-2.75004 c 0.982,-0.54283 0.823,-1.95554 -0.1588,-2.288 L 24.6233,6.85217 C 24.6123,6.84923 24.5991,6.84591 24.5777,6.84056 24.57,6.83864 24.5623,6.83661 24.5547,6.83447 Z"
         fill="url(#paint1_radial_18_1422)"
         id="path3"
         style="fill:url(#paint1_radial_18_1422)" />
    </g>
    <g
       filter="url(#filter1_i_18_1422)"
       id="g5">
      <path
         fill-rule="evenodd"
         clip-rule="evenodd"
         d="M 6.30736,5.16197 C 8.12378,4.6618 10.0011,5.71931 10.5207,7.53115 10.6526,7.99113 10.3866,8.47096 9.92665,8.60287 9.46666,8.73478 8.98683,8.46882 8.85492,8.00883 8.59571,7.10489 7.6606,6.5831 6.76097,6.83447 6.75332,6.83661 6.74565,6.83864 6.73795,6.84056 6.71658,6.84591 6.70335,6.84923 6.69234,6.85217 L 6.68619,6.85386 C 5.70431,7.18632 5.54504,8.59886 6.527,9.14169 l 4.9703,2.75021 c 0.4187,0.2316 0.5703,0.7589 0.3387,1.1776 -0.2317,0.4187 -0.759,0.5703 -1.1777,0.3386 L 5.68863,10.6583 c -10e-5,-10e-5 10e-5,0 0,0 C 3.4528,9.42202 3.65082,6.03899 6.14382,5.20799 6.20533,5.18749 6.27342,5.17041 6.30736,5.16197 Z"
         fill="#eaa73a"
         id="path4" />
      <path
         fill-rule="evenodd"
         clip-rule="evenodd"
         d="M 6.30736,5.16197 C 8.12378,4.6618 10.0011,5.71931 10.5207,7.53115 10.6526,7.99113 10.3866,8.47096 9.92665,8.60287 9.46666,8.73478 8.98683,8.46882 8.85492,8.00883 8.59571,7.10489 7.6606,6.5831 6.76097,6.83447 6.75332,6.83661 6.74565,6.83864 6.73795,6.84056 6.71658,6.84591 6.70335,6.84923 6.69234,6.85217 L 6.68619,6.85386 C 5.70431,7.18632 5.54504,8.59886 6.527,9.14169 l 4.9703,2.75021 c 0.4187,0.2316 0.5703,0.7589 0.3387,1.1776 -0.2317,0.4187 -0.759,0.5703 -1.1777,0.3386 L 5.68863,10.6583 c -10e-5,-10e-5 10e-5,0 0,0 C 3.4528,9.42202 3.65082,6.03899 6.14382,5.20799 6.20533,5.18749 6.27342,5.17041 6.30736,5.16197 Z"
         fill="url(#paint2_linear_18_1422)"
         id="path5"
         style="fill:url(#paint2_linear_18_1422)" />
    </g>
    <g
       filter="url(#filter2_i_18_1422)"
       id="g7">
      <path
         d="m 17.3279,17.5199 v -4.22 h -3.3401 v 4.22 c 0,0.74 -0.33,1.45 -0.9,1.92 l -1.92,1.6 h 8.98 l -1.92,-1.6 c -0.57,-0.48 -0.8999,-1.18 -0.8999,-1.92 z"
         fill="url(#paint3_linear_18_1422)"
         id="path6"
         style="fill:url(#paint3_linear_18_1422)" />
      <path
         d="m 17.3279,17.5199 v -4.22 h -3.3401 v 4.22 c 0,0.74 -0.33,1.45 -0.9,1.92 l -1.92,1.6 h 8.98 l -1.92,-1.6 c -0.57,-0.48 -0.8999,-1.18 -0.8999,-1.92 z"
         fill="url(#paint4_radial_18_1422)"
         id="path7"
         style="fill:url(#paint4_radial_18_1422)" />
    </g>
    <path
       d="m 17.3279,17.5199 v -4.22 h -3.3401 v 4.22 c 0,0.74 -0.33,1.45 -0.9,1.92 l -1.92,1.6 h 8.98 l -1.92,-1.6 c -0.57,-0.48 -0.8999,-1.18 -0.8999,-1.92 z"
       fill="url(#paint5_radial_18_1422)"
       id="path8"
       style="fill:url(#paint5_radial_18_1422)" />
    <path
       d="m 15.6579,16.55 c -3.85,0 -6.97003,-3.12 -6.97003,-6.97 V 2.72 c 0,-0.39 0.31999,-0.70999 0.70999,-0.70999 H 21.9279 c 0.39,0 0.71,0.31999 0.71,0.70999 v 6.86 c 0,3.85 -3.12,6.97 -6.98,6.97 z"
       fill="#ea873a"
       id="path9" />
    <path
       d="m 15.6579,16.55 c -3.85,0 -6.97003,-3.12 -6.97003,-6.97 V 2.72 c 0,-0.39 0.31999,-0.70999 0.70999,-0.70999 H 21.9279 c 0.39,0 0.71,0.31999 0.71,0.70999 v 6.86 c 0,3.85 -3.12,6.97 -6.98,6.97 z"
       fill="url(#paint6_radial_18_1422)"
       id="path10"
       style="fill:url(#paint6_radial_18_1422)" />
    <path
       d="m 15.6579,16.55 c -3.85,0 -6.97003,-3.12 -6.97003,-6.97 V 2.72 c 0,-0.39 0.31999,-0.70999 0.70999,-0.70999 H 21.9279 c 0.39,0 0.71,0.31999 0.71,0.70999 v 6.86 c 0,3.85 -3.12,6.97 -6.98,6.97 z"
       fill="url(#paint7_radial_18_1422)"
       id="path11"
       style="fill:url(#paint7_radial_18_1422)" />
    <path
       d="m 15.6579,16.55 c -3.85,0 -6.97003,-3.12 -6.97003,-6.97 V 2.72 c 0,-0.39 0.31999,-0.70999 0.70999,-0.70999 H 21.9279 c 0.39,0 0.71,0.31999 0.71,0.70999 v 6.86 c 0,3.85 -3.12,6.97 -6.98,6.97 z"
       fill="url(#paint8_radial_18_1422)"
       id="path12"
       style="fill:url(#paint8_radial_18_1422)" />
    <g
       filter="url(#filter0_ii_18_1377)"
       id="g19"
       transform="matrix(0.69011991,0,0,0.69011991,4.6731066,-4.9752624)"
       style="display:inline">
      <path
         d="m 16.61,15.66 0.83,1.72 c 0.1,0.2 0.29,0.35 0.51,0.38 l 1.85,0.28 c 0.55,0.08 0.78,0.78 0.37,1.18 l -1.28,1.28 c -0.19,0.19 -0.25,0.47 -0.17,0.73 l 0.59,1.71 c 0.2,0.57 -0.36,1.11 -0.91,0.87 l -2.14,-0.96 c -0.17,-0.08 -0.37,-0.08 -0.54,0 l -2.14,0.96 c -0.54,0.24 -1.11,-0.3 -0.91,-0.87 l 0.59,-1.71 c 0.09,-0.26 0.02,-0.54 -0.17,-0.73 l -1.28,-1.28 c -0.4,-0.4 -0.18,-1.1 0.37,-1.18 l 1.85,-0.28 c 0.22,-0.03 0.41,-0.17 0.51,-0.38 l 0.83,-1.72 c 0.27,-0.52 0.99,-0.52 1.24,0 z"
         fill="url(#paint17_linear_18_1377)"
         id="path18"
         style="fill:url(#paint17_linear_18_1377)" />
      <path
         d="m 16.61,15.66 0.83,1.72 c 0.1,0.2 0.29,0.35 0.51,0.38 l 1.85,0.28 c 0.55,0.08 0.78,0.78 0.37,1.18 l -1.28,1.28 c -0.19,0.19 -0.25,0.47 -0.17,0.73 l 0.59,1.71 c 0.2,0.57 -0.36,1.11 -0.91,0.87 l -2.14,-0.96 c -0.17,-0.08 -0.37,-0.08 -0.54,0 l -2.14,0.96 c -0.54,0.24 -1.11,-0.3 -0.91,-0.87 l 0.59,-1.71 c 0.09,-0.26 0.02,-0.54 -0.17,-0.73 l -1.28,-1.28 c -0.4,-0.4 -0.18,-1.1 0.37,-1.18 l 1.85,-0.28 c 0.22,-0.03 0.41,-0.17 0.51,-0.38 l 0.83,-1.72 c 0.27,-0.52 0.99,-0.52 1.24,0 z"
         fill="url(#paint18_radial_18_1377)"
         id="path19"
         style="fill:url(#paint18_radial_18_1377)" />
    </g>
  </g>
</svg>
