<svg width="291.969" height="406.205" fill="none" viewBox="0 0 1256 1750" xmlns:xlink="http://www.w3.org/1999/xlink" xmlns="http://www.w3.org/2000/svg"><defs><linearGradient id="f" x1="120" x2="1120" y1="100" y2="1650" gradientUnits="userSpaceOnUse"><stop offset="0" stop-color="#f3ebcf"/><stop offset="1" stop-color="#e3d3a3"/></linearGradient><linearGradient id="h" x1="0%" x2="100%" y1="0%" y2="100%"><stop offset="0" stop-color="#ecdfb9"/><stop offset="1" stop-color="#ecdfb9"/></linearGradient><linearGradient id="a" x1="95.385" x2="256.584" y1="295.826" y2="431.573" gradientTransform="scale(1.30125 .7685)" gradientUnits="userSpaceOnUse"><stop offset="0%" stop-color="#ff4a1f"/><stop offset="45%" stop-color="#ff3b0d"/><stop offset="1" stop-color="#ff770e"/></linearGradient><linearGradient id="b" x1="124.686" x2="236.86" y1="345.135" y2="422.055" gradientTransform="scale(1.26678 .7894)" gradientUnits="userSpaceOnUse"><stop offset="0%" stop-color="#ffe98a"/><stop offset="55%" stop-color="#f5d76a"/><stop offset="100%" stop-color="#efc94e"/></linearGradient><linearGradient id="c" x1="90.015" x2="203.04" y1="595.974" y2="719.595" gradientTransform="scale(1.56284 .63986)" gradientUnits="userSpaceOnUse"><stop offset="0%" stop-color="#317dd4"/><stop offset="52%" stop-color="#2789dd"/><stop offset="100%" stop-color="#4db0f2"/></linearGradient><linearGradient id="d" x1="30.506" x2="26.162" y1="27.688" y2="23.344" gradientUnits="userSpaceOnUse"><stop offset=".065" stop-color="#b17161"/><stop offset="1" stop-color="#b17161" stop-opacity="0"/></linearGradient><linearGradient id="e" x1="17.881" x2="21.444" y1="21.406" y2="17.719" gradientUnits="userSpaceOnUse"><stop offset=".058" stop-color="#9a6a62"/><stop offset="1" stop-color="#a7776e" stop-opacity="0"/></linearGradient><linearGradient xlink:href="#a" id="i" x1="95.385" x2="256.584" y1="295.826" y2="431.573" gradientTransform="scale(1.30125 .7685)" gradientUnits="userSpaceOnUse"/><linearGradient xlink:href="#b" id="k" x1="124.686" x2="236.86" y1="345.135" y2="422.055" gradientTransform="scale(1.26678 .7894)" gradientUnits="userSpaceOnUse"/><linearGradient xlink:href="#c" id="l" x1="90.015" x2="203.04" y1="595.974" y2="719.595" gradientTransform="scale(1.56284 .63986)" gradientUnits="userSpaceOnUse"/><linearGradient xlink:href="#d" id="o" x1="30.506" x2="26.162" y1="27.688" y2="23.344" gradientUnits="userSpaceOnUse"/><linearGradient xlink:href="#e" id="p" x1="17.881" x2="21.444" y1="21.406" y2="17.719" gradientUnits="userSpaceOnUse"/><filter id="n" width="21.374" height="21.523" x="8.049" y="8.311" color-interpolation-filters="sRGB" filterUnits="userSpaceOnUse"><feFlood flood-opacity="0" result="BackgroundImageFix"/><feBlend in="SourceGraphic" in2="BackgroundImageFix" result="shape"/><feColorMatrix in="SourceAlpha" result="hardAlpha" values="0 0 0 0 0 0 0 0 0 0 0 0 0 0 0 0 0 0 127 0"/><feOffset dy="-.15"/><feGaussianBlur stdDeviation=".15"/><feComposite in2="hardAlpha" k2="-1" k3="1" operator="arithmetic"/><feColorMatrix values="0 0 0 0 0.698039 0 0 0 0 0.482353 0 0 0 0 0.427451 0 0 0 1 0"/><feBlend in2="shape" result="effect1_innerShadow_18_23767"/></filter><filter id="q" width="7.773" height="7.771" x="1.633" y="10.665" color-interpolation-filters="sRGB" filterUnits="userSpaceOnUse"><feFlood flood-opacity="0" result="BackgroundImageFix"/><feBlend in="SourceGraphic" in2="BackgroundImageFix" result="shape"/><feColorMatrix in="SourceAlpha" result="hardAlpha" values="0 0 0 0 0 0 0 0 0 0 0 0 0 0 0 0 0 0 127 0"/><feOffset dx=".15" dy="-.15"/><feGaussianBlur stdDeviation=".375"/><feComposite in2="hardAlpha" k2="-1" k3="1" operator="arithmetic"/><feColorMatrix values="0 0 0 0 0.552941 0 0 0 0 0.541176 0 0 0 0 0.592157 0 0 0 1 0"/><feBlend in2="shape" result="effect1_innerShadow_18_23767"/></filter><filter id="r" width="12.121" height="13.21" x="4.731" y="2.632" color-interpolation-filters="sRGB" filterUnits="userSpaceOnUse"><feFlood flood-opacity="0" result="BackgroundImageFix"/><feBlend in="SourceGraphic" in2="BackgroundImageFix" result="shape"/><feColorMatrix in="SourceAlpha" result="hardAlpha" values="0 0 0 0 0 0 0 0 0 0 0 0 0 0 0 0 0 0 127 0"/><feOffset dx=".25" dy="-.25"/><feGaussianBlur stdDeviation=".5"/><feComposite in2="hardAlpha" k2="-1" k3="1" operator="arithmetic"/><feColorMatrix values="0 0 0 0 0.537255 0 0 0 0 0.52549 0 0 0 0 0.596078 0 0 0 1 0"/><feBlend in2="shape" result="effect1_innerShadow_18_23767"/></filter><clipPath id="j"><path d="M-20-20h461v381H-20z"/></clipPath><clipPath id="m"><path d="M-20 361h461v318H-20z"/></clipPath><radialGradient id="g" cx=".104" cy=".184" r="1" fx=".104" fy=".184" gradientTransform="rotate(135.622 223.67 630.652)scale(980 899.08107)" gradientUnits="userSpaceOnUse"><stop offset="0" stop-color="#ffb955"/><stop offset="1" stop-color="#f97316"/></radialGradient></defs><g filter="url(#softShadow)"><rect width="1208" height="1630" x="24" y="60" fill="url(#f)" rx="60"/><rect width="1080" height="1502" x="88" y="124" fill="url(#g)" rx="54"/><rect width="974.656" height="1375.523" x="140.672" y="187.239" rx="27.51" stroke="#f2d676" stroke-width="15" stroke-linecap="round" stroke-linejoin="bevel"/><rect width="110.001" height="15" x="138" y="867.5" fill="#f7e4a2" rx="8.25" style="stroke-width:1.04881;fill:#f2d676;fill-opacity:1"/><rect width="110.001" height="15" x="1008" y="867.5" fill="#f7e4a2" rx="8.25" style="stroke-width:1.04881;fill:#f2d676;fill-opacity:1"/></g><g transform="matrix(3.24802 0 0 3.23647 150.83 363.91)"><circle cx="146.911" cy="157.916" r="114.294" fill="url(#h)" filter="url(#softShadow)" style="fill:#ecdfb9;fill-opacity:1"/><circle cx="229" cy="336" r="138" fill="url(#i)" clip-path="url(#j)" transform="translate(-18.743 -85.14)scale(.72338)" style="fill:url(#i)"/><circle cx="229" cy="336" r="101.5" fill="url(#k)" clip-path="url(#j)" transform="translate(-18.743 -85.14)scale(.72338)" style="fill:url(#k)"/><circle cx="229" cy="336" r="138" fill="url(#l)" clip-path="url(#m)" transform="translate(-18.743 -85.14)scale(.72338)" style="fill:url(#l)"/></g><g filter="url(#n)" transform="matrix(-19.1653 2.42767 2.2071 17.2608 908.313 531.64)"><path fill="#bc8979" d="m12.201 8.46 16.362 16.362a2.937 2.937 0 1 1-4.153 4.153L8.05 12.613Z"/><path fill="url(#o)" d="m12.201 8.46 16.362 16.362a2.937 2.937 0 1 1-4.153 4.153L8.05 12.613Z" style="fill:url(#o)"/><path fill="url(#p)" d="m12.201 8.46 16.362 16.362a2.937 2.937 0 1 1-4.153 4.153L8.05 12.613Z" style="fill:url(#p)"/></g><g filter="url(#q)" transform="matrix(-19.1653 2.42767 2.2071 17.2608 908.313 531.64)"><path fill="#cac3da" d="M2.74 11.281c.714-.713 1.571-.508 2.495-.05.176.088.334.207.473.346l2.843 2.843c.1.1.19.21.261.331.568.98.604 1.964.03 2.538l-1.105 1.073a.25.25 0 0 1-.353 0l-5.678-5.677a.25.25 0 0 1 0-.354z"/></g><g filter="url(#r)" transform="matrix(-19.1653 2.42767 2.2071 17.2608 908.313 531.64)"><path fill="#cac3da" d="M13.16 7.167a.5.5 0 0 0 0 .707l2.141 2.14a.4.4 0 0 1 0 .566l-5.145 5.145a.4.4 0 0 1-.566 0l-4.64-4.64a.75.75 0 0 1 0-1.06l6.557-6.557a2 2 0 0 1 1.579-.58l3.148.26a.4.4 0 0 1 .25.68z"/></g></svg>