<svg xmlns="http://www.w3.org/2000/svg" xmlns:xlink="http://www.w3.org/1999/xlink" width="291.97" height="406.2" fill="none" viewBox="0 0 1256 1750"><defs><radialGradient id="v" cx=".1" cy=".18" r="1" fx=".1" fy=".18" gradientTransform="rotate(135.6 223.67 630.65)scale(980 899.081)" gradientUnits="userSpaceOnUse"><stop offset="0" stop-color="#ffb955"/><stop offset="1" stop-color="#f97316"/></radialGradient><radialGradient id="a" cx="0" cy="0" r="1" gradientTransform="matrix(-9.656 0 0 -10.969 28.6 29.4)" gradientUnits="userSpaceOnUse"><stop stop-color="#555f6b"/><stop offset=".36" stop-color="#39424e"/></radialGradient><radialGradient id="b" cx="0" cy="0" r="1" gradientTransform="rotate(105.7 4.85 23.5)scale(2.661 5.544)" gradientUnits="userSpaceOnUse"><stop offset=".19" stop-color="#646d78"/><stop offset="1" stop-color="#646d78" stop-opacity="0"/></radialGradient><radialGradient id="c" cx="0" cy="0" r="1" gradientTransform="rotate(69.3 -5.7 26.12)scale(2.74 5.197)" gradientUnits="userSpaceOnUse"><stop stop-color="#232a33"/><stop offset="1" stop-color="#232a33" stop-opacity="0"/></radialGradient><radialGradient id="d" cx="0" cy="0" r="1" gradientTransform="rotate(90 .41 16.82)scale(1.7)" gradientUnits="userSpaceOnUse"><stop offset=".52" stop-color="#424b56"/><stop offset="1" stop-color="#363f4a"/></radialGradient><radialGradient id="e" cx="0" cy="0" r="1" gradientTransform="rotate(111.5 8.73 17.1)scale(3.08)" gradientUnits="userSpaceOnUse"><stop offset=".26" stop-color="#727a85"/><stop offset="1" stop-color="#3a4450"/></radialGradient><radialGradient id="f" cx="0" cy="0" r="1" gradientTransform="rotate(90 5.15 21.56)scale(1.214)" gradientUnits="userSpaceOnUse"><stop stop-color="#5d6671"/><stop offset="1" stop-color="#353f4b"/></radialGradient><radialGradient id="g" cx="0" cy="0" r="1" gradientTransform="rotate(108.8 9.27 14.33)scale(13.39 10.647)" gradientUnits="userSpaceOnUse"><stop offset=".1" stop-color="#69737f"/><stop offset="1" stop-color="#29323c"/></radialGradient><radialGradient id="h" cx="0" cy="0" r="1" gradientTransform="matrix(-9.656 0 0 -10.969 15.72 29.4)" gradientUnits="userSpaceOnUse"><stop stop-color="#555f6b"/><stop offset=".36" stop-color="#39424e"/></radialGradient><radialGradient id="i" cx="0" cy="0" r="1" gradientTransform="matrix(-.72 2.562 -5.337 -1.5 15.9 25.2)" gradientUnits="userSpaceOnUse"><stop offset=".19" stop-color="#646d78"/><stop offset="1" stop-color="#646d78" stop-opacity="0"/></radialGradient><radialGradient id="j" cx="0" cy="0" r="1" gradientTransform="rotate(69.3 -12.13 16.8)scale(2.74 5.197)" gradientUnits="userSpaceOnUse"><stop stop-color="#232a33"/><stop offset="1" stop-color="#232a33" stop-opacity="0"/></radialGradient><radialGradient id="k" cx="0" cy="0" r="1" gradientTransform="matrix(0 1.7 -1.7 0 4.35 16.4)" gradientUnits="userSpaceOnUse"><stop offset=".52" stop-color="#424b56"/><stop offset="1" stop-color="#363f4a"/></radialGradient><radialGradient id="l" cx="0" cy="0" r="1" gradientTransform="rotate(111.5 2.3 12.71)scale(3.08)" gradientUnits="userSpaceOnUse"><stop offset=".26" stop-color="#727a85"/><stop offset="1" stop-color="#3a4450"/></radialGradient><radialGradient id="m" cx="0" cy="0" r="1" gradientTransform="rotate(90 -1.29 15.12)scale(1.214)" gradientUnits="userSpaceOnUse"><stop stop-color="#5d6671"/><stop offset="1" stop-color="#353f4b"/></radialGradient><radialGradient id="n" cx="0" cy="0" r="1" gradientTransform="rotate(108.8 2.83 9.73)scale(13.39 10.647)" gradientUnits="userSpaceOnUse"><stop offset=".1" stop-color="#69737f"/><stop offset="1" stop-color="#29323c"/></radialGradient><radialGradient xlink:href="#a" id="R" cx="0" cy="0" r="1" gradientTransform="matrix(-9.656 0 0 -10.969 28.6 29.4)" gradientUnits="userSpaceOnUse"/><radialGradient xlink:href="#b" id="S" cx="0" cy="0" r="1" gradientTransform="rotate(105.7 4.85 23.5)scale(2.661 5.544)" gradientUnits="userSpaceOnUse"/><radialGradient xlink:href="#c" id="T" cx="0" cy="0" r="1" gradientTransform="rotate(69.3 -5.7 26.12)scale(2.74 5.197)" gradientUnits="userSpaceOnUse"/><radialGradient xlink:href="#d" id="U" cx="0" cy="0" r="1" gradientTransform="rotate(90 .41 16.82)scale(1.7)" gradientUnits="userSpaceOnUse"/><radialGradient xlink:href="#e" id="V" cx="0" cy="0" r="1" gradientTransform="rotate(111.5 8.73 17.1)scale(3.08)" gradientUnits="userSpaceOnUse"/><radialGradient xlink:href="#f" id="W" cx="0" cy="0" r="1" gradientTransform="rotate(90 5.15 21.56)scale(1.214)" gradientUnits="userSpaceOnUse"/><radialGradient xlink:href="#g" id="X" cx="0" cy="0" r="1" gradientTransform="rotate(108.8 9.27 14.33)scale(13.39 10.647)" gradientUnits="userSpaceOnUse"/><radialGradient xlink:href="#h" id="Z" cx="0" cy="0" r="1" gradientTransform="matrix(-9.656 0 0 -10.969 15.72 29.4)" gradientUnits="userSpaceOnUse"/><radialGradient xlink:href="#i" id="aa" cx="0" cy="0" r="1" gradientTransform="matrix(-.72 2.562 -5.337 -1.5 15.9 25.2)" gradientUnits="userSpaceOnUse"/><radialGradient xlink:href="#j" id="ab" cx="0" cy="0" r="1" gradientTransform="rotate(69.3 -12.13 16.8)scale(2.74 5.197)" gradientUnits="userSpaceOnUse"/><radialGradient xlink:href="#k" id="ac" cx="0" cy="0" r="1" gradientTransform="matrix(0 1.7 -1.7 0 4.35 16.4)" gradientUnits="userSpaceOnUse"/><radialGradient xlink:href="#l" id="ad" cx="0" cy="0" r="1" gradientTransform="rotate(111.5 2.3 12.71)scale(3.08)" gradientUnits="userSpaceOnUse"/><radialGradient xlink:href="#m" id="ae" cx="0" cy="0" r="1" gradientTransform="rotate(90 -1.29 15.12)scale(1.214)" gradientUnits="userSpaceOnUse"/><radialGradient xlink:href="#n" id="af" cx="0" cy="0" r="1" gradientTransform="rotate(108.8 2.83 9.73)scale(13.39 10.647)" gradientUnits="userSpaceOnUse"/><radialGradient xlink:href="#a" id="w" cx="0" cy="0" r="1" gradientTransform="matrix(-9.656 0 0 -10.969 28.6 29.4)" gradientUnits="userSpaceOnUse"/><radialGradient xlink:href="#b" id="x" cx="0" cy="0" r="1" gradientTransform="rotate(105.7 4.85 23.5)scale(2.661 5.544)" gradientUnits="userSpaceOnUse"/><radialGradient xlink:href="#c" id="y" cx="0" cy="0" r="1" gradientTransform="rotate(69.3 -5.7 26.12)scale(2.74 5.197)" gradientUnits="userSpaceOnUse"/><radialGradient xlink:href="#d" id="B" cx="0" cy="0" r="1" gradientTransform="rotate(90 .41 16.82)scale(1.7)" gradientUnits="userSpaceOnUse"/><radialGradient xlink:href="#e" id="D" cx="0" cy="0" r="1" gradientTransform="rotate(111.5 8.73 17.1)scale(3.08)" gradientUnits="userSpaceOnUse"/><radialGradient xlink:href="#f" id="F" cx="0" cy="0" r="1" gradientTransform="rotate(90 5.15 21.56)scale(1.214)" gradientUnits="userSpaceOnUse"/><radialGradient xlink:href="#g" id="H" cx="0" cy="0" r="1" gradientTransform="rotate(108.8 9.27 14.33)scale(13.39 10.647)" gradientUnits="userSpaceOnUse"/><radialGradient xlink:href="#h" id="I" cx="0" cy="0" r="1" gradientTransform="matrix(-9.656 0 0 -10.969 15.72 29.4)" gradientUnits="userSpaceOnUse"/><radialGradient xlink:href="#i" id="J" cx="0" cy="0" r="1" gradientTransform="matrix(-.72 2.562 -5.337 -1.5 15.9 25.2)" gradientUnits="userSpaceOnUse"/><radialGradient xlink:href="#j" id="K" cx="0" cy="0" r="1" gradientTransform="rotate(69.3 -12.13 16.8)scale(2.74 5.197)" gradientUnits="userSpaceOnUse"/><radialGradient xlink:href="#k" id="L" cx="0" cy="0" r="1" gradientTransform="matrix(0 1.7 -1.7 0 4.35 16.4)" gradientUnits="userSpaceOnUse"/><radialGradient xlink:href="#l" id="M" cx="0" cy="0" r="1" gradientTransform="rotate(111.5 2.3 12.71)scale(3.08)" gradientUnits="userSpaceOnUse"/><radialGradient xlink:href="#m" id="O" cx="0" cy="0" r="1" gradientTransform="rotate(90 -1.29 15.12)scale(1.214)" gradientUnits="userSpaceOnUse"/><radialGradient xlink:href="#n" id="Q" cx="0" cy="0" r="1" gradientTransform="rotate(108.8 2.83 9.73)scale(13.39 10.647)" gradientUnits="userSpaceOnUse"/><radialGradient xlink:href="#o" id="aw" cx=".1" cy=".18" r="1" fx=".1" fy=".18" gradientTransform="rotate(135.6 223.67 630.65)scale(980 899.081)" gradientUnits="userSpaceOnUse"/><radialGradient id="o" cx=".1" cy=".18" r="1" fx=".1" fy=".18" gradientTransform="rotate(135.6 223.67 630.65)scale(980 899.081)" gradientUnits="userSpaceOnUse"><stop offset="0" stop-color="#4db1e4" style="stop-color:#74c6e9"/><stop offset="1" stop-color="#2758a8" style="stop-color:#2f6ecc"/></radialGradient><radialGradient xlink:href="#o" id="ar" cx=".1" cy=".18" r="1" fx=".1" fy=".18" gradientTransform="rotate(135.6 223.67 630.65)scale(980 899.081)" gradientUnits="userSpaceOnUse"/><radialGradient xlink:href="#o" id="al" cx=".1" cy=".18" r="1" fx=".1" fy=".18" gradientTransform="rotate(135.6 223.67 630.65)scale(980 899.081)" gradientUnits="userSpaceOnUse"/><linearGradient id="q" x1="16" x2="16" y1="3" y2="17" gradientUnits="userSpaceOnUse"><stop offset="0" stop-color="#f7ebc2"/><stop offset=".32" stop-color="#f7ebc2" style="stop-color:#efdca5;stop-opacity:1"/><stop offset=".43" stop-color="#f7ebc2" style="stop-color:#e7ce88;stop-opacity:1"/><stop offset="1" stop-color="#d8b14e"/></linearGradient><linearGradient id="p" x1="120" x2="1120" y1="100" y2="1650" gradientUnits="userSpaceOnUse"><stop offset="0" stop-color="#f3ebcf"/><stop offset="1" stop-color="#e3d3a3"/></linearGradient><linearGradient xlink:href="#p" id="u" x1="120" x2="1120" y1="100" y2="1650" gradientUnits="userSpaceOnUse"/><linearGradient xlink:href="#q" id="ag" x1="15.96" x2="15.83" y1="17.14" y2="2.99" gradientUnits="userSpaceOnUse"/><linearGradient xlink:href="#r" id="aE" x1="288" x2="982" y1="431" y2="1169" gradientUnits="userSpaceOnUse"/><linearGradient id="r" x1="288" x2="982" y1="431" y2="1169" gradientUnits="userSpaceOnUse"><stop offset="0" stop-color="#ebd9a8" style="stop-color:#f3e8cc"/><stop offset="1" stop-color="#d9c68c" style="stop-color:#e3d6ae"/></linearGradient><linearGradient xlink:href="#t" id="av" x1="120" x2="1120" y1="100" y2="1650" gradientUnits="userSpaceOnUse"/><linearGradient id="t" x1="120" x2="1120" y1="100" y2="1650" gradientUnits="userSpaceOnUse"><stop offset="0" stop-color="#e9d8a7" style="stop-color:#f1e6cc"/><stop offset="1" stop-color="#d7bc7c" style="stop-color:#e1cc9e"/></linearGradient><linearGradient xlink:href="#r" id="as" x1="288" x2="982" y1="431" y2="1169" gradientUnits="userSpaceOnUse"/><linearGradient xlink:href="#t" id="ap" x1="120" x2="1120" y1="100" y2="1650" gradientUnits="userSpaceOnUse"/><linearGradient xlink:href="#r" id="ao" x1="288" x2="982" y1="431" y2="1169" gradientUnits="userSpaceOnUse"/><linearGradient xlink:href="#t" id="ak" x1="120" x2="1120" y1="100" y2="1650" gradientUnits="userSpaceOnUse"/><linearGradient xlink:href="#q" id="ah" x1="15.96" x2="15.83" y1="17.14" y2="2.99" gradientUnits="userSpaceOnUse"/><linearGradient xlink:href="#q" id="aj" x1="15.96" x2="15.83" y1="17.14" y2="2.99" gradientUnits="userSpaceOnUse"/><filter id="E" width="2.93" height="2.93" x="25.25" y="14.94" color-interpolation-filters="sRGB" filterUnits="userSpaceOnUse"><feFlood flood-opacity="0" result="BackgroundImageFix"/><feBlend in="SourceGraphic" in2="BackgroundImageFix" result="shape"/><feGaussianBlur result="effect1_foregroundBlur_5559_20883" stdDeviation=".13"/></filter><filter id="G" width="2.93" height="2.93" x="15.9" y="14.94" color-interpolation-filters="sRGB" filterUnits="userSpaceOnUse"><feFlood flood-opacity="0" result="BackgroundImageFix"/><feBlend in="SourceGraphic" in2="BackgroundImageFix" result="shape"/><feGaussianBlur result="effect1_foregroundBlur_5559_20883" stdDeviation=".13"/></filter><filter id="N" width="2.93" height="2.93" x="12.37" y="14.94" color-interpolation-filters="sRGB" filterUnits="userSpaceOnUse"><feFlood flood-opacity="0" result="BackgroundImageFix"/><feBlend in="SourceGraphic" in2="BackgroundImageFix" result="shape"/><feGaussianBlur result="effect1_foregroundBlur_5559_20883" stdDeviation=".13"/></filter><filter id="P" width="2.93" height="2.93" x="3.03" y="14.94" color-interpolation-filters="sRGB" filterUnits="userSpaceOnUse"><feFlood flood-opacity="0" result="BackgroundImageFix"/><feBlend in="SourceGraphic" in2="BackgroundImageFix" result="shape"/><feGaussianBlur result="effect1_foregroundBlur_5559_20883" stdDeviation=".13"/></filter><path id="am" fill="#ecbf47" d="m628 412 344 198c16 9 26 26 26 44v384c0 18-10 35-26 44l-316 182c-17 10-39 10-56 0l-316-182c-16-9-26-26-26-44V654c0-18 10-35 26-44l316-182c17-10 39-10 56 0z"/><path id="an" fill="#3389d2" d="m628 454 321 185c12 7 19 20 19 34v346c0 14-7 27-19 34l-298 172c-14 8-32 8-46 0l-298-172c-12-7-19-20-19-34V673c0-14 7-27 19-34l298-172c14-8 32-8 46 0z"/></defs><rect width="1208" height="1630" x="24" y="60" fill="url(#u)" rx="60" style="fill:url(#u)"/><rect width="1080" height="1502" x="88" y="124" fill="url(#v)" rx="54" style="fill:url(#v)"/><rect width="974.66" height="1375.52" x="140.67" y="187.24" stroke="#f2d676" stroke-linecap="round" stroke-linejoin="bevel" stroke-width="15" rx="27.51"/><g transform="translate(207.54 115.7)scale(19.123)"><path fill="url(#w)" d="M15.9 30.34q-.74 0-1.24-.12a.24.24 0 0 1-.17-.24V27.2c0-.9.02-2.42 1.73-3.37a12 12 0 0 1 5.69-1.37h.12c2.44.02 4.3.6 5.69 1.37 1.7.95 1.72 2.47 1.73 3.37v2.78a.24.24 0 0 1-.17.24q-.52.13-1.23.12z" style="fill:url(#w)"/><path fill="url(#x)" d="M15.9 30.34q-.74 0-1.24-.12a.24.24 0 0 1-.17-.24V27.2c0-.9.02-2.42 1.73-3.37a12 12 0 0 1 5.69-1.37h.12c2.44.02 4.3.6 5.69 1.37 1.7.95 1.72 2.47 1.73 3.37v2.78a.24.24 0 0 1-.17.24q-.52.13-1.23.12z" style="fill:url(#x)"/><path fill="url(#y)" d="M15.9 30.34q-.74 0-1.24-.12a.24.24 0 0 1-.17-.24V27.2c0-.9.02-2.42 1.73-3.37a12 12 0 0 1 5.69-1.37h.12c2.44.02 4.3.6 5.69 1.37 1.7.95 1.72 2.47 1.73 3.37v2.78a.24.24 0 0 1-.17.24q-.52.13-1.23.12z" style="fill:url(#y)"/><circle cx="17.23" cy="16.41" r="1.7" fill="url(#B)" style="fill:url(#B)"/><circle cx="26.71" cy="16.41" r="1.7" fill="url(#D)" style="fill:url(#D)"/><g filter="url(#E)"><circle cx="26.71" cy="16.41" r="1.21" fill="url(#F)" style="fill:url(#F)"/></g><g filter="url(#G)"><circle cx="17.37" cy="16.41" r="1.21" fill="#140f1a"/></g><path fill="url(#H)" d="M17.01 19.23 16.72 13c-.14-2.24 1.36-4.23 4.34-4.13h1.88c3.16 0 4.41 1.99 4.27 4.22l-.28 6.13c-.13 2.05-1.88 3.58-4.01 3.65H21.1a4 4 0 0 1-4.1-3.64" style="fill:url(#H)"/><path fill="url(#I)" d="M3.01 30.34c-.43 0-.88-.03-1.23-.12a.24.24 0 0 1-.17-.24V27.2c0-.9.02-2.42 1.73-3.37a12 12 0 0 1 5.69-1.37h.12c2.44.02 4.3.6 5.7 1.37 1.7.95 1.72 2.47 1.73 3.37v2.78a.24.24 0 0 1-.18.24c-.35.09-.8.12-1.23.12z" style="fill:url(#I)"/><path fill="url(#J)" d="M3.01 30.34c-.43 0-.88-.03-1.23-.12a.24.24 0 0 1-.17-.24V27.2c0-.9.02-2.42 1.73-3.37a12 12 0 0 1 5.69-1.37h.12c2.44.02 4.3.6 5.7 1.37 1.7.95 1.72 2.47 1.73 3.37v2.78a.24.24 0 0 1-.18.24c-.35.09-.8.12-1.23.12z" style="fill:url(#J)"/><path fill="url(#K)" d="M3.01 30.34c-.43 0-.88-.03-1.23-.12a.24.24 0 0 1-.17-.24V27.2c0-.9.02-2.42 1.73-3.37a12 12 0 0 1 5.69-1.37h.12c2.44.02 4.3.6 5.7 1.37 1.7.95 1.72 2.47 1.73 3.37v2.78a.24.24 0 0 1-.18.24c-.35.09-.8.12-1.23.12z" style="fill:url(#K)"/><circle cx="4.35" cy="16.41" r="1.7" fill="url(#L)" style="fill:url(#L)"/><circle cx="13.83" cy="16.41" r="1.7" fill="url(#M)" style="fill:url(#M)"/><g filter="url(#N)"><circle cx="13.83" cy="16.41" r="1.21" fill="url(#O)" style="fill:url(#O)"/></g><g filter="url(#P)"><circle cx="4.49" cy="16.41" r="1.21" fill="#140f1a"/></g><path fill="url(#Q)" d="M4.13 19.23 3.85 13C3.7 10.77 5.2 8.77 8.18 8.88h1.88c3.16 0 4.41 1.99 4.27 4.22l-.28 6.13c-.13 2.05-1.88 3.58-4.01 3.65H8.23a4 4 0 0 1-4.1-3.64" style="fill:url(#Q)"/></g><g transform="translate(454.49 115.7)scale(19.123)"><path fill="url(#R)" d="M15.9 30.34q-.74 0-1.24-.12a.24.24 0 0 1-.17-.24V27.2c0-.9.02-2.42 1.73-3.37a12 12 0 0 1 5.69-1.37h.12c2.44.02 4.3.6 5.69 1.37 1.7.95 1.72 2.47 1.73 3.37v2.78a.24.24 0 0 1-.17.24q-.52.13-1.23.12z" style="fill:url(#R)"/><path fill="url(#S)" d="M15.9 30.34q-.74 0-1.24-.12a.24.24 0 0 1-.17-.24V27.2c0-.9.02-2.42 1.73-3.37a12 12 0 0 1 5.69-1.37h.12c2.44.02 4.3.6 5.69 1.37 1.7.95 1.72 2.47 1.73 3.37v2.78a.24.24 0 0 1-.17.24q-.52.13-1.23.12z" style="fill:url(#S)"/><path fill="url(#T)" d="M15.9 30.34q-.74 0-1.24-.12a.24.24 0 0 1-.17-.24V27.2c0-.9.02-2.42 1.73-3.37a12 12 0 0 1 5.69-1.37h.12c2.44.02 4.3.6 5.69 1.37 1.7.95 1.72 2.47 1.73 3.37v2.78a.24.24 0 0 1-.17.24q-.52.13-1.23.12z" style="fill:url(#T)"/><circle cx="17.23" cy="16.41" r="1.7" fill="url(#U)" style="display:inline;fill:url(#U)"/><circle cx="26.71" cy="16.41" r="1.7" fill="url(#V)" style="display:inline;fill:url(#V)"/><g filter="url(#E)"><circle cx="26.71" cy="16.41" r="1.21" fill="url(#W)" style="fill:url(#W)"/></g><g filter="url(#G)"><circle cx="17.37" cy="16.41" r="1.21" fill="#140f1a"/></g><path fill="url(#X)" d="M17.01 19.23 16.72 13c-.14-2.24 1.36-4.23 4.34-4.13h1.88c3.16 0 4.41 1.99 4.27 4.22l-.28 6.13c-.13 2.05-1.88 3.58-4.01 3.65H21.1a4 4 0 0 1-4.1-3.64" style="display:inline;fill:url(#X)"/><path fill="url(#Z)" d="M3.01 30.34c-.43 0-.88-.03-1.23-.12a.24.24 0 0 1-.17-.24V27.2c0-.9.02-2.42 1.73-3.37a12 12 0 0 1 5.69-1.37h.12c2.44.02 4.3.6 5.7 1.37 1.7.95 1.72 2.47 1.73 3.37v2.78a.24.24 0 0 1-.18.24c-.35.09-.8.12-1.23.12z" style="fill:url(#Z)"/><path fill="url(#aa)" d="M3.01 30.34c-.43 0-.88-.03-1.23-.12a.24.24 0 0 1-.17-.24V27.2c0-.9.02-2.42 1.73-3.37a12 12 0 0 1 5.69-1.37h.12c2.44.02 4.3.6 5.7 1.37 1.7.95 1.72 2.47 1.73 3.37v2.78a.24.24 0 0 1-.18.24c-.35.09-.8.12-1.23.12z" style="fill:url(#aa)"/><path fill="url(#ab)" d="M3.01 30.34c-.43 0-.88-.03-1.23-.12a.24.24 0 0 1-.17-.24V27.2c0-.9.02-2.42 1.73-3.37a12 12 0 0 1 5.69-1.37h.12c2.44.02 4.3.6 5.7 1.37 1.7.95 1.72 2.47 1.73 3.37v2.78a.24.24 0 0 1-.18.24c-.35.09-.8.12-1.23.12z" style="fill:url(#ab)"/><circle cx="4.35" cy="16.41" r="1.7" fill="url(#ac)" style="fill:url(#ac)"/><circle cx="13.83" cy="16.41" r="1.7" fill="url(#ad)" style="fill:url(#ad)"/><g filter="url(#N)"><circle cx="13.83" cy="16.41" r="1.21" fill="url(#ae)" style="fill:url(#ae)"/></g><g filter="url(#P)"><circle cx="4.49" cy="16.41" r="1.21" fill="#140f1a"/></g><path fill="url(#af)" d="M4.13 19.23 3.85 13C3.7 10.77 5.2 8.77 8.18 8.88h1.88c3.16 0 4.41 1.99 4.27 4.22l-.28 6.13c-.13 2.05-1.88 3.58-4.01 3.65H8.23a4 4 0 0 1-4.1-3.64" style="display:inline;fill:url(#af)"/></g><g stroke="#c7902f" stroke-width=".7" paint-order="stroke fill"><path fill="url(#ag)" d="M13.87 3a.65.65 0 0 0-.65.65v7.3h-1.25a.75.75 0 0 0-.56 1.24l4.04 4.55a.75.75 0 0 0 1.12 0l4.02-4.55a.75.75 0 0 0-.56-1.25h-1.28V3.65A.65.65 0 0 0 18.1 3Z" style="fill:url(#ah)" transform="translate(149.75 732.42)scale(14.266)"/><path fill="url(#aF)" d="M13.87 3a.65.65 0 0 0-.65.65v7.3h-1.25a.75.75 0 0 0-.56 1.24l4.04 4.55a.75.75 0 0 0 1.12 0l4.02-4.55a.75.75 0 0 0-.56-1.25h-1.28V3.65A.65.65 0 0 0 18.1 3Z" style="fill:url(#aj);stroke:#c7902f;stroke-width:.7;paint-order:stroke fill" transform="translate(399.62 732.42)scale(14.266)"/><path fill="url(#aG)" d="M13.87 3a.65.65 0 0 0-.65.65v7.3h-1.25a.75.75 0 0 0-.56 1.24l4.04 4.55a.75.75 0 0 0 1.12 0l4.02-4.55a.75.75 0 0 0-.56-1.25h-1.28V3.65A.65.65 0 0 0 18.1 3Z" style="fill:url(#ag);stroke:#c7902f;stroke-width:.7;paint-order:stroke fill" transform="translate(649.48 732.42)scale(14.266)"/></g><g transform="rotate(-30 2213.43 288.38)scale(.214)"><rect width="1208" height="1630" x="24" y="60" fill="url(#at)" rx="60" style="fill:url(#ak)"/><rect width="1080" height="1502" x="88" y="124" fill="url(#au)" rx="54" style="fill:url(#al)"/><rect width="974.66" height="1375.52" x="140.67" y="187.24" stroke="#ecbf47" stroke-linecap="round" stroke-linejoin="bevel" stroke-width="15" rx="27.51" style="stroke:#f0ca6f"/><rect width="110" height="15" x="138" y="867.5" fill="#eabb3d" rx="7.5" style="fill:#eec265"/><rect width="110" height="15" x="1008" y="867.5" fill="#eabb3d" rx="7.5" style="fill:#eec265"/></g><g transform="rotate(-30 2226.7 284.84)scale(.214)"><use xlink:href="#am"/><use xlink:href="#an"/><path fill="url(#ax)" d="m628 484 298 172c12 7 20 20 20 34v312c0 14-8 27-20 34l-275 159c-14 8-32 8-46 0l-275-159c-12-7-20-20-20-34V690c0-14 8-27 20-34l275-159c14-8 32-8 46 0z" style="fill:url(#ao)"/></g><g transform="rotate(210 654.75 613.47)scale(.216)"><rect width="1208" height="1630" x="24" y="60" fill="url(#ay)" rx="60" style="fill:url(#ap)"/><rect width="1080" height="1502" x="88" y="124" fill="url(#az)" rx="54" style="fill:url(#ar)"/><rect width="974.66" height="1375.52" x="140.67" y="187.24" stroke="#ecbf47" stroke-linecap="round" stroke-linejoin="bevel" stroke-width="15" rx="27.51" style="stroke:#f0ca6f"/><rect width="110" height="15" x="138" y="867.5" fill="#eabb3d" rx="7.5" style="fill:#eec265"/><rect width="110" height="15" x="1008" y="867.5" fill="#eabb3d" rx="7.5" style="fill:#eec265"/></g><g transform="rotate(210 655.7 609.9)scale(.216)"><use xlink:href="#am"/><use xlink:href="#an"/><path fill="url(#aA)" d="m628 484 298 172c12 7 20 20 20 34v312c0 14-8 27-20 34l-275 159c-14 8-32 8-46 0l-275-159c-12-7-20-20-20-34V690c0-14 8-27 20-34l275-159c14-8 32-8 46 0z" style="fill:url(#as)"/></g><g transform="translate(491.86 1098.51)scale(.218)"><rect width="1208" height="1630" x="24" y="60" fill="url(#aB)" rx="60" style="fill:url(#av)"/><rect width="1080" height="1502" x="88" y="124" fill="url(#aC)" rx="54" style="fill:url(#aw)"/><rect width="974.66" height="1375.52" x="140.67" y="187.24" stroke="#ecbf47" stroke-linecap="round" stroke-linejoin="bevel" stroke-width="15" rx="27.51" style="stroke:#f0ca6f"/><rect width="110" height="15" x="138" y="867.5" fill="#eabb3d" rx="7.5" style="fill:#eec265"/><rect width="110" height="15" x="1008" y="867.5" fill="#eabb3d" rx="7.5" style="fill:#eec265"/></g><g transform="translate(491.86 1105.78)scale(.218)"><use xlink:href="#am"/><use xlink:href="#an"/><path fill="url(#aD)" d="m628 484 298 172c12 7 20 20 20 34v312c0 14-8 27-20 34l-275 159c-14 8-32 8-46 0l-275-159c-12-7-20-20-20-34V690c0-14 8-27 20-34l275-159c14-8 32-8 46 0z" style="fill:url(#aE)"/></g></svg>