<svg width="291.97" height="406.2" fill="none" viewBox="0 0 1256 1750" xmlns:xlink="http://www.w3.org/1999/xlink" xmlns="http://www.w3.org/2000/svg"><defs><radialGradient id="y" cx=".1" cy=".18" r="1" fx=".1" fy=".18" gradientTransform="rotate(135.6 223.67 630.65)scale(980 899.081)" gradientUnits="userSpaceOnUse"><stop offset="0" stop-color="#ffb955"/><stop offset="1" stop-color="#f97316"/></radialGradient><radialGradient id="a" cx="0" cy="0" r="1" gradientTransform="matrix(-9.656 0 0 -10.969 28.6 29.4)" gradientUnits="userSpaceOnUse"><stop stop-color="#555f6b"/><stop offset=".36" stop-color="#39424e"/></radialGradient><radialGradient id="b" cx="0" cy="0" r="1" gradientTransform="rotate(105.7 4.85 23.5)scale(2.661 5.544)" gradientUnits="userSpaceOnUse"><stop offset=".19" stop-color="#646d78"/><stop offset="1" stop-color="#646d78" stop-opacity="0"/></radialGradient><radialGradient id="c" cx="0" cy="0" r="1" gradientTransform="rotate(69.3 -5.7 26.12)scale(2.74 5.197)" gradientUnits="userSpaceOnUse"><stop stop-color="#232a33"/><stop offset="1" stop-color="#232a33" stop-opacity="0"/></radialGradient><radialGradient id="d" cx="0" cy="0" r="1" gradientTransform="rotate(90 .41 16.82)scale(1.7)" gradientUnits="userSpaceOnUse"><stop offset=".52" stop-color="#424b56"/><stop offset="1" stop-color="#363f4a"/></radialGradient><radialGradient id="e" cx="0" cy="0" r="1" gradientTransform="rotate(111.5 8.73 17.1)scale(3.08)" gradientUnits="userSpaceOnUse"><stop offset=".26" stop-color="#727a85"/><stop offset="1" stop-color="#3a4450"/></radialGradient><radialGradient id="f" cx="0" cy="0" r="1" gradientTransform="rotate(90 5.15 21.56)scale(1.214)" gradientUnits="userSpaceOnUse"><stop stop-color="#5d6671"/><stop offset="1" stop-color="#353f4b"/></radialGradient><radialGradient id="g" cx="0" cy="0" r="1" gradientTransform="rotate(108.8 9.27 14.33)scale(13.39 10.647)" gradientUnits="userSpaceOnUse"><stop offset=".1" stop-color="#69737f"/><stop offset="1" stop-color="#29323c"/></radialGradient><radialGradient id="h" cx="0" cy="0" r="1" gradientTransform="matrix(-9.656 0 0 -10.969 15.72 29.4)" gradientUnits="userSpaceOnUse"><stop stop-color="#555f6b"/><stop offset=".36" stop-color="#39424e"/></radialGradient><radialGradient id="i" cx="0" cy="0" r="1" gradientTransform="matrix(-.72 2.562 -5.337 -1.5 15.9 25.2)" gradientUnits="userSpaceOnUse"><stop offset=".19" stop-color="#646d78"/><stop offset="1" stop-color="#646d78" stop-opacity="0"/></radialGradient><radialGradient id="j" cx="0" cy="0" r="1" gradientTransform="rotate(69.3 -12.13 16.8)scale(2.74 5.197)" gradientUnits="userSpaceOnUse"><stop stop-color="#232a33"/><stop offset="1" stop-color="#232a33" stop-opacity="0"/></radialGradient><radialGradient id="k" cx="0" cy="0" r="1" gradientTransform="matrix(0 1.7 -1.7 0 4.35 16.4)" gradientUnits="userSpaceOnUse"><stop offset=".52" stop-color="#424b56"/><stop offset="1" stop-color="#363f4a"/></radialGradient><radialGradient id="l" cx="0" cy="0" r="1" gradientTransform="rotate(111.5 2.3 12.71)scale(3.08)" gradientUnits="userSpaceOnUse"><stop offset=".26" stop-color="#727a85"/><stop offset="1" stop-color="#3a4450"/></radialGradient><radialGradient id="m" cx="0" cy="0" r="1" gradientTransform="rotate(90 -1.29 15.12)scale(1.214)" gradientUnits="userSpaceOnUse"><stop stop-color="#5d6671"/><stop offset="1" stop-color="#353f4b"/></radialGradient><radialGradient id="o" cx="0" cy="0" r="1" gradientTransform="rotate(108.8 2.83 9.73)scale(13.39 10.647)" gradientUnits="userSpaceOnUse"><stop offset=".1" stop-color="#69737f"/><stop offset="1" stop-color="#29323c"/></radialGradient><radialGradient xlink:href="#a" id="ac" cx="0" cy="0" r="1" gradientTransform="matrix(-9.656 0 0 -10.969 28.6 29.4)" gradientUnits="userSpaceOnUse"/><radialGradient xlink:href="#b" id="ad" cx="0" cy="0" r="1" gradientTransform="rotate(105.7 4.85 23.5)scale(2.661 5.544)" gradientUnits="userSpaceOnUse"/><radialGradient xlink:href="#c" id="ae" cx="0" cy="0" r="1" gradientTransform="rotate(69.3 -5.7 26.12)scale(2.74 5.197)" gradientUnits="userSpaceOnUse"/><radialGradient xlink:href="#d" id="ag" cx="0" cy="0" r="1" gradientTransform="rotate(90 .41 16.82)scale(1.7)" gradientUnits="userSpaceOnUse"/><radialGradient xlink:href="#e" id="ah" cx="0" cy="0" r="1" gradientTransform="rotate(111.5 8.73 17.1)scale(3.08)" gradientUnits="userSpaceOnUse"/><radialGradient xlink:href="#f" id="ai" cx="0" cy="0" r="1" gradientTransform="rotate(90 5.15 21.56)scale(1.214)" gradientUnits="userSpaceOnUse"/><radialGradient xlink:href="#g" id="aj" cx="0" cy="0" r="1" gradientTransform="rotate(108.8 9.27 14.33)scale(13.39 10.647)" gradientUnits="userSpaceOnUse"/><radialGradient xlink:href="#h" id="ak" cx="0" cy="0" r="1" gradientTransform="matrix(-9.656 0 0 -10.969 15.72 29.4)" gradientUnits="userSpaceOnUse"/><radialGradient xlink:href="#i" id="al" cx="0" cy="0" r="1" gradientTransform="matrix(-.72 2.562 -5.337 -1.5 15.9 25.2)" gradientUnits="userSpaceOnUse"/><radialGradient xlink:href="#j" id="am" cx="0" cy="0" r="1" gradientTransform="rotate(69.3 -12.13 16.8)scale(2.74 5.197)" gradientUnits="userSpaceOnUse"/><radialGradient xlink:href="#k" id="ao" cx="0" cy="0" r="1" gradientTransform="matrix(0 1.7 -1.7 0 4.35 16.4)" gradientUnits="userSpaceOnUse"/><radialGradient xlink:href="#l" id="ap" cx="0" cy="0" r="1" gradientTransform="rotate(111.5 2.3 12.71)scale(3.08)" gradientUnits="userSpaceOnUse"/><radialGradient xlink:href="#m" id="aq" cx="0" cy="0" r="1" gradientTransform="rotate(90 -1.29 15.12)scale(1.214)" gradientUnits="userSpaceOnUse"/><radialGradient xlink:href="#o" id="ar" cx="0" cy="0" r="1" gradientTransform="rotate(108.8 2.83 9.73)scale(13.39 10.647)" gradientUnits="userSpaceOnUse"/><radialGradient xlink:href="#a" id="J" cx="0" cy="0" r="1" gradientTransform="matrix(-9.656 0 0 -10.969 28.6 29.4)" gradientUnits="userSpaceOnUse"/><radialGradient xlink:href="#b" id="K" cx="0" cy="0" r="1" gradientTransform="rotate(105.7 4.85 23.5)scale(2.661 5.544)" gradientUnits="userSpaceOnUse"/><radialGradient xlink:href="#c" id="L" cx="0" cy="0" r="1" gradientTransform="rotate(69.3 -5.7 26.12)scale(2.74 5.197)" gradientUnits="userSpaceOnUse"/><radialGradient xlink:href="#d" id="M" cx="0" cy="0" r="1" gradientTransform="rotate(90 .41 16.82)scale(1.7)" gradientUnits="userSpaceOnUse"/><radialGradient xlink:href="#e" id="N" cx="0" cy="0" r="1" gradientTransform="rotate(111.5 8.73 17.1)scale(3.08)" gradientUnits="userSpaceOnUse"/><radialGradient xlink:href="#f" id="P" cx="0" cy="0" r="1" gradientTransform="rotate(90 5.15 21.56)scale(1.214)" gradientUnits="userSpaceOnUse"/><radialGradient xlink:href="#g" id="R" cx="0" cy="0" r="1" gradientTransform="rotate(108.8 9.27 14.33)scale(13.39 10.647)" gradientUnits="userSpaceOnUse"/><radialGradient xlink:href="#h" id="S" cx="0" cy="0" r="1" gradientTransform="matrix(-9.656 0 0 -10.969 15.72 29.4)" gradientUnits="userSpaceOnUse"/><radialGradient xlink:href="#i" id="T" cx="0" cy="0" r="1" gradientTransform="matrix(-.72 2.562 -5.337 -1.5 15.9 25.2)" gradientUnits="userSpaceOnUse"/><radialGradient xlink:href="#j" id="U" cx="0" cy="0" r="1" gradientTransform="rotate(69.3 -12.13 16.8)scale(2.74 5.197)" gradientUnits="userSpaceOnUse"/><radialGradient xlink:href="#k" id="W" cx="0" cy="0" r="1" gradientTransform="matrix(0 1.7 -1.7 0 4.35 16.4)" gradientUnits="userSpaceOnUse"/><radialGradient xlink:href="#l" id="X" cx="0" cy="0" r="1" gradientTransform="rotate(111.5 2.3 12.71)scale(3.08)" gradientUnits="userSpaceOnUse"/><radialGradient xlink:href="#m" id="Z" cx="0" cy="0" r="1" gradientTransform="rotate(90 -1.29 15.12)scale(1.214)" gradientUnits="userSpaceOnUse"/><radialGradient xlink:href="#o" id="ab" cx="0" cy="0" r="1" gradientTransform="rotate(108.8 2.83 9.73)scale(13.39 10.647)" gradientUnits="userSpaceOnUse"/><radialGradient id="z" cx="0" cy="0" r="1" gradientTransform="matrix(0 -11.031 20.553 0 25.21 29.87)" gradientUnits="userSpaceOnUse"><stop stop-color="#f9c665"/><stop offset=".51" stop-color="#c66c31"/></radialGradient><radialGradient id="B" cx="0" cy="0" r="1" gradientTransform="rotate(90 -.97 10.87)scale(2.188)" gradientUnits="userSpaceOnUse"><stop offset=".52" stop-color="#f0bc58"/><stop offset="1" stop-color="#c97c31"/></radialGradient><radialGradient id="C" cx="0" cy="0" r="1" gradientTransform="rotate(111.5 8.26 13.19)scale(3.963)" gradientUnits="userSpaceOnUse"><stop offset=".26" stop-color="#ffe398"/><stop offset="1" stop-color="#d18031"/></radialGradient><radialGradient id="F" cx="0" cy="0" r="1" gradientTransform="rotate(90 5.13 16.97)scale(1.563)" gradientUnits="userSpaceOnUse"><stop stop-color="#fff2c6"/><stop offset="1" stop-color="#d99037"/></radialGradient><radialGradient id="H" cx="0" cy="0" r="1" gradientTransform="rotate(108.8 9.1 9.42)scale(17.235 13.704)" gradientUnits="userSpaceOnUse"><stop offset=".1" stop-color="#fff1aa"/><stop offset="1" stop-color="#d87a36"/></radialGradient><radialGradient id="I" cx="0" cy="0" r="1" gradientTransform="matrix(0 1.594 -3.71 0 19.3 5.34)" gradientUnits="userSpaceOnUse"><stop stop-color="#fff3ca"/><stop offset="1" stop-color="#fff3ca" stop-opacity="0"/></radialGradient><radialGradient xlink:href="#r" cx=".1" cy=".18" r="1" fx=".1" fy=".18" gradientTransform="rotate(135.6 223.67 630.65)scale(980 899.081)" gradientUnits="userSpaceOnUse" id="aM"/><radialGradient cx=".1" cy=".18" r="1" fx=".1" fy=".18" gradientTransform="rotate(135.6 223.67 630.65)scale(980 899.081)" gradientUnits="userSpaceOnUse" id="r"><stop offset="0" stop-color="#4db1e4" style="stop-color:#74c6e9"/><stop offset="1" stop-color="#2758a8" style="stop-color:#2f6ecc"/></radialGradient><radialGradient xlink:href="#r" cx=".1" cy=".18" r="1" fx=".1" fy=".18" gradientTransform="rotate(135.6 223.67 630.65)scale(980 899.081)" gradientUnits="userSpaceOnUse" id="aJ"/><radialGradient xlink:href="#r" cx=".1" cy=".18" r="1" fx=".1" fy=".18" gradientTransform="rotate(135.6 223.67 630.65)scale(980 899.081)" gradientUnits="userSpaceOnUse" id="av"/><linearGradient id="t" x1="16" x2="16" y1="3" y2="17" gradientUnits="userSpaceOnUse"><stop offset="0" stop-color="#f7ebc2"/><stop offset=".316" stop-color="#f7ebc2" style="stop-color:#efdca5;stop-opacity:1"/><stop offset=".429" stop-color="#f7ebc2" style="stop-color:#e7ce88;stop-opacity:1"/><stop offset="1" stop-color="#d8b14e"/></linearGradient><linearGradient id="s" x1="120" x2="1120" y1="100" y2="1650" gradientUnits="userSpaceOnUse"><stop offset="0" stop-color="#f3ebcf"/><stop offset="1" stop-color="#e3d3a3"/></linearGradient><linearGradient xlink:href="#s" id="w" x1="120" x2="1120" y1="100" y2="1650" gradientUnits="userSpaceOnUse"/><linearGradient xlink:href="#t" id="aO" x1="15.956" x2="15.829" y1="17.136" y2="2.986" gradientUnits="userSpaceOnUse"/><linearGradient id="A" x1="19.34" x2="19.34" y1="29.87" y2="29.45" gradientUnits="userSpaceOnUse"><stop offset=".16" stop-color="#b85d2a"/><stop offset="1" stop-color="#b85d2a" stop-opacity="0"/></linearGradient><linearGradient xlink:href="#u" x1="288" x2="982" y1="431" y2="1169" gradientUnits="userSpaceOnUse" id="aN"/><linearGradient x1="288" x2="982" y1="431" y2="1169" gradientUnits="userSpaceOnUse" id="u"><stop offset="0" stop-color="#ebd9a8" style="stop-color:#f3e8cc"/><stop offset="1" stop-color="#d9c68c" style="stop-color:#e3d6ae"/></linearGradient><linearGradient xlink:href="#v" x1="120" x2="1120" y1="100" y2="1650" gradientUnits="userSpaceOnUse" id="aL"/><linearGradient x1="120" x2="1120" y1="100" y2="1650" gradientUnits="userSpaceOnUse" id="v"><stop offset="0" stop-color="#e9d8a7" style="stop-color:#f1e6cc"/><stop offset="1" stop-color="#d7bc7c" style="stop-color:#e1cc9e"/></linearGradient><linearGradient xlink:href="#u" x1="288" x2="982" y1="431" y2="1169" gradientUnits="userSpaceOnUse" id="aK"/><linearGradient xlink:href="#v" x1="120" x2="1120" y1="100" y2="1650" gradientUnits="userSpaceOnUse" id="aI"/><linearGradient xlink:href="#u" x1="288" x2="982" y1="431" y2="1169" gradientUnits="userSpaceOnUse" id="aH"/><linearGradient xlink:href="#v" x1="120" x2="1120" y1="100" y2="1650" gradientUnits="userSpaceOnUse" id="as"/><linearGradient xlink:href="#t" id="aP" gradientUnits="userSpaceOnUse" x1="15.956" y1="17.136" x2="15.829" y2="2.986"/><linearGradient xlink:href="#t" id="aQ" gradientUnits="userSpaceOnUse" x1="15.956" y1="17.136" x2="15.829" y2="2.986"/><filter id="O" width="2.93" height="2.93" x="25.25" y="14.94" color-interpolation-filters="sRGB" filterUnits="userSpaceOnUse"><feFlood flood-opacity="0" result="BackgroundImageFix"/><feBlend in="SourceGraphic" in2="BackgroundImageFix" result="shape"/><feGaussianBlur result="effect1_foregroundBlur_5559_20883" stdDeviation=".13"/></filter><filter id="Q" width="2.93" height="2.93" x="15.9" y="14.94" color-interpolation-filters="sRGB" filterUnits="userSpaceOnUse"><feFlood flood-opacity="0" result="BackgroundImageFix"/><feBlend in="SourceGraphic" in2="BackgroundImageFix" result="shape"/><feGaussianBlur result="effect1_foregroundBlur_5559_20883" stdDeviation=".13"/></filter><filter id="Y" width="2.93" height="2.93" x="12.37" y="14.94" color-interpolation-filters="sRGB" filterUnits="userSpaceOnUse"><feFlood flood-opacity="0" result="BackgroundImageFix"/><feBlend in="SourceGraphic" in2="BackgroundImageFix" result="shape"/><feGaussianBlur result="effect1_foregroundBlur_5559_20883" stdDeviation=".13"/></filter><filter id="aa" width="2.93" height="2.93" x="3.03" y="14.94" color-interpolation-filters="sRGB" filterUnits="userSpaceOnUse"><feFlood flood-opacity="0" result="BackgroundImageFix"/><feBlend in="SourceGraphic" in2="BackgroundImageFix" result="shape"/><feGaussianBlur result="effect1_foregroundBlur_5559_20883" stdDeviation=".13"/></filter><filter id="E" width="3.63" height="3.63" x="20.29" y="10.03" color-interpolation-filters="sRGB" filterUnits="userSpaceOnUse"><feFlood flood-opacity="0" result="BackgroundImageFix"/><feBlend in="SourceGraphic" in2="BackgroundImageFix" result="shape"/><feGaussianBlur result="effect1_foregroundBlur_5559_20858" stdDeviation=".13"/></filter><filter id="G" width="3.63" height="3.63" x="8.27" y="10.03" color-interpolation-filters="sRGB" filterUnits="userSpaceOnUse"><feFlood flood-opacity="0" result="BackgroundImageFix"/><feBlend in="SourceGraphic" in2="BackgroundImageFix" result="shape"/><feGaussianBlur result="effect1_foregroundBlur_5559_20858" stdDeviation=".13"/></filter><path id="aw" fill="#ecbf47" d="m628 412 344 198c16 9 26 26 26 44v384c0 18-10 35-26 44l-316 182c-17 10-39 10-56 0l-316-182c-16-9-26-26-26-44V654c0-18 10-35 26-44l316-182c17-10 39-10 56 0z"/><path id="aE" fill="#3389d2" d="m628 454 321 185c12 7 19 20 19 34v346c0 14-7 27-19 34l-298 172c-14 8-32 8-46 0l-298-172c-12-7-19-20-19-34V673c0-14 7-27 19-34l298-172c14-8 32-8 46 0z"/></defs><rect width="1208" height="1630" x="24" y="60" fill="url(#w)" rx="60" style="fill:url(#w)"/><rect width="1080" height="1502" x="88" y="124" fill="url(#y)" rx="54" style="fill:url(#y)"/><rect width="974.66" height="1375.52" x="140.67" y="187.24" stroke="#f2d676" stroke-linecap="round" stroke-linejoin="bevel" stroke-width="15" rx="27.51"/><g transform="translate(394.496 1082.35)scale(14.594)"><path fill="url(#z)" d="M2.73 29.74a.1.1 0 0 0 .1.13h26.34a.1.1 0 0 0 .1-.13c-1.62-5.77-7.27-10-13.36-10s-11.56 4.23-13.18 10" style="fill:url(#z)"/><path fill="url(#A)" d="M2.73 29.74a.1.1 0 0 0 .1.13h26.34a.1.1 0 0 0 .1-.13c-1.62-5.77-7.27-10-13.36-10s-11.56 4.23-13.18 10" style="fill:url(#A)"/><circle cx="9.9" cy="11.84" r="2.19" fill="url(#B)" style="fill:url(#B)"/><circle cx="22.1" cy="11.84" r="2.19" fill="url(#C)" style="fill:url(#C)"/><g filter="url(#E)"><circle cx="22.1" cy="11.84" r="1.56" fill="url(#F)" style="fill:url(#F)"/></g><g filter="url(#G)"><circle cx="10.08" cy="11.84" r="1.56" fill="#d58932"/></g><path fill="url(#H)" d="m9.62 15.48-.37-8.02C9.06 4.58 11 2.01 14.83 2.14h2.42c4.06 0 5.68 2.55 5.5 5.43l-.36 7.9c-.17 2.63-2.42 4.6-5.17 4.68h-2.33a5.14 5.14 0 0 1-5.27-4.67" style="fill:url(#H)"/><path fill="url(#I)" d="m9.62 15.48-.37-8.02C9.06 4.58 11 2.01 14.83 2.14h2.42c4.06 0 5.68 2.55 5.5 5.43l-.36 7.9c-.17 2.63-2.42 4.6-5.17 4.68h-2.33a5.14 5.14 0 0 1-5.27-4.67" style="fill:url(#I)"/></g><g transform="translate(208.041 147.95)scale(14.762)"><path fill="url(#J)" d="M15.9 30.34q-.74 0-1.24-.12a.24.24 0 0 1-.17-.24V27.2c0-.9.02-2.42 1.73-3.37a12 12 0 0 1 5.69-1.37h.12c2.44.02 4.3.6 5.69 1.37 1.7.95 1.72 2.47 1.73 3.37v2.78a.24.24 0 0 1-.17.24q-.52.13-1.23.12z" style="fill:url(#J)"/><path fill="url(#K)" d="M15.9 30.34q-.74 0-1.24-.12a.24.24 0 0 1-.17-.24V27.2c0-.9.02-2.42 1.73-3.37a12 12 0 0 1 5.69-1.37h.12c2.44.02 4.3.6 5.69 1.37 1.7.95 1.72 2.47 1.73 3.37v2.78a.24.24 0 0 1-.17.24q-.52.13-1.23.12z" style="fill:url(#K)"/><path fill="url(#L)" d="M15.9 30.34q-.74 0-1.24-.12a.24.24 0 0 1-.17-.24V27.2c0-.9.02-2.42 1.73-3.37a12 12 0 0 1 5.69-1.37h.12c2.44.02 4.3.6 5.69 1.37 1.7.95 1.72 2.47 1.73 3.37v2.78a.24.24 0 0 1-.17.24q-.52.13-1.23.12z" style="fill:url(#L)"/><circle cx="17.23" cy="16.41" r="1.7" fill="url(#M)" style="fill:url(#M)"/><circle cx="26.71" cy="16.41" r="1.7" fill="url(#N)" style="fill:url(#N)"/><g filter="url(#O)"><circle cx="26.71" cy="16.41" r="1.21" fill="url(#P)" style="fill:url(#P)"/></g><g filter="url(#Q)"><circle cx="17.37" cy="16.41" r="1.21" fill="#140f1a"/></g><path fill="url(#R)" d="M17.01 19.23 16.72 13c-.14-2.24 1.36-4.23 4.34-4.13h1.88c3.16 0 4.41 1.99 4.27 4.22l-.28 6.13c-.13 2.05-1.88 3.58-4.01 3.65H21.1a4 4 0 0 1-4.1-3.64" style="fill:url(#R)"/><path fill="url(#S)" d="M3.01 30.34c-.43 0-.88-.03-1.23-.12a.24.24 0 0 1-.17-.24V27.2c0-.9.02-2.42 1.73-3.37a12 12 0 0 1 5.69-1.37h.12c2.44.02 4.3.6 5.7 1.37 1.7.95 1.72 2.47 1.73 3.37v2.78a.24.24 0 0 1-.18.24c-.35.09-.8.12-1.23.12z" style="fill:url(#S)"/><path fill="url(#T)" d="M3.01 30.34c-.43 0-.88-.03-1.23-.12a.24.24 0 0 1-.17-.24V27.2c0-.9.02-2.42 1.73-3.37a12 12 0 0 1 5.69-1.37h.12c2.44.02 4.3.6 5.7 1.37 1.7.95 1.72 2.47 1.73 3.37v2.78a.24.24 0 0 1-.18.24c-.35.09-.8.12-1.23.12z" style="fill:url(#T)"/><path fill="url(#U)" d="M3.01 30.34c-.43 0-.88-.03-1.23-.12a.24.24 0 0 1-.17-.24V27.2c0-.9.02-2.42 1.73-3.37a12 12 0 0 1 5.69-1.37h.12c2.44.02 4.3.6 5.7 1.37 1.7.95 1.72 2.47 1.73 3.37v2.78a.24.24 0 0 1-.18.24c-.35.09-.8.12-1.23.12z" style="fill:url(#U)"/><circle cx="4.35" cy="16.41" r="1.7" fill="url(#W)" style="fill:url(#W)"/><circle cx="13.83" cy="16.41" r="1.7" fill="url(#X)" style="fill:url(#X)"/><g filter="url(#Y)"><circle cx="13.83" cy="16.41" r="1.21" fill="url(#Z)" style="fill:url(#Z)"/></g><g filter="url(#aa)"><circle cx="4.49" cy="16.41" r="1.21" fill="#140f1a"/></g><path fill="url(#ab)" d="M4.13 19.23 3.85 13C3.7 10.77 5.2 8.77 8.18 8.88h1.88c3.16 0 4.41 1.99 4.27 4.22l-.28 6.13c-.13 2.05-1.88 3.58-4.01 3.65H8.23a4 4 0 0 1-4.1-3.64" style="fill:url(#ab)"/></g><g transform="translate(589.451 147.951)scale(14.762)"><path fill="url(#ac)" d="M15.9 30.34q-.74 0-1.24-.12a.24.24 0 0 1-.17-.24V27.2c0-.9.02-2.42 1.73-3.37a12 12 0 0 1 5.69-1.37h.12c2.44.02 4.3.6 5.69 1.37 1.7.95 1.72 2.47 1.73 3.37v2.78a.24.24 0 0 1-.17.24q-.52.13-1.23.12z" style="fill:url(#ac)"/><path fill="url(#ad)" d="M15.9 30.34q-.74 0-1.24-.12a.24.24 0 0 1-.17-.24V27.2c0-.9.02-2.42 1.73-3.37a12 12 0 0 1 5.69-1.37h.12c2.44.02 4.3.6 5.69 1.37 1.7.95 1.72 2.47 1.73 3.37v2.78a.24.24 0 0 1-.17.24q-.52.13-1.23.12z" style="fill:url(#ad)"/><path fill="url(#ae)" d="M15.9 30.34q-.74 0-1.24-.12a.24.24 0 0 1-.17-.24V27.2c0-.9.02-2.42 1.73-3.37a12 12 0 0 1 5.69-1.37h.12c2.44.02 4.3.6 5.69 1.37 1.7.95 1.72 2.47 1.73 3.37v2.78a.24.24 0 0 1-.17.24q-.52.13-1.23.12z" style="fill:url(#ae)"/><circle cx="17.23" cy="16.41" r="1.7" fill="url(#ag)" style="display:inline;fill:url(#ag)"/><circle cx="26.71" cy="16.41" r="1.7" fill="url(#ah)" style="display:inline;fill:url(#ah)"/><g filter="url(#O)"><circle cx="26.71" cy="16.41" r="1.21" fill="url(#ai)" style="fill:url(#ai)"/></g><g filter="url(#Q)"><circle cx="17.37" cy="16.41" r="1.21" fill="#140f1a"/></g><path fill="url(#aj)" d="M17.01 19.23 16.72 13c-.14-2.24 1.36-4.23 4.34-4.13h1.88c3.16 0 4.41 1.99 4.27 4.22l-.28 6.13c-.13 2.05-1.88 3.58-4.01 3.65H21.1a4 4 0 0 1-4.1-3.64" style="display:inline;fill:url(#aj)"/><path fill="url(#ak)" d="M3.01 30.34c-.43 0-.88-.03-1.23-.12a.24.24 0 0 1-.17-.24V27.2c0-.9.02-2.42 1.73-3.37a12 12 0 0 1 5.69-1.37h.12c2.44.02 4.3.6 5.7 1.37 1.7.95 1.72 2.47 1.73 3.37v2.78a.24.24 0 0 1-.18.24c-.35.09-.8.12-1.23.12z" style="fill:url(#ak)"/><path fill="url(#al)" d="M3.01 30.34c-.43 0-.88-.03-1.23-.12a.24.24 0 0 1-.17-.24V27.2c0-.9.02-2.42 1.73-3.37a12 12 0 0 1 5.69-1.37h.12c2.44.02 4.3.6 5.7 1.37 1.7.95 1.72 2.47 1.73 3.37v2.78a.24.24 0 0 1-.18.24c-.35.09-.8.12-1.23.12z" style="fill:url(#al)"/><path fill="url(#am)" d="M3.01 30.34c-.43 0-.88-.03-1.23-.12a.24.24 0 0 1-.17-.24V27.2c0-.9.02-2.42 1.73-3.37a12 12 0 0 1 5.69-1.37h.12c2.44.02 4.3.6 5.7 1.37 1.7.95 1.72 2.47 1.73 3.37v2.78a.24.24 0 0 1-.18.24c-.35.09-.8.12-1.23.12z" style="fill:url(#am)"/><circle cx="4.35" cy="16.41" r="1.7" fill="url(#ao)" style="fill:url(#ao)"/><circle cx="13.83" cy="16.41" r="1.7" fill="url(#ap)" style="fill:url(#ap)"/><g filter="url(#Y)"><circle cx="13.83" cy="16.41" r="1.21" fill="url(#aq)" style="fill:url(#aq)"/></g><g filter="url(#aa)"><circle cx="4.49" cy="16.41" r="1.21" fill="#140f1a"/></g><path fill="url(#ar)" d="M4.13 19.23 3.85 13C3.7 10.77 5.2 8.77 8.18 8.88h1.88c3.16 0 4.41 1.99 4.27 4.22l-.28 6.13c-.13 2.05-1.88 3.58-4.01 3.65H8.23a4 4 0 0 1-4.1-3.64" style="display:inline;fill:url(#ar)"/></g><g filter="url(#softShadow)" transform="rotate(-30 1227.072 -207.156)scale(.153)"><rect width="1208" height="1630" x="24" y="60" fill="url(#at)" rx="60" style="fill:url(#as)"/><rect width="1080" height="1502" x="88" y="124" fill="url(#au)" rx="54" style="fill:url(#av)"/><rect width="974.66" height="1375.52" x="140.67" y="187.24" stroke="#ecbf47" stroke-linecap="round" stroke-linejoin="bevel" stroke-width="15" rx="27.51" style="stroke:#f0ca6f"/><rect width="110" height="15" x="138" y="867.5" fill="#eabb3d" rx="7.5" style="fill:#eec265"/><rect width="110" height="15" x="1008" y="867.5" fill="#eabb3d" rx="7.5" style="fill:#eec265"/></g><g filter="url(#hexShadow)" transform="rotate(-30 1236.552 -209.686)scale(.153)"><use xlink:href="#aw"/><use xlink:href="#aE"/><path fill="url(#ax)" d="m628 484 298 172c12 7 20 20 20 34v312c0 14-8 27-20 34l-275 159c-14 8-32 8-46 0l-275-159c-12-7-20-20-20-34V690c0-14 8-27 20-34l275-159c14-8 32-8 46 0z" style="fill:url(#aH)"/></g><g filter="url(#softShadow)" transform="rotate(210 536.415 295.231)scale(.154)"><rect width="1208" height="1630" x="24" y="60" fill="url(#ay)" rx="60" style="fill:url(#aI)"/><rect width="1080" height="1502" x="88" y="124" fill="url(#az)" rx="54" style="fill:url(#aJ)"/><rect width="974.66" height="1375.52" x="140.67" y="187.24" stroke="#ecbf47" stroke-linecap="round" stroke-linejoin="bevel" stroke-width="15" rx="27.51" style="stroke:#f0ca6f"/><rect width="110" height="15" x="138" y="867.5" fill="#eabb3d" rx="7.5" style="fill:#eec265"/><rect width="110" height="15" x="1008" y="867.5" fill="#eabb3d" rx="7.5" style="fill:#eec265"/></g><g filter="url(#hexShadow)" transform="rotate(210 537.095 292.681)scale(.154)"><use xlink:href="#aw"/><use xlink:href="#aE"/><path fill="url(#aA)" d="m628 484 298 172c12 7 20 20 20 34v312c0 14-8 27-20 34l-275 159c-14 8-32 8-46 0l-275-159c-12-7-20-20-20-34V690c0-14 8-27 20-34l275-159c14-8 32-8 46 0z" style="fill:url(#aK)"/></g><g filter="url(#softShadow)" transform="translate(530.785 552.335)scale(.156)"><rect width="1208" height="1630" x="24" y="60" fill="url(#aB)" rx="60" style="fill:url(#aL)"/><rect width="1080" height="1502" x="88" y="124" fill="url(#aC)" rx="54" style="fill:url(#aM)"/><rect width="974.66" height="1375.52" x="140.67" y="187.24" stroke="#ecbf47" stroke-linecap="round" stroke-linejoin="bevel" stroke-width="15" rx="27.51" style="stroke:#f0ca6f"/><rect width="110" height="15" x="138" y="867.5" fill="#eabb3d" rx="7.5" style="fill:#eec265"/><rect width="110" height="15" x="1008" y="867.5" fill="#eabb3d" rx="7.5" style="fill:#eec265"/></g><g filter="url(#hexShadow)" transform="translate(530.785 557.525)scale(.156)"><use xlink:href="#aw"/><use xlink:href="#aE"/><path fill="url(#aD)" d="m628 484 298 172c12 7 20 20 20 34v312c0 14-8 27-20 34l-275 159c-14 8-32 8-46 0l-275-159c-12-7-20-20-20-34V690c0-14 8-27 20-34l275-159c14-8 32-8 46 0z" style="fill:url(#aN)"/></g><g stroke="#c7902f" stroke-width=".7" paint-order="stroke fill"><path fill="url(#aO)" d="M13.87 3a.65.65 0 0 0-.65.65v7.3h-1.25a.75.75 0 0 0-.56 1.24l4.04 4.55a.75.75 0 0 0 1.12 0l4.02-4.55a.75.75 0 0 0-.56-1.25h-1.28V3.65A.65.65 0 0 0 18.1 3Z" style="fill:url(#aP)" transform="translate(282.036 850.273)scale(10.32003)"/><path fill="url(#aF)" d="M13.87 3a.65.65 0 0 0-.65.65v7.3h-1.25a.75.75 0 0 0-.56 1.24l4.04 4.55a.75.75 0 0 0 1.12 0l4.02-4.55a.75.75 0 0 0-.56-1.25h-1.28V3.65A.65.65 0 0 0 18.1 3Z" style="fill:url(#aQ);stroke:#c7902f;stroke-width:.7;paint-order:stroke fill" transform="translate(462.787 850.273)scale(10.32003)"/><path fill="url(#aG)" d="M13.87 3a.65.65 0 0 0-.65.65v7.3h-1.25a.75.75 0 0 0-.56 1.24l4.04 4.55a.75.75 0 0 0 1.12 0l4.02-4.55a.75.75 0 0 0-.56-1.25h-1.28V3.65A.65.65 0 0 0 18.1 3Z" style="fill:url(#aO);stroke:#c7902f;stroke-width:.7;paint-order:stroke fill" transform="translate(643.538 850.273)scale(10.32003)"/></g></svg>