<?xml version="1.0" encoding="UTF-8" standalone="no"?>
<svg
   width="291.97"
   height="406.2"
   fill="none"
   viewBox="0 0 1256 1750"
   version="1.1"
   id="svg111"
   sodipodi:docname="monopoly.svg"
   inkscape:version="1.4.3 (0d15f75, 2025-12-25)"
   xmlns:inkscape="http://www.inkscape.org/namespaces/inkscape"
   xmlns:sodipodi="http://sodipodi.sourceforge.net/DTD/sodipodi-0.dtd"
   xmlns:xlink="http://www.w3.org/1999/xlink"
   xmlns="http://www.w3.org/2000/svg"
   xmlns:svg="http://www.w3.org/2000/svg">
  <sodipodi:namedview
     id="namedview111"
     pagecolor="#ffffff"
     bordercolor="#000000"
     borderopacity="0.25"
     inkscape:showpageshadow="2"
     inkscape:pageopacity="0.0"
     inkscape:pagecheckerboard="0"
     inkscape:deskcolor="#d1d1d1"
     inkscape:zoom="2.483998"
     inkscape:cx="145.93409"
     inkscape:cy="203.1"
     inkscape:window-width="2403"
     inkscape:window-height="1482"
     inkscape:window-x="92"
     inkscape:window-y="25"
     inkscape:window-maximized="0"
     inkscape:current-layer="svg111" />
  <defs
     id="defs61">
    <radialGradient
       id="y"
       cx=".1"
       cy=".18"
       r="1"
       fx=".1"
       fy=".18"
       gradientTransform="rotate(135.6 223.67 630.65)scale(980 899.081)"
       gradientUnits="userSpaceOnUse">
      <stop
         offset="0"
         stop-color="#ffb955"
         id="stop1" />
      <stop
         offset="1"
         stop-color="#f97316"
         id="stop2" />
    </radialGradient>
    <radialGradient
       id="a"
       cx="0"
       cy="0"
       r="1"
       gradientTransform="matrix(-9.656 0 0 -10.969 28.6 29.4)"
       gradientUnits="userSpaceOnUse">
      <stop
         stop-color="#555f6b"
         id="stop3" />
      <stop
         offset=".36"
         stop-color="#39424e"
         id="stop4" />
    </radialGradient>
    <radialGradient
       id="b"
       cx="0"
       cy="0"
       r="1"
       gradientTransform="rotate(105.7 4.85 23.5)scale(2.661 5.544)"
       gradientUnits="userSpaceOnUse">
      <stop
         offset=".19"
         stop-color="#646d78"
         id="stop5" />
      <stop
         offset="1"
         stop-color="#646d78"
         stop-opacity="0"
         id="stop6" />
    </radialGradient>
    <radialGradient
       id="c"
       cx="0"
       cy="0"
       r="1"
       gradientTransform="rotate(69.3 -5.7 26.12)scale(2.74 5.197)"
       gradientUnits="userSpaceOnUse">
      <stop
         stop-color="#232a33"
         id="stop7" />
      <stop
         offset="1"
         stop-color="#232a33"
         stop-opacity="0"
         id="stop8" />
    </radialGradient>
    <radialGradient
       id="d"
       cx="0"
       cy="0"
       r="1"
       gradientTransform="rotate(90 .41 16.82)scale(1.7)"
       gradientUnits="userSpaceOnUse">
      <stop
         offset=".52"
         stop-color="#424b56"
         id="stop9" />
      <stop
         offset="1"
         stop-color="#363f4a"
         id="stop10" />
    </radialGradient>
    <radialGradient
       id="e"
       cx="0"
       cy="0"
       r="1"
       gradientTransform="rotate(111.5 8.73 17.1)scale(3.08)"
       gradientUnits="userSpaceOnUse">
      <stop
         offset=".26"
         stop-color="#727a85"
         id="stop11" />
      <stop
         offset="1"
         stop-color="#3a4450"
         id="stop12" />
    </radialGradient>
    <radialGradient
       id="f"
       cx="0"
       cy="0"
       r="1"
       gradientTransform="rotate(90 5.15 21.56)scale(1.214)"
       gradientUnits="userSpaceOnUse">
      <stop
         stop-color="#5d6671"
         id="stop13" />
      <stop
         offset="1"
         stop-color="#353f4b"
         id="stop14" />
    </radialGradient>
    <radialGradient
       id="g"
       cx="0"
       cy="0"
       r="1"
       gradientTransform="rotate(108.8 9.27 14.33)scale(13.39 10.647)"
       gradientUnits="userSpaceOnUse">
      <stop
         offset=".1"
         stop-color="#69737f"
         id="stop15" />
      <stop
         offset="1"
         stop-color="#29323c"
         id="stop16" />
    </radialGradient>
    <radialGradient
       id="h"
       cx="0"
       cy="0"
       r="1"
       gradientTransform="matrix(-9.656 0 0 -10.969 15.72 29.4)"
       gradientUnits="userSpaceOnUse">
      <stop
         stop-color="#555f6b"
         id="stop17" />
      <stop
         offset=".36"
         stop-color="#39424e"
         id="stop18" />
    </radialGradient>
    <radialGradient
       id="i"
       cx="0"
       cy="0"
       r="1"
       gradientTransform="matrix(-.72 2.562 -5.337 -1.5 15.9 25.2)"
       gradientUnits="userSpaceOnUse">
      <stop
         offset=".19"
         stop-color="#646d78"
         id="stop19" />
      <stop
         offset="1"
         stop-color="#646d78"
         stop-opacity="0"
         id="stop20" />
    </radialGradient>
    <radialGradient
       id="j"
       cx="0"
       cy="0"
       r="1"
       gradientTransform="rotate(69.3 -12.13 16.8)scale(2.74 5.197)"
       gradientUnits="userSpaceOnUse">
      <stop
         stop-color="#232a33"
         id="stop21" />
      <stop
         offset="1"
         stop-color="#232a33"
         stop-opacity="0"
         id="stop22" />
    </radialGradient>
    <radialGradient
       id="k"
       cx="0"
       cy="0"
       r="1"
       gradientTransform="matrix(0 1.7 -1.7 0 4.35 16.4)"
       gradientUnits="userSpaceOnUse">
      <stop
         offset=".52"
         stop-color="#424b56"
         id="stop23" />
      <stop
         offset="1"
         stop-color="#363f4a"
         id="stop24" />
    </radialGradient>
    <radialGradient
       id="l"
       cx="0"
       cy="0"
       r="1"
       gradientTransform="rotate(111.5 2.3 12.71)scale(3.08)"
       gradientUnits="userSpaceOnUse">
      <stop
         offset=".26"
         stop-color="#727a85"
         id="stop25" />
      <stop
         offset="1"
         stop-color="#3a4450"
         id="stop26" />
    </radialGradient>
    <radialGradient
       id="m"
       cx="0"
       cy="0"
       r="1"
       gradientTransform="rotate(90 -1.29 15.12)scale(1.214)"
       gradientUnits="userSpaceOnUse">
      <stop
         stop-color="#5d6671"
         id="stop27" />
      <stop
         offset="1"
         stop-color="#353f4b"
         id="stop28" />
    </radialGradient>
    <radialGradient
       id="o"
       cx="0"
       cy="0"
       r="1"
       gradientTransform="rotate(108.8 2.83 9.73)scale(13.39 10.647)"
       gradientUnits="userSpaceOnUse">
      <stop
         offset=".1"
         stop-color="#69737f"
         id="stop29" />
      <stop
         offset="1"
         stop-color="#29323c"
         id="stop30" />
    </radialGradient>
    <radialGradient
       xlink:href="#a"
       id="ac"
       cx="0"
       cy="0"
       r="1"
       gradientTransform="matrix(-9.656,0,0,-10.969,28.6,29.4)"
       gradientUnits="userSpaceOnUse" />
    <radialGradient
       xlink:href="#b"
       id="ad"
       cx="0"
       cy="0"
       r="1"
       gradientTransform="matrix(-0.72006779,2.5617227,-5.337163,-1.5002089,28.785668,25.190056)"
       gradientUnits="userSpaceOnUse" />
    <radialGradient
       xlink:href="#c"
       id="ae"
       cx="0"
       cy="0"
       r="1"
       gradientTransform="matrix(0.96852107,2.5631166,-4.8615026,1.8370088,20.748605,22.219268)"
       gradientUnits="userSpaceOnUse" />
    <radialGradient
       xlink:href="#d"
       id="ag"
       cx="0"
       cy="0"
       r="1"
       gradientTransform="matrix(0,1.7,-1.7,0,17.23,16.41)"
       gradientUnits="userSpaceOnUse" />
    <radialGradient
       xlink:href="#e"
       id="ah"
       cx="0"
       cy="0"
       r="1"
       gradientTransform="matrix(-1.1288238,2.8656861,-2.8656861,-1.1288238,27.839696,15.244626)"
       gradientUnits="userSpaceOnUse" />
    <radialGradient
       xlink:href="#f"
       id="ai"
       cx="0"
       cy="0"
       r="1"
       gradientTransform="matrix(0,1.214,-1.214,0,26.71,16.41)"
       gradientUnits="userSpaceOnUse" />
    <radialGradient
       xlink:href="#g"
       id="aj"
       cx="0"
       cy="0"
       r="1"
       gradientTransform="matrix(-4.3151377,12.675634,-10.078975,-3.4311629,25.822887,10.172629)"
       gradientUnits="userSpaceOnUse" />
    <radialGradient
       xlink:href="#h"
       id="ak"
       cx="0"
       cy="0"
       r="1"
       gradientTransform="matrix(-9.656,0,0,-10.969,15.72,29.4)"
       gradientUnits="userSpaceOnUse" />
    <radialGradient
       xlink:href="#i"
       id="al"
       cx="0"
       cy="0"
       r="1"
       gradientTransform="matrix(-0.72,2.562,-5.337,-1.5,15.9,25.2)"
       gradientUnits="userSpaceOnUse" />
    <radialGradient
       xlink:href="#j"
       id="am"
       cx="0"
       cy="0"
       r="1"
       gradientTransform="matrix(0.96852107,2.5631166,-4.8615026,1.8370088,7.8731096,22.208559)"
       gradientUnits="userSpaceOnUse" />
    <radialGradient
       xlink:href="#k"
       id="ao"
       cx="0"
       cy="0"
       r="1"
       gradientTransform="matrix(0,1.7,-1.7,0,4.35,16.4)"
       gradientUnits="userSpaceOnUse" />
    <radialGradient
       xlink:href="#l"
       id="ap"
       cx="0"
       cy="0"
       r="1"
       gradientTransform="matrix(-1.1288238,2.8656861,-2.8656861,-1.1288238,14.96856,15.22827)"
       gradientUnits="userSpaceOnUse" />
    <radialGradient
       xlink:href="#m"
       id="aq"
       cx="0"
       cy="0"
       r="1"
       gradientTransform="matrix(0,1.214,-1.214,0,13.83,16.41)"
       gradientUnits="userSpaceOnUse" />
    <radialGradient
       xlink:href="#o"
       id="ar"
       cx="0"
       cy="0"
       r="1"
       gradientTransform="matrix(-4.3151377,12.675634,-10.078975,-3.4311629,12.952909,10.186628)"
       gradientUnits="userSpaceOnUse" />
    <radialGradient
       xlink:href="#a"
       id="J"
       cx="0"
       cy="0"
       r="1"
       gradientTransform="matrix(-9.656,0,0,-10.969,28.6,29.4)"
       gradientUnits="userSpaceOnUse" />
    <radialGradient
       xlink:href="#b"
       id="K"
       cx="0"
       cy="0"
       r="1"
       gradientTransform="matrix(-0.72006779,2.5617227,-5.337163,-1.5002089,28.785668,25.190056)"
       gradientUnits="userSpaceOnUse" />
    <radialGradient
       xlink:href="#c"
       id="L"
       cx="0"
       cy="0"
       r="1"
       gradientTransform="matrix(0.96852107,2.5631166,-4.8615026,1.8370088,20.748605,22.219268)"
       gradientUnits="userSpaceOnUse" />
    <radialGradient
       xlink:href="#d"
       id="M"
       cx="0"
       cy="0"
       r="1"
       gradientTransform="matrix(0,1.7,-1.7,0,17.23,16.41)"
       gradientUnits="userSpaceOnUse" />
    <radialGradient
       xlink:href="#e"
       id="N"
       cx="0"
       cy="0"
       r="1"
       gradientTransform="matrix(-1.1288238,2.8656861,-2.8656861,-1.1288238,27.839696,15.244626)"
       gradientUnits="userSpaceOnUse" />
    <radialGradient
       xlink:href="#f"
       id="P"
       cx="0"
       cy="0"
       r="1"
       gradientTransform="matrix(0,1.214,-1.214,0,26.71,16.41)"
       gradientUnits="userSpaceOnUse" />
    <radialGradient
       xlink:href="#g"
       id="R"
       cx="0"
       cy="0"
       r="1"
       gradientTransform="matrix(-4.3151377,12.675634,-10.078975,-3.4311629,25.822887,10.172629)"
       gradientUnits="userSpaceOnUse" />
    <radialGradient
       xlink:href="#h"
       id="S"
       cx="0"
       cy="0"
       r="1"
       gradientTransform="matrix(-9.656,0,0,-10.969,15.72,29.4)"
       gradientUnits="userSpaceOnUse" />
    <radialGradient
       xlink:href="#i"
       id="T"
       cx="0"
       cy="0"
       r="1"
       gradientTransform="matrix(-0.72,2.562,-5.337,-1.5,15.9,25.2)"
       gradientUnits="userSpaceOnUse" />
    <radialGradient
       xlink:href="#j"
       id="U"
       cx="0"
       cy="0"
       r="1"
       gradientTransform="matrix(0.96852107,2.5631166,-4.8615026,1.8370088,7.8731096,22.208559)"
       gradientUnits="userSpaceOnUse" />
    <radialGradient
       xlink:href="#k"
       id="W"
       cx="0"
       cy="0"
       r="1"
       gradientTransform="matrix(0,1.7,-1.7,0,4.35,16.4)"
       gradientUnits="userSpaceOnUse" />
    <radialGradient
       xlink:href="#l"
       id="X"
       cx="0"
       cy="0"
       r="1"
       gradientTransform="matrix(-1.1288238,2.8656861,-2.8656861,-1.1288238,14.96856,15.22827)"
       gradientUnits="userSpaceOnUse" />
    <radialGradient
       xlink:href="#m"
       id="Z"
       cx="0"
       cy="0"
       r="1"
       gradientTransform="matrix(0,1.214,-1.214,0,13.83,16.41)"
       gradientUnits="userSpaceOnUse" />
    <radialGradient
       xlink:href="#o"
       id="ab"
       cx="0"
       cy="0"
       r="1"
       gradientTransform="matrix(-4.3151377,12.675634,-10.078975,-3.4311629,12.952909,10.186628)"
       gradientUnits="userSpaceOnUse" />
    <radialGradient
       id="z"
       cx="0"
       cy="0"
       r="1"
       gradientTransform="matrix(0 -11.031 20.553 0 25.21 29.87)"
       gradientUnits="userSpaceOnUse">
      <stop
         stop-color="#f9c665"
         id="stop31" />
      <stop
         offset=".51"
         stop-color="#c66c31"
         id="stop32" />
    </radialGradient>
    <radialGradient
       id="B"
       cx="0"
       cy="0"
       r="1"
       gradientTransform="rotate(90 -.97 10.87)scale(2.188)"
       gradientUnits="userSpaceOnUse">
      <stop
         offset=".52"
         stop-color="#f0bc58"
         id="stop33" />
      <stop
         offset="1"
         stop-color="#c97c31"
         id="stop34" />
    </radialGradient>
    <radialGradient
       id="C"
       cx="0"
       cy="0"
       r="1"
       gradientTransform="rotate(111.5 8.26 13.19)scale(3.963)"
       gradientUnits="userSpaceOnUse">
      <stop
         offset=".26"
         stop-color="#ffe398"
         id="stop35" />
      <stop
         offset="1"
         stop-color="#d18031"
         id="stop36" />
    </radialGradient>
    <radialGradient
       id="F"
       cx="0"
       cy="0"
       r="1"
       gradientTransform="rotate(90 5.13 16.97)scale(1.563)"
       gradientUnits="userSpaceOnUse">
      <stop
         stop-color="#fff2c6"
         id="stop37" />
      <stop
         offset="1"
         stop-color="#d99037"
         id="stop38" />
    </radialGradient>
    <radialGradient
       id="H"
       cx="0"
       cy="0"
       r="1"
       gradientTransform="rotate(108.8 9.1 9.42)scale(17.235 13.704)"
       gradientUnits="userSpaceOnUse">
      <stop
         offset=".1"
         stop-color="#fff1aa"
         id="stop39" />
      <stop
         offset="1"
         stop-color="#d87a36"
         id="stop40" />
    </radialGradient>
    <radialGradient
       id="I"
       cx="0"
       cy="0"
       r="1"
       gradientTransform="matrix(0 1.594 -3.71 0 19.3 5.34)"
       gradientUnits="userSpaceOnUse">
      <stop
         stop-color="#fff3ca"
         id="stop41" />
      <stop
         offset="1"
         stop-color="#fff3ca"
         stop-opacity="0"
         id="stop42" />
    </radialGradient>
    <radialGradient
       xlink:href="#r"
       cx=".1"
       cy=".18"
       r="1"
       fx=".1"
       fy=".18"
       gradientTransform="matrix(-700.18323,685.67007,-629.05402,-642.36881,824.71879,924.7385)"
       gradientUnits="userSpaceOnUse"
       id="aM" />
    <radialGradient
       cx=".1"
       cy=".18"
       r="1"
       fx=".1"
       fy=".18"
       gradientTransform="rotate(135.6 223.67 630.65)scale(980 899.081)"
       gradientUnits="userSpaceOnUse"
       id="r">
      <stop
         offset="0"
         stop-color="#4db1e4"
         style="stop-color:#74c6e9"
         id="stop43" />
      <stop
         offset="1"
         stop-color="#2758a8"
         style="stop-color:#2f6ecc"
         id="stop44" />
    </radialGradient>
    <radialGradient
       xlink:href="#r"
       cx=".1"
       cy=".18"
       r="1"
       fx=".1"
       fy=".18"
       gradientTransform="matrix(-700.18323,685.67007,-629.05402,-642.36881,824.71879,924.7385)"
       gradientUnits="userSpaceOnUse"
       id="aJ" />
    <radialGradient
       xlink:href="#r"
       cx=".1"
       cy=".18"
       r="1"
       fx=".1"
       fy=".18"
       gradientTransform="matrix(-700.18323,685.67007,-629.05402,-642.36881,824.71879,924.7385)"
       gradientUnits="userSpaceOnUse"
       id="av" />
    <linearGradient
       id="t"
       x1="16"
       x2="16"
       y1="3"
       y2="17"
       gradientUnits="userSpaceOnUse">
      <stop
         offset="0"
         stop-color="#f7ebc2"
         id="stop45" />
      <stop
         offset=".316"
         stop-color="#f7ebc2"
         style="stop-color:#efdca5;stop-opacity:1"
         id="stop46" />
      <stop
         offset=".429"
         stop-color="#f7ebc2"
         style="stop-color:#e7ce88;stop-opacity:1"
         id="stop47" />
      <stop
         offset="1"
         stop-color="#d8b14e"
         id="stop48" />
    </linearGradient>
    <linearGradient
       id="s"
       x1="120"
       x2="1120"
       y1="100"
       y2="1650"
       gradientUnits="userSpaceOnUse">
      <stop
         offset="0"
         stop-color="#f3ebcf"
         id="stop49" />
      <stop
         offset="1"
         stop-color="#e3d3a3"
         id="stop50" />
    </linearGradient>
    <linearGradient
       xlink:href="#s"
       id="w"
       x1="120"
       x2="1120"
       y1="100"
       y2="1650"
       gradientUnits="userSpaceOnUse" />
    <linearGradient
       xlink:href="#t"
       id="aO"
       x1="15.956"
       x2="15.829"
       y1="17.136"
       y2="2.986"
       gradientUnits="userSpaceOnUse" />
    <linearGradient
       id="A"
       x1="19.34"
       x2="19.34"
       y1="29.87"
       y2="29.45"
       gradientUnits="userSpaceOnUse">
      <stop
         offset=".16"
         stop-color="#b85d2a"
         id="stop51" />
      <stop
         offset="1"
         stop-color="#b85d2a"
         stop-opacity="0"
         id="stop52" />
    </linearGradient>
    <linearGradient
       xlink:href="#u"
       x1="288"
       x2="982"
       y1="431"
       y2="1169"
       gradientUnits="userSpaceOnUse"
       id="aN" />
    <linearGradient
       x1="288"
       x2="982"
       y1="431"
       y2="1169"
       gradientUnits="userSpaceOnUse"
       id="u">
      <stop
         offset="0"
         stop-color="#ebd9a8"
         style="stop-color:#f3e8cc"
         id="stop53" />
      <stop
         offset="1"
         stop-color="#d9c68c"
         style="stop-color:#e3d6ae"
         id="stop54" />
    </linearGradient>
    <linearGradient
       xlink:href="#v"
       x1="120"
       x2="1120"
       y1="100"
       y2="1650"
       gradientUnits="userSpaceOnUse"
       id="aL" />
    <linearGradient
       x1="120"
       x2="1120"
       y1="100"
       y2="1650"
       gradientUnits="userSpaceOnUse"
       id="v">
      <stop
         offset="0"
         stop-color="#e9d8a7"
         style="stop-color:#f1e6cc"
         id="stop55" />
      <stop
         offset="1"
         stop-color="#d7bc7c"
         style="stop-color:#e1cc9e"
         id="stop56" />
    </linearGradient>
    <linearGradient
       xlink:href="#u"
       x1="288"
       x2="982"
       y1="431"
       y2="1169"
       gradientUnits="userSpaceOnUse"
       id="aK" />
    <linearGradient
       xlink:href="#v"
       x1="120"
       x2="1120"
       y1="100"
       y2="1650"
       gradientUnits="userSpaceOnUse"
       id="aI" />
    <linearGradient
       xlink:href="#u"
       x1="288"
       x2="982"
       y1="431"
       y2="1169"
       gradientUnits="userSpaceOnUse"
       id="aH" />
    <linearGradient
       xlink:href="#v"
       x1="120"
       x2="1120"
       y1="100"
       y2="1650"
       gradientUnits="userSpaceOnUse"
       id="as" />
    <linearGradient
       xlink:href="#t"
       id="aP"
       gradientUnits="userSpaceOnUse"
       x1="15.956"
       y1="17.136"
       x2="15.829"
       y2="2.986" />
    <linearGradient
       xlink:href="#t"
       id="aQ"
       gradientUnits="userSpaceOnUse"
       x1="15.956"
       y1="17.136"
       x2="15.829"
       y2="2.986" />
    <filter
       id="O"
       width="2.93"
       height="2.93"
       x="25.25"
       y="14.94"
       color-interpolation-filters="sRGB"
       filterUnits="userSpaceOnUse">
      <feFlood
         flood-opacity="0"
         result="BackgroundImageFix"
         id="feFlood56" />
      <feBlend
         in="SourceGraphic"
         in2="BackgroundImageFix"
         result="shape"
         id="feBlend56" />
      <feGaussianBlur
         result="effect1_foregroundBlur_5559_20883"
         stdDeviation=".13"
         id="feGaussianBlur56" />
    </filter>
    <filter
       id="Q"
       width="2.93"
       height="2.93"
       x="15.9"
       y="14.94"
       color-interpolation-filters="sRGB"
       filterUnits="userSpaceOnUse">
      <feFlood
         flood-opacity="0"
         result="BackgroundImageFix"
         id="feFlood57" />
      <feBlend
         in="SourceGraphic"
         in2="BackgroundImageFix"
         result="shape"
         id="feBlend57" />
      <feGaussianBlur
         result="effect1_foregroundBlur_5559_20883"
         stdDeviation=".13"
         id="feGaussianBlur57" />
    </filter>
    <filter
       id="Y"
       width="2.93"
       height="2.93"
       x="12.37"
       y="14.94"
       color-interpolation-filters="sRGB"
       filterUnits="userSpaceOnUse">
      <feFlood
         flood-opacity="0"
         result="BackgroundImageFix"
         id="feFlood58" />
      <feBlend
         in="SourceGraphic"
         in2="BackgroundImageFix"
         result="shape"
         id="feBlend58" />
      <feGaussianBlur
         result="effect1_foregroundBlur_5559_20883"
         stdDeviation=".13"
         id="feGaussianBlur58" />
    </filter>
    <filter
       id="aa"
       width="2.93"
       height="2.93"
       x="3.03"
       y="14.94"
       color-interpolation-filters="sRGB"
       filterUnits="userSpaceOnUse">
      <feFlood
         flood-opacity="0"
         result="BackgroundImageFix"
         id="feFlood59" />
      <feBlend
         in="SourceGraphic"
         in2="BackgroundImageFix"
         result="shape"
         id="feBlend59" />
      <feGaussianBlur
         result="effect1_foregroundBlur_5559_20883"
         stdDeviation=".13"
         id="feGaussianBlur59" />
    </filter>
    <filter
       id="E"
       width="3.63"
       height="3.63"
       x="20.29"
       y="10.03"
       color-interpolation-filters="sRGB"
       filterUnits="userSpaceOnUse">
      <feFlood
         flood-opacity="0"
         result="BackgroundImageFix"
         id="feFlood60" />
      <feBlend
         in="SourceGraphic"
         in2="BackgroundImageFix"
         result="shape"
         id="feBlend60" />
      <feGaussianBlur
         result="effect1_foregroundBlur_5559_20858"
         stdDeviation=".13"
         id="feGaussianBlur60" />
    </filter>
    <filter
       id="G"
       width="3.63"
       height="3.63"
       x="8.27"
       y="10.03"
       color-interpolation-filters="sRGB"
       filterUnits="userSpaceOnUse">
      <feFlood
         flood-opacity="0"
         result="BackgroundImageFix"
         id="feFlood61" />
      <feBlend
         in="SourceGraphic"
         in2="BackgroundImageFix"
         result="shape"
         id="feBlend61" />
      <feGaussianBlur
         result="effect1_foregroundBlur_5559_20858"
         stdDeviation=".13"
         id="feGaussianBlur61" />
    </filter>
    <path
       id="aw"
       fill="#ecbf47"
       d="m628 412 344 198c16 9 26 26 26 44v384c0 18-10 35-26 44l-316 182c-17 10-39 10-56 0l-316-182c-16-9-26-26-26-44V654c0-18 10-35 26-44l316-182c17-10 39-10 56 0z" />
    <path
       id="aE"
       fill="#3389d2"
       d="m628 454 321 185c12 7 19 20 19 34v346c0 14-7 27-19 34l-298 172c-14 8-32 8-46 0l-298-172c-12-7-19-20-19-34V673c0-14 7-27 19-34l298-172c14-8 32-8 46 0z" />
  </defs>
  <rect
     width="1208"
     height="1630"
     x="24"
     y="60"
     fill="url(#w)"
     rx="60"
     style="fill:url(#w)"
     id="rect61" />
  <rect
     width="1080"
     height="1502"
     x="88"
     y="124"
     fill="url(#y)"
     rx="54"
     style="fill:url(#y)"
     id="rect62" />
  <rect
     width="974.66"
     height="1375.52"
     x="140.67"
     y="187.24"
     stroke="#f2d676"
     stroke-linecap="round"
     stroke-linejoin="bevel"
     stroke-width="15"
     rx="27.51"
     id="rect63" />
  <g
     id="g116"
     transform="matrix(1.2954435,0,0,1.2954435,-309.11278,-362.22993)"
     inkscape:label="g116">
    <g
       transform="matrix(14.762,0,0,14.762,398.82409,368.93231)"
       id="g81">
      <path
         fill="url(#J)"
         d="m 15.9,30.34 q -0.74,0 -1.24,-0.12 A 0.24,0.24 0 0 1 14.49,29.98 V 27.2 c 0,-0.9 0.02,-2.42 1.73,-3.37 a 12,12 0 0 1 5.69,-1.37 h 0.12 c 2.44,0.02 4.3,0.6 5.69,1.37 1.7,0.95 1.72,2.47 1.73,3.37 v 2.78 a 0.24,0.24 0 0 1 -0.17,0.24 q -0.52,0.13 -1.23,0.12 z"
         style="fill:url(#J)"
         id="path69" />
      <path
         fill="url(#K)"
         d="m 15.9,30.34 q -0.74,0 -1.24,-0.12 A 0.24,0.24 0 0 1 14.49,29.98 V 27.2 c 0,-0.9 0.02,-2.42 1.73,-3.37 a 12,12 0 0 1 5.69,-1.37 h 0.12 c 2.44,0.02 4.3,0.6 5.69,1.37 1.7,0.95 1.72,2.47 1.73,3.37 v 2.78 a 0.24,0.24 0 0 1 -0.17,0.24 q -0.52,0.13 -1.23,0.12 z"
         style="fill:url(#K)"
         id="path70" />
      <path
         fill="url(#L)"
         d="m 15.9,30.34 q -0.74,0 -1.24,-0.12 A 0.24,0.24 0 0 1 14.49,29.98 V 27.2 c 0,-0.9 0.02,-2.42 1.73,-3.37 a 12,12 0 0 1 5.69,-1.37 h 0.12 c 2.44,0.02 4.3,0.6 5.69,1.37 1.7,0.95 1.72,2.47 1.73,3.37 v 2.78 a 0.24,0.24 0 0 1 -0.17,0.24 q -0.52,0.13 -1.23,0.12 z"
         style="fill:url(#L)"
         id="path71" />
      <circle
         cx="17.23"
         cy="16.41"
         r="1.7"
         fill="url(#M)"
         style="fill:url(#M)"
         id="circle71" />
      <circle
         cx="26.709999"
         cy="16.41"
         r="1.7"
         fill="url(#N)"
         style="fill:url(#N)"
         id="circle72" />
      <g
         filter="url(#O)"
         id="g73">
        <circle
           cx="26.709999"
           cy="16.41"
           r="1.21"
           fill="url(#P)"
           style="fill:url(#P)"
           id="circle73" />
      </g>
      <g
         filter="url(#Q)"
         id="g74">
        <circle
           cx="17.370001"
           cy="16.41"
           r="1.21"
           fill="#140f1a"
           id="circle74" />
      </g>
      <path
         fill="url(#R)"
         d="M 17.01,19.23 16.72,13 c -0.14,-2.24 1.36,-4.23 4.34,-4.13 h 1.88 c 3.16,0 4.41,1.99 4.27,4.22 l -0.28,6.13 c -0.13,2.05 -1.88,3.58 -4.01,3.65 H 21.1 A 4,4 0 0 1 17,19.23"
         style="fill:url(#R)"
         id="path74" />
      <path
         fill="url(#S)"
         d="m 3.01,30.34 c -0.43,0 -0.88,-0.03 -1.23,-0.12 A 0.24,0.24 0 0 1 1.61,29.98 V 27.2 c 0,-0.9 0.02,-2.42 1.73,-3.37 a 12,12 0 0 1 5.69,-1.37 h 0.12 c 2.44,0.02 4.3,0.6 5.7,1.37 1.7,0.95 1.72,2.47 1.73,3.37 v 2.78 a 0.24,0.24 0 0 1 -0.18,0.24 c -0.35,0.09 -0.8,0.12 -1.23,0.12 z"
         style="fill:url(#S)"
         id="path75" />
      <path
         fill="url(#T)"
         d="m 3.01,30.34 c -0.43,0 -0.88,-0.03 -1.23,-0.12 A 0.24,0.24 0 0 1 1.61,29.98 V 27.2 c 0,-0.9 0.02,-2.42 1.73,-3.37 a 12,12 0 0 1 5.69,-1.37 h 0.12 c 2.44,0.02 4.3,0.6 5.7,1.37 1.7,0.95 1.72,2.47 1.73,3.37 v 2.78 a 0.24,0.24 0 0 1 -0.18,0.24 c -0.35,0.09 -0.8,0.12 -1.23,0.12 z"
         style="fill:url(#T)"
         id="path76" />
      <path
         fill="url(#U)"
         d="m 3.01,30.34 c -0.43,0 -0.88,-0.03 -1.23,-0.12 A 0.24,0.24 0 0 1 1.61,29.98 V 27.2 c 0,-0.9 0.02,-2.42 1.73,-3.37 a 12,12 0 0 1 5.69,-1.37 h 0.12 c 2.44,0.02 4.3,0.6 5.7,1.37 1.7,0.95 1.72,2.47 1.73,3.37 v 2.78 a 0.24,0.24 0 0 1 -0.18,0.24 c -0.35,0.09 -0.8,0.12 -1.23,0.12 z"
         style="fill:url(#U)"
         id="path77" />
      <circle
         cx="4.3499999"
         cy="16.41"
         r="1.7"
         fill="url(#W)"
         style="fill:url(#W)"
         id="circle77" />
      <circle
         cx="13.83"
         cy="16.41"
         r="1.7"
         fill="url(#X)"
         style="fill:url(#X)"
         id="circle78" />
      <g
         filter="url(#Y)"
         id="g79">
        <circle
           cx="13.83"
           cy="16.41"
           r="1.21"
           fill="url(#Z)"
           style="fill:url(#Z)"
           id="circle79" />
      </g>
      <g
         filter="url(#aa)"
         id="g80">
        <circle
           cx="4.4899998"
           cy="16.41"
           r="1.21"
           fill="#140f1a"
           id="circle80" />
      </g>
      <path
         fill="url(#ab)"
         d="M 4.13,19.23 3.85,13 C 3.7,10.77 5.2,8.77 8.18,8.88 h 1.88 c 3.16,0 4.41,1.99 4.27,4.22 l -0.28,6.13 c -0.13,2.05 -1.88,3.58 -4.01,3.65 H 8.23 a 4,4 0 0 1 -4.1,-3.64"
         style="fill:url(#ab)"
         id="path80" />
    </g>
    <g
       transform="matrix(14.762,0,0,14.762,589.45114,368.93331)"
       id="g93">
      <path
         fill="url(#ac)"
         d="m 15.9,30.34 q -0.74,0 -1.24,-0.12 A 0.24,0.24 0 0 1 14.49,29.98 V 27.2 c 0,-0.9 0.02,-2.42 1.73,-3.37 a 12,12 0 0 1 5.69,-1.37 h 0.12 c 2.44,0.02 4.3,0.6 5.69,1.37 1.7,0.95 1.72,2.47 1.73,3.37 v 2.78 a 0.24,0.24 0 0 1 -0.17,0.24 q -0.52,0.13 -1.23,0.12 z"
         style="fill:url(#ac)"
         id="path81" />
      <path
         fill="url(#ad)"
         d="m 15.9,30.34 q -0.74,0 -1.24,-0.12 A 0.24,0.24 0 0 1 14.49,29.98 V 27.2 c 0,-0.9 0.02,-2.42 1.73,-3.37 a 12,12 0 0 1 5.69,-1.37 h 0.12 c 2.44,0.02 4.3,0.6 5.69,1.37 1.7,0.95 1.72,2.47 1.73,3.37 v 2.78 a 0.24,0.24 0 0 1 -0.17,0.24 q -0.52,0.13 -1.23,0.12 z"
         style="fill:url(#ad)"
         id="path82" />
      <path
         fill="url(#ae)"
         d="m 15.9,30.34 q -0.74,0 -1.24,-0.12 A 0.24,0.24 0 0 1 14.49,29.98 V 27.2 c 0,-0.9 0.02,-2.42 1.73,-3.37 a 12,12 0 0 1 5.69,-1.37 h 0.12 c 2.44,0.02 4.3,0.6 5.69,1.37 1.7,0.95 1.72,2.47 1.73,3.37 v 2.78 a 0.24,0.24 0 0 1 -0.17,0.24 q -0.52,0.13 -1.23,0.12 z"
         style="fill:url(#ae)"
         id="path83" />
      <circle
         cx="17.23"
         cy="16.41"
         r="1.7"
         fill="url(#ag)"
         style="display:inline;fill:url(#ag)"
         id="circle83" />
      <circle
         cx="26.709999"
         cy="16.41"
         r="1.7"
         fill="url(#ah)"
         style="display:inline;fill:url(#ah)"
         id="circle84" />
      <g
         filter="url(#O)"
         id="g85">
        <circle
           cx="26.709999"
           cy="16.41"
           r="1.21"
           fill="url(#ai)"
           style="fill:url(#ai)"
           id="circle85" />
      </g>
      <g
         filter="url(#Q)"
         id="g86">
        <circle
           cx="17.370001"
           cy="16.41"
           r="1.21"
           fill="#140f1a"
           id="circle86" />
      </g>
      <path
         fill="url(#aj)"
         d="M 17.01,19.23 16.72,13 c -0.14,-2.24 1.36,-4.23 4.34,-4.13 h 1.88 c 3.16,0 4.41,1.99 4.27,4.22 l -0.28,6.13 c -0.13,2.05 -1.88,3.58 -4.01,3.65 H 21.1 A 4,4 0 0 1 17,19.23"
         style="display:inline;fill:url(#aj)"
         id="path86" />
      <path
         fill="url(#ak)"
         d="m 3.01,30.34 c -0.43,0 -0.88,-0.03 -1.23,-0.12 A 0.24,0.24 0 0 1 1.61,29.98 V 27.2 c 0,-0.9 0.02,-2.42 1.73,-3.37 a 12,12 0 0 1 5.69,-1.37 h 0.12 c 2.44,0.02 4.3,0.6 5.7,1.37 1.7,0.95 1.72,2.47 1.73,3.37 v 2.78 a 0.24,0.24 0 0 1 -0.18,0.24 c -0.35,0.09 -0.8,0.12 -1.23,0.12 z"
         style="fill:url(#ak)"
         id="path87" />
      <path
         fill="url(#al)"
         d="m 3.01,30.34 c -0.43,0 -0.88,-0.03 -1.23,-0.12 A 0.24,0.24 0 0 1 1.61,29.98 V 27.2 c 0,-0.9 0.02,-2.42 1.73,-3.37 a 12,12 0 0 1 5.69,-1.37 h 0.12 c 2.44,0.02 4.3,0.6 5.7,1.37 1.7,0.95 1.72,2.47 1.73,3.37 v 2.78 a 0.24,0.24 0 0 1 -0.18,0.24 c -0.35,0.09 -0.8,0.12 -1.23,0.12 z"
         style="fill:url(#al)"
         id="path88" />
      <path
         fill="url(#am)"
         d="m 3.01,30.34 c -0.43,0 -0.88,-0.03 -1.23,-0.12 A 0.24,0.24 0 0 1 1.61,29.98 V 27.2 c 0,-0.9 0.02,-2.42 1.73,-3.37 a 12,12 0 0 1 5.69,-1.37 h 0.12 c 2.44,0.02 4.3,0.6 5.7,1.37 1.7,0.95 1.72,2.47 1.73,3.37 v 2.78 a 0.24,0.24 0 0 1 -0.18,0.24 c -0.35,0.09 -0.8,0.12 -1.23,0.12 z"
         style="fill:url(#am)"
         id="path89" />
      <circle
         cx="4.3499999"
         cy="16.41"
         r="1.7"
         fill="url(#ao)"
         style="fill:url(#ao)"
         id="circle89" />
      <circle
         cx="13.83"
         cy="16.41"
         r="1.7"
         fill="url(#ap)"
         style="fill:url(#ap)"
         id="circle90" />
      <g
         filter="url(#Y)"
         id="g91">
        <circle
           cx="13.83"
           cy="16.41"
           r="1.21"
           fill="url(#aq)"
           style="fill:url(#aq)"
           id="circle91" />
      </g>
      <g
         filter="url(#aa)"
         id="g92">
        <circle
           cx="4.4899998"
           cy="16.41"
           r="1.21"
           fill="#140f1a"
           id="circle92" />
      </g>
      <path
         fill="url(#ar)"
         d="M 4.13,19.23 3.85,13 C 3.7,10.77 5.2,8.77 8.18,8.88 h 1.88 c 3.16,0 4.41,1.99 4.27,4.22 l -0.28,6.13 c -0.13,2.05 -1.88,3.58 -4.01,3.65 H 8.23 a 4,4 0 0 1 -4.1,-3.64"
         style="display:inline;fill:url(#ar)"
         id="path92" />
    </g>
  </g>
  <g
     stroke="#c7902f"
     stroke-width="0.7"
     paint-order="stroke fill"
     id="g111"
     transform="matrix(1.3823647,0,0,1.3823647,-240.12348,-451.18)">
    <path
       fill="url(#aO)"
       d="m 13.87,3 a 0.65,0.65 0 0 0 -0.65,0.65 v 7.3 h -1.25 a 0.75,0.75 0 0 0 -0.56,1.24 l 4.04,4.55 a 0.75,0.75 0 0 0 1.12,0 l 4.02,-4.55 A 0.75,0.75 0 0 0 20.03,10.94 H 18.75 V 3.65 A 0.65,0.65 0 0 0 18.1,3 Z"
       style="fill:url(#aP)"
       transform="matrix(10.32003,0,0,10.32003,282.036,850.273)"
       id="path109" />
    <path
       fill="url(#aF)"
       d="m 13.87,3 a 0.65,0.65 0 0 0 -0.65,0.65 v 7.3 h -1.25 a 0.75,0.75 0 0 0 -0.56,1.24 l 4.04,4.55 a 0.75,0.75 0 0 0 1.12,0 l 4.02,-4.55 A 0.75,0.75 0 0 0 20.03,10.94 H 18.75 V 3.65 A 0.65,0.65 0 0 0 18.1,3 Z"
       style="fill:url(#aQ);stroke:#c7902f;stroke-width:0.7;paint-order:stroke fill"
       transform="matrix(10.32003,0,0,10.32003,462.787,850.273)"
       id="path110" />
    <path
       fill="url(#aG)"
       d="m 13.87,3 a 0.65,0.65 0 0 0 -0.65,0.65 v 7.3 h -1.25 a 0.75,0.75 0 0 0 -0.56,1.24 l 4.04,4.55 a 0.75,0.75 0 0 0 1.12,0 l 4.02,-4.55 A 0.75,0.75 0 0 0 20.03,10.94 H 18.75 V 3.65 A 0.65,0.65 0 0 0 18.1,3 Z"
       style="fill:url(#aO);stroke:#c7902f;stroke-width:0.7;paint-order:stroke fill"
       transform="matrix(10.32003,0,0,10.32003,643.538,850.273)"
       id="path111" />
  </g>
  <g
     id="g115"
     transform="matrix(1.2684326,0,0,1.2684326,-168.57604,74.854811)">
    <g
       id="g114">
      <g
         filter="url(#softShadow)"
         transform="matrix(0.13250189,-0.0765,0.0765,0.13250189,267.97462,806.76467)"
         id="g97">
        <rect
           width="1208"
           height="1630"
           x="24"
           y="60"
           fill="url(#at)"
           rx="60"
           style="fill:url(#as)"
           id="rect93" />
        <rect
           width="1080"
           height="1502"
           x="88"
           y="124"
           fill="url(#au)"
           rx="54"
           style="fill:url(#av)"
           id="rect94" />
        <rect
           width="974.65997"
           height="1375.52"
           x="140.67"
           y="187.24001"
           stroke="#ecbf47"
           stroke-linecap="round"
           stroke-linejoin="bevel"
           stroke-width="15"
           rx="27.51"
           style="stroke:#f0ca6f"
           id="rect95" />
        <rect
           width="110"
           height="15"
           x="138"
           y="867.5"
           fill="#eabb3d"
           rx="7.5"
           style="fill:#eec265"
           id="rect96" />
        <rect
           width="110"
           height="15"
           x="1008"
           y="867.5"
           fill="#eabb3d"
           rx="7.5"
           style="fill:#eec265"
           id="rect97" />
      </g>
      <g
         filter="url(#hexShadow)"
         transform="matrix(0.13250189,-0.0765,0.0765,0.13250189,270.50969,811.16571)"
         id="g98">
        <use
           xlink:href="#aw"
           id="use97" />
        <use
           xlink:href="#aE"
           id="use98" />
        <path
           fill="url(#ax)"
           d="m 628,484 298,172 c 12,7 20,20 20,34 v 312 c 0,14 -8,27 -20,34 l -275,159 c -14,8 -32,8 -46,0 L 330,1036 c -12,-7 -20,-20 -20,-34 V 690 c 0,-14 8,-27 20,-34 L 605,497 c 14,-8 32,-8 46,0 z"
           style="fill:url(#aH)"
           id="path98" />
      </g>
    </g>
    <g
       id="g113">
      <g
         filter="url(#softShadow)"
         transform="matrix(-0.13336791,-0.077,0.077,-0.13336791,853.34866,1040.0984)"
         id="g102">
        <rect
           width="1208"
           height="1630"
           x="24"
           y="60"
           fill="url(#ay)"
           rx="60"
           style="fill:url(#aI)"
           id="rect98" />
        <rect
           width="1080"
           height="1502"
           x="88"
           y="124"
           fill="url(#az)"
           rx="54"
           style="fill:url(#aJ)"
           id="rect99" />
        <rect
           width="974.65997"
           height="1375.52"
           x="140.67"
           y="187.24001"
           stroke="#ecbf47"
           stroke-linecap="round"
           stroke-linejoin="bevel"
           stroke-width="15"
           rx="27.51"
           style="stroke:#f0ca6f"
           id="rect100" />
        <rect
           width="110"
           height="15"
           x="138"
           y="867.5"
           fill="#eabb3d"
           rx="7.5"
           style="fill:#eec265"
           id="rect101" />
        <rect
           width="110"
           height="15"
           x="1008"
           y="867.5"
           fill="#eabb3d"
           rx="7.5"
           style="fill:#eec265"
           id="rect102" />
      </g>
      <g
         filter="url(#hexShadow)"
         transform="matrix(-0.13336791,-0.077,0.077,-0.13336791,855.89255,1035.68)"
         id="g103">
        <use
           xlink:href="#aw"
           id="use102" />
        <use
           xlink:href="#aE"
           id="use103" />
        <path
           fill="url(#aA)"
           d="m 628,484 298,172 c 12,7 20,20 20,34 v 312 c 0,14 -8,27 -20,34 l -275,159 c -14,8 -32,8 -46,0 L 330,1036 c -12,-7 -20,-20 -20,-34 V 690 c 0,-14 8,-27 20,-34 L 605,497 c 14,-8 32,-8 46,0 z"
           style="fill:url(#aK)"
           id="path103" />
      </g>
    </g>
    <g
       id="g112">
      <g
         filter="url(#softShadow)"
         transform="matrix(0.156,0,0,0.156,530.78514,773.31731)"
         id="g107">
        <rect
           width="1208"
           height="1630"
           x="24"
           y="60"
           fill="url(#aB)"
           rx="60"
           style="fill:url(#aL)"
           id="rect103" />
        <rect
           width="1080"
           height="1502"
           x="88"
           y="124"
           fill="url(#aC)"
           rx="54"
           style="fill:url(#aM)"
           id="rect104" />
        <rect
           width="974.65997"
           height="1375.52"
           x="140.67"
           y="187.24001"
           stroke="#ecbf47"
           stroke-linecap="round"
           stroke-linejoin="bevel"
           stroke-width="15"
           rx="27.51"
           style="stroke:#f0ca6f"
           id="rect105" />
        <rect
           width="110"
           height="15"
           x="138"
           y="867.5"
           fill="#eabb3d"
           rx="7.5"
           style="fill:#eec265"
           id="rect106" />
        <rect
           width="110"
           height="15"
           x="1008"
           y="867.5"
           fill="#eabb3d"
           rx="7.5"
           style="fill:#eec265"
           id="rect107" />
      </g>
      <g
         filter="url(#hexShadow)"
         transform="matrix(0.156,0,0,0.156,530.78514,778.50731)"
         id="g108">
        <use
           xlink:href="#aw"
           id="use107" />
        <use
           xlink:href="#aE"
           id="use108" />
        <path
           fill="url(#aD)"
           d="m 628,484 298,172 c 12,7 20,20 20,34 v 312 c 0,14 -8,27 -20,34 l -275,159 c -14,8 -32,8 -46,0 L 330,1036 c -12,-7 -20,-20 -20,-34 V 690 c 0,-14 8,-27 20,-34 L 605,497 c 14,-8 32,-8 46,0 z"
           style="fill:url(#aN)"
           id="path108" />
      </g>
    </g>
  </g>
</svg>
