<svg fill="none" viewBox="0 0 1256 1750" width="291.969" height="406.205" xmlns:xlink="http://www.w3.org/1999/xlink" xmlns="http://www.w3.org/2000/svg"><defs><radialGradient id="c" cx=".104" cy=".184" r="1" fx=".104" fy=".184" gradientTransform="rotate(135.622 223.67 630.652)scale(980 899.08107)" gradientUnits="userSpaceOnUse"><stop offset="0" stop-color="#ffb955"/><stop offset="1" stop-color="#f97316"/></radialGradient><radialGradient id="g" cx="0" cy="0" r="1" gradientUnits="userSpaceOnUse" gradientTransform="matrix(4.69737 -1.85526 1.70898 4.327 22.276 8.905)"><stop offset=".727" stop-color="#ffec6a" stop-opacity="0"/><stop offset="1" stop-color="#ffec6a"/></radialGradient><radialGradient id="n" cx="0" cy="0" r="1" gradientUnits="userSpaceOnUse" gradientTransform="matrix(0 2.09 -1.90625 0 17.235 17.17)"><stop offset=".193" stop-color="#ffe469"/><stop offset="1" stop-color="#ffe469" stop-opacity="0"/></radialGradient><radialGradient id="o" cx="0" cy="0" r="1" gradientUnits="userSpaceOnUse" gradientTransform="rotate(149.162 6.89 12.85)scale(2.27493 3.45405)"><stop stop-color="#ffd34d"/><stop offset="1" stop-color="#ffd34d" stop-opacity="0"/></radialGradient><radialGradient id="p" cx="0" cy="0" r="1" gradientUnits="userSpaceOnUse" gradientTransform="rotate(83.702 7.352 11.729)scale(12.4237 7.97758)"><stop offset=".121" stop-color="#fffa73"/><stop offset="1" stop-color="#fffa73" stop-opacity="0"/></radialGradient><radialGradient id="q" cx="0" cy="0" r="1" gradientUnits="userSpaceOnUse" gradientTransform="matrix(0 .70434 -7.87152 0 18.284 2.01)"><stop stop-color="#fff45b"/><stop offset="1" stop-color="#fff45b" stop-opacity="0"/></radialGradient><radialGradient id="r" cx="0" cy="0" r="1" gradientUnits="userSpaceOnUse" gradientTransform="rotate(121.572 8.177 7.697)scale(13.1311 12.5983)"><stop offset=".787" stop-color="#c55d73" stop-opacity="0"/><stop offset="1" stop-color="#c55d73"/></radialGradient><radialGradient id="u" cx="0" cy="0" r="1" gradientUnits="userSpaceOnUse" gradientTransform="rotate(130.746 5.33 12.616)scale(2.68113 3.65655)"><stop offset=".201" stop-color="#602543"/><stop offset="1" stop-color="#602543" stop-opacity="0"/></radialGradient><linearGradient id="a" x1="120" x2="1120" y1="100" y2="1650" gradientUnits="userSpaceOnUse"><stop offset="0" stop-color="#f3ebcf"/><stop offset="1" stop-color="#e3d3a3"/></linearGradient><linearGradient xlink:href="#a" id="b" gradientUnits="userSpaceOnUse" x1="120" y1="100" x2="1120" y2="1650"/><linearGradient id="f" x1="22.236" y1="11.944" x2="25.868" y2="8.668" gradientUnits="userSpaceOnUse"><stop stop-color="#fec551"/><stop offset="1" stop-color="#fec551" stop-opacity="0"/></linearGradient><linearGradient id="i" x1="9.565" y1="7.957" x2="7.078" y2="7.247" gradientUnits="userSpaceOnUse"><stop stop-color="#d27840"/><stop offset="1" stop-color="#d27840" stop-opacity="0"/></linearGradient><linearGradient id="m" x1="16.953" y1="19.76" x2="11.891" y2="19.76" gradientUnits="userSpaceOnUse"><stop stop-color="#fbc33a"/><stop offset="1" stop-color="#db7b3c"/></linearGradient><linearGradient id="t" x1="15.142" y1="17.79" x2="18.363" y2="24.147" gradientUnits="userSpaceOnUse"><stop stop-color="#864b60"/><stop offset="1" stop-color="#5d3247"/></linearGradient><filter id="d" x="200" y="220" width="760" height="520" filterUnits="userSpaceOnUse" color-interpolation-filters="sRGB"><feFlood flood-opacity=".16" flood-color="#8b541c" result="flood"/><feComposite in="flood" in2="SourceAlpha" operator="in" result="shadowColor"/><feGaussianBlur in="shadowColor" stdDeviation="18" result="shadowBlur"/><feOffset in="shadowBlur" dy="16" result="shadowOffset"/><feMerge><feMergeNode in="shadowOffset"/><feMergeNode in="SourceGraphic"/></feMerge></filter><filter id="e" x="19.371" y="4.788" width="7.81" height="8.729" filterUnits="userSpaceOnUse" color-interpolation-filters="sRGB"><feFlood flood-opacity="0" result="BackgroundImageFix"/><feBlend in="SourceGraphic" in2="BackgroundImageFix" result="shape"/><feColorMatrix in="SourceAlpha" values="0 0 0 0 0 0 0 0 0 0 0 0 0 0 0 0 0 0 127 0" result="hardAlpha"/><feOffset dy="-.25"/><feGaussianBlur stdDeviation=".25"/><feComposite in2="hardAlpha" operator="arithmetic" k2="-1" k3="1"/><feColorMatrix values="0 0 0 0 0.937255 0 0 0 0 0.576471 0 0 0 0 0.247059 0 0 0 1 0"/><feBlend in2="shape" result="effect1_innerShadow_18_1422"/></filter><filter id="h" x="4.134" y="4.788" width="7.81" height="8.729" filterUnits="userSpaceOnUse" color-interpolation-filters="sRGB"><feFlood flood-opacity="0" result="BackgroundImageFix"/><feBlend in="SourceGraphic" in2="BackgroundImageFix" result="shape"/><feColorMatrix in="SourceAlpha" values="0 0 0 0 0 0 0 0 0 0 0 0 0 0 0 0 0 0 127 0" result="hardAlpha"/><feOffset dy="-.25"/><feGaussianBlur stdDeviation=".25"/><feComposite in2="hardAlpha" operator="arithmetic" k2="-1" k3="1"/><feColorMatrix values="0 0 0 0 0.854902 0 0 0 0 0.458824 0 0 0 0 0.286275 0 0 0 1 0"/><feBlend in2="shape" result="effect1_innerShadow_18_1422"/></filter><filter id="l" x="11.168" y="13.3" width="9.48" height="7.99" filterUnits="userSpaceOnUse" color-interpolation-filters="sRGB"><feFlood flood-opacity="0" result="BackgroundImageFix"/><feBlend in="SourceGraphic" in2="BackgroundImageFix" result="shape"/><feColorMatrix in="SourceAlpha" values="0 0 0 0 0 0 0 0 0 0 0 0 0 0 0 0 0 0 127 0" result="hardAlpha"/><feOffset dx=".5" dy=".25"/><feGaussianBlur stdDeviation=".25"/><feComposite in2="hardAlpha" operator="arithmetic" k2="-1" k3="1"/><feColorMatrix values="0 0 0 0 0.843137 0 0 0 0 0.462745 0 0 0 0 0.215686 0 0 0 1 0"/><feBlend in2="shape" result="effect1_innerShadow_18_1422"/></filter><filter id="s" x="11.305" y="14.97" width="9.224" height="8.899" filterUnits="userSpaceOnUse" color-interpolation-filters="sRGB"><feFlood flood-opacity="0" result="BackgroundImageFix"/><feBlend in="SourceGraphic" in2="BackgroundImageFix" result="shape"/><feColorMatrix in="SourceAlpha" values="0 0 0 0 0 0 0 0 0 0 0 0 0 0 0 0 0 0 127 0" result="hardAlpha"/><feOffset dx="-.3" dy="-.3"/><feGaussianBlur stdDeviation=".375"/><feComposite in2="hardAlpha" operator="arithmetic" k2="-1" k3="1"/><feColorMatrix values="0 0 0 0 0.290196 0 0 0 0 0.14902 0 0 0 0 0.14902 0 0 0 1 0"/><feBlend in2="shape" result="effect1_innerShadow_18_1377"/><feColorMatrix in="SourceAlpha" values="0 0 0 0 0 0 0 0 0 0 0 0 0 0 0 0 0 0 127 0" result="hardAlpha"/><feOffset dx=".2" dy="-.2"/><feGaussianBlur stdDeviation=".075"/><feComposite in2="hardAlpha" operator="arithmetic" k2="-1" k3="1"/><feColorMatrix values="0 0 0 0 0.517647 0 0 0 0 0.372549 0 0 0 0 0.34902 0 0 0 1 0"/><feBlend in2="effect1_innerShadow_18_1377" result="effect2_innerShadow_18_1377"/></filter></defs><rect width="1208" height="1630" x="24" y="60" fill="url(#a)" rx="60" style="fill:url(#b)"/><rect width="1080" height="1502" x="88" y="124" fill="url(#c)" rx="54" style="fill:url(#c)"/><rect width="974.656" height="1375.523" x="140.672" y="187.239" rx="27.51" stroke="#f2d676" stroke-width="15" stroke-linecap="round" stroke-linejoin="bevel"/><text style="font-weight:500;font-size:494.003px;font-family:Outfit;-inkscape-font-specification:&quot;Outfit Medium&quot;;text-align:center;fill:#ecdfb9;stroke:#f2d676;stroke-width:.993933;stroke-linecap:round;stroke-linejoin:round;paint-order:stroke markers fill;filter:url(#d)" x="363.599" y="649.99">+</text><text style="font-weight:500;font-size:494.003px;font-family:Outfit;-inkscape-font-specification:&quot;Outfit Medium&quot;;text-align:center;fill:#ecdfb9;stroke:#f2d676;stroke-width:.993933;stroke-linecap:round;stroke-linejoin:round;paint-order:stroke markers fill;filter:url(#d)" x="681.819" y="649.99">1</text><g style="display:inline"><g filter="url(#e)" fill-rule="evenodd" clip-rule="evenodd" transform="translate(43.72 705.17)scale(37.31531)"><path d="M24.555 6.834c-.9-.25-1.835.27-2.094 1.175a.866.866 0 1 1-1.666-.478 3.435 3.435 0 0 1 4.213-2.369c.034.008.102.025.164.046 2.493.831 2.691 4.214.455 5.45l-4.97 2.75a.866.866 0 1 1-.839-1.516l4.97-2.75c.982-.543.823-1.956-.159-2.288l-.006-.002z" fill="#ffd340"/><path d="M24.555 6.834c-.9-.25-1.835.27-2.094 1.175a.866.866 0 1 1-1.666-.478 3.435 3.435 0 0 1 4.213-2.369c.034.008.102.025.164.046 2.493.831 2.691 4.214.455 5.45l-4.97 2.75a.866.866 0 1 1-.839-1.516l4.97-2.75c.982-.543.823-1.956-.159-2.288l-.006-.002z" fill="url(#f)" style="fill:url(#f)"/><path d="M24.555 6.834c-.9-.25-1.835.27-2.094 1.175a.866.866 0 1 1-1.666-.478 3.435 3.435 0 0 1 4.213-2.369c.034.008.102.025.164.046 2.493.831 2.691 4.214.455 5.45l-4.97 2.75a.866.866 0 1 1-.839-1.516l4.97-2.75c.982-.543.823-1.956-.159-2.288l-.006-.002z" fill="url(#g)" style="fill:url(#g)"/></g><g filter="url(#h)" fill-rule="evenodd" clip-rule="evenodd" transform="translate(43.72 705.17)scale(37.31531)"><path d="M6.307 5.162a3.435 3.435 0 0 1 4.214 2.37.866.866 0 0 1-1.666.477A1.7 1.7 0 0 0 6.738 6.84l-.046.011-.006.002c-.982.332-1.141 1.745-.159 2.288l4.97 2.75a.866.866 0 1 1-.839 1.516l-4.97-2.75c-2.235-1.236-2.037-4.619.456-5.45.061-.02.13-.038.163-.046" fill="#eaa73a"/><path d="M6.307 5.162a3.435 3.435 0 0 1 4.214 2.37.866.866 0 0 1-1.666.477A1.7 1.7 0 0 0 6.738 6.84l-.046.011-.006.002c-.982.332-1.141 1.745-.159 2.288l4.97 2.75a.866.866 0 1 1-.839 1.516l-4.97-2.75c-2.235-1.236-2.037-4.619.456-5.45.061-.02.13-.038.163-.046" fill="url(#i)" style="fill:url(#i)"/></g><g filter="url(#l)" transform="translate(43.72 705.17)scale(37.31531)"><path d="M17.328 17.52V13.3h-3.34v4.22c0 .74-.33 1.45-.9 1.92l-1.92 1.6h8.98l-1.92-1.6a2.51 2.51 0 0 1-.9-1.92" fill="url(#m)" style="fill:url(#m)"/><path d="M17.328 17.52V13.3h-3.34v4.22c0 .74-.33 1.45-.9 1.92l-1.92 1.6h8.98l-1.92-1.6a2.51 2.51 0 0 1-.9-1.92" fill="url(#n)" style="fill:url(#n)"/></g><path d="M17.328 17.52V13.3h-3.34v4.22c0 .74-.33 1.45-.9 1.92l-1.92 1.6h8.98l-1.92-1.6a2.51 2.51 0 0 1-.9-1.92" fill="url(#o)" style="fill:url(#o)" transform="translate(43.72 705.17)scale(37.31531)"/><path d="M628.003 1322.738a260.09 260.09 0 0 1-260.088-260.087V806.668c0-14.553 11.941-26.494 26.494-26.494H861.97c14.553 0 26.494 11.94 26.494 26.494v255.983c0 143.664-116.424 260.087-260.46 260.087" fill="#ea873a"/><path d="M15.658 16.55a6.97 6.97 0 0 1-6.97-6.97V2.72c0-.39.32-.71.71-.71h12.53c.39 0 .71.32.71.71v6.86c0 3.85-3.12 6.97-6.98 6.97" fill="url(#p)" style="fill:url(#p)" transform="translate(43.72 705.17)scale(37.31531)"/><path d="M15.658 16.55a6.97 6.97 0 0 1-6.97-6.97V2.72c0-.39.32-.71.71-.71h12.53c.39 0 .71.32.71.71v6.86c0 3.85-3.12 6.97-6.98 6.97" fill="url(#q)" style="fill:url(#q)" transform="translate(43.72 705.17)scale(37.31531)"/><path d="M15.658 16.55a6.97 6.97 0 0 1-6.97-6.97V2.72c0-.39.32-.71.71-.71h12.53c.39 0 .71.32.71.71v6.86c0 3.85-3.12 6.97-6.98 6.97" fill="url(#r)" style="fill:url(#r)" transform="translate(43.72 705.17)scale(37.31531)"/><g filter="url(#s)" transform="translate(218.094 519.526)scale(25.75204)" style="display:inline"><path d="m16.61 15.66.83 1.72c.1.2.29.35.51.38l1.85.28c.55.08.78.78.37 1.18l-1.28 1.28c-.19.19-.25.47-.17.73l.59 1.71c.2.57-.36 1.11-.91.87l-2.14-.96a.64.64 0 0 0-.54 0l-2.14.96c-.54.24-1.11-.3-.91-.87l.59-1.71c.09-.26.02-.54-.17-.73l-1.28-1.28c-.4-.4-.18-1.1.37-1.18l1.85-.28c.22-.03.41-.17.51-.38l.83-1.72c.27-.52.99-.52 1.24 0" fill="url(#t)" style="fill:url(#t)"/><path d="m16.61 15.66.83 1.72c.1.2.29.35.51.38l1.85.28c.55.08.78.78.37 1.18l-1.28 1.28c-.19.19-.25.47-.17.73l.59 1.71c.2.57-.36 1.11-.91.87l-2.14-.96a.64.64 0 0 0-.54 0l-2.14.96c-.54.24-1.11-.3-.91-.87l.59-1.71c.09-.26.02-.54-.17-.73l-1.28-1.28c-.4-.4-.18-1.1.37-1.18l1.85-.28c.22-.03.41-.17.51-.38l.83-1.72c.27-.52.99-.52 1.24 0" fill="url(#u)" style="fill:url(#u)"/></g></g></svg>