<svg fill="none" viewBox="0 0 1256 1750" width="291.969" height="406.205" xmlns:xlink="http://www.w3.org/1999/xlink" xmlns="http://www.w3.org/2000/svg"><defs><linearGradient id="a" x1="120" x2="1120" y1="100" y2="1650" gradientUnits="userSpaceOnUse"><stop offset="0" stop-color="#f3ebcf"/><stop offset="1" stop-color="#e3d3a3"/></linearGradient><linearGradient id="b" x1="288" y1="431" x2="982" y2="1169" gradientUnits="userSpaceOnUse"><stop offset="0" stop-color="#f5edd2"/><stop offset="1" stop-color="#e6dbb2"/></linearGradient><linearGradient xlink:href="#a" id="i" gradientUnits="userSpaceOnUse" x1="120" y1="100" x2="1120" y2="1650"/><linearGradient xlink:href="#a" id="o" gradientUnits="userSpaceOnUse" x1="120" y1="100" x2="1120" y2="1650"/><linearGradient xlink:href="#b" id="q" gradientUnits="userSpaceOnUse" x1="288" y1="431" x2="982" y2="1169"/><linearGradient xlink:href="#b" id="k" gradientUnits="userSpaceOnUse" x1="288" y1="431" x2="982" y2="1169"/><linearGradient xlink:href="#a" id="e" gradientUnits="userSpaceOnUse" x1="120" y1="100" x2="1120" y2="1650" gradientTransform="rotate(-30 612.716 2437.613)scale(.90994)"/><linearGradient xlink:href="#a" id="f" gradientUnits="userSpaceOnUse" x1="120" y1="100" x2="1120" y2="1650"/><linearGradient xlink:href="#a" id="l" gradientUnits="userSpaceOnUse" x1="120" y1="100" x2="1120" y2="1650"/><radialGradient id="g" cx=".104" cy=".184" r="1" fx=".104" fy=".184" gradientTransform="rotate(135.622 223.67 630.652)scale(980 899.08107)" gradientUnits="userSpaceOnUse"><stop offset="0" stop-color="#ffb955"/><stop offset="1" stop-color="#f97316"/></radialGradient><radialGradient id="c" cx=".104" cy=".184" r="1" gradientUnits="userSpaceOnUse" gradientTransform="rotate(135.622 223.67 630.652)scale(980 899.08107)" fx=".104" fy=".184"><stop offset="0" stop-color="#79c0ec"/><stop offset="1" stop-color="#336bd0"/></radialGradient><radialGradient xlink:href="#c" id="p" gradientUnits="userSpaceOnUse" gradientTransform="rotate(135.622 223.67 630.652)scale(980 899.08107)" cx=".104" cy=".184" fx=".104" fy=".184" r="1"/><radialGradient xlink:href="#c" id="j" gradientUnits="userSpaceOnUse" gradientTransform="rotate(135.622 223.67 630.652)scale(980 899.08107)" cx=".104" cy=".184" fx=".104" fy=".184" r="1"/><filter style="color-interpolation-filters:sRGB" id="m" x="-.104" y="-.059" width="1.184" height="1.119"><feFlood result="flood" flood-opacity=".639" flood-color="#000"/><feGaussianBlur result="blur" in="SourceGraphic" stdDeviation="40.248"/><feOffset result="offset" in="blur" dx="-29.385"/><feComposite result="comp1" operator="in" in="flood" in2="offset"/><feComposite result="comp2" operator="atop" in="comp1" in2="comp1"/></filter><filter id="h" x="-120" y="-80" width="1500" height="1950" filterUnits="userSpaceOnUse" color-interpolation-filters="sRGB"><feFlood flood-opacity=".28" flood-color="#8b541c" result="flood"/><feComposite in="flood" in2="SourceAlpha" operator="in" result="shadowColor"/><feGaussianBlur in="shadowColor" stdDeviation="42" result="shadowBlur"/><feOffset in="shadowBlur" dy="36" result="shadowOffset"/><feMerge><feMergeNode in="shadowOffset"/><feMergeNode in="SourceGraphic"/></feMerge></filter><filter id="r" x="200" y="220" width="760" height="520" filterUnits="userSpaceOnUse" color-interpolation-filters="sRGB"><feFlood flood-opacity=".16" flood-color="#8b541c" result="flood"/><feComposite in="flood" in2="SourceAlpha" operator="in" result="shadowColor"/><feGaussianBlur in="shadowColor" stdDeviation="18" result="shadowBlur"/><feOffset in="shadowBlur" dy="16" result="shadowOffset"/><feMerge><feMergeNode in="shadowOffset"/><feMergeNode in="SourceGraphic"/></feMerge></filter><clipPath clipPathUnits="userSpaceOnUse" id="n"><path style="display:inline;fill:url(#e);stroke-width:.909946" d="m-1043.225 642 857.383-495.01c26.194-15.123 59.457-6.21 74.58 19.984l687.009 1189.934c15.123 26.194 6.21 59.457-19.984 74.58l-857.383 495.01c-26.194 15.124-59.457 6.211-74.58-19.983L-1063.208 716.58c-15.124-26.194-6.211-59.457 19.983-74.58"/></clipPath></defs><rect width="1208" height="1630" x="24" y="60" fill="url(#a)" rx="60" style="fill:url(#f)"/><rect width="1080" height="1502" x="88" y="124" fill="url(#g)" rx="54" style="fill:url(#g)"/><rect width="974.656" height="1375.523" x="140.672" y="187.239" rx="27.51" stroke="#f2d676" stroke-width="15" stroke-linecap="round" stroke-linejoin="bevel"/><g filter="url(#h)" transform="rotate(-15 3315.823 -199.855)scale(.34706)"><g style="display:inline"><rect x="24" y="60" width="1208" height="1630" rx="60" fill="url(#i)" style="fill:url(#i)"/><rect x="88" y="124" width="1080" height="1502" rx="54" fill="#5ca1dc" style="display:inline;fill:url(#j)"/><rect x="140.672" y="187.239" width="974.656" height="1375.523" rx="27.51" style="display:inline;fill:none;stroke:#f2d676;stroke-width:15;stroke-linecap:round;stroke-linejoin:bevel;stroke-dasharray:none;stroke-opacity:1"/><rect x="138" y="867.5" width="110" height="15" rx="7.5" fill="#f0d16a" style="stroke-width:.993933"/><rect x="1008" y="867.5" width="110" height="15" rx="7.5" fill="#f0d16a" style="stroke-width:.993933"/></g><g style="display:inline"><path d="m628 412 344 198c16 9 26 26 26 44v384c0 18-10 35-26 44l-316 182c-17 10-39 10-56 0l-316-182c-16-9-26-26-26-44V654c0-18 10-35 26-44l316-182c17-10 39-10 56 0z" fill="#f2d676" style="display:inline" transform="translate(0 33.25)"/><path d="m628 454 321 185c12 7 19 20 19 34v346c0 14-7 27-19 34l-298 172c-14 8-32 8-46 0l-298-172c-12-7-19-20-19-34V673c0-14 7-27 19-34l298-172c14-8 32-8 46 0z" fill="#5ca1dc" style="display:inline" transform="translate(0 33.25)"/><path d="m628 484 298 172c12 7 20 20 20 34v312c0 14-8 27-20 34l-275 159c-14 8-32 8-46 0l-275-159c-12-7-20-20-20-34V690c0-14 8-27 20-34l275-159c14-8 32-8 46 0z" fill="url(#k)" style="display:inline;fill:url(#k)" transform="translate(0 33.25)"/></g></g><path style="display:inline;fill:url(#l);filter:url(#m)" d="M84 60h1088c33.24 0 60 26.76 60 60v1510c0 33.24-26.76 60-60 60H84c-33.24 0-60-26.76-60-60V120c0-33.24 26.76-60 60-60" transform="rotate(15 -2451.06 2818.524)scale(.3814)" clip-path="url(#n)"/><g filter="url(#h)" transform="rotate(15 -2451.06 2818.524)scale(.3814)"><rect x="24" y="60" width="1208" height="1630" rx="60" fill="url(#o)" style="fill:url(#o)"/><rect x="88" y="124" width="1080" height="1502" rx="54" fill="#5ca1dc" style="display:inline;fill:url(#p)"/><rect x="140.672" y="187.239" width="974.656" height="1375.523" rx="27.51" style="display:inline;fill:none;stroke:#f2d676;stroke-width:15;stroke-linecap:round;stroke-linejoin:bevel;stroke-dasharray:none;stroke-opacity:1"/><rect x="138" y="867.5" width="110" height="15" rx="7.5" fill="#f0d16a" style="stroke-width:.993933"/><rect x="1008" y="867.5" width="110" height="15" rx="7.5" fill="#f0d16a" style="stroke-width:.993933"/><g style="display:inline"><path d="m628 412 344 198c16 9 26 26 26 44v384c0 18-10 35-26 44l-316 182c-17 10-39 10-56 0l-316-182c-16-9-26-26-26-44V654c0-18 10-35 26-44l316-182c17-10 39-10 56 0z" fill="#f2d676" style="display:inline" transform="translate(0 33.25)"/><path d="m628 454 321 185c12 7 19 20 19 34v346c0 14-7 27-19 34l-298 172c-14 8-32 8-46 0l-298-172c-12-7-19-20-19-34V673c0-14 7-27 19-34l298-172c14-8 32-8 46 0z" fill="#5ca1dc" style="display:inline" transform="translate(0 33.25)"/><path d="m628 484 298 172c12 7 20 20 20 34v312c0 14-8 27-20 34l-275 159c-14 8-32 8-46 0l-275-159c-12-7-20-20-20-34V690c0-14 8-27 20-34l275-159c14-8 32-8 46 0z" fill="url(#q)" style="display:inline;fill:url(#q)" transform="translate(0 33.25)"/></g></g><text style="font-weight:500;font-size:494.003px;font-family:Outfit;-inkscape-font-specification:&quot;Outfit Medium&quot;;text-align:center;fill:#ecdfb9;stroke:#f2d676;stroke-width:.993933;stroke-linecap:round;stroke-linejoin:round;paint-order:stroke markers fill;filter:url(#r)" x="363.599" y="649.99">+</text><text style="font-weight:500;font-size:494.003px;font-family:Outfit;-inkscape-font-specification:&quot;Outfit Medium&quot;;text-align:center;fill:#ecdfb9;stroke:#f2d676;stroke-width:.993933;stroke-linecap:round;stroke-linejoin:round;paint-order:stroke markers fill;filter:url(#r)" x="633.819" y="649.99">2</text></svg>