<?xml version="1.0" encoding="UTF-8" standalone="no"?>
<svg
   width="673"
   height="479.28571"
   viewBox="-20 -20 673 479.28571"
   version="1.1"
   id="svg193"
   xmlns="http://www.w3.org/2000/svg"
   xmlns:svg="http://www.w3.org/2000/svg">
  <defs
     id="defs193" />
  <path
     fill="#cb0c01"
     d="m 449,63.000001 q -1,3 -5,5 c -5,3 -11,4 -15,7 l -11,5 -11,4 -17,8 q -6,1 -5,-1 z"
     id="path2" />
  <path
     fill="#163149"
     d="m -18,357 q -2,-29 -2,-60 v -53 c 1,-7 4,-20 9,-25 l 9,-7 17,-8 15,-6 c 7,-2 9,-6 9,-14 l -1,-24 -1,-18 q -1,-17 1,-31 1,-11 6,-18.999999 c 5,-8 15,-11 22,-14 l 19,-8 19,-8 12,-5 q 13,-4 25,-10 l 10,-4 24,-9 12,-6 9,-3 31,-12 c 7,-3.9999996 15,-5.9999996 24,-8.9999996 q 16,-8 40,-17.0000004 l 13,-5 11,-2 h 6 l 29,6 10,4.0000004 11,3 32,10 8,3 32,9.9999996 9,3 8,3 9,4 c 11,5 16,15 18,25 l 1,13 V 122 c -1,2 0,6 2,7 q 2,2 4,0 13,-8 30,-12 l 9,-1 16,5 8,2 55,20 q 12,4 22,10 l 10,7 c 7,9 9,21 9,32 v 100 c 0,11 -1,21 -8,29 q -6,7 -18,12 l -16,7 -16,7 -46,21 -12,4 -38,17 -16,6 c -7,2 -14,7 -22,8 q -12,3 -27,0 l -22,-7 c -9,-3 -15,-2 -24,1 l -20,9 c -11,5 -18,9 -30,13 l -11,5 -28,12 -39,16 q -11,5 -17,6 -16,3 -29,-1 l -50,-16 -25,-10 -6,-2 -8,-3 -26,-9 -26,-10 -17,-6 -7,-3 -30,-11 -17,-6 q -10,-7 -15,-14 -2,-2 -4,-9 z"
     id="path125" />
  <path
     fill="#fcf35f"
     d="m 457,55.000001 -1,3 q -5,5 -13,8 l -15,6 -40,17 -12,4 -4,2 -8,4 L 346,106 l -13,6 -18,7 -22,8 -15,7 -27,11 -13,5 c -3,1 -3,2 -4,5 l 1,22 v 43 l -1,17 v 1 c -4,-10 -2,-21 -2,-32 l -1,-48 c 0,-7 4,-11 10,-13 l 39,-18 20,-7 9,-4 30,-12 10,-4 17,-6.999999 8,-4 c 4,-1 9,-2 14,-5 13,-7 27,-11 41,-18 l 23,-9 q -2,-6 -7,-8 l -56,-19 -38,-12 -21,-6 q -12,-3.9999996 -23,0 l -15,6 c -8,5 -17,7 -25,12 l -23,8 -12,6 -25,9 -38,15 -17,8 -13,5 -16,7 c -12,6 -22,9 -36,13.999999 q -8,3 -11,7 c 7,4 15,5 23,7 l 34,11 q 15,3 33,9 c 8,2 17,4 25,8 3,1 5,3 4,4 L 77,115 h -4 l -3,-3 2,-8 4,-2 5,-2.999999 8,-4 18,-6 h -1 l 9,-3 13,-6 39,-16 17,-7 18,-8 h 2 l 41,-16 5,-3 26,-10 11,-5 29,-10.9999996 h 5 -5 8 l 23,7.9999996 10,3 q 20,5 48,15 l 9,2 6,2 18,7 c 6,2 12,3 17,8 z"
     id="path127" />
  <path
     fill="#f7d260"
     d="m 234,237 v 4 l -5,-1 c -5,3 -13,5 -19,3 l -1,-6 -2,-56 v -27 l -12,-6 c 1,-1 -1,-3 -3,-4 -9,-4 -18,-6 -26,-8 q -18,-6 -33,-9 L 99,116 c -8,-2 -16,-3 -23,-6 q 3,-5 11,-8 c 14,-4.999999 24,-7.999999 36,-13.999999 l 16,-7 13,-5 17,-8 38,-15 25,-10 12,-5 c 7,-3 16,-5 23,-9 8,-4 17,-6 25,-11 l 15,-6 q 11,-3.9999996 23,0 l 21,6 c 13,3 23,8 38,12 l 56,19 q 5,2 7,7 l -23,10 c -14,7 -28,11 -41,18 -5,3 -10,4 -14,5 l -8,4 L 349,100 l -10,4 -30,12 -9,4 -20,7 -39,18 c -6,2 -10,6 -10,13 l 1,48 c 0,11 -2,22 0,32 z"
     id="path128" />
  <path
     fill="#fcf35f"
     d="m 404,51.000001 -23,-6 -37,-14 -8,-2 -12,-4 q -5,-2 -9,0 l -36,17 -17,7 -17,7 q -19,10 -30,14 l -28,12 -16,7 q -11,3 -21,9 l -4,1 h -2 q 11,-9 23,-14 l 28,-11 11,-5 q 8,-5 11,-5 l 14,-7 19,-8 19,-8 q 21,-11 44,-20 6,-3 14,0 l 40,13 16,6 c 5,2 14,4 21,8 z"
     id="path129" />
  <path
     fill="#da5d1d"
     d="m 404,51.000001 -1,2 -4,2 -24,11 -31,13 c -4,2 -11,3 -16,6 l -17,7 L 289,101 l -21,9 -38,17 c -4,2 -7,3 -12,1 l -44,-16 -13,-4 q -9,-4 -19,-6 -2,0 1,-2 l 3,-0.999999 3,-1 q 11,-6 22,-9 l 16,-7 28,-12 q 11,-4 30,-14 l 17,-7 17,-7 36,-17 q 4,-2 9,0 l 12,4 8,2 37,14 z M 234,246 v -9 l 1,-17 v -43 l -1,-22 c 1,-3 1,-4 4,-5 l 13,-5 27,-11 15,-7 22,-8 18,-7 13,-6 18,-6.999999 8,-4 4,-2 11,-3 41,-18 15,-6 q 8,-3 13,-8 l 1,-3 v 2 c 1,27 2,52.999999 0,78.999999 l 2,7 -3,4 -11,6 -49,22 h -5 l -4,-14 v -6 l -1,-25 -1,-18 -2,-9 -3,-7.999999 q -7,-1 -11,4 L 367,106 l -1,13 1,66 q -16,10 -28,15 l -26,11 -17,8 -7,3 -26,12 z"
     id="path130" />
  <path
     fill="#ee7620"
     d="m 72,104 -2,7 2,4 h 5 l 118,33 11,5 1,28 2,56 1,5 c 6,3 14,1 18,-2 l 5,1 1,-2 v 7 l -7,3 c -3,2 -6,1 -10,0 l -9,-3 -19,-6 -22,-7 -15,-6 -43,-14 -3,-1 -25,-8 c -4,-2 -9,-3 -9,-8 l -1,-24 -1,-24 -1,-38 q 0,-3 3,-6"
     id="path132" />
  <path
     fill="#fcf35f"
     d="m 620,179 q 1,3 -1,5 l -14,6 -12,6 -8,4 -9,4 -8,4 -8,4 -10,4 -15,8 -8,3 -6,3 -10,5 q -9,5 -31,13 l -10,5 -10,5 -7,2 q -2,1 -2,3 v 103 l -4,1 v -42 l -1,-44 -1,-15 c 1,-8 6,-10 13,-12 l 6,-4 18,-8 27,-12 14,-7 15,-6 c 11,-6 19,-10 30,-14 l 11,-6 26,-12 8,-2 2,-4 -11,-5 c -7,-3 -12,-6 -20,-8 l -20,-8 -26,-10 c -6,-2 -13,-1 -20,3 l -11,6 q 15,-1 28,4 l 26,8 16,8 q -5,6 -12,10 l -30,14 -14,6 c -11,6 -23,10 -34,15 l -14,7 -28,11 c -6,3 -11,3 -17,1 l -27,-13 -13,-5 q -2,-1 -1,-3 l 6,-1 5,2 32,16 q 5,2 12,1 l 16,-7 c 8,-5 15,-7 25,-12 l 54,-24 22,-10 10,-5 q -15,-8 -30,-13 c -9,-4 -19,-6 -29,-3 h -13 l -2,-2 q -2,-2 0,-4 l 9,-5 10,-5 9,-5 q 7,-4 15,0 l 21,7 10,4 25,10 21,9 q 3,2 5,6"
     id="path135" />
  <path
     fill="#f7d260"
     d="m 451,322 v 45 h -11 c -3,0 -4,-1 -5,-2 -4,0 -6,-1 -8,-3 l -2,-10 v -83 l -1,-7 -22,-9 -4,-5 -2,-4 -6,-6 -26,-14 -3,-2 c -1,-3 0,-4 2,-5 4,-1 6,-3 11,-2 l 19,4 -5,1 q -2,2 0,3 l 13,5 27,13 c 6,2 11,2 17,-1 l 28,-11 14,-7 c 11,-5 23,-9 34,-15 l 14,-6 30,-14 12,-8 q -7,-6 -16,-10 l -26,-8 q -13,-5 -27,-3 l 10,-7 c 7,-4 14,-5 20,-3 l 26,10 20,8 c 8,2 13,5 20,8 l 10,4 v 4 l -7,2 -28,13 -11,6 c -11,4 -19,8 -30,14 l -15,6 -14,7 -27,12 -18,8 -6,4 c -7,2 -12,4 -13,12 l 1,15 1,44 v 41 l 2,1 z"
     id="path136" />
  <path
     fill="#ee7620"
     d="m 495,158 q -2,2 0,4 l 2,2 h 13 q 2,2 6,2 c 8,0 15,1 22,4 l 18,6 q 3,1 4,4 l -16,8 -34,15 -18,8 -13,6 -31,14 c -7,4 -11,5 -17,2 q -10,-3 -22,-10 -5,-2 -11,-2 l -5,-2 -19,-4 c -5,-1 -7,1 -11,2 -2,1 -3,2 -3,4 l 4,3 -4,-1 -1,-4 c 1,-2 4,-2 6,-3 l 6,-2 11,-5 8,-3 q 25,-12 51,-22 l 3,-2 44,-21 z"
     id="path137" />
  <path
     fill="#da5d1d"
     d="m 398,221 q 6,0 11,2 12,7 22,10 c 6,3 10,2 17,-2 l 31,-14 13,-6 18,-8 34,-15 16,-7 q -1,-4 -4,-5 l -18,-6 c -7,-3 -14,-4 -22,-4 l -6,-2 c 10,-3 20,-1 29,3 l 30,10 c -3,4 -7,7 -10,8 l -22,10 -54,24 c -10,5 -17,7 -25,12 l -15,7 q -8,1 -13,-1 z"
     id="path138" />
  <path
     fill="#da5d1d"
     d="m 398,248 3,4 22,8 2,9 v 83 l 1,9 c 3,3 5,4 9,4 l 4,2 h 1 l 9,2 2,-47 v -59 q 0,-2 2,-3 l 7,-2 10,-5 10,-5 q 22,-8 31,-13 l 10,-5 6,-3 8,-3 15,-8 10,-4 8,-4 8,-4 9,-4 8,-4 12,-6 13,-5 q 3,-3 2,-6 l 1,4 v 109 l -166,77 -8,1 -9,-2 -7,-2 -19,-6 -9,-3 -1,-13 -1,-68 q 0,-12 -3,-28"
     id="path139" />
  <path
     fill="#f7d260"
     d="m 59,224 -9,3 2,2 -6,1 c 1,4 2,4 4,5 l 14,5 c 7,4 11,7 16,8 l 24,6 30,11 28,10 30,9 25,10 c 7,4 10,5 17,2 l 31,-13 33,-13 q 7,-4 18,-7 l 11,-5 15,-4 c 6,-1 13,1 15,7 -7,5 -18,8 -25,12 l -32,14 -17,7 -10,5 -24,11 c -4,1 -11,3 -15,8 l -1,8 1,58 v 21 q 0,10 4,2 v 4 l -1,4 c -4,-3 -5,-6 -11,-7 l -12,5 -3,-18 -1,-27 -1,-23 v -23 q 1,-5 -4,-7 l -18,-7 -36,-13 -25,-9 -1,15 v 25 l -1,21 -7,5 -6,-5 c 3,0 3,-3 3,-5 v -41 c -1,-9 -1,-16 -3,-23 l -18,-9 -16,-8 -23,-9 -18,-7 q -7,-3 -12,-8 c 3,-4 7,-6 14,-9 q 4,-1 6,-5 l -4,-1 q 4,-3 8,-2 z"
     id="path142" />
  <path
     fill="#fcf35f"
     d="m 52,229 18,9 24,8 9,3 48,17 19,6 12,4 22,7 16,7 c 7,4 11,2 18,-1 l 9,-4 c 6,-1 9,-3 15,-6 l 8,-3 15,-6 9,-3 q 11,-6 24,-10 l 7,-3 9,-3 q 8,-3 16,-3 l 10,6 3,2 2,3 q 0,4 -3,5 l -30,14 -17,7 -13,6 -4,2 -8,3 -8,4 -14,6 -18,8 -12,5 v 88 q -4,8 -4,-2 v -21 l -1,-58 v -7 c 5,-6 12,-8 16,-9 l 24,-11 10,-5 17,-7 32,-14 25,-11 c -2,-7 -9,-9 -15,-8 l -15,4 -11,5 q -11,3 -18,7 l -33,13 -31,13 c -7,3 -10,2 -17,-2 l -25,-10 -30,-9 -28,-10 -30,-11 -24,-6 c -5,-1 -9,-4 -16,-8 l -14,-5 -5,-3 q 4,-3 7,-3"
     id="path143" />
  <path
     fill="#ee7620"
     d="m 14,236 q -1,3 1,3 l 9,5 -6,-2 q 2,4 5,5 l 20,8 37,17 21,8 5,3 1,3 1,-3 q 3,27 2,55 l 1,9 3,4 8,-1 3,-24 v -25 l 1,17 1,-7 1,-20 8,2 c 7,3 15,4 21,8 12,5 31,10 45,17 l 3,2 1,15 1,11 2,42 q 0,4 2,7 l 3,18 12,-5 c 6,1 7,4 11,7 l 1,-4 1,4 q 6,2 8,1 l 56,-26 37,-17 14,-6 q 4,-1 8,-5 v -98 q 3,-1 3,-5 2,3 2,9 v 96 c 0,2 -1,3 -3,4 l -32,14 -21,10 -30,14 -15,7 -21,8 -12,5 h -5 l -13,-4 -5,-2 -6,-2 -29,-11 -16,-5 -56,-21 -6,-2 -5,-1 -37,-14 -9,-3 -13,-6 -15,-7 c -3,-2 -3,-4 -3,-8 v -22 l -1,-27 c 0,-17 -2,-31 -1,-47 l -1,-5 z"
     id="path145" />
  <path
     fill="#da5d1d"
     d="m 362,264 v 97 q -4,5 -8,6 l -14,6 -37,17 c -18,7 -38,18 -56,26 l -5,1 -4,-6 v -85 l -1,-6 13,-6 18,-8 14,-6 8,-4 8,-3 4,-2 13,-6 17,-7 z"
     id="path148" />
</svg>
