<?xml version="1.0" encoding="UTF-8" standalone="no"?>
<svg
   width="172.35884"
   height="169.80859"
   viewBox="-7 -19 172.35885 169.8086"
   version="1.1"
   id="svg122"
   xmlns="http://www.w3.org/2000/svg"
   xmlns:svg="http://www.w3.org/2000/svg">
  <defs
     id="defs122" />
  <g
     id="g1"
     transform="translate(-994.84,-41.238355)">
    <path
       id="path52"
       d="m 1085.1641,22.251953 c -3.6186,0.364293 -6.9321,1.754002 -10.0971,3.548414 -5.587,3.076815 -10.1234,7.792773 -13.9883,12.71788 -3.099,3.814686 -6.1822,7.642029 -9.2623,11.471987 -1.7296,-1.188572 -3.8308,-2.398174 -6.0058,-1.804318 -4.3843,0.999661 -7.7263,4.336718 -10.3497,7.810178 -2.8996,3.907756 -4.9207,8.344846 -6.7276,12.800219 -2.0975,5.063705 -3.8645,10.2531 -5.5751,15.457593 -2.9385,-0.722914 -6.1966,-1.534746 -9.0892,-0.204862 -3.4816,1.717688 -5.4119,5.359491 -6.6794,8.86151 -1.5381,4.167333 -2.0375,8.616426 -2.3381,13.020266 -0.2619,2.859 -0.307,5.92873 -0.6628,8.85824 -0.4822,1.85851 -2.6519,2.82267 -4.42406,2.30638 -2.63456,-0.21447 -5.59794,0.79034 -6.89201,3.24287 -1.04948,1.72451 -1.3477,3.835 -0.98669,5.80427 -0.0667,1.38006 -0.39528,2.66932 -0.2379,4.06463 0.10559,3.81132 0.58246,7.63775 1.38146,11.43755 0.82415,4.07128 2.04909,8.18968 3.96314,11.96945 2.45159,4.89727 5.79076,9.38905 9.92776,12.98558 2.3883,1.38358 4.9443,2.49539 7.2956,3.92169 1.518,1.45715 1.7419,3.8261 1.0433,5.72846 -0.2398,2.49842 -0.4633,4.94848 -0.1186,7.4804 0.2963,1.73611 0.6301,3.74088 2.1692,4.8333 1.2352,0.8699 2.5246,1.71635 3.9366,2.26856 2.0519,0.60258 4.2,0.80815 6.3192,1.04085 2.7445,0.23739 5.5356,0.28713 8.2502,-0.20876 0.8053,0.014 1.6074,-0.0772 2.2929,-0.53582 0.9089,-0.42435 1.7339,-1.1538 1.9117,-2.18368 1.8348,-4.8891 3.0826,-9.98542 4.1838,-15.05221 4.9528,0.15881 9.8058,-0.27991 14.7038,-1.04923 3.7524,-0.60027 7.6146,-1.39334 11.456,-1.7485 4.0987,-0.42822 8.2312,-0.52614 12.3027,-1.21065 2.6765,-0.41968 5.3602,-0.95597 7.9117,-1.62296 9.0692,-2.33766 17.8091,-6.3861 24.9891,-12.46046 2.9944,-2.62895 4.971,-6.26363 5.9699,-10.09324 0.8201,-2.65977 3.1567,-4.64347 5.7723,-5.44146 4.2575,-1.91786 8.4074,-4.43908 11.3353,-8.1468 0.9335,-1.57171 1.1512,-3.44879 1.487,-5.21752 0.4171,-1.82704 0.3312,-3.69825 0.2532,-5.55487 0.1097,-0.53118 -0.2527,-1.34223 0.1558,-1.6965 4.4641,-2.14682 8.0016,-5.99572 10.0798,-10.45789 0.6573,-2.43801 -0.1117,-4.94549 -0.151,-7.39953 0.263,-1.907954 2.1202,-2.863807 3.1916,-4.27605 3.3797,-3.81331 6.0723,-8.56188 6.3319,-13.747389 0.077,-2.221516 -0.6568,-4.726325 -2.7175,-5.87303 -2.0262,-1.324537 -4.4623,-2.032924 -6.8868,-1.855537 -3.1419,0.0066 -6.3017,0.499278 -9.2017,1.744625 -1.8752,0.671716 -3.8883,1.29399 -5.8916,1.055904 -2.9375,-1.470182 -6.4506,-2.694721 -9.6774,-1.607118 -5.1564,1.496679 -9.9598,3.968276 -14.5826,6.655941 -1.3351,0.731853 -3.1375,0.395113 -4.0215,-0.869362 -0.8961,-1.154895 -0.563,-2.668725 -0.3429,-3.985259 0.3738,-2.9562 0.8256,-5.845623 0.9146,-8.818889 -0.2348,-1.954992 -1.8592,-3.366589 -3.3755,-4.439546 -2.0457,-1.384031 -4.4512,-2.061186 -6.8226,-2.634682 -0.7526,-0.272825 -1.0584,-1.145344 -0.8226,-1.869468 0.1281,-4.307676 0.3761,-8.626914 0.4202,-12.927407 -0.6551,-1.608996 0.088,-3.332466 -0.1794,-4.991738 -0.037,-1.222618 -0.1542,-2.491966 -0.3239,-3.78822 -0.6182,-4.427027 -1.8201,-8.796606 -3.7131,-12.850465 -1.2639,-2.433084 -3.7058,-4.395428 -6.5301,-4.457493 -0.4242,-0.03041 -0.8502,-0.01932 -1.2749,-0.0058 z"
       style="fill:#aa8800" />
    <g
       id="g2">
      <path
         d="m 1089.79,38.03 c -2.24,-0.57 -3.2,-4.05 -3.88,-5.91 q -4.44,3.82 -6.87,7.7 c -2.99,4.76 -7.17,9.28 -9.37,14.4 q -0.96,2.24 -2.32,5.5 l -2.2,11.4 c -1.7,-4.01 -4.82,-9.74 -4.9,-13.39 q -0.13,-5.79 3.1,-11.32 7.38,-12.6 20.05,-18.81 1,-0.49 1.16,-0.48 z"
         fill="#fef25e"
         id="path53" />
      <path
         d="m 1089.79,38.03 c 1.21,6.21 1.85,18.88 -2.56,23.96 l -20.09,12.24 q -1.88,-1.58 -1.99,-3.11 l 2.12,-11.14 q 1.44,-3.52 2.4,-5.76 c 2.2,-5.12 6.38,-9.64 9.37,-14.4 q 2.43,-3.88 6.07,-7.86 c 1.48,2.02 2.44,5.5 4.68,6.07"
         fill="#fed108"
         id="path55" />
      <path
         d="m 1101.29,47.07 q -0.68,-0.02 -0.25,-1.12 z"
         fill="#011127"
         id="path59" />
      <path
         d="m 1056.29,90.18 q -0.11,-3.26 -0.89,-6.43 -0.72,-2.95 -2.59,-5.94 -2.53,-4.02 -6.7,-11.83 l -0.63,-4.14 q -3.66,10.67 -5.47,20.89 -0.44,2.46 -0.37,5.51 0.07,2.63 0.23,5.54 -3.01,-3.16 -5.46,-5.93 c -1.82,-2.06 -2.38,-2.71 -2.13,-5.62 q 1.21,-13.95 9.03,-24.85 1.57,-2.21 3.33,-3.1 c 5.45,3.26 7.52,6.82 9.63,10.4 q 4.58,7.78 5.3,17.56 z"
         fill="#fef25e"
         id="path62" />
      <path
         d="m 1056.29,90.18 q -3.13,6.42 -4.62,13.52 -2.74,1.57 -4.16,-0.22 -4.06,-5.07 -7.64,-9.7 -0.16,-2.91 -0.23,-5.54 -0.07,-3.05 0.37,-5.51 1.81,-10.22 4.89,-20.94 l 1.02,3.57 q 4.36,8.43 6.89,12.45 1.87,2.99 2.59,5.94 0.78,3.17 0.89,6.43"
         fill="#fed108"
         id="path64" />
      <path
         d="m 1100.89,74.71 q -1.06,0.7 -1.7,1.99 -11.36,2.12 -14.11,2.75 c -7.13,1.61 -15.02,8.25 -19.61,13.51 -0.83,0.95 -1.88,1.41 -2.23,2.46 q -1.75,0.74 -2.53,1.28 c 2.59,-10.06 9.24,-17.39 18.31,-22.2 5.59,-2.98 14.82,-4.05 21.02,-4.53 z"
         fill="#fef25e"
         id="path69" />
      <path
         d="m 1100.89,74.71 c -0.83,6.44 -5.32,20.25 -12.4,22.07 q -1.27,0.33 -3.44,0.35 -13.3,0.13 -25.7,6.31 l 1.36,-6.74 q 0.78,-0.54 1.73,-0.63 c 1.15,-1.7 2.2,-2.16 3.03,-3.11 4.59,-5.26 12.48,-11.9 19.61,-13.51 q 2.75,-0.63 13.53,-2.32 1.22,-1.72 2.28,-2.42"
         fill="#fed108"
         id="path71" />
      <path
         d="m 1153.93,88.36 q -10.75,-0.55 -21.34,8.03 l 3.52,-10.87 q 10.03,-4.96 18.17,-4.34 0.77,5.27 -0.35,7.18 m -24.25,-0.42 q -6.27,0.92 -11.8,4.39 l -1.74,-3.45 q 5.81,-4.47 10.41,-6.33 c 4.35,-1.77 3.64,3.15 3.13,5.39"
         fill="#fef25e"
         id="path73" />
      <path
         d="m 1153.93,88.36 q -3.44,6.83 -8.72,10.88 l -13,-0.67 q -0.26,-1.78 0.38,-2.18 10.59,-8.58 21.34,-8.03 m -24.25,-0.42 q -0.7,5.79 -4.28,10.28 -3.1,2.38 -6.17,3.27 0.32,-5.08 -1.35,-9.16 5.53,-3.47 11.8,-4.39"
         fill="#fed108"
         id="path76" />
      <path
         d="m 1041.13,125.04 q -2.98,-4.54 -5.29,-9.32 -2.86,-5.89 -4.45,-7.74 -2.93,-3.43 -8.13,-7.2 -2.7,-1.95 -4.78,-4.02 l -1.52,10.33 0.79,9 0.94,1.29 0.73,2.9 c -3.64,-2.64 -6.48,-3.77 -7.17,-9.2 -0.8,-6.28 -0.26,-16.6 3.63,-22.1 q 8.34,1.17 13.84,6 c 9.23,8.11 14.35,17.41 11.41,30.06"
         fill="#fef25e"
         id="path77" />
      <path
         d="m 1113.11,103.22 -1.05,-5.49 q -8.24,0.8 -11.32,7.85 l -2.42,-5.12 q 3.57,-7.58 10.38,-9.33 6.14,6.1 4.41,12.09"
         fill="#fef25e"
         id="path79" />
      <path
         d="m 1041.13,125.04 -2.99,13.84 q -8.08,-11.13 -18.72,-18.6 l -0.33,-2.11 -0.94,-1.28 -1.19,-9.37 0.63,-10.42 q 2.97,1.73 5.67,3.68 5.2,3.77 8.13,7.2 1.59,1.85 4.45,7.74 2.31,4.78 5.29,9.32 m 71.98,-21.82 c -0.66,4.95 -2.31,8.62 -6.94,9.76 -1.5,-4.44 -3.49,-4.55 -5.43,-7.4 q 3.08,-7.05 10.74,-8.25 z"
         fill="#fed108"
         id="path82" />
      <path
         d="m 1001.2,104.01 q 0.04,0.51 -0.12,1.04 z"
         fill="#011127"
         id="path85" />
      <path
         d="m 1092.77,111.12 q -1.54,1.27 -1.83,0.74 -6.23,-1.07 -10.68,-0.55 -9.62,1.12 -16.97,5.68 -3.21,2 -7.45,6.8 -0.89,1 -1.44,0.7 -0.97,-0.52 -1.56,-1.23 l -5.24,3.2 c 4.66,-13.38 18.02,-21.41 31.54,-22.26 3.87,-0.24 7.74,-0.59 10.44,0.67 q 3.93,1.82 3.19,6.25"
         fill="#fef25e"
         id="path86" />
      <path
         d="m 1117.53,111.88 c 0.56,-1.71 2.51,-2.97 4.53,-4.28 q 5.4,-3.52 11.48,-3.46 c 3.4,0.03 7.38,0.29 10.54,1.63 q -2.27,6.43 -6.76,10.31 -1.85,1.6 -2.66,1.58 -1.46,-0.2 -6.26,-2.05 c -3.49,-1.35 -6.99,-1.65 -10.1,-2.37 z"
         fill="#fed108"
         id="path87" />
      <path
         d="m 1092.77,111.12 q -2.69,9.62 -9.86,15.78 c -1.56,1.34 -5.63,1.73 -8.42,1.81 q -10.72,0.32 -16.21,2.32 -4.86,1.78 -11.95,4.5 l 1.27,-9.07 4.52,-3.29 q 1.31,0.8 2.28,1.32 0.55,0.3 1.44,-0.7 4.24,-4.8 7.45,-6.8 7.35,-4.56 16.97,-5.68 4.45,-0.52 7.51,-0.83 3.46,1.91 5,0.64"
         fill="#fed108"
         id="path91" />
      <path
         d="m 1134.08,127.77 c -9,-2.61 -17.38,-4.55 -26.8,-2.88 q -2.27,0.4 -9.28,4.43 0.2,-3.38 2.97,-5.6 c 7.69,-6.19 18.62,-7.88 27.04,-1.99 q 1.68,1.18 6.07,6.04"
         fill="#fef25e"
         id="path95" />
      <path
         d="m 1029.41,157.37 q -1.42,-1.05 -1.24,-1.56 -2.79,-3.99 -3.35,-5.1 c -3.55,-7.06 -8.2,-12.46 -13.82,-16.84 q -2.69,-2.11 -7.26,-4.13 l -1.19,10.68 1.3,6.92 0.41,0.04 -2,-10.59 0.71,-0.45 3.9,15.91 q -1.57,-0.64 -1.24,-2.58 0.08,1.19 -0.07,2.36 -1.11,1.03 -1.11,1.73 -3.22,-5.67 -5.1,-15.28 -1.46,-7.43 -0.97,-13.07 c 0.37,-4.28 4.18,-3.97 7.25,-3.01 q 16.82,5.25 23.35,20.14 3,6.82 0.43,14.83"
         fill="#fef25e"
         id="path97" />
      <path
         d="m 1134.08,127.77 q -0.96,2.12 -5.43,3.81 -8.76,3.31 -14.31,2.84 c -2.85,-0.24 -5.16,-1.16 -8.37,-2.42 q -0.95,-0.37 -4.18,-0.9 -2.77,-0.45 -3.79,-1.78 7.01,-4.03 9.28,-4.43 c 9.42,-1.67 17.8,0.27 26.8,2.88"
         fill="#fed108"
         id="path99" />
      <path
         d="m 987.88,125.39 q 0.44,1.21 -0.04,1.92 z"
         fill="#011127"
         id="path100" />
      <path
         d="m 1029.41,157.37 q -1.24,3.22 -4.63,5.15 c -8.49,4.84 -16.71,-0.64 -20.33,-8.76 q 0,-0.7 0.69,-1.1 0.57,-1.8 0.49,-2.99 -0.33,1.94 0.71,2.89 l -3.15,-16.09 h -0.73 l 1.87,10.82 -0.42,0.09 -1.32,-6.39 0.34,-10.74 q 5.38,1.51 8.07,3.62 c 5.62,4.38 10.27,9.78 13.82,16.84 q 0.56,1.11 1.22,1.32 1.95,4.29 3.37,5.34"
         fill="#fed108"
         id="path103" />
      <path
         d="m 1084.23,138.84 q -6.24,1.91 -11.81,3.63 -5.48,1.7 -11.67,4.01 -6.61,2.46 -15.58,4.43 -1.68,1.52 -2.75,1.48 l -1.21,2.8 q -1.25,1.08 -1.47,1.7 c -3.76,-14.97 19.8,-19.64 29.88,-21.47 q 9.32,-1.68 14.61,3.42"
         fill="#fef25e"
         id="path104" />
      <path
         d="m 1110.26,140.45 q 0.66,2.57 2.43,3.72 l -17.66,1.45 q -2.98,4.06 -7.48,5.15 c 2.27,-4.37 4.55,-7.64 4.62,-12.85 q 10.59,-1.7 18.09,2.53"
         fill="#fef25e"
         id="path106" />
      <path
         d="m 1084.23,138.84 q -0.62,2.27 -1.17,4.03 -0.7,2.22 -1.71,3.79 -9.38,14.58 -26.35,19.59 -2.8,0.83 -5.31,1.12 c -6.6,0.75 -10.23,-3.85 -9.95,-10.48 q 0.22,-0.62 1,-1.05 l 0.81,-2.74 q 1.94,-0.67 2.45,-1.4 10.14,-2.76 16.75,-5.22 6.19,-2.31 11.67,-4.01 5.57,-1.72 11.81,-3.63 m 3.32,11.93 q 4.5,-1.09 6.71,-4.7 l 18.3,-1.4 q -1.64,-1.65 -2.3,-4.22 l 5.26,4.27 c -8.12,13.54 -22.86,16.52 -37.04,17.19 q 5.37,-5.21 9.07,-11.14"
         fill="#fed108"
         id="path109" />
      <path
         d="m 1034.81,175.5 q -3.11,-6.12 -10.63,-6.16 l 6.29,-5.17 q 5.48,4.76 4.34,11.33"
         fill="#fef25e"
         id="path120" />
      <path
         d="m 1024.18,169.34 q 7.52,0.04 10.63,6.16 l -1.12,11.14 q -5.32,0.7 -8.44,-0.35 c -2.68,-0.9 -2.51,-3.5 -2.57,-6.11 q -0.15,-5.85 1.5,-10.84"
         fill="#fed108"
         id="path121" />
    </g>
  </g>
</svg>
