<svg xmlns="http://www.w3.org/2000/svg" width="3534" height="730" viewBox="-20 -20 3534 730"><path fill="#163149" d="M1757 112h9c9 2 17 2 25 6q13 5 23 13l5 1q25-8 50-6l13 3 6 1 22 10 14 11c6 6 9 11 14 18q3 5 5 14l3 12 1 5q2 3 5 3l4 1 3 4 12 5 12 8 10 6 8 7c10 7 17 14 24 24 10 16 8 36-3 51l-8 10-5 4-16 9c-4 2-8 3-13 3l-6 2 1 24 1 7-1 17c-2 17-10 34-21 47-6 6-13 10-18 12-4 3-7 5-8 10l-5 19-6 13-11 17c-6 9-18 15-23 19s-4 8-4 14l1 22c1 11 0 23-10 29-10 5-17 6-29 8-14 2-23 2-41 2l-10-1c-14-3-13 8-23 14q-9 6-20 7c-14 1-30 1-45-2-8-2-16-5-22-11-9-11-10-22-11-35q0-4-4-3l-3-3 3-2q-19 1-33-1c-14-1-29-7-41-14q-3 2-1 2h-7l-1-1c-3 7-2 19-3 24 0 4-4 9-7 13q-7 7-17 9l-10 1-45 1c-17 0-29-8-32-25l-2-12-1-45c0-6 0-11-4-15q2 8 2 17v34q-3-4-2-9v-30q0-9-3-16c-1-4-4-7-7-10l5 2v-1l-28-14c-9-5-18-13-24-22l-6-8q-12-21-11-45c1-11 3-23 8-33l7-11c2-2 3-5 2-7q-3-10-3-16l-3-15-1-5 4-20 5-12 5-9 11-12 10-8 22-11q1-4 4-3 4-2 6-6l11-12q3-2 3-4l6-4c10-8 24-15 37-17l12-2 17-1 20 2 9-12q12-15 29-25l14-6c10-2 20-6 27-6l15-1 12 1 10 2 9-6 12-9 20-12 12-2 17-2"/><path fill="#cb0c01" d="M1084 215q-1 3-5 5c-5 3-11 4-15 7l-11 5-11 4-17 8q-6 1-5-1z"/><path fill="#163549" d="M187 239v1h-1z"/><path fill="#6aa42e" d="m520 492 2 2-3 1h-58 14l-2-2h-17l-14-1z"/><path fill="#010102" d="M1548 567q-12 5-21 5h-24c-8-1-12-5-11-13l2-24c0-6 0-9 2-14l10 3c17 6 26 10 40 12 4 5 5 8 5 11q1 11-3 20"/><path fill="#a8aeb1" d="M1495 525q4-1 6 1l21 8c9 3 16 6 24 6l2 23-16 4h-33q-3 0-3-3l-1-37z"/><path fill="#02043f" d="M250 577v-39c0-6 4-9 10-9h75q3 1 4 4l1 6v39c-1 8-8 8-14 8h-42l-25-1q-6 0-8-7z"/><path fill="#74828e" d="m1544 545 1 16c-8 3-13 4-18 3h-25q-3-2-3-5v-29l17 6c9 4 18 6 27 7z"/><path fill="#f7d410" d="M335 538v13l-1 2-3-15-18-1h-52l-6 1-2-1 1-3h64l16-1z"/><path fill="#978530" d="m335 538 1 31-1 12-79 1-2-3-1-42 2 1 5-1h70c2 5 2 11 2 15h3z"/><path fill="#163149" d="M3273 220c3 6 9 6 13 8 10 4 18 13 20 24 1 4 0 8-1 11l-2 18q4 1 8-1c3-1 8-6 14-8l17-7q12-5 25-2l8 3 8 2v1h5c8-3 12-5 20-6l2-1-8-1q11-3 25-2l7 1 13 7q6 3 9 9c6 9 6 24 2 33q-3 9-6 12l-9 15-7 8-7 8c2 6 6 13 4 17-5 15-18 29-31 37 0 12 0 19-2 28-2 7-5 10-11 15-8 8-17 14-27 19-6 2-10 4-13 7l-6 13q-2 7-8 15-9 12-18 19l-20 13-19 10-24 7-22 6c-17 2-33 6-50 5l-8 1-21 5-32 2-6 2q-1 1 1 2-4 2-5 6l-4 16v1-3l-3 3-3 13c-8 16-24 15-40 15q-15 1-25-3c-9-4-16-7-21-14q-5-9-5-18l1-18c1-9 0-14-8-17q-9-4-17-10c-7-4-12-11-17-17q-11-16-19-35l-5-16-3-5-1-3c2-7 0-13-1-20v-36c1-15 9-26 25-28v-1q-8 0-15 4 5-5 11-6c6-2 11-1 16-4h2l1-23q0-11 4-29l5-16 5-9c5-6 10-13 17-16l12-3h1q-9-1-17 3-11 7-18 20c3-10 10-17 19-22 6-3 11-5 18-4l10 1q9-32 23-60l4-8 7-10 13-14q11-10 26-13h8l11 2 5-5 10-16-1 1 11-12 6-6 6-6 8-9 15-11 8-5 9-3 18-5q7-1 14 1c6 1 11 3 15 7q6 8 10 17c3 8 5 13 6 20l4 19 1 26-1 21zm-613 52 2 20q8 6 16 8l9 3 9 3 1-1 11 4h-2l23 14 24 15 8 6 6 7 2 3 1-1-2-4 9 15-1-2c-1 3 1 4 2 6l4 10 5 9 6 14 2 2 8 20 6 12 3 10 7 16 2 7 2 6 5 14v7q0 5-2 8-2 7-10 12l-6 4-6 5q-18 12-38 21l-15 7-28 11q-5 1-13-1l-3 1c4 5 12 5 18 2l15-5-14 6c-8 3-14 4-21 0-5 9-8 17-15 21-7 5-15 7-25 9l18-6c7-3 12-8 15-15-4 2-6 6-9 8l-12 5c-8 4-15 5-23 8l-22 6q-31 6-48 11l-19 4-15 1-30 5h-9l-14-1-10-1-20-4c-4 0-10-3-14-4-11-3-22-8-35-11q-13-3-22-7l-34-11-4 3q-5 3-9 3l3-3c-3 0-5 1-8 3-5 4-8 4-15 7l-22 8-5 2-13 2q-19 2-35-2l-8-1-8-2-11-3-27-5-8-3c-8-3-11-8-14-16 0-8 1-16-3-22-1-6-5-8-10-11l3 1c-3-5-10-8-15-12l-20-16c-6-5-14-13-16-20-2-8-2-14 0-21l7-26 5-19 3-10 9-29 4-11 2-4 5-16q0-3 2-4l5-13 6-10 5-6 23-18 13-10 13-10 16-10 10-7 11-7 8-5 7-5q16.5-10.5 36-15c7-1 15 1 20 2l10 2 10 3 5-2c2-1 3-5 4-7l10-20 6-10q5-11 12-21l4-4q3-6 8-10l12-10 18-10 23-10 11-4 9-3h10l10-2h23l9 2 8 3 24 13 11 6 12 7 9 5 11 7 8 6 8 5 15 11 6 4q10 12 15 26l3 8 3 9c1 9 4 17 6 25"/><path fill="#fefefe" d="M2612 223q2 2 2 5l-2 3-28 10-27 10-9 3-8 4-7 2-4 3c-8 4-15 3-22 0l-22-11-13-8c-12-8-25-18-31-32l-7-20 1-4v-2h-3l5-8 15-9q12-5 25-8c11-3 20-3 30-2l4 1 33 17 19 11 5 3 8 5 28 19z"/><path fill="#bcc4c5" d="M2586 232q-9 9-20 8l-14-5-32-20-14-10-21-15c-2-1-3-2-2-4q5-5 10-7c5-2 12 0 17 3l17 10 12 5 18 11 17 12 6 7z"/><path fill="#a8aeb1" d="m2435 188-1 5-1-2-1 2 2 7c5 13 12 26 22 35q24 20 56 32 4 2 8 1l4-2 5-1 3 10 2 7 2 8 1 10 4 15 2 10-3 8-10 17-4 5-3 5-9 13-4 7-23 2c-2 0-3-2-3-4q-3-7-4-15l-1-8-2-7-3-10-5-18-6-12-2-4q-9-12-15-17l-13-9-12-6-4-2-22-10-5-3c-1-3 1-9 3-12l7-15q3-8 11-18l6-9 7-10 7-6q3-1 4 1"/><path fill="#58697a" d="m2434 193 7 19c6 14 19 24 31 32l13 8 22 11c7 3 14 4 22 0l4-3v1l1 2q-3 0-5 2l-5 1-4 2q-4 1-8-1-32-12-56-32c-10-9-17-22-22-35l-2-7 1-2z"/><path fill="#02043f" d="M3131 355c-2 1-3 5-7 5q-6 1-11-3-3-1-5-5l-14-19-9-11-17-18c-4-4-5-10-4-16q2-20 10-43l6-14 8-14 15-16q6-4 12 1l8 9 7 9 9 15q7 12 11 26l3 12 2 14c1 3 1 7-1 10l-4 6-13 30-3 9-2 12z"/><path fill="#fcf35f" d="M3151 285c-6-6-8-3-14-1l-5-5-21-37c-2-4-2-10-2-15l-2 1-4 13-6 24-5 17-1 27v7l6 6-4 4-5-7q-11-10-18-19c-2-2-2-6-2-11l3-15c0-5 2-9 3-14l1-6 3-7q7-21 22-38 3-4 7-5c5-2 11 5 14 9l12 20 4 7 7 15 3 8 2 9z"/><path fill="#010102" d="M1969 314c-5 1-7-3-8-6l-2-3-14-29-16-24c-6-7 0-10 4-15l4-8 4-5c3-2 8 0 11 2l12 7 12 7 15 13q7 7 13 17 3 4 3 7c1 4 1 10-1 13q-5 8-14 14-11 6-23 10"/><path fill="#828e96" d="M2618 307h-3l-2-3-10-21-8-27-3-15 16-7q4-1 4-3l2-2q0-4-2-6l3 4 13 49c2 7 4 13 3 19q0 3-3 5z"/><path fill="#f7d410" d="M3151 285c2 9-4 14-7 22l-8 17-4 11-4 18c-1 2-3 4-6 3q-6 0-9-4t-7-10l-13-16 3-2-5-8v-6l1-27 5-18 6-24 4-13v-1l4 15 21 37 4 5c7-2 9-5 15 1"/><path fill="#e9d99f" d="m1966 310-2-2-17-36-15-22-2-3 1-3q7-6 10-15c1-4 5-2 8 0l7 4 6 3 12 7c9 6 17 14 23 22l4 7q4 6 2 14-3 8-8 12c-4 2-7 5-12 6-5 2-10 5-16 6z"/><path fill="#828e96" d="M1867 242q-9 4-19 1l-5-2-2-2 7 1 10 2z"/><path fill="#091c30" d="m2347 248-8-2-11-3c-6-1-14-3-21-2q-19.5 4.5-36 15l-7 5-8 5-11 7-10 7-16 10-13 10-13 10-23 18-5 6-6 10-5 12q-2 2-2 5l-5 16-2 4-4 11-9 29-3 10-4 16-8 29c-2 7-2 13 0 21 2 7 10 15 16 20l20 16c5 4 12 7 15 12l-3-1-15-10-17-14q-3-1-10-9l-7-10q-5-11-2-23l8-29c2-5 3-14 6-19v-1l6-19 2-9 3-9 3-10q3-5 3-8 3-5 3-10l3-5 1-5 2-5 2-5 2-4 3-6 5-6 5-4 11-8 6-5 7-5 11-8 12-9 5-3 15-11 6-4c6-2 9-5 12-7l16-10 19-10 6-2 13-3h6l13 2 10 3 9 3z"/><path fill="#465a6e" d="m2592 241 3 15 8 27 10 21v1q-9-9-12-20l-7-23-2-9-4-10z"/><path fill="#a8aeb1" d="M1763 244h8l21 1 9-2h6q-9 5-19 4l-14-1z"/><path fill="#58697a" d="M2588 243q3 4 4 10l2 9 7 23q3 11 11 21l1-2 1 3h4c-2 4-6 6-9 8l3-3c-9 3-17 9-24 16l-18 15-37 37q-5 6-14 5l-4-4 11-16 3-4 5-7 14-23c2-3 2-6 1-11l-5-21-2-11-1-4-3-18-1-3 12-6 6-3q17-4 33-11"/><path fill="#bbb48d" d="M1988 295c-4 4-8 5-14 7l-5 2c-3-2-3-6-5-8l-5-10-2-5-4-9-5-7-2-3-3-6-1-2-3-3q-3-3-1-7 5 0 7 4l10 14 4 3 11 13 8 7 3 4q3 5 7 6"/><path fill="#e9d99f" d="m1724 263 2 7-3 9-2 8c-2 6-3 13-6 19-3 7-7 13-13 19q-11 10-24 14-4 2-15 3-10 2-15-5c-4-4-6-12-5-18q3-10 10-18l10-12c8-6 19-12 28-15l22-8z"/><path fill="#fefefe" d="M2308 427h-1q-7 0-13-4l-11-10-8-6-15-13-16-12-6-4-13-11-18-15-1-3-5-4 1-5 32-24 41-30q12-8 25-14l13-5c5-1 12 1 16 2l19 7 29 12 18 8c14 6 23 11 32 18 3 3 7 6 6 10l-3 3-20 17-24 19-18 16-7 6-24 17-8 7-8 6z"/><path fill="#a8aeb1" d="M1903 268v3l6-1 3 5 13 22 8 17c1 7 4 13 5 17l4 18v9l-2 22q-2 10-8 18-2 4-6 7-3 4-7 6l-3 2-8 4-4 1c-11 3-22 4-31 5l-16-1-21-3-7-2-7-2-5-1-4-2q-17-6-33-16l-5-3q-4-2-3 1-13-10-20-20l-12-18-7-17v-8l1-4 8-22c2-9 4-15 2-23 9 0 4 19 2 23l-6 18-2 9c0 6 2 11 5 19q1 4 5 9c4 6 6 12 12 16l-8-25-4-16q0-21 6-40l2-9c-3-6-8-8-13-9q-2-2-1-5l3-1 14 5q10 3 25 4l5 2-3 4 2 6-2 1q-1-3-3-2l-3 4-5 14-2 10q0 8 2 13c2 5 6 12 11 16 1 2 3 5 6 6l2 2c11 1 19 1 25-9 9-13 9-30 2-44l-6-10-4-5q-3 1-3 3l-3-10 3-3 18-5c8-3 16 1 23 3l6 1 9-1h15z"/><path fill="#465a6e" d="M1864 276h-9z"/><path fill="#74828e" d="m1744 282-1-5c5 1 10 3 13 8l-2 10q-6 19-6 39l4 17 9 24c-7-3-9-9-13-15q-4-5-5-9c-3-8-5-13-5-19l2-9 6-18c2-4 7-23-2-23"/><path fill="#bbb48d" d="M1676 333c5-1 7-4 10-10l7-15c6-6 11-13 14-20 2-4 4-7 7-9q4 4 2 8l-2 9c0 3-1 5-3 8l-6 10-13 14-11 4z"/><path fill="#091c30" d="M2977 379c-2-9-1-18 0-26l2-18q4-15 10-29 7-13 18-20 8-4 16-4v1l-12 3c-7 3-12 10-17 16l-5 9-5 16q-4 18-4 29v23z"/><path fill="#ccd5ce" d="M1786 293c-4 6-5 12-7 18q-2 6 0 15c1 9 5 17 13 23q6 5 14 3c10-3 14-15 15-23q1-10-2-19l-10-18-1-1v-2l7 3 6 11c7 14 7 31-2 44-6 10-14 10-25 9l-2-2c-3-1-5-4-6-6-5-4-9-11-11-16q-2-5-2-13l2-10 5-14 3-4q2-1 3 2"/><path fill="#627382" d="M2304 388c-9-4-15-8-20-12l-12-10c-10-10-17-17-27-24q22-21 48-38l13-10 5-1 9 6 29 25c5 4 8 10 12 16l-20 19q-17 15-37 29"/><path fill="#a8aeb1" d="m2247 341 2-2 15-12 16-12 21-14 7-6h4q7 4 14 11l7 6 14 12 7 7 5 8-14 14-6 5-6 6-16 13-12 10-14-7-20-17q-10-11-23-20z"/><path fill="#010102" d="M2697 305v1l-10-3-9-3v-1h1q10 2 18 6"/><path fill="#02043f" d="M3008 327v-3l5-14 3-4c3-3 5-4 9-3q11 3 21 8l4 3 5 3 8 6 6 6 7 7 9 11 7 11c5 8 8 18 10 27l1 18-2 12-4 14-4 20-2 9q-3 4-8 5-6-5-8-9l-6-9-6-7-7-8q-5-6-17-15l-19-14q-7-5-12-13-3-5-4-14-2-14-1-21l1-12 2-11z"/><path fill="#fcf35f" d="m3097 411-5-5-8-8-3-7-2-2q-4-11-11-20-15-19-36-32l-4-4-2 3v12l-3 8v13l2 20 3 12-11-8q-3-1-6-7l-4-16 1-21 3-18 3-12 6-12q19 3 32 13c5 2 10 7 13 10l12 13 6 8 7 11 7 17 1 11c1 5 1 15-1 21"/><path fill="#010102" d="m2708 309 24 14 9 5 10 7 10 6q4 3 7 8l2 4v1l-3-2q-3-6-6-8l-8-6-24-15q-13-8-23-12z"/><path fill="#74828e" d="m2609 315-17 16-12 9-23 22-6 5-7 7c-5 6-10 12-16 15v1h-3q-9-1-17-4 2 0 3-3l1 1 3-3 3 4q10 1 15-5l37-37 18-15c7-7 15-13 23-17z"/><path fill="#010102" d="m2571 396 1-4q3 2 2 3v5q0 4 3 7l26 14 47 26 7 4c5 3 8 7 12 11h10l9-3c4-1 4-11 4-15l-2-11-7-27 1-2c3-3 7-4 10-6l28-18 8-3 13-8 1 1-17 10-4 3-5 3-17 10-13 8-2 3 8 33q1 8-1 16c0 4-3 6-7 7l-8 2h-7v6l2 8 9 26c3 9 7 25 15 27h5l5-2 13-6 6-2 4-2 22-11q10-5 21-13l7-6 2-1 10-6 2-6-8-25-21-47-6-14-7-13-7-10-3-4c-6-6-11-10-18-14l-10-6q-23-13-46-22l-15-4c-4-1-9 3-12 5l-17 16-6 5-29 27-8 7-13 12-4 4q-1 4 2 7l-2 1c-4-3-5-7-2-11l7-7 25-24 16-14q13-13 27-24 5-5 11-7c3-2 7-1 11 1q20 5 36 13 22 11 33 19l10 6q5 4 7 8 4 4 6 9l8 13 8 15 5 10 6 15 17 42 3 12-1 5-22 15-4 3-6 4c-3 2-7 5-11 6l-13 7-5 2-4 2-11 5-15 6q-6 3-12 1-6-5-7-8-5-9-7-17l-9-25-4-18q-6-8-15-14l-48-26-29-16-1-2c0-2 0-3-2-4q-3-3-1-8"/><path fill="#fefefe" d="m2745 368-2 1-13 8-8 3-28 18c-3 2-7 3-10 6-5 3-9 5-15 5l-5-2q-15-10-32-18-6-2-22-12-2-2-2-5l2-11 3-5q0-5 3-8l8-9 17-16c3-2 8-6 12-5l15 4q23 9 46 22l10 6c7 4 12 8 18 14z"/><path fill="#828e96" d="M2308 499q1-2-1-4l-5-4 8 6 5 2 15 10c4 2 5-2 6-4l10-21 3-5 2-4 15-27c2-5 6-11 11-15l14-8 18-11q17-12 33-18 3-4 2-10l-8-36-6-20 3-2 9 28c2 8 3 19 6 28l2 11c-1 3-5 5-9 6l-7 3-19 12-13 7-8 5-7 4-7 4q-5 3-7 8l-10 18-14 28-7 12q-4 6-6 13h-5l-10-8z"/><path fill="#627382" d="m2430 330 6 20 8 36q1 6-1 9-17 7-34 19l-18 11-14 8c-5 4-9 10-11 15l-15 27-2 4-3 5q-3 9-8 17c-3 6-4 10-8 8l-15-10-5-2-8-6 1-8 4-48v-8h1l1 1q6-4 10-9l22-16 27-20 10-10 18-14 17-14z"/><path fill="#f7d410" d="m3097 411-2 10-4 16-3 17-2 6c-5-2-7-8-10-11l-13-17-18-17-17-14-3-12-2-20v-11l3-10v-15l6 4q21 13 36 32 7 9 11 19l2 3 3 7 8 8z"/><path fill="#fffef0" d="m2624 339-8 8v1q-3 3-2 7l-4 6 1-3-7 3-23 23-4 6 1 2v8l3 4 14 7c6 5 17 9 25 13l10 6 17 10 18 11 7 6c11 4 17-5 15-15q-2-11-6-21l-4-8q-3-3-8-4c6 0 10-2 15-5l-1 1 7 28 2 11c0 4 0 14-4 15l-9 3h-9l-13-11-7-4-47-26-25-14q-4-3-4-7v-5l1-2q-4 1-4 3l-1 1q-3 2-6 0v-3l4-4 13-12 8-7 29-27z"/><path fill="#828e96" d="m2202 340-1 2 5 7h-1l5 8-4 16-2 5-2 6-4 16-4 17-9 41q-1 8 2 19l7 17 2 4 2 4q1 4 3 5 7-1 12-4l18-8c8-4 16-8 26-10l13-3q6-1 8 3c-9 0-16 3-25 5l-12 4-24 12-5 2-9 5q-3 2-6 0-10-6-19-15 3 2 5 1c-2-4-4-6-8-9l-11-11c-7-8-6-17-4-27l7-20 3-12 4-12 6-18q1-6 5-13l4-10 5-9 5-9c0-3 0-5-2-5z"/><path fill="#bcc4c5" d="M2197 344c2 0 2 2 2 4l-5 10-5 9-4 10q-4 7-5 13l-6 18-4 12-3 12-7 20c-2 10-3 19 4 27l11 11 9 8q-3 2-6 0l-4-3q-8-6-14-14c-6-7-7-15-5-24l3-11 11-36q7-24 18-49z"/><path fill="#010102" d="m2206 349 1 3 18 15 13 11 6 4 16 12 15 13 8 6 11 10-5-2-7-7-6-4-12-9-6-5-18-14-16-12-7-7-7-6-5-7z"/><path fill="#02043f" d="m3110 449 11-4 22-8 12-4 12-2c11-2 23-3 32-2l9-1c6-2 12-3 15-6 2-4 4-6 7-8l3-3q5-6 8-13l10-21v-7l-5-11q-11-6-19-6l-17 1-19 3-9 2-7 2-20 10-12 10c-7 5-12 12-18 19-3 4-7 11-9 18-1 3-3 6-3 10l-2 9q-2 4-2 10v2h-3l-1-5c2-8 3-11 3-17l2-7q5-13 9-17l11-15q4-6 10-10l11-9 20-10 8-3 9-3 29-3q13-1 22 1 4 1 9 5l5 7c3 5 4 10 2 15l-9 20-3 6-7 10-6 6q-3 1-5 5l-4 3-15 4-15 1c-15 0-27 2-40 5l-10 4-10 4-14 5h-5q-2 0-2-2"/><path fill="#fcf35f" d="M3251 370q-4 2-6 6l-3-1-8-2-16 3h-9l-12 2-18 6c-8 3-16 8-23 14l-8 6q-4 2-8 9l-5 6-2-8c-5 0-8 2-10 5l-10 12c0-4 2-7 3-10 2-7 6-14 9-18 6-7 11-14 18-19l12-10 20-10 7-2 9-2 19-3 17-1q8 0 17 5 5 6 7 12"/><path fill="#627382" d="m2289 421-3 8c-3 21-5 35-5 55q0 2 2 3l-5-2q-2-4-8-3l-13 3c-10 2-18 6-26 10l-18 8-11 5q-3-2-3-5l-3-5-2-4-7-17q2-5 1-8-1-9 1-16l3-8 7-32 2-10 7-26 1-10-3 6 4-16 7 6 7 7 16 12 18 14 6 5 12 9 6 4z"/><path fill="#bcc4c5" d="m2610 361-2 11q0 3 2 5h-1v2l14 7 18 10 8 5 7 4 8 4v-2l5 2q5 1 8 4l4 8q4 10 6 21c2 10-4 19-15 15l-6-5q-9-7-19-12l-17-10-10-6c-8-4-19-8-25-13l-14-7-3-4v-7l-1-2q1-4 4-7l23-23 7-3z"/><path fill="#091c30" d="M2777 364q6 9 10 19l5 10 6 13 8 17 11 28 10 27c2 5 4 11 3 17 0 7-2 13-7 18l-11 9-16 11-10 6-26 12-20 9-15 5c-6 2-14 3-18-1 1-2 2-2 3-2q8 2 13 1l28-11 15-7q20-9 38-21l6-5 6-4q8-5 10-12 2-3 2-8v-7l-5-14-2-6-2-7-7-16-3-10-6-11-8-21-1-1-7-15-5-9-4-10c-1-2-3-3-3-6z"/><path fill="#465a6e" d="M2187 477q-3-11-2-19l9-41 4-17 4-16 2-6 2-5 2-6v10l-7 26-2 10-7 32-3 8q-2 7-1 16 1 3-1 8"/><path fill="#828e96" d="m2745 368 7 10q-2 1-2 3l5 11 12 26 4 9 4 13q8 14 13 31l1 8q-3 4-7 6l-3 3 3 1-2 1q-2 0-4-4l-1-3-1-3-13-24-23-49-9-22-2-5 16-10v-1z"/><path fill="#f7d410" d="M3251 370v7l-10 21q-3 7-8 13l-3 3c-3 2-5 4-7 8-3 3-9 4-15 6l-9 1c-9-1-21 0-32 2l-11 2-13 4-22 8-11 4-1-2q0-6 2-10l2-9 10-12q3-4.5 9-6l3 9 5-6q4-7 8-9l8-6c7-6 15-11 23-14l18-6 12-2h9c4-1 10-1 14-3l9 2 3 1q3-4 7-6"/><path fill="#828e96" d="M2610 377q16 10 22 12 17 8 32 18l1 1-9-3-7-4-8-5-18-10-13-7-2-1z"/><path fill="#bcc4c5" d="m2752 378 7 13 6 14 21 47c3 8 6 17 7 25h1v4l-12 8h-2c0-2 0-3 2-4l7-4-1-10q-5-17-13-31l-4-13-4-9-12-26-5-10q0-3 2-4"/><path fill="#58697a" d="m2727 380 2 5-1-2-1 1 2 7 11 25 5 12 13 25 6 13 5 12 5 7 1-2 1 3c0 5-3 6-7 8l-6 4-12 6-24 12-12 6-16 5q-7-7-9-14l-6-15-9-29-1-3q-3 2-3 5l-1-5 7-1 8-1c5-2 8-4 8-8l2-16-9-33 2-3 13-8 17-10 5-3z"/><path fill="#465a6e" d="m2729 385 9 22 23 49 13 24 1 3v2l-6-7-5-12-6-13-13-25-5-12-11-25-2-7 1-1z"/><path fill="#091c30" d="m2941 470-3-20c-2-10-2-17-1-28q0-9 2-16 3-10 11-17 7-4 15-5v1c-16 3-24 14-25 29v36c1 7 3 13 1 20"/><path fill="#74828e" d="M2574 395v5-6z"/><path fill="#828e96" d="M2570 397q-1 4 1 7v1q-4-3-7-8 3 2 6 0"/><path fill="#010102" d="M2668 556c-4 5-7 6-9 7l-17 4-13 3q-31 8-65 14l-7 1-24 5h-4l-5 1q-15 4-30 0l-7-1-23-9-2-1-39-12-13-4-25-7-19-7-5-6c1-10 4-15 8-22l15-34 13-30q3-7 9-11l18-11q19-11 56-29l11-4q9-1 13 1 14 3 27 8 40 17 78 41l18 11c8 6 12 13 16 24l10 26 6 16 6 17q3 5 3 9"/><path fill="#02043f" d="m2965 457-2-18-1-9 1-8c0-6 1-10 4-15 4-5 13-5 18-3l18 5 12 6q14 9 26 22l8 9c6 7 10 14 14 22l3 9 2 25c0 4-2 10-4 14q-3 9-11 15l-7 4-12 4-8 2q-10-2-15-5c-10-5-17-11-24-21q-12-17-17-37l-3-12z"/><path fill="#fcf35f" d="m3063 503-6-4c-4-1-9-2-11-6l-7-11q-3-7-7-11l-12-15-14-11q-10-9-22-14-3 3-3 6 0 21 4 40c2 5 5 10 5 16 1 5 1 9 4 14l6 10q2 3 1 5-2 0-2 2l-7-9c-9-12-15-25-19-40l-2-7-2-16-2-12-1-17 1-6c1-5 3-10 10-10l9 1c16 4 32 12 44 23l13 12 9 12 3 5 4 9c3 7 3 12 5 21z"/><path fill="#fefefe" d="M2634 478c0 2-2 2-4 3l-4 1q-5 4-12 5l-6 2-4-2-2-2c-6-1-10-4-16-6l-9-6-16-9-14-7-14-7-4-3-20-11-14-8-1-1q-1 6 1 13l5 21 8 29 2 11 3 10 1 6q3 2 5 1l8-3 5-1 8-3 5-2 10-4 22-9 7-2c4-1 9-3 13-1-14 6-30 13-43 17l-34 12c-5 1-7 4-8 9l-8 23-5 12-8 20h-4l-10-4-11-3v-1l1-2 16 4 4 1q4-4 5-8l4-12 4-10 3-7 3-10v-5l-14-5q-3 0-4 2l-4 12-6 16-5 14q-1 3-3 3l-1-5 17-45-3-6-17-14-6-5-14-12-14-11-16-13-9-7-1-2 18-11 36-19 10-5 15-6 7-2h13l15 5 22 9 43 21 36 22c5 3 11 7 13 13"/><path fill="#a8aeb1" d="m2289 421 5 2q6 4 13 4v8l-4 48-1 8 5 4q2 2 1 4l-12-7-13-5q-2-1-2-4c0-19 2-33 5-54z"/><path fill="#bcc4c5" d="m2608 489-11 4c-4-2-9 0-13 1l-7 2-22 9-10 4-5 2-8 3-5 1-8 3q-2 1-5-1l-1-6-3-10-2-11-8-29-5-21-3-11q2-2 3-1l14 8 20 11 4 3 14 7 14 7 16 9 9 6 15 6 2 2z"/><path fill="#f7d410" d="M3063 503q-1 12-8 22l-9 6q-6 3-15 4l-7 1q-10-2-15-6l-10-6 1-2q2-2 0-5l-6-10c-3-5-3-9-4-14 0-6-3-11-5-16q-4-19-4-40l1-5q14 4 24 13l14 11 12 15q4 4 7 11l7 11c2 4 7 5 11 6z"/><path fill="#02043f" d="m3103 472 1-2c11-8 24-13 37-17l13-4 19-4 17-2c16 1 24 2 32 7 7 4 7 9 6 16l-9 20q-5 8-13 16l-22 21-5 3-6 4q-11 7-23 11l-9 4-9 2-13 2q-11 1-20-6c-6-4-12-13-12-21l-2-16v-10l9-16z"/><path fill="#fcf35f" d="m3222 454-3 6-10 3-10 4-31 9-5 2-22 8-24 6c-8 3-17 6-21 15l-5 7-1-7-1-9 5-11 4-6c7-8 16-12 26-18l8-3 4-1 15-5 16-4 16-3q12-1 22 1 9 1 17 6"/><path fill="#a8aeb1" d="m2406 451 1 2h-1v1l2 2-2 3-8 18-5 11-4 8-7 15-2 6-10 19-1 4c4 4 8 6 13 8l27 8 31 10 16 4q4 1 7 5l-1 2-27-8-26-8-31-10q-8-2-14-7c0-5 1-7 2-9l6-14 17-37 15-31z"/><path fill="#282828" d="m2407 453 9 7 16 13 14 11 14 12 6 5 17 14 2 3-16 48-1 3-3 7v-4q3-13 8-24l4-10 4-11 3-5-10-12-18-15-9-7-15-13-13-10-6-4-5-5-2-2v-1z"/><path fill="#f7d410" d="M3222 454q4 8-1 18-6 14-17 28-23 26-57 38l-17 5-12 2-8-1c-9-2-17-11-18-20l-1-10 5-7c4-9 13-12 21-15l24-6c9-2 15-5 22-8l5-2 31-9 10-4 9-2z"/><path fill="#74828e" d="m2468 569-2 7v3l-4-2 1-1q-3-5-7-6l-16-4-31-10-27-8-13-7 1-5 10-19 1-4 8-17c1-2 3-4 3-7l6-12 7-17 3-4 4 4 7 5 13 10 15 13 9 7 18 15 10 9-3 8-4 11-4 10q-5 11-8 24l-1 3 1 1zm308-83q2 4 4 4l-7 6q-11 8-21 13l-22 11-4 1v1l-6 2-13 6-5 2h-5c-8-2-12-18-15-27l-9-26-2-8q0-3 2-5l2 3 9 29 6 15q2 7 7 14c8-1 13-3 18-5l12-6 24-12 12-6 6-4c4-2 7-3 7-8"/><path fill="#091c30" d="M3107 597c-1 12-6 25-19 29-5 2-10 4-16 4q-12 0-21-2l-17-3q-7-2-14-8c-10-6-12-15-12-26v-29l-15-8c-9-5-15-9-21-18-6-7-12-15-17-24q-9-18-13-39l3 5 5 16q8 19 19 35c5 6 10 13 17 17q8 6 17 10c8 3 9 8 8 17l-1 18q0 9 5 18c5 7 12 10 21 14q10 4 25 3c16 0 32 1 40-15l3-13 2-3 1 3z"/><path fill="#828e96" d="m2634 478 3 4 12 33 6 15 8 20 2 6-20 7h-3l-1-4-1-3-14-38-9-30 14-6-1-1c2-1 4-1 4-3"/><path fill="#163149" d="m2617 488 9 30 14 38v2l-3-3-5-16-6-15-4-11-4-15-3-7-1-1h-1z"/><path fill="#465a6e" d="m2640 556 1 3q-19 7-33 9l-44 7-31 7-7 1-17 3-9 2 1 2h-6l-2-1 7-16 15-42c2-5 7-7 12-8l37-14 35-13 14-6h1l1 1 3 7 4 15 4 11 6 15 5 16 2 3z"/><path fill="#010102" d="m2328 560-1 2c-4 3-10 5-15 6l-23 11q-5 3-8 3l-9-1q-7-3-15-4l-7-2-24-7-7-3-6-3q-4-3-4-8l1-15q1-6 6-9l23-12 22-9c3-2 7-1 11 2l7 5 6 6 31 26c5 3 7 6 11 10z"/><path fill="#a8aeb1" d="M2323 561c-7 0-7-4-11-8l-20-15-7-5-10-9c-3-3-6-8-11-8-5 1-9 4-13 6l-17 7-5 3c-2 1-7 3-9 6l-3 4c-1-5 1-7 5-10l10-7 5-2 25-11q4-1 7 2l18 14 17 15 12 9 8 7v1z"/><path fill="#828e96" d="m2323 561-3 2-7 1-14 6-2 2-10 4-6 3-10-2-7-2q-29-7-48-14c-5-2-3-17-3-22 1-4 3-5 8-8l11-6-10 7c-4 3-6 5-6 9l4-3c2-3 7-5 9-6l5-3 17-7c4-2 8-5 13-6 5 0 8 5 11 8l10 9 7 5 20 15c4 4 4 8 11 8"/><path fill="#ccd5ce" d="M2466 578v-2l2-7 1-3v4q3 1 4-2l5-14 6-16 4-12q1-2 3-2l14 4q2 4 1 6l-3 10-2 6-4 10-5 12q-1 5-4 8h-5q-7-2-13-6z"/><path fill="#010102" d="M1798 573q-3-1-4-5l-1-18v-10c3-5 7-4 12-7l17-2 12-1 10-1q6-1 10 2l1 14-1 22-2 2q-9 3-16 3h-13l-24 2z"/><path fill="#02043f" d="M3059 532c3-3 5-4 8-2q3 1 5 5l9 14 1 9v11l-1 9-1 13-3 13q-2 5-9 6l-12-2c-9-2-14-4-19-11-2-3-2-11-2-16l1-17c0-5 2-10 4-14l3-4 8-7z"/><path fill="#828e96" d="M1835 567v1l-9 1-27 1-3-24 1-5c6-3 11-4 16-4l8-2 9-1 19-2 2 33z"/><path fill="#fcfe44" d="m3078 560-13-9-5-1c-4 0-8 0-10-3l3-4 7-7c3-2 6-5 9 0l8 14v10"/><path fill="#091c30" d="m1753 592-11 2h-30l-6-1c-9-1-12-8-13-16-2-8-3-18-2-26 1-6 6-8 12-8l15 1h32c6-1 9 5 9 10v28q-1 6-6 10"/><path fill="#f7d410" d="m3053 543-3 3c2 4 6 4 10 4l5 1 13 9-2 20-2 19q0 4-3 6c-2 2-9 0-11-1-8-1-14-2-19-7l-1-6v-24c0-7 2-12 5-18z"/><path fill="#091c30" d="M1662 563q-30 4-58-8l-14-7q-2 0-1-1c14 6 29 12 43 13q14 2 32 0 0 2-2 3"/><path fill="#a8aeb1" d="M1725 548h10l19-1v38c-3 3-6 4-9 4q-18 2-36 0l-8-1-3-4q-4-17-4-34 0-3 2-3z"/><path fill="#828e96" d="M1699 553q26 0 51-2l1 31q-5 3-11 3h-26c-8 1-13-2-14-10l-2-17z"/><path fill="#091c30" d="m2349 590-4 2-3 2-29 12-18 6c-10 4-19 1-30 0l-21-4-9-2-30-7c-16-3-29-9-30-28v-16c4 6 3 14 3 21 3 9 6 14 14 17l8 3 27 5 11 3 8 2 8 1q16 4 35 2l13-2 5-2 22-8c7-3 10-3 15-7l8-4z"/><path fill="#627382" d="m2645 563-13 4-7 1-6 1-18 5-39 7-24 4-29 5h-8l-2-1 10-3 17-3 7-1 31-7 44-7q14-2 33-9v3z"/><path fill="#02043f" d="m3171 269-5-5-7-18-2-4-1-3-2-3-2-4-1-4-1-3q-3-12-1-23l2-8 3-6c2-4 5-11 9-16l4-6q6-9 14-17l10-9 9-7c8-6 14-8 23-13l4-1c6-1 12 11 14 15l2 9q4 13 4 22l1 36-2 13-5 13-6 6-22 13-22 13-9 6-10 5z"/><path fill="#fcf35f" d="M3242 153v3l-3 2c-3-3-4-7-6-15l-4-6-12 14-8 11-18 25-9 15-7 18-2 6-7 2-8 6c-5-8-6-16-6-26l4-15c4-8 8-17 14-25l6-7q9-12 21-22l13-8 16-8q2-1 4 1 3 2 5 7z"/><path fill="#f7d410" d="M3242 153v4l2 22c1 8 0 16-1 26l-4 15-4 7-18 11-27 17-17 10q-4-3-5-7l-10-24 6-5 9-3 2-6 7-18 9-15 18-25 8-11 10-14 6 6 5 15 3-1z"/><path fill="#02043f" d="m3151 352 12-5 14-6 19-4 13-2c8-2 13-2 24-2 6 0 12-2 16-7l6-8q12-16 17-36l3-15 2-10q0-3-2-5h-10l-21 3-6 1-10 2q-14 4-24 10l-15 10-10 9-8 8-6 10-9 19-3 8c-1 4-1 9-3 13q1 0 0 0l-3 7h-2l2-14 3-10 1-4 10-20q9-15 20-24l10-8 13-9 8-5 9-2 8-2 9-2 29-4h8l6 7-4 24-5 18-10 18-10 14c-7 8-16 9-26 9q-11 0-20 2-17 2-28 5l-20 9-6 1z"/><path fill="#fcf35f" d="m3275 267-4 3-3 2-3 2-10 1c-16 4-29 4-42 10q-16 9-29 21l-10 10-10 12-3 3q-4-1-5-3h-1l1-4 9-19 6-10 8-8 10-9 15-10q10-6 23-10 6 0 11-2l6-1 21-3h9q3 2 3 4z"/><path fill="#010102" d="m3383 268 8-1 5-3 6-3 8 1-2 1c-8 1-12 3-20 6h-5z"/><path fill="#f7d410" d="m3275 267-3 15q-5 20-17 36l-6 8c-4 5-10 7-17 7-10 0-15 0-23 2l-11 2-21 4-14 6-12 5h-1v-7c2-4 2-9 3-13l3-8-1 4h1l4 3 4-3 9-11 11-11q13-12 29-21c13-6 26-6 42-10l10-1 3-1 3-3z"/><path fill="#02043f" d="m3368 342-3-3h-1c-1-5 0-7 1-10l7-17 1-4 2-10c2-11 11-11 19-14l9-2 25-2c3 0 8 0 11 2 7 6 5 12 3 20-5 10-11 21-19 28l-13 14c-3 3-6 3-11 2-9-2-20-3-31-3zm-38 5c6-2 16-5 19-11l8-14 3-10 2-11v-7c0-3-1-4-3-5q-2-2-4-1l-18 8-6 3-8 2c-3 2-5 5-3 8l6 12c3 7 3 15 2 24q-1 2-3 0v-2l-1-14-3-10-6-12c-1-4 3-7 6-9l19-8c13-6 26-10 27 10l-3 12q-2 14-11 25l-4 4-4 4c-3 2-14 7-15 2"/><path fill="#fcf35f" d="M3438 299q-4 4-10 3h-4l-10 3-6 3-15 11-12 5-9 1 4-11 2-8 2-8 4-6 9-3 13-3c9-2 20-2 29-1q5 4 4 9zm-76 2q-1 3-4 5c-3 2-8 0-12 3l-12 9c-2 1-3 3-5 2q-2 0-3-3c-1-3-2-6-6-8-2-3 0-6 3-8l8-2 6-3 18-8q2-1 4 1c2 1 3 2 3 5z"/><path fill="#f7d410" d="M3438 299q-5 13-14 25l-15 16q-4 3-9 2l-9-2-23-1c-1-6 1-9 4-14l8-1 13-5 15-11 6-3 10-3h4q6 1 10-3m-76 2-2 11-3 10-8 14c-3 6-13 9-19 11h-1l-1-2c1-9 1-17-2-24l-6-12c4 2 5 5 6 8q1 3 3 3c2 1 3-1 5-2l12-9c4-3 9-1 12-3q3-2 4-5"/><path fill="#02043f" d="M3286 384q-3-3-3-8l-3-6q-7-4-10-10l-5-9c-2-2-4-9-3-13l12-14 8-6c6-4 19-11 25-6l7 8c3 7 5 17 3 25l-1 11-7 17-3 5c-6 4-10 6-17 7z"/><path fill="#fcf35f" d="M3313 332h-7q-5 0-8 2l-13 7q-5 2-7 6c-2 3-4 5-8 5-2-4-5-9-3-13 3-4 6-10 11-13q8-7 19-11h6c8 5 8 10 10 17"/><path fill="#f7d410" d="M3313 332c2 9-1 17-2 24l-1 5-6 13-2 2-10 5-4 1-1-7q-1-4-4-7c-1-2-5-3-7-5l-6-11c4 0 6-2 8-5q2-4 7-6l13-7 6-2z"/><path fill="#02043f" d="M3320 380c3-9 6-13 12-17l17-9q8-3 19-4l23 1 9 2c7 1 15 8 10 15q-9 13-19 22l-7 7q-7 4-14 2c-6-2-10-5-16-6l-9-3-7-1-10-3-6-3z"/><path fill="#fcf35f" d="M3402 357v4c-5 4-11 5-16 6l-22 2q-8 1-11 3l-5 2q-13 4-23 2l4-6q10-7 20-11 10-5 22-5 14 0 31 3"/><path fill="#f7d410" d="M3325 376q10 2 20-1l8-3q3-2 11-3l21-2c6-1 12-2 17-6v-4l5 4q1 3-1 5-9 14-23 26-6 5-12 2l-24-8c-5-2-12-1-17-3l-6-3z"/><path fill="#02043f" d="m3272 410 4-3 14-8q19-9 39-7l6 1 8 2 13 7 19 18q6 9-2 14l-8 5-14 5q-11 4-23 6h-19l-19-7c-7-3-14-4-21-5-4 0-7-3-7-8q-1-4 1-10z"/><path fill="#fcf35f" d="m3369 420 2 5-6-2c-4-4-9-5-14-5h-7c-6-1-12-4-19-4l-14-1-10 1q-10 2-18 7l-5 4c-2 3-5 2-9 2l-2-5q2-6 8-10l12-7 11-5 12-3c13-3 29 0 41 6 7 4 13 10 18 17"/><path fill="#f7d410" d="M3369 420c3 1 8 6 4 9q-6 6-14 8l-18 6-8 2c-10 0-19 2-30-2l-6-2q-14-6-26-6l-5-3q-2-5 1-10v3c6 2 9 3 11 0l5-4q8-5 18-7l10-1 14 1c7 0 13 3 19 4h7c5 0 10 1 14 5l6 3z"/><path fill="#02043f" d="m3203 524 3-2 14-14 10-14 12-24c2-5 2-12 2-17 4-6 13-5 18-5 10 0 21 2 31 6l6 2q10 6 19 14l4 5c2 7-3 10-6 14q-6 9-16 16l-7 4-14 9-8 3q-9 4-19 6l-11 2-13 2-20 1-5-4z"/><path fill="#fcf35f" d="M3318 481v-4h-12l-11 2h-16l-16-1q-5 0-9 2-3 8-10 9l-6 8c-3 5-6 7-11 8l4-5 11-20 4-8c2-5 1-12 2-18q11-2 22-1l15 2 11 4 10 7 6 4 7 6q1 2-1 5"/><path fill="#f7d410" d="m3318 481-12 14-12 10q-5 4-13 7l-14 7-14 4-10 2-36 3v-3l20-20c5-1 8-3 11-8l5-7q8-2 11-9 4-3 9-3l16 1h16l11-2 11-1z"/><path fill="#163149" d="M416 270q6 5 9 10l8 10 30 31 9 9 10 9 18 15q5 4 7 8c2 4 5 9 3 15-3 7-6 13-13 18l-13 8-9 6 10 10 9 9 8 8 15 11 14 12 21 18q6 5 8 12c2 10 1 20-6 28l-10 9c-5 3-11 7-16 8q-12 3-22 3l-33-1-63 1h-28l-4-1-2 7-3 6 1 20v23c-2 10-11 20-21 22l-13 2-14 1h-55l-29-2-7-2q-14-5-17-21l-2-11-1-23 1-20-15-1H89l-20-1c-12-2-24-4-34-10-3-1-5-3-7-6-5-6-9-12-10-19s4-18 8-24c5-6 10-11 17-16l18-15 11-8 12-9 20-18c1-4-1-6-4-7-13-5-28-12-30-28-1-7 2-13 6-18l9-8 10-8c5-6 11-9 17-15l16-15q5-4 8-9c3-3 6-5 8-9q7-10 15-16l6-7q0-5-3-6l-22-8q-8-3-13-9c-7-7-10-18-4-27 4-6 11-9 16-14l16-15 19-18 8-8q6-4 12-11l11-14c5-5 11-10 15-16l8-10c5-4 8-10 12-14l26-38c8-11 21-15 32-6 7 5 10 11 16 21l24 32 7 8 13 16 21 22 31 29 13 10 6 6c3 4 9 7 13 10 9 8 16 15 14 27q-4 10-13 16l-5 2-12 3c-5 2-7 6-10 10z"/><path fill="#6aa42e" d="m306 250 11 17 8 17 3 4 7 11 12 17 5 6q12 13 26 25l13 9 11 6q9 5 16 13l2 1 1 5-11 2-40 1q-18 1-36-1l-7-2 3 6 4 6 14 18 12 14 9 9 1 1 11 9 17 17 5 4 13 10 6 5 6 4 6 5c1 2 5 3 7 3h79l2 2-6 1h-83l-88 1-146-1h-38q2-2 0-5l-8-5-10-2 4-1-4-1-22-3h-1l22-28 14-20 7-11q3-4 4-10h12c13-3 26-4 38-8 8-3 13-4 20-4 2-4-6-5-8-4h-7l-13-3-7-2h-11l12-1c6-4 10-5 17-6q7-1 4-9 2-1-1-3l-7-1-20-3-5-1-13-2-6-2-7-1 18-21 3-5 9-12 15-23 6-11 6-9 4-8-5 3q0-4-5-6l11-6 1-1 7-3q0-5 4-7l15-4-4-1 8-1 2-2 2-10-2-2q2-1-2-3-11-3-19-3l-13-3q-8 0-13-2 1-5 3-7l11-15 5-7 3-5 7-11 6-10 9-15 4-9q2-8 6-14l1-2 4-8-2 1 2-4c2-1 2-3 2-4l9-13h1l2-3-2-3q2-2 3 0l8 12 20 27 15 18 24 27q8 10 18 18l23 20 18 14 2 3-7 4q-20 8-35 12c-11 3-24 0-35 1l-35-1z"/><path fill="#fcfe44" d="M284 90h2l-1 5-1 1h-1l-9 13c0 1 0 3-2 4l-2 4-8 14-3 9-6 11-15 25-23 35-7 10h3l9 2 35 5 5 2 2 1-1 10-3 3-8 1c-10 2-17 2-28 1l-9-1-17-3-9-2v-1h-1l-18-5-4-3q0-5 2-8l22-19 18-18 22-24 9-11 9-11c4-3 7-8 10-12l8-11z"/><path fill="#346a3b" d="m260 230-5-2-35-5-8-2h-4l7-10 23-35 15-25 6-11 3-9 8-14 1-2q0 5-2 8l-1 2q-5 7-7 14l-4 10-9 15-6 10-7 11-3 5-5 7-11 15-4 6q6 3 12 3l15 3 18 2q5 3 3 4"/><path fill="#163149" d="M617 509q-2-29-2-60v-53c1-7 4-20 9-25l9-7 17-8 15-6c7-2 9-6 9-14l-1-24-1-18q-1-17 1-31 1-11 6-19c5-8 15-11 22-14l19-8 19-8 12-5q13-4 25-10l10-4 24-9 12-6 9-3 31-12c7-4 15-6 24-9q16-8 40-17l13-5 11-2h6l29 6 10 4 11 3 32 10 8 3 32 10 9 3 8 3 9 4c11 5 16 15 18 25l1 13v58c-1 2 0 6 2 7q2 2 4 0 13-8 30-12l9-1 16 5 8 2 55 20q12 4 22 10l10 7c7 9 9 21 9 32v100c0 11-1 21-8 29q-6 7-18 12l-16 7-16 7-46 21-12 4-38 17-16 6c-7 2-14 7-22 8q-12 3-27 0l-22-7c-9-3-15-2-24 1l-20 9c-11 5-18 9-30 13l-11 5-28 12-39 16q-11 5-17 6-16 3-29-1l-50-16-25-10-6-2-8-3-26-9-26-10-17-6-7-3-30-11-17-6q-10-7-15-14-2-2-4-9z"/><path fill="#fffef0" d="M1483 452c-6-2-11 0-16 0-17-1-32-12-40-26q-11-19-8-42l2-8c3-8 6-15 11-20q4-5 9-8l2-2c-10-7-13-16-16-28-1-4-1-13 1-18l3-9q8-17 25-25l17-6 13-3 1-5c3-11 8-20 17-26q11-8 24-10l12-2 27 2 16 4 4 2 4-8 5-12c3-6 6-10 11-15q13-12 30-17l13-4c6-1 13-2 18-1l6 1c5 2 11 2 16 3 3 2 7 2 11 2 5-12 17-21 26-26q19-9 39-7l7 1 6 2q10 2 19 9 6 5 10 12 2 3 4 2l12-7 16-6 13-2c8 0 15 0 22 2s11 3 16 6q5 2 11 9 10 10 14 23l1 17c-1 9-4 15-9 22-7 10-18 16-30 20l-7 2h-19q-6-1-13-5c-3-2-5-4-5-8-3 0-4 2-6 3-12 6-22 13-36 13l-17-1-9-1-11-3q-13-6-24-16l-28 10q-21 7-40 17c-10 5-21 13-29 22l-11 18c-3 4-4 9-5 14q-2 17-1 20 1 10 8 20 7 12 22 16c9 2 15 3 23 1l14-2 18-7 5-5 5 5q6 14 13 24c2 4 4 8 7 10l16 18q23 20 55 30l8 2 11 3 4 1 21 4c18 2 31 3 46 0h3q0 6-2 11c-2 9-9 17-17 25-6 7-17 12-26 15q-14 4-29 2l-12-3-6-2c-3-1-7-5-10-2a71 71 0 0 1-39 23l-18 1-18-3-21-8-29 15-14 4h-14q-20-3-35-15-7-5-11-12l-2-6q-12 5-25 8c-9 2-18 2-27 2l-16-4-6-2q-15-6-24-18-11-14-12-32"/><path fill="#fcf35f" d="m1092 207-1 3q-5 5-13 8l-15 6-40 17-12 4-4 2-8 4-18 7-13 6-18 7-22 8-15 7-27 11-13 5c-3 1-3 2-4 5l1 22v43l-1 17v1c-4-10-2-21-2-32l-1-48c0-7 4-11 10-13l39-18 20-7 9-4 30-12 10-4 17-7 8-4c4-1 9-2 14-5 13-7 27-11 41-18l23-9q-2-6-7-8l-56-19-38-12-21-6q-12-4-23 0l-15 6c-8 5-17 7-25 12l-23 8-12 6-25 9-38 15-17 8-13 5-16 7c-12 6-22 9-36 14q-8 3-11 7c7 4 15 5 23 7l34 11q15 3 33 9c8 2 17 4 25 8 3 1 5 3 4 4l-118-33h-4l-3-3 2-8 4-2 5-3 8-4 18-6h-1l9-3 13-6 39-16 17-7 18-8h2l41-16 5-3 26-10 11-5 29-11h5-5 8l23 8 10 3q20 5 48 15l9 2 6 2 18 7c6 2 12 3 17 8z"/><path fill="#f7d260" d="M869 389v4l-5-1c-5 3-13 5-19 3l-1-6-2-56v-27l-12-6c1-1-1-3-3-4-9-4-18-6-26-8q-18-6-33-9l-34-11c-8-2-16-3-23-6q3-5 11-8c14-5 24-8 36-14l16-7 13-5 17-8 38-15 25-10 12-5c7-3 16-5 23-9 8-4 17-6 25-11l15-6q11-4 23 0l21 6c13 3 23 8 38 12l56 19q5 2 7 7l-23 10c-14 7-28 11-41 18-5 3-10 4-14 5l-8 4-17 7-10 4-30 12-9 4-20 7-39 18c-6 2-10 6-10 13l1 48c0 11-2 22 0 32z"/><path fill="#fcf35f" d="m1039 203-23-6-37-14-8-2-12-4q-5-2-9 0l-36 17-17 7-17 7q-19 10-30 14l-28 12-16 7q-11 3-21 9l-4 1h-2q11-9 23-14l28-11 11-5q8-5 11-5l14-7 19-8 19-8q21-11 44-20 6-3 14 0l40 13 16 6c5 2 14 4 21 8z"/><path fill="#da5d1d" d="m1039 203-1 2-4 2-24 11-31 13c-4 2-11 3-16 6l-17 7-22 9-21 9-38 17c-4 2-7 3-12 1l-44-16-13-4q-9-4-19-6-2 0 1-2l3-1 3-1q11-6 22-9l16-7 28-12q11-4 30-14l17-7 17-7 36-17q4-2 9 0l12 4 8 2 37 14zM869 398v-9l1-17v-43l-1-22c1-3 1-4 4-5l13-5 27-11 15-7 22-8 18-7 13-6 18-7 8-4 4-2 11-3 41-18 15-6q8-3 13-8l1-3v2c1 27 2 53 0 79l2 7-3 4-11 6-49 22h-5l-4-14v-6l-1-25-1-18-2-9-3-8q-7-1-11 4l-2 7-1 13 1 66q-16 10-28 15l-26 11-17 8-7 3-26 12z"/><path fill="#346a3b" d="m421 381-1-4-2-2q-7-8-16-13l-11-6-13-9q-14-12-26-25l-4-4-13-19-7-11-3-4-8-17-11-17h1l3-1h31l8 2 6 1q8 1 13 8l7 9q15 21 25 32l8 9 13 14 23 21 11 10 12 10 3 2c2 3 0 5-3 6l-9 2-16 5z"/><path fill="#ee7620" d="m707 256-2 7 2 4h5l118 33 11 5 1 28 2 56 1 5c6 3 14 1 18-2l5 1 1-2v7l-7 3c-3 2-6 1-10 0l-9-3-19-6-22-7-15-6-43-14-3-1-25-8c-4-2-9-3-9-8l-1-24-1-24-1-38q0-3 3-6"/><path fill="#fcfe44" d="M216 267q5 2 5 6l-4 9-5 8q-10 18-23 37l-11 14-12 14-4 3q2 4 5 4l19 3 9 2 23 3 6 2q3 8-4 9c-7 1-11 2-15 5l-14 2-14-1-19-3-13-2-11-3-19-4-5-2c3-6 6-9 10-12l19-17 11-11 17-17 19-21 10-13q3-5 8-9z"/><path fill="#346a3b" d="m224 372-6-2-23-3-9-2-19-3-5-1 4-6 12-14 11-14q13-19 23-37l5-8 4-9 5-3-3 7-7 10-6 11-15 23-9 12-3 5-18 21 6 1 7 2 13 2 5 1 20 3h6q4 3 2 4"/><path fill="#fcf35f" d="M1255 331q1 3-1 5l-14 6-12 6-8 4-9 4-8 4-8 4-10 4-15 8-8 3-6 3-10 5q-9 5-31 13l-10 5-10 5-7 2q-2 1-2 3v103l-4 1v-42l-1-44-1-15c1-8 6-10 13-12l6-4 18-8 27-12 14-7 15-6c11-6 19-10 30-14l11-6 26-12 8-2 2-4-11-5c-7-3-12-6-20-8l-20-8-26-10c-6-2-13-1-20 3l-11 6q15-1 28 4l26 8 16 8q-5 6-12 10l-30 14-14 6c-11 6-23 10-34 15l-14 7-28 11c-6 3-11 3-17 1l-27-13-13-5q-2-1-1-3l6-1 5 2 32 16q5 2 12 1l16-7c8-5 15-7 25-12l54-24 22-10 10-5q-15-8-30-13c-9-4-19-6-29-3h-13l-2-2q-2-2 0-4l9-5 10-5 9-5q7-4 15 0l21 7 10 4 25 10 21 9q3 2 5 6"/><path fill="#f7d260" d="M1086 474v45h-11c-3 0-4-1-5-2-4 0-6-1-8-3l-2-10v-83l-1-7-22-9-4-5-2-4-6-6-26-14-3-2c-1-3 0-4 2-5 4-1 6-3 11-2l19 4-5 1q-2 2 0 3l13 5 27 13c6 2 11 2 17-1l28-11 14-7c11-5 23-9 34-15l14-6 30-14 12-8q-7-6-16-10l-26-8q-13-5-27-3l10-7c7-4 14-5 20-3l26 10 20 8c8 2 13 5 20 8l10 4v4l-7 2-28 13-11 6c-11 4-19 8-30 14l-15 6-14 7-27 12-18 8-6 4c-7 2-12 4-13 12l1 15 1 44v41l2 1z"/><path fill="#ee7620" d="M1130 310q-2 2 0 4l2 2h13q2 2 6 2c8 0 15 1 22 4l18 6q3 1 4 4l-16 8-34 15-18 8-13 6-31 14c-7 4-11 5-17 2q-10-3-22-10-5-2-11-2l-5-2-19-4c-5-1-7 1-11 2-2 1-3 2-3 4l4 3-4-1-1-4c1-2 4-2 6-3l6-2 11-5 8-3q25-12 51-22l3-2 44-21z"/><path fill="#da5d1d" d="M1033 373q6 0 11 2 12 7 22 10c6 3 10 2 17-2l31-14 13-6 18-8 34-15 16-7q-1-4-4-5l-18-6c-7-3-14-4-22-4l-6-2c10-3 20-1 29 3l30 10c-3 4-7 7-10 8l-22 10-54 24c-10 5-17 7-25 12l-15 7q-8 1-13-1z"/><path fill="#da5d1d" d="m1033 400 3 4 22 8 2 9v83l1 9c3 3 5 4 9 4l4 2h1l9 2 2-47v-59q0-2 2-3l7-2 10-5 10-5q22-8 31-13l10-5 6-3 8-3 15-8 10-4 8-4 8-4 9-4 8-4 12-6 13-5q3-3 2-6l1 4v109l-166 77-8 1-9-2-7-2-19-6-9-3-1-13-1-68q0-12-3-28"/><path fill="#a8aeb1" d="M1803 460c2 2 1 5-1 8-8 9-17 17-29 19-10 1-19 3-28 0q-17-5-30-16c-9 7-16 13-25 18-10 5-22 9-33 6l-19-8q-8-4-16-12c-6-5-10-12-12-20l-22 10-10 1q-14 0-29-6l-10-6a68 68 0 0 1-25-43l-20-3-8-3c-9-5-17-12-21-21-4-8-5-17-5-26l-2-16 3-1 2 12c-1 9 0 21 4 30 6 11 16 21 30 23 7 2 11 2 18 2 2 8 3 15 7 20l6 11 7 10 8 6 9 4 10 3c7 2 17 3 24 0l16-5 7-5 7 13q3 5 9 10 10 9 24 14 10 4 17 3c10 0 20-3 29-8l14-11 4-4c15 12 35 20 53 16l12-2q11-4 18-13z"/><path fill="#ccd5ce" d="m1458 342 2 16c0 9 1 18 5 26 4 9 12 16 21 21l8 3 19 2c5 18 11 33 26 44l10 6q15 6 29 6l10-1 20-10c4 8 8 15 14 20q8 8 16 12l19 8c11 3 23-1 33-6 9-5 16-11 23-18q15 11 32 16c9 3 18 1 28 0 12-2 21-10 29-19 2-3 3-6 1-8l1-3q-4-4-6-4l-17-6c-17-6-30-12-43-23l-11-10-6-5-7-9-11-22c-1-4-3-5-7-5v-4l9-6 4 2 5 12 9 14 5 7q11 13 26 26l8 5 9 6 9 5 4 2 15 5 12 4 15 4c8 2 18 2 26 3l17 1h19l2 3q-3 9-7 14l-8 8q-3 4-10 8l-10 5-12 3-12 1-10-1-15-4-12-1-3 1q-11 11-19 15-10 5-19 6l-16 1-14-2-5-2-18-6-5-1-4 2-24 13c-5 2-13 3-20 3h-11l-12-3-12-7q-6-4-11-12l-4-7c-2-4-9-3-11-2l-11 5-11 3q-16 1-32-1-17-3-27-14-8-9-13-20c-3-5-4-12-5-17l-2-3-8-1c-6 1-13 2-19 0q-16-6-25-20l-6-14c-2-3-2-5-2-8l-1-4q-1-9 1-18l6-15 8-11c3-3 6-6 7-9z"/><path fill="#f7d260" d="m694 376-9 3 2 2-6 1c1 4 2 4 4 5l14 5c7 4 11 7 16 8l24 6 30 11 28 10 30 9 25 10c7 4 10 5 17 2l31-13 33-13q7-4 18-7l11-5 15-4c6-1 13 1 15 7-7 5-18 8-25 12l-32 14-17 7-10 5-24 11c-4 1-11 3-15 8l-1 8 1 58v21q0 10 4 2v4l-1 4c-4-3-5-6-11-7l-12 5-3-18-1-27-1-23v-23q1-5-4-7l-18-7-36-13-25-9-1 15v25l-1 21-7 5-6-5c3 0 3-3 3-5v-41c-1-9-1-16-3-23l-18-9-16-8-23-9-18-7q-7-3-12-8c3-4 7-6 14-9q4-1 6-5l-4-1q4-3 8-2z"/><path fill="#fcf35f" d="m687 381 18 9 24 8 9 3 48 17 19 6 12 4 22 7 16 7c7 4 11 2 18-1l9-4c6-1 9-3 15-6l8-3 15-6 9-3q11-6 24-10l7-3 9-3q8-3 16-3l10 6 3 2 2 3q0 4-3 5l-30 14-17 7-13 6-4 2-8 3-8 4-14 6-18 8-12 5v88q-4 8-4-2v-21l-1-58v-7c5-6 12-8 16-9l24-11 10-5 17-7 32-14 25-11c-2-7-9-9-15-8l-15 4-11 5q-11 3-18 7l-33 13-31 13c-7 3-10 2-17-2l-25-10-30-9-28-10-30-11-24-6c-5-1-9-4-16-8l-14-5-5-3q4-3 7-3"/><path fill="#346a3b" d="M520 492h-79c-2 0-6-1-7-3l-6-5-6-4-6-5-13-10-5-4-17-17-11-9-1-1-9-9-12-14-14-18-4-6q2 2 3 0h11l20 1h13l14-1 8 1q10 0 20-3-2 4-7 5l-12 4 4 2c10 0 17-1 22 7q17 20 34 36l30 25 26 21z"/><path fill="#ee7620" d="M649 388q-1 3 1 3l9 5-6-2q2 4 5 5l20 8 37 17 21 8 5 3 1 3 1-3q3 27 2 55l1 9 3 4 8-1 3-24v-25l1 17 1-7 1-20 8 2c7 3 15 4 21 8 12 5 31 10 45 17l3 2 1 15 1 11 2 42q0 4 2 7l3 18 12-5c6 1 7 4 11 7l1-4 1 4q6 2 8 1l56-26 37-17 14-6q4-1 8-5v-98q3-1 3-5 2 3 2 9v96c0 2-1 3-3 4l-32 14-21 10-30 14-15 7-21 8-12 5h-5l-13-4-5-2-6-2-29-11-16-5-56-21-6-2-5-1-37-14-9-3-13-6-15-7c-3-2-3-4-3-8v-22l-1-27c0-17-2-31-1-47l-1-5z"/><path fill="#fcfe44" d="M165 409c0 3-1 4-3 6l-5 10c-5 9-12 18-18 26q-3 6-6 8l-13 15-6 5 1 1c10 0 19 1 28 3l9 1 8 5q3 4 2 6H59q0-5 2-7l9-7q17-12 31-25l16-13 28-28c6-5 10-9 18-7z"/><path fill="#346a3b" d="M167 409q-1 6-4 9l-7 12-14 20c-7 10-14 17-22 26l1 2 21 3 5 1-4 1c-9-2-18-3-28-3h-1l6-6 13-15q3-2 6-8c6-8 13-17 18-26l4-8c3-4 4-5 4-8z"/><path fill="#da5d1d" d="M997 416v97q-4 5-8 6l-14 6-37 17c-18 7-38 18-56 26l-5 1-4-6v-85l-1-6 13-6 18-8 14-6 8-4 8-3 4-2 13-6 17-7z"/><path fill="#a8aeb1" d="M1495 525q4-1 6 1l21 8c9 3 16 6 24 6l2 23-16 4h-33q-3 0-3-3l-1-37z"/><path fill="#627382" d="m1544 545 1 15c-8 4-13 5-18 4h-25q-3-2-3-5v-29l17 6c9 4 18 6 27 7z"/><path fill="#f7d410" d="M335 538v13l-1 2-3-15-18-1h-52l-6 1-2-1 1-3h64l16-1z"/><path fill="#978530" d="m335 538 1 31-1 12-79 1-2-3-1-42 2 1 5-1h70l3 15h2z"/><path fill="#ccd5ce" d="m2437 178-5 5 2 3 1 2q-1-2-3-1l-8 6-7 10-6 9q-8 10-11 18l-7 15c-2 3-4 9-3 12l5 3 22 10 4 2 12 6 13 9 15 16 2 4 6 13 5 18 3 10 2 7 1 8q1 8 4 15c0 2 1 4 3 4h19c5-4 6-6 8-9l9-13 3-5 3-5 11-17 3-7-2-11-3-14-2-11-2-8-2-7-3-10q2-2 5-2v1l3 14 10 45c1 6-5 13-7 18l-12 19-17 23q0 2-3 3c-10 0-17-1-26 1l-2-6-15-58-9-19q-4-7-12-13-13-10-25-15l-25-12c-4-2-10-2-9-9q0-4 3-9c5-13 11-25 19-37l14-17q7-9 16-14"/><path fill="#a8aeb1" d="M2586 232q-9 9-20 8l-14-5-32-20-14-10-21-15c-2-1-3-2-2-4q5-5 10-7c5-2 12 0 17 3l17 10 12 5 18 11 17 12 6 7z"/><path fill="#627382" d="m2434 193 7 19c6 14 19 24 31 32l13 8 22 11c7 3 14 4 22 0l4-3v1l1 2q-3 0-5 2l-5 1-4 2q-4 1-8-1-32-12-56-32c-10-9-17-22-22-35l-2-7 1-2z"/><path fill="#828e96" d="M2618 307h-3l-2-3-10-21-8-27-3-15 16-7q4-1 4-3l2-2q0-4-2-6l3 4 13 49c2 7 4 13 3 19q0 3-3 5z"/><path fill="#163149" d="M2612 231q0 2-4 3l-16 7-4 2q-16 7-33 11l-6 3-12 4 1 5 3 18 1 4 2 11 5 21c1 5 1 8-1 11l-14 23-4 7-4 4-13 19-2-1 17-23 12-19c2-5 8-12 7-18l-10-45-3-14v-1l-1-1v-2l7-2 8-4 9-3 27-10z"/><path fill="#465a6e" d="m2592 241 3 15 8 27 10 21v1q-9-9-12-20l-7-23-2-9q-1-6-4-10z"/><path fill="#627382" d="M2588 243q3 4 4 10l2 9 7 23q3 11 11 21l1-2 1 3h4l-3 4q-9 6-18 15c-2 3-6 5-10 8l-9 8-21 20-6 5-7 7c-5 6-10 12-16 15v1h-3q-9-1-17-4 3-1 3-3l1 1 14-19 4-4 4-7 14-23c2-3 2-6 1-11l-5-21-2-11-1-4-3-18-1-3 12-6 6-3q17-4 33-11"/><path fill="#fcf35f" d="m3275 267-4 3-3 2-3 2-10 1c-16 4-29 4-42 10q-16 9-29 21l-10 10-10 12-3 3q-4-1-5-3h-1l1-4 9-19 6-10 8-8 10-9c5-4 10-8 15-10q10-6 23-10 6 0 11-2l6-1 21-3h9q3 2 3 4z"/><path fill="#ccd5ce" d="M1772 394q-1-3 3-1l5 3q16 10 33 16l4 2 5 1 7 2 7 2 21 3 16 1c9-1 20-2 30-5l5-1 7-3 4-3q4-2 7-6 4-3 6-7 6-8 8-18l2-22v-9l-4-18-5-16-8-18-13-22v-2q-5-3-8-2-2-1-1-3 3-1 5-4l4 3c6 10 16 26 22 40q7 16 11 33l2 13c0 9-1 17-3 26l-3 13c-7 17-26 29-44 33-14 2-26 2-44 1l-16-2-10-3-16-4q-21-8-39-23"/><path fill="#f7d410" d="m3275 267-3 15q-5 20-17 36l-6 8c-4 5-10 7-17 7-10 0-15 0-23 2l-11 2c-9 2-15 2-21 5l-15 5-7 4-5 1v-6l3-14 3-8-1 4h1l4 3 4-3 9-11 11-11q13-12 29-21c13-6 26-6 42-10l10-1 3-2 3-2z"/><path fill="#fefefe" d="M2308 427h-1q-7 0-13-4l-11-10-8-6c-7-7-20-17-31-25l-11-8-8-7-18-15-1-3-5-4 1-5 32-24 41-30q12-8 25-14l13-5c5-1 12 1 16 2l19 7 29 12 18 8c14 6 23 11 32 18 3 3 7 6 6 10l-3 3-20 17-24 19-18 16-7 6-24 17-8 7-8 6z"/><path fill="#465a6e" d="M1864 276h-9z"/><path fill="#627382" d="m1744 282-1-5c5 1 10 3 13 8l-2 10q-6 19-6 39l4 17 9 24c-7-3-9-9-13-15q-4-5-5-9c-3-8-5-13-5-19l2-9 6-18c2-4 7-23-2-23m64-4-2 2q0 6 2 11l1 1-17-2-4 2-3-5 4-3-5-4z"/><path fill="#163149" d="m1809 292 10 18q3 9 2 19c-1 8-5 20-15 23q-8 2-14-3c-8-6-12-14-13-23q-2-9 0-15c2-6 3-13 7-18l2-1 4-2z"/><path fill="#fefefe" d="m2745 368-2 1-13 8-8 3-28 18c-3 2-7 3-10 6-5 3-9 5-15 5l-5-2q-15-10-32-18-6-2-22-12-2-2-2-5l2-11 3-5q0-5 3-8l8-9 17-16c3-2 8-6 12-5l15 4q23 9 46 22l10 6c7 4 12 8 18 14z"/><path fill="#fffef0" d="m2624 339-8 8v2q-3 2-2 6l-4 6 1-3-7 3-23 23-4 6 1 2v8l3 4 14 7c6 5 17 9 25 13l10 6 17 10 18 11 7 6c11 4 17-5 15-15q-2-11-6-21l-4-8q-3-3-8-4c6 0 10-2 15-5l-1 1 7 28 2 11c0 4 0 14-4 15l-9 3h-9l-13-11-7-4-47-26-25-14q-4-3-4-7v-5l1-2-5 4q-3 2-6 0 0-4 4-7l13-12 7-7 30-27z"/><path fill="#828e96" d="m2202 340-1 2 5 7h-1l5 8-4 16-2 5-2 6-4 16-4 17-9 41q-1 8 2 19l7 17 2 4 2 4q1 4 3 5 7-1 12-4l18-8c8-4 16-8 26-10l13-3q6-1 8 3c-9 0-16 3-25 5l-12 4-24 12-5 2-9 5q-3 2-6 0-10-6-19-15 3 2 5 1c-2-4-4-6-8-9l-11-11c-7-8-6-17-4-27l7-20 3-12 4-12 6-18q1-6 5-13l4-10 5-9 5-9c0-3 0-5-2-5z"/><path fill="#a8aeb1" d="M2197 344c2 0 2 2 2 4l-5 10-5 9-4 10q-4 7-5 13l-6 18-4 12-3 12-7 20c-2 10-3 19 4 27l11 11 9 8q-3 2-6 0l-4-3q-8-6-14-14c-6-7-7-15-5-24l3-11 11-36q7-24 18-49z"/><path fill="#163149" d="m2206 349 1 3 18 15 8 7 11 8c11 8 24 18 31 25l8 6 11 10-5-2-7-7-6-4-12-9-6-5-18-14-16-12-7-7-7-6-5-7z"/><path fill="#fcf35f" d="M3251 370q-4 2-6 6l-3-1-8-2-16 3h-9l-12 2-18 6c-8 3-16 8-23 14l-8 6q-4 2-8 9l-5 6-2-8c-7 0-10 4-13 10l-7 7c0-4 2-7 3-10 2-7 6-14 9-18 6-7 11-14 18-19l12-10 20-10 7-2 9-2 19-3 17-1q8 0 17 5 5 6 7 12"/><path fill="#627382" d="m2289 421-3 8c-3 21-5 35-5 55q0 2 2 3l-5-2q-2-4-8-3l-13 3c-10 2-18 6-26 10l-18 8-11 5q-3-2-3-5l-3-5-2-4-7-17q2-5 1-8-1-9 1-16l3-8 7-32 2-10 7-26 1-10-3 6 4-16 7 6 7 7 16 12 18 14 6 5 12 9 6 4z"/><path fill="#a8aeb1" d="m2610 361-2 11q0 3 2 5h-1v2l14 7 18 10 8 5 7 4 8 4v-2l5 2q5 1 8 4l4 8q4 10 6 21c2 10-4 19-15 15l-6-5q-9-7-19-12l-17-10-10-6c-8-4-19-8-25-13l-14-7-3-4v-7l-1-2q1-4 4-7l23-23 7-4z"/><path fill="#465a6e" d="M2187 477q-3-11-2-19l9-41 4-17 4-16 2-6 2-5 2-6v10l-7 26-2 10-7 32-3 8q-2 7-1 16 1 3-1 8"/><path fill="#828e96" d="m2745 368 7 10q-2 1-2 3l5 11 12 26 4 9 4 13q8 14 13 31l1 8q-3 4-7 6l-3 3 3 1-2 2-5-8-1-2v-2l-13-23-23-49-9-22-2-5 16-10v-1z"/><path fill="#f7d410" d="M3251 370v7l-10 21q-3 7-8 13l-3 3c-3 2-5 4-7 8-3 3-9 4-15 6l-9 1h-21l-19 3-7 2-9 3-21 8-11 4q-2-6 0-12l2-9 7-7c3-6 6-10 12-11l3 9 5-6q4-7 8-9l8-6c7-6 15-11 23-14l18-6 12-2h9c4-1 10-1 14-3l9 2 3 1q3-4 7-6"/><path fill="#828e96" d="M2610 377q16 10 22 12 17 8 32 18l1 1-9-3-7-4-8-5-18-10-13-7-2-1z"/><path fill="#a8aeb1" d="m2752 378 7 13 6 14 21 47c3 8 6 16 7 25h1v4l-12 8h-2c0-2 0-3 2-4l7-4-1-10q-5-17-13-31l-4-13-4-9-12-26-5-10q0-3 2-4"/><path fill="#627382" d="m2727 380 2 5-1-2-1 1 2 7 11 25 5 12 13 25 6 13 7 15 3 4 1-2 5 8-7 5-21 13-22 11-4 1v1l-6 2-13 6-10 2c-5-1-8-7-10-12l-6-17-9-25-2-12 7-1 8-1c5-2 8-4 8-8l2-16-9-33c2-4 5-4 8-6l5-4 19-11 5-3z"/><path fill="#465a6e" d="m2729 385 9 22 23 49 13 23v2l1 2v2l-4-4-7-15-6-13-13-25-5-12-11-25-2-7 1-1z"/><path fill="#627382" d="M2574 395v5z"/><path fill="#828e96" d="M2570 397q-1 4 2 7l-1 1q-5-3-7-8 3 2 6 0"/><path fill="#fefefe" d="M2634 478c0 2-2 2-4 3l-4 1q-5 4-12 5l-6 2-4-2-2-2c-6-1-10-4-16-6l-9-6-16-9-14-7-14-7-4-3-20-11-14-8-1-1q-1 6 1 13l5 21 8 29 2 11 3 10 1 6q3 2 5 1l8-3 5-1 8-3 5-2 10-4 22-9 7-2c4-1 9-3 13-1-14 6-30 13-43 17l-34 12c-5 1-7 4-8 9l-8 23-5 12-8 20h-4l-10-4-11-3v-1l1-2 16 4 4 1q4-4 5-8l4-12 4-10 3-7 3-10v-5l-14-5q-3 0-4 2l-4 12-6 16-5 14q-1 3-3 3l-1-5 17-45-3-6-17-14-6-5-14-12-14-11-16-13-9-7-1-2 18-11 36-19 10-5 15-6 7-2h13l15 5 22 9 43 21 36 22c5 3 11 7 13 13"/><path fill="#a8aeb1" d="m2289 421 5 2q6 4 13 4v8l-4 48-1 8 5 4q2 2 1 4l-12-7-13-5q-2-1-2-4c0-19 2-33 5-54zm319 68-11 4c-4-2-9 0-13 1l-7 2-22 9-10 4-5 2-8 3-5 1-8 3q-2 1-5-1l-1-6-3-10-2-11-8-29-5-21-3-11q2-2 3-1l14 8 20 11 4 3 14 7 14 7 16 9 9 6 15 6 2 2z"/><path fill="#627382" d="m2468 569-2 7v3l-4-2 1-1q-3-5-7-6l-16-4-31-10-27-8-13-7 1-5 10-19 1-4 8-17c1-2 3-4 3-7l6-12 7-17 3-4 4 4 7 5 13 10 15 13 9 7 18 15 10 9-3 8-4 11-4 10q-5 11-8 24l-1 3 1 1z"/><path fill="#828e96" d="m2634 478 3 4 12 33 6 15 8 20 2 6-20 7h-3l-1-4-1-3-23-67 14-7-1-1c2-1 4-1 4-3"/><path fill="#465a6e" d="m2640 556 1 3q-19 7-33 9l-44 7-31 7-7 1-17 3q-4 2-9 2l1 2h-6l-2-1 7-17 15-41c2-5 7-7 13-9l23-8 24-9 24-9 15-6 4 9 4 14 4 11 6 15 6 17 1 2z"/><path fill="#828e96" d="M1830 535v-1l19-2 2 33-11 2-9 1-12 1-20 1-3-25 1-4q7-4 11-4l8-1z"/><path fill="#a8aeb1" d="M1725 548h10l19-1v38c-3 3-6 4-9 4q-18 2-36 0l-8-1-3-4q-4-17-4-34 0-3 2-3z"/><path fill="#627382" d="m2645 563-13 4-7 1-6 1-18 5-39 7-24 4-29 5h-8l-2-1 10-3 17-3 7-1 31-7 44-7q14-2 33-9v3z"/><path fill="#fcf35f" d="M3362 301q-1 3-4 5c-3 2-8 0-12 3l-12 9c-2 1-3 3-5 2q-2 0-3-3c-1-3-2-6-6-8-2-3 0-6 3-8l8-2 6-3 18-8q2-1 4 1c2 1 3 2 3 5z"/><path fill="#f7d410" d="m3362 301-2 11-3 10q-3 8-8 14c-3 5-13 9-19 11l-2-18-2-8-6-12c4 2 5 5 6 8q1 3 3 3c2 1 3-1 5-2l12-9c4-3 9-1 12-3q3-2 4-5"/></svg>