<?xml version="1.0" encoding="UTF-8" standalone="no"?>
<svg
   width="1191"
   height="245"
   viewBox="-7 -19 1191 245"
   version="1.1"
   id="svg122"
   sodipodi:docname="five_cartoon_icons.svg"
   inkscape:version="1.4.3 (0d15f75, 2025-12-25)"
   xmlns:inkscape="http://www.inkscape.org/namespaces/inkscape"
   xmlns:sodipodi="http://sodipodi.sourceforge.net/DTD/sodipodi-0.dtd"
   xmlns="http://www.w3.org/2000/svg"
   xmlns:svg="http://www.w3.org/2000/svg">
  <defs
     id="defs122" />
  <sodipodi:namedview
     id="namedview122"
     pagecolor="#ffffff"
     bordercolor="#000000"
     borderopacity="0.25"
     inkscape:showpageshadow="2"
     inkscape:pageopacity="0.0"
     inkscape:pagecheckerboard="0"
     inkscape:deskcolor="#d1d1d1"
     inkscape:zoom="0.7388749"
     inkscape:cx="596.1767"
     inkscape:cy="122.48352"
     inkscape:window-width="2375"
     inkscape:window-height="1316"
     inkscape:window-x="0"
     inkscape:window-y="25"
     inkscape:window-maximized="0"
     inkscape:current-layer="svg122" />
  <path
     d="m189.43 162.59-6.11 1.46q-24.72-.52-48.5.55-.03 6.97.05 13.41.07 5.11-.94 7.26c-2.65 5.66-7.52 6.62-13.68 6.63q-20.38.06-22.5.03c-6.49-.08-12.47.02-15.49-5.9q-1.25-2.46-1.24-6.79.02-8.13.07-13.82l-1.33-.69q.41-.83 0-.83-26.55.32-46 .16-5.22-.04-8.95-1.13-1.84-.54-3.48-1.71-2.15-1.52-2.87-2.51-1.2-1.67-2.6-5.55.26-3.36-.41-4.36 2.75-5.72 7.67-9.43 11.2-8.45 20.77-16.96-6.42-2.59-10.17-7.08-2.06-2.46-1.55-6.27 1.79-3.8 5.22-6.65Q50.29 91.69 53 88.5q8.46-9.96 9.24-10.87c.56-.67 1.86-1.48 1.88-1.91q-7.56-2.92-10.57-4.75c-1.64-.99-4.29-3.84-4.68-6.1q-.72-4.17 2.74-7.03 6.69-5.53 12.11-10.88 4.58-4.53 5.37-5.28c7.18-6.7 13.48-14.3 19.76-22.38 3.62-4.65 6.04-9.42 9.46-13.74q5.19-3.74 9.61-1.86 1.83.78 5.91 6.99 11.71 17.8 28.97 33.53 6.91 6.3 16.63 14.12 3.11 2.51 2.45 7.58-3.63 4.91-5.31 5.5-2.68.95-4.56 2.1c-1.14.7-2.71.38-3.49 1.45Q159.94 90 174.03 101.9q5.08 4.29 5.65 6.35c1.84 6.65-6.35 11.55-11.78 13.27 6.34 8.05 12.37 12.26 22.7 20.18q3.86 2.96 4.98 5.26c3.2 6.53.31 12.49-6.15 15.63"
     fill="#083248"
     id="path1" />
  <path
     d="M105.29 17.1q-6.93 7.04-10.1 16.46Q88.15 46.7 78.84 58.8l16.81 3.7q.91 2.71.41 4.06-5.59 1.52-6.79 1.55-9.86.28-21.9-3.73-2.28-.76-3.38-1.51 15.83-15.18 29.3-32.34 4.29-5.47 10.71-14.18z"
     fill="#fef25e"
     id="path2" />
  <path
     d="M111.57 69.52q2.66 4.22 4.9 8.44 3.13 5.87 4.9 8.4 4.52 6.46 9.46 11.31c5.93 5.83 12.88 8.74 18.59 13.66l3.86.29-.55 1.11q-17.35 2.06-34.52.55l1.44 2.23q5.33 8.04 11.27 13.82c5.32 5.16 10.53 10.05 16.31 14.41q4.74 3.58 6.48 5.41 2.17 1.17 5.54.78 4.55-.53 19.28.96-53.73.32-107.28.29-1.97 0-7.47-.38-2.11-3.12-5.05-3.48-3.32-.42-4.3-.88l-4.15-1.55q4.81-6.39 5.42-7.16 4.42-5.55 8.8-12.73.16-1.63-.63-1.61l.17-.87q10.64-.2 20.77-3.74 1.1-.39 3.48-.6l.28-.91-12.34-2.08q1.38-.35 2.47-1.32l4.8-1.22q1.3-1.47.21-2.63.51-.09.48-.28-.11-.84-1.02-.99-9.78-1.62-17.66-2.91 1.76-3.43 6.35-8.97 2.15-2.59 11.75-18.22.38-.61.51-1.19-1-.35-1.35.1.59-2.43-1.08-2.42l7.6-5.86L95 68.3q2.53-1.06 2.61-4.26l-16.05-4.65q.22-3.34 5.1-10.12c3.22-4.47 5.96-9.42 8.81-14.24q.97-1.64-.28-1.47 3.17-9.42 10.1-16.46 8.64 11.99 18.3 23.08 10.72 12.33 23.68 21.48c-5.98 3.44-12.77 6.26-19.01 6.16q-10.13-.16-17.12-.12-.42 1.24.43 1.82"
     fill="#5da630"
     id="path3" />
  <path
     d="M646.96 153.47q-3.88 4.65-9.26 7.46-.58 6.45-.44 11.57.09 3.08-.71 6.37l-.89-17.38c5.26-4.38 8.47-6.42 11.18-10.95q2.58-4.32 4.46-9.98c.82-2.51 2.42-5.54 4.06-6.69 12.41-8.67 13.83-20.86 11.24-34.92 8.91-2.35 17.9-7.61 19.5-16.5 1.3-7.19-4.36-14.03-9.8-18.34q-8.54-6.78-17.23-10.92c-1.04-2.41-.68-3.52-1.43-5.28q-1.88-4.43-2.04-4.77c-4.53-9.61-18.78-16.74-28.9-15.71q-4.18.42-9.51 2.05c-7.04-2.36-10.86-4.59-14.68-5.41q-14.6-3.15-26.46 6.22-2.46 1.95-3.11 2.51-2.56.85-3.89.65-15.59-2.41-27.92 6.4-4.8 3.44-7.59 8.5-4.33.52-10.55.6-16.26.2-25.82 13.55-4.47 2.89-7.95 4.65c-8.54 4.33-13.43 11.94-14.05 21.65q-.12 1.75 1.27 8.89c.31 1.6 1.65 2.98.9 4.69l-2.53 3.11q-.72 2.72-2.37 2.85 1.16-3.29 3.11-5.5-.31-4.71-.88-7.28c-1.8-8.18.1-16.06 5.39-22.52 2.78-3.39 6.37-5.72 10.18-7.53q3.89-1.85 5.05-2.58 9.09-12.62 23.09-14.79 2.7-.42 13.31-.06 1.41-1.02 2.46-2.68 1.68-2.66 4.52-4.99 14.03-11.51 32.17-7.69 5.3-4.52 11.35-7.55 2.88-1.45 4.43-1.79 1.9-.42 3.11-.74 1.61-.44 3.11-.52 11.08-.63 21.39 6.23 6.44-.85 9.3-1.22c3.98-.52 10.87-.43 15.51 1.11q11.54 3.82 17.44 14.23 2.1 3.69 2.69 8.85l14.92 9.39q2.43 2.23 4.8 3.75.68.43 4.36 4.33c5.03 5.33 6.04 11.72 2.63 18.68-2.93 5.95-8.4 8.95-14.21 11.29-.99.39-2.52.19-3.11.94q1.16 9.6.36 15.87-1.07 8.42-7.7 15.51c-2.06 2.21-4.71 3.43-7.41 5.1q-1.91 9.85-6.85 17.29"
     fill="#00030b"
     id="path4" />
  <path
     d="M636.55 178.87q-1.69 4.34-7.78 6.34-4.34-.92-8.9-.71-7.42.35-7.68.34-3.71-.21-7.65-.76-5.43 6.37-12.48 7.23-9.12 1.12-17.26-1.28c-5-1.48-7.68-5.27-8.67-10.4q-.88-4.62-1.04-5.27-.24-.26-.28-.3.03-.97.29-1.15-11.29.95-21.71-2.95c-1.49-.55-3.23-.82-4.81-1.15l-.73-.17q-.79 6.51-1.2 8.04-1.82 6.66-8 8.22-5.54 1.4-12.05 1.04c-5.93.4-14.73.11-17.97-5.6q-1.3-2.29-1.64-7.95l-.5-8.21q-.13-2.3.01-6.36.14-4.26-1.27-8.15c-2.62-2.42-7.09-3.47-9.72-5.05q-13.15-7.86-15.22-22.38-.94-6.67 2.15-13.9 1.65-.13 2.1-2.3l2.6-3.35c.95-2.02-.39-3.4-.7-5q-1.39-7.14-1.27-8.89c.62-9.71 5.51-17.32 14.05-21.65q3.48-1.76 5.79-2.84 11.72-15.16 27.98-15.36 6.22-.08 9.23.12 4.11-5.78 8.91-9.22 12.33-8.81 27.92-6.4 1.33.2 3.03-.21 1.51-1 3.97-2.95 11.86-9.37 26.46-6.22c3.82.82 7.64 3.05 11.01 4.99q9-1.21 13.18-1.63c10.12-1.03 24.37 6.1 28.9 15.71q.16.34 2.04 4.77c.75 1.76.39 2.87.75 4.43q9.37 4.99 17.91 11.77c5.44 4.31 11.1 11.15 9.8 18.34-1.6 8.89-10.59 14.15-19 15.77 2.09 14.79.67 26.98-11.74 35.65-1.64 1.15-3.24 4.18-4.06 6.69q-1.88 5.66-4.46 9.98c-2.71 4.53-5.92 6.57-10.79 10.13zm5.07-41.43q.37-.67-1.5-.39-.01-1.14-1.47-1.04-7.68.52-13.01-.37-1.4-.24-5.56-.91-6.34-1.02-11.83-2.93-6.46-2.25-10.84-5.51-6.62-4.92-9.38-8.56-4.57-6.02-7.31-12.2c-9.72 2.51-18.44 4.68-25.39 1.18-5.56-2.8-6.76-11.67-5.6-16.94q.63-2.84 2.83-6.19 4.5-6.84 11.68-10.33 9.82-4.78 20.57-8.29c3.91 1.71 7.07 4.21 9.76 5q7.32 2.15 12.41 1.8 5.07-.36 11.99-4.71 4.83 3.41 9.53 3.53 5.34.14 10.66-2.22c7.88-3.5 13.18-13.19 9.2-21.56-2.26-4.73-4.85-8.67-9.94-10.41q-13.18-4.49-24.66 2.51-4.24-4.9-9.8-6.66-14.72-4.67-25.68 5.66c-1.07 1.01-1.78 2.53-2.82 3.62q-14.24-4.18-26.09 2.31-8.31 4.55-10.88 13.34-9.79-1.49-18.78-.57c-7.61.78-14.52 5.52-15.65 13.24-8.48 2.67-14.63 5.13-18.31 11.95q-5.33 9.88 2.28 18.75-9.23 9.72-6.68 21.34c1.88 8.56 10.38 17.94 20.02 15.79 2.61 7.5 5.68 12.44 11.61 15.71 8.16 4.52 16.47 4.08 25.11.6 4.52 5.07 8.92 7.54 13.46 9.16 8.67 3.1 15.12-.84 22.83-4.61q5.41 1.39 7.98 2.04 14.47 3.7 25.04-6.23l10.15 1.77q15.06-.02 22.97-11.51 1.74-2.53 2.07-6.61.04-.47-.25-.57-.27-.1-.72.02m-50.83-60.93q-.63-.02-.7.53-.08.7.37 1.34-.15.81.3 1.41l.01 4.96q-.55-.54-1.16-.33-1.22 5.4-3.36 9.91c1.7 10.54 4.53 15.93 9.22 20.59q11.6 11.49 26.72 13.82 1.89.29 10.56 1.1 1.45.14 7.66-.69 4.66-.62 7.34-2.14c4.07-2.33 8.61-5.58 9.98-10.42q2.04-7.18 1.88-11.1c-.47-11.75-6.21-22.21-12.39-32-7.88 3.67-13.2 3.51-21.46 3.6l-3.68-1.16q-10.4 2.06-17.49 2.24l-13.33-2.3q-.44.46-.47.64m-66.6 89.7q-1.57-.05-4.01-.82-4.54-1.42-11.95-4.6l-.08 12.71q8.89 1.81 16.45.63l.29-7.23Zm84.16 8.9 17.278-.184.672-10.762-17.328 1.358zm-34.02-6.03q-.19 6.35 1.08 11.07.52 1.93 3.08 2.13 7.06.56 13.65-.08l2.1-13.14-19.47-.41ZM233.37 96.05q.47-.7.06-1.59-.92-16.56-.3-21.35.72-5.49 5.04-8.68.58-.43 4.31-2.21 1.79-.85 4.51-1.76c2.72-.9 6.03-2.57 9.38-3.88 15.21-5.95 31.15-12.67 47.01-18.89q7-2.75 16.09-6.45c3.43-1.4 6.58-2.6 9.91-1.83q5.49 1.28 10.72 3 .38.12 32.94 10.55l4.17 1.88c5.83 2.81 6.84 7.59 6.85 14.14q.01 9-.11 20.4c4.79-2 11.89-5.56 16.74-4.06q6.1 1.88 24.68 8.55 4.49 1.61 8.62 3.98 4.88 5.2 4.89 9.41.09 29.95.31 37.49c.25 8.53-4.12 11.36-11.78 14.67q-28.71 12.43-46.75 20.02c-5.19 2.18-9.6 3.32-14.87 2.04q-5-1.2-10.22-3.11c-8.08 2.09-14.33 5.29-20.33 7.85q-22.83 9.78-30.92 12.86c-4.2 1.6-8.52 1.34-13.28-.05q-10.26-2.98-19.27-6.35c-17.73-6.64-35.67-13.04-50.67-19.04q-3.81-1.52-5.85-6.17-.96-2.2-1.11-8.72-.11-4.84-.11-27.56c0-7.37.8-11.57 7.17-14.76q5.55-2.79 10.62-4.41z"
     fill="#083248"
     id="path5" />
  <path
     d="M640.12 137.05q-3.21.71-6.63.63-14.92-.35-28.7-5.94-13.99-5.69-22.72-20.57-1.94-3.31-2.81-5.68-.89-.39-2.35.59c-3.97 2.66-10.66 3.8-14.87 3.62-9.58-.42-14.7-7.87-14.04-16.82q.43-5.86 4.57-11.42c4.7-6.32 11.38-9.93 18.66-12.75q10.15-3.92 14.42-5.54c5.71 4.94 11.36 6.65 18.11 7.06 6.34.38 10.99-1.7 16-5.44q1.35 2.09 3 2.94c6.81 3.5 16.07.84 20.97-4.1q5.87-5.92 4.25-13.38c-3.57-16.5-22.96-17.68-34.53-9.42q-4.82-6.4-12-8.08c-9.6-2.25-19.66.84-24.7 9.71q-3.25.29-8-.71c-7.38-1.55-14.07.22-20.17 3.97q-7.27 4.47-9.39 13.67-6.26-1.65-14.67-1.89-8.47-.25-14.62 4.33-3.53 2.64-5.06 9.32-2.71 1.39-4.62 1.79c-9.9 2.08-16.45 9.47-14.9 19.76q.8 5.3 5.14 8.17.31.61-.28.78c-7.04 5.41-9.97 14.32-6.84 22.58 2.31 6.09 7.75 11.93 14.44 12.21q2.03.08 5.14-.38c1.65 10.67 9.23 17.62 19.12 18.84q9.2 1.14 17.51-3.37 3.52 6.58 9.85 9.38c9.61 4.25 16.58.87 24.77-4.16 10.08 4.18 21.33 5.09 29.03-.8q1.04-.8 4.83-4 1.43.39 5.52 1.75 7.08 2.36 14.54-.6 11.09-4.38 13.53-15.66.45-.12.72-.02.29.1.25.57-.33 4.08-2.07 6.61-7.91 11.49-22.21 11.61l-9.13-2.32q-12.35 10.38-26.82 6.68-2.57-.65-6.75-2.12c-8.94 3.85-15.39 7.79-24.06 4.69-4.54-1.62-8.94-4.09-11.22-8.35-10.88 2.67-19.19 3.11-27.35-1.41-5.93-3.27-9-8.21-10.06-14.66-11.19 1.1-19.69-8.28-21.57-16.84q-2.55-11.62 6.62-20.24-7.55-9.97-2.22-19.85c3.68-6.82 9.83-9.28 17.13-10.72 2.31-8.95 9.22-13.69 16.83-14.47q8.99-.92 17.48 1.31 3.87-9.53 12.18-14.08 11.85-6.49 25.15-2.07c1.98-1.33 2.69-2.85 3.76-3.86q10.96-10.33 25.68-5.66 5.56 1.76 8.65 6.4 12.63-6.74 25.81-2.25c5.09 1.74 7.68 5.68 9.94 10.41 3.98 8.37-1.32 18.06-9.2 21.56q-5.32 2.36-10.66 2.22-4.7-.12-8.49-3.45-7.96 4.27-13.03 4.63-5.09.35-12.41-1.8c-2.69-.79-5.85-3.29-7.87-4.72q-12.64 3.23-22.46 8.01-7.18 3.49-11.68 10.33-2.2 3.35-2.83 6.19c-1.16 5.27.04 14.14 5.6 16.94 6.95 3.5 15.67 1.33 22.19-2.26q5.94 7.26 10.51 13.28 2.76 3.64 9.38 8.56 4.38 3.26 10.84 5.51 5.49 1.91 11.83 2.93 4.16.67 5.56.91 5.33.89 13.01.37 1.46-.1 1.47 1.04"
     fill="#00030b"
     id="path6" />
  <path
     d="M640.12 137.05q1.87-.28 1.5.39-2.44 11.28-13.53 15.66-7.46 2.96-14.54.6-4.09-1.36-5.52-1.75l.31-.95q3.75.23 7.48 1.65 16.92 1.85 23.57-12.2-19.19-.46-35.64-7.46-6.73-2.86-9.97-5.98-1.42-1.36-7.72-7.47l-5.79-8.59-1.5-3.82q-4.42 2.79-8.09 2.51c1.45 1.63 2.71.12 4.14.46q1.68.4 1.87.67 3.45 9.7 7.59 12.93.91.71 5.73 4.69c5.49 4.54 12.07 6.18 20.85 9.18q.29.1.3.08.29-.31.35-.28.04.82-.54 1.06-.4.16-.6.49c-2.94 4.85-5.89 7.8-11.65 8.64-7.91 1.15-11.84-1.05-17.48-5.21q-3.18 2.07-5.24 3.52-9.55 6.73-18.78 2.44c-5.23-2.43-8.97-5.3-10.66-11.1-14.57 7.99-29.35 1.11-31.66-14.41q-2.38-.95-3.89-1.08-12.37-1.07-13.83-13.52-.57-4.91-.29-7.78l-5.73 1.22-.33.7q-.2-.52-.65-.69.59-.17.41-.63-4.47-3.02-5.27-8.32c-1.55-10.29 5-17.68 14.9-19.76q1.91-.4 4.08-1.18 2.07-7.29 5.6-9.93 6.15-4.58 14.62-4.33 8.41.24 13.87 2.32 2.92-9.63 10.19-14.1c6.1-3.75 12.79-5.52 20.17-3.97q4.75 1 6.65 1.34c6.39-9.5 16.45-12.59 26.05-10.34q7.18 1.68 10.71 7.8c12.86-7.98 32.25-6.8 35.82 9.7q1.62 7.46-4.25 13.38c-4.9 4.94-14.16 7.6-20.97 4.1q-1.65-.85-2.36-2.75c-5.65 3.55-10.3 5.63-16.64 5.25-6.75-.41-12.4-2.12-17.19-6.87q-5.19 1.43-15.34 5.35c-7.28 2.82-13.96 6.43-18.66 12.75q-4.14 5.56-4.57 11.42c-.66 8.95 4.46 16.4 14.04 16.82 4.21.18 10.9-.96 14.87-3.62q1.46-.98 1.5-.99 1.72 2.77 3.66 6.08 8.73 14.88 22.72 20.57 13.78 5.59 28.7 5.94 3.42.08 6.63-.63"
     fill="#fffef1"
     id="path7" />
  <path
     d="m373.55 56-25.8 11.26-4.13 1.81-43.4 17.74-1.45 30.06q-1.47-.74-2.32.33l-3.7.97q-2.12-1.32-2.14-3.7-.08-6.24-.5-23.01c-.07-2.63.42-3.88-2.36-4.7q-21.74-6.35-43.56-12.28-.13-2.5 1.6-3.45c5.06-2.78 11.95-5 15.7-6.6q25.55-10.94 48.95-19.94c4.46-1.71 10.15-4.45 14.33-5.99q1.77-.65 3.93-.09 12.31 3.16 41.62 13 3.08 1.03 3.23 4.59"
     fill="#fed261"
     id="path8" />
  <path
     d="m268.63 70.55 57.17-25.43q14.04 3.22 24.88 7.23c1.32.49 3.3.81 4.62 1.13-4.99 3.56-10.44 5.94-15.52 7.85q-22.76 8.55-42.08 17.87-2.07 1-5.37-.24-11.46-4.31-23.7-8.41"
     fill="#fe6a14"
     id="path9" />
  <path
     d="m373.55 56 .03 29.04-21.19 9.88c-1.97-3.42-2.35-6.24-2.41-9.73q-.15-9.01-2.23-17.93z"
     fill="#e94f11"
     id="path10" />
  <path
     d="M615.55 65.26q-2.59 2-3.54 2.31-7.4 2.41-14.86-.23 1.89-.22 4.35.03 4.06.43 10.24-.73 2.64-1.5 3.66-1.72Zm12.289 1.355c1.58.156 3.468-.13 5.102-.227q-2.58 1.454-5.198 1.194-2.618-.259-5.01-1.867c1.73.093 3.526.743 5.106.9"
     fill="#a7afb2"
     id="path11" />
  <path
     d="m152.73 112.73.73-.53-3.28-.58c-6.47-5.21-13.42-8.12-19.35-13.95q-4.94-4.85-9.46-11.31-1.77-2.53-4.9-8.4-2.24-4.22-4.9-8.44 8.2-1.05 15.98.46 1.7.32 3.07 1.19 12.61 16.97 19.83 23.72 7.72 7.23 15.2 13.56-6.33 3.76-12.92 4.28"
     fill="#26713a"
     id="path12" />
  <path
     d="M343.62 69.07q-1.16 14.32-.55 28.35-1.3 2.05-2.72 2.7-20.39 9.33-40.96 18.29-.15-1.26-.62-1.54l.18-28.19z"
     fill="#e94f11"
     id="path13" />
  <path
     d="M590.77 84.75q-1.17 5.93-3.65 11.17 3.38 14.52 13.31 21.29 3.65 3.71 8.35 5.78 11.35 5 22.88 5.11c8.97.09 16.69-.89 22.72-8.22q2.05-2.51 2.91-7.17c2.61-14.34-3.72-26.63-11.21-38.41l-6.82 3.04q-8.46 1.48-12.02.93-3.06-.48-5.33-1.21l-9.13 1.71-8.07.66q-7.36-.34-13.92-2.92.03-.18.05-.34l13.36 1.97q7.48-.15 14.1-2.24l7.03 1.12c8.69-.02 14.01.14 19.65-3.96 8.42 10.22 14.16 20.68 14.63 32.43q.16 3.92-1.88 11.1c-1.37 4.84-5.91 8.09-9.98 10.42q-2.68 1.52-7.34 2.14-6.21.83-7.66.69-8.67-.81-10.56-1.1-15.12-2.33-26.72-13.82c-4.69-4.66-7.52-10.05-9.5-15.83q2.42-9.27 3.21-14.16 1.04-.72 1.59-.18"
     fill="#011127"
     id="path14" />
  <path
     d="M583.62 73.93q-.21 4.8-1 8.38c-2.23 10.05-8.39 16.39-19.03 17.69-4.89.6-6.67-3.53-6.19-7.68.52-4.47 5.64-9.63 8.76-11.51q7.69-4.61 17.46-6.88"
     fill="#efda9f"
     id="path15" />
  <path
     d="M298.77 116.87q.47.28.62 1.54-3.35 1.77-5.14 1.24c-14.35-4.24-31.56-10.64-46.8-15.26-1.75-.53-2.5-1.63-2.56-3.55q-.36-11.95-.76-23.88l-.01-1.25.07-1.23q21.82 5.93 43.56 12.28c2.78.82 2.29 2.07 2.36 4.7q.42 16.77.5 23.01.02 2.38 1.25 3.46l4.03-.38q1.41-1.42 2.88-.68"
     fill="#fe6a14"
     id="path16" />
  <path
     d="M600.43 117.21q15.51 9.58 32.85 9.64 6.47.02 10.63-1.24c10.17-3.09 12.49-10.29 12.82-19.79q.15-4.05-.73-7.33-2-7.51-3.35-10.17-2.74-5.4-6.69-12.14-3.9 1.51-6.7 1.16l6.28-3.19c8.03 11.93 14.36 24.22 11.75 38.56q-.86 4.66-2.91 7.17c-6.03 7.33-13.75 8.31-22.72 8.22q-11.53-.11-22.88-5.11-4.7-2.07-8.35-5.78"
     fill="#fffef1"
     id="path17" />
  <path
     d="M81.69 75.14q1.67-.01 1.08 2.42c-6.31 11.41-11.69 19.8-19.55 27.87l20.49 4.59q1.09 1.16.37 2.24l-4.5 1.16q-1.97 1.42-3.35 1.77-15.21-.5-30.12-4.92-.1-.97.49-1.43 9.77-7.86 20.63-19.5c3.11-3.33 6.44-8.52 9.12-11.23q1.89-1.9 5.34-2.97"
     fill="#fef25e"
     id="path18" />
  <path
     d="m244.13 76.96-.01-1.25z"
     fill="#e94f11"
     id="path19" />
  <path
     d="M600.43 117.21q-9.93-6.77-13.47-19.42 2.64-7.11 3.81-13.04l-.01-4.96q.17.06.33.09 2.15 4.12.27 7.64c-1 1.85-.41 3.78-2.02 5.5q-1 3.97-.89 4.64 1.01 5.75 5.55 11.85 1.47 1.97 2.35 2.44l-4.15-13.72q.02-8.71 2.72-15.84-2.43-3.94-4.46-4.01-.45-.64-.37-1.34.07-.55.7-.53 6.56 2.58 13.92 2.92l.8.45q-2.24 1.24-1.22 2.33-.52.52-.86 1.14-2.41 4.31-2.99 8.05.74 8.29 6.64 12.63 6.73 1.6 9.35-3.91c3.31-7 .63-11.85-3.27-17.63q-1.04.08-.92.52-.59-.3-.22-.22-1.75-3.58.76-4.02l5.4-1.71q6 .73 9.06 1.21 3.56.55 12.02-.93 2.8.35 5.79-1.4 4.86 6.98 7.6 12.38Q654 90.98 656 98.49q.88 3.28.73 7.33c-.33 9.5-2.65 16.7-12.82 19.79q-4.16 1.26-10.63 1.24-17.34-.06-32.85-9.64"
     fill="#a7afb2"
     id="path20" />
  <path
     d="m83.71 110.02-20.12-3.43c7.49-9.23 12.87-17.62 19.18-29.03q.35-.45.69-.62.53 1.1.15 1.71-9.6 15.63-11.75 18.22-4.59 5.54-6.67 8.11 8.2 2.15 17.98 3.77.91.15 1.02.99.03.19-.48.28"
     fill="#26713a"
     id="path21" />
  <path
     d="M590.76 79.79q-.45-.6-.3-1.41 2.03.07 3.64 1.25-1.88 9.89-2.04 17.68l4.52 14.44q-1.11-.27-2.58-2.24-4.54-6.1-5.55-11.85-.11-.67.4-3.63c2.1-2.73 1.51-4.66 2.51-6.51q1.88-3.52.06-7.39-.49-.28-.66-.34m22.02-1.02q-2.51.44-.76 4.02l-1.78.03q-1.83-.57-3.27-.3l-1.67.24q-.23-.45-1.01-.55-1.02-1.09 1.11-1.57l-.69-1.21z"
     fill="#5e7482"
     id="path22" />
  <path
     d="m580.489 78.883.058.002-2.33 11.022-8.702 5.995z"
     fill="#a7afb2"
     id="path23" />
  <path
     d="M604.29 82.21q.78.1 1.01.55-4 5.34-3.51 10.96c.31 3.52 3.62 9.93 8.12 9.82 6.26-.15 7.38-8.1 6.38-12.82q-.63-3-4.05-7.71-.12-.44-.04-.55c4.86 5.81 7.54 10.66 4.23 17.66q-2.62 5.51-8.39 4.34-6.86-4.77-7.62-12.02.6-4.78 3.01-9.09.34-.62.86-1.14"
     fill="#cad5ce"
     id="path24" />
  <path
     d="M606.97 82.52q-5.93 7.72-2.05 15.78 2.18 4.55 6.84 3.46 1.56-.37 2.16-2 2.89-7.93-1.73-14.47-.34-.48-1.23-1.11-1.07-.76-.72-1.36l1.78-.03q-.37-.08.22.22 3.42 4.71 4.05 7.71c1 4.72-.12 12.67-6.38 12.82-4.5.11-7.81-6.3-8.12-9.82q-.49-5.62 3.51-10.96z"
     fill="#011127"
     id="path25" />
  <path
     d="M610.24 82.82q-.35.6.72 1.36.89.63 1.23 1.11 4.62 6.54 1.73 14.47-.6 1.63-2.16 2-4.66 1.09-6.84-3.46-3.88-8.06 2.05-15.78 1.44-.27 3.27.3"
     fill="#083248"
     id="path26" />
  <path
     d="m427.81 97.67-55.79 25.55q-1.08 16.87-.72 34.27.02.88.4 1.56l-.28.7-8.23-1.86-.51-33.29-8.22-3.52c-1.31-5.23-8.98-8.76-13.47-10.59q1.07-1.52 1.71-1.5 7.41-.27 10.49 1.31.07.04 10.06 4.98 3.28 1.62 6.59.04c12.22-5.82 27.42-12.01 40.87-18.54q-3.56-2.44-11.56-5.06-4.46-1.47-6.38-.93-4.66 1.31-8.3-.47 4.93-2.97 9.43-5.15 3.4-1.65 6.03-.73 15.91 5.57 25.45 9.65 2.56 1.1 2.43 3.58"
     fill="#fed261"
     id="path27" />
  <path
     d="M384.47 90.32q3.64 1.78 8.3.47 1.92-.54 6.38.93 8 2.62 11.54 4.12c-13.43 7.47-28.63 13.66-40.85 19.48q-3.31 1.58-6.59-.04-9.99-4.94-10.06-4.98-3.08-1.58-10.49-1.31 17.29-7.48 33.67-14.61 2.74-1.2 8.1-4.06"
     fill="#fe6a14"
     id="path28" />
  <path
     d="M233.43 94.46q.41.89-.06 1.59z"
     fill="#011127"
     id="path29" />
  <path
     d="m427.81 97.67-.01 35.9-4.26 2.86q1.1-1.05 2.39-1.59.85-.48.86-.5c-6.19.64-15.51 6.1-21.41 8.6q-11.89 5.03-28.36 13.08-1.82.89-5.32 3.03-.38-.68-.4-1.56-.36-17.4-.32-32.65z"
     fill="#e94f11"
     id="path30" />
  <path
     d="M608.34 151q-1.77-.11-2.32.54c-7.96 9.41-19.98 7.89-30.21 3.82-6.79 2.81-11.67 5.74-16.49 5.9-7 .25-14.93-2.63-17.64-9.5q-11.91 3.26-21.59 1.36c-6.08-1.2-9.59-3.91-12.57-9.17-1.42-2.52-1.68-5.31-2.53-7.9q-11.35.56-17.18-6.6c-3.94-4.84-4-9.43-3.7-16.09l2.65-5.97 4.07-5.05.01-.27 5.39-2.18q.38 3.4.95 8.31 1.46 12.45 13.83 13.52l3.01.26c3.19 16.34 17.97 23.22 31.42 14.8 2.81 6.23 6.55 9.1 11.78 11.53q9.23 4.29 18.78-2.44 2.06-1.45 4.25-3.46c6.63 4.1 10.56 6.3 18.47 5.15 5.76-.84 8.71-3.79 11.65-8.64q.2-.33.6-.49.58-.24.7-.39-.22-.7-.51-.39-.01.02-.3-.08c-8.78-3-15.36-4.64-20.85-9.18q-4.82-3.98-5.73-4.69-4.14-3.23-7.17-12.09-.61-1.11-2.29-1.51c-1.43-.34-2.69 1.17-4.36.66q3.89-.84 7.36-3.86l2.27 3.7 5.76 8.69q6.51 6.36 7.93 7.72 3.24 3.12 9.97 5.98 16.45 7 34.61 5.93-5.62 15.58-21.62 13.95-4.65-1.64-8.4-1.87"
     fill="#cad5ce"
     id="path31" />
  <path
     d="M490.18 101.65q.45.17.65.69l-3.97 4.89-2.71 5.97c-.34 6.82-.28 11.41 3.66 16.25q5.83 7.16 14.92 5.29c3.11 3.9 3.37 6.69 4.79 9.21 2.98 5.26 6.49 7.97 12.57 9.17q9.68 1.9 18.52-2.53c5.78 8.04 13.71 10.92 20.71 10.67 4.82-.16 9.7-3.09 14.25-5.73 12.47 3.9 24.49 5.42 32.45-3.99q.55-.65 2.32-.54l-.31.95q-3.79 3.2-4.83 4c-7.7 5.89-18.95 4.98-27.23.73-9.99 5.1-16.96 8.48-26.57 4.23q-6.33-2.8-9.28-9.19-8.88 4.32-18.08 3.18c-9.89-1.22-17.47-8.17-18.17-18.07q-4.06-.31-6.09-.39c-6.69-.28-12.13-6.12-14.44-12.21-3.13-8.26-.2-17.17 6.84-22.58"
     fill="#fffffe"
     id="path32" />
  <path
     d="m240.92 111.73-3.59.48q2.8 1.8 5.28 3.04 1.76.88 5.53 2.16 22.16 7.56 36.99 12.37c3.52 1.15 6.77 2.75 9.13 3.6 2.22.79 3.9.75 5.78-.03q17.76-7.4 35.56-14.7 4.82 1.59 7.52 5.46l-42.18 18.47-.7 32.52q-3.77-2.57-7.43-1.47-1.36-3.29-1.44-5.99-.26-8.44-.59-23.38-.05-2.11-1.77-2.79-12.99-5.13-25.77-9.51l-.79 19.35-2.47 2.43q-2.24-13.37-2.61-21.78-.09-2.15-2.49-3.09-11.33-4.4-29.88-12.83 4.63-3.7 10.48-5.84 3.19.2 5.44 1.53"
     fill="#fed261"
     id="path33" />
  <path
     d="M335.6 118.65q-17.8 7.3-35.56 14.7c-1.88.78-3.56.82-5.78.03-2.36-.85-5.61-2.45-9.13-3.6q-14.83-4.81-36.99-12.37-3.77-1.28-5.53-2.16-2.48-1.24-5.35-2.6l3.66-.92 53.78 17.97 35.71-13.39q2.85.6 5.19 2.34"
     fill="#fe6a14"
     id="path34" />
  <path
     d="M178.53 150.89q-14.73-1.49-19.28-.96-3.37.39-4.52-.08-2.76-2.53-7.5-6.11c-5.78-4.36-10.99-9.25-16.31-14.41q-5.94-5.78-11.27-13.82l26.31-.35-.24 1.37q2.57 1.46 4.41 2.67 7.2 8.1 11.33 11.92 3.3 3.05 19.41 16.57 1.04.87 2.06 2.54-2.37 1.23-4.4.66"
     fill="#26713a"
     id="path35" />
  <path
     d="M300.24 175.1q-1.94.9-5.28.4l.35 2.58q-29.34-10.45-58.43-21.23-2.36-.88-8.48-3.47-2.66-1.12-2.44-4.14.07-.98-.32-17.99-.18-7.39-.64-15.21 18.55 8.43 29.88 12.83 2.4.94 2.49 3.09.37 8.41.58 19.67l2.13 2.1 2.67-21.43q13.27 4.04 26.26 9.17 1.72.68 1.77 2.79.33 14.94.59 23.38.08 2.7.83 5.65 4.27-.76 8.04 1.81"
     fill="#fe6a14"
     id="path36" />
  <path
     d="m363.19 157.89-7.15-2.18-1.58-34.63 7.22 2.19z"
     fill="#e94f11"
     id="path37" />
  <path
     d="m64.04 122.52-.17.87q-6.36 12.43-16.52 22.14l7.08.91q.98.46 4.3.88 2.94.36 5.05 3.48l-34.6.05q.4-1.86 1.62-2.78 16.26-12.31 28.4-24.63 2.11-2.15 4.84-.92"
     fill="#fef25e"
     id="path38" />
  <path
     d="M63.87 123.39q.79-.02.81.94-4.56 7.85-8.98 13.4-.61.77-5.57 6.59l4.3 2.12-6.85-.31q9.93-10.31 16.29-22.74"
     fill="#26713a"
     id="path39" />
  <path
     d="m295.31 178.08-.9-1.83q3.89-.25 5.83-1.15l-.3-30.98 43.18-20.01-.03 33.48q-1.04 1.87-2.64 2.59-26.27 11.79-36.8 16.48c-2.24 1-5.46 2.73-8.34 1.42"
     fill="#e94f11"
     id="path40" />
  <path
     d="m423.54 136.43-52.12 23.32.28-.7q3.5-2.14 5.32-3.03 16.47-8.05 28.36-13.08c5.9-2.5 15.22-7.96 21.14-9q.26.42-.06.62-1.82.82-2.92 1.87"
     fill="#fe6a14"
     id="path41" />
  <path
     d="M15.45 148.8q.67 1 .3 3.11 1.51 5.13 2.71 6.8.72.99 2.87 2.51 1.64 1.17 3.48 1.71 3.73 1.09 8.95 1.13 19.45.16 46-.16.41 0 0 .83-1.19.29-2.51.29-36.47.11-46.48-.13-3.35-.08-8.99-2.39-8.24-5.93-6.33-13.7"
     fill="#00030b"
     id="path42" />
  <path
     d="m524.89 166.9.35 6.43q-8.2 1.98-15.53 1.71l-2.23-13.73q8.16 2.66 12.7 4.08 2.44.77 4.01.82Zm-16.09-3.99v9.85l14.25.94 1.24-5.7q-1.84-1.48-3.98-1.69l-10.85-3.86Z"
     fill="#bac5c5"
     id="path44" />
  <path
     d="M189.43 162.59c-3.93 2.68-7.18 2.4-11.87 2.46q-21.22.3-42.74-.45 23.78-1.07 47.36-.43z"
     fill="#00030b"
     id="path45" />
  <path
     d="m508.8 162.91 10.67 3.21q2.98.4 4.12.85l.7 5.42-13.77 1.99zm99.55 12.2v-8.883l17.152-2.767.798 10.757-17.202 1.603Z"
     fill="#808f96"
     id="path46" />
  <path
     d="m94.19 165.45 25.85-.42q1.29-.61.43-1.09.17-.26.54.03l.1 15.03-26.18.81z"
     fill="#9d8430"
     id="path47" />
  <path
     d="M120.47 163.94q.86.48.07.95l-26.35.56q-.21-.31.05-.92z"
     fill="#fed108"
     id="path48" />
  <path
     d="M628.77 185.21q-12.23 1.54-24.77.71c-3.6 3.84-5.63 5.91-10.4 6.63q-4.23.64-12.58.31c-7.29-.28-12.04-2.5-15.72-8.97l-1.49-9.95c-8.92 1.67-16.82-.47-25.23-5.13 1.58.33 3.32.6 4.81 1.15q10.42 3.9 21.4 2.16.05.97-.09 1.17.15.81.19.83.36.89 1.24 5.51c.99 5.13 3.67 8.92 8.67 10.4q8.14 2.4 17.26 1.28 7.05-.86 11.19-6.67 5.23-.01 8.94.2.26.01 7.68-.34 4.56-.21 8.9.71"
     fill="#011127"
     id="path49" />
  <path
     d="m574.33 169.08 19.5-.43.41 11.23q-8.69 2.96-15.75 2.4-2.56-.2-3.08-2.13-1.27-4.72-1.08-11.07m18.83.645-17.28-.03-.244 8.03 14.434 3.755 3.32-11.525Z"
     fill="#a7afb2"
     id="path50" />
  <path
     d="m593.16 169.725.216 8.03-14.446 3.705-3.28-11.535z"
     fill="#808f96"
     id="path51" />
  <path
     d="M1101.04 45.95q-.43 1.1.25 1.12l-.47 12.79c5.43 1.38 11.33 5.69 10.99 11.06q-.14 2.31-.95 8.6 7.25-4.26 14.42-6.3 4.84-1.38 11.3 1.71 1.81-.21 4.89-1.43 4.28-1.7 11.94-1.44c6.73 1.57 10.55 4.66 10.77 10.93.25 7.27-4.52 14.81-9.49 19.42q.96 6.44-.45 9.04-3.97 7.35-9.63 10.6l.07 2.98q-1.03 7.59-2.6 9.53-4.85 5.99-13.96 9.81c-2.1.7-2.52 2.2-3.13 4.32-1.15 3.98-4.23 8.19-6.75 10.29-11.88 9.92-27.47 14.84-43.27 15.76q-5.23.31-9.88 1.14c-7.33 1.3-11.52 1.97-17.49 2.01q-1.72 7.8-4.36 14.36-2.74 2.99-6.26 3.47-.71-.26-.95.11-7.89.74-15.52-1.07-1.58-.38-5.35-2.95c-4.85-3.3-4.2-12.04-3.54-17.28q.28 0 .23-.53-.05-.62-.35-.56l-6.81-3.56q-11.07-9.98-14.63-24.13-2.44-9.72-2.22-18.44.48-.71.04-1.92-.03-5.18 2.75-8.53 3.48-4.18 9.93-3.73l.52-8.08q.16-.53.12-1.04c.57-10.52 5.19-27.09 19.29-24.4q2.55-7.78 5.34-14.26c2.87-6.64 5.24-11.07 10.07-15.92 3.64-3.66 10.09-6.99 14.91-4.57q4.47-5.6 9.19-11.34c5.52-6.72 13.17-12.59 21.71-14.75 7.06-1.8 12.82.9 15.62 7.86q3.92 9.73 3.71 19.32"
     fill="#083248"
     id="path52" />
  <path
     d="M1089.79 38.03c-2.24-.57-3.2-4.05-3.88-5.91q-4.44 3.82-6.87 7.7c-2.99 4.76-7.17 9.28-9.37 14.4q-.96 2.24-2.32 5.5l-2.2 11.4c-1.7-4.01-4.82-9.74-4.9-13.39q-.13-5.79 3.1-11.32 7.38-12.6 20.05-18.81 1-.49 1.16-.48z"
     fill="#fef25e"
     id="path53" />
  <path
     d="M952.24 145.77q1.23 3.8.57 7.8-1.62 3.49-2.28 3.97-9.23 6.68-12.08 8.16-9.55 4.97-23.18 9.97-2.2.81-3.54-.5c-2.89 5.34-5.06 7.05-9.62 8.45q-21.63 6.66-39.57 9.21-5.31.76-8.35 1.31-5.03.91-8.38.87-8.57-.1-16.78-3.04-2.85-2.01-4.33-2.45-11.83-3.53-23.58-7.3-3.63-1.17-6.55-.3-9.95 5.66-21.07 8.45-4.06 1.02-7.5.41-9.92-1.75-22.64-4.77-4.83-1.16-6.7-2.85c-3.83-3.48-2.56-9.47-2.72-13.19q-11.3-6.97-17.7-13.7-4.37-4.6-2.77-11.03 5.44-20.98 12.7-41.3.63-1.75 2.81-6.08 3.34-4.22 8.28-7.85 17.29-12.67 29.78-20.21c4.39-2.65 9.18-5 14.71-4.63q3.09.21 10.67 2.79.27.06.47.09 1.65-1.56 3.22-5.19 1.8-4.12 5.05-9.69c4.52-7.74 9.57-12.76 17.43-16.35q-.59-.46-1.04-.57 9.5-4.54 20.72-6.13c7.66-1.1 12.63.58 19.75 4.32q11.14 5.87 25.09 15.19 7.04 4.7 9.49 11.22 2.16 5.76 5.15 18.26c.34 1.44-.27 4.23 1.87 4.86q13.18 3.91 25.89 12.33 4.19 2.78 6.29 5.2 2.55 2.93 5.58 8.91 8.69 17.16 14.86 35.36m-101.17-29.26q16.88-15.42 33.03-28.18c1.16-.91 2.54-2.54 3.27-3.55q.05-3.21-.23-4.25-3.74-14-5-18.58-2.85-4.28-4.39-5.4-12.93-9.33-29.54-17.72-4.47-2.25-10.34-.99c-9.35 2.02-17.65 5.24-23.61 12.63q-4.57 5.65-8.59 13.46-1.83 3.55-2.49 7.34-.37 2.16 1.88 3.18c4.98 2.24 10.8 4.62 14.95 7.12q7.04 4.24 9.55 12.09 2.86 8.94 5.88 21.28zm-25.11 2.61q1.11-1.18.73-3.11-2.57-13.11-5.12-20.68c.36-3.9-1.93-5.45-4.37-7.04q-5.31-3.47-12.51-6.48-11.14-4.65-14.08-5.79c-4.35-1.7-8.96-3.01-13.55-1.22q-3.62 1.41-8.22 4.56-9.04 6.2-19.69 14.05-4.18 3.08-8.91 7.36-5.45 9.33-8.44 19.04-5.05 16.42-5.82 20.1c-.89 4.28 2.51 7.94 5.6 10.79q3.57 3.31 10 7.52c2.51-.59 4.19-1.16 5.37-1.82q10.03-5.63 20.55-7.52 10.68 4.06 18.93 10 6.73-8.79 12.49-20.22c2.19-4.34 4.39-6.82 8.22-9.04 8.95-5.18 14.42-8.53 18.12-10.03Zm45.32-8.52q-2.59 2.88-5.66 5.26-1.25.97-1.28 2.32l2.28-1.38.28-.21q.14 2.6 1.1 4.49.84.39.65.77.16-.47-.6-.2c9.19 6.72 18.5 10.87 28.32 17.31q.24.16.62.7.36.51.93.5.7-.86.74-1.39 1.35 2.24 5.96.49 2.29-3.85 1.78-6.2-1.33-6.14-2.76-11.33c7.39-5.75 11.13-8.74 16.32-10.52q-.52.92-1.61 1.48l-13.09 8.12q1.66 10.04 2.18 11.94.67 2.52-.47 5.64-7.14 2.18-7.25 3.31 2.48 9.56 5.6 17.51.86 2.2 2.08 3.21 12.18-3.22 21.88-8.66 3.41-1.92 6.1-4.12.42-.37.81-.44 2.83-.34 5.22-1.88.2-4.72-1.2-8.33-4.18-10.72-9.32-21.4-2.98-6.19-6.8-11.39-8.36-6.24-16.1-10.15-5.12-2.58-12.57-4.69c-2.08-.59-3.95-.49-5.52.8q-9.89 8.14-19.57 17.93zm-33.03 70.62q1.03.65 1.36-.12 4.18-9.57 7.14-18.98l34.61-14.38 8.05 23.07q-.11.86-.34 1.26l-8.05-21.85-31.21 10.9-8.99 20.36q5.54.95 9.92.25 2.45-.4 24.22-4.66 7.98-1.56 15.34-3.36l6.88-1.93q-4.1-11.09-7.69-21.99-.5-1.53-2.17-4.31c-1.58-3.25-6.3-5.85-9.37-7.61q.49.06.8-.14-.96-.68-1.19-1.27-12.63-8.18-28.11-14.12-3.4-1.3-6.17-1.6c-4.04-.45-5.62.62-9.91 2.58q-10.59 4.82-22.08 12-1.53.95-2.32 2.66-9.64 20.99-10.56 22.83-.23 1.36-1.03 2.2l-1.47 3.2q1.97 3.13 3.78 3.82 6.16 2.32 14.02 4.43c4.51 1.2 8.6 2.78 12.69 3.85 3.75.99 7.08 2.45 11.17 3.96q.98-.32.68-1.05m-53.51-9.96q-12.63-10.27-15.81-13.2c-4.22-3.89-8.24-1.65-12.48.24q-5.34 2.38-9.66 5.11l-.72 8.46q9.61 5.34 20.56 7.5 2.59.51 5.19-.4c4.16-1.46 10.29-3.47 13.01-6.81Z"
     fill="#083248"
     id="path54" />
  <path
     d="M1089.79 38.03c1.21 6.21 1.85 18.88-2.56 23.96l-20.09 12.24q-1.88-1.58-1.99-3.11l2.12-11.14q1.44-3.52 2.4-5.76c2.2-5.12 6.38-9.64 9.37-14.4q2.43-3.88 6.07-7.86c1.48 2.02 2.44 5.5 4.68 6.07"
     fill="#fed108"
     id="path55" />
  <path
     d="M817.55 36.25q.45.11.87.04c-7.69 4.12-12.74 9.14-17.26 16.88q-3.25 5.57-5.05 9.69-1.57 3.63-2.38 4.83-1.04.33-1.31.27 5.52-13.25 11.15-20.9 4.67-6.32 13.98-10.81m33.52 80.26-14.87-.93q-3.78-12.98-6.64-21.92-2.51-7.85-9.55-12.09c-4.15-2.5-9.97-4.88-14.95-7.12q-2.25-1.02-1.88-3.18.66-3.79 2.49-7.34 4.02-7.81 8.59-13.46c5.96-7.39 14.26-10.61 23.61-12.63q5.87-1.26 10.34.99 16.61 8.39 29.54 17.72 1.54 1.12 3.75 4.09 1.9 5.89 5.64 19.89.28 1.04.47 3.37c-.97 1.89-2.35 3.52-3.51 4.43q-16.15 12.76-30 27.01Zm-5.03-1.88c2.62 1.32 5.74 1.95 7.84-.23q7.07-7.32 14.27-13.72 7.25-6.46 13.08-11.63l4.37-3.44q1.03-2.79.48-4.87-2.47-9.28-5.16-18.6-.76-2.09-2.03-3.06-12.09-9.27-31.34-19.12c-6.51-3.33-17.83.94-23.97 4.24q-5.23 2.83-9.42 8.48-5.88 7.94-9.05 15.93-.95 2.4-.43 3.85 8 3.46 15.8 7.89 8.14 4.62 10.83 14 2.77 9.67 5.28 19.91z"
     fill="#00030b"
     id="path56" />
  <path
     d="M880.92 62.14q-.38 1.12-.49.71l-7.71 2.6-17.5 6.41c-6.12 4.4-10.59 2.17-15.65-.69-9.18-5.2-16.31-9.77-18.92-21.29q.15-.55-.08-1.11c-3.67 1.61-5.29 4.24-8.87 9.33-2.02 2.86-6.37 10.66-5.75 13.55q8.62 4.21 12.38 6.3c7.61 4.23 11.8 8.46 13.99 15.95q2.83 9.64 4.64 18.05l7.76 1.43 11.82-16.85-3.53-22.86q3.37 9.57 4.86 19.2.38 2.45-.61 4.17-4.11 7.15-10.63 15.92-.55.7-.59 1.67l-8.86.09q-3.1-10.7-5.87-20.37-2.69-9.38-10.83-14-7.8-4.43-15.09-7.16-1.23-2.18-.28-4.58 3.17-7.99 9.05-15.93 4.19-5.65 9.42-8.48c6.14-3.3 17.46-7.57 23.97-4.24q19.25 9.85 31.34 19.12 1.27.97 2.03 3.06"
     fill="#fffffe"
     id="path57" />
  <path
     d="M867.83 65.54c-5.69.79-9.46-1.96-14.54-5.44q-9.1-6.25-14.8-9.67l.41-4.36q9.75 1.97 20.49 7.53 6.33 3.27 11.36 9.44-1.44 2.3-2.92 2.5"
     fill="#bac5c5"
     id="path58" />
  <path
     d="M1101.29 47.07q-.68-.02-.25-1.12z"
     fill="#011127"
     id="path59" />
  <path
     d="M820.65 49.88q-.62 2.07.32 3.92.84 1.67.89 1.78 2.67 6.55 9.23 11.05 8.23 5.65 16.09 8.45 2.19.78 5.83-1.41l4.06 20.05-11.11 18.99-7.22.67q-3.59-9.84-6.42-19.48c-2.19-7.49-6.38-11.72-13.99-15.95q-3.76-2.09-11.71-5.49c-1.29-3.7 3.06-11.5 5.08-14.36 3.58-5.09 5.2-7.72 7.55-9.67q1.55.9 1.4 1.45"
     fill="#a7afb2"
     id="path60" />
  <path
     d="M820.65 49.88c2.61 11.52 9.74 16.09 18.92 21.29 5.06 2.86 9.53 5.09 14.48 1.33l18.67-7.05q.82.49.1 1.36l-17.23 6.03 3.51 21.76q-2.57 5.57-3.64 7.13-4.01 5.89-8.06 11.77-.85-.05-.77-.54 6.52-8.77 10.63-15.92.99-1.72.61-4.17-1.49-9.63-4.86-19.2-3.64 2.19-5.83 1.41-7.86-2.8-16.09-8.45-6.56-4.5-9.23-11.05-.05-.11-.89-1.78-.94-1.85-.32-3.92"
     fill="#083248"
     id="path61" />
  <path
     d="M1056.29 90.18q-.11-3.26-.89-6.43-.72-2.95-2.59-5.94-2.53-4.02-6.7-11.83l-.63-4.14q-3.66 10.67-5.47 20.89-.44 2.46-.37 5.51.07 2.63.23 5.54-3.01-3.16-5.46-5.93c-1.82-2.06-2.38-2.71-2.13-5.62q1.21-13.95 9.03-24.85 1.57-2.21 3.33-3.1c5.45 3.26 7.52 6.82 9.63 10.4q4.58 7.78 5.3 17.56z"
     fill="#fef25e"
     id="path62" />
  <path
     d="M655.99 61.01c8.04 2.02 24.8 12.06 22.56 20.45-1.26 4.69-8.69 7.96-13.32 9.19q-2.4-1.74-3.18-3.7-4.1-10.25-10.43-17.87z"
     fill="#011127"
     id="path63" />
  <path
     d="M1056.29 90.18q-3.13 6.42-4.62 13.52-2.74 1.57-4.16-.22-4.06-5.07-7.64-9.7-.16-2.91-.23-5.54-.07-3.05.37-5.51 1.81-10.22 4.89-20.94l1.02 3.57q4.36 8.43 6.89 12.45 1.87 2.99 2.59 5.94.78 3.17.89 6.43"
     fill="#fed108"
     id="path64" />
  <path
     d="M658.15 62q9.42 4.08 16.36 11.8 3.56 3.97 2.19 8.26-4.81 5.52-11.27 7.06c-4.47-7.84-7.59-14.6-12.32-20.25l3.53-6.41Z"
     fill="#efda9f"
     id="path65" />
  <path
     d="M881.23 89.05q-5.54-10.6-7.79-22.2 3.19-2.11 6.32-2.54.62-.09.67-1.46.11.41.49-.71 2.69 9.32 5.16 18.6.55 2.08-.01 4.17z"
     fill="#808f96"
     id="path66" />
  <path
     d="M880.43 62.85q-.05 1.37-.67 1.46-3.13.43-5.96 1.82 1.89 12.32 7.43 22.92-5.83 5.17-13.08 11.63-7.2 6.4-14.27 13.72c-2.1 2.18-5.22 1.55-7.84.23q.04-.97.59-1.67-.08.49-.03.56 4.85-5.9 8.86-11.79 1.07-1.56 3.51-6.24L855 73.87l17.56-6.89q.98-1.04.16-1.53z"
     fill="#4c6475"
     id="path67" />
  <path
     d="m655.52 67.57.04-.02q4.14 5.07 7.27 7.49 2.31 1.79 3.25 3.37c1.26 2.12 4 2.68 4.06 6.57q-2.82 2.12-3.98 2.27l-11.02-18.28Z"
     fill="#a7afb2"
     id="path68" />
  <path
     d="M1100.89 74.71q-1.06.7-1.7 1.99-11.36 2.12-14.11 2.75c-7.13 1.61-15.02 8.25-19.61 13.51-.83.95-1.88 1.41-2.23 2.46q-1.75.74-2.53 1.28c2.59-10.06 9.24-17.39 18.31-22.2 5.59-2.98 14.82-4.05 21.02-4.53z"
     fill="#fef25e"
     id="path69" />
  <path
     d="M825.26 119.59c-3.7 1.5-9.17 4.85-18.12 10.03-3.83 2.22-6.03 4.7-8.22 9.04q-5.76 11.43-10.67 19.84-10.07-5.56-19.72-9.51-11.55 1.78-21.58 7.41c-1.18.66-2.86 1.23-4.39 1.9q-7.41-4.29-10.98-7.6c-3.09-2.85-6.49-6.51-5.6-10.79q.77-3.68 5.82-20.1 2.99-9.71 7.76-18.19 5.41-5.13 9.59-8.21 10.65-7.85 19.69-14.05 4.6-3.15 8.22-4.56c4.59-1.79 9.2-.48 13.55 1.22q2.94 1.14 14.08 5.79 7.2 3.01 12.51 6.48c2.44 1.59 4.73 3.14 4.29 6.06q2.63 8.55 5.2 21.66.38 1.93-.73 3.11Zm-79.73 36.04q4.67-2.09 9.28-4.28 7.4-3.49 14.74-3.67l10.91 5.68 6.42 4.39q9.06-15.7 11.98-21.39 2.06-4.02 4.33-5.41 12.66-7.75 22.23-12.79l-4.78-22.18q-18.68 15.17-37.4 28.83-2.59 3.18-5.14 3.56l41.43-33.75q-2.34-5.24-6.21-7.19-13.21-6.66-26.83-11.37-4.1-1.42-6.7-.75-4.51 1.16-9.93 4.81c-9.79 6.6-19.77 13.45-28.49 21.27q-4.59 8.6-5.95 12.31-4.19 11.39-7.54 24.95c-1.45 5.89 2.2 8.89 6.8 12.78q2.59 2.2 6.35 5.05z"
     fill="#011127"
     id="path70" />
  <path
     d="M1100.89 74.71c-.83 6.44-5.32 20.25-12.4 22.07q-1.27.33-3.44.35-13.3.13-25.7 6.31l1.36-6.74q.78-.54 1.73-.63c1.15-1.7 2.2-2.16 3.03-3.11 4.59-5.26 12.48-11.9 19.61-13.51q2.75-.63 13.53-2.32 1.22-1.72 2.28-2.42"
     fill="#fed108"
     id="path71" />
  <path
     d="M778.1 128.37q.08-.01.17-.03-2.01 0-3.98-1.08-.79-1.44-1.66-1.37-.42-.89-1.21-1.54c-8.62-7.17-17.66-13.7-26.24-20.92q-.2-.66-1.8-1.8-6.38 10.1-9.96 21.37-.3.93-2.49 8.04-1.13 3.69-2.1 8.16-1.05 4.77 2.57 8.16 4.46 4.18 9.33 7.87 2.58 1.63 3.8.06l.43-.27q.5.38.57.61l-1.9 1.04q-6.36-3.04-8.95-5.24c-4.6-3.89-8.25-6.89-6.8-12.78q3.35-13.56 7.54-24.95 1.36-3.71 5.32-11.5c9.35-8.63 19.33-15.48 29.12-22.08q5.42-3.65 9.93-4.81 2.6-.67 6.7.75 13.62 4.71 26.83 11.37 3.87 1.95 6.41 4.85zm-9.33-37.55-11.04 8.37 8.86 8.46 5.51 4.66 4.2 2.85q2.4-.04 3.28-1.37 1.4-.68 2.45-1.9 1.09-.42 1.68-1.37l11.83-10.25q-.81-4.18-2.83-5.99-6.05-5.44-10.26-8.95-1.39-1.17-3.11-1.47z"
     fill="#fffffe"
     id="path72" />
  <path
     d="M1153.93 88.36q-10.75-.55-21.34 8.03l3.52-10.87q10.03-4.96 18.17-4.34.77 5.27-.35 7.18m-24.25-.42q-6.27.92-11.8 4.39l-1.74-3.45q5.81-4.47 10.41-6.33c4.35-1.77 3.64 3.15 3.13 5.39"
     fill="#fef25e"
     id="path73" />
  <path
     d="m783.71 110.52 10.87-9.88q.01-3.59-1.6-5.11-.94-.9-12.19-10.38-6.7 3.22-12.02 5.67l9.43-6.7q2.86.04 4.25 1.21 4.21 3.51 10.26 8.95 2.02 1.81 3.19 4.35z"
     fill="#808f96"
     id="path74" />
  <path
     d="M783.71 110.52q-.59.95-1.68 1.37-1.71.27-2.45 1.9-.88 1.33-2.48 1.56l-5-3.04q-2.32-2.92-5.51-4.66l-8.88-7.46 11.06-9.37q5.32-2.45 9.15-5.67 14.12 9.48 15.06 10.38 1.61 1.52 2.13 2.85z"
     fill="#a7afb2"
     id="path75" />
  <path
     d="M1153.93 88.36q-3.44 6.83-8.72 10.88l-13-.67q-.26-1.78.38-2.18 10.59-8.58 21.34-8.03m-24.25-.42q-.7 5.79-4.28 10.28-3.1 2.38-6.17 3.27.32-5.08-1.35-9.16 5.53-3.47 11.8-4.39"
     fill="#fed108"
     id="path76" />
  <path
     d="M1041.13 125.04q-2.98-4.54-5.29-9.32-2.86-5.89-4.45-7.74-2.93-3.43-8.13-7.2-2.7-1.95-4.78-4.02l-1.52 10.33.79 9 .94 1.29.73 2.9c-3.64-2.64-6.48-3.77-7.17-9.2-.8-6.28-.26-16.6 3.63-22.1q8.34 1.17 13.84 6c9.23 8.11 14.35 17.41 11.41 30.06"
     fill="#fef25e"
     id="path77" />
  <path
     d="M936.19 149.2q.03-.12.05-.24 2.12-.71 3.74-2.12-.26-4.97-2.33-10.26-5.04-12.85-9.98-21.72-.68-2.65-3.46-5.92-.75-1.86-2.37-3.06-10.19-7.52-22.96-12.14c-3.95-1.43-6.04-2.56-9.17.2q-9.35 8.23-18.43 16.66l-.62.12q9.35-10.42 19.24-18.56c1.57-1.29 3.44-1.39 5.52-.8q7.45 2.11 12.57 4.69 7.74 3.91 15.32 9.38 4.6 5.97 7.58 12.16 5.14 10.68 9.32 21.4 1.4 3.61 1.62 7.51-2.81 2.36-5.64 2.7"
     fill="#011127"
     id="path78" />
  <path
     d="m1113.11 103.22-1.05-5.49q-8.24.8-11.32 7.85l-2.42-5.12q3.57-7.58 10.38-9.33 6.14 6.1 4.41 12.09"
     fill="#fef25e"
     id="path79" />
  <path
     d="M924.21 108.94q-2.58.81-4.25 2.27c-5.19 1.78-8.93 4.77-15.75 9.07q.86 6.64 2.19 12.78.51 2.35-.18 4.51-6.21 3.44-7.56 1.2-14.26-9.21-30.01-16.92.19-.38-.65-.77.46-1.05 1.21-.61 6.98 4.13 12.21 6.66c4.58 2.22 8.37 4.89 13.46 7.47q.34.17 4.67 3.32c2.23 1.62 5.88.7 5.53-2.71q-.53-5.14-2.69-10.97L880.3 112.3q-1.69-3.77-.67-6.55-2.05.17-2.38.5-5.28 5.31-10.63 10.55l-.99 1.73q-1.26-1.7-.01-2.67 3.07-2.38 5.66-5.26 9.08-8.43 18.43-16.66c3.13-2.76 5.22-1.63 9.17-.2q12.77 4.62 22.96 12.14 1.62 1.2 2.37 3.06"
     fill="#fffffe"
     id="path80" />
  <path
     d="M780.46 153.36q.27.04.45.03l-3.99-3.2 1.35-21.85q-.09.02-.17.03 2.55-.38 4.52-2.96 19.34-14.26 37.01-29.74l6.46 20.96q-10.24 6.57-22.9 14.32-2.27 1.39-4.33 5.41-2.92 5.69-11.28 21.21z"
     fill="#5e7482"
     id="path81" />
  <path
     d="m1041.13 125.04-2.99 13.84q-8.08-11.13-18.72-18.6l-.33-2.11-.94-1.28-1.19-9.37.63-10.42q2.97 1.73 5.67 3.68 5.2 3.77 8.13 7.2 1.59 1.85 4.45 7.74 2.31 4.78 5.29 9.32m71.98-21.82c-.66 4.95-2.31 8.62-6.94 9.76-1.5-4.44-3.49-4.55-5.43-7.4q3.08-7.05 10.74-8.25z"
     fill="#fed108"
     id="path82" />
  <path
     d="M745.18 103.43q-.58.76 1.17 2.2-1.81 3.23-2.28 6.62-5.38 15.76-6.3 31.59l2.93 7.43.03 3.96q-4.87-3.69-9.33-7.87-3.62-3.39-2.57-8.16.97-4.47 2.1-8.16 2.19-7.11 2.49-8.04 3.58-11.27 8.94-21.14 2.62.91 2.82 1.57"
     fill="#a7afb2"
     id="path83" />
  <path
     d="M745.18 103.43c8.58 7.22 17.62 13.75 26.24 20.92q.79.65 1.21 1.54-.09.1-.18.19l-26.1-20.45q-1.75-1.44-1.17-2.2"
     fill="#083248"
     id="path84" />
  <path
     d="M1001.2 104.01q.04.51-.12 1.04z"
     fill="#011127"
     id="path85" />
  <path
     d="M1092.77 111.12q-1.54 1.27-1.83.74-6.23-1.07-10.68-.55-9.62 1.12-16.97 5.68-3.21 2-7.45 6.8-.89 1-1.44.7-.97-.52-1.56-1.23l-5.24 3.2c4.66-13.38 18.02-21.41 31.54-22.26 3.87-.24 7.74-.59 10.44.67q3.93 1.82 3.19 6.25"
     fill="#fef25e"
     id="path86" />
  <path
     d="M1117.53 111.88c.56-1.71 2.51-2.97 4.53-4.28q5.4-3.52 11.48-3.46c3.4.03 7.38.29 10.54 1.63q-2.27 6.43-6.76 10.31-1.85 1.6-2.66 1.58-1.46-.2-6.26-2.05c-3.49-1.35-6.99-1.65-10.1-2.37Z"
     fill="#fed108"
     id="path87" />
  <path
     d="M868 121.08q-.96-1.89-.81-4.34l-.57.06q5.35-5.24 10.63-10.55.33-.33 2-.89-.64 3.17-.36 4.96l23.16 13.54q2.5 6.21 3.03 11.35c.35 3.41-3.3 4.33-5.53 2.71q-4.33-3.15-4.67-3.32c-5.09-2.58-8.88-5.25-13.46-7.47q-5.23-2.53-12.21-6.66-.75-.44-1.21.61"
     fill="#bac5c5"
     id="path88" />
  <path
     d="M772.63 125.89q.87-.07 1.66 1.37-.62.43-1.31-.43-2.37 8.14-3.25 15.92-.14 1.25-.18 4.93-7.34.18-14.74 3.67-4.61 2.19-9.28 4.28-.07-.23-.11-.42l-.89.08q-.78-.04-1.43-.32l-2.4-3.7-2.93-7.43q5.09-20.8 6-27.21.14-.94.3-4.38.47-3.39 2.28-6.62l25.84 20.46q.35-.1.44-.2"
     fill="#5e7482"
     id="path89" />
  <path
     d="m772.1 112.31-5.51-4.66q3.19 1.74 5.51 4.66m155.57 2.55 11.52 29.9q-1.26 3.11-2.96 2.63-.46 1.64.01 1.57-.02.12-.05.24-.39.07-.81.44l-.73-2.38c-5.65-11.44-10.83-21.85-16.3-34.57q1.09-.56 1.61-1.48 1.67-1.46 4.25-2.27 2.78 3.27 3.46 5.92"
     fill="#808f96"
     id="path90" />
  <path
     d="M1092.77 111.12q-2.69 9.62-9.86 15.78c-1.56 1.34-5.63 1.73-8.42 1.81q-10.72.32-16.21 2.32-4.86 1.78-11.95 4.5l1.27-9.07 4.52-3.29q1.31.8 2.28 1.32.55.3 1.44-.7 4.24-4.8 7.45-6.8 7.35-4.56 16.97-5.68 4.45-.52 7.51-.83 3.46 1.91 5 .64"
     fill="#fed108"
     id="path91" />
  <path
     d="M782.03 111.89q-1.05 1.22-2.45 1.9.74-1.63 2.45-1.9"
     fill="#808f96"
     id="path92" />
  <path
     d="M744.07 112.25q-.16 3.44-.3 4.38-.91 6.41-6 27.21.92-15.83 6.3-31.59m174.28.44c5.47 12.72 10.65 23.13 16.3 34.57q-2.11 3.75-6.73 6.14-7.23 3.76-12.77 6.21-3.19 1.41-6.42 2l-9.01-19.91q.11-1.13 4.19-1.15 4.2-5.28 3.53-7.8-.52-1.9-2.7-10.66z"
     fill="#4c6475"
     id="path93" />
  <path
     d="M927.67 114.86q4.94 8.87 9.98 21.72 2.07 5.29 2.79 8.93-2.08 2.74-4.2 3.45-.47.07-.76-.79 2.45-.3 3.65-2.5z"
     fill="#bac5c5"
     id="path94" />
  <path
     d="M1134.08 127.77c-9-2.61-17.38-4.55-26.8-2.88q-2.27.4-9.28 4.43.2-3.38 2.97-5.6c7.69-6.19 18.62-7.88 27.04-1.99q1.68 1.18 6.07 6.04"
     fill="#fef25e"
     id="path95" />
  <path
     d="M877.95 137.87q-9.76-5.89-20.11-10.78-7.65-3.61-12.64-4.78-4.37-1.03-8.06.58-12.56 5.48-25.73 13.52l-.97 1.06-13.07 28.84q2.01 2.33 3.91 2.96 12 3.98 28.5 8.41-.76.44 1.42.79l7.05 2.75q.3.73-.28 1.03c-4.49-1.49-7.82-2.95-11.57-3.94-4.09-1.07-8.18-2.65-12.69-3.85q-7.86-2.11-14.02-4.43-1.81-.69-3.62-2.81l1.01-3.76q1.1-1.29 1.27-2.46.98-2.03 10.62-23.02.79-1.71 2.32-2.66 11.49-7.18 22.08-12c4.29-1.96 5.87-3.03 9.91-2.58q2.77.3 6.17 1.6 15.48 5.94 27.73 13.66.61 1.05 1.45 1.18-.19.75-.68.69m-9.3-16.02q15.75 7.71 30.01 16.92-.04.53-.1.85-1.21.55-1.57.04-.38-.54-.62-.7c-9.82-6.44-19.13-10.59-28.42-16.36q.86-1.22.7-.75"
     fill="#011127"
     id="path96" />
  <path
     d="M1029.41 157.37q-1.42-1.05-1.24-1.56-2.79-3.99-3.35-5.1c-3.55-7.06-8.2-12.46-13.82-16.84q-2.69-2.11-7.26-4.13l-1.19 10.68 1.3 6.92.41.04-2-10.59.71-.45 3.9 15.91q-1.57-.64-1.24-2.58.08 1.19-.07 2.36-1.11 1.03-1.11 1.73-3.22-5.67-5.1-15.28-1.46-7.43-.97-13.07c.37-4.28 4.18-3.97 7.25-3.01q16.82 5.25 23.35 20.14 3 6.82.43 14.83"
     fill="#fef25e"
     id="path97" />
  <path
     d="M877.95 137.87c3.07 1.76 7.79 4.36 9.37 7.61q.02.16.03.28l-1.03.26q-2.49 1.26-4.96 1.72l-32.46 12.11q-5.11 11.68-9.29 21.25-.33.77-1.36.12l-7.05-2.75q.22-.89.94-1.21l5.47 2.41 7.2-16.35-4.88-2.55-6.21 14.86q-1.42.6-1.52.16l5.81-15.95q-.11-.91-.1-1.14-.15-.48-.56-.83-12.07-10.3-24.52-20.13-.36-.28-.75-.37.05-.24-.67-.96 13.17-8.04 25.73-13.52 3.69-1.61 8.06-.58 4.99 1.17 12.64 4.78 10.35 4.89 20.11 10.78"
     fill="#fffffe"
     id="path98" />
  <path
     d="M1134.08 127.77q-.96 2.12-5.43 3.81-8.76 3.31-14.31 2.84c-2.85-.24-5.16-1.16-8.37-2.42q-.95-.37-4.18-.9-2.77-.45-3.79-1.78 7.01-4.03 9.28-4.43c9.42-1.67 17.8.27 26.8 2.88"
     fill="#fed108"
     id="path99" />
  <path
     d="M987.88 125.39q.44 1.21-.04 1.92z"
     fill="#011127"
     id="path100" />
  <path
     d="M774.29 127.26q1.97 1.08 3.98 1.08l-1.81 20.98 4.63 3.28q-.36.8-.63.76l-10.91-5.68q.04-3.68.18-4.93.88-7.78 2.16-15.63 1.78.57 2.4.14"
     fill="#a7afb2"
     id="path101" />
  <path
     d="m847.63 158.35-7.67-29.05q9.98 4.27 15.87 7.56c4.78 2.68 9.48 4.53 13.65 7.52 1.77 1.27 4.96 2.71 6.78 3.44l-27.55 11.09Z"
     fill="#bac5c5"
     id="path102" />
  <path
     d="M1029.41 157.37q-1.24 3.22-4.63 5.15c-8.49 4.84-16.71-.64-20.33-8.76q0-.7.69-1.1.57-1.8.49-2.99-.33 1.94.71 2.89l-3.15-16.09h-.73l1.87 10.82-.42.09-1.32-6.39.34-10.74q5.38 1.51 8.07 3.62c5.62 4.38 10.27 9.78 13.82 16.84q.56 1.11 1.22 1.32 1.95 4.29 3.37 5.34"
     fill="#fed108"
     id="path103" />
  <path
     d="M1084.23 138.84q-6.24 1.91-11.81 3.63-5.48 1.7-11.67 4.01-6.61 2.46-15.58 4.43-1.68 1.52-2.75 1.48l-1.21 2.8q-1.25 1.08-1.47 1.7c-3.76-14.97 19.8-19.64 29.88-21.47q9.32-1.68 14.61 3.42"
     fill="#fef25e"
     id="path104" />
  <path
     d="M811.41 136.41q.72.72.67.96-.11-.02-.26.17c8.58 7.32 16.21 13.59 25.25 21.24q.61.52.84-.08-.01.23.09.52l-5.8 16.57-.06 1.47q-.72.32-.94 1.21-2.18-.35-1.42-.79-4.36-2.27-9.04-3.64-8.72-2.57-17.49-5.28-2.01-.62-3.84-1.68 5.19-13.68 11.2-27.39.67-1.52-.17-2.22z"
     fill="#808f96"
     id="path105" />
  <path
     d="M1110.26 140.45q.66 2.57 2.43 3.72l-17.66 1.45q-2.98 4.06-7.48 5.15c2.27-4.37 4.55-7.64 4.62-12.85q10.59-1.7 18.09 2.53"
     fill="#fef25e"
     id="path106" />
  <path
     d="M812.08 137.37q.39.09.75.37 12.45 9.83 24.52 20.13.41.35.56.83-.23.6-.84.08c-9.04-7.65-16.67-13.92-25.18-20.68q.08-.75.19-.73"
     fill="#083248"
     id="path107" />
  <path
     d="M810.44 137.47q.84.7.17 2.22-6.01 13.71-11.75 25.57 2.38 2.88 4.39 3.5 8.77 2.71 17.49 5.28 4.68 1.37 9.04 3.64-16.5-4.43-28.5-8.41-1.9-.63-3.73-2.17z"
     fill="#a7afb2"
     id="path108" />
  <path
     d="M1084.23 138.84q-.62 2.27-1.17 4.03-.7 2.22-1.71 3.79-9.38 14.58-26.35 19.59-2.8.83-5.31 1.12c-6.6.75-10.23-3.85-9.95-10.48q.22-.62 1-1.05l.81-2.74q1.94-.67 2.45-1.4 10.14-2.76 16.75-5.22 6.19-2.31 11.67-4.01 5.57-1.72 11.81-3.63m3.32 11.93q4.5-1.09 6.71-4.7l18.3-1.4q-1.64-1.65-2.3-4.22l5.26 4.27c-8.12 13.54-22.86 16.52-37.04 17.19q5.37-5.21 9.07-11.14"
     fill="#fed108"
     id="path109" />
  <path
     d="m934.65 147.26.73 2.38q-2.69 2.2-6.1 4.12-9.7 5.44-19.1 9.11-4-1.46-4.86-3.66-3.12-7.95-5.6-17.51l7.84 19.27q4.4.05 7.59-1.36 5.54-2.45 12.77-6.21 4.62-2.39 6.73-6.14"
     fill="#5e7482"
     id="path111" />
  <path
     d="M890.3 173.71q-.69-.2-.89-2.9l-8.05-23.07q2.47-.46 4.41-1.67l1.01.11q.56-.54.54-.7 1.67 2.78 2.17 4.31 3.59 10.9 8.02 21.3z"
     fill="#808f96"
     id="path113" />
  <path
     d="M889.41 170.81q.2 2.7.89 2.9-7.36 1.8-15.34 3.36-21.77 4.26-24.22 4.66-4.38.7-8.92 1.09l6.29-20.02 31.91-13.05 8.52 22.28q.76-.36.87-1.22"
     fill="#4c6475"
     id="path114" />
  <path
     d="M744.53 155.29q-1.22 1.57-3.8-.06l-.03-3.96 1.72 3.09q1.33.89 2.11.93"
     fill="#808f96"
     id="path115" />
  <path
     d="M784.83 172.16c-2.72 3.34-8.85 5.35-13.01 6.81q-2.6.91-5.19.4-10.95-2.16-19.21-5.51l-1.35-9.15q5.04-4.03 10.38-6.41c4.24-1.89 8.26-4.13 12.48-.24q3.18 2.93 15.81 13.2Zm-35.44 1.11 18.15 5.24 15.16-5.21q1.04-.09 1.05-.78l-18.9-15.9-15.51 6.76q-3.47 9.04.05 9.89"
     fill="#011127"
     id="path116" />
  <path
     d="m782.7 173.3-.8-.08q-.52-.87-.5-1.02l-16.1-13.86-14.6 5.48c-2.92 5.44-3.34 8.1.23 8.95q-.51.62-1.54.5-3.52-.85-1.92-7.56l16.26-9.23 19.9 15.78q.11.95-.93 1.04"
     fill="#a7afb2"
     id="path117" />
  <path
     d="m782.7 173.3-11.61 4.99-21.7-5.02q1.03.12 1.54-.02c-3.57-1.33-3.15-3.99-2.47-6.63l14.66-8.57 18.01 13.46q.25.84.23 1z"
     fill="#808f96"
     id="path118" />
  <path
     d="m832.14 177.26.06-1.47q.1.44.82.38l5.76-14.85 5.56 1.01-5.05 16.61z"
     fill="#cad5ce"
     id="path119" />
  <path
     d="M1034.81 175.5q-3.11-6.12-10.63-6.16l6.29-5.17q5.48 4.76 4.34 11.33"
     fill="#fef25e"
     id="path120" />
  <path
     d="M1024.18 169.34q7.52.04 10.63 6.16l-1.12 11.14q-5.32.7-8.44-.35c-2.68-.9-2.51-3.5-2.57-6.11q-.15-5.85 1.5-10.84"
     fill="#fed108"
     id="path121" />
  <path
     d="m1011.62 174.53-.12-1.09q.3-.06.35.56.05.53-.23.53m-182.59 17.44L798.78 183q-1.91-1.4-4.21-1.08 2.92-.87 6.55.3 11.75 3.77 23.58 7.3 1.48.44 4.33 2.45"
     fill="#011127"
     id="path122" />
</svg>
