<?xml version="1.0" encoding="UTF-8" standalone="no"?>
<svg
   width="717.39087"
   height="488"
   viewBox="-20 -20 717.39087 488"
   version="1.1"
   id="svg193"
   xmlns="http://www.w3.org/2000/svg"
   xmlns:svg="http://www.w3.org/2000/svg">
  <defs
     id="defs193" />
  <path
     d="m 527.125,117 2,20 q 8,6 16,8 l 9,3 9,3 1,-1 11,4 h -2 l 23,14 24,15 8,6 6,7 2,3 1,-1 -2,-4 9,15 -1,-2 c -1,3 1,4 2,6 l 4,10 5,9 6,14 2,2 8,20 6,12 3,10 7,16 2,7 2,6 5,14 v 7 q 0,5 -2,8 -2,7 -10,12 l -6,4 -6,5 q -18,12 -38,21 l -15,7 -28,11 q -5,1 -13,-1 l -3,1 c 4,5 12,5 18,2 l 15,-5 -14,6 c -8,3 -14,4 -21,0 -5,9 -8,17 -15,21 -7,5 -15,7 -25,9 l 18,-6 c 7,-3 12,-8 15,-15 -4,2 -6,6 -9,8 l -12,5 c -8,4 -15,5 -23,8 l -22,6 q -31,6 -48,11 l -19,4 -15,1 -30,5 h -9 l -14,-1 -10,-1 -20,-4 c -4,0 -10,-3 -14,-4 -11,-3 -22,-8 -35,-11 q -13,-3 -22,-7 l -34,-11 -4,3 q -5,3 -9,3 l 3,-3 c -3,0 -5,1 -8,3 -5,4 -8,4 -15,7 l -22,8 -5,2 -13,2 q -19,2 -35,-2 l -8,-1 -8,-2 -10.999997,-3 -27,-5 -8,-3 c -8,-3 -11,-8 -14,-16 0,-8 1,-16 -3,-22 -1,-6 -5,-8 -10,-11 l 3,1 c -3,-5 -10,-8 -15,-12 L 0.12500256,362 C -5.8749974,357 -13.874997,349 -15.874997,342 c -2,-8 -2,-14 0,-21 l 6.9999996,-26 5,-19 2.99999996,-10 9.00000004,-29 4.0000004,-11 2,-4 5,-16 q 0,-3 2,-4 l 5,-13 6,-10 5,-6 23,-18 13,-10 13,-10 15.999997,-10 10,-7 11,-7 8,-5 7,-5 q 16.5,-10.5 36,-15 c 7,-1 15,1 20,2 l 10,2 10,3 5,-2 c 2,-1 3,-5 4,-7 l 10,-20 6,-10 q 5,-11 12,-21 l 4,-4 q 3,-6 8,-10 l 12,-10 18,-10 23,-10 11,-4 9,-3 h 10 l 10,-2 h 23 l 9,2 8,3 24,13 11,6 12,7 9,5 11,7 8,6 8,5 15,11 6,4 q 10,12 15,26 l 3,8 3,9 c 1,9 4,17 6,25"
     id="path193"
     style="fill:#163149;fill-opacity:1" />
  <path
     fill="#fefefe"
     d="m 479.125,68 q 2,2 2,5 l -2,3 -28,10 -27,10 -9,3 -8,4 -7,2 -4,3 c -8,4 -15,3 -22,0 l -22,-11 -13,-8 c -12,-8 -25,-18 -31,-32 l -7,-20 1,-4 v -2 h -3 l 5,-8 15,-9 q 12,-5 25,-8 c 11,-3 20,-3 30,-2 l 4,1 33,17 19,11 5,3 8,5 28,19 z"
     id="path12" />
  <path
     fill="#bcc4c5"
     d="m 453.125,77 q -9,9 -20,8 l -14,-5 -32,-20 -14,-10 -21,-15 c -2,-1 -3,-2 -2,-4 q 5,-5 10,-7 c 5,-2 12,0 17,3 l 17,10 12,5 18,11 17,12 6,7 z"
     id="path13" />
  <path
     fill="#a8aeb1"
     d="m 302.125,33 -1,5 -1,-2 -1,2 2,7 c 5,13 12,26 22,35 q 24,20 56,32 4,2 8,1 l 4,-2 5,-1 3,10 2,7 2,8 1,10 4,15 2,10 -3,8 -10,17 -4,5 -3,5 -9,13 -4,7 -23,2 c -2,0 -3,-2 -3,-4 q -3,-7 -4,-15 l -1,-8 -2,-7 -3,-10 -5,-18 -6,-12 -2,-4 q -9,-12 -15,-17 l -13,-9 -12,-6 -4,-2 -22,-10 -5,-3 c -1,-3 1,-9 3,-12 l 7,-15 q 3,-8 11,-18 l 6,-9 7,-10 7,-6 q 3,-1 4,1"
     id="path14" />
  <path
     fill="#58697a"
     d="m 301.125,38 7,19 c 6,14 19,24 31,32 l 13,8 22,11 c 7,3 14,4 22,0 l 4,-3 v 1 l 1,2 q -3,0 -5,2 l -5,1 -4,2 q -4,1 -8,-1 -32,-12 -56,-32 c -10,-9 -17,-22 -22,-35 l -2,-7 1,-2 z"
     id="path15" />
  <path
     fill="#828e96"
     d="m 485.125,152 h -3 l -2,-3 -10,-21 -8,-27 -3,-15 16,-7 q 4,-1 4,-3 l 2,-2 q 0,-4 -2,-6 l 3,4 13,49 c 2,7 4,13 3,19 q 0,3 -3,5 z"
     id="path19" />
  <path
     fill="#091c30"
     d="m 214.125,93 -8,-2 -11,-3 c -6,-1 -14,-3 -21,-2 q -19.5,4.5 -36,15 l -7,5 -8,5 -11,7 -10,7 -15.999997,10 -13,10 -13,10 -23,18 -5,6 -6,10 -5,12 q -2,2 -2,5 l -5,16 -2,4 -4.0000004,11 -9.00000004,29 -2.99999996,10 -4,16 -7.9999996,29 c -2,7 -2,13 0,21 2,7 9.9999996,15 15.99999956,20 L 20.125003,378 c 5,4 12,7 15,12 l -3,-1 -15,-10 -17.00000044,-14 q -2.99999996,-1 -9.99999996,-9 l -6.9999996,-10 q -5,-11 -2,-23 l 8,-29 c 1.9999996,-5 2.9999996,-14 5.9999996,-19 v -1 l 6,-19 2,-9 3,-9 3,-10 q 3.0000004,-5 3.0000004,-8 3,-5 3,-10 l 3,-5 1,-5 2,-5 2,-5 2,-4 3,-6 5,-6 5,-4 11,-8 6,-5 7,-5 11,-8 12,-9 5,-3 14.999997,-11 6,-4 c 6,-2 9,-5 12,-7 l 16,-10 19,-10 6,-2 13,-3 h 6 l 13,2 10,3 9,3 z"
     id="path23" />
  <path
     fill="#465a6e"
     d="m 459.125,86 3,15 8,27 10,21 v 1 q -9,-9 -12,-20 l -7,-23 -2,-9 -4,-10 z"
     id="path24" />
  <path
     fill="#58697a"
     d="m 455.125,88 q 3,4 4,10 l 2,9 7,23 q 3,11 11,21 l 1,-2 1,3 h 4 c -2,4 -6,6 -9,8 l 3,-3 c -9,3 -17,9 -24,16 l -18,15 -37,37 q -5,6 -14,5 l -4,-4 11,-16 3,-4 5,-7 14,-23 c 2,-3 2,-6 1,-11 l -5,-21 -2,-11 -1,-4 -3,-18 -1,-3 12,-6 6,-3 q 17,-4 33,-11"
     id="path26" />
  <path
     fill="#fefefe"
     d="m 175.125,272 h -1 q -7,0 -13,-4 l -11,-10 -8,-6 -15,-13 -16,-12 -6,-4 -12.999997,-11 -18,-15 -1,-3 -5,-4 1,-5 31.999997,-24 41,-30 q 12,-8 25,-14 l 13,-5 c 5,-1 12,1 16,2 l 19,7 29,12 18,8 c 14,6 23,11 32,18 3,3 7,6 6,10 l -3,3 -20,17 -24,19 -18,16 -7,6 -24,17 -8,7 -8,6 z"
     id="path29" />
  <path
     fill="#627382"
     d="m 171.125,233 c -9,-4 -15,-8 -20,-12 l -12,-10 c -10,-10 -17,-17 -27,-24 q 22,-21 48,-38 l 13,-10 5,-1 9,6 29,25 c 5,4 8,10 12,16 l -20,19 q -17,15 -37,29"
     id="path36" />
  <path
     fill="#a8aeb1"
     d="m 114.125,186 2,-2 15,-12 16,-12 21,-14 7,-6 h 4 q 7,4 14,11 l 7,6 14,12 7,7 5,8 -14,14 -6,5 -6,6 -16,13 -12,10 -14,-7 -20,-17 q -10,-11 -23,-20 z"
     id="path37" />
  <path
     fill="#010102"
     d="m 564.125,150 v 1 l -10,-3 -9,-3 v -1 h 1 q 10,2 18,6"
     id="path38" />
  <path
     fill="#010102"
     d="m 575.125,154 24,14 9,5 10,7 10,6 q 4,3 7,8 l 2,4 v 1 l -3,-2 q -3,-6 -6,-8 l -8,-6 -24,-15 q -13,-8 -23,-12 z"
     id="path41" />
  <path
     fill="#74828e"
     d="m 476.125,160 -17,16 -12,9 -23,22 -6,5 -7,7 c -5,6 -10,12 -16,15 v 1 h -3 q -9,-1 -17,-4 2,0 3,-3 l 1,1 3,-3 3,4 q 10,1 15,-5 l 37,-37 18,-15 c 7,-7 15,-13 23,-17 z"
     id="path42" />
  <path
     fill="#010102"
     d="m 438.125,241 1,-4 q 3,2 2,3 v 5 q 0,4 3,7 l 26,14 47,26 7,4 c 5,3 8,7 12,11 h 10 l 9,-3 c 4,-1 4,-11 4,-15 l -2,-11 -7,-27 1,-2 c 3,-3 7,-4 10,-6 l 28,-18 8,-3 13,-8 1,1 -17,10 -4,3 -5,3 -17,10 -13,8 -2,3 8,33 q 1,8 -1,16 c 0,4 -3,6 -7,7 l -8,2 h -7 v 6 l 2,8 9,26 c 3,9 7,25 15,27 h 5 l 5,-2 13,-6 6,-2 4,-2 22,-11 q 10,-5 21,-13 l 7,-6 2,-1 10,-6 2,-6 -8,-25 -21,-47 -6,-14 -7,-13 -7,-10 -3,-4 c -6,-6 -11,-10 -18,-14 l -10,-6 q -23,-13 -46,-22 l -15,-4 c -4,-1 -9,3 -12,5 l -17,16 -6,5 -29,27 -8,7 -13,12 -4,4 q -1,4 2,7 l -2,1 c -4,-3 -5,-7 -2,-11 l 7,-7 25,-24 16,-14 q 13,-13 27,-24 5,-5 11,-7 c 3,-2 7,-1 11,1 q 20,5 36,13 22,11 33,19 l 10,6 q 5,4 7,8 4,4 6,9 l 8,13 8,15 5,10 6,15 17,42 3,12 -1,5 -22,15 -4,3 -6,4 c -3,2 -7,5 -11,6 l -13,7 -5,2 -4,2 -11,5 -15,6 q -6,3 -12,1 -6,-5 -7,-8 -5,-9 -7,-17 l -9,-25 -4,-18 q -6,-8 -15,-14 l -48,-26 -29,-16 -1,-2 c 0,-2 0,-3 -2,-4 q -3,-3 -1,-8"
     id="path43" />
  <path
     fill="#fefefe"
     d="m 612.125,213 -2,1 -13,8 -8,3 -28,18 c -3,2 -7,3 -10,6 -5,3 -9,5 -15,5 l -5,-2 q -15,-10 -32,-18 -6,-2 -22,-12 -2,-2 -2,-5 l 2,-11 3,-5 q 0,-5 3,-8 l 8,-9 17,-16 c 3,-2 8,-6 12,-5 l 15,4 q 23,9 46,22 l 10,6 c 7,4 12,8 18,14 z"
     id="path44" />
  <path
     fill="#828e96"
     d="m 175.125,344 q 1,-2 -1,-4 l -5,-4 8,6 5,2 15,10 c 4,2 5,-2 6,-4 l 10,-21 3,-5 2,-4 15,-27 c 2,-5 6,-11 11,-15 l 14,-8 18,-11 q 17,-12 33,-18 3,-4 2,-10 l -8,-36 -6,-20 3,-2 9,28 c 2,8 3,19 6,28 l 2,11 c -1,3 -5,5 -9,6 l -7,3 -19,12 -13,7 -8,5 -7,4 -7,4 q -5,3 -7,8 l -10,18 -14,28 -7,12 q -4,6 -6,13 h -5 l -10,-8 z"
     id="path45" />
  <path
     fill="#627382"
     d="m 297.125,175 6,20 8,36 q 1,6 -1,9 -17,7 -34,19 l -18,11 -14,8 c -5,4 -9,10 -11,15 l -15,27 -2,4 -3,5 q -3,9 -8,17 c -3,6 -4,10 -8,8 l -15,-10 -5,-2 -8,-6 1,-8 4,-48 v -8 h 1 l 1,1 q 6,-4 10,-9 l 22,-16 27,-20 10,-10 18,-14 17,-14 z"
     id="path46" />
  <path
     fill="#fffef0"
     d="m 491.125,184 -8,8 v 1 q -3,3 -2,7 l -4,6 1,-3 -7,3 -23,23 -4,6 1,2 v 8 l 3,4 14,7 c 6,5 17,9 25,13 l 10,6 17,10 18,11 7,6 c 11,4 17,-5 15,-15 q -2,-11 -6,-21 l -4,-8 q -3,-3 -8,-4 c 6,0 10,-2 15,-5 l -1,1 7,28 2,11 c 0,4 0,14 -4,15 l -9,3 h -9 l -13,-11 -7,-4 -47,-26 -25,-14 q -4,-3 -4,-7 v -5 l 1,-2 q -4,1 -4,3 l -1,1 q -3,2 -6,0 v -3 l 4,-4 13,-12 8,-7 29,-27 z"
     id="path48" />
  <path
     fill="#828e96"
     d="m 69.125003,185 -1,2 5,7 h -1 l 5,8 -4,16 -2,5 -2,6 -4,16 -4,17 -9,41 q -1,8 2,19 l 7,17 2,4 2,4 q 1,4 3,5 7,-1 12,-4 l 18,-8 C 106.125,336 114.125,332 124.125,330 l 13,-3 q 6,-1 8,3 c -9,0 -16,3 -25,5 l -12,4 -23.999997,12 -5,2 -9,5 q -3,2 -6,0 -10,-6 -19,-15 3,2 5,1 c -2,-4 -4,-6 -8,-9 l -11,-11 c -7,-8 -6,-17 -4,-27 l 7,-20 3,-12 4,-12 6,-18 q 1,-6 5,-13 l 4,-10 5,-9 5,-9 c 0,-3 0,-5 -2,-5 z"
     id="path49" />
  <path
     fill="#bcc4c5"
     d="m 64.125003,189 c 2,0 2,2 2,4 l -5,10 -5,9 -4,10 q -4,7 -5,13 l -6,18 -4,12 -3,12 -7,20 c -2,10 -3,19 4,27 l 11,11 9,8 q -3,2 -6,0 l -4,-3 q -8,-6 -14,-14 c -6,-7 -7,-15 -5,-24 l 3,-11 11,-36 q 7,-24 18,-49 z"
     id="path50" />
  <path
     fill="#010102"
     d="m 73.125003,194 1,3 18,15 12.999997,11 6,4 16,12 15,13 8,6 11,10 -5,-2 -7,-7 -6,-4 -12,-9 -6,-5 -18,-14 -15.999997,-12 -7,-7 -7,-6 -5,-7 z"
     id="path51" />
  <path
     fill="#627382"
     d="m 156.125,266 -3,8 c -3,21 -5,35 -5,55 q 0,2 2,3 l -5,-2 q -2,-4 -8,-3 l -13,3 c -10,2 -18,6 -25.999997,10 l -18,8 -11,5 q -3,-2 -3,-5 l -3,-5 -2,-4 -7,-17 q 2,-5 1,-8 -1,-9 1,-16 l 3,-8 7,-32 2,-10 7,-26 1,-10 -3,6 4,-16 7,6 7,7 15.999997,12 18,14 6,5 12,9 6,4 z"
     id="path54" />
  <path
     fill="#bcc4c5"
     d="m 477.125,206 -2,11 q 0,3 2,5 h -1 v 2 l 14,7 18,10 8,5 7,4 8,4 v -2 l 5,2 q 5,1 8,4 l 4,8 q 4,10 6,21 c 2,10 -4,19 -15,15 l -6,-5 q -9,-7 -19,-12 l -17,-10 -10,-6 c -8,-4 -19,-8 -25,-13 l -14,-7 -3,-4 v -7 l -1,-2 q 1,-4 4,-7 l 23,-23 7,-3 z"
     id="path55" />
  <path
     fill="#091c30"
     d="m 644.125,209 q 6,9 10,19 l 5,10 6,13 8,17 11,28 10,27 c 2,5 4,11 3,17 0,7 -2,13 -7,18 l -11,9 -16,11 -10,6 -26,12 -20,9 -15,5 c -6,2 -14,3 -18,-1 1,-2 2,-2 3,-2 q 8,2 13,1 l 28,-11 15,-7 q 20,-9 38,-21 l 6,-5 6,-4 q 8,-5 10,-12 2,-3 2,-8 v -7 l -5,-14 -2,-6 -2,-7 -7,-16 -3,-10 -6,-11 -8,-21 -1,-1 -7,-15 -5,-9 -4,-10 c -1,-2 -3,-3 -3,-6 z"
     id="path56" />
  <path
     fill="#465a6e"
     d="m 54.125003,322 q -3,-11 -2,-19 l 9,-41 4,-17 4,-16 2,-6 2,-5 2,-6 v 10 l -7,26 -2,10 -7,32 -3,8 q -2,7 -1,16 1,3 -1,8"
     id="path57" />
  <path
     fill="#828e96"
     d="m 612.125,213 7,10 q -2,1 -2,3 l 5,11 12,26 4,9 4,13 q 8,14 13,31 l 1,8 q -3,4 -7,6 l -3,3 3,1 -2,1 q -2,0 -4,-4 l -1,-3 -1,-3 -13,-24 -23,-49 -9,-22 -2,-5 16,-10 v -1 z"
     id="path58" />
  <path
     fill="#828e96"
     d="m 477.125,222 q 16,10 22,12 17,8 32,18 l 1,1 -9,-3 -7,-4 -8,-5 -18,-10 -13,-7 -2,-1 z"
     id="path60" />
  <path
     fill="#bcc4c5"
     d="m 619.125,223 7,13 6,14 21,47 c 3,8 6,17 7,25 h 1 v 4 l -12,8 h -2 c 0,-2 0,-3 2,-4 l 7,-4 -1,-10 q -5,-17 -13,-31 l -4,-13 -4,-9 -12,-26 -5,-10 q 0,-3 2,-4"
     id="path61" />
  <path
     fill="#58697a"
     d="m 594.125,225 2,5 -1,-2 -1,1 2,7 11,25 5,12 13,25 6,13 5,12 5,7 1,-2 1,3 c 0,5 -3,6 -7,8 l -6,4 -12,6 -24,12 -12,6 -16,5 q -7,-7 -9,-14 l -6,-15 -9,-29 -1,-3 q -3,2 -3,5 l -1,-5 7,-1 8,-1 c 5,-2 8,-4 8,-8 l 2,-16 -9,-33 2,-3 13,-8 17,-10 5,-3 z"
     id="path62" />
  <path
     fill="#465a6e"
     d="m 596.125,230 9,22 23,49 13,24 1,3 v 2 l -6,-7 -5,-12 -6,-13 -13,-25 -5,-12 -11,-25 -2,-7 1,-1 z"
     id="path63" />
  <path
     fill="#74828e"
     d="m 441.125,240 v 5 -6 z"
     id="path65" />
  <path
     fill="#828e96"
     d="m 437.125,242 q -1,4 1,7 v 1 q -4,-3 -7,-8 3,2 6,0"
     id="path66" />
  <path
     fill="#010102"
     d="m 535.125,401 c -4,5 -7,6 -9,7 l -17,4 -13,3 q -31,8 -65,14 l -7,1 -24,5 h -4 l -5,1 q -15,4 -30,0 l -7,-1 -23,-9 -2,-1 -39,-12 -13,-4 -25,-7 -19,-7 -5,-6 c 1,-10 4,-15 8,-22 l 15,-34 13,-30 q 3,-7 9,-11 l 18,-11 q 19,-11 56,-29 l 11,-4 q 9,-1 13,1 14,3 27,8 40,17 78,41 l 18,11 c 8,6 12,13 16,24 l 10,26 6,16 6,17 q 3,5 3,9"
     id="path67" />
  <path
     fill="#fefefe"
     d="m 501.125,323 c 0,2 -2,2 -4,3 l -4,1 q -5,4 -12,5 l -6,2 -4,-2 -2,-2 c -6,-1 -10,-4 -16,-6 l -9,-6 -16,-9 -14,-7 -14,-7 -4,-3 -20,-11 -14,-8 -1,-1 q -1,6 1,13 l 5,21 8,29 2,11 3,10 1,6 q 3,2 5,1 l 8,-3 5,-1 8,-3 5,-2 10,-4 22,-9 7,-2 c 4,-1 9,-3 13,-1 -14,6 -30,13 -43,17 l -34,12 c -5,1 -7,4 -8,9 l -8,23 -5,12 -8,20 h -4 l -10,-4 -11,-3 v -1 l 1,-2 16,4 4,1 q 4,-4 5,-8 l 4,-12 4,-10 3,-7 3,-10 v -5 l -14,-5 q -3,0 -4,2 l -4,12 -6,16 -5,14 q -1,3 -3,3 l -1,-5 17,-45 -3,-6 -17,-14 -6,-5 -14,-12 -14,-11 -16,-13 -9,-7 -1,-2 18,-11 36,-19 10,-5 15,-6 7,-2 h 13 l 15,5 22,9 43,21 36,22 c 5,3 11,7 13,13"
     id="path70" />
  <path
     fill="#a8aeb1"
     d="m 156.125,266 5,2 q 6,4 13,4 v 8 l -4,48 -1,8 5,4 q 2,2 1,4 l -12,-7 -13,-5 q -2,-1 -2,-4 c 0,-19 2,-33 5,-54 z"
     id="path71" />
  <path
     fill="#bcc4c5"
     d="m 475.125,334 -11,4 c -4,-2 -9,0 -13,1 l -7,2 -22,9 -10,4 -5,2 -8,3 -5,1 -8,3 q -2,1 -5,-1 l -1,-6 -3,-10 -2,-11 -8,-29 -5,-21 -3,-11 q 2,-2 3,-1 l 14,8 20,11 4,3 14,7 14,7 16,9 9,6 15,6 2,2 z"
     id="path72" />
  <path
     fill="#a8aeb1"
     d="m 273.125,296 1,2 h -1 v 1 l 2,2 -2,3 -8,18 -5,11 -4,8 -7,15 -2,6 -10,19 -1,4 c 4,4 8,6 13,8 l 27,8 31,10 16,4 q 4,1 7,5 l -1,2 -27,-8 -26,-8 -31,-10 q -8,-2 -14,-7 c 0,-5 1,-7 2,-9 l 6,-14 17,-37 15,-31 z"
     id="path76" />
  <path
     fill="#282828"
     d="m 274.125,298 9,7 16,13 14,11 14,12 6,5 17,14 2,3 -16,48 -1,3 -3,7 v -4 q 3,-13 8,-24 l 4,-10 4,-11 3,-5 -10,-12 -18,-15 -9,-7 -15,-13 -13,-10 -6,-4 -5,-5 -2,-2 v -1 z"
     id="path77" />
  <path
     fill="#74828e"
     d="m 335.125,414 -2,7 v 3 l -4,-2 1,-1 q -3,-5 -7,-6 l -16,-4 -31,-10 -27,-8 -13,-7 1,-5 10,-19 1,-4 8,-17 c 1,-2 3,-4 3,-7 l 6,-12 7,-17 3,-4 4,4 7,5 13,10 15,13 9,7 18,15 10,9 -3,8 -4,11 -4,10 q -5,11 -8,24 l -1,3 1,1 z m 308,-83 q 2,4 4,4 l -7,6 q -11,8 -21,13 l -22,11 -4,1 v 1 l -6,2 -13,6 -5,2 h -5 c -8,-2 -12,-18 -15,-27 l -9,-26 -2,-8 q 0,-3 2,-5 l 2,3 9,29 6,15 q 2,7 7,14 c 8,-1 13,-3 18,-5 l 12,-6 24,-12 12,-6 6,-4 c 4,-2 7,-3 7,-8"
     id="path79" />
  <path
     fill="#828e96"
     d="m 501.125,323 3,4 12,33 6,15 8,20 2,6 -20,7 h -3 l -1,-4 -1,-3 -14,-38 -9,-30 14,-6 -1,-1 c 2,-1 4,-1 4,-3"
     id="path81" />
  <path
     fill="#163149"
     d="m 484.125,333 9,30 14,38 v 2 l -3,-3 -5,-16 -6,-15 -4,-11 -4,-15 -3,-7 -1,-1 h -1 z"
     id="path82" />
  <path
     fill="#465a6e"
     d="m 507.125,401 1,3 q -19,7 -33,9 l -44,7 -31,7 -7,1 -17,3 -9,2 1,2 h -6 l -2,-1 7,-16 15,-42 c 2,-5 7,-7 12,-8 l 37,-14 35,-13 14,-6 h 1 l 1,1 3,7 4,15 4,11 6,15 5,16 2,3 z"
     id="path83" />
  <path
     fill="#010102"
     d="m 195.125,405 -1,2 c -4,3 -10,5 -15,6 l -23,11 q -5,3 -8,3 l -9,-1 q -7,-3 -15,-4 l -7,-2 -23.999997,-7 -7,-3 -6,-3 q -4,-3 -4,-8 l 1,-15 q 1,-6 6,-9 l 22.999997,-12 22,-9 c 3,-2 7,-1 11,2 l 7,5 6,6 31,26 c 5,3 7,6 11,10 z"
     id="path84" />
  <path
     fill="#a8aeb1"
     d="m 190.125,406 c -7,0 -7,-4 -11,-8 l -20,-15 -7,-5 -10,-9 c -3,-3 -6,-8 -11,-8 -5,1 -9,4 -13,6 l -17,7 -4.999997,3 c -2,1 -7,3 -9,6 l -3,4 c -1,-5 1,-7 5,-10 l 10,-7 4.999997,-2 25,-11 q 4,-1 7,2 l 18,14 17,15 12,9 8,7 v 1 z"
     id="path85" />
  <path
     fill="#828e96"
     d="m 190.125,406 -3,2 -7,1 -14,6 -2,2 -10,4 -6,3 -10,-2 -7,-2 q -29,-7 -47.999997,-14 c -5,-2 -3,-17 -3,-22 1,-4 3,-5 8,-8 l 11,-6 -10,7 c -4,3 -6,5 -6,9 l 4,-3 c 2,-3 7,-5 9,-6 l 4.999997,-3 17,-7 c 4,-2 8,-5 13,-6 5,0 8,5 11,8 l 10,9 7,5 20,15 c 4,4 4,8 11,8"
     id="path86" />
  <path
     fill="#ccd5ce"
     d="m 333.125,423 v -2 l 2,-7 1,-3 v 4 q 3,1 4,-2 l 5,-14 6,-16 4,-12 q 1,-2 3,-2 l 14,4 q 2,4 1,6 l -3,10 -2,6 -4,10 -5,12 q -1,5 -4,8 h -5 q -7,-2 -13,-6 z"
     id="path87" />
  <path
     fill="#091c30"
     d="m 216.125,435 -4,2 -3,2 -29,12 -18,6 c -10,4 -19,1 -30,0 l -21,-4 -9,-2 -29.999997,-7 c -16,-3 -29,-9 -30,-28 v -16 c 4,6 3,14 3,21 3,9 6,14 14,17 l 8,3 27,5 10.999997,3 8,2 8,1 q 16,4 35,2 l 13,-2 5,-2 22,-8 c 7,-3 10,-3 15,-7 l 8,-4 z"
     id="path97" />
  <path
     fill="#627382"
     d="m 512.125,408 -13,4 -7,1 -6,1 -18,5 -39,7 -24,4 -29,5 h -8 l -2,-1 10,-3 17,-3 7,-1 31,-7 44,-7 q 14,-2 33,-9 v 3 z"
     id="path98" />
  <path
     fill="#ccd5ce"
     d="m 304.125,23 -5,5 2,3 1,2 q -1,-2 -3,-1 l -8,6 -7,10 -6,9 q -8,10 -11,18 l -7,15 c -2,3 -4,9 -3,12 l 5,3 22,10 4,2 12,6 13,9 15,16 2,4 6,13 5,18 3,10 2,7 1,8 q 1,8 4,15 c 0,2 1,4 3,4 h 19 c 5,-4 6,-6 8,-9 l 9,-13 3,-5 3,-5 11,-17 3,-7 -2,-11 -3,-14 -2,-11 -2,-8 -2,-7 -3,-10 q 2,-2 5,-2 v 1 l 3,14 10,45 c 1,6 -5,13 -7,18 l -12,19 -17,23 q 0,2 -3,3 c -10,0 -17,-1 -26,1 l -2,-6 -15,-58 -9,-19 q -4,-7 -12,-13 -13,-10 -25,-15 l -25,-12 c -4,-2 -10,-2 -9,-9 q 0,-4 3,-9 c 5,-13 11,-25 19,-37 l 14,-17 q 7,-9 16,-14"
     id="path153" />
  <path
     fill="#a8aeb1"
     d="m 453.125,77 q -9,9 -20,8 l -14,-5 -32,-20 -14,-10 -21,-15 c -2,-1 -3,-2 -2,-4 q 5,-5 10,-7 c 5,-2 12,0 17,3 l 17,10 12,5 18,11 17,12 6,7 z"
     id="path154" />
  <path
     fill="#627382"
     d="m 301.125,38 7,19 c 6,14 19,24 31,32 l 13,8 22,11 c 7,3 14,4 22,0 l 4,-3 v 1 l 1,2 q -3,0 -5,2 l -5,1 -4,2 q -4,1 -8,-1 -32,-12 -56,-32 c -10,-9 -17,-22 -22,-35 l -2,-7 1,-2 z"
     id="path155" />
  <path
     fill="#828e96"
     d="m 485.125,152 h -3 l -2,-3 -10,-21 -8,-27 -3,-15 16,-7 q 4,-1 4,-3 l 2,-2 q 0,-4 -2,-6 l 3,4 13,49 c 2,7 4,13 3,19 q 0,3 -3,5 z"
     id="path156" />
  <path
     fill="#163149"
     d="m 479.125,76 q 0,2 -4,3 l -16,7 -4,2 q -16,7 -33,11 l -6,3 -12,4 1,5 3,18 1,4 2,11 5,21 c 1,5 1,8 -1,11 l -14,23 -4,7 -4,4 -13,19 -2,-1 17,-23 12,-19 c 2,-5 8,-12 7,-18 l -10,-45 -3,-14 v -1 l -1,-1 v -2 l 7,-2 8,-4 9,-3 27,-10 z"
     id="path157" />
  <path
     fill="#465a6e"
     d="m 459.125,86 3,15 8,27 10,21 v 1 q -9,-9 -12,-20 l -7,-23 -2,-9 q -1,-6 -4,-10 z"
     id="path158" />
  <path
     fill="#627382"
     d="m 455.125,88 q 3,4 4,10 l 2,9 7,23 q 3,11 11,21 l 1,-2 1,3 h 4 l -3,4 q -9,6 -18,15 c -2,3 -6,5 -10,8 l -9,8 -21,20 -6,5 -7,7 c -5,6 -10,12 -16,15 v 1 h -3 q -9,-1 -17,-4 3,-1 3,-3 l 1,1 14,-19 4,-4 4,-7 14,-23 c 2,-3 2,-6 1,-11 l -5,-21 -2,-11 -1,-4 -3,-18 -1,-3 12,-6 6,-3 q 17,-4 33,-11"
     id="path159" />
  <path
     fill="#fefefe"
     d="m 175.125,272 h -1 q -7,0 -13,-4 l -11,-10 -8,-6 c -7,-7 -20,-17 -31,-25 l -11,-8 -7.999997,-7 -18,-15 -1,-3 -5,-4 1,-5 31.999997,-24 41,-30 q 12,-8 25,-14 l 13,-5 c 5,-1 12,1 16,2 l 19,7 29,12 18,8 c 14,6 23,11 32,18 3,3 7,6 6,10 l -3,3 -20,17 -24,19 -18,16 -7,6 -24,17 -8,7 -8,6 z"
     id="path163" />
  <path
     fill="#fefefe"
     d="m 612.125,213 -2,1 -13,8 -8,3 -28,18 c -3,2 -7,3 -10,6 -5,3 -9,5 -15,5 l -5,-2 q -15,-10 -32,-18 -6,-2 -22,-12 -2,-2 -2,-5 l 2,-11 3,-5 q 0,-5 3,-8 l 8,-9 17,-16 c 3,-2 8,-6 12,-5 l 15,4 q 23,9 46,22 l 10,6 c 7,4 12,8 18,14 z"
     id="path167" />
  <path
     fill="#fffef0"
     d="m 491.125,184 -8,8 v 2 q -3,2 -2,6 l -4,6 1,-3 -7,3 -23,23 -4,6 1,2 v 8 l 3,4 14,7 c 6,5 17,9 25,13 l 10,6 17,10 18,11 7,6 c 11,4 17,-5 15,-15 q -2,-11 -6,-21 l -4,-8 q -3,-3 -8,-4 c 6,0 10,-2 15,-5 l -1,1 7,28 2,11 c 0,4 0,14 -4,15 l -9,3 h -9 l -13,-11 -7,-4 -47,-26 -25,-14 q -4,-3 -4,-7 v -5 l 1,-2 -5,4 q -3,2 -6,0 0,-4 4,-7 l 13,-12 7,-7 30,-27 z"
     id="path168" />
  <path
     fill="#828e96"
     d="m 69.125003,185 -1,2 5,7 h -1 l 5,8 -4,16 -2,5 -2,6 -4,16 -4,17 -9,41 q -1,8 2,19 l 7,17 2,4 2,4 q 1,4 3,5 7,-1 12,-4 l 18,-8 C 106.125,336 114.125,332 124.125,330 l 13,-3 q 6,-1 8,3 c -9,0 -16,3 -25,5 l -12,4 -23.999997,12 -5,2 -9,5 q -3,2 -6,0 -10,-6 -19,-15 3,2 5,1 c -2,-4 -4,-6 -8,-9 l -11,-11 c -7,-8 -6,-17 -4,-27 l 7,-20 3,-12 4,-12 6,-18 q 1,-6 5,-13 l 4,-10 5,-9 5,-9 c 0,-3 0,-5 -2,-5 z"
     id="path169" />
  <path
     fill="#a8aeb1"
     d="m 64.125003,189 c 2,0 2,2 2,4 l -5,10 -5,9 -4,10 q -4,7 -5,13 l -6,18 -4,12 -3,12 -7,20 c -2,10 -3,19 4,27 l 11,11 9,8 q -3,2 -6,0 l -4,-3 q -8,-6 -14,-14 c -6,-7 -7,-15 -5,-24 l 3,-11 11,-36 q 7,-24 18,-49 z"
     id="path170" />
  <path
     fill="#163149"
     d="m 73.125003,194 1,3 18,15 7.999997,7 11,8 c 11,8 24,18 31,25 l 8,6 11,10 -5,-2 -7,-7 -6,-4 -12,-9 -6,-5 -18,-14 -15.999997,-12 -7,-7 -7,-6 -5,-7 z"
     id="path171" />
  <path
     fill="#627382"
     d="m 156.125,266 -3,8 c -3,21 -5,35 -5,55 q 0,2 2,3 l -5,-2 q -2,-4 -8,-3 l -13,3 c -10,2 -18,6 -25.999997,10 l -18,8 -11,5 q -3,-2 -3,-5 l -3,-5 -2,-4 -7,-17 q 2,-5 1,-8 -1,-9 1,-16 l 3,-8 7,-32 2,-10 7,-26 1,-10 -3,6 4,-16 7,6 7,7 15.999997,12 18,14 6,5 12,9 6,4 z"
     id="path173" />
  <path
     fill="#a8aeb1"
     d="m 477.125,206 -2,11 q 0,3 2,5 h -1 v 2 l 14,7 18,10 8,5 7,4 8,4 v -2 l 5,2 q 5,1 8,4 l 4,8 q 4,10 6,21 c 2,10 -4,19 -15,15 l -6,-5 q -9,-7 -19,-12 l -17,-10 -10,-6 c -8,-4 -19,-8 -25,-13 l -14,-7 -3,-4 v -7 l -1,-2 q 1,-4 4,-7 l 23,-23 7,-4 z"
     id="path174" />
  <path
     fill="#465a6e"
     d="m 54.125003,322 q -3,-11 -2,-19 l 9,-41 4,-17 4,-16 2,-6 2,-5 2,-6 v 10 l -7,26 -2,10 -7,32 -3,8 q -2,7 -1,16 1,3 -1,8"
     id="path175" />
  <path
     fill="#828e96"
     d="m 612.125,213 7,10 q -2,1 -2,3 l 5,11 12,26 4,9 4,13 q 8,14 13,31 l 1,8 q -3,4 -7,6 l -3,3 3,1 -2,2 -5,-8 -1,-2 v -2 l -13,-23 -23,-49 -9,-22 -2,-5 16,-10 v -1 z"
     id="path176" />
  <path
     fill="#828e96"
     d="m 477.125,222 q 16,10 22,12 17,8 32,18 l 1,1 -9,-3 -7,-4 -8,-5 -18,-10 -13,-7 -2,-1 z"
     id="path178" />
  <path
     fill="#a8aeb1"
     d="m 619.125,223 7,13 6,14 21,47 c 3,8 6,16 7,25 h 1 v 4 l -12,8 h -2 c 0,-2 0,-3 2,-4 l 7,-4 -1,-10 q -5,-17 -13,-31 l -4,-13 -4,-9 -12,-26 -5,-10 q 0,-3 2,-4"
     id="path179" />
  <path
     fill="#627382"
     d="m 594.125,225 2,5 -1,-2 -1,1 2,7 11,25 5,12 13,25 6,13 7,15 3,4 1,-2 5,8 -7,5 -21,13 -22,11 -4,1 v 1 l -6,2 -13,6 -10,2 c -5,-1 -8,-7 -10,-12 l -6,-17 -9,-25 -2,-12 7,-1 8,-1 c 5,-2 8,-4 8,-8 l 2,-16 -9,-33 c 2,-4 5,-4 8,-6 l 5,-4 19,-11 5,-3 z"
     id="path180" />
  <path
     fill="#465a6e"
     d="m 596.125,230 9,22 23,49 13,23 v 2 l 1,2 v 2 l -4,-4 -7,-15 -6,-13 -13,-25 -5,-12 -11,-25 -2,-7 1,-1 z"
     id="path181" />
  <path
     fill="#627382"
     d="m 441.125,240 v 5 z"
     id="path182" />
  <path
     fill="#828e96"
     d="m 437.125,242 q -1,4 2,7 l -1,1 q -5,-3 -7,-8 3,2 6,0"
     id="path183" />
  <path
     fill="#fefefe"
     d="m 501.125,323 c 0,2 -2,2 -4,3 l -4,1 q -5,4 -12,5 l -6,2 -4,-2 -2,-2 c -6,-1 -10,-4 -16,-6 l -9,-6 -16,-9 -14,-7 -14,-7 -4,-3 -20,-11 -14,-8 -1,-1 q -1,6 1,13 l 5,21 8,29 2,11 3,10 1,6 q 3,2 5,1 l 8,-3 5,-1 8,-3 5,-2 10,-4 22,-9 7,-2 c 4,-1 9,-3 13,-1 -14,6 -30,13 -43,17 l -34,12 c -5,1 -7,4 -8,9 l -8,23 -5,12 -8,20 h -4 l -10,-4 -11,-3 v -1 l 1,-2 16,4 4,1 q 4,-4 5,-8 l 4,-12 4,-10 3,-7 3,-10 v -5 l -14,-5 q -3,0 -4,2 l -4,12 -6,16 -5,14 q -1,3 -3,3 l -1,-5 17,-45 -3,-6 -17,-14 -6,-5 -14,-12 -14,-11 -16,-13 -9,-7 -1,-2 18,-11 36,-19 10,-5 15,-6 7,-2 h 13 l 15,5 22,9 43,21 36,22 c 5,3 11,7 13,13"
     id="path184" />
  <path
     fill="#a8aeb1"
     d="m 156.125,266 5,2 q 6,4 13,4 v 8 l -4,48 -1,8 5,4 q 2,2 1,4 l -12,-7 -13,-5 q -2,-1 -2,-4 c 0,-19 2,-33 5,-54 z m 319,68 -11,4 c -4,-2 -9,0 -13,1 l -7,2 -22,9 -10,4 -5,2 -8,3 -5,1 -8,3 q -2,1 -5,-1 l -1,-6 -3,-10 -2,-11 -8,-29 -5,-21 -3,-11 q 2,-2 3,-1 l 14,8 20,11 4,3 14,7 14,7 16,9 9,6 15,6 2,2 z"
     id="path185" />
  <path
     fill="#627382"
     d="m 335.125,414 -2,7 v 3 l -4,-2 1,-1 q -3,-5 -7,-6 l -16,-4 -31,-10 -27,-8 -13,-7 1,-5 10,-19 1,-4 8,-17 c 1,-2 3,-4 3,-7 l 6,-12 7,-17 3,-4 4,4 7,5 13,10 15,13 9,7 18,15 10,9 -3,8 -4,11 -4,10 q -5,11 -8,24 l -1,3 1,1 z"
     id="path186" />
  <path
     fill="#828e96"
     d="m 501.125,323 3,4 12,33 6,15 8,20 2,6 -20,7 h -3 l -1,-4 -1,-3 -23,-67 14,-7 -1,-1 c 2,-1 4,-1 4,-3"
     id="path187" />
  <path
     fill="#465a6e"
     d="m 507.125,401 1,3 q -19,7 -33,9 l -44,7 -31,7 -7,1 -17,3 q -4,2 -9,2 l 1,2 h -6 l -2,-1 7,-17 15,-41 c 2,-5 7,-7 13,-9 l 23,-8 24,-9 24,-9 15,-6 4,9 4,14 4,11 6,15 6,17 1,2 z"
     id="path188" />
  <path
     fill="#627382"
     d="m 512.125,408 -13,4 -7,1 -6,1 -18,5 -39,7 -24,4 -29,5 h -8 l -2,-1 10,-3 17,-3 7,-1 31,-7 44,-7 q 14,-2 33,-9 v 3 z"
     id="path191" />
</svg>
