<?xml version="1.0" encoding="UTF-8" standalone="no"?>
<svg
   width="644.56299"
   height="505.59808"
   viewBox="-20 -20 644.56299 505.59808"
   version="1.1"
   id="svg193"
   xmlns="http://www.w3.org/2000/svg"
   xmlns:svg="http://www.w3.org/2000/svg">
  <defs
     id="defs193" />
  <path
     fill="#163149"
     d="m 350.0769,-20.000001 h 9 c 9,2 17,2 25,6 q 13,5.0000001 23,13.0000001 l 5,0.99999998725055 Q 437.0769,-8.0000009 462.0769,-6.0000009 l 13,3 6,1 22,10 14,10.9999999 c 6,6 9,11 14,18 q 3,5 5,14 l 3,12 1,5 q 2,3 5,3 l 4,1 3,4 12,5 12,8 10,6 8,7.000001 c 10,7 17,14 24,24 10,16 8,36 -3,51 l -8,10 -5,4 -16,9 c -4,2 -8,3 -13,3 l -6,2 1,24 1,7 -1,17 c -2,17 -10,34 -21,47 -6,6 -13,10 -18,12 -4,3 -7,5 -8,10 l -5,19 -6,13 -11,17 c -6,9 -18,15 -23,19 -5,4 -4,8 -4,14 l 1,22 c 1,11 0,23 -10,29 -10,5 -17,6 -29,8 -14,2 -23,2 -41,2 l -10,-1 c -14,-3 -13,8 -23,14 q -9,6 -20,7 c -14,1 -30,1 -45,-2 -8,-2 -16,-5 -22,-11 -9,-11 -10,-22 -11,-35 q 0,-4 -4,-3 l -3,-3 3,-2 q -19,1 -33,-1 c -14,-1 -29,-7 -41,-14 q -3,2 -1,2 h -7 l -1,-1 c -3,7 -2,19 -3,24 0,4 -4,9 -7,13 q -7,7 -17,9 l -10,1 -44.999992,1 c -17,0 -29,-8 -32,-25 l -2,-12 -1,-45 c 0,-6 0,-11 -4,-15 q 2,8 2,17 v 34 q -3,-4 -2,-9 v -30 q 0,-9 -3,-16 c -1,-4 -4,-7 -7,-10 l 5,2 v -1 l -28,-14 c -9,-5 -17.9999999,-13 -23.9999999,-22 l -6,-8 Q -20.923092,288 -19.923092,264 c 1,-11 3,-23 8,-33 l 7.0000001,-11 c 2,-2 3,-5 2,-7 q -3,-10 -3,-16 l -3,-15 -1,-5 4,-20 4.99999995,-12 5.00000005,-9 10.9999999,-12 10,-8 22,-11 q 1,-4 4,-3 4,-2.000001 6,-6.000001 l 11,-12 q 3,-2 3,-4 l 6,-4 c 10,-8 23.999992,-15 36.999992,-17 l 12,-2 17,-1 20,2 9,-12 q 12,-15 29,-25 l 14,-6 c 10,-2 20,-5.9999999 27,-5.9999999 l 15,-1 12,1 10,1.9999999 9,-5.9999999 12,-9 20,-12.0000001 12,-2 17,-2"
     id="path1" />
  <path
     fill="#010102"
     d="m 141.0769,435 q -12,5 -21,5 H 96.076908 c -8,-1 -12,-5 -11,-13 l 2,-24 c 0,-6 0,-9 2,-14 l 10,3 c 16.999992,6 25.999992,10 39.999992,12 4,5 5,8 5,11 q 1,11 -3,20"
     id="path5" />
  <path
     fill="#a8aeb1"
     d="m 88.076908,393 q 4,-1 6,1 l 20.999992,8 c 9,3 16,6 24,6 l 2,23 -16,4 H 92.076908 q -3,0 -3,-3 l -1,-37 z"
     id="path6" />
  <path
     fill="#74828e"
     d="m 137.0769,413 1,16 c -8,3 -13,4 -18,3 H 95.076908 q -3,-2 -3,-5 v -29 l 16.999992,6 c 9,4 18,6 27,7 z"
     id="path8" />
  <path
     fill="#010102"
     d="m 562.0769,182 c -5,1 -7,-3 -8,-6 l -2,-3 -14,-29 -16,-24 c -6,-7 0,-10 4,-15 l 4,-8.000001 4,-5 c 3,-2 8,0 11,2 l 12,7.000001 12,7 15,13 q 7,7 13,17 3,4 3,7 c 1,4 1,10 -1,13 q -5,8 -14,14 -11,6 -23,10"
     id="path18" />
  <path
     fill="#e9d99f"
     d="m 559.0769,178 -2,-2 -17,-36 -15,-22 -2,-3 1,-3 q 7,-6 10,-15.000001 c 1,-4 5,-2 8,0 l 7,4.000001 6,3 12,7 c 9,6 17,14 23,22 l 4,7 q 4,6 2,14 -3,8 -8,12 c -4,2 -7,5 -12,6 -5,2 -10,5 -16,6 z"
     id="path21" />
  <path
     fill="#828e96"
     d="m 460.0769,110 q -9,4 -19,1 l -5,-2 -2,-2 7,1 10,2 z"
     id="path22" />
  <path
     fill="#a8aeb1"
     d="m 356.0769,112 h 8 l 21,1 9,-2 h 6 q -9,5 -19,4 l -14,-1 z"
     id="path25" />
  <path
     fill="#bbb48d"
     d="m 581.0769,163 c -4,4 -8,5 -14,7 l -5,2 c -3,-2 -3,-6 -5,-8 l -5,-10 -2,-5 -4,-9 -5,-7 -2,-3 -3,-6 -1,-2 -3,-3 q -3,-3 -1,-7 5,0 7,4 l 10,14 4,3 11,13 8,7 3,4 q 3,5 7,6"
     id="path27" />
  <path
     fill="#e9d99f"
     d="m 317.0769,131 2,7 -3,9 -2,8 c -2,6 -3,13 -6,19 -3,7 -7,13 -13,19 q -11,10 -24,14 -4,2 -15,3 -10,2 -15,-5 c -4,-4 -6,-12 -5,-18 q 3,-10 10,-18 l 10,-12 c 8,-6 19,-12 28,-15 l 22,-8 z"
     id="path28" />
  <path
     fill="#a8aeb1"
     d="m 496.0769,136 v 3 l 6,-1 3,5 13,22 8,17 c 1,7 4,13 5,17 l 4,18 v 9 l -2,22 q -2,10 -8,18 -2,4 -6,7 -3,4 -7,6 l -3,2 -8,4 -4,1 c -11,3 -22,4 -31,5 l -16,-1 -21,-3 -7,-2 -7,-2 -5,-1 -4,-2 q -17,-6 -33,-16 l -5,-3 q -4,-2 -3,1 -13,-10 -20,-20 l -12,-18 -7,-17 v -8 l 1,-4 8,-22 c 2,-9 4,-15 2,-23 9,0 4,19 2,23 l -6,18 -2,9 c 0,6 2,11 5,19 q 1,4 5,9 c 4,6 6,12 12,16 l -8,-25 -4,-16 q 0,-21 6,-40 l 2,-9 c -3,-6 -8,-8 -13,-9 q -2,-2 -1,-5 l 3,-1 14,5 q 10,3 25,4 l 5,2 -3,4 2,6 -2,1 q -1,-3 -3,-2 l -3,4 -5,14 -2,10 q 0,8 2,13 c 2,5 6,12 11,16 1,2 3,5 6,6 l 2,2 c 11,1 19,1 25,-9 9,-13 9,-30 2,-44 l -6,-10 -4,-5 q -3,1 -3,3 l -3,-10 3,-3 18,-5 c 8,-3 16,1 23,3 l 6,1 9,-1 h 15 z"
     id="path30" />
  <path
     fill="#465a6e"
     d="m 457.0769,144 h -9 z"
     id="path31" />
  <path
     fill="#74828e"
     d="m 337.0769,150 -1,-5 c 5,1 10,3 13,8 l -2,10 q -6,19 -6,39 l 4,17 9,24 c -7,-3 -9,-9 -13,-15 q -4,-5 -5,-9 c -3,-8 -5,-13 -5,-19 l 2,-9 6,-18 c 2,-4 7,-23 -2,-23"
     id="path32" />
  <path
     fill="#bbb48d"
     d="m 269.0769,201 c 5,-1 7,-4 10,-10 l 7,-15 c 6,-6 11,-13 14,-20 2,-4 4,-7 7,-9 q 4,4 2,8 l -2,9 c 0,3 -1,5 -3,8 l -6,10 -13,14 -11,4 z"
     id="path33" />
  <path
     fill="#ccd5ce"
     d="m 379.0769,161 c -4,6 -5,12 -7,18 q -2,6 0,15 c 1,9 5,17 13,23 q 6,5 14,3 c 10,-3 14,-15 15,-23 q 1,-10 -2,-19 l -10,-18 -1,-1 v -2 l 7,3 6,11 c 7,14 7,31 -2,44 -6,10 -14,10 -25,9 l -2,-2 c -3,-1 -5,-4 -6,-6 -5,-4 -9,-11 -11,-16 q -2,-5 -2,-13 l 2,-10 5,-14 3,-4 q 2,-1 3,2"
     id="path35" />
  <path
     fill="#010102"
     d="m 391.0769,441 q -3,-1 -4,-5 l -1,-18 v -10 c 3,-5 7,-4 12,-7 l 17,-2 12,-1 10,-1 q 6,-1 10,2 l 1,14 -1,22 -2,2 q -9,3 -16,3 h -13 l -24,2 z"
     id="path88" />
  <path
     fill="#828e96"
     d="m 428.0769,435 v 1 l -9,1 -27,1 -3,-24 1,-5 c 6,-3 11,-4 16,-4 l 8,-2 9,-1 19,-2 2,33 z"
     id="path90" />
  <path
     fill="#091c30"
     d="m 346.0769,460 -11,2 h -30 l -6,-1 c -9,-1 -12,-8 -13,-16 -2,-8 -3,-18 -2,-26 1,-6 6,-8 12,-8 l 15,1 h 32 c 6,-1 9,5 9,10 v 28 q -1,6 -6,10"
     id="path92" />
  <path
     fill="#091c30"
     d="m 255.0769,431 q -30,4 -58,-8 l -14,-7 q -2,0 -1,-1 c 14,6 29,12 43,13 q 14,2 32,0 0,2 -2,3"
     id="path94" />
  <path
     fill="#a8aeb1"
     d="m 318.0769,416 h 10 l 19,-1 v 38 c -3,3 -6,4 -9,4 q -18,2 -36,0 l -8,-1 -3,-4 q -4,-17 -4,-34 0,-3 2,-3 z"
     id="path95" />
  <path
     fill="#828e96"
     d="m 292.0769,421 q 26,0 51,-2 l 1,31 q -5,3 -11,3 h -26 c -8,1 -13,-2 -14,-10 l -2,-17 z"
     id="path96" />
  <path
     fill="#fffef0"
     d="m 76.076908,320 c -6,-2 -11,0 -16,0 -17,-1 -32,-12 -40,-26 q -10.9999999,-19 -8,-42 l 2,-8 c 3,-8 6,-15 11,-20 q 4,-5 9,-8 l 2,-2 c -10,-7 -13,-16 -16,-28 -1,-4 -1,-13 1,-18 l 3,-9 q 8,-17 25,-25 l 17,-6 13,-3 1,-5 c 3,-11 8,-20.000001 17,-26.000001 q 10.999992,-8 23.999992,-10 l 12,-2 27,2 16,4 4,2 4,-8 5,-12 c 3,-6 6,-10 11,-15 q 13,-12 30,-17 l 13,-4 c 6,-1 13,-2 18,-1 l 6,1 c 5,2 11,2 16,3 3,2 7,2 11,2 5,-12 17,-21 26,-26 q 19,-8.9999999 39,-6.9999999 l 7,1 6,2 q 10,1.9999999 19,8.9999999 6,5 10,12 2,3 4,2 l 12,-7 16,-6 13,-2 c 8,0 15,0 22,2 7,2 11,3 16,6 q 5,2 11,9 10,10 14,23 l 1,17 c -1,9 -4,15 -9,22 -7,10.000001 -18,16.000001 -30,20.000001 l -7,2 h -19 q -6,-1 -13,-5 c -3,-2 -5,-4 -5,-8 -3,0 -4,2 -6,3 -12,6 -22,13 -36,13 l -17,-1 -9,-1 -11,-3 q -13,-6 -24,-16.000001 L 296.0769,110 q -21,7 -40,17 c -10,5 -21,13 -29,22 l -11,18 c -3,4 -4,9 -5,14 q -2,17 -1,20 1,10 8,20 7,12 22,16 c 9,2 15,3 23,1 l 14,-2 18,-7 5,-5 5,5 q 6,14 13,24 c 2,4 4,8 7,10 l 16,18 q 23,20 55,30 l 8,2 11,3 4,1 21,4 c 18,2 31,3 46,0 h 3 q 0,6 -2,11 c -2,9 -9,17 -17,25 -6,7 -17,12 -26,15 q -14,4 -29,2 l -12,-3 -6,-2 c -3,-1 -7,-5 -10,-2 a 71,71 0 0 1 -39,23 l -18,1 -18,-3 -21,-8 -29,15 -14,4 h -14 q -20,-3 -35,-15 -7,-5 -11,-12 l -2,-6 q -12,5 -25,8 c -9,2 -18,2 -27,2 l -16,-4 -6,-2 q -14.999992,-6 -23.999992,-18 -11,-14 -12,-32"
     id="path126" />
  <path
     fill="#a8aeb1"
     d="m 396.0769,328 c 2,2 1,5 -1,8 -8,9 -17,17 -29,19 -10,1 -19,3 -28,0 q -17,-5 -30,-16 c -9,7 -16,13 -25,18 -10,5 -22,9 -33,6 l -19,-8 q -8,-4 -16,-12 c -6,-5 -10,-12 -12,-20 l -22,10 -10,1 q -14,0 -29,-6 l -10,-6 a 68,68 0 0 1 -25,-43 l -19.999992,-3 -8,-3 c -9,-5 -17,-12 -21,-21 -4,-8 -5,-17 -5,-26 l -2,-16 3,-1 2,12 c -1,9 0,21 4,30 6,11 16,21 30,23 7,2 10.999992,2 17.999992,2 2,8 3,15 7,20 l 6,11 7,10 8,6 9,4 10,3 c 7,2 17,3 24,0 l 16,-5 7,-5 7,13 q 3,5 9,10 10,9 24,14 10,4 17,3 c 10,0 20,-3 29,-8 l 14,-11 4,-4 c 15,12 35,20 53,16 l 12,-2 q 11,-4 18,-13 z"
     id="path140" />
  <path
     fill="#ccd5ce"
     d="m 51.076908,210 2,16 c 0,9 1,18 5,26 4,9 12,16 21,21 l 8,3 18.999992,2 c 5,18 11,33 26,44 l 10,6 q 15,6 29,6 l 10,-1 20,-10 c 4,8 8,15 14,20 q 8,8 16,12 l 19,8 c 11,3 23,-1 33,-6 9,-5 16,-11 23,-18 q 15,11 32,16 c 9,3 18,1 28,0 12,-2 21,-10 29,-19 2,-3 3,-6 1,-8 l 1,-3 q -4,-4 -6,-4 l -17,-6 c -17,-6 -30,-12 -43,-23 l -11,-10 -6,-5 -7,-9 -11,-22 c -1,-4 -3,-5 -7,-5 v -4 l 9,-6 4,2 5,12 9,14 5,7 q 11,13 26,26 l 8,5 9,6 9,5 4,2 15,5 12,4 15,4 c 8,2 18,2 26,3 l 17,1 h 19 l 2,3 q -3,9 -7,14 l -8,8 q -3,4 -10,8 l -10,5 -12,3 -12,1 -10,-1 -15,-4 -12,-1 -3,1 q -11,11 -19,15 -10,5 -19,6 l -16,1 -14,-2 -5,-2 -18,-6 -5,-1 -4,2 -24,13 c -5,2 -13,3 -20,3 h -11 l -12,-3 -12,-7 q -6,-4 -11,-12 l -4,-7 c -2,-4 -9,-3 -11,-2 l -11,5 -11,3 q -16,1 -32,-1 -17,-3 -26.999992,-14 -8,-9 -13,-20 c -3,-5 -4,-12 -5,-17 l -2,-3 -8,-1 c -6,1 -13,2 -19,0 q -16,-6 -25,-20 l -6,-14 c -2,-3 -2,-5 -2,-8 l -1,-4 q -1,-9 1,-18 l 6,-15 8,-11 c 3,-3 6,-6 7,-9 z"
     id="path141" />
  <path
     fill="#a8aeb1"
     d="m 88.076908,393 q 4,-1 6,1 l 20.999992,8 c 9,3 16,6 24,6 l 2,23 -16,4 H 92.076908 q -3,0 -3,-3 l -1,-37 z"
     id="path149" />
  <path
     fill="#627382"
     d="m 137.0769,413 1,15 c -8,4 -13,5 -18,4 H 95.076908 q -3,-2 -3,-5 v -29 l 16.999992,6 c 9,4 18,6 27,7 z"
     id="path150" />
  <path
     fill="#ccd5ce"
     d="m 365.0769,262 q -1,-3 3,-1 l 5,3 q 16,10 33,16 l 4,2 5,1 7,2 7,2 21,3 16,1 c 9,-1 20,-2 30,-5 l 5,-1 7,-3 4,-3 q 4,-2 7,-6 4,-3 6,-7 6,-8 8,-18 l 2,-22 v -9 l -4,-18 -5,-16 -8,-18 -13,-22 v -2 q -5,-3 -8,-2 -2,-1 -1,-3 3,-1 5,-4 l 4,3 c 6,10 16,26 22,40 q 7,16 11,33 l 2,13 c 0,9 -1,17 -3,26 l -3,13 c -7,17 -26,29 -44,33 -14,2 -26,2 -44,1 l -16,-2 -10,-3 -16,-4 q -21,-8 -39,-23"
     id="path161" />
  <path
     fill="#465a6e"
     d="m 457.0769,144 h -9 z"
     id="path164" />
  <path
     fill="#627382"
     d="m 337.0769,150 -1,-5 c 5,1 10,3 13,8 l -2,10 q -6,19 -6,39 l 4,17 9,24 c -7,-3 -9,-9 -13,-15 q -4,-5 -5,-9 c -3,-8 -5,-13 -5,-19 l 2,-9 6,-18 c 2,-4 7,-23 -2,-23 m 64,-4 -2,2 q 0,6 2,11 l 1,1 -17,-2 -4,2 -3,-5 4,-3 -5,-4 z"
     id="path165" />
  <path
     fill="#163149"
     d="m 402.0769,160 10,18 q 3,9 2,19 c -1,8 -5,20 -15,23 q -8,2 -14,-3 c -8,-6 -12,-14 -13,-23 q -2,-9 0,-15 c 2,-6 3,-13 7,-18 l 2,-1 4,-2 z"
     id="path166" />
  <path
     fill="#828e96"
     d="m 423.0769,403 v -1 l 19,-2 2,33 -11,2 -9,1 -12,1 -20,1 -3,-25 1,-4 q 7,-4 11,-4 l 8,-1 z"
     id="path189" />
  <path
     fill="#a8aeb1"
     d="m 318.0769,416 h 10 l 19,-1 v 38 c -3,3 -6,4 -9,4 q -18,2 -36,0 l -8,-1 -3,-4 q -4,-17 -4,-34 0,-3 2,-3 z"
     id="path190" />
</svg>
