<svg width="291.969" height="406.205" viewBox="0 0 1256 1750" fill="none" xmlns="http://www.w3.org/2000/svg"><defs><linearGradient id="a" x1="120" y1="100" x2="1120" y2="1650" gradientUnits="userSpaceOnUse"><stop offset="0" stop-color="#f3ebcf"/><stop offset="1" stop-color="#e3d3a3"/></linearGradient><linearGradient id="c" x1="288" y1="431" x2="982" y2="1169" gradientUnits="userSpaceOnUse"><stop offset="0" stop-color="#f5edd2"/><stop offset="1" stop-color="#e6dbb2"/></linearGradient><radialGradient id="b" cx=".104" cy=".184" r="1" gradientUnits="userSpaceOnUse" gradientTransform="rotate(135.622 223.67 630.652)scale(980 899.08107)" fx=".104" fy=".184"><stop offset="0" stop-color="#79c0ec"/><stop offset="1" stop-color="#336bd0"/></radialGradient></defs><rect x="24" y="60" width="1208" height="1630" rx="60" fill="url(#a)"/><rect x="88" y="124" width="1080" height="1502" rx="54" fill="#5ca1dc" style="display:inline;fill:url(#b)"/><rect x="140.672" y="187.239" width="974.656" height="1375.523" rx="27.51" fill="none" style="display:inline;fill:none;stroke:#f2d676;stroke-width:15;stroke-linecap:round;stroke-linejoin:bevel;stroke-dasharray:none;stroke-opacity:1"/><rect x="138" y="867.5" width="110" height="15" rx="7.5" fill="#f0d16a" style="stroke-width:.993933"/><rect x="1008" y="867.5" width="110" height="15" rx="7.5" fill="#f0d16a" style="stroke-width:.993933"/><g style="display:inline"><path d="m628 412 344 198c16 9 26 26 26 44v384c0 18-10 35-26 44l-316 182c-17 10-39 10-56 0l-316-182c-16-9-26-26-26-44V654c0-18 10-35 26-44l316-182c17-10 39-10 56 0z" fill="#f2d676" style="display:inline" transform="translate(0 33.25)"/><path d="m628 454 321 185c12 7 19 20 19 34v346c0 14-7 27-19 34l-298 172c-14 8-32 8-46 0l-298-172c-12-7-19-20-19-34V673c0-14 7-27 19-34l298-172c14-8 32-8 46 0z" fill="#5ca1dc" style="display:inline" transform="translate(0 33.25)"/><path d="m628 484 298 172c12 7 20 20 20 34v312c0 14-8 27-20 34l-275 159c-14 8-32 8-46 0l-275-159c-12-7-20-20-20-34V690c0-14 8-27 20-34l275-159c14-8 32-8 46 0z" fill="url(#c)" style="display:inline;fill:url(#c)" transform="translate(0 33.25)"/></g></svg>