<svg width="291.969" height="406.205" viewBox="0 0 1256 1750" fill="none" xmlns="http://www.w3.org/2000/svg"><defs><radialGradient id="b" cx=".104" cy=".184" r="1" gradientUnits="userSpaceOnUse" gradientTransform="rotate(135.622 223.67 630.652)scale(980 899.08107)" fx=".104" fy=".184"><stop offset="0" stop-color="#7ed957"/><stop offset="1" stop-color="#168f4a"/></radialGradient><linearGradient id="a" x1="120" y1="100" x2="1120" y2="1650" gradientUnits="userSpaceOnUse"><stop offset="0" stop-color="#f3ebcf"/><stop offset="1" stop-color="#e3d3a3"/></linearGradient></defs><g filter="url(#softShadow)"><rect x="24" y="60" width="1208" height="1630" rx="60" fill="url(#a)" style="fill:url(#a)"/><rect x="88" y="124" width="1080" height="1502" rx="54" fill="#5ca1dc" style="display:inline;fill:url(#b)"/><rect x="140.672" y="187.239" width="974.656" height="1375.523" rx="27.51" fill="url(#topWarm)" style="display:inline;fill:none;stroke:#f2d676;stroke-width:15;stroke-linecap:round;stroke-linejoin:bevel;stroke-dasharray:none;stroke-opacity:1"/></g><path d="M800 609.75H456v408.5c0 41.56 77.007 75.25 172 75.25s172-33.69 172-75.25z" fill="#6d4534" style="stroke-width:21.5" transform="translate(-110.532 -90.533)scale(1.18616)"/><path d="M627.998 684.999c94.993 0 172-33.69 172-75.25s-77.007-75.25-172-75.25c-94.991 0-172 33.69-172 75.25 0 13.69 6.897 25.4 21.5 36.46.48.378-.493-.374 0 0V781.75c0 5.936 4.814 10.75 10.75 10.75 5.938 0 10.75-4.814 10.75-10.75V659.525c.58.296-.59-.293 0 0 31.547 16.133 76.667 25.474 129 25.474m244.104 16.507L800 773.608v244.642c0 19.083-16.239 36.51-43.002 49.775V975.25c0-5.936-4.812-10.75-10.75-10.75-5.88 0-10.658 4.721-10.748 10.58V769.155a53.76 53.76 0 0 1 15.742-38.007l75.25-75.25c8.398-8.397 22.01-8.396 30.406 0l15.204 15.203c8.396 8.396 8.396 22.009 0 30.405m-498.954 182.75 82.851 82.852v51.142c0 23.764 25.178 44.954 64.501 58.745v-114.34a53.74 53.74 0 0 0-15.744-38.007l-86-86c-8.396-8.396-22.01-8.396-30.405 0l-15.203 15.202c-8.397 8.396-8.397 22.01 0 30.406m168.85-81.006c0-5.936 4.814-10.75 10.75-10.75 5.938 0 10.75 4.814 10.75 10.75v86c0 5.936-4.812 10.75-10.75 10.75-5.936 0-10.75-4.814-10.75-10.75z" fill="#a56953" style="stroke-width:21.5" transform="translate(-110.532 -90.533)scale(1.18616)"/><path d="M778.5 604.375c0 32.654-67.381 59.125-150.5 59.125s-150.5-26.471-150.5-59.125S544.881 545.25 628 545.25s150.5 26.471 150.5 59.125" fill="#f3ad61" style="stroke-width:21.5" transform="translate(-110.532 -90.533)scale(1.18616)"/><path d="M628 642c59.37 0 107.5-18.049 107.5-40.312 0-22.264-48.13-40.313-107.5-40.313s-107.5 18.049-107.5 40.313C520.5 623.95 568.63 642 628 642m0-21.5c-35.623 0-64.5-9.626-64.5-21.5s28.877-21.5 64.5-21.5 64.5 9.626 64.5 21.5-28.877 21.5-64.5 21.5" fill="#6d4534" style="stroke-width:21.5" transform="translate(-110.532 -90.533)scale(1.18616)"/></svg>