<svg width="291.969" height="406.205" viewBox="0 0 1256 1750" fill="none" xmlns="http://www.w3.org/2000/svg"><defs><radialGradient id="b" cx=".104" cy=".184" r="1" gradientUnits="userSpaceOnUse" gradientTransform="rotate(135.622 223.67 630.652)scale(980 899.08107)" fx=".104" fy=".184"><stop offset="0" stop-color="#79c0ec" style="stop-color:#cbd5e1;stop-opacity:1"/><stop offset="1" stop-color="#336bd0" style="stop-color:#64748b;stop-opacity:1"/></radialGradient><linearGradient id="a" x1="120" y1="100" x2="1120" y2="1650" gradientUnits="userSpaceOnUse"><stop offset="0" stop-color="#f3ebcf"/><stop offset="1" stop-color="#e3d3a3"/></linearGradient></defs><g><rect x="24" y="60" width="1208" height="1630" rx="60" fill="url(#a)" style="fill:url(#a)"/><rect x="88" y="124" width="1080" height="1502" rx="54" fill="#5ca1dc" style="display:inline;fill:url(#b)"/><rect x="140.672" y="187.239" width="974.656" height="1375.523" rx="27.51" fill="none" style="display:inline;fill:none;stroke:#f2d676;stroke-width:15;stroke-linecap:round;stroke-linejoin:bevel;stroke-dasharray:none;stroke-opacity:1"/></g><path d="m502.762 1165.438 287.053 22.03a75.66 75.66 0 0 0 60.971-30.708l70.762-95.685c12.461-17.134 17.357-38.719 13.129-59.413l-11.237-57.033-25.924-18.625-7.455-60.08 15.488-12.084-.69-3.493c-3.56-18.247-13.574-34.491-28.483-45.617l-84.336-74.99-52.96-97.91-64.531-3.56-112.596-40.944-148.2 156.655-35.826 80.33-5.786 12.907-36.938 68.314c-3.783 6.676.445 68.537-.89 76.103 0 0 154.652 183.803 168.449 183.803" fill="#9b9b9b"/><path d="m716.828 742.646-90.121 247.89 216.068 60.08 80.776-106.142-18.024-90.567z" fill="#e6e6e6"/><path d="m327.637 927.117-11.349 82.556h66.757l17.58-69.65c2.892-12.461 10.68-22.92 21.584-29.595l94.35-56.52-67.87-148.2-30.708 33.6c-2.893 3.116-5.118 6.676-6.898 10.681l-38.942 87.452-36.938 68.314c-3.783 6.676-6.23 13.796-7.566 21.362" fill="#636363"/><path d="m527.907 976.517 99.912 99.912 214.956-25.812-166.446-75.658c-14.686-6.675-22.252-23.365-17.58-38.941l58.079-193.372L739.08 631.83c-18.692-29.818-27.37-38.274-59.413-48.732-21.362-7.566-39.832-14.019-39.832-14.019s-12.016-5.118-24.922-6.453c-16.244-1.335-26.703 1.558-40.5 12.016l-57.855 279.265v95.24c0 10.236 4.006 20.027 11.349 27.37" fill="#d3d3d3"/><path d="M316.288 1009.673h66.757l244.774 66.756v111.039l-94.572.222c-25.59 0-50.735-5.785-73.654-17.356l-30.486-15.132a160.2 160.2 0 0 1-42.502-30.708l-20.694-20.695a162.44 162.44 0 0 1-39.61-64.086z" fill="#636363"/><path d="M938.905 1027.697c2.67 14.686-1.335 29.818-11.349 41.166l-88.34 100.58c-9.124 10.459-26.036 18.025-39.832 18.247H627.819v-111.26l214.956-25.813 80.553-106.143zM661.42 616.477l-24.7-34.937a41.9 41.9 0 0 0-64.309-4.895L421.986 733.3c-14.464 15.132-11.793 39.832 5.563 51.403l89.01 69.204 103.027-93.682c12.239-11.126 21.14-25.367 25.812-41.389l21.14-72.32c2.893-10.235 1.113-21.361-5.118-30.04" fill="#9b9b9b"/></svg>