<svg width="291.969" height="406.205" viewBox="0 0 1256 1750" fill="none" xmlns="http://www.w3.org/2000/svg"><defs><radialGradient id="b" cx=".104" cy=".184" r="1" gradientUnits="userSpaceOnUse" gradientTransform="rotate(135.622 223.67 630.652)scale(980 899.08107)" fx=".104" fy=".184"><stop offset="0" stop-color="#d9f99d"/><stop offset="1" stop-color="#65a30d"/></radialGradient><linearGradient id="a" x1="120" y1="100" x2="1120" y2="1650" gradientUnits="userSpaceOnUse"><stop offset="0" stop-color="#f3ebcf"/><stop offset="1" stop-color="#e3d3a3"/></linearGradient></defs><g filter="url(#softShadow)"><rect x="24" y="60" width="1208" height="1630" rx="60" fill="url(#a)" style="fill:url(#a)"/><rect x="88" y="124" width="1080" height="1502" rx="54" fill="#5ca1dc" style="display:inline;fill:url(#b)"/><rect x="140.672" y="187.239" width="974.656" height="1375.523" rx="27.51" fill="url(#topWarm)" style="display:inline;fill:none;stroke:#f2d676;stroke-width:15;stroke-linecap:round;stroke-linejoin:bevel;stroke-dasharray:none;stroke-opacity:1"/></g><path d="M715.437 1063.245V951.233l70.688.435v104.834c0 7.83-1.088 16.53-7.395 21.968l-56.333 51.547c-5.655 5.22-10.657 8.7-17.617 8.7h-24.36c-5.438 0-8.918-5.872-6.525-10.657l39.15-55.028c1.522-3.045 2.392-6.307 2.392-9.787M546.005 1138.5c-4.133 0-7.395-3.262-7.395-7.395v-156.6h67.86v43.283c0 17.182-6.96 33.93-19.14 46.11-2.828 2.827-2.828 6.525-2.828 10.44v56.767c0 4.133-4.785 7.395-8.917 7.395z" fill="#d3883e" style="stroke-width:21.75" transform="translate(-130.514 -132.457)scale(1.20782)"/><path d="M526.645 1138.5c-4.132 0-7.395-3.262-7.395-7.395v-156.6h67.86v43.283c0 17.182-6.96 33.93-19.14 46.11-2.827 2.827-5.22 6.525-5.22 10.44v56.767c0 4.133-2.392 7.395-6.525 7.395zm355.613-74.385-61.77-42.63 46.762-46.11 65.25 46.11v109.838c0 4.132-3.262 7.394-7.395 7.394h-29.362c-4.133 0-6.743-3.262-6.743-7.395v-55.244c0-4.785-2.827-9.135-6.742-11.963" fill="#f3ad61" style="stroke-width:21.75" transform="translate(-130.514 -132.457)scale(1.20782)"/><path d="M541.435 1021.485c-12.18 0-22.185-10.005-22.185-22.185v-24.577l54.375-31.973 54.81 31.973V999.3c0 12.18-10.005 22.185-22.185 22.185zm174-1.305h72.863c12.18 0 22.184-10.005 21.967-22.185V942.75H693.25v55.245c0 12.18 10.005 22.185 22.185 22.185" fill="#b4acbc" style="stroke-width:21.75" transform="translate(-130.514 -132.457)scale(1.20782)"/><path d="M541 616.5v-38.214c0-26.525-21.674-48.33-48.652-48.78-15.91-.224-30.206 5.395-39.43 15.96-3.689 4.272-8.992 6.52-14.757 6.52H401.73c-16.832 0-31.82 11.688-34.357 28.098-2.997 19.557 12.452 36.416 31.82 36.416H410.5L367 740.258v36.54c0 19.575 15.878 35.452 35.453 35.452h8.047v97.223c0 35.887 29.145 65.25 65.25 65.25h21.75V999.3c0 12.18 10.005 22.185 22.185 22.185H584.5c12.18 0 22.185-10.005 22.185-22.185v-24.577h161.168V999.3c0 12.18 10.005 22.185 22.185 22.185H932.5v-8.048c0-9.787-3.915-18.922-10.657-25.882l-26.318-29.797c-4.132-4.133-6.525-9.788-6.525-15.443V834c0 13.268 9.788 21.75 23.273 21.75 10.44 0 20.227-9.787 20.227-22.402v-19.793c0-66.337-53.722-120.06-120.06-120.06-13.702 0-27.187 1.957-40.237 5.655l-131.588 37.628c-18.27 5.22-38.062-2.393-47.197-18.923-.11-.326-.272-.598-.435-.87-.164-.272-.327-.544-.435-.87L550.57 632.16a59.3 59.3 0 0 0-11.47-15.66z" fill="#cdc4d6" style="stroke-width:21.75" transform="translate(-130.514 -132.457)scale(1.20782)"/><path d="M460.064 656.866A59.6 59.6 0 0 1 475.75 616.5h-64.591c-3.921 0-7.612 1.605-10.15 4.128l-69.896 69.493c-4.845 4.817-7.613 11.468-7.613 18.349 0 21.328 17.301 38.53 38.755 38.53h63.437c18.916 0 34.372-15.366 34.372-34.174z" fill="#f3ad61" style="stroke-width:21.75" transform="translate(-130.514 -132.457)scale(1.20782)"/><path d="M410.282 681.75c0 6.525 4.834 11.745 10.875 11.745 5.84 0 10.875-5.22 10.875-11.745v-17.618c0-6.525-4.833-11.745-10.875-11.745s-10.875 5.22-10.875 11.745zm-65.032 43.5h-17.91a38.3 38.3 0 0 1-3.84-16.78c0-1.68.165-3.343.484-4.97h21.266c6.006 0 10.875 4.87 10.875 10.875s-4.869 10.875-10.875 10.875" fill="#1c1c1c" style="stroke-width:21.75" transform="translate(-130.514 -132.457)scale(1.20782)"/><path d="M501.635 628.027c-3.045-3.045-8.048-2.61-10.441.87-11.31 16.965-9.57 40.02 5.22 55.028l.218.217c15.008 15.008 38.715 17.4 55.68 6.09 3.698-2.392 4.133-7.395 1.088-10.44z" fill="#f3ad61" style="stroke-width:21.75" transform="translate(-130.514 -132.457)scale(1.20782)"/></svg>