<svg width="291.969" height="406.205" viewBox="0 0 1256 1750" fill="none" xmlns="http://www.w3.org/2000/svg"><defs><radialGradient id="b" cx=".104" cy=".184" r="1" gradientUnits="userSpaceOnUse" gradientTransform="rotate(135.622 223.67 630.652)scale(980 899.08107)" fx=".104" fy=".184"><stop offset="0" stop-color="#79c0ec" style="stop-color:#fef08a;stop-opacity:1"/><stop offset="1" stop-color="#336bd0" style="stop-color:#f59e0b;stop-opacity:1"/></radialGradient><linearGradient id="a" x1="120" y1="100" x2="1120" y2="1650" gradientUnits="userSpaceOnUse"><stop offset="0" stop-color="#f3ebcf"/><stop offset="1" stop-color="#e3d3a3"/></linearGradient></defs><g><rect x="24" y="60" width="1208" height="1630" rx="60" fill="url(#a)" style="fill:url(#a)"/><rect x="88" y="124" width="1080" height="1502" rx="54" fill="#5ca1dc" style="display:inline;fill:url(#b)"/><rect x="140.672" y="187.239" width="974.656" height="1375.523" rx="27.51" fill="none" style="display:inline;fill:none;stroke:#f2d676;stroke-width:15;stroke-linecap:round;stroke-linejoin:bevel;stroke-dasharray:none;stroke-opacity:1"/></g><path d="M537.874 1335.48h16.117c4.604 0 8.222-3.617 8.222-8.551V710.543h-32.891v460.48h-65.783V940.455c0-67.427-50.653-123.014-116.107-130.579a13.683 13.683 0 0 0-15.459 13.486v248.33c0 72.69 58.876 131.566 131.566 131.566h65.783v123.672c0 4.934 3.618 8.552 8.552 8.552M627.996 875h32.892v427.588h66.77v-136.17c0-67.428 50.652-123.014 116.106-130.58 8.223-.986 15.46 5.263 15.46 13.486v154.59c0 72.69-58.876 131.566-131.567 131.566h-88.806c-5.92 0-10.855-4.934-10.855-10.854Z" fill="#44911b"/><path d="M701.344 611.869c13.486 0 24.998 10.525 25.327 24.34s-10.854 24.997-24.669 24.997H601.354c-17.103 0-30.918 13.814-30.918 30.918v59.204c0 13.815-11.183 24.998-24.997 24.67-13.815 0-24.34-11.842-24.34-25.327V548.059c0-73.677 59.863-133.54 133.54-133.54h146.038c13.814 0 24.997 11.184 24.668 24.998 0 13.815-11.84 24.34-25.326 24.34H655.296c-13.814 0-24.997 11.183-24.668 24.998s11.84 24.34 25.326 24.34h111.831c13.814 0 24.998 11.182 24.669 24.997 0 13.814-11.841 24.34-25.327 24.34H622.405c-13.815 0-24.998 11.183-24.669 24.997s11.841 24.34 25.327 24.34Zm98.675 296.023c13.485 0 24.997 10.525 25.655 24.01.329 13.815-10.854 24.998-24.669 24.998H700.358c-17.104 0-30.918 13.815-30.918 30.918v59.534c0 13.814-11.183 24.997-24.998 24.668-13.814 0-24.34-11.84-24.34-25.326V844.082c0-73.676 59.863-133.539 133.54-133.539H899.35c13.814 0 24.997 11.183 24.669 24.998 0 13.814-11.841 24.34-25.327 24.34H760.22c-13.814 0-24.997 11.182-24.669 24.997 0 13.814 11.841 24.34 25.327 24.34h105.581c13.815 0 24.998 11.183 24.669 24.997 0 13.814-11.84 24.34-25.326 24.34H727.329c-13.815 0-24.998 11.183-24.669 24.997 0 13.815 11.84 24.34 25.326 24.34z" fill="#f9c23c"/></svg>